<svg width="105" height="43" viewBox="0 0 105 43" fill="none" xmlns="http://www.w3.org/2000/svg">
<path d="M9.82316 36.1244C10.197 36.7068 8.53347 35.6339 9.47163 36.6912C9.20739 36.6045 8.94462 36.5164 8.68726 36.426C8.71679 36.2171 8.74601 36.0083 8.77826 35.8003C9.12011 35.9111 9.468 36.0186 9.82359 36.1235C9.82344 36.1238 9.8233 36.1241 9.82316 36.1244ZM11.3239 34.0686C10.7994 34.4557 9.81588 34.1478 10.5815 35.0974C10.7447 34.9583 10.9091 34.8194 11.0707 34.6788C11.3618 34.9797 11.6471 35.2708 11.9252 35.5526C12.0771 35.5362 12.2292 35.5191 12.3816 35.5023C12.4103 35.8814 12.443 36.2619 12.4826 36.644C12.3539 36.5392 12.2255 36.4327 12.1006 36.3276C11.4294 36.348 10.9028 36.2063 10.0842 35.8772C10.1183 35.9822 10.1537 36.0868 10.1894 36.1921C9.84455 35.8806 9.51603 35.5675 9.20468 35.2544C9.59018 35.3016 10.0265 35.3493 10.3932 35.3838C10.1157 34.6677 9.17048 34.5194 8.64153 34.3515C7.95624 34.1423 8.22078 33.9997 7.73186 33.8336C7.6547 33.8065 7.54394 33.9716 7.40647 33.8915C6.63712 33.4549 5.42269 32.4365 6.44189 32.5984C7.53459 33.4334 8.69249 33.6732 9.7909 34.387C9.74452 33.7601 10.3926 33.8999 11.3239 34.0686ZM2.30206 13.9853C2.2953 14.4754 1.76625 15.1707 1.34007 15.6206C1.33976 15.6212 1.33945 15.6218 1.33914 15.6224C1.24396 15.722 0.79638 15.8461 1.00834 15.4543C1.3567 14.8285 2.00047 14.8128 1.87086 14.3079C2.01331 14.2041 2.15444 14.0916 2.30206 13.9853ZM3.11114 12.7373C3.46587 12.4807 3.67824 12.8761 3.29244 13.2258C3.29271 13.226 3.29297 13.2262 3.29324 13.2264C3.13292 13.3759 3.10677 12.8389 2.9382 13.6677C2.63719 13.6572 2.35537 13.6624 2.05962 13.6652C2.16236 13.4975 2.25556 13.3439 2.36882 13.1708C2.63997 13.5203 2.75831 12.9955 3.11114 12.7373ZM5.74552 32.3781C5.46174 32.637 5.6998 32.818 5.91886 33.2936C5.5811 33.0408 5.19356 32.7346 4.85084 32.4424C5.15079 32.4266 5.44748 32.4045 5.74552 32.3781ZM14.5824 36.9038C14.583 36.904 14.5835 36.9043 14.5841 36.9045C14.7317 36.8928 14.8802 36.8807 15.0268 36.8684C15.0607 37.0225 15.0947 37.1758 15.1305 37.3301C15.3795 37.3475 15.6312 37.3642 15.8851 37.3797L16.1361 37.444C16.3776 37.4252 16.6191 37.4064 16.86 37.3873C16.7789 37.6271 16.4518 37.6385 16.0952 37.655L15.8196 37.5845C15.5718 37.5618 15.3135 37.5385 15.097 37.585C14.4498 37.2373 14.2194 36.8971 14.2939 36.5534C14.3883 36.6698 14.4834 36.7869 14.5824 36.9038ZM83.8985 2.77528C84.0697 2.68927 84.2387 2.60326 84.4094 2.51812C84.2188 2.43059 84.0257 2.35598 83.8306 2.26098C83.2083 2.65877 83.234 2.21653 82.5028 2.13246C80.3039 1.90236 80.8537 2.75883 78.9941 1.39361C80.5862 1.638 80.0346 1.0377 81.036 0.75676C81.1873 1.09099 80.1678 1.663 80.7757 1.89122C81.8536 1.70401 83.0452 1.57294 84.2871 1.57703C84.2611 1.51777 84.2352 1.45836 84.2089 1.39912C84.0099 1.3986 83.8112 1.39912 83.6097 1.39972C83.8449 1.29313 84.0746 1.18772 84.3124 1.0817C83.988 1.35634 84.7013 1.2974 84.5427 1.65108C84.4727 1.80826 84.1341 1.98329 83.9298 2.11017C84.3713 2.27506 84.8154 2.43748 85.2417 2.60605C84.9871 2.69248 84.7318 2.78012 84.4768 2.86888C84.2861 2.83816 84.0955 2.80704 83.9018 2.77735C83.9007 2.77666 83.8996 2.77598 83.8985 2.77528ZM41.7936 40.4609C42.3828 40.1145 43.4452 40.1399 43.946 40.622C43.2324 40.5627 42.5007 40.5081 41.7936 40.4609ZM14.3486 36.267C14.3893 36.3519 14.4287 36.4354 14.4704 36.5203C14.1481 36.5362 13.8271 36.5487 13.51 36.5606C13.5269 36.3628 13.5325 36.1606 13.5431 35.961C13.8243 36.0703 14.0761 36.1666 14.3486 36.267ZM0.287649 22.821C0.316291 23.0749 0.31045 23.0971 0.317951 23.4181C0.318071 23.4177 0.318191 23.4173 0.318311 23.417C0.30875 23.546 0.388091 24.6085 0.229544 24.5266C0.1121 23.999 0.0347788 23.429 0.000206929 22.8794C0.0957749 22.8567 0.191412 22.8471 0.287649 22.821ZM2.23112 28.5764C2.23125 28.5772 2.23139 28.5779 2.23153 28.5787C2.31879 28.7445 2.39552 28.9282 2.49743 29.0769C1.89549 28.6507 2.17058 28.3105 1.74994 27.8451C1.33175 27.3671 0.926927 27.061 1.2419 26.3498C1.39678 26.4975 1.5948 26.6383 1.77156 26.7736C1.97039 27.6701 2.28584 27.7544 2.85313 28.195C2.64568 28.323 2.43941 28.4497 2.23112 28.5764ZM74.3506 0.474548C74.1789 0.744 74.0297 0.456372 74.0121 0.451784C74.0125 0.451482 74.0128 0.45118 74.0132 0.450879C72.6914 0.620668 74.1739 0.303835 72.9806 0.180659C73.1628 0.12183 73.3418 0.0591896 73.5213 2.99736e-05C73.7716 0.153025 74.0842 0.329376 74.3506 0.474548ZM32.2913 1.52468C32.2718 1.44414 32.2498 1.36365 32.2302 1.28312C32.9835 1.23436 33.1453 0.896242 33.7893 1.13494C33.2929 1.26459 32.7937 1.39468 32.2914 1.52565C32.2914 1.52533 32.2914 1.525 32.2913 1.52468ZM1.38926 18.7207C1.28659 19.6257 1.22768 20.2583 0.891629 21.0972C0.89124 21.0978 0.890851 21.0984 0.890462 21.0991C0.869966 21.1485 0.724353 20.8866 0.674681 20.9477C0.680586 21.133 0.704051 21.3267 0.723971 21.5133C0.585426 21.5304 0.447008 21.5473 0.309358 21.5663C0.376106 21.0258 0.479443 20.5037 0.614897 19.9885C0.521589 20.0509 0.429087 20.1168 0.336733 20.1824C0.372006 19.7201 0.430215 19.2705 0.510893 18.8197C0.686008 19.0322 0.865905 19.2377 1.05126 19.4348C1.15732 19.1929 1.26889 18.9543 1.38926 18.7207ZM44.5496 1.48826C44.4177 1.40674 44.6427 1.24273 44.4416 1.17789C44.2406 1.11398 43.8872 1.30328 43.9567 1.046C44.2204 0.9955 44.4962 0.939573 44.7629 0.887846C43.8703 0.485432 43.017 0.953958 42.967 0.393898C43.8219 0.484365 44.5044 0.37435 45.2964 0.171795C45.2897 0.618988 44.5107 1.05214 45.0406 1.44004C44.879 1.45549 44.7089 1.47424 44.5513 1.48718C44.5507 1.48754 44.5502 1.4879 44.5496 1.48826ZM27.2225 33.3198C27.7071 33.4482 28.8669 33.4872 29.438 33.8626C29.5784 33.9551 29.9293 34.8683 29.9059 34.9752C29.8209 35.334 29.1903 35.263 29.8099 35.6275C29.5856 35.5866 29.3658 35.5582 29.1424 35.5217C29.1352 35.7724 29.1279 36.0225 29.1191 36.2721C29.3966 36.2879 29.6745 36.3035 29.9522 36.3185C29.9499 36.4015 29.9475 36.4847 29.9452 36.5678C28.9727 36.3812 29.4864 36.8029 28.926 36.9946C29.3622 37.2308 29.8019 37.467 30.2363 37.7028C29.9727 37.6333 29.6601 37.559 29.4286 37.4923C29.3173 37.8982 29.8984 37.9088 29.9799 38.0038C30.4388 38.5404 27.7191 37.7879 27.377 38.3438C27.8053 38.4959 28.2557 38.6505 28.6941 38.8037C28.5504 38.8526 28.405 38.9013 28.2612 38.9502C27.3178 38.3384 26.1984 37.9696 25.0556 37.4811C24.9446 37.4773 24.8332 37.4739 24.724 37.4696C24.7195 37.6618 24.7134 37.8529 24.7089 38.0451C24.542 38.0355 24.3732 38.0254 24.2064 38.0159C24.8044 37.4959 24.1389 37.3757 23.41 36.8467C23.878 36.7138 24.3786 36.9462 24.4201 36.5379C22.8972 36.5634 21.2682 35.7953 19.7774 35.8683C19.4074 35.8861 19.3083 36.4039 18.4868 36.1953C18.526 36.1439 18.5507 36.0421 18.5834 35.9709C17.7547 35.954 17.108 35.9401 16.4473 35.8369L16.3841 35.8208C15.8482 35.6692 15.3214 35.4572 14.7325 35.125C14.7504 35.3328 14.768 35.5411 14.7887 35.7494C15.128 35.7691 15.4724 35.7855 15.8185 35.8007C15.9215 36.117 15.6634 36.1811 16.2023 36.3889L16.3339 36.4226C16.4213 36.445 16.5297 36.4684 16.6642 36.494C17.4395 36.6415 17.0045 36.4166 17.2328 36.3663C17.5422 36.2973 17.7452 36.5903 18.079 36.5108C18.3369 36.4502 18.1293 36.147 18.7357 36.3311C18.4232 36.6113 18.1037 36.9012 17.7888 37.1852C17.6522 37.082 17.5169 36.9778 17.3804 36.8738C17.55 36.8156 17.7168 36.758 17.8865 36.6998C17.3365 36.7517 16.8159 36.8006 16.2503 36.8543L16.0682 36.8077C16.0484 36.8068 16.0284 36.806 16.0085 36.8051C16.3429 36.4047 15.6941 36.3871 15.3635 36.3349C14.8481 36.2542 15.3713 36.081 15.0373 36.025C14.7061 35.9697 14.2418 36.2011 13.7228 35.9219C14.0898 35.8294 13.7619 35.5006 13.9075 35.3429C14.0542 35.1865 14.6379 35.3551 14.1673 34.9497C13.0006 34.6815 13.9399 35.8519 13.1344 35.672C12.1639 35.4463 12.4591 34.2216 12.8113 34.0842C13.0875 33.9754 13.7746 34.2954 14.0634 34.1816C12.9311 33.3374 12.6715 34.0117 12.3979 34.0566C11.4443 34.2145 12.4992 33.1483 11.3891 33.1953C11.5184 32.9653 11.633 32.7576 11.7571 32.537C11.585 32.5089 11.4574 32.5187 11.2613 32.4654C11.5734 33.1857 11.1423 32.9549 10.9178 32.8443C10.5657 32.671 10.998 33.1652 10.8773 33.177C10.544 33.2069 10.1858 32.9339 10.3255 33.2594C10.2618 33.109 10.2019 32.9593 10.1264 32.8019C9.63677 32.6977 8.10058 33.0842 9.16561 33.4295C8.87751 33.7373 8.65621 33.3891 8.45316 33.1976C8.24987 33.0059 8.12105 33.2315 7.94239 33.0666C7.19104 32.37 7.99183 32.3477 8.30421 32.1321C7.10129 31.636 8.03883 32.4796 6.45619 31.5507C6.1348 31.6668 6.67672 32.4428 5.97594 32.1292C6.15752 31.6443 5.93281 31.0538 5.2941 30.2593C5.14234 30.2748 4.98967 30.2895 4.83707 30.3016C4.73651 29.5665 5.29214 29.4795 4.17734 29.1018C5.33624 28.824 4.53553 28.9745 4.31453 28.0247C4.27446 27.8363 4.69011 28.0143 4.6275 27.7592C4.60005 27.645 4.31463 27.542 4.25904 27.2423C4.22519 27.0896 4.25062 26.4026 3.89751 26.1388C3.60963 26.6634 2.82164 26.11 2.81668 26.97C2.22914 25.6792 1.74523 24.8916 2.93896 26.0141C2.93751 25.6511 2.95382 25.2858 2.99415 24.9345C2.80851 24.762 2.63034 24.5829 2.45641 24.3849C2.85602 24.2467 2.94214 24.2576 2.72777 23.4243C2.87904 23.7773 3.05624 24.121 3.25131 24.4401C3.33494 24.4287 3.43214 24.4512 3.50652 24.4168C3.20546 24.0572 2.9504 22.8292 2.85154 22.5212C2.72871 22.2156 2.72504 22.8167 2.61587 22.7352C1.7 21.9985 2.36089 22.0225 2.23913 21.4625C2.17304 21.1184 2.02434 21.9194 1.9984 21.7377C1.89556 21.0414 2.40564 20.7877 2.51811 20.2213C2.21707 20.374 1.9154 20.5395 1.6201 20.7181C1.72265 20.0644 1.89095 19.3636 1.99483 18.7511C2.03508 18.5143 1.79251 18.6251 1.79164 18.5841C1.77962 18.3777 1.96057 17.5814 1.998 17.5012C2.24411 16.9085 2.50093 17.008 2.78386 16.4638C2.69641 16.6901 2.6185 16.9029 2.54339 17.1246C2.90481 17.403 3.27014 17.6753 3.64175 17.9376C3.88246 17.4526 4.15677 16.9696 4.44985 16.5102C4.12593 16.7872 3.80953 17.0812 3.50251 17.3934C3.44808 16.6553 3.44281 15.9058 3.4928 15.133C3.86379 14.9474 4.23704 14.7761 4.61342 14.6152C5.09217 13.8263 4.27957 13.4411 5.17194 13.5549C5.28929 13.2924 5.40602 13.0387 5.5321 12.7818C5.59334 12.8833 5.65543 12.9843 5.71752 13.0851C5.87165 12.7863 6.03646 12.4858 6.20293 12.1912C5.67575 12.1915 5.12806 12.1942 4.60154 12.2342C4.97054 11.6468 5.24103 11.858 5.36913 11.8352C5.71009 11.7771 5.83832 11.1862 6.13531 11.1695C6.23323 11.1653 5.95718 11.7974 6.29771 11.8015C6.36662 11.7958 7.62657 11.8098 7.84775 11.2884C7.72064 11.1754 7.54382 11.058 7.3972 10.9436C7.84936 10.345 8.73239 10.7421 8.83051 10.9885C8.98647 10.6014 9.39384 10.2191 9.27449 9.9635C9.41778 9.82868 9.56153 9.69633 9.70734 9.56412C9.98092 10.1975 10.5178 9.5898 10.2042 9.11508C9.93326 9.3171 9.664 9.52351 9.39862 9.73466C9.1424 9.04581 8.06094 9.37572 10.158 8.49145C10.7072 8.51634 9.55287 8.91489 9.98658 8.9145C10.5381 8.66923 10.891 8.23033 11.4859 8.10671C12.2297 7.96229 11.7079 8.68736 12.7847 7.46111C9.32855 8.68056 12.7493 6.55843 14.0879 5.48148C14.784 5.96218 15.7323 5.82967 16.8535 5.30072L16.708 5.34202C17.1024 5.2932 17.5257 5.20721 17.9721 5.08581C17.7366 4.83489 17.1362 5.04897 16.7679 5.00114C16.7238 4.99539 16.6903 4.98735 16.6646 4.97749L16.699 4.96774C16.5044 4.95486 16.667 4.72216 16.2732 4.78309C15.8217 4.85156 14.9057 5.12966 14.4152 5.18436C14.661 4.85082 16.2113 3.65838 15.2775 4.62802C15.7464 4.53569 16.1045 4.51172 16.4653 4.4641L16.599 4.42615C16.9937 4.49687 17.4083 4.53653 18.0027 4.49381C18.2943 4.02569 18.2411 3.76074 19.346 3.62135C18.7613 4.29163 20.0625 4.56199 19.8563 5.20887C19.0593 5.15478 19.4273 4.50693 18.9411 4.27286C18.8916 4.24948 18.1756 4.48432 18.0027 4.49381C18.8078 4.94422 19.0836 5.11528 18.704 5.80673C19.2199 5.69026 19.5516 5.73371 19.5641 5.42308C19.6875 5.54308 19.8114 5.66318 19.9327 5.78347C20.1009 5.76097 20.2509 5.73152 20.4293 5.71383C20.1318 5.28121 20.6398 5.51068 20.9528 5.26425C21.2657 5.0177 20.775 4.70416 21.6963 4.59676C21.3776 4.52295 21.0857 4.46187 20.7755 4.39339C21.3597 4.20783 21.9423 4.0226 22.5197 3.83962C22.0755 3.60314 21.1231 3.28574 21.106 2.91297C21.3973 3.02178 22.3067 2.67304 22.4071 2.65203C22.7982 2.57107 22.6081 2.82811 22.6387 2.8306C23.2712 2.87659 23.769 2.74303 24.0397 3.07218C24.4779 2.86406 24.8523 2.91666 25.3673 2.85393C25.6495 2.81961 25.5676 2.56529 25.7379 2.59756C26.8653 2.81512 25.8656 3.25484 27.8926 2.40535C27.6224 2.24914 27.3542 2.08872 27.0818 1.93142C27.3118 1.8392 27.5399 1.74695 27.7689 1.65515C27.9299 1.67244 28.0892 1.69022 28.2496 1.70771C28.2849 2.10103 28.3196 2.49524 28.3549 2.88856C28.529 2.89305 28.7033 2.89699 28.8767 2.90172C28.5866 2.96908 28.2949 3.03681 28.003 3.10487C27.9828 3.17669 27.9644 3.24837 27.9443 3.3202C28.3945 3.38365 28.8407 3.44903 29.2859 3.51491C29.2811 3.37737 29.276 3.23889 29.2711 3.10135C30.2683 3.19752 30.3012 3.3113 31.1858 2.84875C31.891 2.78743 32.4125 2.16368 32.831 1.88359C32.9919 1.94651 33.1528 2.0105 33.3148 2.07348C33.403 1.95099 33.4923 1.82895 33.5805 1.70652C33.7889 1.84782 33.9993 1.98909 34.2063 2.12992C34.2826 1.76132 34.3308 1.64363 33.5614 1.5837C33.784 1.11329 35.1306 1.19628 35.6754 1.30284C36.0901 1.38324 35.6714 1.79346 35.7258 1.83464C35.9083 1.97456 36.5621 1.78717 36.7028 1.80169C37.2993 1.86073 37.7067 1.80989 38.2374 1.85189C38.3408 1.8605 38.6433 2.07524 38.6679 2.08086C38.8589 2.10691 39.3286 2.18726 39.3809 2.18674C42.243 2.15634 39.1322 1.347 41.7771 1.26997C41.6893 1.13995 41.6078 1.01042 41.5214 0.880344C41.7195 0.858393 41.9192 0.836892 42.1162 0.81532C42.374 0.911702 42.0856 1.13764 42.5704 0.938621C42.5492 1.10763 42.5279 1.27672 42.505 1.44501C42.7144 1.34064 42.9155 1.23773 43.129 1.13345C43.513 1.68952 44.7616 1.74431 44.7134 2.4302C44.6982 2.66314 43.8358 2.95495 44.3147 3.17326C44.6937 3.1987 44.4222 2.93804 44.5746 2.91413C45.6729 2.74639 45.6279 3.13888 46.0686 3.0097C46.1299 2.83961 46.1908 2.66631 46.2578 2.49428C46.44 2.53291 46.6221 2.57169 46.8049 2.61056C46.8403 2.49668 46.8776 2.38259 46.9131 2.26872C46.7447 2.27042 46.5545 2.27336 46.3991 2.27459C46.5957 1.82855 48.5477 1.53193 47.819 1.93948C47.5232 2.10469 46.9599 2.07123 47.3407 2.56303C47.8624 2.46144 48.4501 2.35617 48.9903 2.2564C49.0125 2.36557 49.0336 2.47501 49.0558 2.58418C49.783 2.47827 49.0981 2.06997 49.0877 1.83427C49.255 1.81964 49.4237 1.8059 49.5902 1.79157C49.6658 1.89488 49.738 2.00335 49.8166 2.10327C49.8153 1.93343 49.8918 1.53454 50.3917 1.65923C50.7123 1.7408 50.2334 2.19014 50.8326 2.10503C50.7763 1.84239 50.5461 1.52883 51.2113 1.41585C51.289 1.68936 51.3906 1.93871 51.4534 2.22696C52.2638 1.92898 52.6599 2.34097 53.6721 1.99836C54.3091 1.78172 55.1621 1.06374 55.5953 2.12193C56.0551 2.13844 55.9026 1.87618 56.0368 1.81304C56.6698 1.51462 57.1487 2.0124 57.2662 2.03991C58.0198 2.21687 58.3277 2.03684 58.9857 2.26768C58.9485 2.07025 58.9273 1.88319 58.897 1.69064C58.2981 1.99497 58.043 1.9846 57.2554 1.93561C57.5172 1.89083 57.7779 1.84556 58.0374 1.80164C57.9923 1.64177 57.9474 1.48187 57.9037 1.32283C55.4898 2.0024 56.0379 0.989892 58.0666 0.734677C58.2443 1.02905 58.4308 1.32269 58.6217 1.61809C59.8539 1.15195 60.435 1.53793 61.7837 1.63025C61.9441 1.64076 62.524 1.4707 62.7707 1.46362C62.7666 1.46247 62.7625 1.46131 62.7584 1.46015C62.9135 1.18026 62.7058 1.0501 62.6818 0.799193C62.8165 0.768308 62.9509 0.737681 63.085 0.70705C63.3825 0.90031 63.2758 1.0561 63.8614 1.01602C63.7819 0.824818 63.7082 0.633669 63.6305 0.442574C64.2853 0.441889 64.7531 0.655018 65.3764 0.576381C65.2697 0.646544 65.1643 0.71702 65.0574 0.787351C66.416 0.995453 65.314 2.09414 66.3421 1.55847C66.4041 1.65758 66.4644 1.75762 66.526 1.85679C66.1109 1.87086 65.6918 1.88554 65.2707 1.90231C65.2597 2.04036 65.2481 2.1778 65.2389 2.31587C65.6905 2.28217 66.1399 2.24875 66.5828 2.21811C66.258 2.30297 65.9292 2.38873 65.6004 2.47524C66.1186 2.55131 66.6302 2.62946 67.1349 2.70957C66.6092 2.18703 67.3105 2.14369 67.1929 1.63708C68.0907 2.08221 68.7195 2.65264 70.2025 2.36521C70.4885 2.30831 70.3564 1.94856 71.1314 2.41658C70.9686 1.8472 71.9763 1.63875 71.8785 1.10078C71.6016 1.11077 71.3128 1.11141 71.0402 1.12899C71.3389 1.32933 71.3622 1.83888 70.8887 1.96562C70.2857 2.12686 69.4115 1.73809 69.4241 2.30304C69.1862 2.26677 68.9411 2.24168 68.7295 2.21157C68.825 2.07515 68.9199 1.93788 69.0237 1.80193C68.3679 1.99631 67.9843 1.91313 67.6836 1.55118C68.4438 1.49317 69.213 1.44102 70.0284 1.39693C69.9119 1.36774 69.7935 1.33841 69.6762 1.31028C70.2974 0.977161 69.6918 0.607002 70.8189 0.583546C70.8039 0.747724 70.7903 0.912083 70.7753 1.07709C71.2059 0.656089 72.3012 0.720601 71.9805 0.194996C72.3025 0.369373 72.3625 0.47178 72.5649 0.210428C73.4024 0.647475 73.9163 1.1739 73.5665 1.73168C73.9073 1.66146 74.2528 1.59272 74.5903 1.52484C74.4101 1.3516 74.2278 1.17938 74.044 1.00675C74.631 1.05914 75.2122 1.11495 75.7778 1.17283C75.7946 1.64502 74.6648 1.22403 74.9649 1.67026C75.0253 1.75961 75.3477 1.60461 75.4241 1.65879C76.2262 2.24258 74.9298 1.76047 75.1464 2.17427C76.3901 2.40268 75.3431 2.96916 77.0792 2.5761C77.11 2.71554 77.1435 2.85803 77.1707 2.99634C77.7463 3.06277 77.7161 2.75142 78.2576 2.75179C78.5941 2.75237 78.9414 3.33423 79.3403 3.01323C79.411 2.95458 78.8943 2.22533 80.1463 2.41163C81.1053 2.5601 80.6425 2.96868 81.1287 3.20207C81.5717 3.42793 82.9486 2.98866 83.1673 3.76923C82.9101 3.62795 82.5654 3.51936 82.265 3.39257C82.1162 3.51362 81.971 3.63397 81.824 3.75507C82.5715 3.68095 83.2523 4.01399 83.7686 3.76028C84.5811 4.42796 85.6556 4.15636 85.5067 3.52817C85.1783 3.54902 85.4515 3.86337 85.0796 3.62453C85.0643 3.48241 85.0464 3.34049 85.0304 3.19831C85.7194 3.34748 86.2721 3.46255 85.8418 3.7977C85.954 3.83104 86.0645 3.86433 86.1753 3.89805C86.2582 3.60756 86.3393 3.31556 86.4227 3.02521C86.5664 3.02118 86.7099 3.01788 86.8522 3.01453C86.988 3.1123 87.1224 3.21115 87.2565 3.31061C86.9459 3.73036 86.6196 3.66648 87.6615 4.18539C87.7032 4.02595 87.7462 3.86752 87.788 3.7081C88.6408 4.13383 88.6008 4.52947 89.7755 4.8452C88.7342 5.14148 88.4536 4.0304 88.1908 5.14635C87.9977 5.0193 87.7994 4.89138 87.599 4.76546C87.5267 4.9192 87.4549 5.07334 87.3847 5.22765C88.5269 5.39737 90.8903 4.94576 91.4191 5.9051C91.5455 5.85441 91.6683 5.81523 91.7983 5.75974C92.4247 6.4453 93.1018 5.65122 93.6187 6.47696C93.6631 6.56364 93.1741 7.34369 94.1369 7.7421C94.1638 7.62228 94.2359 7.43301 94.2796 7.28641C94.4573 7.44894 94.6258 7.61442 94.788 7.77826C94.8724 7.69621 94.9589 7.61534 95.0444 7.53314C94.7258 7.32612 94.3929 7.12138 94.0431 6.9197C94.3636 7.01973 94.6778 7.12371 94.9819 7.22999C94.6849 6.884 94.5009 6.79966 94.8617 6.64705C95.2088 6.79127 95.5455 6.93859 95.8701 7.09044C95.9375 7.04187 96.0052 6.99261 96.073 6.94446C96.024 6.66665 95.9637 6.39075 95.9017 6.1071C96.6799 6.70086 97.5144 7.21177 97.8585 7.9744C97.9276 8.1136 97.3687 8.06932 98.2604 8.38107C98.1816 8.51309 98.1276 8.62759 98.0563 8.75076C99.1645 9.05129 99.3637 9.38177 99.9067 10.3886C99.6255 9.67979 99.9308 10.2616 100.165 10.2906C100.329 10.31 99.9835 9.96379 100.1 9.92661C100.217 9.88344 100.998 10.0717 100.649 9.61459C98.9996 9.25704 99.4879 8.21898 97.7313 7.55423C98.0176 7.59927 98.2993 7.64688 98.6096 7.72383C98.548 7.5808 98.4819 7.44556 98.4163 7.29739C99.1693 8.04798 98.8173 7.65946 99.2475 7.80334C99.6821 7.956 100.317 8.33208 100.756 8.70915C100.887 8.8208 100.618 8.84079 100.87 9.12435C101.042 9.3119 101.736 9.63875 101.554 9.99317C101.428 10.2149 100.28 9.8054 101.186 10.9512C101.165 11.3066 100.806 10.7073 100.769 10.7143C100.487 10.7931 100.85 11.5902 101.219 11.8056C101.252 11.8245 101.262 11.443 101.517 11.6887C102.117 12.2834 102.112 12.8851 101.981 13.469C102.355 13.3673 103.068 13.9111 103.091 14.8428C103.209 14.8683 103.326 14.8931 103.445 14.9218C103.363 14.7884 103.279 14.6581 103.192 14.5311C103.227 14.3646 103.238 14.1916 103.278 14.0211C103.595 14.9062 104.117 14.9685 104.373 15.4253C105.158 17.0569 103.678 16.0814 103.42 15.8518C103.504 15.6485 103.593 15.446 103.669 15.2345C103.538 15.2743 103.406 15.3137 103.274 15.3502C103.442 17.5734 102.451 15.7549 102.228 16.8095C102.891 17.0565 102.924 17.9453 102.322 18.821C102.305 18.9277 102.284 19.0348 102.265 19.1426C102.355 19.181 102.5 19.2123 102.556 19.2559C102.374 20.5114 101.306 20.3553 101.187 20.4332C100.633 20.7441 101.052 21.3025 101 21.4479C100.792 22.0183 100.485 22.0596 100.34 22.6355C100.175 23.2595 100.545 22.9585 100.622 23.2146C100.677 23.4289 100.473 23.8794 100.505 24.132C100.437 24.0015 100.374 23.8652 100.303 23.7369C99.8542 24.2277 99.4432 24.6218 99.0133 25.2411C99.3341 26.4198 97.6546 26.1997 98.8377 26.6332C99.311 26.0771 99.629 25.8273 100.099 25.6571C99.885 26.0834 99.6666 26.496 99.4301 26.9211C99.2403 26.9636 99.0761 26.9732 98.8692 27.0336C98.8947 27.5043 98.3237 28.092 98.1973 28.3997C97.598 29.8437 98.23 29.8174 96.7413 30.3605C97.3005 29.5474 96.996 29.2948 97.6421 28.54C97.2885 28.5393 97.0268 28.973 96.9571 28.508C96.4336 29.3175 96.8596 29.2597 96.8428 29.7133C96.8287 30.1029 96.426 30.6093 96.6801 30.7744C96.5101 30.7195 96.3541 30.656 96.1848 30.6002C95.7881 31.0759 95.3658 31.5621 94.9681 32.0094C95.0138 31.6985 95.0493 31.3965 95.0938 31.0833C94.911 31.1936 94.7394 31.2901 94.5605 31.393C94.3111 32.0236 93.6933 32.6221 93.1604 33.1455L93.1966 33.1111C92.4326 33.7231 91.8671 34.1722 92.5285 34.6328C91.9846 35.1161 91.7977 35.04 91.3242 35.0744C91.3497 35.1832 91.3657 35.2775 91.3975 35.3958C90.9501 35.5906 90.8754 36.114 90.4749 36.2656C90.0682 36.421 89.7789 36.173 90.0626 36.719C89.7349 36.7237 89.4278 36.7462 89.1147 36.7482C89.0508 36.9512 88.9843 37.1525 88.9177 37.3534C88.6661 37.419 88.3978 37.4912 88.1402 37.5531C88.1621 37.8802 87.226 38.2462 86.9075 38.6187C86.382 38.5248 85.9674 37.6358 85.1728 38.1871C85.2946 38.4021 85.4163 38.6163 85.5392 38.8307C85.3148 38.8742 85.0847 38.9176 84.8546 38.9579C84.8112 38.889 84.7696 38.8194 84.7264 38.7505C84.8417 38.7295 84.9558 38.7082 85.072 38.6863C84.9264 38.6009 84.7843 38.5143 84.6427 38.4262C84.4078 38.7421 84.1654 39.0547 83.9145 39.3639C84.4016 39.3435 84.8948 39.3091 85.3935 39.2596C84.9125 39.6628 84.4606 39.6481 84.0491 40.0168C83.5109 39.853 83.6046 39.61 83.6425 39.2041C83.5025 39.2891 83.3558 39.374 83.2113 39.4577C83.1884 39.073 82.8697 38.9629 83.7509 38.6673C83.6537 38.5918 83.5576 38.5209 83.4618 38.4401C83.3255 38.5083 83.205 38.4577 83.0602 38.5523C82.6704 38.8086 82.5338 39.5308 82.6327 39.7375C82.6865 39.8459 83.0544 39.4834 83.0906 39.6477C83.183 40.048 82.0905 40.2284 83.7086 40.1063C83.3013 40.5271 83.1227 40.3805 82.5551 40.4818C82.6387 40.5987 82.7213 40.7148 82.8044 40.8316C82.5283 40.8535 82.2551 40.8709 81.9795 40.8852C82.1256 40.117 80.2277 40.3754 81.7005 39.3226C81.2126 39.4341 80.7241 39.532 80.2357 39.6157C80.3179 39.5218 80.3994 39.4283 80.48 39.3337C80.7046 39.3164 80.9281 39.2961 81.1534 39.2724C80.8651 39.2156 80.5794 39.1552 80.2967 39.0896C79.743 39.3933 79.557 39.6869 79.3397 40.0493C80.1023 40.1171 79.8054 39.8658 80.3397 39.6759C80.3669 39.8711 80.4354 40.0401 80.4352 40.2521C80.0543 39.9311 79.1767 40.4218 78.956 40.4806C78.2942 40.6656 78.7491 40.1761 78.301 40.2474C77.8554 40.3169 77.355 40.6312 76.9352 40.2867C76.9706 40.5058 77.0302 40.7294 77.0837 40.926C76.3798 41.0903 76.4924 40.8083 76.4151 40.7842C75.1907 40.3568 74.6131 40.875 73.259 40.9856C73.4331 41.0483 73.6093 41.1032 73.7859 41.1596C72.7795 41.67 73.4638 41.508 74.3669 41.6118C73.5284 41.6131 73.0578 42.0266 72.4631 42.1571C71.8655 42.2889 70.8379 42.0746 70.4724 41.9041C71.322 41.664 72.2463 41.8344 73.1843 41.7326C73.0695 41.5102 72.9614 41.322 72.8462 41.0766C72.2915 41.5647 71.9516 41.248 71.7655 41.1859C71.2143 41.0017 71.2301 41.4073 70.9049 40.9658C70.9162 41.1166 70.9243 41.2433 70.9359 41.3842C69.7954 41.3077 68.5967 40.9815 67.8162 41.4887C67.771 41.1233 67.7416 40.7722 67.6892 40.3987C67.1989 40.6393 66.8111 40.3303 66.4047 40.3609C65.9993 40.3911 66.1239 40.6954 65.6441 40.766C65.5555 40.7788 65.3921 40.5802 65.1655 40.6942C64.9397 40.81 64.0294 41.7317 64.0237 40.8443C63.6175 40.7973 63.2442 40.7236 62.8488 40.6634C63.2413 40.6583 63.6273 40.6525 64.0174 40.6438C63.7097 40.3965 63.4125 40.1497 63.1091 39.9004C63.046 40.0849 62.9822 40.2728 62.9206 40.4549C62.0032 40.583 61.4066 40.1959 60.502 40.1547C60.3504 40.1477 60.6571 40.5671 60.0026 40.3856C59.3572 40.2046 58.961 39.4435 57.7955 39.5588C57.7373 39.565 57.3334 40.0531 56.9808 39.6286C56.9006 39.5323 57.3034 39.4615 57.1081 39.3228C56.9144 39.1843 55.9782 38.9631 55.9424 38.6916C55.9396 38.7856 55.9843 38.8896 55.9999 38.9878C55.8343 39.0101 55.6674 39.0322 55.4998 39.0534C55.5073 38.8882 55.5136 38.7225 55.521 38.5581C54.5487 38.8113 53.976 39.3627 52.6399 38.9746C52.9942 39.2634 53.3457 39.5533 53.6931 39.842C53.8204 39.6897 53.9511 39.5368 54.0782 39.3845C54.7054 39.5379 55.326 39.6907 55.9442 39.8437C56.0751 39.6686 56.2039 39.4939 56.3344 39.3188C56.4994 39.3666 56.6624 39.4134 56.8265 39.461C56.7658 39.5922 56.7048 39.7226 56.6423 39.8536C56.9791 39.8657 57.3149 39.8768 57.6469 39.8879C56.8718 40.6059 55.7781 39.5609 55.7735 40.2494C55.6404 40.1241 55.507 39.9981 55.3734 39.8719C55.2631 40.1909 54.9757 40.055 54.4475 39.9299C54.5479 40.1083 54.6611 40.2862 54.7507 40.4649C54.2626 40.1653 53.3367 40.0614 52.8153 39.9021C52.5848 39.8318 52.8522 39.6256 52.7858 39.5882C52.4464 39.3938 51.6979 39.7171 51.5579 39.6655C50.733 39.359 50.265 38.4986 49.2577 38.9024C50.2137 39.1501 49.6928 39.0312 50.003 39.3626C50.1007 39.4665 51.3311 39.8137 49.7696 39.5317C49.5857 39.4933 46.8039 38.6167 47.7882 38.3081C47.3046 38.3878 46.9308 38.5025 46.4933 38.5986C45.5738 37.3872 45.8237 38.4608 46.0649 39.0618C45.8954 39.0464 45.7334 39.0355 45.5583 39.0176C45.9904 38.4554 44.1006 38.2288 43.43 38.479C43.2056 38.5608 43.7915 38.8053 43.2853 38.8526C43.0521 38.79 42.7844 38.7127 42.5381 38.6455C42.8677 39.0543 42.1499 39.1435 42.1303 39.531C41.7091 39.1517 41.4121 38.3971 41.6921 38.0198C41.303 38.1521 40.9114 38.2856 40.5212 38.4221C40.6916 38.5252 40.8635 38.628 41.0323 38.7318C39.806 38.4003 38.2156 38.8792 37.9837 38.0562C37.8166 38.0548 37.6549 38.0532 37.4919 38.0527C37.4364 38.1881 37.3827 38.3239 37.3275 38.4594C36.6007 38.3131 35.8571 38.1728 35.1192 38.0414C35.7771 37.9679 35.9486 37.7761 36.6353 37.9552C36.3735 37.789 36.1046 37.6227 35.8437 37.4586C34.7772 37.8632 34.6584 38.1357 33.0775 38.0094C32.9997 38.0021 31.8243 37.657 31.7795 37.6246C31.5908 37.4688 31.8696 37.2332 31.7854 37.1543C31.5558 36.9299 30.1175 36.4018 30.1387 36.3181C30.4639 35.2339 35.2751 35.1813 36.5887 35.1983C50.1606 34.8385 62.985 39.4641 75.2449 38.5029C75.3696 38.4898 75.3011 38.3408 75.3535 38.3293C75.6779 38.2608 76.0243 38.4646 76.1472 38.4603C76.4085 38.4504 76.2393 38.2464 76.4278 38.2232C78.3664 37.9831 80.1875 37.7217 82.0076 37.076C82.1261 37.0335 82.0609 37.2437 82.2612 37.1422C82.3652 37.0888 82.6124 36.7122 82.8459 36.6197C83.6724 36.2931 84.3961 36.0787 85.2463 35.659C85.7201 35.4255 86.3983 35.0914 86.9082 34.7896C87.1357 34.6558 87.2929 34.4162 87.5052 34.2806C87.8054 34.0879 87.8787 34.3392 87.9341 34.3233C88.1783 34.2497 88.0567 33.9973 88.2552 33.8755C88.6267 33.6453 88.7479 33.7889 89.1867 33.4635C89.4968 33.235 90.1575 32.5621 90.5033 32.23C90.9073 32.0182 91.322 31.7278 91.725 31.3965L91.5223 31.5892C92.1179 30.9881 92.6448 30.3379 93.0556 29.8064C93.4543 29.2891 93.7021 29.3956 93.8775 29.1897C94.5035 28.4443 94.6682 27.7135 95.2136 26.9857C95.9046 26.0578 96.6854 25.3284 97.2813 24.4131C97.3767 24.2657 97.1534 24.1738 97.237 24.0268C97.5703 23.4459 97.9243 22.724 98.1992 22.2544C98.5173 21.7047 98.9279 21.6403 99.0956 21.0683C99.1422 20.9015 98.8807 20.7442 98.9507 20.4561C99.0607 20.0023 99.4616 19.6287 99.5728 19.3453C99.724 18.9428 99.3365 19.2155 99.5093 18.6829C99.516 18.6616 99.7501 18.6287 99.7643 18.5095C99.8019 18.1638 99.6283 18.1787 99.7123 17.6962C99.7264 17.6496 99.9899 17.0349 99.987 16.9733C100.015 16.617 100.04 15.8761 99.9587 15.6859C99.6767 14.9867 99.4697 15.6467 100.026 14.8659C99.7831 14.6395 99.5274 14.4442 99.2648 14.2597C99.4928 14.3749 99.3839 13.5707 99.3269 13.5225C98.9892 13.1763 98.9033 13.5627 98.6232 13.0596C99.606 13.3455 98.2432 12.3568 97.9655 12.1508C96.7298 10.958 95.1984 9.82155 93.3376 8.98366C92.6436 8.67149 91.7937 8.48262 91.0443 8.2163C90.8724 8.15595 91.0533 8.05672 90.9015 8.0006C90.7488 7.94579 90.8633 8.16675 90.6911 8.0984C89.6606 7.68845 88.9336 7.13963 87.7648 7.25495C87.7267 7.18457 87.7439 7.1411 87.681 7.05859C86.824 7.20777 85.2815 6.37 84.6532 6.18484C83.7423 5.90316 83.4473 6.10281 82.7459 5.93386C81.7925 5.70483 80.4556 5.03552 80.9659 5.90759C80.3399 5.84298 79.7248 5.76849 79.071 5.61483C78.9982 5.59759 79.0733 5.40385 79.0442 5.39616C78.8597 5.34481 78.7767 5.51662 78.6481 5.50988C78.298 5.49172 78.8909 5.34289 78.387 5.34558C78.1282 5.34901 77.9261 5.48313 77.2358 5.41497C72.9324 4.98977 68.2933 4.72897 63.7143 4.6601C63.4168 4.6558 63.6114 4.85208 63.2372 4.83684C61.9491 4.78128 59.5112 4.46649 58.3114 4.53241C57.187 4.59542 57.4447 4.87647 56.7349 5.01021C56.5972 5.03639 56.707 4.87165 56.5818 4.87193C55.7405 4.87534 54.71 4.65077 54.0022 4.63544C53.5343 4.62497 53.5798 4.87907 53.2547 4.9084C52.7613 4.95188 52.2754 4.7121 52.0315 4.71328C50.8737 4.72211 50.0743 4.96541 48.9548 4.91344C49.0012 4.96744 49.0325 5.018 49.0721 5.07151C47.7633 5.12551 46.3635 5.19306 45.1161 5.25907C45.1798 5.30666 45.2415 5.35484 45.3051 5.4033C43.7928 5.46648 43.923 4.90314 44.133 6.06654C44.0249 6.11481 43.9103 6.17015 43.8067 6.21492C43.8111 5.60837 42.861 5.2242 41.6462 5.15417C41.5574 5.14858 41.0047 5.77906 41.02 5.07918C40.8766 5.26034 40.7923 5.38425 40.6711 5.54319C40.3992 5.35115 40.1227 5.1622 39.8481 4.97168C39.7083 5.01354 39.5756 5.05386 39.447 5.09502C39.4378 5.23271 39.4633 5.37303 39.4311 5.50995C38.8239 5.57573 37.5425 5.5065 37.0485 5.5642C35.8264 5.70665 34.5881 6.18315 33.5702 5.87269C33.0945 5.95579 33.5951 6.18024 32.8774 6.21047C32.7844 6.08255 32.6966 5.95983 32.5994 5.82817C32.097 6.48283 31.9528 6.12532 31.1764 6.07037C30.651 6.03307 30.3244 6.21298 29.8241 6.232C29.6972 6.23672 29.698 6.05781 29.6121 6.07192C29.3249 6.11791 28.5179 6.44326 28.3114 6.47057C26.4491 6.72038 24.7771 6.86788 23.0593 6.98899C22.8707 7.00287 23.1333 7.15098 22.9381 7.16477C22.6237 7.18736 22.7786 6.89885 22.5955 6.90558C22.0839 6.9262 22.112 7.20933 21.4012 7.30359C20.0404 7.48417 18.5295 7.59744 16.9911 7.7209L17.862 7.47377C16.9804 7.83516 16.0737 8.27891 15.265 8.76072C15.2041 8.79772 15.2945 8.93791 15.2296 8.97958C14.8044 9.24984 14.2617 9.33419 13.878 9.59934C13.2539 10.0315 12.9284 10.5613 12.3427 11.0196C11.1999 11.9227 10.1482 12.7097 9.12901 13.7843C8.30514 14.6632 7.65474 15.4883 6.95134 16.5436C3.60216 21.5052 5.15402 25.804 9.99079 29.0006C10.1108 29.0856 9.98193 29.1783 10.0236 29.197C10.4252 29.372 10.541 29.2058 10.4598 29.6423C10.9629 29.8401 11.2722 29.6563 11.851 29.9829C12.1496 30.1477 11.6978 30.466 12.3443 30.5049C12.935 30.5306 12.4997 30.0588 13.8733 30.9565C13.9093 30.9797 13.9868 31.3345 14.3369 31.3936C14.6908 31.4526 14.3854 31.1079 15.2034 31.3566C15.9271 31.571 16.6855 31.8422 17.5609 32.1443L17.181 32.0471C18.6358 32.3622 20.1778 32.7394 21.6633 32.978C21.8152 33.0023 23.2992 33.1287 23.6001 33.1128C24.1824 33.0813 24.1081 32.8432 24.8398 32.9301C25.4051 32.9973 25.8177 33.3306 26.4825 33.4087C26.56 33.4176 26.7364 33.1911 27.2225 33.3198ZM86.4161 2.75622C86.6058 2.54083 87.0686 1.69004 87.8426 2.15886C87.9141 2.20284 87.3487 2.72307 87.7792 2.92797C87.322 2.88869 86.8783 2.81146 86.4159 2.75718C86.416 2.75686 86.4161 2.75654 86.4161 2.75622ZM29.6679 39.7954C29.0612 39.6308 28.4523 39.4661 27.8456 39.3014C28.2916 39.2739 28.7381 39.2467 29.1826 39.2181C29.3449 39.4106 29.5055 39.603 29.6679 39.7954ZM36.2848 1.38054C36.2842 1.38059 36.2836 1.38064 36.283 1.38069C36.9298 1.20827 37.5718 1.03749 38.2086 0.868827C38.1474 0.961564 38.0861 1.0547 38.0249 1.14747C37.525 1.3249 37.0218 1.50333 36.5177 1.68294C36.4403 1.5821 36.3625 1.48134 36.2848 1.38054ZM31.1414 2.76264C30.7209 2.69703 30.8049 2.51254 30.562 2.36319C30.562 2.36352 30.562 2.36384 30.5621 2.36416C30.498 2.32535 30.2148 2.31287 30.1058 2.31654C30.1561 2.42237 30.2179 2.52571 30.2714 2.63042C29.334 2.98672 27.3294 2.23043 29.7609 1.61171C29.7373 1.75365 29.7154 1.89474 29.6919 2.03668C30.9103 1.8808 32.2721 2.0599 31.1414 2.76264ZM96.2396 5.59251C97.4003 5.68472 97.8896 5.83789 98.8184 6.83973C98.588 6.8376 98.3613 6.84146 98.1328 6.8474C98.0195 6.61737 97.8991 6.38824 97.7699 6.15707C97.7693 6.15673 97.7688 6.1564 97.7682 6.15606C97.6576 6.25093 97.5474 6.34648 97.4396 6.44333C97.0508 6.14729 96.6138 5.84562 96.2396 5.59251ZM1.49458 24.4741C0.700305 25.014 1.1552 24.8066 0.778841 23.8912C0.655729 23.5688 0.549195 23.9195 0.491174 23.7127C0.201193 22.5574 0.858319 22.4539 1.17471 22.681C1.22752 23.2896 1.3349 23.8944 1.49411 24.4722C1.49427 24.4728 1.49442 24.4734 1.49458 24.4741ZM22.8931 37.233C22.8937 37.2331 22.8943 37.2332 22.8949 37.2333C22.8776 37.4559 22.4798 37.4397 22.8757 37.7304C22.5443 37.6654 22.2131 37.5995 21.88 37.5341C21.9816 37.5328 22.0852 37.5328 22.1869 37.5314C22.1151 37.4399 22.0432 37.3474 21.9715 37.2559C21.8052 37.4835 21.7239 37.3168 21.3918 37.1656C21.4363 37.4517 21.4802 37.7378 21.5247 38.0238C21.1354 37.8659 20.7447 37.7073 20.3554 37.5493C20.3634 37.4809 20.3714 37.4124 20.3795 37.3441C20.2103 37.4007 20.0423 37.4585 19.8731 37.5151C19.8472 37.4266 19.8227 37.3392 19.7968 37.2507C19.6009 37.276 19.4047 37.3012 19.2087 37.3273C19.1904 37.1215 19.6124 37.1159 18.8836 37.0261C19.1429 36.8689 19.4017 36.7122 19.6627 36.5553C20.7396 36.7807 21.8164 37.0068 22.8931 37.233ZM2.41948 16.352C1.89489 17.5449 1.93079 17.1689 1.64025 16.6984C1.89871 16.576 2.15912 16.4594 2.41948 16.352ZM60.8516 0.943242C61.2044 0.634608 61.5577 0.329861 61.9168 0.0336933C62.6328 -0.137352 63.3299 0.427644 62.8002 0.643971C62.1623 0.90413 61.4876 0.609386 60.8516 0.943242ZM77.2182 1.48148C76.3727 1.25641 77.2172 0.97093 77.432 0.77902C77.6384 1.14353 77.9515 1.14441 78.5261 1.24781C77.9717 1.20843 77.3625 1.51992 77.2181 1.48245C77.2181 1.48213 77.2181 1.4818 77.2182 1.48148ZM46.6603 1.04297C46.2941 1.07231 45.9518 1.17765 45.6429 1.09112C45.7187 0.79241 46.344 1.02451 45.8828 0.614662C46.0947 0.595082 46.3338 0.574401 46.5625 0.55349C46.4261 0.741704 46.6304 0.865429 46.6593 1.04204C46.6597 1.04235 46.66 1.04266 46.6603 1.04297ZM10.2814 6.94998C11.0688 6.80027 11.0844 6.60642 11.5475 5.99689C11.7854 6.1765 11.3533 7.04509 10.9901 7.44524C10.7558 7.27836 10.5193 7.11328 10.2814 6.94998ZM50.9333 40.5478C51.137 40.2097 52.3608 40.3231 52.9433 40.51C52.8649 40.5535 52.7862 40.5976 52.7076 40.6418C52.1195 40.6095 51.5145 40.5762 50.9333 40.5478ZM78.7912 1.30209C78.6985 1.28094 78.61 1.2631 78.5261 1.24781C78.6205 1.25432 78.7103 1.27058 78.7912 1.30209ZM101.046 22.5342C100.85 22.1392 100.411 22.8467 100.936 21.9867C100.936 21.9866 100.936 21.9865 100.935 21.9863C101.263 21.4326 101.354 21.2602 101.579 20.6911C101.925 21.0345 101.628 22.3402 102.308 20.6619C102.315 20.6399 102.056 20.6039 102.171 20.3484C102.206 20.2707 102.493 20.0678 102.662 19.6469C102.715 19.5145 103.025 18.4826 102.687 19.9101C102.993 19.9447 103.271 20.1021 103.557 20.1754C103.479 20.7915 102.78 21.0154 102.582 21.5988C102.276 22.4793 102.641 23.1044 101.847 22.945C101.985 22.2044 102.424 20.9862 102.92 20.9709C103.149 20.2681 102.816 19.9792 102.474 20.4664C101.887 22.8949 101.753 20.9336 101.195 23.0004C101.284 23.0705 101.352 23.2027 101.451 23.235C100.811 23.6674 101.123 22.6716 101.046 22.5342ZM103.265 17.8329C103.451 18.3056 103.614 18.7795 103.752 19.271C103.378 19.192 103.107 18.8907 102.99 18.1875C103.083 18.0719 103.176 17.9525 103.265 17.8329ZM78.4714 41.4037C78.4455 41.6174 78.3129 41.8314 78.2232 42.0446C78.0598 41.9257 74.9492 42.1106 76.502 41.7655C76.7213 41.7225 78.1719 41.8894 78.4714 41.4037ZM6.71785 10.4541C7.07788 10.286 7.43971 10.1262 7.80043 9.97601C7.45047 10.4267 7.11602 10.8868 6.79648 11.3542C6.76733 11.0544 6.73891 10.7565 6.71785 10.4541ZM66.6945 1.36223C66.5434 1.3508 67.0531 1.0796 66.4554 1.10982C66.9053 0.939024 67.3232 0.796825 67.7566 0.639457C67.8808 0.777454 68.0056 0.915069 68.1284 1.05331C68.2303 0.970508 68.3341 0.888375 68.4359 0.805746C68.3699 0.998969 68.3106 1.18789 68.2414 1.38438C67.5403 0.942253 67.359 1.4124 66.6945 1.36223ZM44.9466 2.61519C44.7924 2.19894 45.8134 1.88502 44.7898 1.87821C44.9666 1.58807 45.2704 1.42298 45.8616 1.36413C45.9628 1.4652 46.0636 1.56556 46.1643 1.66674C46.1604 1.381 46.3184 1.26565 46.6603 1.04297C46.6607 1.04327 46.661 1.04358 46.6613 1.04389C47.6142 0.971302 47.5594 1.0705 47.8115 1.52723C46.7984 1.31491 46.7804 1.74606 46.1163 2.03868C45.6824 2.2388 45.0923 2.19425 44.9466 2.61519ZM81.6925 40.6727C81.1029 41.2034 81.801 41.375 80.4774 41.3089C80.5359 41.2015 80.5943 41.0947 80.6514 40.987C80.9994 40.8876 81.3465 40.783 81.6925 40.6727ZM41.4415 1.38361C41.5684 2.03359 42.2609 2.49923 42.3011 1.42487C41.6446 1.25093 41.9999 1.83397 41.4415 1.38361ZM76.8271 2.47747C75.6327 2.33468 75.9155 1.61808 76.4529 1.29372C76.5177 1.4352 76.5819 1.57695 76.6442 1.71752C76.8611 1.67637 77.077 1.63559 77.2918 1.59624C77.1364 1.88945 76.9814 2.18373 76.8271 2.47747ZM19.984 4.10391C20.8669 3.53124 18.943 3.95962 19.5644 3.59393C20.0621 3.30122 20.7996 3.69443 20.5737 4.01809C20.3947 4.04657 20.1947 4.075 19.9858 4.10371C19.9852 4.10377 19.9846 4.10384 19.984 4.10391ZM25.3197 3.38758C25.1109 2.90513 25.3513 3.0267 24.6061 3.1958C24.4071 3.24198 22.751 3.23036 23.4823 3.5698C24.0705 3.50659 24.6668 3.45062 25.3197 3.38758ZM90.9162 4.32773C90.8646 4.53597 89.4969 4.63035 89.3594 4.47314C89.3593 4.47346 89.3592 4.47377 89.3591 4.47408C89.0044 4.03512 90.3601 4.36827 89.901 3.77198C91.072 4.51975 91.696 3.73716 91.2299 4.90507C90.5041 4.73089 90.9156 4.59115 90.9162 4.32773ZM35.1257 38.2369C35.1251 38.2369 35.1246 38.2369 35.124 38.2369C35.2057 38.2478 35.9196 38.5835 35.8285 38.6929C34.9666 38.5794 35.1328 38.3714 34.3345 38.7092C34.2921 38.5971 34.2557 38.4885 34.2096 38.3756C34.5256 38.312 34.7025 38.1796 35.1257 38.2369ZM75.118 41.3758C75.43 41.2949 76.0298 41.4765 76.3896 41.421C75.324 42.4579 73.8604 41.689 75.118 41.3758ZM11.3269 34.0689C11.3259 34.0688 11.3249 34.0687 11.3239 34.0686C11.3244 34.0683 11.3249 34.068 11.3254 34.0677C11.3259 34.0681 11.3264 34.0685 11.3269 34.0689ZM96.8565 30.8266C96.7847 30.8205 96.7305 30.8056 96.6906 30.7832C96.6873 30.7805 96.6841 30.7778 96.6808 30.7751C96.7375 30.7934 96.7956 30.8109 96.8565 30.8266ZM93.5168 5.17159C93.898 5.64655 92.0827 5.45698 91.5295 5.16429C91.6139 5.04596 91.6603 4.92848 91.8057 4.80912C92.1591 5.30324 93.4532 5.08687 93.5168 5.17159ZM52.7708 1.31446C54.2357 1.27185 52.3587 2.54023 52.2737 1.58427C52.2708 1.56569 52.7293 1.31748 52.7708 1.31446ZM82.5378 2.51001C82.1137 2.81352 82.8341 3.01913 81.6675 2.78072C81.617 2.67801 81.5662 2.57509 81.5149 2.47241C81.8253 2.47859 82.195 2.49484 82.5378 2.51001ZM62.1099 2.72518C63.8147 2.52362 65.6097 2.19902 64.4222 1.17669C64.2823 1.20716 64.14 1.23668 63.9994 1.26744C63.9603 1.75708 63.4887 1.48396 62.7742 1.46462C62.6718 1.65854 62.2744 1.70223 62.1991 1.86747C62.0542 2.18668 62.5102 2.41223 62.1099 2.72518ZM4.26468 27.725C4.1814 27.7534 4.09789 27.782 4.01479 27.809C3.76696 27.6333 3.52394 27.4446 3.29127 27.2511C3.45195 27.2053 3.61191 27.1577 3.77102 27.1084C3.92537 27.3158 4.09674 27.5301 4.26403 27.7233C4.26424 27.7239 4.26446 27.7244 4.26468 27.725ZM102.274 16.0772C103.192 16.1999 103.043 15.5697 102.344 14.5644C102.365 15.0801 102.339 15.5801 102.274 16.0772ZM33.5231 3.75446C33.4624 3.49732 33.4023 3.24093 33.3397 2.98396C32.7412 3.31051 32.8836 3.59862 33.2124 3.91676C33.3168 3.86264 33.4189 3.80849 33.5231 3.75446ZM24.7707 4.71565C25.0323 4.74295 24.8802 4.54668 24.9072 4.5481C25.573 4.58986 25.6751 4.67645 26.4542 4.43669C26.5459 4.37156 26.6356 4.30378 26.7269 4.23708C26.3043 3.72944 26.0691 4.05341 25.2518 3.81487C25.4128 3.98703 25.5728 4.1596 25.7331 4.33276C25.3005 4.33764 24.8354 4.34703 24.4322 4.34981C24.3893 4.41264 24.3462 4.47495 24.3033 4.5378C24.4583 4.59624 24.6187 4.66344 24.7707 4.71565ZM6.33621 30.2017C6.63413 30.4769 6.97746 30.7688 7.29426 31.0226C7.38501 30.9216 7.4756 30.8194 7.56592 30.7181C7.16976 30.5746 6.73075 30.3818 6.33621 30.2017ZM100.505 24.132C100.532 24.1832 100.559 24.234 100.588 24.2822C100.537 24.2512 100.513 24.1977 100.505 24.132ZM34.0421 37.4843C33.5725 37.3867 32.8717 37.4498 32.3641 37.4357C32.4018 37.772 33.7301 37.672 34.1882 37.8833C34.2627 37.8231 34.242 37.5253 34.0421 37.4843ZM75.1518 2.29865C75.0189 2.45722 74.8862 2.61518 74.7551 2.77424C74.4679 2.73332 74.1774 2.69212 73.8831 2.65268C73.8645 2.78996 73.846 2.92845 73.8274 3.06574C75.1322 2.98224 74.8005 3.35923 75.3912 3.80215C75.3126 3.30119 75.2342 2.80039 75.1518 2.29865ZM18.4478 34.7858C17.5325 34.7039 17.1809 34.8138 17.6081 35.319C17.9429 35.2869 18.2797 35.2551 18.6145 35.2229C18.5584 35.0772 18.5023 34.9313 18.4478 34.7858ZM89.3349 36.1067C88.7736 36.6456 88.4898 36.1666 88.0068 36.809C88.4088 36.6957 88.7873 36.5888 89.179 36.4642C89.2309 36.3459 89.2843 36.2254 89.3349 36.1067ZM94.6766 8.54168C94.8196 8.8319 95.8058 8.29955 96.1595 9.3166C96.4302 9.24608 96.6365 9.14846 96.8849 9.07423C96.8468 9.30797 96.813 9.54916 96.763 9.77505C96.7634 9.77534 96.7638 9.77562 96.7642 9.77591C97.4217 10.1506 97.1836 9.65111 97.329 9.47195C97.3953 9.39923 97.7555 9.86731 97.7382 9.5958C97.7008 9.10628 96.6326 8.6441 96.8534 8.28079C97.1261 8.61061 97.8445 8.97301 97.8177 8.60145C97.7619 8.17029 96.8634 8.21415 96.5567 7.73442C96.822 8.69233 95.6556 7.76239 95.7525 7.22768C94.8344 7.21917 95.3983 7.67062 96.2074 8.11249C95.5372 8.19907 96.3378 8.40134 96.2636 8.75638C95.6986 8.62853 94.1824 7.68352 94.6766 8.54168ZM54.719 2.99628C55.3314 2.95182 56.2776 3.1615 56.6777 2.80938C56.9123 2.60384 55.9704 2.46962 56.6109 2.14078C56.0272 2.18437 55.8942 2.31109 56.0018 2.58409C55.8687 2.62041 55.7337 2.65607 55.6001 2.69179C55.5365 2.63962 55.4712 2.58824 55.4074 2.53612C55.3396 2.65137 55.2714 2.76575 55.2052 2.88101C55.0612 2.86258 54.915 2.8443 54.7702 2.8253C54.7548 2.88279 54.7274 2.93324 54.719 2.99628ZM68.547 40.8528C68.715 40.8585 68.881 40.8634 69.0483 40.8668C69.0329 40.7989 69.0142 40.7281 68.9964 40.6582C68.9838 40.603 68.9713 40.5479 68.9588 40.4927C69.0439 40.6928 69.8302 41.0492 70.1756 40.8488C70.3467 40.7484 69.9758 40.3704 70.6863 40.3207C70.1748 40.3304 69.6859 40.3653 69.1901 40.3751C69.2396 40.2671 69.2872 40.1577 69.3362 40.0495C69.3359 40.0494 69.3356 40.0492 69.3353 40.049C69.1719 40.0174 69.0063 39.9838 68.8424 39.9508C68.7448 40.2519 68.6472 40.5522 68.547 40.8528ZM34.0703 4.22557C34.6338 3.9597 34.8175 3.83166 34.5138 3.50698C34.5132 3.50687 34.5125 3.50675 34.5119 3.50665C34.3088 3.67947 34.1052 3.85244 33.9014 4.02564C33.9572 4.09223 34.0129 4.1591 34.0703 4.22557ZM96.8964 27.593C97.2437 29.3508 98.1946 26.6926 97.5128 26.8502C97.4864 26.8552 97.0839 27.5904 96.8964 27.593ZM77.0056 2.90493C76.6802 2.88379 76.3509 2.86266 76.017 2.84362C76.0791 3.01292 76.1424 3.18185 76.2035 3.35121C76.4715 3.20196 76.7394 3.05265 77.0056 2.90493ZM14.9568 33.1992C14.7771 32.7468 13.9804 32.2944 13.4513 32.4995C13.6372 32.6274 13.8276 32.7552 14.0226 32.8826C13.6049 32.7655 13.2018 32.6518 12.8059 32.5259C12.5841 32.9819 13.1315 32.9053 13.7838 33.3167C13.8728 33.3786 14.3959 34.2559 14.7791 33.8888C14.8628 33.8168 14.1517 33.4787 14.7625 33.4051C14.5542 33.3035 14.3396 33.2267 14.1319 33.132C14.1605 33.0134 14.1893 32.8947 14.2166 32.7756C14.4588 32.918 14.7312 33.0691 14.9568 33.1992ZM58.2023 2.8787C59.0364 2.8942 59.1558 2.69117 59.3259 2.33065C58.9351 2.37542 58.5093 2.42112 58.1446 2.46746C58.1647 2.60424 58.1823 2.74109 58.2023 2.8787ZM8.6539 29.9468C8.34383 29.6621 8.32465 30.0024 8.15504 29.9509C7.50987 29.7448 7.26245 29.2843 6.72288 28.9852C6.79059 28.9698 6.85327 28.9548 6.91855 28.9391C6.91815 28.9387 6.91775 28.9384 6.91735 28.938C4.99643 26.7117 5.51728 28.2719 6.99681 29.4093C6.96027 29.5198 6.9232 29.6299 6.88895 29.7408C7.66997 30.1341 8.3942 30.3931 8.6539 29.9468ZM101.354 18.4274C101.28 18.4471 100.907 18.1036 101.011 18.6444C101.544 19.1813 101.378 18.4424 101.639 18.3133C101.676 18.465 101.707 18.6229 101.738 18.7793C102.074 17.9454 101.918 17.7699 101.425 18.0373C101.392 18.0597 101.428 18.4058 101.354 18.4274ZM99.0034 23.7306C99.7585 24.2919 99.9342 23.0828 99.6533 22.9863C99.569 23.1263 99.6565 23.2986 99.5167 23.4135C99.3764 23.5282 99.1671 23.4618 99.0034 23.7306ZM82.475 4.4452C82.5105 4.45484 82.7985 4.89686 82.8128 4.58993C82.4987 3.8042 81.519 4.12745 81.6413 4.40064C81.9411 4.43286 82.155 4.35594 82.4748 4.44617C82.4749 4.44585 82.4749 4.44553 82.475 4.4452ZM20.1086 34.2709C20.097 34.2423 19.2535 33.9193 19.1131 34.0404C18.9891 34.1833 18.9096 34.3468 18.8077 34.4999C19.3187 34.4386 20.2698 34.7448 20.1069 34.2706C20.1075 34.2707 20.1081 34.2708 20.1086 34.2709Z" fill="#FFD11D"/>
</svg>
