<svg width="294" height="81" viewBox="0 0 294 81" fill="none" xmlns="http://www.w3.org/2000/svg">
<path d="M40.9784 72.1576C42.3044 72.8513 37.6581 71.4751 40.6508 72.7607C39.9863 72.6378 39.326 72.5133 38.6785 72.387C38.5643 72.1523 38.4545 71.9189 38.3228 71.6792C39.2196 71.8482 40.0753 71.9999 40.9786 72.1566C40.9786 72.1569 40.9785 72.1572 40.9784 72.1576ZM42.7579 70.011C41.815 70.3779 39.2492 69.9108 41.8704 71.0823C42.1358 70.9445 42.4069 70.8076 42.673 70.669C43.6072 71.0424 44.5695 71.4142 45.5479 71.7809C45.9023 71.7817 46.25 71.7801 46.6038 71.7799C46.9635 72.2032 47.3246 72.6263 47.6951 73.05C47.3152 72.9211 46.9333 72.7897 46.5595 72.6599C45.0607 72.6238 43.4563 72.3503 41.3704 71.9065C41.5364 72.0287 41.704 72.1502 41.8718 72.2722C40.8265 71.8858 39.8079 71.4956 38.8187 71.1033C39.7394 71.1992 40.7881 71.3028 41.6722 71.3841C40.434 70.5468 38.0094 70.24 36.6658 69.9891C34.9049 69.6667 35.3629 69.5286 34.0927 69.2771C33.8918 69.2364 33.8136 69.4206 33.4265 69.311C31.4019 68.7535 27.53 67.3543 29.9386 67.659C33.3343 68.8138 36.0457 69.1861 39.3899 70.1761C38.7008 69.4468 40.3557 69.6936 42.7579 70.011ZM2.58306 31.4284C2.23524 32.509 1.12906 34.5108 0.472978 36.0077C0.472406 36.0095 0.471826 36.0113 0.471256 36.013C0.324933 36.3311 -0.243945 37.0089 0.118706 35.8972C0.766841 34.0662 1.66108 33.5423 1.77012 32.4991C2.03539 32.1356 2.30136 31.7785 2.58306 31.4284ZM4.73509 28.1591C5.52246 27.3662 5.51297 28.0119 4.62149 29.0365C4.62175 29.0367 4.62202 29.0369 4.62228 29.0371C4.26045 29.4733 4.61758 28.3637 3.7439 30.2349C3.29679 30.4497 2.87578 30.6827 2.44505 30.921C2.70679 30.4758 2.95423 30.0716 3.25604 29.6134C3.41097 30.1401 3.95317 28.9585 4.73509 28.1591ZM28.2293 67.3354C27.9593 67.642 28.5779 67.855 29.604 68.4647C28.545 68.1072 27.6048 67.7748 26.5246 67.3776C27.1423 67.3848 27.6663 67.3553 28.2293 67.3354ZM53.2885 73.6056C53.2901 73.6057 53.2918 73.6059 53.2934 73.6061C53.6512 73.5842 54.0101 73.5622 54.3632 73.5406C54.559 73.6971 54.7524 73.8528 54.9482 74.0093C56.2034 74.0153 57.4652 74.0221 58.7205 74.0273C58.5261 74.4212 56.3041 74.1175 55.0456 74.2735C54.1067 74.109 53.4248 73.9408 52.9742 73.7668L52.798 73.7413C52.3703 73.5439 52.1559 73.3583 52.1279 73.1818C52.3655 73.2826 52.6037 73.3837 52.8452 73.4848L53.0017 73.5075C53.097 73.5402 53.1925 73.5729 53.2885 73.6056ZM223.954 3.00054C224.391 2.9223 224.821 2.84411 225.255 2.76707C224.696 2.66627 224.137 2.57912 223.565 2.47165C222.02 2.84489 221.877 2.39203 220.035 2.28671C214.251 1.98295 215.769 2.85317 210.367 1.42965C214.769 1.71575 213.103 1.09674 215.732 0.843672C216.249 1.18694 213.641 1.73141 215.37 1.98265C218.43 1.84286 221.003 1.71475 224.542 1.79795C224.448 1.73599 224.354 1.67392 224.259 1.61201C223.719 1.60087 223.181 1.59121 222.634 1.58188C223.232 1.48485 223.814 1.38906 224.415 1.29336C223.645 1.55646 225.553 1.53467 225.266 1.88783C225.14 2.0446 224.287 2.20448 223.778 2.32305C225.049 2.5152 226.333 2.70796 227.576 2.90902C226.915 2.98107 226.25 3.05479 225.585 3.13013C225.047 3.08706 224.509 3.04407 223.964 3.00283C223.961 3.00207 223.957 3.0013 223.954 3.00054ZM126.52 77.8522C128.114 77.5028 130.937 77.5273 132.451 78.0172C130.442 77.9509 128.512 77.8976 126.52 77.8522ZM52.0583 72.8757C52.2287 72.9749 52.3943 73.0724 52.5661 73.1715C51.7319 73.1415 50.9032 73.1076 50.089 73.0733C49.9739 72.856 49.8562 72.638 49.738 72.4206C50.4993 72.5735 51.2761 72.7265 52.0583 72.8757ZM4.93277 53.6306C5.35578 54.0898 5.42567 54.1772 5.91005 54.7163C5.90957 54.7155 5.90911 54.7148 5.90863 54.7141C6.06981 54.9366 7.90648 56.758 7.61396 56.6749C6.59087 55.796 5.70875 54.9436 4.7808 53.8976C4.82635 53.8029 4.89257 53.7328 4.93277 53.6306ZM16.6009 62.318C16.6022 62.3191 16.6036 62.3202 16.605 62.3212C16.9961 62.5477 17.3634 62.7831 17.7907 63.0014C16.1492 62.446 16.1131 61.9537 14.7737 61.3495C13.456 60.7451 12.417 60.3769 11.7004 59.2232C12.1349 59.4086 12.6282 59.5792 13.0997 59.7535C14.8982 61.1087 15.3813 61.1096 17.0223 61.7156C16.8816 61.9169 16.7422 62.1171 16.6009 62.318ZM197.751 0.46911C197.321 0.73928 196.913 0.452827 196.867 0.448354C196.868 0.448051 196.869 0.447745 196.87 0.447437C193.464 0.628219 197.327 0.299137 194.1 0.184955C194.584 0.124453 195.058 0.0603799 195.534 -1.74821e-06C196.277 0.152664 196.976 0.323629 197.751 0.46911ZM84.1828 4.70177C84.1438 4.62271 84.0983 4.54399 84.0591 4.46494C86.0618 4.32153 86.5423 3.95962 88.2129 4.12198C86.8769 4.31394 85.5339 4.50737 84.1829 4.70274C84.1829 4.70242 84.1829 4.7021 84.1828 4.70177ZM0.84007 43.7019C1.318 46.0524 1.97776 47.6477 2.85825 49.759C2.85881 49.7606 2.85936 49.7623 2.85993 49.7639C2.90848 49.8838 2.45903 49.4264 2.50169 49.5925C2.74344 49.9835 3.0222 50.3764 3.30598 50.7603C3.22547 50.8889 3.14438 51.016 3.06668 51.1463C2.35657 49.9976 1.74285 48.7404 1.30192 47.4501C1.29698 47.6657 1.29923 47.888 1.30394 48.1082C0.821966 47.0649 0.417982 45.8717 0.168979 44.7181C0.464495 45.0852 0.772892 45.4338 1.09206 45.761C0.962279 45.0778 0.877877 44.3995 0.84007 43.7019ZM117.101 3.24667C116.757 3.17807 117.375 2.99012 116.844 2.94535C116.313 2.90149 115.35 3.12837 115.562 2.86227C116.272 2.78432 117.014 2.69992 117.732 2.62091C115.389 2.30606 113.065 2.86709 112.993 2.30842C115.293 2.30829 116.984 2.1363 119.327 1.84117C119.26 2.29172 116.996 2.81431 118.461 3.14589C117.994 3.1797 117.524 3.21661 117.105 3.24541C117.104 3.24582 117.102 3.24625 117.101 3.24667ZM84.7478 70.7969C86.0956 70.9743 89.2112 71.1223 90.8912 71.5623C91.3045 71.6706 92.6163 72.6446 92.5977 72.7526C92.5176 73.1146 90.8032 72.9828 92.6083 73.4162C91.9923 73.3532 91.3932 73.3034 90.7812 73.245C90.8646 73.5028 90.9476 73.7599 91.0265 74.0164C91.7746 74.0585 92.5236 74.1004 93.2718 74.1417C93.2997 74.2271 93.3274 74.3126 93.3553 74.398C90.6797 74.1153 92.2256 74.5977 90.8065 74.7433C92.0689 75.0273 93.3407 75.3116 94.5985 75.5951C93.8655 75.4989 92.9996 75.3933 92.3537 75.303C92.2226 75.7112 93.7798 75.7761 94.0366 75.8816C95.4829 76.4774 87.9061 75.449 87.2196 75.9903C88.4266 76.1868 89.6935 76.3881 90.928 76.5867C90.564 76.6238 90.1952 76.6604 89.8312 76.6975C87.0591 75.9792 83.9164 75.4951 80.662 74.8853C80.3637 74.871 80.0647 74.8572 79.771 74.8426C79.8377 75.0403 79.8998 75.2368 79.9664 75.4344C79.5166 75.4091 79.0613 75.383 78.6115 75.3577C79.9967 74.8772 78.169 74.6915 76.0042 74.0784C77.2005 73.985 78.6336 74.271 78.577 73.854C74.5174 73.7388 69.8491 72.7957 65.8948 72.7325C64.9133 72.7164 64.8607 73.241 62.5797 72.9497C62.6635 72.9003 62.6878 72.7977 62.7461 72.7273C59.068 72.571 56.7267 72.4696 53.1717 71.9085L53.1361 71.9033C52.8355 71.8328 52.5283 71.7583 52.2132 71.6792C52.4206 71.9109 52.6253 72.1427 52.8358 72.3743C52.9059 72.3799 52.9761 72.3855 53.0464 72.3911L53.1193 72.4016C53.934 72.4004 54.7497 72.3981 55.56 72.3966C56.1203 72.7708 55.2288 72.8149 57.8313 73.0882C59.9636 73.3124 58.709 73.0401 59.2986 73.0095C60.0971 72.967 60.7598 73.2879 61.6192 73.237C62.2835 73.1985 61.6045 72.8667 63.3005 73.1127C62.5804 73.3725 61.8452 73.6417 61.1201 73.9052C60.7126 73.7861 60.3084 73.6662 59.9009 73.5463C60.3304 73.5021 60.7526 73.4582 61.1821 73.4139C59.6861 73.4164 58.2725 73.4185 56.7256 73.4214C57.2743 72.9935 55.6744 73.0058 54.81 72.9714C53.4635 72.9181 54.6442 72.7089 53.7618 72.6709C53.546 72.6618 53.3241 72.6711 53.089 72.6866L52.9945 72.6729C52.2341 72.6594 51.3403 72.6936 50.1496 72.3996C51.0442 72.3548 49.9207 71.9389 50.1835 71.7877C50.4433 71.6372 52.1404 71.9194 50.5614 71.3935C47.4544 70.9458 50.6366 72.3512 48.5436 72.0564C46.0503 71.6963 45.7783 70.3633 46.5367 70.2579C47.1333 70.1748 49.0875 70.6213 49.7207 70.5331C46.2335 69.4452 46.1604 70.1631 45.4584 70.1631C43.0628 70.1685 44.8791 69.1418 42.1427 69.0247C42.2524 68.7803 42.3466 68.5594 42.4536 68.3253C41.996 68.2659 41.6863 68.2572 41.1464 68.1644C42.6002 69.0444 41.3112 68.7117 40.6565 68.5503C39.6263 68.2964 41.1577 68.9337 40.8706 68.9288C40.0851 68.9151 38.9577 68.5463 39.6079 68.9445C39.3276 68.7653 38.9721 68.5656 38.6495 68.3741C37.329 68.1724 34.1341 68.4254 36.9777 68.9748C36.6078 69.2984 35.7513 68.8621 35.0797 68.6072C34.4084 68.3522 34.3501 68.6056 33.767 68.386C31.4105 67.4858 33.1554 67.5415 33.6051 67.3114C30.3072 66.5542 33.3483 67.6964 28.7433 66.3605C28.2152 66.4831 30.2033 67.4696 28.4156 67.0424C28.2875 66.4733 27.0371 65.6975 24.6079 64.5874C24.3282 64.6008 24.0501 64.6148 23.7728 64.6269C22.6347 63.6729 23.4804 63.5355 20.7459 62.9621C22.5167 62.5963 21.2538 62.8072 19.3348 61.4355C18.9508 61.1581 20.0158 61.426 19.4754 61.0481C19.2546 60.8887 18.4655 60.6888 17.8481 60.2306C17.5234 59.9985 16.2686 58.8852 15.1652 58.4507C15.6911 59.3415 13.4512 58.5273 14.9741 59.8982C11.783 57.9164 9.82648 56.7312 13.4304 58.3322C12.7324 57.71 12.1453 57.134 11.45 56.4435C10.8591 56.1628 10.2845 55.8723 9.7302 55.5759C9.92432 55.1771 10.0485 55.2358 8.17125 53.5939C9.00218 54.2576 9.89978 54.8904 10.7689 55.4397C10.8482 55.3956 11.0172 55.4162 11.0387 55.3304C9.92321 54.7516 7.22047 52.2955 6.59732 51.6154C5.94487 51.0096 7.0264 52.3362 6.78777 52.2128C4.71585 51.1322 5.34969 50.8424 4.37364 49.6244C3.8136 48.8939 4.9029 50.8021 4.61197 50.4082C3.48749 48.9461 3.51222 47.9272 2.98469 46.4796C2.91602 47.0868 2.88475 47.7189 2.89674 48.3652C2.14132 46.7821 1.61241 44.8864 1.38096 43.2427C1.29224 42.6014 1.1368 43.1035 1.11458 42.9995C0.961326 42.4815 0.926778 40.2939 0.987693 40.0632C1.21777 38.3491 1.51241 38.3385 1.97916 36.7755C1.81105 37.3889 1.67512 37.9942 1.57134 38.6176C1.94903 38.9877 2.33753 39.3419 2.7383 39.6677C2.98997 38.2041 3.45585 36.7792 4.0808 35.4087C3.50985 36.3618 3.01703 37.3534 2.62098 38.4193C2.66106 36.6347 2.9897 34.8229 3.54606 33.0211C4.18499 32.2938 4.86137 31.6084 5.56932 30.9552C6.94917 28.8921 6.02303 28.719 7.36341 28.2927C7.78282 27.6834 8.24024 27.065 8.69985 26.4763C8.70935 26.63 8.72215 26.781 8.73218 26.9353C9.27865 26.2383 9.85561 25.5511 10.4634 24.8689C9.49844 25.2494 8.54993 25.6241 7.62022 26.0726C8.78725 24.6872 9.07589 24.9152 9.32059 24.7804C9.98771 24.422 10.7976 23.2568 11.364 23.0327C11.546 22.9573 10.4096 24.2983 11.0252 24.079C11.1427 24.0259 13.4817 23.1805 14.4834 22.123C14.356 22.0076 14.1371 21.9162 13.9745 21.8102C15.484 20.4707 16.8188 20.6284 16.7549 20.9758C17.4916 20.2144 18.7463 19.3437 18.7751 19.001C19.2163 18.698 19.6594 18.4018 20.1101 18.1075C19.9966 18.9581 21.8047 17.6836 21.6457 17.1259C20.8484 17.588 20.0611 18.0636 19.279 18.5587C19.4963 17.618 16.8531 18.6935 22.2113 16.1931C23.3604 15.9381 20.4712 17.1662 21.3961 16.9341C22.8332 16.2536 24.0662 15.414 25.5133 14.943C27.3258 14.3833 25.3831 15.6381 29.123 13.4178C20.5321 16.6275 28.9727 12.4219 33.4808 10.5707L33.6288 10.5356C33.8838 10.4962 34.1257 10.4569 34.3514 10.4177C35.719 11.2736 39.6374 11.1789 44.8298 10.3601C44.2587 10.1394 42.6256 10.4475 41.6619 10.4542C40.6984 10.4609 41.715 10.1923 40.5117 10.1854C39.309 10.1782 36.7458 10.2665 35.5034 10.2001C36.5275 9.93466 41.5498 9.04616 38.2481 9.83284C40.7754 9.84804 41.9737 10.0083 45.0345 9.75213C45.9034 9.23181 45.8169 8.96914 48.7689 8.66453C47.0835 9.43326 50.4745 9.51721 49.7972 10.2063C47.6948 10.2686 48.8033 9.55452 47.5636 9.38783C47.4374 9.37122 45.4937 9.71662 45.0345 9.75213C47.0707 10.0914 47.7687 10.2249 46.6187 10.9857C48.0105 10.7904 48.8818 10.7858 48.9785 10.4675C49.2812 10.5715 49.5853 10.6756 49.8828 10.7803C50.3337 10.7326 50.7382 10.6805 51.2153 10.6364C50.5131 10.2395 51.8153 10.3986 52.6961 10.1022C53.5761 9.80578 52.3361 9.55767 54.8033 9.315C53.9715 9.28596 53.2092 9.26612 52.4001 9.24156C53.9993 8.96648 55.5288 8.69898 57.1754 8.42287C55.9635 8.25316 53.5545 8.06257 53.5715 7.68691C54.3282 7.75473 56.7762 7.27246 57.1101 7.23089C58.2235 7.08708 57.6368 7.37869 57.7219 7.37643C59.4859 7.32411 60.91 7.11125 61.6022 7.40445C62.8915 7.12353 63.8796 7.12452 65.2497 6.99049C66.0034 6.91691 65.8329 6.66994 66.278 6.67941C69.2242 6.74707 66.4964 7.32742 72.0222 6.19315C71.333 6.07081 70.6502 5.94401 69.9568 5.82105C70.5826 5.69653 71.203 5.57239 71.8258 5.44873C72.2494 5.44478 72.6684 5.44162 73.0906 5.43806C73.1159 5.83224 73.1395 6.2274 73.1648 6.62158C73.6263 6.60296 74.0886 6.5838 74.5484 6.56565C73.7661 6.67235 72.9795 6.77986 72.1924 6.88794C72.1261 6.9635 72.065 7.03865 71.9987 7.11422C73.1831 7.11828 74.3579 7.12521 75.5311 7.13319C75.5417 6.9944 75.5519 6.85468 75.5626 6.71589C78.19 6.6829 78.2743 6.79244 80.8538 6.19736C82.8602 6.03467 84.4308 5.33091 85.5567 4.99765C85.9737 5.04129 86.3905 5.08607 86.8105 5.12974C87.0637 4.99489 87.3192 4.86043 87.5719 4.72573C88.1032 4.84299 88.6405 4.96002 89.1691 5.07711C89.4276 4.69512 89.5723 4.56991 87.5401 4.60386C88.2022 4.10027 91.7613 4.0204 93.195 4.06334C94.2859 4.09505 93.1137 4.55954 93.2524 4.59467C93.7176 4.71409 95.4847 4.44706 95.8574 4.44522C97.4439 4.43404 98.503 4.33761 100.03 4.31034C100.321 4.30586 101.147 4.4845 101.216 4.48709C101.754 4.48921 103.074 4.5116 103.223 4.50462C110.871 4.15542 102.672 3.68205 109.725 3.31678C109.506 3.19519 109.304 3.07345 109.09 2.95168C109.619 2.90825 110.153 2.86524 110.68 2.82256C111.356 2.89227 110.562 3.15036 111.876 2.89863C111.801 3.07106 111.725 3.24361 111.645 3.41554C112.215 3.28825 112.763 3.16344 113.344 3.03614C114.306 3.55542 117.641 3.48247 117.443 4.17776C117.379 4.41348 115.036 4.79603 116.297 4.96638C117.311 4.95298 116.61 4.7186 117.021 4.67889C120.062 4.39344 119.97 4.78983 121.225 4.61255C121.417 4.43485 121.618 4.25336 121.813 4.07384C122.297 4.09493 122.78 4.11628 123.265 4.13775C123.37 4.01987 123.48 3.90161 123.585 3.78375C123.135 3.80161 122.627 3.82291 122.211 3.83923C122.777 3.37058 128.018 2.88902 126.036 3.36697C125.231 3.5606 123.727 3.58072 124.703 4.0387C126.108 3.88696 127.691 3.72638 129.147 3.57691C129.199 3.68452 129.247 3.79248 129.298 3.90009C131.258 3.72767 129.45 3.37987 129.441 3.14415C129.89 3.11425 130.343 3.08522 130.791 3.0559C130.986 3.15284 131.172 3.25527 131.375 3.34856C131.384 3.17822 131.617 2.77075 132.95 2.85196C133.805 2.90577 132.488 3.39849 134.104 3.26083C133.97 3.00226 133.373 2.70725 135.166 2.53668C135.357 2.80443 135.615 3.04588 135.766 3.32968C138.102 2.95561 139.209 3.33313 141.92 2.91061C143.642 2.64309 145.955 1.85987 147.087 2.88808C148.326 2.87094 147.923 2.61955 148.286 2.54657C149.999 2.2021 151.279 2.66768 151.597 2.6871C153.57 2.81446 154.652 2.60679 156.357 2.79817C156.257 2.60298 156.201 2.41718 156.121 2.22645C154.574 2.56689 153.637 2.58041 151.569 2.58344C152.279 2.52059 152.971 2.45802 153.74 2.39483C153.612 2.23807 153.485 2.08128 153.362 1.92526C146.792 2.77289 148.252 1.72103 153.841 1.3249C154.352 1.60671 154.879 1.88765 155.381 2.1713C158.697 1.62726 160.258 1.97855 163.906 1.99733C164.34 1.99907 165.905 1.79869 166.572 1.77936C166.561 1.77841 166.55 1.77746 166.539 1.77651C166.95 1.48891 166.384 1.36925 166.313 1.11965C166.675 1.08197 167.038 1.04465 167.399 1.00744C168.226 1.18592 167.867 1.34747 169.562 1.27844C169.332 1.09111 169.104 0.903785 168.873 0.716651C170.728 0.684065 171.931 0.877604 173.622 0.773361C173.338 0.847809 173.058 0.922588 172.773 0.997344C176.45 1.15037 173.542 2.29205 176.292 1.7174C176.467 1.81416 176.637 1.91194 176.811 2.00882C175.685 2.03791 174.55 2.06877 173.41 2.10281C173.388 2.24122 173.364 2.37906 173.346 2.51743C174.57 2.46516 175.789 2.41443 176.991 2.36787C176.113 2.46437 175.225 2.56253 174.337 2.66207C175.75 2.71748 177.148 2.77677 178.531 2.83982C177.058 2.33551 178.965 2.26825 178.606 1.76598C181.087 2.18161 182.827 2.7311 186.845 2.41182C187.619 2.34931 187.211 1.99111 189.386 2.44596C188.87 1.87866 191.587 1.65488 191.245 1.11825C190.494 1.13198 189.71 1.13709 188.973 1.15942C189.809 1.35479 189.941 1.86406 188.666 1.99897C187.042 2.17042 184.624 1.80238 184.718 2.36712C184.057 2.33655 183.427 2.31798 182.839 2.29357C183.09 2.15462 183.328 2.01486 183.579 1.87617C181.858 2.08779 180.771 2.01647 179.931 1.66414C182.005 1.58223 184.046 1.50907 186.261 1.44721C185.942 1.42056 185.618 1.39391 185.297 1.36851C186.943 1.02166 185.262 0.663568 188.306 0.617791C188.286 0.782285 188.269 0.946938 188.248 1.11226C189.364 0.682338 192.337 0.731996 191.396 0.210441C192.291 0.380692 192.47 0.482666 192.979 0.218812C195.319 0.647674 196.77 1.17348 195.94 1.73433C196.787 1.66066 197.666 1.58932 198.587 1.52149C198.072 1.34809 197.518 1.17514 197.033 1.00393C198.59 1.05313 200.207 1.11028 201.75 1.17123C201.89 1.64443 198.733 1.21913 199.634 1.66747C199.816 1.75712 200.665 1.6025 200.883 1.65722C203.189 2.2468 199.554 1.75711 200.225 2.17339C203.674 2.4094 200.924 2.96797 205.612 2.59351C205.728 2.73415 205.854 2.87794 205.961 3.01745C207.559 3.09337 207.442 2.78174 208.801 2.78692C209.625 2.78965 210.739 3.38431 211.755 3.07175C211.932 3.01498 210.311 2.26288 213.801 2.48807C216.482 2.67004 215.336 3.06815 216.756 3.32316C218.198 3.57867 221.34 3.16069 222.32 3.97456C221.511 3.81349 220.651 3.69598 219.836 3.55726C219.497 3.67542 219.165 3.79302 218.829 3.91135C220.677 3.85592 222.626 4.2257 223.989 3.99953C226.551 4.7318 229.367 4.52792 228.671 3.87061C227.837 3.87531 228.714 4.2155 227.577 3.94434C227.472 3.79724 227.359 3.65023 227.253 3.50319C229.225 3.70291 230.549 3.83831 229.63 4.16333C229.929 4.20317 230.223 4.243 230.52 4.28345C230.604 3.98913 230.682 3.69311 230.766 3.39884C231.125 3.40179 231.483 3.4056 231.839 3.40944C232.217 3.5164 232.618 3.62732 233.045 3.74209C232.41 4.15388 231.454 4.0557 234.634 4.68688C234.662 4.52432 234.695 4.36292 234.723 4.20036C237.351 4.72561 237.383 5.1262 240.563 5.5451C238.065 5.7758 236.796 4.60454 236.666 5.74325C236.046 5.59013 235.414 5.43681 234.78 5.28656C234.663 5.44036 234.547 5.59456 234.434 5.74901C237.921 6.05241 243.436 5.72926 245.704 6.84777C245.991 6.80484 246.277 6.77388 246.568 6.72594C248.709 7.53249 249.654 6.70149 251.861 7.70484C252.076 7.8119 251.452 8.61117 254.348 9.182C254.302 9.04938 254.306 8.84378 254.279 8.68327C254.888 8.88734 255.483 9.09591 256.069 9.30426C256.202 9.22048 256.34 9.13807 256.474 9.05372C255.452 8.77827 254.409 8.50842 253.336 8.24444C254.242 8.39143 255.137 8.54387 256.01 8.69939C254.919 8.2716 254.39 8.16018 255.146 8.0249C256.146 8.22331 257.127 8.42637 258.084 8.63549C258.199 8.58637 258.314 8.53632 258.429 8.48738C258.021 8.16145 257.599 7.8399 257.177 7.51225C259.544 8.23685 262.124 8.91773 263.866 9.87418C264.168 10.0404 262.952 9.97977 265.221 10.3788C265.211 10.5355 265.233 10.6721 265.23 10.8189C268.178 11.28 269.143 11.7393 271.71 13.0466C270.08 12.1161 271.535 12.8667 272.083 12.9175C272.274 12.9354 272.024 12.8121 271.784 12.6944C271.553 12.5795 271.296 12.4566 271.383 12.43C271.522 12.3602 273.373 12.6049 271.963 11.9957C268.439 11.6533 267.458 10.1527 263.052 9.35371C263.775 9.43176 264.491 9.51472 265.192 9.60038C264.901 9.42974 264.637 9.27642 264.315 9.09446C266.714 9.9891 265.503 9.51135 266.628 9.708C267.764 9.91087 269.708 10.4357 270.927 10.8462C271.311 10.9753 270.844 11.0194 271.685 11.3559C272.186 11.5524 274.098 11.9922 274.31 12.4797C274.453 12.7992 271.616 12.2828 275.192 13.821C275.755 14.3232 274.108 13.5136 274.05 13.5256C273.643 13.6434 275.726 14.7702 276.723 15.0386C276.808 15.0594 276.161 14.5092 277.001 14.8241C279.163 15.6688 280.178 16.552 281.157 17.5467C281.405 17.2481 283.479 17.9686 285.138 19.5119C285.298 19.4991 285.455 19.4831 285.616 19.4717C285.307 19.2909 284.993 19.1127 284.673 18.9382C284.405 18.6423 284.097 18.3482 283.822 18.0495C285.792 19.3878 286.334 19.213 287.394 19.9032C290.768 22.3436 287.976 21.5277 287.333 21.215C287.039 20.7842 286.744 20.357 286.415 19.9265C286.369 20.0667 286.323 20.2078 286.272 20.3444C290.423 24.4894 286.341 21.5367 288.079 23.8516C289.064 24.0226 290.522 25.708 291.144 28.419C291.255 28.6926 291.357 28.9699 291.453 29.2468C291.561 29.2629 291.701 29.2143 291.787 29.2741C292.828 32.4767 291.576 33.1804 291.553 33.4549C291.201 34.748 291.694 35.8114 291.662 36.1986C291.497 37.8062 291.126 38.2762 290.835 39.8088C290.474 41.4426 290.995 40.4101 291.014 40.958C291.031 41.3977 290.566 42.7317 290.468 43.3238C290.44 43.0762 290.433 42.7769 290.402 42.5206C289.58 44.1269 288.802 45.357 287.745 47.119C287.39 49.5223 284.907 50.4009 286.4 50.396C287.598 48.7709 288.243 47.9285 289.018 47.1926C288.442 48.3008 287.796 49.4196 287.082 50.552C286.756 50.7958 286.475 50.9748 286.124 51.2368C285.836 52.162 284.384 53.8825 283.868 54.6436C281.574 58.0345 282.733 57.4205 279.567 59.667C281.355 57.6203 281.099 57.3138 282.824 55.3531C282.252 55.6042 281.423 56.6591 281.728 55.7806C280.118 57.7718 280.872 57.3494 280.39 58.2921C279.935 59.1435 278.795 60.3594 279.068 60.5073C278.826 60.5207 278.615 60.5084 278.373 60.5207C277.525 61.3983 276.643 62.2799 275.728 63.166C275.359 63.4444 274.994 63.7133 274.629 63.9784C274.931 63.6257 275.23 63.2701 275.527 62.9117L275.502 62.9326C275.656 62.695 275.807 62.4579 275.957 62.2214C275.74 62.389 275.521 62.5568 275.301 62.7247L275.353 62.6804C275.113 62.8195 274.872 62.9568 274.632 63.0923C271.677 66.0542 264.97 68.6401 266.602 69.2583C264.859 70.2437 264.551 70.1919 263.472 70.4412C263.41 70.5858 263.342 70.7134 263.284 70.8683C262.077 71.3292 261.334 72.0868 260.247 72.4454C259.16 72.8008 258.762 72.5628 258.838 73.1934C258.087 73.3082 257.352 73.4378 256.611 73.5408C256.247 73.8253 255.879 74.1057 255.512 74.3829C254.834 74.5467 254.159 74.7008 253.48 74.8469C253.227 75.2474 250.578 75.9381 249.48 76.4312C248.296 76.422 248.085 75.4778 245.547 76.2669C245.669 76.4908 245.791 76.7141 245.914 76.9377C245.311 77.0271 244.704 77.1117 244.093 77.1915C244.04 77.1209 243.992 77.0491 243.939 76.9784C244.249 76.9372 244.553 76.8953 244.862 76.8522C244.569 76.7789 244.283 76.7038 243.995 76.6271C243.133 77.0197 242.258 77.4022 241.368 77.7749C242.646 77.6886 243.919 77.5807 245.185 77.4496C243.676 77.9748 242.545 78.0196 241.219 78.4731C239.978 78.3556 240.383 78.0822 240.791 77.6337C240.362 77.7444 239.926 77.8526 239.494 77.9586C239.718 77.5417 238.949 77.4718 241.489 77.0298C241.294 76.9603 241.096 76.8955 240.908 76.8195C240.498 76.9125 240.214 76.8738 239.765 76.9938C238.545 77.3207 237.676 78.1065 237.796 78.318C237.863 78.4296 239.071 78.0036 239.047 78.1763C238.994 78.5987 236.1 78.8975 240.292 78.6083C238.971 79.1037 238.63 78.9617 237.095 79.1184C237.235 79.2356 237.371 79.3522 237.507 79.4697C236.784 79.516 236.078 79.5535 235.366 79.5858C236.241 78.7673 231.063 79.17 235.609 77.96C234.248 78.1164 232.875 78.2511 231.496 78.3643C231.769 78.2628 232.047 78.1608 232.321 78.0575C232.945 78.0256 233.563 77.9895 234.182 77.9485C233.443 77.9097 232.7 77.8657 231.957 77.815C230.267 78.1624 229.626 78.4676 228.862 78.8469C230.886 78.8896 230.201 78.6434 231.745 78.4211C231.711 78.622 231.803 78.7935 231.688 79.0131C230.848 78.7014 228.248 79.2356 227.627 79.2985C225.754 79.5012 227.191 78.994 225.952 79.074C224.716 79.1514 223.253 79.4705 222.207 79.1224C222.235 79.3431 222.328 79.5685 222.412 79.7667C220.453 79.9287 220.848 79.6438 220.642 79.6194C217.419 79.1758 215.69 79.681 211.997 79.7428C212.468 79.812 212.943 79.8731 213.416 79.9355C210.623 80.4093 212.514 80.2746 214.925 80.406C212.675 80.3817 211.331 80.776 209.755 80.8821C208.17 80.99 205.38 80.7263 204.409 80.5373C206.697 80.3398 209.187 80.5529 211.725 80.4865C211.435 80.26 211.146 80.0677 210.854 79.8179C209.319 80.2836 208.422 79.9516 207.914 79.8811C206.418 79.6716 206.454 80.0775 205.553 79.6197C205.586 79.7712 205.611 79.8984 205.644 80.0399C202.588 79.909 199.233 79.5115 197.219 79.9772C197.051 79.6076 196.929 79.2532 196.734 78.8747C195.416 79.087 194.291 78.7515 193.206 78.7584C192.113 78.7643 192.514 79.079 191.221 79.1205C190.981 79.1279 190.494 78.9174 189.897 79.0182C189.287 79.1199 187.051 79.9961 186.845 79.0999C185.746 79.0281 184.702 78.9295 183.614 78.844C184.678 78.8633 185.737 78.8823 186.785 78.8971C185.904 78.6288 185.025 78.3599 184.137 78.0886C184.009 78.2712 183.881 78.4572 183.759 78.6376C181.309 78.7108 179.612 78.2835 177.141 78.1865C176.733 78.1706 177.659 78.6125 175.867 78.3917C174.081 78.1707 172.774 77.3741 169.672 77.4267C169.516 77.4299 168.572 77.9026 167.495 77.4532C167.25 77.3513 168.315 77.3011 167.747 77.1498C167.181 76.9985 164.6 76.726 164.412 76.4484C164.433 76.5437 164.589 76.6517 164.661 76.7521C164.211 76.7655 163.772 76.7798 163.327 76.7929C163.297 76.6258 163.264 76.4581 163.235 76.2918C160.704 76.5016 159.301 77.0304 155.601 76.5819C156.639 76.889 157.655 77.1967 158.705 77.5068C159.006 77.3585 159.308 77.2092 159.605 77.0608C161.338 77.245 163.042 77.4294 164.769 77.6171C165.068 77.4463 165.362 77.2757 165.661 77.1049C166.12 77.162 166.573 77.2179 167.029 77.275C166.905 77.4048 166.78 77.5339 166.651 77.6634C167.562 77.6934 168.47 77.7228 169.369 77.7523C167.491 78.4374 164.239 77.3219 164.429 78.0197C164.021 77.8851 163.632 77.7512 163.233 77.6165C163.032 77.9345 162.218 77.7822 160.761 77.6306C161.084 77.8161 161.442 78.0018 161.737 78.1872C160.345 77.8606 157.783 77.7104 156.345 77.5282C155.705 77.4474 156.363 77.2498 156.173 77.2092C155.204 76.9979 153.292 77.296 152.897 77.2385C150.523 76.8932 149.089 76.0116 146.469 76.3881C149.122 76.6678 147.678 76.5315 148.605 76.876C148.895 76.984 152.297 77.3753 148.025 77.0395C147.518 76.9905 139.764 76.0362 142.343 75.7497C141.078 75.8198 140.081 75.9268 138.911 76.0153C136.123 74.7805 137.07 75.866 137.854 76.4737C137.394 76.4557 136.958 76.4425 136.483 76.4222C137.524 75.8618 132.365 75.6113 130.588 75.863C130.002 75.9447 131.624 76.1911 130.275 76.2376C129.634 76.1745 128.906 76.0973 128.226 76.0304C129.203 76.4399 127.259 76.5303 127.275 76.919C126.044 76.54 125.104 75.7866 125.8 75.4066C124.764 75.5417 123.716 75.6793 122.698 75.8216C123.172 75.9224 123.644 76.0231 124.122 76.1253C120.805 75.8052 116.428 76.324 115.757 75.5097C115.314 75.5133 114.866 75.5167 114.422 75.5216C114.285 75.6587 114.152 75.7962 114.014 75.9334C112.014 75.8115 109.957 75.7021 107.972 75.6066C109.747 75.5018 110.19 75.3026 112.077 75.4544C111.349 75.2984 110.606 75.1434 109.887 74.9908C107.062 75.4441 106.703 75.7187 102.409 75.6894C102.211 75.6854 99.0037 75.4213 98.8871 75.3933C98.3774 75.2512 99.1356 74.995 98.9083 74.9222C98.2828 74.7125 94.4379 74.2984 94.5037 74.214C95.4176 73.0805 108.237 72.7128 111.718 72.7013C147.762 71.7475 182.768 77.8723 217.949 77.3153C218.311 77.3041 218.149 77.1536 218.303 77.1429C219.259 77.0788 220.199 77.2857 220.55 77.282C221.299 77.273 220.879 77.0672 221.424 77.0442C227.115 76.7975 232.467 76.457 238.035 75.5225C238.397 75.4607 238.056 75.6978 238.688 75.5607C239.015 75.4892 239.992 75.0428 240.722 74.9003C243.308 74.3951 245.453 74.0075 248.118 73.2895C249.563 72.902 251.741 72.2729 253.321 71.7261C254.02 71.4872 254.707 71.1108 255.39 70.853C256.358 70.4847 256.249 70.7924 256.404 70.7507C257.083 70.5612 257.071 70.2666 257.688 70.0241C258.833 69.5657 258.97 69.715 260.396 69.0608C261.42 68.5963 263.654 67.3413 264.868 66.6254C267.885 65.2647 271.336 62.9437 273.765 61.024C273.841 60.9647 273.913 60.9086 273.983 60.8555L273.715 61.0842C274.882 59.9343 275.17 59.9649 275.678 59.4538C277.509 57.588 278.667 55.8395 280.22 53.9876C282.304 51.4841 284.187 49.3165 285.8 46.6638C286.051 46.2444 285.79 46.2204 286.018 45.81C286.935 44.1702 287.798 42.2185 288.359 40.7048C288.936 39.1154 289.437 38.5883 289.646 36.9456C289.694 36.4692 289.418 36.3061 289.442 35.5331C289.479 34.2746 289.649 32.971 289.53 32.1074C289.344 30.9563 289.281 31.9977 288.923 30.4939C288.906 30.434 289.049 30.1404 288.929 29.8309C288.552 28.9293 288.466 29.087 287.802 27.7861C287.761 27.6454 286.905 25.9403 286.744 25.7728C286.022 24.7547 284.472 23.1014 283.817 22.6193C281.741 21.1046 283.154 22.6545 281.811 20.7407C280.9 20.3024 279.912 19.8741 278.982 19.5191C279.674 19.7323 277.331 18.1117 277.095 18.0307C275.476 17.3364 276.265 18.0326 274.409 17.1032C277.193 17.685 271.985 15.8759 270.648 15.4464C265.097 13.3975 259.351 11.7193 253.447 10.4856C251.31 10.0386 248.585 9.66976 246.416 9.30398C245.905 9.21826 246.317 9.13162 245.866 9.05341C245.415 8.97677 245.888 9.22886 245.373 9.1353C242.075 8.54118 239.717 7.88601 236.717 7.9146C236.58 7.83834 236.59 7.7929 236.359 7.69922C233.829 7.74137 229.264 6.76924 227.537 6.54661C224.799 6.18747 224.046 6.37435 221.977 6.1589C219.374 5.88295 215.499 5.1548 217.198 6.05958C215.397 5.96491 213.63 5.86551 211.742 5.68995C211.532 5.67029 211.688 5.47701 211.604 5.46836C211.07 5.41095 210.886 5.58199 210.522 5.57157C209.534 5.5438 211.151 5.40925 209.748 5.39914C209.057 5.39793 208.666 5.53382 206.721 5.45169C194.47 4.93948 181.914 4.78125 169.288 4.92783C168.412 4.93856 168.986 5.12487 167.952 5.12799C164.402 5.13352 157.786 4.95997 154.494 5.10808C151.218 5.25294 152.06 5.51296 150.09 5.69779C149.715 5.73383 150.018 5.56105 149.677 5.57028C147.388 5.63377 144.602 5.48698 142.689 5.52754C141.425 5.55403 141.536 5.8052 140.655 5.86079C139.342 5.94322 137.964 5.74672 137.253 5.77095C133.955 5.88579 131.886 6.19627 128.844 6.24854C128.965 6.29848 129.046 6.34636 129.148 6.39645C125.583 6.57322 121.954 6.76812 118.253 6.98201C118.43 7.02274 118.602 7.0643 118.779 7.10593C114.595 7.33077 115.077 6.74776 115.501 7.89743C115.205 7.95736 114.89 8.02512 114.606 8.08114C114.683 7.47016 112.166 7.18259 108.918 7.24479C108.68 7.24874 107.121 7.94517 107.248 7.23802C106.842 7.43649 106.6 7.57077 106.256 7.7445C105.551 7.58114 104.835 7.42156 104.125 7.2603C103.751 7.31785 103.372 7.37485 102.998 7.43275C102.951 7.57296 103.004 7.71142 102.893 7.85375C101.137 7.99721 97.5315 8.09065 96.2506 8.20451C92.9556 8.49396 89.5702 9.12816 86.9007 8.94161C85.618 9.08538 86.919 9.24946 84.9986 9.37056C84.7707 9.25284 84.5559 9.13976 84.3179 9.01878C82.7927 9.75191 82.4355 9.4106 80.2479 9.4659C78.7534 9.50462 77.8333 9.73141 76.5003 9.81637C76.1605 9.83799 76.1933 9.65652 75.9615 9.68223C75.1867 9.76683 72.9759 10.2049 72.4203 10.2606C67.3989 10.7664 62.9953 11.1414 58.026 11.5458C57.4916 11.5898 58.2003 11.6991 57.6469 11.7441C56.7569 11.8169 57.251 11.4987 56.7395 11.5341C55.3724 11.6291 55.3909 11.913 53.4791 12.1126C47.5347 12.7335 40.571 13.2463 33.9826 13.9019L34.6744 13.7381C34.3326 13.8645 33.9921 13.9941 33.6534 14.1268C33.4648 14.2015 33.5378 14.3519 33.3339 14.4354C31.9956 14.9815 30.584 15.3563 29.3897 15.9222C27.4301 16.8554 26.0845 17.8223 24.2316 18.8808C20.6204 20.9725 17.4588 22.9929 14.2572 25.7774C11.6749 28.0711 9.60174 30.2616 7.63748 33.3013C-3.06937 48.4167 18.6582 59.2294 33.9838 63.7212C34.4234 63.8609 34.1953 63.9462 34.325 63.9783C35.5187 64.2652 35.6887 64.1031 36.0025 64.6261C37.5787 64.9837 38.1524 64.8186 40.128 65.3503C41.1061 65.6092 40.2434 65.8966 41.9926 66.0685C43.6135 66.2167 41.8575 65.5646 46.5978 66.9006C46.7215 66.9349 47.2364 67.3502 48.2071 67.4746C49.1884 67.599 48.0971 67.1644 50.4629 67.5753C51.5146 67.7556 52.6367 67.9568 53.8227 68.1706L53.5728 68.1344C58.6071 68.6506 64.3613 69.4195 69.7506 69.9281C70.1666 69.9673 74.1844 70.2355 74.9819 70.247C76.5254 70.2687 76.2293 70.0163 78.2202 70.1738C79.7586 70.2957 80.9979 70.6776 82.8066 70.8199C83.0173 70.8362 83.3961 70.6191 84.7478 70.7969ZM230.634 3.12215C231.062 2.91543 231.654 2.03996 234.049 2.59259C234.268 2.64418 232.996 3.13912 234.28 3.38711C232.987 3.30611 231.798 3.19964 230.634 3.12312C230.634 3.12279 230.634 3.12247 230.634 3.12215ZM93.9369 77.6995C92.248 77.4734 90.5532 77.247 88.8643 77.0209C90.0449 77.034 91.2271 77.0475 92.4032 77.0592C92.916 77.2727 93.4241 77.486 93.9369 77.6995ZM94.8043 4.06928C94.8027 4.06941 94.8012 4.06951 94.7995 4.06964C96.5621 3.81751 98.213 3.57591 100.092 3.32094C99.9056 3.42236 99.7184 3.52424 99.5317 3.62574C98.0436 3.87214 96.7696 4.10456 95.3813 4.34715C95.1894 4.25446 94.9967 4.16188 94.8043 4.06928ZM80.7442 6.11633C79.5699 6.10954 79.8401 5.91055 79.1826 5.79371C79.1826 5.79403 79.1827 5.79436 79.1827 5.79468C79.0121 5.7642 78.2042 5.79314 77.9145 5.81103C78.0281 5.91191 78.1835 6.00786 78.3153 6.1064C75.7314 6.59192 70.5626 6.08845 77.1165 5.14179C77.0302 5.2887 76.9482 5.43454 76.8618 5.58147C80.1711 5.25975 84.0807 5.24257 80.7442 6.11633ZM257.489 6.95614C260.223 7.13051 261.482 7.3326 264.661 8.56497C264.161 8.55396 263.656 8.54489 263.147 8.5378C262.627 8.25724 262.101 7.98019 261.561 7.70282C261.56 7.70239 261.558 7.70196 261.556 7.70153C261.407 7.80528 261.257 7.90936 261.112 8.01465C259.874 7.63588 258.627 7.27576 257.489 6.95614ZM8.8419 56.0823C8.8676 57.2579 9.08226 56.8464 7.09894 55.3299C6.44625 54.8107 6.92337 55.4836 6.53138 55.145C4.45573 53.274 4.81942 52.5679 5.45747 52.872C6.55376 54.1071 7.61486 55.0843 8.8382 56.0792C8.83943 56.0802 8.84067 56.0813 8.8419 56.0823ZM74.7811 74.4286C74.7827 74.4288 74.7843 74.429 74.7859 74.4292C74.8309 74.657 73.7612 74.6033 74.9383 74.9398C74.026 74.842 73.1137 74.7433 72.1968 74.645C72.4679 74.653 72.7447 74.6626 73.0158 74.6707C72.7865 74.5697 72.5566 74.4677 72.3273 74.3667C71.9762 74.5858 71.6907 74.4064 70.7412 74.2197C70.9772 74.5187 71.2119 74.8178 71.4479 75.1168C70.3427 74.9178 69.2336 74.718 68.1284 74.519C68.122 74.4493 68.1153 74.3794 68.1088 74.3097C67.6797 74.3523 67.2547 74.3963 66.8256 74.4389C66.7201 74.3453 66.6187 74.2529 66.5133 74.1593C66.0001 74.1671 65.4862 74.1749 64.973 74.1836C64.8397 73.9698 65.9653 74.0032 63.9807 73.843C64.6094 73.705 65.2367 73.5675 65.8699 73.43C68.8402 73.7623 71.8108 74.0955 74.7811 74.4286ZM1.57085 36.8233C0.729652 40.2263 0.92524 39.2932 0.603044 38.3689C0.90246 37.8319 1.23165 37.2999 1.57085 36.8233ZM161.38 1.36188C162.327 1.03326 163.273 0.709151 164.232 0.394007C166.152 0.184978 168.05 0.716134 166.628 0.958524C164.912 1.25057 163.088 0.991975 161.38 1.36188ZM205.741 1.49493C203.384 1.25816 205.625 0.98139 206.163 0.791605C206.798 1.16062 207.705 1.16871 209.131 1.27657C207.791 1.234 206.131 1.53476 205.741 1.49591C205.741 1.49558 205.741 1.49525 205.741 1.49493ZM123.02 2.57592C122.054 2.63982 121.093 2.78129 120.214 2.72843C120.461 2.41947 122.216 2.58552 120.947 2.22296C121.569 2.17933 122.19 2.13641 122.804 2.09328C122.424 2.29557 122.957 2.40033 123.018 2.57509C123.019 2.57537 123.02 2.57565 123.02 2.57592ZM24.0809 13.8376C25.9337 13.2541 26.1803 12.9641 27.8177 11.9218C28.175 12.0641 26.32 13.4601 25.1112 14.2205C24.7713 14.0898 24.4286 13.9616 24.0809 13.8376ZM151.446 78.1059C151.923 77.7725 155.248 77.9343 156.869 78.1493C156.671 78.1899 156.473 78.2312 156.274 78.2727C154.678 78.2148 153.064 78.1587 151.446 78.1059ZM209.808 1.33386C209.571 1.31159 209.345 1.29275 209.131 1.27657C209.369 1.28402 209.598 1.30129 209.808 1.33386ZM291.676 38.9358C291.509 38.0994 290.927 40.3232 291.615 37.6268C291.615 37.6267 291.614 37.6267 291.614 37.6266C291.972 35.8711 292.025 35.4405 292.022 33.7606C292.484 34.3262 292.632 37.9266 292.663 33.0265C292.655 32.9624 292.419 33.111 292.368 32.3432C292.347 32.1066 292.477 31.3107 292.241 30.1452C292.166 29.7706 291.421 26.9787 292.483 30.7688C292.755 30.5877 293.102 30.7322 293.389 30.663C293.801 32.2594 293.307 33.5196 293.268 35.1723C293.171 37.6102 293.39 38.9602 292.524 39.2577C292.905 37.1998 292.978 33.7732 293.358 33.2644C293.193 31.2529 292.646 30.7819 292.698 32.3732C293.11 35.7038 292.657 36.2279 292.54 36.5328C292.331 36.8635 292.333 37.0832 291.755 39.9665C291.843 40.0599 291.893 40.3186 292.002 40.313C291.129 41.8667 291.753 39.2846 291.676 38.9358ZM290.495 25.3651C291.296 26.2243 292.064 27.2528 292.693 28.302C292.321 28.4346 291.852 27.9091 290.798 26.3584C290.702 26.0162 290.6 25.6851 290.495 25.3651ZM225.954 80.245C225.804 80.4619 225.377 80.6796 225.067 80.8954C224.702 80.7866 216.408 80.931 220.612 80.6061C221.195 80.5688 225 80.7425 225.954 80.245ZM13.1821 21.3876C14.0401 20.8667 14.9111 20.3691 15.7782 19.9024C14.6256 20.8597 13.4796 21.8831 12.407 22.9275C12.6633 22.406 12.9107 21.902 13.1821 21.3876ZM177.233 1.50851C176.823 1.50249 178.184 1.21316 176.568 1.26486C177.774 1.07775 178.894 0.921474 180.054 0.750568C180.401 0.8846 180.751 1.01833 181.097 1.15285C181.366 1.06705 181.64 0.981922 181.908 0.896419C181.747 1.09145 181.603 1.28201 181.433 1.48044C179.491 1.05947 179.04 1.53542 177.233 1.50851ZM118.063 4.33935C117.672 3.93727 120.608 3.50827 117.704 3.61459C118.228 3.3035 119.119 3.10272 120.808 2.97934C121.085 3.07005 121.362 3.16011 121.639 3.25103C121.659 2.96389 122.088 2.83262 123.02 2.57592C123.021 2.5762 123.022 2.57648 123.023 2.57676C125.57 2.41279 125.416 2.51839 126.051 2.95349C123.358 2.83572 123.295 3.26997 121.463 3.6304C120.204 3.87859 118.526 3.8992 118.063 4.33935ZM234.758 79.3806C232.923 79.9679 234.649 80.1143 231.251 80.1022C231.457 79.9895 231.659 79.8774 231.868 79.7633C232.837 79.6446 233.801 79.5173 234.758 79.3806ZM108.818 3.46738C109.078 4.1086 110.874 4.50319 111.104 3.41689C109.374 3.31165 110.253 3.86108 108.818 3.46738ZM204.896 2.49093C201.581 2.33404 202.221 1.61928 203.613 1.2975C203.819 1.44019 204.025 1.58323 204.226 1.72513C204.81 1.68612 205.391 1.64784 205.969 1.61135C205.612 1.90394 205.254 2.19768 204.896 2.49093ZM50.3603 9.06238C52.8148 8.35011 47.6327 9.06796 49.3526 8.60454C50.729 8.23343 52.6038 8.52661 51.9404 8.8889C51.4601 8.94397 50.9243 9.0021 50.3651 9.06191C50.3637 9.06205 50.3619 9.06222 50.3603 9.06238ZM65.0254 7.53899C64.5602 7.07794 65.1806 7.16743 63.1672 7.4431C62.5984 7.51996 57.952 7.76551 59.9344 7.9974C61.5891 7.8424 63.3271 7.68892 65.0254 7.53899ZM243.224 5.09874C243.151 5.30302 239.723 5.29643 239.295 5.12431C239.294 5.12463 239.294 5.12496 239.294 5.12528C238.158 4.64094 241.751 5.08407 240.259 4.42654C243.561 5.28357 245.003 4.56398 244.506 5.75568C242.365 5.48149 243.41 5.38153 243.224 5.09874ZM108.001 75.8016C107.999 75.8016 107.997 75.8016 107.996 75.8016C108.231 75.808 110.163 76.1113 109.933 76.2248C107.604 76.1503 108.023 75.9347 105.858 76.3145C105.738 76.2048 105.634 76.0983 105.503 75.988C106.364 75.9071 106.84 75.7652 108.001 75.8016ZM216.989 80.1902C217.854 80.1168 219.431 80.31 220.403 80.2587C217.319 81.2856 213.553 80.4687 216.989 80.1902ZM42.7654 70.0118C42.7629 70.0115 42.7604 70.0113 42.7579 70.011C42.7588 70.0107 42.7598 70.0105 42.7607 70.0102C42.7622 70.0107 42.7638 70.0112 42.7654 70.0118ZM279.324 60.484C279.206 60.5225 279.126 60.5318 279.078 60.5167C279.075 60.5138 279.072 60.5109 279.069 60.5079C279.15 60.5034 279.234 60.4964 279.324 60.484ZM250.438 6.24092C251.768 6.79473 247.07 6.4211 245.476 6.06396C245.608 5.94446 245.645 5.82272 245.927 5.70679C247.151 6.26416 250.226 6.14427 250.438 6.24092ZM139.538 2.29685C143.451 2.13756 138.415 3.55648 138.153 2.60965C138.16 2.59053 139.438 2.30268 139.538 2.29685ZM220.243 2.67054C219.262 2.96541 221.183 3.19654 218.106 2.91831C217.932 2.81192 217.758 2.70541 217.583 2.59919C218.478 2.62083 219.365 2.6443 220.243 2.67054ZM164.814 3.07462C169.422 2.78212 174.367 2.38483 171.08 1.41373C170.704 1.45036 170.322 1.48625 169.944 1.52341C169.891 2.01421 168.486 1.76397 166.582 1.78018C166.31 1.9791 165.235 2.04324 165.035 2.21245C164.65 2.53917 165.893 2.74073 164.814 3.07462ZM18.7292 60.9836C18.6194 61.0229 18.511 61.0632 18.4014 61.1014C17.6444 60.8324 16.909 60.5572 16.1976 60.2784C16.3818 60.1958 16.566 60.1128 16.7498 60.0291C17.3868 60.3499 18.0429 60.6661 18.7249 60.9809C18.7263 60.9818 18.7278 60.9827 18.7292 60.9836ZM286.786 22.3093C287.773 22.0375 286.517 20.8043 283.851 19.3592C284.85 20.2334 285.907 21.2685 286.786 22.3093ZM87.1045 6.80445C86.9827 6.55185 86.8624 6.29994 86.7359 6.04773C85.0951 6.45255 85.4273 6.72654 86.2524 7.00733C86.5387 6.93955 86.8189 6.87204 87.1045 6.80445ZM63.3197 8.96425C64.0165 8.95491 63.644 8.77719 63.7168 8.77474C65.4744 8.72501 65.7299 8.7987 67.842 8.44872C68.0972 8.37009 68.3477 8.28907 68.6024 8.20892C67.5724 7.75122 66.889 8.11195 64.7665 7.98231C65.1612 8.13497 65.5538 8.28818 65.9472 8.44199C64.7825 8.5079 63.6176 8.57533 62.4423 8.64415C62.3088 8.71472 62.1747 8.7848 62.0411 8.85539C62.4649 8.8909 62.9025 8.93454 63.3197 8.96425ZM26.7659 64.6214C27.8887 65.052 28.8749 65.4147 29.9364 65.7876C30.0175 65.6722 30.0972 65.5554 30.1781 65.4399C29.0346 65.1833 27.9781 64.9408 26.7659 64.6214ZM290.468 43.3238C290.478 43.4215 290.49 43.5178 290.505 43.6062C290.453 43.5758 290.448 43.4705 290.468 43.3238ZM105.015 75.1066C103.731 75.0354 101.862 75.1413 100.475 75.1627C100.585 75.495 104.166 75.3096 105.426 75.4972C105.627 75.433 105.558 75.1364 105.015 75.1066ZM200.264 2.29818C199.931 2.45682 199.597 2.61496 199.267 2.77427C198.481 2.73306 197.637 2.691 196.885 2.65398C196.86 2.79165 196.834 2.93052 196.809 3.06819C200.303 2.98044 199.511 3.36129 201.219 3.80777C200.901 3.30456 200.586 2.80174 200.264 2.29818ZM61.898 71.4931C59.4183 71.3236 58.5237 71.4043 59.8722 71.9647C60.754 71.9627 61.6409 71.9611 62.5226 71.9591C62.313 71.8037 62.1031 71.6481 61.898 71.4931ZM257.805 72.6268C255.931 73.5183 255.704 73.0067 253.904 73.9553C254.957 73.7084 256.016 73.4387 257.062 73.1494C257.308 72.9774 257.561 72.8011 257.805 72.6268ZM256.582 10.1721C257.326 10.543 259.152 10.0139 261.383 11.3136C261.998 11.2689 262.398 11.1783 262.926 11.1202C263.143 11.4058 263.392 11.7047 263.589 11.9851C263.591 11.9856 263.592 11.986 263.594 11.9864C265.645 12.5156 264.407 11.8679 264.519 11.6609C264.543 11.6185 264.921 11.7477 265.236 11.8462C265.558 11.9468 265.864 12.0299 265.633 11.8497C264.914 11.2404 261.751 10.5611 261.827 10.1426C262.937 10.5817 265.075 11.0902 264.533 10.6296C263.942 10.1205 261.754 10.0566 260.444 9.45407C262.252 10.6331 258.152 9.36206 257.936 8.78166C255.638 8.67223 257.505 9.24863 260.013 9.86264C258.419 9.88144 260.677 10.2212 260.934 10.6436C259.283 10.3941 254.396 9.11552 256.582 10.1721ZM144.694 3.82952C146.346 3.73802 148.898 3.87898 149.989 3.49841C150.628 3.27598 148.088 3.20846 149.825 2.83375C148.249 2.91876 147.887 3.05575 148.169 3.32123C147.809 3.36726 147.443 3.41284 147.082 3.45846C146.912 3.4109 146.738 3.36426 146.567 3.31679C146.381 3.43726 146.193 3.55691 146.01 3.67732C145.622 3.66964 145.229 3.66235 144.839 3.65433C144.795 3.71309 144.719 3.76572 144.694 3.82952ZM199.115 79.3801C199.571 79.3952 200.016 79.4092 200.482 79.4224C200.434 79.3534 200.376 79.2813 200.32 79.2101C200.28 79.1541 200.24 79.098 200.2 79.0419C200.462 79.2481 202.648 79.649 203.568 79.4657C204.031 79.374 202.999 78.9765 204.945 78.9633C203.537 78.9469 202.222 78.9563 200.833 78.9374C200.961 78.8319 201.085 78.725 201.213 78.6193C201.212 78.6191 201.211 78.6189 201.211 78.6187C200.753 78.5777 200.28 78.5341 199.829 78.4917C199.591 78.7882 199.355 79.084 199.115 79.3801ZM88.4891 7.21319C90.0312 6.87474 90.5397 6.72309 89.7794 6.43192C89.7778 6.43188 89.7762 6.43185 89.7746 6.43181C89.2076 6.63145 88.6392 6.83144 88.0697 7.03186C88.2082 7.0923 88.3462 7.15306 88.4891 7.21319ZM282.452 53.9701C281.416 57.3732 285.45 51.0022 284.176 51.8521C284.138 51.8865 282.783 53.8119 282.452 53.9701ZM205.484 2.92306C204.582 2.89711 203.67 2.87209 202.748 2.85012C202.954 3.02065 203.165 3.1909 203.37 3.36164C204.078 3.21447 204.784 3.06773 205.484 2.92306ZM51.2938 69.584C50.3984 69.0431 48.0449 68.4319 46.8417 68.5756C47.4255 68.7481 48.017 68.9197 48.6159 69.0901C47.442 68.895 46.3894 68.7221 45.1267 68.4851C44.9558 68.9661 46.4102 68.9945 48.3547 69.5383C48.6534 69.6253 50.5538 70.6494 51.3666 70.3195C51.5235 70.252 49.3595 69.7606 50.9265 69.7783C50.2679 69.6273 49.7016 69.5196 49.0914 69.3831C49.0711 69.2556 49.0512 69.1281 49.0267 68.9997C49.7728 69.1964 50.5249 69.3908 51.2938 69.584ZM154.201 3.46092C156.531 3.41979 156.802 3.21169 157.274 2.83996C156.203 2.90937 155.125 2.98014 154.04 3.05349C154.096 3.18894 154.145 3.32463 154.201 3.46092ZM31.8017 64.6444C30.6413 64.2125 31.058 64.651 30.5709 64.5513C28.7743 64.1794 27.6086 63.5513 25.8211 63.0154C25.9554 63.0062 26.0794 62.9968 26.2094 62.9873C26.2079 62.9867 26.2064 62.9862 26.2049 62.9856C18.229 59.4713 22.2443 61.9482 27.1277 63.6552C27.209 63.8001 27.2864 63.9436 27.3697 64.0879C29.6652 64.7131 31.7251 65.1603 31.8017 64.6444ZM289.972 28.2661C289.939 28.3768 289.261 27.8358 289.989 29.0958C290.975 29.9638 290.044 28.2873 290.022 27.7441C290.253 28.0905 290.471 28.4533 290.672 28.8103C289.895 26.4547 289.425 26.2343 289.491 27.2459C289.5 27.3146 290.004 28.1514 289.972 28.2661ZM288.685 43.6278C289.406 44.3582 290.253 41.2162 289.901 41.2272C289.745 41.6326 289.771 42.0107 289.528 42.4278C289.275 42.8608 289.05 42.8522 288.685 43.6278ZM220.716 4.63218C220.811 4.64317 221.696 5.10209 221.644 4.79202C220.545 3.97981 218.173 4.27986 218.563 4.55992C219.341 4.60175 219.865 4.53057 220.716 4.63315C220.716 4.63283 220.716 4.6325 220.716 4.63218ZM66.1256 71.1165C66.0827 71.0859 63.6962 70.6746 63.3706 70.7864C63.0977 70.9222 62.9523 71.0834 62.7427 71.2318C64.0833 71.2161 66.7505 71.6201 66.1208 71.116C66.1224 71.1162 66.124 71.1164 66.1256 71.1165Z" fill="#FFD11D"/>
</svg>
