<svg width="88" height="109" viewBox="0 0 88 109" fill="none" xmlns="http://www.w3.org/2000/svg">
<path d="M0.00695615 93.5176C0.200669 92.9302 0.827639 92.4378 1.40679 92.14C1.58755 92.0461 1.85105 92.358 1.99019 92.3038C2.2619 92.1977 2.24312 91.8964 2.53681 91.8102C2.6357 91.7828 3.08063 92.2398 3.17276 92.2024C3.67399 91.9952 3.80831 91.5461 4.19729 91.2477C6.11417 89.7787 7.66727 88.0882 9.30149 86.3733C9.8399 85.8076 10.8611 85.3928 11.1388 84.6012C11.1708 84.5085 10.6941 84.2231 10.6682 84.1816C10.2753 83.5414 11.115 84.2821 11.3427 84.2245C12.244 83.9942 12.7648 83.3797 13.0092 82.6942C13.1118 82.4017 12.0539 81.9841 12.7262 82.113C12.772 82.1213 13.198 82.532 13.2966 82.5043C13.5195 82.4407 13.6439 82.0979 13.7664 82.0112C14.0049 81.846 14.0273 81.806 14.1879 81.6013C14.4117 81.3247 14.8982 81.1597 15.0193 80.7743C15.0437 80.691 14.4967 80.4182 14.4921 80.2529C14.4877 80.0876 14.7339 79.8422 14.9169 79.8339C15.1 79.8257 15.4499 80.1477 15.5491 80.196C16.3839 80.6069 15.6048 79.5312 15.6102 79.4714C15.739 78.4041 16.7958 78.1934 17.3171 77.4896C17.7117 76.9545 17.945 76.2419 18.349 75.7539C18.8321 75.174 19.4751 74.8563 19.8674 74.2354C19.9093 74.1703 19.2877 73.8205 19.3378 73.7402C19.8705 72.8867 20.527 72.134 21.5062 71.6183C21.605 71.5669 22.0262 72.0414 22.1546 72.0122C22.9298 71.8258 24.4921 71.7807 22.5399 69.874C22.8724 69.6042 23.2606 69.2654 23.9195 69.2932C24.3439 69.3107 24.7479 69.9012 24.6918 69.493C24.6798 69.4014 24.153 69.1167 24.1709 69.0061C24.2468 68.5408 24.6744 68.289 24.6761 67.7739C24.6753 67.6683 24.2356 67.3697 24.1732 67.2935C23.6718 66.6702 24.898 67.1667 25.0161 67.1639C25.9035 67.1334 25.9263 66.6457 26.2482 66.2416C26.3231 66.148 25.6664 65.8357 25.7179 65.7304C25.993 65.1896 26.4121 64.7293 27.0157 64.4486C27.1513 64.3872 27.5671 64.846 27.6569 64.8352C28.0466 64.7833 27.1625 64.0492 27.5185 63.9862C27.5924 63.972 27.991 64.3076 28.0428 64.3336C28.8567 64.742 27.9197 63.8729 27.9215 63.8235C27.9219 63.1811 29.1826 63.7089 29.3292 63.1973C29.3457 63.1353 28.7376 62.8501 28.8162 62.6998C29.3365 61.6965 30.1861 60.858 31.2677 60.2866C31.4351 60.1972 31.7585 60.5908 31.8139 60.6185C32.6828 61.0459 31.7274 60.1926 31.7223 60.119C31.7085 59.5582 32.8132 59.8662 31.7733 58.7181C33.3132 57.5327 33.7403 55.5296 35.94 54.8547C35.9668 54.8452 36.4456 55.2543 36.4967 55.2337C37.1181 54.9899 36.2697 54.4941 35.5354 53.4801C35.3512 53.2253 36.6795 53.856 36.7795 53.8987C37.1472 54.057 37.8398 54.6923 37.9188 54.7124C38.5472 54.8603 36.0423 53.0478 36.2481 52.7695C36.2587 52.7639 36.6881 53.1402 36.7508 53.1507C36.9472 53.1843 36.8193 52.9775 37.0291 53.0236C37.5134 53.1321 38.7615 53.9714 38.2445 53.2017C38.1768 53.1026 36.7344 52.1033 36.9854 51.9048C37.0867 51.8266 37.3882 51.3712 37.5706 51.3164C37.7529 51.2617 38.1436 51.6833 38.1697 51.6891C39.0148 51.8054 39.1701 52.1155 40.1806 52.6108C41.1878 53.1036 39.045 51.5797 38.8598 51.3371C38.6753 51.0949 39.35 51.2212 39.5662 51.2897C39.7824 51.3583 40.0153 51.6469 40.152 51.6665C41.0487 51.7896 39.2197 50.7336 38.971 50.369C38.3811 49.5069 40.1027 50.4591 40.4414 50.324C40.533 50.2874 40.1358 50.0773 40.1472 49.9924C40.197 49.66 40.7914 49.8802 40.5453 49.2767C40.5054 49.1782 39.7279 48.2596 40.5233 48.6317C40.6377 48.6857 40.985 49.0328 41.1477 48.9964C41.3914 48.9426 41.6796 48.7333 41.6704 48.4736C41.6635 48.2817 40.9189 47.9414 41.2309 47.9387C41.37 47.9378 41.6529 48.342 41.8829 48.317C42.1124 48.2926 42.3349 47.9592 42.4129 47.8274C42.4904 47.6955 41.9536 47.3997 41.9281 47.3654C41.7845 47.1659 41.7239 46.7569 41.7399 46.7367C42.457 45.6491 43.9943 45.2982 44.4787 44.0801C44.5174 43.985 43.9642 43.6558 43.9648 43.6373C43.9528 43.2043 45.1583 44.436 45.7573 44.5856C44.6944 43.8373 44.9669 43.8652 44.9957 43.5879C45.0088 43.4536 44.5676 43.2036 44.5326 43.1644C44.0218 42.5707 44.8848 43.0645 45.0651 43.1604C45.7287 43.513 45.0984 42.8899 45.5427 43.1245C45.9841 43.3568 46.4641 43.9355 46.5938 43.7455C46.2592 43.4161 45.1822 42.8271 45.1284 42.5695C44.9238 41.5964 46.4227 41.18 46.8182 40.8145C47.2131 40.4499 47.2461 40.2617 47.5648 40.1152C48.1407 39.8506 47.2956 39.4755 47.1706 38.9521C47.0463 38.4278 48.7258 39.8879 49.1381 40.1328C49.5498 40.3783 49.1879 40.0424 49.4345 40.1502C49.6809 40.2581 49.8627 40.557 50.0268 40.5014C50.1908 40.4458 49.7431 39.6265 49.3731 39.2882C48.5893 38.5715 47.5947 38.0501 48.1326 37.9802C48.1641 37.9766 48.5901 38.3815 48.687 38.3501C49.4413 38.089 49.873 37.5557 50.5852 37.2643C50.6839 37.2248 51.1562 37.6773 51.2195 37.6587C51.8806 37.466 50.8854 36.97 50.0898 36.0025C51.3474 37.0229 52.2409 37.4804 52.4975 37.1517C52.6522 36.9544 52.0595 36.5671 51.7568 36.1396C51.6654 36.011 52.1605 36.1585 51.9131 35.9342C51.105 35.2006 50.0297 34.6084 50.6748 34.5527C50.7045 34.5513 51.1457 34.9546 51.2135 34.9238C51.6541 34.7267 50.7727 34.0078 50.9342 33.5604C51.0606 33.2096 51.9955 33.1142 52.3285 32.8556C53.7826 33.9487 53.6777 33.392 52.7645 32.5182C52.9632 32.3373 53.0764 32.0665 53.3677 31.9655C53.4675 31.9305 53.8555 32.2912 53.9078 32.3163C54.7252 32.7133 53.8148 31.8927 53.8104 31.8185C53.8058 31.0459 54.8478 31.1949 54.4744 30.1829C54.4607 30.1467 53.4673 29.3651 54.3014 29.7897C54.3585 29.8195 54.7036 30.3188 54.9046 30.1232C55.1058 29.9276 55.9609 29.9132 55.7209 29.255C55.6634 29.0962 54.9811 28.2949 55.7368 28.6219C55.8391 28.6667 56.1134 28.9052 56.2969 28.9965C56.8825 29.2859 55.8962 28.4719 56.8491 29.009C57.8018 29.5462 58.6251 29.801 58.2562 29.0429C58.2461 29.02 57.4889 28.3419 57.5746 28.2536C57.712 28.1132 58.0462 28.0174 58.1623 27.8504C58.2176 27.7702 57.6762 27.4449 57.6771 27.4244C57.7853 26.6891 58.513 26.6501 59.1268 26.2329C59.2403 26.1571 58.7732 25.349 59.4654 25.5541C60.2236 25.7779 62.5315 27.8458 62.3167 26.903C62.232 26.5242 59.283 23.9292 61.1819 24.7753C61.3059 23.767 62.6261 23.7319 62.579 22.5933C62.5773 22.5423 61.776 21.7889 61.8438 21.7227C61.9462 21.6257 62.4014 21.8695 62.4876 21.81C62.8592 21.5683 62.7359 21.0023 63.0298 20.7213C63.1404 20.614 63.5323 20.972 63.6643 20.844C63.7959 20.7158 63.3103 20.2036 63.7265 20.207C64.0427 20.2109 65.2936 20.9107 65.5737 20.812C64.4547 19.9673 64.5789 19.8488 64.4617 19.3865C64.4386 19.2973 64.0101 19.0556 63.979 18.9984C63.8438 18.7589 64.2297 18.9177 64.0732 18.6695C64.0358 18.6096 63.6525 18.3228 63.6002 18.2577C63.1414 17.6933 64.1811 18.1001 64.3617 18.1715C65.0487 18.4413 64.6033 17.9968 64.917 18.045C65.2306 18.0933 65.3792 18.4807 65.6192 18.4432C66.1162 18.3651 66.3299 17.9484 66.5655 17.6688C66.6571 17.5554 66.0851 17.2535 66.0864 17.2285C66.1362 16.8901 66.8633 17.0517 65.9419 16.1576C68.7069 17.9556 65.7942 15.8213 66.5798 15.8695C66.6428 15.8741 67.9172 16.7689 68.0227 17.0098C68.1281 17.2506 67.62 17.1184 67.7979 17.476C67.8394 17.5602 68.8631 18.6277 68.914 18.7073C69.3115 19.3296 67.4235 17.9705 67.3128 17.9053C66.113 17.2081 67.1947 18.3865 67.2347 18.5146C67.4184 19.101 66.973 19.1515 67.0777 19.6056C67.144 19.9009 68.3547 20.8262 68.2248 20.9226C67.7936 21.2437 65.9812 20.1188 67.1697 21.6086C67.4229 21.9267 68.8205 22.8382 67.5474 22.3554C67.4672 22.3249 66.341 21.8317 66.8532 22.4125C66.9179 22.4856 67.3076 22.7749 67.3245 22.8205C67.43 23.1204 67.0491 22.9845 67.0822 23.2503C67.1152 23.516 67.1978 23.8674 66.9339 23.9463C66.7754 23.9942 65.9481 23.5913 65.7325 23.5102C65.1135 23.2737 65.8371 24.0528 65.1511 23.6811C64.4614 23.3077 63.6471 22.4277 63.0688 22.3646C64.0738 23.1263 65.0969 23.9192 66.1037 24.6905C65.6824 25.182 64.9759 25.4483 64.6336 26.0014C64.5922 26.0707 65.185 26.4096 65.1547 26.4943C65.0241 26.8501 64.4469 26.8161 64.3763 27.2333C64.3237 27.5578 64.7084 28.2429 64.6714 28.5956C63.4027 27.8834 63.5254 28.5389 63.2233 28.724C63.118 28.7891 62.8135 28.5529 62.6637 28.5435C62.1062 28.5137 63.2155 29.1589 63.3259 29.3467C63.7958 30.1496 61.4622 28.4513 61.2635 28.8375C61.2523 28.8574 62.3205 29.9986 62.3746 30.0864C62.7307 30.6543 61.9211 29.799 61.7391 29.853C61.4068 29.9516 60.997 29.8869 61.164 30.4171C61.2144 30.5729 61.8476 31.3281 61.1426 31.0331C61.0502 30.9946 60.6503 30.6802 60.6148 30.6781C60.0056 30.6651 61.2817 31.6266 61.5952 32.1117C61.9085 32.5967 60.8376 32.1883 60.5447 32.0494C59.7859 31.6916 60.3388 31.7375 60.2794 31.6821C59.5722 31.0239 59.5689 31.3051 59.4001 31.3961C58.1284 30.4809 58.0587 30.732 59.2301 31.4942C59.3582 31.5771 59.3218 31.3814 59.4001 31.3961C60.5419 32.4363 60.5403 32.7681 59.212 32.1471C58.5895 31.8559 58.0378 31.2825 58.0176 31.7905C58.0079 32.0206 58.9171 32.6057 59.0527 32.9161C59.3617 33.6247 58.2567 33.424 58.1475 33.8362C58.1079 33.9857 58.6651 34.2261 58.6544 34.3405C58.6274 34.6451 58.1348 34.5649 58.1606 34.9103C58.1635 34.942 58.6939 35.2646 58.6517 35.3346C58.3409 35.8722 57.7027 36.0666 57.3093 36.5767C57.1195 36.8233 57.0608 37.4731 56.8133 37.6907C56.3874 38.0701 55.256 38.0847 55.1462 38.5979C55.0724 38.9311 55.6091 39.2454 55.8674 39.6039C56.3686 40.2979 54.9234 39.7901 54.7052 39.704C54.698 39.7011 54.7411 39.3992 54.4012 39.3243C53.8211 38.9962 54.7047 39.6999 54.7052 39.704C54.5637 39.649 54.1317 39.9944 54.163 40.1502C54.1804 40.2351 54.6695 40.5589 54.6696 40.5966C54.6629 41.4835 54.3543 42.1473 53.7014 42.5658C53.6842 42.569 53.1702 42.1624 53.1365 42.1747C52.652 42.3378 53.1342 43.0321 53.3091 43.5942C53.4837 44.1561 53.1919 44.2814 52.1672 43.7743C52.1247 44.0685 51.502 44.0724 51.1311 44.0653C50.7602 44.0583 51.7652 44.844 51.7741 44.8742C52.0678 45.8312 51.2778 45.6699 50.8198 46.0949C50.6003 46.2957 50.4027 46.8709 50.3258 47.2079C50.2666 47.4755 49.937 47.4178 49.9527 47.7167C49.9546 47.7569 50.4289 48.0707 50.4408 48.0914C50.8322 48.7033 49.7925 47.7753 49.5619 47.6698C48.7238 47.2858 48.2676 47.0944 48.4113 47.6117C48.4439 47.7306 49.9152 49.1015 49.9263 49.2823C49.9378 49.5152 49.4037 49.033 49.4304 49.2877C49.4321 49.3091 49.7887 49.5704 49.7036 49.652C49.3134 50.0344 48.7557 50.3529 48.4563 50.8293C48.414 50.8934 49.0351 51.2332 48.9833 51.3327C48.7397 51.799 48.3789 52.2402 47.8135 52.4502C47.6726 52.5006 47.3255 52.1449 47.1924 52.0795C46.3859 51.6861 47.2731 52.6401 47.2695 52.6858C47.2102 53.7968 45.8565 53.6732 45.7355 54.7604C45.7308 54.821 46.5964 55.9587 45.5459 55.3968C45.4758 55.3597 44.4047 54.7801 44.9735 55.3961C45.0092 55.4346 45.5719 55.7178 45.4077 55.8324C45.2437 55.9471 45.3936 56.4397 44.6908 56.242C44.4692 56.1801 43.388 55.6189 44.0096 56.3889C44.0537 56.4418 45.5648 58.0411 44.2843 57.2573C44.0737 57.128 42.8182 56.1647 43.2932 56.8852C43.3858 57.0242 43.7299 57.1531 43.8182 57.4035C43.9552 57.7883 43.4357 57.7765 43.8345 58.4212C43.9055 58.5347 44.6433 59.3421 43.8903 58.9887C43.7723 58.9333 43.3781 58.5782 43.2783 58.6133C42.8017 58.7787 42.8243 59.3401 42.2782 59.4617C42.0855 59.5053 41.4463 58.9339 41.1694 58.9227C40.8925 58.9116 40.5277 59.033 40.7431 59.3973C40.9585 59.7617 42.157 60.4309 42.0979 60.6927C41.8407 61.8304 40.5696 62.2009 39.8402 62.9852C39.7319 63.1014 40.2007 63.2872 40.0692 63.4794C39.586 64.1892 39.0678 65.65 37.7932 65.6293C36.7721 65.6128 36.7142 64.6339 36.1714 64.7981C35.911 64.8785 37.0382 66.0142 37.0465 66.0865C37.1427 66.8047 36.3652 66.6754 36.2589 67.1783C36.2372 67.2822 36.8081 67.5893 36.7838 67.6736C36.7057 67.9648 36.3002 68.0302 36.1823 68.2763C36.1306 68.3875 36.5367 68.6623 36.4404 68.7284C36.2144 68.8899 35.9096 68.9546 35.3873 68.8873C35.3397 68.8812 34.9456 68.3902 34.8105 68.5337C34.5934 68.7669 33.9953 68.8118 34.1529 69.3834C34.2012 69.5542 35.0967 70.226 34.3377 69.9508C34.1791 69.8935 33.1379 69.041 33.9079 69.9517C34.0356 70.1035 35.0207 71.4038 34.0774 70.9798C33.829 70.8683 32.8569 70.3321 32.9179 70.5396C32.9295 70.5702 33.454 70.8726 33.4367 70.994C33.3674 71.4158 33.0783 71.6968 32.9965 72.1222C32.9755 72.2365 33.5673 72.4835 33.5202 72.6421C33.3914 73.0785 32.946 73.4115 32.5405 73.6301C32.39 73.71 32.0401 73.3169 31.9884 73.2923C31.149 72.892 32.0733 73.7128 32.0952 73.8036C32.2181 74.3586 31.585 74.2403 31.5031 74.6066C31.4793 74.7068 31.9904 75.0036 32.0211 75.05C32.3149 75.5121 31.5559 74.7657 31.3888 74.7955C30.9181 74.8767 30.7255 75.2144 30.5766 75.5401C30.5226 75.6602 31.155 75.9509 31.1003 76.054C30.7865 76.672 30.3102 77.2028 29.611 77.5134C29.4783 77.5712 29.1049 77.1948 28.9933 77.1442C28.2136 76.7886 28.9724 77.683 29.0234 77.7967C29.257 78.3153 28.821 78.1246 28.7446 78.3722C28.378 79.5863 27.2522 80.5843 26.4277 81.3742C25.3558 82.4054 24.2759 83.0208 23.5443 84.2205C23.4973 84.2963 24.1103 84.6409 24.077 84.7116C23.6209 85.6059 22.8204 86.2247 22.3899 87.1405C22.3536 87.2149 22.954 87.5156 22.9135 87.6483C22.8342 87.9233 22.6027 88.1741 22.2716 88.2653C22.1112 88.3105 21.7619 87.8296 21.6096 87.882C21.2541 88.0034 21.0181 88.2416 20.9132 88.56C20.8697 88.6964 21.5341 88.9364 21.4353 89.0821C20.7735 90.0836 20.1641 91.0973 18.7385 91.5459C18.6407 91.5765 17.4947 90.8143 17.6007 91.1133C17.8988 91.3517 18.2591 91.6191 18.5827 91.8671C17.7171 93.3978 16.3037 94.4985 15.2 95.8579C15.1535 95.9153 15.8138 96.2479 15.7269 96.3612C15.2247 97.0178 14.9073 97.7821 13.8218 98.0281C13.715 98.0532 12.713 97.2537 12.7208 97.5677C12.7232 97.6238 12.6379 98.0244 12.8035 98.2677C12.8293 98.3033 13.3495 98.6058 13.2919 98.7125C12.9484 99.326 12.4026 99.8306 11.6939 100.171C11.5786 100.225 11.1393 99.7487 11.0527 99.7841C10.4427 100.037 10.4624 100.822 9.67476 100.911C9.14573 100.97 8.34301 100.205 7.3587 99.7129C7.21978 99.6435 7.06613 99.8093 6.55351 99.4422C5.26411 98.5196 3.93675 97.3958 2.5547 96.4227C2.25712 96.213 2.3918 96.6885 1.79275 96.0204C1.75297 95.9753 1.64915 95.6259 1.44192 95.4046C1.2988 95.2514 0.744256 94.9227 0.578044 94.7038C0.412024 94.485 0.89322 94.7386 0.719957 94.4518C0.543582 94.1628 -0.0746906 93.7719 0.00695615 93.5176ZM49.4691 44.0395C48.8585 43.8341 50.6403 45.1972 50.3389 44.7034C50.3222 44.6779 49.4994 44.0492 49.4691 44.0395ZM63.6208 24.4351C62.6711 24.0538 63.7314 25.0659 64.4544 25.3744C65.1767 25.6824 63.9089 24.5503 63.6208 24.4351ZM64.6588 21.8309C63.8508 21.61 66.3737 23.5479 66.0531 22.9016C66.0353 22.8647 64.7058 21.8436 64.6588 21.8309ZM7.64535 98.8111C7.61981 98.7955 7.50004 98.9078 7.52142 98.9285C8.04153 99.423 8.28063 99.1981 7.64535 98.8111ZM65.6331 19.2051C65.231 19.0246 65.4656 19.5413 65.9655 19.7658C66.3677 19.9464 66.1333 19.4295 65.6331 19.2051ZM41.3247 50.9711C41.2961 50.9536 41.2027 51.0286 41.3557 51.1396C41.8486 51.4966 41.8071 51.2648 41.3247 50.9711ZM68.3317 15.5184C67.8326 15.9884 65.4804 14.7477 66.1572 14.3351C66.2797 14.2604 66.6581 15.0656 66.9492 15.0711C67.4805 15.0802 66.2801 13.9299 67.1781 14.204C67.3421 14.2547 68.3648 15.4951 68.3339 15.5216C68.3332 15.5205 68.3324 15.5195 68.3317 15.5184ZM47.2391 42.5229C47.2129 42.5084 47.0946 42.6203 47.1159 42.6409C47.6353 43.1358 47.874 42.9108 47.2391 42.5229ZM36.1758 55.5652C36.1199 55.5345 35.8502 55.7977 35.8897 55.8422C36.7079 56.6933 37.2558 56.1632 36.1758 55.5652ZM52.3713 32.8794C51.9011 32.3112 51.9584 32.093 52.7633 32.5183C52.6212 32.6293 52.511 32.7655 52.3713 32.8794Z" fill="#3A3A3A"/>
<path d="M70.5362 50.3878C70.281 49.9383 70.4077 49.2894 70.6309 48.7798C70.6999 48.6202 71.1039 48.6442 71.1693 48.5318C71.2967 48.3119 71.0792 48.1505 71.2362 47.9292C71.2902 47.8556 71.9253 47.8563 71.9676 47.781C72.1948 47.3688 71.9897 47.0333 72.073 46.6347C72.4849 44.6715 72.4803 42.7947 72.5188 40.8565C72.5309 40.2175 72.999 39.382 72.6673 38.7665C72.6281 38.6947 72.0857 38.8108 72.0387 38.8022C71.3178 38.6662 72.4342 38.5979 72.5621 38.4316C73.067 37.7719 73.0334 37.1153 72.749 36.5801C72.6264 36.3526 71.5686 36.7335 72.1486 36.4134C72.1877 36.3913 72.7777 36.3767 72.8313 36.303C72.9517 36.1361 72.811 35.8671 72.8422 35.7458C72.9053 35.5116 72.8947 35.4756 72.8741 35.2644C72.851 34.9751 73.0961 34.5957 72.9243 34.3043C72.8859 34.2423 72.3004 34.4068 72.1853 34.3149C72.0703 34.2229 72.0849 33.9383 72.2134 33.8264C72.342 33.7144 72.8162 33.6936 72.9216 33.6631C73.8113 33.4092 72.513 33.2503 72.4765 33.2129C71.8493 32.527 72.4815 31.7873 72.3878 31.0794C72.3151 30.5422 72.0043 29.9979 71.9705 29.4821C71.9326 28.8674 72.1891 28.309 72.0568 27.7241C72.0436 27.6623 71.3514 27.8263 71.3338 27.751C71.1472 26.9507 71.1195 26.1357 71.4886 25.267C71.5263 25.1798 72.1558 25.2044 72.2302 25.1125C72.6724 24.5518 73.7871 23.6107 71.0669 23.6637C71.1282 23.3147 71.1837 22.8934 71.6855 22.5233C72.0084 22.2848 72.7039 22.3859 72.3867 22.1852C72.316 22.1399 71.7373 22.2857 71.6757 22.2119C71.4167 21.9012 71.5599 21.5067 71.2129 21.2111C71.1409 21.1512 70.6167 21.2379 70.5194 21.2309C69.7304 21.1681 70.965 20.7338 71.0496 20.663C71.6795 20.1257 71.3664 19.8334 71.3292 19.4137C71.3208 19.3163 70.6283 19.5224 70.5948 19.4319C70.4309 18.9615 70.4268 18.4527 70.6794 17.9385C70.7373 17.8239 71.3524 17.8428 71.4109 17.7841C71.6614 17.526 70.517 17.6241 70.7354 17.3794C70.7799 17.328 71.299 17.2865 71.3546 17.271C72.2273 17.0278 70.9528 17.0796 70.9208 17.0503C70.4867 16.6827 71.7677 16.246 71.5293 15.8675C71.4994 15.8224 70.8608 16.0155 70.8168 15.8835C70.5199 15.0047 70.5757 14.0275 70.9821 13.067C71.0445 12.9178 71.5476 12.9534 71.6069 12.9369C72.5328 12.6723 71.2556 12.7439 71.2021 12.7048C70.8128 12.3921 71.8308 11.9211 70.2922 11.8736C70.3506 11.5917 70.3654 11.3156 70.357 11.0427L72.7273 13.2611C71.4864 13.0606 70.219 13.3585 69.0487 12.1645C69.0305 12.1476 69.1042 11.5226 69.0677 11.4915C68.6287 11.1105 68.6562 12.0907 68.2765 13.2637C68.181 13.5583 68.0373 12.1044 68.0232 11.9976C67.9722 11.6041 68.1087 10.6759 68.0882 10.5991C67.9164 9.99478 67.7573 13.0825 67.4755 13.0659C67.467 13.0602 67.5396 12.4946 67.5195 12.4366C67.4571 12.2547 67.3702 12.4759 67.3105 12.2759C67.1743 11.8132 67.2096 10.3102 66.9037 11.1671C66.8648 11.2783 66.8038 13.0317 66.5575 12.9332C66.4594 12.8925 66.0137 12.8947 65.8964 12.7735C65.7793 12.6525 65.8999 12.0938 65.8926 12.0688C65.6045 11.302 65.7508 11.0008 65.6522 9.88611C65.5533 8.77557 65.4356 11.4022 65.3489 11.6908C65.2622 11.9785 65.0553 11.3478 65.0083 11.1301C64.9615 10.9123 65.0591 10.5586 65.0131 10.4341C64.7072 9.6206 64.7755 11.7267 64.6324 12.1358C64.2945 13.1045 64.2013 11.1453 63.9605 10.9388C63.8953 10.883 63.9234 11.3297 63.8599 11.3673C63.6088 11.5105 63.5017 10.8943 63.1925 11.4338C63.1419 11.5217 62.8469 12.6776 62.757 11.8101C62.7444 11.6851 62.8325 11.2038 62.7365 11.0888C62.5932 10.9162 62.3231 10.7929 62.1479 10.9446C62.0185 11.0569 62.1082 11.8646 61.9704 11.6068C61.9091 11.4917 62.0647 11.0322 61.9472 10.855C61.8304 10.6778 61.5034 10.678 61.3784 10.6864C61.2537 10.6951 61.2835 11.3054 61.2709 11.3456C61.1958 11.5757 60.94 11.8531 60.9191 11.851C59.856 11.8588 58.9439 10.7761 57.8922 11.0497C57.8098 11.0703 57.8236 11.7128 57.8106 11.7225C57.517 11.973 57.8416 10.2874 57.6838 9.70658C57.6306 11.0052 57.5312 10.7633 57.3272 10.8933C57.2289 10.957 57.2486 11.4624 57.2369 11.5132C57.0498 12.2672 57.0144 11.276 57.002 11.0729C56.9561 10.3258 56.8008 11.1954 56.769 10.696C56.737 10.2002 56.9271 9.48014 56.7395 9.47777C56.658 9.93873 56.7209 11.1606 56.5666 11.3484C55.9843 12.0586 55.0437 11.0441 54.6191 10.9182C54.1954 10.7925 54.0512 10.8695 53.8111 10.686C53.3776 10.3544 53.4871 11.2649 53.1803 11.6593C52.8727 12.0536 53.1484 9.84745 53.1376 9.36882C53.1277 8.89044 53.0536 9.3776 53.0205 9.11289C52.9876 8.84825 53.1146 8.53122 53.0047 8.42575C52.8949 8.32038 52.5247 9.14715 52.4524 9.6424C52.2994 10.6916 52.3731 11.8075 52.0904 11.3993C52.0742 11.3751 52.168 10.7964 52.104 10.7333C51.5951 10.2514 51.039 10.1887 50.5275 9.75858C50.4572 9.69853 50.5637 9.05481 50.5233 9.01254C50.1022 8.57018 50.1936 9.67253 49.8726 10.8707C50.0287 9.25924 49.9551 8.26279 49.6164 8.23201C49.4129 8.21295 49.4038 8.92044 49.2408 9.40927C49.1918 9.55664 49.0778 9.06333 49.0309 9.39338C48.8768 10.4722 48.9368 11.6945 48.6173 11.1893C48.6034 11.1654 48.6894 10.5749 48.6386 10.5356C48.3105 10.2789 48.1985 11.4105 47.8194 11.5246C47.5223 11.6142 47.049 10.8903 46.7254 10.7571C46.846 8.94201 46.5076 9.3382 46.3026 10.5821C46.0912 10.5174 45.8549 10.5736 45.6583 10.3876C45.5906 10.3242 45.6704 9.80146 45.665 9.7441C45.5827 8.84448 45.4132 10.0565 45.3639 10.1013C44.8328 10.534 44.4815 9.5854 43.9459 10.4575C43.9268 10.4889 43.8204 11.7483 43.7499 10.8195C43.7456 10.7555 43.9398 10.1916 43.7171 10.1331C43.4945 10.0745 43.1119 9.37187 42.7623 9.93667C42.6778 10.0726 42.4221 11.0844 42.3185 10.2749C42.3048 10.165 42.3498 9.8047 42.3329 9.60158C42.2774 8.95425 42.1454 10.2257 42.1009 9.13574C42.0563 8.04582 41.8734 7.2202 41.511 7.94758C41.4996 7.96868 41.3617 8.97433 41.2634 8.95214C41.1066 8.91585 40.8949 8.6913 40.729 8.68753C40.6496 8.68608 40.661 9.31662 40.6465 9.32724C40.0919 9.64545 39.7479 9.06243 39.1925 8.78399C39.0907 8.7317 38.7366 9.5684 38.5764 8.87936C38.4004 8.12503 38.8217 5.05935 38.2647 5.76115C38.0402 6.04175 37.5347 9.93292 37.291 7.88525C36.5411 8.34193 35.9416 7.26422 35.1763 7.93543C35.1419 7.96514 34.9712 9.04928 34.896 9.02967C34.7844 8.99845 34.7543 8.48486 34.6756 8.44623C34.3469 8.27152 34.01 8.68823 33.6881 8.59998C33.5658 8.56759 33.6421 8.04327 33.4962 8.00456C33.3504 7.96636 33.2086 8.6542 33.0295 8.3065C32.8944 8.04156 32.8322 6.61358 32.642 6.43569C32.5468 7.83442 32.4109 7.79698 32.1429 8.15102C32.0914 8.21974 32.1114 8.7099 32.0854 8.76752C31.9791 9.01286 31.9206 8.60399 31.8174 8.87184C31.7924 8.93615 31.7615 9.41393 31.7394 9.49348C31.5499 10.1881 31.3775 9.09823 31.3481 8.9085C31.2348 8.18788 31.1222 8.80476 31.0187 8.5173C30.9155 8.22988 31.118 7.89135 30.9875 7.71269C30.717 7.34312 30.3364 7.39677 30.0407 7.35622C29.9226 7.34299 29.9635 7.98589 29.9457 7.99881C29.6905 8.14525 29.4851 7.45125 29.2697 8.71328C29.3054 5.41751 29.102 9.02267 28.7928 8.34311C28.7685 8.28819 28.8307 6.73247 28.9509 6.51103C29.0711 6.28981 29.2013 6.78547 29.3706 6.43915C29.4106 6.3579 29.7011 4.91463 29.7338 4.82815C29.9901 4.15231 29.875 6.47572 29.8783 6.60394C29.92 7.98798 30.2618 6.43494 30.3327 6.33059C30.6574 5.85242 30.8863 6.19451 31.154 5.85546C31.3289 5.63644 31.4398 4.11673 31.563 4.17118C31.9725 4.35126 31.986 6.48178 32.4961 4.66715C32.6054 4.28015 32.6253 2.61282 32.8469 3.93874C32.8608 4.02232 33.0113 5.23203 33.1888 4.48392C33.2111 4.38959 33.2409 3.90518 33.265 3.86584C33.426 3.61167 33.4982 4.0036 33.6672 3.82863C33.8362 3.65367 34.0427 3.38999 34.2121 3.56553C34.3143 3.67055 34.3968 4.58173 34.4348 4.80592C34.5413 5.45158 34.7636 4.41782 34.8061 5.19425C34.849 5.97461 34.5966 7.13983 34.8051 7.65535C34.8927 6.39744 34.994 5.10703 35.0875 3.84231C35.6103 3.91952 36.102 4.35883 36.6328 4.33624C36.6987 4.33218 36.6742 3.65144 36.7459 3.62964C37.0483 3.54067 37.2764 4.03913 37.5951 3.86626C37.8419 3.72986 38.147 3.02982 38.4065 2.86489C38.468 4.31442 38.8669 3.84861 39.1262 3.99695C39.2171 4.04829 39.1867 4.4325 39.2455 4.56215C39.468 5.04194 39.4298 3.76201 39.5112 3.56606C39.8605 2.72988 39.7055 5.61181 40.0587 5.56247C40.0773 5.56083 40.3992 4.03961 40.4363 3.94594C40.6729 3.33485 40.4356 4.48239 40.5521 4.60357C40.765 4.82502 40.8989 5.2015 41.192 4.76838C41.2776 4.64001 41.5228 3.69464 41.6265 4.44424C41.6402 4.54241 41.5975 5.04921 41.6115 5.07993C41.8681 5.59333 41.9754 3.99921 42.1735 3.46944C42.3717 2.93979 42.5566 4.05645 42.5884 4.37694C42.6722 5.20613 42.4629 4.72121 42.4505 4.80129C42.3046 5.75438 42.5 5.60095 42.6364 5.69079C42.559 7.2556 42.7627 7.17413 42.7782 5.77764C42.7795 5.62508 42.6603 5.764 42.6364 5.69079C42.8566 4.16453 43.0863 3.98168 43.2366 5.43024C43.307 6.10914 43.1517 6.88587 43.511 6.62066C43.6741 6.50099 43.6816 5.42068 43.8367 5.13573C44.191 4.48561 44.5341 5.51527 44.8661 5.3772C44.9866 5.32707 44.9096 4.73064 44.9932 4.67607C45.2152 4.52942 45.3745 4.98329 45.6016 4.77011C45.6222 4.75005 45.6137 4.13022 45.6804 4.1265C46.1868 4.08628 46.5992 4.50875 47.1226 4.55251C47.3755 4.57337 47.8495 4.26148 48.1075 4.3463C48.5549 4.48967 49.0581 5.42172 49.4601 5.22811C49.7221 5.10448 49.7052 4.48399 49.84 4.07039C50.1005 3.2686 50.3798 4.75147 50.4156 4.98062C50.4167 4.98819 50.1896 5.12 50.2861 5.44401C50.3124 6.10819 50.413 4.98332 50.4156 4.98062C50.4392 5.12868 50.8659 5.296 50.9598 5.18346C51.0108 5.12195 51.0211 4.53572 51.047 4.51469C51.662 4.028 52.2545 3.91593 52.8279 4.22622C52.8376 4.23868 52.781 4.89159 52.8042 4.91272C53.1279 5.22486 53.3969 4.43865 53.7086 3.98138C54.0202 3.52432 54.2338 3.69731 54.3304 4.83029C54.552 4.70227 54.8261 5.21765 54.9829 5.52976C55.1396 5.84188 55.2438 4.57056 55.2608 4.54637C55.7932 3.77115 56.0262 4.51714 56.5191 4.66182C56.7533 4.73279 57.2363 4.57767 57.5024 4.4546C57.7128 4.3552 57.8167 4.66116 58.0161 4.48216C58.043 4.45828 58.0529 3.88994 58.062 3.8686C58.3136 3.20363 58.1264 4.58281 58.1541 4.83296C58.2543 5.74259 58.3211 6.22789 58.6154 5.82135C58.6833 5.72827 58.9881 3.74464 59.108 3.63503C59.2637 3.49617 59.1637 4.20776 59.3279 4.04415C59.3419 4.03081 59.3668 3.5895 59.4602 3.61487C59.8942 3.72685 60.357 4.01352 60.8162 3.99788C60.8789 3.99744 60.8427 3.29273 60.9339 3.28057C61.3619 3.22409 61.8236 3.27899 62.2149 3.63227C62.3111 3.72143 62.2169 4.20737 62.2298 4.35422C62.3098 5.24283 62.5814 3.97597 62.6146 3.95358C63.4071 3.38622 63.9117 4.57969 64.7148 4.07678C64.7586 4.04705 65.1665 2.69625 65.2365 3.88103C65.2415 3.95987 65.3083 5.17172 65.4855 4.35711C65.4965 4.30614 65.4467 3.6813 65.5973 3.75409C65.7479 3.82675 66.0226 3.42875 66.1925 4.12249C66.2463 4.34105 66.3302 5.55099 66.5907 4.607C66.608 4.54104 67.0531 2.39753 67.0702 3.89674C67.0728 4.14351 66.9552 5.72152 67.2454 4.92683C67.3009 4.77273 67.2399 4.41529 67.3742 4.20289C67.5801 3.87545 67.7984 4.31373 68.0694 3.62446C68.1168 3.5024 68.3525 2.44109 68.4367 3.26309C68.4499 3.39183 68.3767 3.91653 68.4444 3.98C68.7662 4.28427 69.1438 3.95387 69.4657 4.34022C69.5798 4.47603 69.464 5.32442 69.577 5.56079C69.69 5.79708 69.9327 6.03277 70.0903 5.65163C70.2479 5.27032 70.1874 3.90284 70.3938 3.80664C71.291 3.38886 72.1006 4.23952 72.9597 4.41031C73.0871 4.43576 73.011 3.94303 73.2009 3.94566C73.2361 3.94604 73.2727 3.94543 73.3104 3.94409L79.8108 5.50996L79.6149 9.84437C79.7755 10.5397 80.2785 11.6023 79.3778 12.3002C78.6183 12.8889 77.9139 12.363 77.6271 12.7748C77.4905 12.9733 79.0847 12.9626 79.1397 12.9992C79.6958 13.3536 79.0384 13.7351 79.3005 14.085C79.3549 14.1572 79.981 13.9985 80.0202 14.0608C80.1599 14.2732 79.9068 14.5481 79.9868 14.7579C80.0241 14.8519 80.5075 14.7711 80.4816 14.8654C80.4252 15.0901 80.2455 15.3057 79.8172 15.5732C79.7782 15.5976 79.1573 15.5476 79.1553 15.7088C79.1538 15.9694 78.7458 16.3455 79.2478 16.5801C79.3986 16.6495 80.5093 16.5092 79.7669 16.7964C79.6118 16.8565 78.2722 16.9788 79.4524 17.0486C79.6486 17.0607 81.2499 17.2273 80.2718 17.5375C80.0143 17.6192 78.9392 17.8819 79.1242 17.9649C79.1534 17.9756 79.7424 17.8413 79.8118 17.9209C80.0462 18.2027 80.0242 18.5328 80.2518 18.8241C80.3138 18.9017 80.9146 18.6964 80.9873 18.8146C81.188 19.1397 81.0866 19.5911 80.9372 19.9537C80.8809 20.0875 80.3586 20.0677 80.3041 20.0839C79.4182 20.3467 80.6506 20.2747 80.7281 20.3139C81.1934 20.5593 80.6494 20.8625 80.837 21.12C80.8873 21.1912 81.4626 21.0616 81.5165 21.0701C82.0443 21.1623 80.9833 21.1801 80.8809 21.295C80.5907 21.6172 80.678 21.9232 80.789 22.1967C80.8307 22.2971 81.4908 22.0928 81.5203 22.1838C81.7082 22.7212 81.7179 23.3038 81.4154 23.8911C81.3573 24.0018 80.8291 24.0053 80.713 24.0418C79.9011 24.2951 81.062 24.3621 81.1763 24.3973C81.6982 24.5571 81.2496 24.7035 81.361 24.8898C81.9132 25.799 81.7628 27.0294 81.6925 27.9642C81.6039 29.182 81.2285 30.1666 81.5034 31.2814C81.5202 31.3523 82.2025 31.1903 82.2259 31.2503C82.4962 32.029 82.3279 32.8519 82.6315 33.6279C82.6552 33.6917 83.2986 33.512 83.3587 33.6116C83.4865 33.8154 83.4863 34.0944 83.3053 34.3405C83.2183 34.4604 82.637 34.39 82.5609 34.5092C82.3824 34.7869 82.3704 35.0613 82.5088 35.3049C82.5692 35.4084 83.2184 35.1564 83.2446 35.2977C83.4366 36.2582 83.6753 37.195 82.9336 38.2868C82.8826 38.3616 81.5272 38.597 81.8071 38.7059C82.1868 38.6677 82.6317 38.6095 83.0366 38.5618C83.437 39.9444 83.1452 41.4019 83.2553 42.8261C83.2601 42.8862 83.9689 42.6896 83.9819 42.8053C84.0577 43.4751 84.3418 44.0982 83.7125 44.8748C83.6511 44.9518 82.3761 45.0814 82.5941 45.2564C82.6337 45.2872 82.8421 45.5663 83.128 45.6084C83.171 45.6136 83.7569 45.4819 83.7867 45.5767C83.9498 46.1289 83.8909 46.7372 83.6014 47.3469C83.5535 47.4455 82.9095 47.4305 82.8699 47.5014C82.5941 48.0037 83.1388 48.4407 82.6221 48.9535C82.2741 49.297 81.1684 49.3296 80.114 49.6247C79.9653 49.6664 79.9648 49.8513 79.3408 49.9416C77.7718 50.1692 76.039 50.304 74.368 50.557C74.0081 50.6114 74.4283 50.8045 73.5374 50.7733C73.4778 50.7707 73.1654 50.6317 72.8639 50.6266C72.6554 50.6228 72.0267 50.7596 71.7568 50.7318C71.4872 50.7039 72.0114 50.567 71.6905 50.5045C71.3658 50.4425 70.6483 50.5811 70.5362 50.3878ZM55.6893 6.92519C55.8137 7.54664 55.9778 5.30931 55.7684 5.83395C55.7581 5.86196 55.6828 6.89468 55.6893 6.92519ZM35.9933 6.04737C36.1441 7.04815 36.3804 5.60526 36.2782 4.83324C36.176 4.06204 35.9473 5.74397 35.9933 6.04737ZM33.7438 6.63033C33.9435 7.42446 34.1814 4.25216 33.8751 4.87729C33.8574 4.91259 33.7321 6.58421 33.7438 6.63033ZM79.7144 48.941C79.6851 48.947 79.6733 49.0814 79.703 49.0807C80.4185 49.0588 80.4418 48.7902 79.7144 48.941ZM31.5072 7.27831C31.5579 7.71261 31.8123 7.23084 31.7493 6.69078C31.6986 6.25632 31.4441 6.73804 31.5072 7.27831ZM64.0221 9.84554C64.0225 9.87906 64.1149 9.915 64.1248 9.7263C64.1564 9.11851 64.0145 9.28172 64.0221 9.84554ZM27.7871 7.08214C28.3289 7.23603 28.4978 9.87937 27.9182 9.546C27.8132 9.48568 28.204 8.72432 28.0809 8.47926C27.8556 8.03273 27.585 9.66885 27.3828 8.77038C27.3463 8.60597 27.7566 7.06754 27.7883 7.07855C27.7879 7.07975 27.7875 7.08095 27.7871 7.08214ZM55.6146 9.62018C55.616 9.64999 55.7448 9.68622 55.7497 9.65707C55.8649 8.95073 55.6056 8.87731 55.6146 9.62018ZM69.4363 11.5742C69.4395 11.6377 69.7387 11.7157 69.7522 11.6582C69.9829 10.5057 69.3783 10.3447 69.4363 11.5742ZM46.7232 10.7084C46.5361 11.4145 46.3605 11.488 46.3031 10.583C46.4417 10.6395 46.5837 10.6555 46.7232 10.7084Z" fill="#3A3A3A"/>
</svg>
