<svg width="224" height="121" viewBox="0 0 224 121" fill="none" xmlns="http://www.w3.org/2000/svg">
<path d="M207.157 80.6509C175.732 103.124 132.385 85.738 71.8756 86.9447L41.1196 82.9332C-18.9192 70.3985 5.50635 45.3198 27.647 37.562C214.716 22.3496 242.218 48.2922 207.157 80.6509Z" fill="#045138"/>
<path d="M31.3975 85.3976C32.3286 86.1839 28.8677 84.8999 31.0225 86.2823C30.5134 86.2004 30.0067 86.1181 29.5094 86.0336C29.4633 85.7235 29.4186 85.4144 29.36 85.1004C30.0504 85.2074 30.7059 85.2994 31.3979 85.3962C31.3978 85.3966 31.3976 85.3971 31.3975 85.3976ZM33.2087 82.1656C32.4 82.8018 30.4487 82.5033 32.3081 83.7786C32.5442 83.5508 32.7841 83.3238 33.0198 83.0952C33.6885 83.4926 34.3795 83.8898 35.0841 84.2831C35.3639 84.241 35.6361 84.1963 35.9136 84.1536C36.1224 84.7037 36.3336 85.2547 36.553 85.8065C36.2766 85.6695 35.999 85.5301 35.7274 85.3925C34.5552 85.5209 33.3349 85.3346 31.7571 84.9949C31.8664 85.143 31.9773 85.2901 32.0884 85.4382C31.3276 85.0372 30.588 84.6337 29.8718 84.2297C30.5912 84.2315 31.4077 84.2309 32.0946 84.226C31.2695 83.2222 29.3965 83.1421 28.3641 83.0002C27.0102 82.8232 27.4087 82.5627 26.4321 82.4182C26.2775 82.3945 26.1745 82.6607 25.8827 82.5728C24.354 82.1229 21.4678 80.924 23.3915 80.9036C25.9262 81.8775 28.0371 81.9653 30.5094 82.8597C30.1029 81.9469 31.3763 82.0427 33.2087 82.1656ZM2.65285 51.2947C2.49329 52.2425 1.50967 53.7901 0.832004 54.9797C0.831494 54.9812 0.830985 54.9826 0.830478 54.984C0.681399 55.2331 -0.00538456 55.7268 0.328728 54.8058C0.923758 53.2875 1.96158 53.0381 1.86728 52.0842C2.12772 51.8137 2.38296 51.5489 2.65285 51.2947ZM4.41652 48.7106C5.12135 48.151 5.30494 48.8301 4.53 49.5733C4.53037 49.5736 4.53074 49.5739 4.53111 49.5742C4.21403 49.8932 4.34894 48.8989 3.79358 50.4883C3.30019 50.5568 2.83528 50.6545 2.35069 50.7575C2.56947 50.3997 2.77394 50.0749 3.02434 49.7099C3.35608 50.2883 3.71416 49.2785 4.41652 48.7106ZM22.0505 80.7748C21.7518 81.2424 22.2176 81.4139 22.928 82.0633C22.1313 81.7638 21.4259 81.4854 20.6103 81.1539C21.1288 81.0449 21.5771 80.907 22.0505 80.7748ZM40.9327 86.0179C40.9339 86.0181 40.9351 86.0182 40.9363 86.0184C41.2089 85.9677 41.4823 85.9168 41.7513 85.8668C41.8825 86.0792 42.012 86.2905 42.1432 86.5029C43.0906 86.4432 44.0428 86.3841 44.9903 86.3232C44.8016 86.8951 43.1557 86.5834 42.1887 86.8742C41.5016 86.6921 41.0065 86.4909 40.6845 86.2692L40.4321 86.2265C40.1258 85.9908 39.9863 85.7503 39.9923 85.5029C40.1632 85.6214 40.3346 85.7405 40.5087 85.8596L40.733 85.8976C40.7993 85.9377 40.8658 85.9779 40.9327 86.0179ZM169.716 34.5088C170.052 34.3801 170.383 34.2511 170.717 34.1232C170.305 34.0023 169.891 33.9001 169.471 33.7683C168.273 34.3593 168.206 33.7178 166.829 33.6272C162.504 33.3619 163.584 34.5681 159.633 32.6339C162.916 32.9629 161.709 32.1067 163.706 31.6845C164.068 32.1634 162.067 33.0048 163.347 33.3231C165.655 33.0473 167.604 32.7876 170.268 32.768C170.203 32.6833 170.138 32.5983 170.072 32.5135C169.665 32.5187 169.259 32.5251 168.848 32.5315C169.308 32.3713 169.756 32.2125 170.219 32.0523C169.612 32.4585 171.057 32.3518 170.807 32.8672C170.697 33.0964 170.039 33.3591 169.644 33.5479C170.585 33.7736 171.536 33.9949 172.455 34.225C171.949 34.3581 171.44 34.4924 170.932 34.6279C170.53 34.589 170.13 34.5494 169.723 34.5117C169.72 34.5108 169.718 34.5098 169.716 34.5088ZM95.5898 90.5589C96.7934 90.0585 98.8963 90.0823 99.9953 90.7719C98.5029 90.6918 97.069 90.6231 95.5898 90.5589ZM39.9865 85.0791C40.1032 85.2009 40.2164 85.3208 40.3343 85.4426C39.6914 85.4871 39.0519 85.528 38.4222 85.5691C38.3677 85.2762 38.3115 84.9827 38.255 84.6904C38.8231 84.8205 39.4027 84.9514 39.9865 85.0791ZM4.44988 69.5833C4.78236 69.9519 4.83478 70.0273 5.19452 70.4755C5.19423 70.4749 5.19395 70.4742 5.19366 70.4736C5.31288 70.6582 6.67457 72.1825 6.38224 72.1821C5.59006 71.4683 4.90725 70.7732 4.1814 69.9121C4.26676 69.7977 4.36791 69.7038 4.44988 69.5833ZM13.3287 76.633C13.3296 76.6341 13.3306 76.6351 13.3315 76.6361C13.6198 76.8302 13.8825 77.0443 14.2032 77.2245C12.8819 76.9041 12.9964 76.2823 11.9405 75.8611C10.8977 75.4387 10.0094 75.2553 9.69132 74.0394C10.0556 74.1445 10.4771 74.2178 10.8709 74.3043C12.1391 75.5038 12.5904 75.395 13.8959 75.7517C13.7067 76.0463 13.5188 76.3389 13.3287 76.633ZM150.237 31.3624C149.902 31.7499 149.611 31.339 149.577 31.3325C149.577 31.3321 149.578 31.3316 149.579 31.3312C147.021 31.5849 149.929 31.1215 147.518 30.9488C147.884 30.8638 148.242 30.7734 148.602 30.6878C149.15 30.9083 149.665 31.1541 150.237 31.3624ZM65.3368 32.4995C65.3057 32.3835 65.27 32.2675 65.2389 32.1515C66.7372 32.0928 67.09 31.6093 68.3456 31.9619C67.3482 32.1408 66.3454 32.3203 65.3369 32.5009C65.3369 32.5005 65.3368 32.5 65.3368 32.4995ZM1.70763 61.3739C2.14379 63.2593 2.66801 64.4909 3.18061 66.2565C3.18084 66.2579 3.18106 66.2594 3.18129 66.2608C3.20912 66.3622 2.76334 66.0392 2.7693 66.1848C2.96952 66.4957 3.20594 66.8026 3.44019 67.1029C3.2985 67.2491 3.15683 67.3948 3.01864 67.5435C2.49073 66.5904 2.03899 65.5447 1.72953 64.4767C1.67399 64.6686 1.62512 64.8674 1.57846 65.0663C1.18067 64.2083 0.845743 63.2162 0.638125 62.2543C1.01038 62.5454 1.39214 62.8109 1.78095 63.0486C1.71927 62.4889 1.69354 61.9362 1.70763 61.3739ZM89.9603 32.6098C89.7024 32.4911 90.1632 32.2585 89.7658 32.1628C89.3686 32.0684 88.6497 32.3355 88.8064 31.967C89.3365 31.898 89.8911 31.8213 90.4274 31.7505C88.672 31.1611 86.9382 31.8223 86.879 31.0174C88.6004 31.158 89.8643 31.0129 91.6145 30.7268C91.5677 31.3688 89.8778 31.9844 90.9763 32.5459C90.627 32.5668 90.2765 32.5919 89.9638 32.6083C89.9626 32.6088 89.9614 32.6093 89.9603 32.6098ZM64.9907 80.3027C65.9898 80.4822 68.327 80.5235 69.5491 81.0591C69.8497 81.191 70.7368 82.5077 70.7112 82.6626C70.6123 83.1829 69.3315 83.0884 70.6487 83.6076C70.1902 83.5514 69.743 83.5131 69.287 83.4632C69.3226 83.8261 69.3579 84.188 69.3902 84.5492C69.9507 84.5684 70.5119 84.5874 71.0726 84.6055C71.0846 84.7256 71.0964 84.8461 71.1084 84.9662C69.1178 84.709 70.234 85.3124 69.1468 85.5971C70.0699 85.9331 71.0002 86.269 71.92 86.6046C71.3766 86.5074 70.734 86.404 70.2557 86.3105C70.1133 86.8993 71.2824 86.907 71.4652 87.0434C72.4941 87.8138 66.8812 86.7606 66.3051 87.5694C67.1958 87.7838 68.1312 88.0016 69.0424 88.2175C68.7635 88.2902 68.4812 88.3624 68.2023 88.4351C66.1851 87.5623 63.8631 87.0435 61.4702 86.3516C61.2463 86.3476 61.022 86.3441 60.8017 86.3393C60.8311 86.6174 60.8571 86.894 60.8864 87.1721C60.5494 87.1605 60.2083 87.1481 59.8713 87.1365C60.9685 86.3763 59.6079 86.2112 58.0382 85.4553C58.9516 85.257 60.0035 85.5867 60.0051 84.9954C56.9514 85.0522 53.5261 83.9623 50.5464 84.0874C49.8068 84.1179 49.7112 84.8684 48.0196 84.5774C48.0881 84.5025 48.1174 84.3549 48.1689 84.2514C45.41 84.2289 43.6532 84.2119 41.0317 83.6073L40.9807 83.5986C40.7573 83.5299 40.5293 83.4564 40.2958 83.3778C40.4194 83.6821 40.5414 83.9869 40.668 84.2913C40.7239 84.292 40.7797 84.2926 40.8357 84.2932L40.9399 84.3108C41.5531 84.2648 42.167 84.2174 42.7768 84.1713C43.1602 84.6741 42.4822 84.7856 44.4186 85.0333C46.0052 85.2367 45.0866 84.9169 45.5352 84.8412C46.1427 84.7373 46.6091 85.1585 47.2636 85.0391C47.7694 84.9481 47.2919 84.5122 48.5466 84.7705C47.9751 85.18 47.3912 85.6037 46.8155 86.0186C46.5204 85.8711 46.2279 85.7222 45.933 85.5735C46.262 85.4871 46.5856 85.4016 46.9146 85.3151C45.7845 85.4001 44.7167 85.48 43.5481 85.5684C44.008 84.9287 42.7984 85.0333 42.1493 85.0313C41.138 85.0286 42.0519 84.6663 41.3896 84.6602C41.2297 84.659 41.0635 84.6835 40.8869 84.7177L40.7518 84.6949C40.1635 84.7542 39.462 84.8984 38.579 84.6151C39.2822 84.4536 38.4759 83.9926 38.7051 83.7511C38.932 83.51 40.2013 83.7217 39.0628 83.1548C36.7237 82.875 38.9654 84.4904 37.3837 84.3137C35.4945 84.0964 35.5146 82.2713 36.1254 82.0289C36.6054 81.8378 38.0479 82.2339 38.5527 82.0396C36.0337 80.9151 35.8477 81.9453 35.2995 82.0295C33.4221 82.3423 35.0333 80.6692 32.9092 80.873C33.0416 80.5174 33.1573 80.1965 33.2853 79.8556C32.9382 79.8355 32.6969 79.8662 32.2906 79.813C33.264 80.8357 32.3155 80.5506 31.8301 80.419C31.0668 80.2125 32.151 80.8813 31.9257 80.9155C31.3087 81.006 30.4872 80.6581 30.9241 81.117C30.7376 80.9085 30.4937 80.6827 30.2766 80.465C29.2743 80.3788 26.6537 81.2302 28.822 81.5487C28.4594 82.0528 27.8608 81.5805 27.3736 81.3363C26.8863 81.0921 26.7847 81.4509 26.3597 81.2438C24.6411 80.3982 26.0496 80.1842 26.4635 79.7924C23.955 79.3217 26.1821 80.3373 22.7109 79.3536C22.2434 79.6177 23.6562 80.5925 22.2757 80.3418C22.3044 79.5948 21.4596 78.7606 19.6998 77.7796C19.4598 77.8562 19.22 77.9336 18.9807 78.0087C18.2619 76.9834 19.0373 76.6028 16.8327 76.4726C18.4699 75.5868 17.3215 76.1318 16.0452 74.8128C15.7916 74.5471 16.6448 74.6322 16.285 74.2745C16.141 74.1225 15.505 74.0587 15.0982 73.6317C14.88 73.4146 14.1184 72.3311 13.246 72.1054C13.4385 73.0739 11.6217 72.6724 12.5916 73.9733C10.2584 72.3595 8.72553 71.5738 11.6634 72.4537C11.2132 71.89 10.8462 71.3638 10.4108 70.7582C9.92937 70.6068 9.4574 70.4455 8.99704 70.2773C9.33511 69.7678 9.47608 69.7495 8.09805 68.5511C8.74213 69.0033 9.43435 69.4311 10.1012 69.7929C10.1971 69.7166 10.3581 69.6867 10.4115 69.5802C9.54322 69.2288 7.59594 67.4352 7.09954 66.9841C6.57694 66.5821 7.31976 67.5769 7.09169 67.5327C5.10697 67.0836 5.92775 66.5913 5.14684 65.7373C4.68996 65.213 5.40866 66.6912 5.17747 66.4067C4.27641 65.3316 4.60201 64.4227 4.24938 63.3569C4.01066 63.8591 3.80281 64.4015 3.63654 64.972C3.09488 63.7343 2.72546 62.2659 2.52171 60.9905C2.44345 60.492 2.18308 60.8857 2.15916 60.8051C2.0048 60.3995 1.95106 58.6634 2.00328 58.481C2.21754 57.1288 2.62312 57.1682 3.02245 55.9713C2.89537 56.448 2.79208 56.9178 2.71429 57.4021C3.28541 57.7611 3.86846 58.0937 4.46434 58.3896C4.69367 57.3468 5.07486 56.3368 5.57058 55.3674C5.04603 56.0017 4.57141 56.6779 4.1608 57.4284C3.97844 56.0555 4.03129 54.5896 4.2833 53.098C4.91509 52.6232 5.56548 52.1972 6.2305 51.8075C7.264 50.2678 6.11012 49.7199 7.53352 49.7685C7.82545 49.288 8.14751 48.7998 8.47296 48.3323C8.53178 48.5016 8.59386 48.6684 8.65368 48.8375C9.04134 48.2921 9.4534 47.7531 9.88984 47.216C8.97508 47.2862 8.05058 47.3533 7.1406 47.5072C8.02636 46.418 8.39838 46.7604 8.62652 46.7024C9.24367 46.5496 9.74719 45.5259 10.2729 45.4697C10.4423 45.4527 9.65576 46.562 10.2405 46.5357C10.3583 46.5178 12.5327 46.4219 13.1975 45.54C13.0337 45.3586 12.7849 45.1728 12.5877 44.9902C13.7055 43.9518 15.0482 44.5928 15.0918 44.9915C15.5797 44.3424 16.5196 43.7096 16.4463 43.2968C16.7773 43.0752 17.1096 42.8587 17.4477 42.6436C17.5877 43.6638 18.8988 42.6826 18.5975 41.9225C17.9914 42.2443 17.3916 42.5762 16.7956 42.9232C16.7205 41.8175 14.576 42.3284 18.8628 40.9265C19.8473 40.9735 17.5269 41.5953 18.3148 41.5998C19.4525 41.2114 20.3456 40.5251 21.5098 40.3549C22.964 40.1651 21.5838 41.2562 24.283 39.4189C17.5427 41.0664 23.9985 38.2228 27.3634 36.7529L27.5775 36.7075C27.7623 36.6748 27.9377 36.641 28.1016 36.6061C29.1623 37.9507 32.1025 38.165 35.9733 37.4426C35.5367 37.0781 34.3207 37.377 33.5971 37.3026C32.8735 37.2281 33.6276 36.9329 32.7233 36.8179C31.8193 36.7028 29.8961 36.6031 28.9595 36.3976C29.7194 36.1102 33.4625 35.2815 31.0092 36.1156C32.9095 36.3594 33.8155 36.6934 36.1059 36.5913C36.7405 35.9222 36.6666 35.5403 38.8739 35.3564C37.6339 36.3119 40.1835 36.7202 39.6978 37.6477C38.1215 37.5581 38.9297 36.6316 37.993 36.2876C37.8976 36.2532 36.4495 36.5803 36.1059 36.5913C37.6472 37.2515 38.1753 37.5016 37.3382 38.4907C38.3764 38.3308 39.0301 38.3982 39.092 37.9515C39.3227 38.126 39.5545 38.3006 39.7812 38.4754C40.118 38.4455 40.4199 38.4054 40.7764 38.3825C40.2363 37.7558 41.2188 38.0934 41.8701 37.7435C42.5209 37.3934 41.5822 36.9352 43.4261 36.7942C42.8009 36.6834 42.2282 36.5913 41.6199 36.4882C42.8112 36.2293 43.9518 35.9741 45.1777 35.7153C44.2643 35.3728 42.4483 34.8995 42.4491 34.3637C43.0201 34.5241 44.8416 34.0377 45.0917 34.0055C45.9233 33.8916 45.4917 34.2602 45.5555 34.264C46.8783 34.3344 47.9412 34.1456 48.4694 34.6211C49.4287 34.3238 50.1704 34.4048 51.1947 34.3227C51.7581 34.2776 51.6233 33.9107 51.9575 33.9597C54.1702 34.2895 52.1391 34.9067 56.254 33.7157C55.7337 33.4871 55.2181 33.2525 54.6945 33.0223C55.1607 32.8931 55.6231 32.7639 56.0871 32.6354C56.4048 32.6626 56.7193 32.6905 57.0359 32.7181C57.065 33.284 57.0929 33.8512 57.1221 34.4171C57.4677 34.4261 57.8139 34.4343 58.1581 34.4437C57.5743 34.5363 56.9873 34.6294 56.3998 34.7229C56.3523 34.8258 56.3082 34.9286 56.2606 35.0316C57.1487 35.1294 58.0296 35.2299 58.9092 35.3311C58.9137 35.1333 58.9178 34.9342 58.9222 34.7364C60.8914 34.8894 60.9555 35.0527 62.8752 34.394C64.3748 34.3108 65.5362 33.4185 66.373 33.0234C66.6864 33.1162 66.9998 33.2105 67.3154 33.3034C67.5023 33.1287 67.6911 32.9547 67.8776 32.7801C68.2782 32.9862 68.6831 33.1923 69.0815 33.3976C69.2675 32.8691 69.3736 32.7008 67.8512 32.6033C68.3372 31.9307 71.0034 32.0697 72.0782 32.2306C72.8962 32.3521 72.0264 32.9354 72.131 32.9954C72.4816 33.199 73.8003 32.9391 74.0793 32.9619C75.2675 33.0549 76.0578 32.9888 77.2007 33.0523C77.4189 33.0654 78.0399 33.3764 78.0915 33.3847C78.4939 33.4236 79.4824 33.5429 79.5935 33.5426C85.311 33.5385 79.1698 32.333 84.4437 32.2592C84.2787 32.0713 84.1261 31.8841 83.964 31.6961C84.3599 31.6674 84.7591 31.6392 85.1531 31.611C85.6595 31.7529 85.0682 32.0734 86.0488 31.7942C85.9942 32.0366 85.9393 32.2792 85.8814 32.5205C86.3065 32.3735 86.7152 32.2284 87.1485 32.0816C87.8738 32.8853 90.3661 32.9803 90.2236 33.9644C90.1773 34.2987 88.4302 34.7065 89.3739 35.0262C90.1312 35.0676 89.6055 34.6898 89.9124 34.6575C92.1812 34.4286 92.1153 34.9898 93.0518 34.8085C93.1936 34.5648 93.3428 34.3162 93.4879 34.0701C93.849 34.128 94.21 34.186 94.5727 34.2442C94.6506 34.0812 94.732 33.9179 94.8099 33.7549C94.4737 33.7551 94.094 33.7568 93.7838 33.7566C94.2036 33.1189 98.1184 32.7181 96.6392 33.2939C96.0385 33.5273 94.9153 33.472 95.646 34.1829C96.6948 34.0437 97.8764 33.9 98.9635 33.7634C99.002 33.9204 99.038 34.0778 99.0764 34.2348C100.539 34.0916 99.1893 33.4972 99.1819 33.1587C99.5176 33.1398 99.856 33.1221 100.19 33.1036C100.336 33.2528 100.475 33.4093 100.627 33.5537C100.633 33.3099 100.807 32.7383 101.803 32.9232C102.441 33.0441 101.458 33.6834 102.664 33.5683C102.564 33.1907 102.119 32.7379 103.458 32.5835C103.6 32.977 103.792 33.3361 103.905 33.7505C105.649 33.3297 106.474 33.9249 108.499 33.4448C109.785 33.1411 111.519 32.1199 112.354 33.6429C113.278 33.6713 112.98 33.2934 113.252 33.2041C114.533 32.7824 115.483 33.5013 115.72 33.5419C117.19 33.8033 117.999 33.5466 119.268 33.8842C119.197 33.6006 119.157 33.332 119.1 33.0554C117.942 33.4863 117.242 33.4702 115.701 33.3921C116.231 33.3304 116.747 33.2679 117.322 33.207C117.229 32.9772 117.136 32.7474 117.046 32.5188C112.134 33.4709 113.233 32.0237 117.412 31.6762C117.789 32.1001 118.179 32.5231 118.549 32.9488C121.031 32.2912 122.191 32.8501 124.911 32.993C125.235 33.0093 126.406 32.7695 126.904 32.7611C126.896 32.7594 126.888 32.7577 126.88 32.756C127.193 32.3554 126.773 32.1672 126.725 31.807C126.997 31.7636 127.268 31.7206 127.539 31.6776C128.152 31.957 127.881 32.1793 129.147 32.1264C128.979 31.8515 128.814 31.5765 128.646 31.3017C130.032 31.3056 130.925 31.6137 132.191 31.5043C131.977 31.6044 131.765 31.705 131.551 31.8053C134.292 32.111 132.088 33.6822 134.156 32.9184C134.283 33.0609 134.407 33.2048 134.534 33.3474C133.694 33.3657 132.846 33.3847 131.995 33.4065C131.975 33.6046 131.953 33.8017 131.937 33.9998C132.85 33.9539 133.76 33.9082 134.657 33.8662C134 33.9865 133.335 34.108 132.671 34.2305C133.722 34.3423 134.761 34.4569 135.79 34.5739C134.709 33.8218 136.132 33.7624 135.88 33.0348C137.718 33.6772 138.994 34.498 142.001 34.0874C142.581 34.006 142.292 33.4895 143.894 34.1618C143.533 33.3443 145.571 33.0447 145.34 32.272C144.779 32.2866 144.193 32.2877 143.641 32.3129C144.257 32.6005 144.333 33.3323 143.377 33.5142C142.158 33.7456 140.369 33.186 140.417 33.997C139.926 33.9443 139.456 33.9086 139.019 33.8646C139.211 33.6691 139.394 33.4721 139.587 33.2769C138.295 33.5552 137.487 33.4338 136.873 32.9134C138.422 32.8331 139.948 32.7593 141.604 32.697C141.367 32.655 141.126 32.6128 140.887 32.5722C142.13 32.0947 140.889 31.5629 143.166 31.5297C143.143 31.7654 143.124 32.0014 143.102 32.2383C143.953 31.6342 146.174 31.7256 145.494 30.9712C146.156 31.2212 146.284 31.3681 146.678 30.9924C148.409 31.6188 149.466 32.3717 148.818 33.1753C149.455 33.0709 150.116 32.9689 150.808 32.8703C150.432 32.6225 150.027 32.3748 149.672 32.1291C150.835 32.2003 152.042 32.2784 153.193 32.3575C153.271 33.0363 150.933 32.4378 151.582 33.0773C151.713 33.2054 152.357 32.9808 152.517 33.0582C154.207 33.8924 151.518 33.2073 151.997 33.8006C154.56 34.1214 152.472 34.9432 155.996 34.3654C156.075 34.5657 156.16 34.7704 156.231 34.9691C157.419 35.0595 157.352 34.6143 158.368 34.6023C158.984 34.5942 159.776 35.4273 160.558 34.9603C160.695 34.8747 159.533 33.8329 162.132 34.0827C164.128 34.2815 163.239 34.8773 164.283 35.2057C165.342 35.5347 167.734 34.8365 168.4 35.962C167.808 35.7612 167.172 35.6225 166.572 35.4502C166.308 35.6299 166.05 35.8084 165.788 35.9878C167.177 35.853 168.607 36.3116 169.651 35.9344C171.506 36.8812 173.643 36.4489 173.186 35.5456C172.557 35.5921 173.184 36.0362 172.355 35.7024C172.289 35.4974 172.219 35.2927 172.153 35.0877C173.621 35.2832 174.606 35.4051 173.88 35.9159C174.101 35.9577 174.318 35.9994 174.538 36.0416C174.632 35.6176 174.722 35.1915 174.816 34.7676C175.087 34.753 175.358 34.7393 175.627 34.7254C175.901 34.8572 176.195 34.9931 176.505 35.132C175.979 35.7533 175.268 35.6741 177.602 36.3832C177.642 36.1501 177.685 35.9183 177.725 35.6852C179.657 36.2669 179.633 36.838 181.995 37.1966C180.069 37.7138 179.251 36.1273 179.017 37.7561C178.566 37.5798 178.106 37.4023 177.645 37.2277C177.539 37.4539 177.434 37.6805 177.331 37.9073C179.918 38.1333 184.16 37.2467 185.737 38.6125C185.963 38.5255 186.186 38.4553 186.416 38.3603C187.935 39.2951 188.789 38.0283 190.334 39.1974C190.483 39.3208 189.87 40.5282 192.005 40.9792C191.992 40.799 192.032 40.5104 192.039 40.2887C192.475 40.5006 192.9 40.7177 193.316 40.9331C193.435 40.7987 193.558 40.6655 193.677 40.5303C192.932 40.2788 192.17 40.0304 191.385 39.7862C192.061 39.8859 192.729 39.9894 193.381 40.095C192.608 39.6359 192.215 39.542 192.828 39.26C193.572 39.414 194.302 39.5706 195.015 39.732C195.114 39.6479 195.214 39.5625 195.314 39.4785C195.054 39.0802 194.782 38.6879 194.51 38.2852C196.241 38.9917 198.161 39.5553 199.355 40.5878C199.563 40.7657 198.597 40.8883 200.336 41.0558C200.293 41.2727 200.28 41.4563 200.245 41.6583C202.525 41.7739 203.217 42.221 205.017 43.4362C203.899 42.5307 204.915 43.2339 205.366 43.1845C205.522 43.1672 205.347 43.0574 205.173 42.949C205.009 42.8442 204.826 42.7326 204.906 42.6787C205.036 42.557 206.546 42.4948 205.507 41.9755C202.642 42.2396 202.198 40.3927 198.813 40.0003C199.376 39.994 199.936 39.9916 200.486 39.9917C200.287 39.8061 200.107 39.6387 199.885 39.4405C201.635 40.2734 200.76 39.8171 201.633 39.8939C202.516 39.9759 204.003 40.3314 204.928 40.6404C205.22 40.7375 204.814 40.8921 205.439 41.1741C205.808 41.3389 207.336 41.5203 207.387 42.1157C207.419 42.5024 205.126 42.469 207.773 43.6844C208.117 44.2124 206.923 43.5335 206.872 43.5587C206.491 43.8117 207.953 44.8133 208.754 44.9019C208.823 44.9082 208.417 44.3553 209.064 44.5548C210.733 45.1065 211.398 45.9356 211.978 46.8817C212.313 46.4393 214.042 46.7612 215.21 48.0385C215.38 47.9748 215.549 47.9085 215.721 47.8465C215.463 47.7322 215.203 47.6205 214.938 47.5127C214.771 47.2467 214.563 46.9906 214.393 46.7142C215.904 47.7177 216.567 47.3326 217.473 47.8041C220.41 49.5125 217.527 49.4022 216.936 49.2771C216.768 48.8971 216.602 48.5118 216.405 48.1242C216.306 48.2969 216.205 48.4702 216.101 48.6396C219.173 51.8623 215.702 49.9565 216.807 51.8078C217.885 51.6511 219.015 52.9783 219.144 55.0936C219.223 55.2959 219.293 55.5013 219.362 55.7056C219.505 55.6997 219.708 55.6372 219.814 55.671C220.61 58.0967 218.957 58.6284 218.868 58.8161C218.284 59.7149 219.046 60.4873 219.019 60.7752C218.887 61.9324 218.428 62.218 218.271 63.3339C218.065 64.5334 218.596 63.8442 218.721 64.2857C218.821 64.6426 218.47 65.6279 218.481 66.1087C218.387 65.8897 218.311 65.6346 218.214 65.4124C217.474 66.5338 216.784 67.3637 215.955 68.621C216.176 70.7226 213.461 70.7382 215.259 71.2507C216.224 70.0974 216.799 69.5359 217.577 69.1057C217.148 69.9417 216.665 70.7852 216.131 71.639C215.807 71.7632 215.52 71.8404 215.179 71.9739C215.105 72.7765 213.92 73.9892 213.566 74.5855C211.994 77.2577 213.104 77.0592 210.29 78.2985C211.626 76.7583 211.239 76.3415 212.586 74.9363C212.007 74.9854 211.406 75.7796 211.471 74.9768C210.288 76.4622 211.007 76.3061 210.767 77.1275C210.528 77.8646 209.66 78.762 210.008 79.0238C209.746 78.9492 209.511 78.858 209.25 78.7819C208.6 79.4258 207.923 80.0717 207.222 80.7205L207.212 80.728C206.941 80.9229 206.668 81.1149 206.394 81.3042C206.581 80.9889 206.764 80.6721 206.945 80.3541L206.91 80.3828C207 80.1712 207.088 79.9602 207.175 79.75C206.992 79.8569 206.807 79.9639 206.622 80.0708L206.698 80.0088C206.509 80.0872 206.319 80.1643 206.13 80.2398C204.088 82.6997 198.74 83.906 200.371 85.2235C199.064 85.9573 198.782 85.8093 197.9 85.8162C197.88 85.9871 197.852 86.1346 197.838 86.3209C196.9 86.5767 196.435 87.374 195.587 87.5608C194.741 87.7452 194.36 87.3259 194.555 88.1919C193.948 88.1527 193.361 88.1428 192.77 88.1009C192.525 88.3973 192.275 88.6899 192.025 88.9812C191.498 89.0449 190.975 89.1011 190.451 89.1507C190.313 89.6379 188.293 90.0266 187.494 90.5074C186.553 90.2711 186.257 88.8981 184.389 89.5597C184.511 89.8946 184.632 90.2285 184.755 90.563C184.295 90.5849 183.834 90.603 183.37 90.6173C183.321 90.5094 183.276 90.4007 183.228 90.2928C183.462 90.2843 183.693 90.2751 183.927 90.2657C183.692 90.1142 183.462 89.9617 183.233 89.8075C182.612 90.2208 181.979 90.6272 181.331 91.0265C182.303 91.0877 183.275 91.1322 184.247 91.1582C183.131 91.6472 182.26 91.5397 181.28 91.9926C180.315 91.6534 180.605 91.3227 180.876 90.7449C180.558 90.8413 180.235 90.9351 179.914 91.028C180.051 90.47 179.459 90.2545 181.354 89.9908C181.198 89.8641 181.041 89.7442 180.891 89.6098C180.588 89.6829 180.369 89.5884 180.039 89.6973C179.144 89.9941 178.544 91.0066 178.65 91.3215C178.708 91.487 179.595 91.0352 179.591 91.2781C179.585 91.8714 177.392 91.9203 180.579 92.0558C179.606 92.5809 179.331 92.3354 178.172 92.3748C178.286 92.5579 178.398 92.7399 178.51 92.9231C177.96 92.9026 177.423 92.876 176.884 92.8449C177.494 91.77 173.617 91.7986 176.972 90.5563C175.957 90.6271 174.934 90.6815 173.907 90.7187C174.108 90.5984 174.311 90.4783 174.511 90.3568C174.976 90.3703 175.437 90.3801 175.899 90.3861C175.343 90.2537 174.785 90.1179 174.229 89.9764C172.982 90.3171 172.514 90.7057 171.954 91.188C173.468 91.4109 172.948 91.003 174.096 90.8224C174.078 91.1063 174.154 91.3596 174.076 91.6628C173.433 91.1368 171.505 91.6924 171.041 91.7422C169.645 91.9021 170.709 91.2744 169.786 91.3065C168.867 91.3368 167.776 91.7126 166.998 91.1621C167.019 91.48 167.088 91.8078 167.15 92.0962C165.687 92.2328 165.984 91.8467 165.831 91.8016C163.435 91.0297 162.144 91.7007 159.389 91.7213C159.738 91.8284 160.089 91.9251 160.44 92.0244C158.342 92.653 159.756 92.4865 161.552 92.7341C159.874 92.644 158.856 93.1906 157.672 93.3239C156.482 93.4583 154.405 93.0704 153.69 92.8018C155.412 92.5172 157.26 92.8374 159.16 92.7836C158.951 92.4539 158.744 92.1738 158.534 91.8113C157.372 92.4582 156.715 91.9764 156.34 91.8716C155.234 91.5619 155.242 92.1455 154.591 91.4869C154.609 91.7041 154.62 91.8865 154.639 92.0895C152.362 91.8945 149.881 91.3559 148.344 92.0499C148.243 91.5227 148.174 91.0166 148.054 90.4772C147.055 90.7994 146.236 90.3377 145.425 90.3675C144.607 90.3965 144.885 90.839 143.914 90.9245C143.734 90.94 143.385 90.6488 142.93 90.8061C142.467 90.9643 140.724 92.2706 140.638 90.9937C139.82 90.9178 139.045 90.8037 138.236 90.7105C139.032 90.7096 139.824 90.7094 140.608 90.7049C139.969 90.3426 139.331 89.9804 138.687 89.6158C138.577 89.8805 138.467 90.15 138.361 90.4113C136.518 90.5815 135.28 90.0192 133.434 89.9537C133.129 89.9431 133.788 90.5474 132.462 90.285C131.14 90.0227 130.225 88.9235 127.892 89.0939C127.775 89.1031 127.028 89.8081 126.257 89.1982C126.082 89.06 126.885 88.9557 126.471 88.7568C126.059 88.5578 124.144 88.2462 124.026 87.8547C124.034 87.9902 124.142 88.14 124.188 88.2815C123.849 88.3142 123.518 88.3477 123.183 88.3797C123.174 88.1415 123.163 87.9027 123.155 87.6657C121.238 88.0402 120.144 88.8387 117.404 88.2965C118.158 88.7081 118.896 89.1205 119.658 89.5345C119.896 89.314 120.134 89.0919 120.369 88.8711C121.654 89.0853 122.917 89.2986 124.198 89.5153C124.436 89.262 124.671 89.0092 124.909 88.756C125.249 88.8237 125.584 88.89 125.922 88.9576C125.818 89.1471 125.714 89.3354 125.606 89.5246C126.287 89.5399 126.966 89.5541 127.638 89.5688C126.173 90.6061 123.825 89.1092 123.91 90.1012C123.615 89.9209 123.334 89.741 123.046 89.5603C122.869 90.0209 122.271 89.8276 121.19 89.6529C121.417 89.9088 121.671 90.1641 121.877 90.4206C120.86 89.9945 118.95 89.8524 117.887 89.6303C117.414 89.532 117.922 89.2316 117.783 89.1786C117.073 88.9026 115.617 89.3785 115.326 89.3059C113.574 88.8712 112.564 87.643 110.574 88.2367C112.541 88.581 111.469 88.4163 112.138 88.8892C112.347 89.0374 114.866 89.5199 111.692 89.1359C111.316 89.0833 105.58 87.8574 107.529 87.4006C106.577 87.5226 105.823 87.6913 104.943 87.8344C102.936 86.1026 103.576 87.6443 104.123 88.5052C103.78 88.4853 103.454 88.4718 103.101 88.4483C103.915 87.635 100.072 87.331 98.7304 87.6963C98.2884 87.8163 99.4852 88.1613 98.4752 88.2348C98.0009 88.1474 97.4618 88.0393 96.9576 87.945C97.6643 88.5296 96.2094 88.6637 96.2011 89.2204C95.304 88.6785 94.6397 87.5965 95.1792 87.0525C94.3982 87.2454 93.6094 87.4399 92.843 87.6391C93.1918 87.7859 93.5393 87.932 93.8908 88.08C91.4307 87.615 88.1487 88.3061 87.6789 87.1265C87.3488 87.1254 87.0146 87.1235 86.6834 87.1232C86.576 87.3177 86.472 87.5127 86.3648 87.7073C84.8789 87.499 83.3486 87.2984 81.8714 87.11C83.1971 87.0045 83.5344 86.7289 84.9366 86.985C84.3991 86.7469 83.8489 86.5086 83.3167 86.2732C81.1953 86.8546 80.9235 87.2457 77.7226 87.0608C77.575 87.0504 75.1862 86.551 75.099 86.5041C74.72 86.2796 75.2891 85.9428 75.1202 85.8292C74.6563 85.5066 71.7814 84.7406 71.8301 84.6201C72.5173 83.0697 82.1455 83.0118 84.7561 83.0283C111.817 82.5757 137.901 88.2869 163.863 88.3907C164.13 88.3873 164.012 88.1658 164.126 88.156C164.83 88.0983 165.521 88.435 165.779 88.4453C166.331 88.4659 166.022 88.1518 166.424 88.1442C170.611 88.063 174.545 87.9959 178.619 87.382C178.884 87.3414 178.649 87.6329 179.109 87.5216C179.348 87.4629 180.039 86.9635 180.57 86.8695C182.457 86.5362 184.032 86.3518 185.974 85.8734C187.027 85.6153 188.616 85.2125 189.766 84.8412C190.275 84.679 190.749 84.3342 191.243 84.1571C191.945 83.9042 191.923 84.2943 192.039 84.2774C192.55 84.1976 192.477 83.7989 192.927 83.639C193.762 83.3369 193.907 83.5698 194.943 83.1112C195.687 82.7852 197.272 81.8235 198.14 81.3023C200.401 80.5115 202.9 78.8415 204.647 77.4603C204.698 77.4204 204.748 77.383 204.795 77.3478L204.403 77.6668C205.275 76.8322 205.599 76.9815 205.979 76.6155C207.343 75.2831 208.043 73.8701 209.184 72.5613C210.714 70.792 212.217 69.3735 213.405 67.5407C213.59 67.2515 213.258 67.1385 213.419 66.8548C214.07 65.7202 214.657 64.3917 215.076 63.4072C215.509 62.3793 216.105 62.1105 216.214 61.035C216.236 60.7259 215.824 60.579 215.818 60.102C215.809 59.3304 216.153 58.5532 216.119 58.0194C216.058 57.3178 215.749 57.9842 215.596 57.0889C215.589 57.0541 215.856 56.8306 215.78 56.6438C215.542 56.1007 215.356 56.2534 214.99 55.4559C214.973 55.376 214.616 54.2168 214.513 54.0996C214.079 53.4459 213.126 52.2867 212.669 51.9748C211.212 51.0061 211.997 52.2855 211.445 50.5279C210.745 50.3145 209.991 50.1092 209.287 49.9553C209.831 50.0178 208.308 48.6985 208.132 48.6436C206.957 48.2008 207.408 48.887 206.126 48.1675C208.304 48.2101 204.45 47.1974 203.49 46.8751C199.525 45.3615 195.393 43.9218 191.084 42.9164C189.525 42.5521 187.508 42.3264 185.92 42.0171C185.546 41.9449 185.871 41.7833 185.541 41.7155C185.21 41.6495 185.532 41.9615 185.156 41.8773C182.749 41.3414 181.053 40.5923 178.796 40.84C178.702 40.7409 178.715 40.6756 178.553 40.558C176.65 40.7952 173.339 39.6593 172.068 39.4176C170.055 39.0314 169.476 39.326 167.951 39.0958C166.033 38.7997 163.202 37.8601 164.396 39.1079C163.062 39.0233 161.755 38.9232 160.362 38.7089C160.207 38.6849 160.337 38.4051 160.275 38.3944C159.882 38.3224 159.733 38.5706 159.463 38.5622C158.729 38.5396 159.943 38.3191 158.898 38.3285C158.384 38.3377 158.084 38.5403 156.643 38.4475C147.565 37.8638 138.242 37.486 128.853 37.3546C128.202 37.346 128.624 37.6292 127.855 37.6047C125.217 37.5166 120.3 37.0447 117.848 37.1278C115.409 37.2088 116.032 37.6138 114.565 37.799C114.285 37.8352 114.513 37.5999 114.259 37.5991C112.555 37.5958 110.482 37.2627 109.058 37.233C108.116 37.2128 108.197 37.578 107.541 37.6165C106.564 37.673 105.538 37.3245 105.008 37.3243C102.552 37.3266 101.01 37.6648 98.7431 37.5771C98.8332 37.6551 98.8934 37.7281 98.9699 37.8054C96.3131 37.868 93.6087 37.943 90.8492 38.0309C90.9819 38.0997 91.1103 38.1694 91.2428 38.2395C88.1249 38.3138 88.4785 37.5046 88.8055 39.1783C88.5848 39.2462 88.3506 39.3242 88.1391 39.3872C88.1914 38.5162 86.3111 37.9525 83.8861 37.8355C83.7089 37.8263 82.5538 38.7243 82.6393 37.7193C82.3383 37.9775 82.1599 38.1543 81.9051 38.381C81.3767 38.1014 80.8393 37.8262 80.3068 37.5488C80.0286 37.6067 79.7463 37.6634 79.4673 37.7217C79.4348 37.9194 79.4763 38.1212 79.3951 38.3177C78.0856 38.408 75.3945 38.2978 74.4388 38.372C71.9812 38.56 69.4632 39.2272 67.463 38.7665C66.5066 38.8791 67.4832 39.2088 66.0496 39.2419C65.8765 39.0567 65.7135 38.8791 65.5328 38.6885C64.408 39.6255 64.1334 39.1109 62.4978 39.0264C61.38 38.9697 60.6981 39.2245 59.7021 39.2444C59.4483 39.2494 59.4683 38.9923 59.2955 39.0113C58.7176 39.0734 57.0738 39.5296 56.6592 39.5659C52.913 39.8989 49.6251 40.082 45.9128 40.251C45.5136 40.2699 46.0483 40.4846 45.6349 40.5033C44.9702 40.5338 45.3297 40.1198 44.9488 40.128C43.9268 40.1504 43.9498 40.558 42.5228 40.6834C38.0906 41.0729 32.8897 41.2036 27.9713 41.5501L28.9701 41.3382C28.7179 41.4231 28.4667 41.5108 28.2168 41.6012C28.0799 41.6518 28.1715 41.8731 28.0244 41.9307C27.059 42.3051 25.9769 42.4016 25.1069 42.7915C23.6798 43.4338 22.7699 44.2575 21.4247 44.9846C18.8025 46.4226 16.4587 47.7473 14.1473 49.6595C12.2852 51.2299 10.8183 52.7481 9.45892 54.7487C2.4511 63.7865 16.1213 70.8309 27.5695 74.7977C27.8856 74.9122 27.6875 75.0698 27.7825 75.0911C28.6636 75.2792 28.8317 75.0298 28.9652 75.6977C30.1308 75.9325 30.6152 75.6107 32.0479 76.05C32.7594 76.2652 32.0301 76.7883 33.3579 76.7766C34.5874 76.7614 33.3525 76.0705 36.7652 77.32C36.8555 77.3528 37.1778 77.8681 37.9033 77.9247C38.6357 77.9818 37.8735 77.4986 39.6169 77.7993C40.394 77.9317 41.2208 78.0908 42.0939 78.2668L41.7362 78.2062C45.4817 78.668 49.743 79.4498 53.7567 79.881C54.0667 79.9143 57.0726 80.0777 57.6737 80.0507C58.837 79.9975 58.6402 79.6541 60.1271 79.7701C61.276 79.8601 62.1714 80.3368 63.5222 80.4411C63.6796 80.4529 63.9888 80.123 64.9907 80.3027ZM174.745 34.38C175.09 34.0618 175.632 32.7885 177.393 33.4367C177.554 33.4973 176.533 34.277 177.48 34.5543C176.508 34.5163 175.618 34.43 174.745 34.3814C174.745 34.3809 174.745 34.3804 174.745 34.38ZM71.1965 89.6396C69.945 89.4092 68.6891 89.179 67.4377 88.9486C68.3279 88.903 69.2193 88.8578 70.1063 88.8106C70.4709 89.0869 70.8319 89.3632 71.1965 89.6396ZM73.284 32.351C73.2828 32.351 73.2817 32.3511 73.2804 32.3511C74.5966 32.112 75.8281 31.8787 77.2318 31.6395C77.0937 31.7722 76.9552 31.9056 76.817 32.0384C75.7075 32.2911 74.7565 32.5371 73.7211 32.7887C73.5757 32.6427 73.4298 32.4969 73.284 32.351ZM62.7911 34.2698C61.9109 34.1724 62.1087 33.9078 61.613 33.6912C61.6131 33.6917 61.6131 33.6921 61.6131 33.6926C61.4847 33.6362 60.8787 33.6168 60.6633 33.6204C60.7513 33.7733 60.8687 33.9224 60.9703 34.0734C59.047 34.5733 55.1559 33.4558 60.0486 32.6023C59.9874 32.806 59.9295 33.0084 59.8683 33.2121C62.3414 33.0036 65.272 33.2668 62.7911 34.2698ZM194.857 37.4679C196.992 37.3484 197.964 37.4631 200.28 38.6549C199.876 38.721 199.469 38.7888 199.06 38.8584C198.7 38.5518 198.334 38.2481 197.957 37.9429C197.956 37.9425 197.954 37.9422 197.953 37.9418C197.812 38.1078 197.672 38.2742 197.535 38.4415C196.622 38.0973 195.698 37.7659 194.857 37.4679ZM7.89281 71.1344C7.49278 72.4957 7.90159 71.9231 6.29795 70.8043C5.76566 70.419 6.05203 71.0281 5.73883 70.7666C4.06284 69.3045 4.67223 68.5099 5.32476 68.629C6.16094 69.5983 6.96325 70.3561 7.89004 71.132C7.89096 71.1328 7.89189 71.1336 7.89281 71.1344ZM57.0772 86.021C57.0784 86.0211 57.0796 86.0213 57.0808 86.0214C57.0905 86.3437 56.2883 86.3254 57.1416 86.7409C56.4629 86.6512 55.7845 86.5601 55.1024 86.47C55.3063 86.4666 55.5144 86.4653 55.7183 86.462C55.5558 86.3305 55.393 86.1977 55.2306 86.0663C54.9421 86.3976 54.7456 86.1575 54.0483 85.9432C54.1948 86.3564 54.3402 86.7698 54.4866 87.1831C53.6732 86.9596 52.8567 86.7353 52.0432 86.5118C52.0458 86.4128 52.0481 86.3136 52.0507 86.2146C51.7221 86.2987 51.3964 86.3846 51.0678 86.4687C50.9981 86.341 50.9314 86.2148 50.8617 86.0871C50.4733 86.1263 50.0843 86.1653 49.6958 86.2056C49.6179 85.9082 50.4644 85.8945 48.9826 85.7742C49.4721 85.5433 49.9605 85.3132 50.4533 85.0828C52.6613 85.3948 54.8694 85.7078 57.0772 86.021ZM2.4697 55.9227C1.76619 58.5917 1.84244 57.8622 1.32677 57.0427C1.69285 56.6393 2.07971 56.2536 2.4697 55.9227ZM123.039 31.9999C123.752 31.5598 124.464 31.1253 125.187 30.703C126.626 30.4629 128.032 31.2783 126.964 31.5851C125.677 31.954 124.321 31.526 123.039 31.9999ZM156.162 32.7901C154.411 32.4737 156.106 32.0562 156.521 31.778C156.975 32.2996 157.653 32.3011 158.716 32.4343C157.714 32.3938 156.45 32.8434 156.162 32.7915C156.162 32.7911 156.162 32.7906 156.162 32.7901ZM94.3819 31.9919C93.6598 32.0289 92.9416 32.1765 92.2841 32.0499C92.4669 31.6216 93.7808 31.9602 92.829 31.3677C93.2943 31.341 93.7587 31.315 94.2176 31.2879C93.9342 31.5563 94.3334 31.7366 94.38 31.9905C94.3806 31.991 94.3813 31.9914 94.3819 31.9919ZM19.95 38.4929C21.4713 38.2928 21.6125 37.9899 22.8091 37.0779C23.1522 37.3685 21.8583 38.6848 20.9704 39.2983C20.6346 39.0268 20.295 38.7578 19.95 38.4929ZM114.172 90.5831C114.555 90.0951 117.033 90.2423 118.231 90.5044C118.079 90.568 117.927 90.6325 117.775 90.6972C116.584 90.6576 115.38 90.6191 114.172 90.5831ZM159.22 32.5059C159.043 32.4778 158.875 32.4543 158.716 32.4343C158.894 32.4414 159.064 32.4626 159.22 32.5059ZM219.305 62.8288C218.965 62.157 218.425 63.7418 219.063 61.8208C219.063 61.8207 219.062 61.8206 219.062 61.8205C219.414 60.5658 219.477 60.254 219.524 59.0355C220.159 59.4356 220.309 62.1753 220.486 58.4884C220.482 58.4402 220.124 58.5559 220.125 57.9832C220.122 57.8072 220.381 57.1983 220.266 56.301C220.23 56.0161 219.761 53.8668 220.496 56.7655C220.908 56.5933 221.374 56.6731 221.79 56.5905C222.14 57.8691 221.338 58.8752 221.286 60.1396C221.183 62.0069 221.712 63.1634 220.531 63.2416C220.731 61.6447 220.846 59.0739 221.466 58.663C221.38 57.084 220.714 56.7701 220.593 57.9911C220.925 60.5209 220.474 60.9075 220.288 61.1188C220.033 61.3526 219.945 61.4909 219.566 63.6562C219.703 63.7492 219.812 63.9687 219.962 63.9878C219.027 65.0547 219.44 63.101 219.305 62.8288ZM219.204 52.5607C219.935 53.1569 220.654 53.9063 221.274 54.7044C220.746 54.8789 220.174 54.5243 219.278 53.3975C219.259 53.1135 219.233 52.8327 219.204 52.5607ZM169.803 92.984C169.693 93.2851 169.375 93.5701 169.144 93.8607C168.864 93.6539 162.649 93.5015 165.8 93.2153C166.236 93.1807 169.092 93.6275 169.803 92.984ZM11.6532 44.2123C12.3717 43.9052 13.0957 43.6193 13.8118 43.3594C12.9599 44.1103 12.1156 44.9105 11.3289 45.725C11.4325 45.2171 11.532 44.7197 11.6532 44.2123ZM134.865 32.6383C134.559 32.6213 135.583 32.2342 134.376 32.275C135.282 32.0319 136.123 31.8294 136.995 31.605C137.25 31.8035 137.507 32.0014 137.76 32.2002C137.964 32.0817 138.171 31.9641 138.375 31.8458C138.247 32.123 138.133 32.394 137.999 32.6758C136.564 32.039 136.211 32.7131 134.865 32.6383ZM90.6876 34.2327C90.3925 33.6336 92.5835 33.1914 90.4141 33.1728C90.8026 32.758 91.4683 32.5232 92.7298 32.4438C92.9379 32.5898 93.1452 32.7347 93.3526 32.8809C93.3665 32.4705 93.6862 32.3071 94.3819 31.9919C94.3826 31.9923 94.3832 31.9928 94.3838 31.9932C96.2872 31.9015 96.1725 32.0431 96.6485 32.702C94.6354 32.3843 94.5903 33.0024 93.2237 33.4145C92.2841 33.6982 91.03 33.6293 90.6876 34.2327ZM176.41 92.4876C175.051 93.14 176.362 93.5082 173.788 93.1801C173.94 93.0369 174.087 92.8948 174.241 92.7507C174.969 92.6692 175.692 92.5818 176.41 92.4876ZM83.7666 32.4177C83.9691 33.353 85.3164 34.0311 85.4762 32.4888C84.1809 32.2301 84.8448 33.0722 83.7666 32.4177ZM155.468 34.2256C153.001 34.0289 153.518 32.9967 154.58 32.5265C154.726 32.7294 154.872 32.9327 155.013 33.1343C155.453 33.0734 155.89 33.013 156.325 32.9545C156.039 33.3775 155.753 33.802 155.468 34.2256ZM40.0825 36.0601C41.9022 35.2494 38.034 35.837 39.3103 35.3202C40.3319 34.9066 41.7496 35.4832 41.2632 35.9454C40.9044 35.9837 40.504 36.0216 40.086 36.0598C40.0848 36.0599 40.0837 36.06 40.0825 36.0601ZM51.042 35.0893C50.6798 34.3925 51.1479 34.5706 49.645 34.8029C49.2205 34.8679 45.7405 34.84 47.2354 35.3334C48.4727 35.2468 49.7722 35.1678 51.042 35.0893ZM184.085 36.3524C184 36.6515 181.386 36.9109 181.085 36.6936C181.084 36.694 181.084 36.6945 181.084 36.6949C180.28 36.0908 182.96 36.4543 181.907 35.6319C184.317 36.5994 185.523 35.4412 184.976 37.1742C183.377 36.9688 184.189 36.7369 184.085 36.3524ZM81.888 87.3905C81.8868 87.3905 81.8856 87.3905 81.8844 87.3905C82.0593 87.4064 83.4904 87.8875 83.3157 88.0446C81.5839 87.8824 81.9007 87.5837 80.28 88.0676C80.1925 87.9067 80.1175 87.7508 80.0228 87.5888C80.666 87.498 81.0242 87.3081 81.888 87.3905ZM163.099 92.483C163.745 92.4041 164.92 92.739 165.647 92.708C163.328 94.0462 160.525 92.7866 163.099 92.483ZM33.2144 82.1657C33.2125 82.1657 33.2106 82.1657 33.2087 82.1656C33.2094 82.1651 33.2102 82.1646 33.211 82.1641C33.2121 82.1646 33.2132 82.1651 33.2144 82.1657ZM210.282 79.0927C210.164 79.091 210.079 79.0717 210.022 79.0377C210.017 79.0334 210.013 79.0291 210.009 79.0248C210.096 79.0496 210.186 79.073 210.282 79.0927ZM189.468 37.2914C190.407 37.9336 186.84 37.8973 185.675 37.5247C185.793 37.3437 185.839 37.1682 186.072 36.9787C186.929 37.6599 189.316 37.1804 189.468 37.2914ZM106.724 32.4531C109.646 32.4089 105.88 34.2069 105.688 32.8352C105.694 32.8082 106.649 32.4568 106.724 32.4531ZM166.953 34.1693C166.191 34.6215 167.614 34.8943 165.328 34.589C165.206 34.4419 165.084 34.2945 164.961 34.1474C165.631 34.1534 166.295 34.1602 166.953 34.1693ZM125.565 34.5666C129.004 34.29 132.702 33.8344 130.276 32.3604C129.995 32.4033 129.709 32.4448 129.426 32.4881C129.374 33.1907 128.333 32.795 126.912 32.7625C126.705 33.0401 125.902 33.0999 125.749 33.3365C125.455 33.7934 126.377 34.1204 125.565 34.5666ZM15.6471 74.3767C15.538 74.4552 15.4297 74.5347 15.3208 74.6117C14.7309 74.4548 14.1552 74.2923 13.5951 74.1263C13.7895 73.9725 13.9833 73.818 14.1761 73.6626C14.6497 73.9023 15.1374 74.1387 15.6441 74.3744C15.6451 74.3752 15.6461 74.376 15.6471 74.3767ZM215.926 50.6307C217.14 50.0224 216.111 49.1296 213.955 48.2575C214.637 48.9745 215.354 49.8092 215.926 50.6307ZM67.5706 35.722C67.4741 35.3516 67.3789 34.9823 67.2787 34.6121C66.0584 35.0725 66.3132 35.4887 66.9369 35.9507C67.1498 35.8744 67.3581 35.7981 67.5706 35.722ZM49.8039 36.9908C50.3261 37.0336 50.0417 36.7494 50.0962 36.7517C51.4128 36.8218 51.6063 36.9478 53.1801 36.6147C53.3693 36.5224 53.5548 36.4263 53.7436 36.3318C52.9586 35.5956 52.4563 36.0579 50.8606 35.7026C51.161 35.9526 51.4598 36.2031 51.7592 36.4545C50.8877 36.4559 50.0159 36.4588 49.1365 36.4621C49.0384 36.5522 48.9399 36.6416 48.8417 36.7317C49.1607 36.8169 49.4902 36.9146 49.8039 36.9908ZM21.5002 77.382C22.3238 77.737 23.0496 78.0407 23.8294 78.3518C23.9231 78.1797 24.0161 78.0058 24.1095 77.8336C23.2379 77.6961 22.4263 77.5692 21.5002 77.382ZM218.481 66.1087C218.517 66.1951 218.554 66.2808 218.594 66.3612C218.519 66.3204 218.488 66.2284 218.481 66.1087ZM79.6773 86.3096C78.7205 86.1688 77.3234 86.2575 76.2871 86.2353C76.3652 86.7183 79.0402 86.5787 79.976 86.8822C80.1269 86.796 80.0824 86.3687 79.6773 86.3096ZM152.019 33.9794C151.761 34.208 151.503 34.4356 151.248 34.6648C150.664 34.6077 150.036 34.5482 149.477 34.4947C149.451 34.6921 149.425 34.8912 149.399 35.0885C152.01 34.9612 151.399 35.5055 152.646 36.139C152.438 35.4194 152.231 34.7 152.019 33.9794ZM47.6596 82.5387C45.8049 82.4322 45.1207 82.5958 46.0795 83.3211C46.7457 83.2702 47.4157 83.2198 48.0818 83.1689C47.94 82.9588 47.798 82.7484 47.6596 82.5387ZM193.575 87.1646C192.202 87.8962 191.921 87.1467 190.637 88.0242C191.444 87.9269 192.258 87.8128 193.065 87.6822C193.235 87.5113 193.408 87.337 193.575 87.1646ZM193.556 42.0779C194.059 42.4941 195.59 41.5187 197.077 42.9713C197.57 42.8133 197.905 42.6242 198.336 42.4584C198.447 42.8169 198.58 43.1873 198.674 43.5398C198.675 43.5401 198.676 43.5405 198.677 43.5408C200.188 43.9165 199.351 43.2392 199.486 42.9361C199.515 42.8737 199.787 42.9863 200.017 43.0658C200.255 43.148 200.48 43.206 200.336 43.0008C199.892 42.3028 197.523 41.8794 197.671 41.2824C198.459 41.722 200.058 42.0587 199.726 41.5169C199.362 40.9186 197.629 41.183 196.717 40.5371C197.905 41.9052 194.933 40.748 194.871 39.9559C193.093 40.1064 194.443 40.6798 196.296 41.1675C195.039 41.4253 196.746 41.5703 196.863 42.1132C195.611 42.0369 192.054 40.8907 193.556 42.0779ZM110.562 34.8884C111.795 34.8312 113.695 35.1417 114.513 34.6403C114.991 34.3477 113.098 34.1457 114.397 33.6802C113.221 33.737 112.949 33.9174 113.157 34.3102C112.888 34.361 112.615 34.4108 112.345 34.4607C112.219 34.3852 112.09 34.3108 111.963 34.2353C111.823 34.4 111.682 34.5634 111.544 34.7281C111.255 34.7002 110.962 34.6724 110.672 34.6436C110.639 34.7259 110.582 34.798 110.562 34.8884ZM149.8 91.1726C150.139 91.1896 150.471 91.2056 150.818 91.2208C150.786 91.1224 150.747 91.0195 150.71 90.918C150.683 90.838 150.657 90.758 150.631 90.678C150.813 90.9703 152.422 91.5305 153.119 91.2669C153.469 91.1348 152.721 90.5653 154.171 90.5451C153.124 90.5213 152.143 90.54 151.109 90.5232C151.211 90.371 151.309 90.2169 151.411 90.0646C151.41 90.0643 151.41 90.0641 151.409 90.0638C151.07 90.0081 150.721 89.9494 150.387 89.8928C150.191 90.3198 149.997 90.7459 149.8 91.1726ZM68.6155 36.4069C69.7627 36.033 70.1404 35.8516 69.5656 35.3807C69.5644 35.3806 69.5631 35.3804 69.5619 35.3802C69.1415 35.6256 68.72 35.8712 68.2978 36.1171C68.4027 36.2136 68.5073 36.3105 68.6155 36.4069ZM211.72 73.3789C211.596 76.4776 214.263 71.4629 213.054 71.8829C213.014 71.8976 212.044 73.3344 211.72 73.3789ZM155.881 34.8389C155.209 34.811 154.529 34.7829 153.842 34.7576C153.986 35.0006 154.133 35.2431 154.276 35.4862C154.813 35.27 155.349 35.0534 155.881 34.8389ZM39.9232 80.5289C39.322 79.865 37.6146 79.2822 36.6572 79.6348C37.079 79.8042 37.5069 79.9732 37.9406 80.1415C37.0671 80.0069 36.2804 79.8934 35.3418 79.7243C35.1213 80.4193 36.2504 80.2686 37.6622 80.8013C37.8777 80.8862 39.1789 82.1068 39.8598 81.5555C39.9916 81.4421 38.4029 80.9937 39.6086 80.843C39.1257 80.7041 38.7068 80.6174 38.2583 80.4969C38.2641 80.3203 38.2704 80.1436 38.2732 79.9663C38.8156 80.1549 39.363 80.3423 39.9232 80.5289ZM117.652 34.7539C119.389 34.7836 119.593 34.4935 119.951 33.9777C119.152 34.0385 118.347 34.0998 117.537 34.1633C117.577 34.3597 117.612 34.5563 117.652 34.7539ZM25.6132 76.4508C24.7794 76.0733 25.0114 76.596 24.6408 76.5501C23.272 76.3802 22.4717 75.7589 21.1311 75.417C21.2452 75.3763 21.3505 75.3375 21.4607 75.2975C21.4596 75.297 21.4584 75.2966 21.4574 75.2961C15.7289 72.4135 18.436 74.7243 22.0465 76.0061C22.0765 76.1849 22.1038 76.3627 22.136 76.5408C23.8755 76.9236 25.4311 77.1707 25.6132 76.4508ZM217.623 55.23C217.551 55.3224 216.8 55.072 217.411 55.8743C218.518 56.333 217.688 55.2445 217.846 54.7923C218.042 55.0215 218.229 55.2653 218.406 55.5072C218.015 53.7681 217.59 53.652 217.316 54.5149C217.301 54.5721 217.694 55.1321 217.623 55.23ZM216.212 65.8465C217.314 66.678 217.716 64.2834 217.265 64.2239C217.14 64.5057 217.256 64.8191 217.03 65.0944C216.795 65.3805 216.493 65.305 216.212 65.8465ZM167.141 36.958C167.211 36.9707 167.834 37.5959 167.822 37.1544C167.068 36.0338 165.267 36.5349 165.536 36.9233C166.115 36.9596 166.512 36.8413 167.141 36.9594C167.141 36.9589 167.141 36.9584 167.141 36.958ZM50.8925 81.772C50.8634 81.7307 49.1047 81.2744 48.847 81.4515C48.6264 81.6599 48.4994 81.8975 48.3253 82.1204C49.3395 82.025 51.3109 82.4555 50.8889 81.7715C50.8901 81.7716 50.8913 81.7718 50.8925 81.772Z" fill="white"/>
<path d="M48.8412 47.8654C49.484 47.8654 50.1843 48.4393 50.9419 49.5873C51.6996 50.7123 52.0784 51.6421 52.0784 52.3768C52.0784 53.1115 51.9292 53.4789 51.6307 53.4789C51.4929 53.4789 51.1945 53.4329 50.7353 53.3411C50.2991 53.2493 49.9203 53.2033 49.5988 53.2033C48.4509 53.2033 47.1078 53.938 45.5695 55.4074C44.0313 56.8768 42.7111 58.6332 41.6091 60.6765C40.53 62.7199 39.9905 64.4877 39.9905 65.9801C39.9905 66.7147 40.1053 67.2543 40.3349 67.5987C40.5644 67.9201 40.9777 68.0808 41.5746 68.0808C43.1588 68.0808 44.766 67.8397 46.396 67.3576C48.0261 66.8755 49.3692 66.3933 50.4254 65.9112C51.4815 65.4061 52.0784 65.1535 52.2162 65.1535C52.3769 65.1535 52.5261 65.2913 52.6639 65.5668C52.8246 65.8193 52.9049 66.1293 52.9049 66.4966C52.9049 67.2772 52.285 68.2071 51.0452 69.2862C49.8055 70.3423 48.3016 71.2492 46.5338 72.0068C44.7889 72.7644 43.2047 73.1433 41.7813 73.1433C40.3578 73.1433 38.854 72.2823 37.2698 70.5604C35.7086 68.8385 34.928 67.1969 34.928 65.6357C34.928 63.4546 35.6283 60.975 37.0288 58.1969C38.4293 55.3959 40.2315 52.9738 42.4356 50.9304C44.6626 48.887 46.7978 47.8654 48.8412 47.8654ZM70.4751 63.3972C70.8883 63.7645 71.0949 64.0974 71.0949 64.3959C71.0949 64.6943 70.9572 65.3142 70.6817 66.2556C70.4062 67.1969 70.2225 67.9316 70.1307 68.4596C70.0388 68.9647 69.9585 69.3665 69.8896 69.665C69.8437 69.9634 69.8092 70.2045 69.7863 70.3882C69.7633 70.5489 69.7174 70.7555 69.6485 71.0081C69.6026 71.2606 69.5567 71.4673 69.5108 71.628C69.4878 71.7657 69.4419 71.9379 69.373 72.1446C69.3271 72.3282 69.2697 72.4775 69.2008 72.5923C69.1319 72.6841 69.0516 72.7874 68.9598 72.9022C68.822 73.0859 68.5924 73.1777 68.271 73.1777C67.9496 73.1777 67.5478 72.8563 67.0656 72.2134C66.6065 71.5706 66.2621 70.79 66.0325 69.8716C63.8743 72.0757 62.0606 73.1777 60.5912 73.1777C59.6039 73.1777 58.5364 72.6382 57.3884 71.5591C56.2404 70.4571 55.6665 69.3665 55.6665 68.2874C55.6665 67.1854 56.1601 65.6242 57.1473 63.6038C58.1346 61.5834 59.4777 59.7122 61.1766 57.9903C62.8986 56.2684 64.5975 55.4074 66.2735 55.4074C67.2378 55.4074 68.3513 55.9699 69.6141 57.0949C70.8768 58.2199 71.5082 59.2531 71.5082 60.1944C71.5082 61.1127 71.1638 62.1803 70.4751 63.3972ZM60.4534 68.8385C61.3718 68.8385 62.5886 68.2186 64.1039 66.9788C65.6422 65.716 66.595 64.1319 66.9623 62.2263C66.9853 61.9507 67.1804 61.79 67.5478 61.7441C67.4789 60.4354 67.2608 59.7811 66.8934 59.7811C65.9751 59.7811 64.9419 60.378 63.794 61.5719C62.669 62.7658 61.7391 64.04 61.0044 65.3946C60.2927 66.7492 59.9369 67.7479 59.9369 68.3908C59.9369 68.5744 59.9598 68.7007 60.0057 68.7696C60.0746 68.8155 60.2238 68.8385 60.4534 68.8385ZM84.3802 55.4419C85.2526 55.4419 86.1136 55.9584 86.963 56.9916C87.8125 58.0247 88.2373 58.9546 88.2373 59.7811C88.2373 60.3321 87.9962 60.6076 87.5141 60.6076C87.2386 60.6076 86.8368 60.5043 86.3087 60.2977C85.7807 60.0681 85.2411 59.9533 84.6901 59.9533C84.162 59.9533 83.37 60.137 82.3138 60.5043C81.2807 60.8717 80.7641 61.3538 80.7641 61.9507C80.7641 62.1803 81.0741 62.5132 81.6939 62.9495C82.3138 63.3857 82.9911 63.8334 83.7258 64.2926C84.4605 64.7517 85.1378 65.3946 85.7577 66.2211C86.3776 67.0247 86.6875 67.9086 86.6875 68.8729C86.6875 69.8142 85.9873 70.767 84.5868 71.7313C83.2092 72.6956 81.5792 73.1777 79.6965 73.1777C77.8368 73.1777 76.2412 72.753 74.9096 71.9035C73.5779 71.054 72.9121 70.1816 72.9121 69.2862C72.9121 68.3908 73.2795 67.9431 74.0141 67.9431C74.3126 67.9431 74.6685 68.0578 75.0817 68.2874C76.2297 68.9532 77.6532 69.2862 79.3521 69.2862C81.0741 69.2862 81.935 69.0566 81.935 68.5974C81.935 68.1382 81.6021 67.6331 80.9363 67.0821C80.2934 66.5081 79.5817 65.9801 78.8011 65.4979C78.0435 65.0158 77.3317 64.4303 76.6659 63.7415C76.0231 63.0298 75.7016 62.341 75.7016 61.6752C75.7016 60.4354 76.8266 59.0923 79.0766 57.6459C81.3266 56.1765 83.0944 55.4419 84.3802 55.4419ZM104.899 61.8474C104.899 62.9724 104.129 63.9826 102.591 64.878C101.076 65.7734 99.5146 66.2211 97.9075 66.2211C96.3004 66.2211 94.9802 66.1063 93.9471 65.8767C93.7404 66.4966 93.6371 67.1165 93.6371 67.7364C93.6371 68.3563 93.7404 68.804 93.9471 69.0795C94.1537 69.3321 94.6703 69.4583 95.4968 69.4583C97.2187 69.4583 98.6881 69.2976 99.9049 68.9762C101.145 68.6548 101.788 68.4941 101.834 68.4941C102.775 68.4941 103.245 68.804 103.245 69.4239C103.245 70.3193 102.499 71.1688 101.007 71.9724C99.5376 72.7759 97.8272 73.1777 95.8756 73.1777C93.9471 73.1777 92.3973 72.5693 91.2264 71.3525C90.0555 70.1356 89.4701 68.7007 89.4701 67.0476C89.4701 65.3716 89.9522 63.6268 90.9165 61.813C91.9037 59.9992 93.132 58.4839 94.6014 57.2671C96.0708 56.0273 97.5287 55.4074 98.9751 55.4074C100.444 55.4074 101.799 56.1306 103.039 57.577C104.279 59.0005 104.899 60.424 104.899 61.8474ZM100.904 61.2964C100.904 61.0668 100.663 60.7339 100.18 60.2977C99.6983 59.8615 99.2391 59.6434 98.8029 59.6434C98.3897 59.6434 97.8501 59.9533 97.1843 60.5732C96.5185 61.1701 95.8871 61.9507 95.2902 62.915C95.4968 62.938 95.7953 62.9495 96.1856 62.9495C99.331 62.9495 100.904 62.3984 100.904 61.2964ZM130.522 55.4419C131.395 55.4419 132.256 55.9584 133.105 56.9916C133.955 58.0247 134.38 58.9546 134.38 59.7811C134.38 60.3321 134.138 60.6076 133.656 60.6076C133.381 60.6076 132.979 60.5043 132.451 60.2977C131.923 60.0681 131.383 59.9533 130.832 59.9533C130.304 59.9533 129.512 60.137 128.456 60.5043C127.423 60.8717 126.906 61.3538 126.906 61.9507C126.906 62.1803 127.216 62.5132 127.836 62.9495C128.456 63.3857 129.133 63.8334 129.868 64.2926C130.603 64.7517 131.28 65.3946 131.9 66.2211C132.52 67.0247 132.83 67.9086 132.83 68.8729C132.83 69.8142 132.13 70.767 130.729 71.7313C129.352 72.6956 127.721 73.1777 125.839 73.1777C123.979 73.1777 122.383 72.753 121.052 71.9035C119.72 71.054 119.054 70.1816 119.054 69.2862C119.054 68.3908 119.422 67.9431 120.156 67.9431C120.455 67.9431 120.811 68.0578 121.224 68.2874C122.372 68.9532 123.795 69.2862 125.494 69.2862C127.216 69.2862 128.077 69.0566 128.077 68.5974C128.077 68.1382 127.744 67.6331 127.079 67.0821C126.436 66.5081 125.724 65.9801 124.943 65.4979C124.186 65.0158 123.474 64.4303 122.808 63.7415C122.165 63.0298 121.844 62.341 121.844 61.6752C121.844 60.4354 122.969 59.0923 125.219 57.6459C127.469 56.1765 129.237 55.4419 130.522 55.4419ZM144.532 59.5056C144.348 60.1255 144.073 60.9979 143.705 62.1229C143.361 63.225 142.925 64.614 142.397 66.29C141.892 67.966 141.639 68.8614 141.639 68.9762C141.639 69.068 141.823 69.114 142.19 69.114C142.58 69.114 143.487 68.8614 144.911 68.3563C146.334 67.8283 147.172 67.5642 147.425 67.5642C147.999 67.5642 148.286 67.9545 148.286 68.7351C148.286 69.5157 147.517 70.4571 145.978 71.5591C144.44 72.6382 142.833 73.1777 141.157 73.1777C140.422 73.1777 139.55 72.7759 138.54 71.9724C137.529 71.1688 137.024 70.3537 137.024 69.5272C137.024 68.8385 137.369 67.392 138.057 65.188C138.769 62.9609 139.251 61.4342 139.504 60.6076C138.608 60.8602 137.931 60.9865 137.472 60.9865C137.013 60.9865 136.531 60.6765 136.026 60.0566C135.521 59.4138 135.268 58.8054 135.268 58.2314C135.268 57.4967 137.047 56.8768 140.606 56.3717C141.042 54.2365 141.26 52.3883 141.26 50.8271C141.26 50.1383 141.605 49.7939 142.293 49.7939C142.89 49.7939 143.648 50.1613 144.566 50.896C145.508 51.6077 145.978 52.3194 145.978 53.0312C145.978 53.7199 145.829 54.6957 145.531 55.9584C146.633 55.9125 147.471 55.8896 148.045 55.8896C149.767 55.8896 150.628 56.2799 150.628 57.0605C150.628 57.5656 150.122 58.0018 149.112 58.3691C148.125 58.7135 146.598 59.0923 144.532 59.5056ZM163.238 56.2684C163.422 55.6944 163.789 55.4074 164.34 55.4074C164.891 55.4074 165.522 55.8781 166.234 56.8194C166.969 57.7607 167.336 58.5758 167.336 59.2645C167.336 59.5171 166.808 61.2046 165.752 64.327C164.696 67.4494 163.881 69.9175 163.307 71.7313C162.985 72.6956 162.446 73.1777 161.688 73.1777C161.229 73.1777 160.839 73.017 160.517 72.6956C160.219 72.3512 160.07 71.8231 160.07 71.1114C160.07 70.3997 160.207 69.3895 160.483 68.0808C158.118 71.4787 156.235 73.1777 154.835 73.1777C154.1 73.1777 153.216 72.7071 152.183 71.7657C151.15 70.8014 150.633 69.8716 150.633 68.9762C150.633 66.7721 151.253 63.9597 152.493 60.5388C153.756 57.1179 154.938 55.4074 156.04 55.4074C156.706 55.4074 157.292 55.7059 157.797 56.3028C158.325 56.8998 158.589 57.5541 158.589 58.2658C158.589 58.5413 158.302 59.3105 157.728 60.5732C155.983 64.3614 155.11 67.0362 155.11 68.5974C155.11 68.7351 155.168 68.804 155.283 68.804C155.627 68.804 156.27 68.2645 157.211 67.1854C158.176 66.0834 159.243 64.5222 160.414 62.5018C161.608 60.4584 162.549 58.3806 163.238 56.2684ZM182.604 45.7646C183.155 45.7646 183.878 46.2697 184.773 47.2799C185.669 48.2672 186.116 49.197 186.116 50.0694C186.116 50.5057 185.715 52.3194 184.911 55.5107C184.108 58.702 183.625 60.6306 183.465 61.2964C181.628 69.2173 180.285 73.1777 179.435 73.1777C178.953 73.1777 178.414 72.8907 177.817 72.3167C177.22 71.7428 176.921 71.1803 176.921 70.6293C176.921 70.5145 176.933 70.4226 176.956 70.3537C174.66 72.2364 173.007 73.1777 171.997 73.1777C171.009 73.1777 170.045 72.6497 169.104 71.5935C168.185 70.5145 167.726 69.5387 167.726 68.6663C167.726 67.7938 167.841 66.8295 168.071 65.7734C168.323 64.6943 168.702 63.5579 169.207 62.364C169.712 61.1701 170.286 60.0566 170.929 59.0235C171.595 57.9673 172.387 57.1064 173.305 56.4406C174.247 55.7518 175.211 55.4074 176.198 55.4074C177.668 55.4074 178.873 56.1536 179.814 57.6459C181.054 52.2046 181.651 48.5886 181.605 46.7978C181.605 46.109 181.938 45.7646 182.604 45.7646ZM172.444 68.804C173.018 68.804 173.983 68.3104 175.337 67.3232C176.715 66.3359 177.736 65.0847 178.402 63.5694C178.379 63.3857 178.368 62.9839 178.368 62.364C178.368 61.7441 178.161 61.1587 177.748 60.6076C177.335 60.0566 176.956 59.7811 176.611 59.7811C175.923 59.7811 175.257 60.1485 174.614 60.8831C173.994 61.6178 173.5 62.4903 173.133 63.5005C172.353 65.6357 171.962 67.2543 171.962 68.3563C171.962 68.54 171.985 68.6663 172.031 68.7351C172.1 68.7811 172.238 68.804 172.444 68.804ZM199.309 56.2684C199.446 55.6944 199.825 55.4074 200.445 55.4074C201.065 55.4074 201.696 55.7977 202.339 56.5783C203.005 57.3589 203.338 58.2429 203.338 59.2301C203.338 59.8041 203.131 60.711 202.718 61.9507C202.305 63.1905 202.006 64.0745 201.823 64.6025C201.662 65.1306 201.421 65.8538 201.099 66.7721C200.778 67.6675 200.48 68.5055 200.204 69.2862C199.951 70.0438 199.596 71.0655 199.136 72.3512C198.7 73.6369 198.298 74.8308 197.931 75.9328C197.219 77.9991 196.347 79.5948 195.314 80.7198C194.304 81.8447 192.983 82.4072 191.353 82.4072C189.723 82.4072 188.265 81.971 186.98 81.0986C185.694 80.2491 185.051 79.3881 185.051 78.5157C185.051 77.9876 185.281 77.4022 185.74 76.7593C186.222 76.1165 186.624 75.795 186.945 75.795C187.29 75.795 187.726 76.0591 188.254 76.5871C188.805 77.1381 189.367 77.6777 189.941 78.2057C190.515 78.7568 191.02 79.0323 191.457 79.0323C191.755 79.0323 191.996 78.8945 192.18 78.619C192.386 78.3435 192.547 78.0909 192.662 77.8614C192.8 77.6547 192.937 77.3563 193.075 76.966C193.213 76.5986 193.339 76.2542 193.454 75.9328C193.569 75.6114 193.707 75.1866 193.867 74.6586C194.028 74.1305 194.166 73.6599 194.281 73.2466C194.671 72.0068 195.004 70.9048 195.279 69.9405C194.522 70.9277 193.741 71.7198 192.937 72.3167C192.134 72.8907 191.388 73.1777 190.699 73.1777C190.033 73.1777 189.195 72.6726 188.185 71.6624C187.198 70.6293 186.704 69.5043 186.704 68.2874C186.704 67.0476 186.968 65.3946 187.496 63.3283C188.047 61.262 188.724 59.4252 189.528 57.8181C190.332 56.211 191.043 55.4074 191.663 55.4074C192.375 55.4074 193.041 55.7174 193.661 56.3373C194.304 56.9342 194.625 57.5196 194.625 58.0936C194.625 58.6446 194.338 59.54 193.764 60.7798C193.213 62.0196 192.65 63.3742 192.076 64.8436C191.503 66.313 191.216 67.5642 191.216 68.5974C191.216 68.7351 191.273 68.804 191.388 68.804C191.686 68.804 192.318 68.253 193.282 67.151C194.246 66.026 195.325 64.4418 196.519 62.3984C197.736 60.3321 198.666 58.2888 199.309 56.2684Z" fill="white"/>
</svg>
