<svg width="138" height="105" viewBox="0 0 138 105" fill="none" xmlns="http://www.w3.org/2000/svg">
<g filter="url(#filter0_i_1163_127449)">
<g clip-path="url(#clip0_1163_127449)">
<path d="M136.821 44.8868L113.184 101.795L0.730799 61.8897L0.609797 59.4547L23.9765 1.18851L136.821 44.8868Z" fill="#CF8123"/>
<path d="M113.709 99.5804L115.663 100.022L113.709 99.5804ZM115.607 97.1096L114.184 95.7156L115.607 97.1096ZM116.205 95.7328L118.211 95.775L116.205 95.7328ZM116.252 94.1344L118.258 94.1765L116.252 94.1344ZM116.632 91.8612L118.583 92.3112L116.632 91.8612ZM117.986 89.1719L119.538 90.4239L117.986 89.1719ZM118.486 88.5642L120.037 89.8163L118.486 88.5642ZM119.877 85.8894L121.721 86.6611L119.877 85.8894ZM120.266 84.4288L122.259 84.6483L120.266 84.4288ZM120.908 81.4524L122.667 82.3972L120.908 81.4524ZM121.272 80.7904L119.513 79.8456L121.272 80.7904ZM121.637 80.1284L123.396 81.0732L121.637 80.1284ZM122.611 78.9032L121.25 77.4495L122.611 78.9032ZM123.83 77.7767L125.191 79.2304L123.83 77.7767ZM124.281 76.3407L126.256 75.9701L124.281 76.3407ZM124.121 75.4679L126.097 75.0973L124.121 75.4679ZM124.235 73.0874L122.574 71.9814L124.235 73.0874ZM124.667 72.4525L126.327 73.5585L124.667 72.4525ZM125.098 71.8177L126.759 72.9237L125.098 71.8177ZM125.64 70.4184L127.627 70.6841L125.64 70.4184ZM125.86 68.8894L123.873 68.6238L125.86 68.8894ZM126.589 67.5658L125.246 66.096L126.589 67.5658ZM127.209 67.0066L128.552 68.4764L127.209 67.0066ZM128.647 65.1595L126.71 64.6539L128.647 65.1595ZM128.846 64.4307L130.783 64.9364L128.846 64.4307ZM129.443 62.2451L131.379 62.7551L129.443 62.2451ZM130.281 58.539L128.298 58.2493L130.281 58.539ZM130.4 57.7781L132.383 58.0677L130.4 57.7781ZM131.288 56.5181L132.376 58.1833L131.288 56.5181ZM132.056 56.019L130.968 54.3537L132.056 56.019ZM133.215 53.2505L131.251 53.6805L133.215 53.2505ZM133.025 52.3653L134.988 51.9353L133.025 52.3653ZM133.379 50.8906L131.905 49.5508L133.379 50.8906ZM135.153 48.3699L133.18 48.0211L135.153 48.3699ZM135.435 46.8659L137.408 47.2147L135.435 46.8659ZM135.654 45.4488L133.661 45.2328L135.654 45.4488ZM135.733 44.7838L137.726 44.9998L135.733 44.7838ZM135.811 44.1187L137.805 44.3348L135.811 44.1187ZM134.988 43.6884L135.483 45.6157L134.988 43.6884ZM134.087 43.9232L134.581 45.8505L134.087 43.9232ZM133.185 44.158L132.691 42.2307L133.185 44.158ZM131.642 43.9797L130.541 45.655L131.642 43.9797ZM130.357 43.1536L131.458 41.4783L130.357 43.1536ZM127.687 41.7524L128.583 39.9621L127.687 41.7524ZM126.293 41.1976L126.913 39.2973L126.293 41.1976ZM124.859 40.7467L125.479 38.8463L124.859 40.7467ZM123.577 39.9119L122.094 41.2667L123.577 39.9119ZM122.45 38.6932L123.933 37.3384L122.45 38.6932ZM121.087 38.0621L121.158 36.07L121.087 38.0621ZM119.489 38.0185L119.418 40.0105L119.489 38.0185ZM117.983 37.7467L118.669 35.8686L117.983 37.7467ZM116.567 37.2468L115.881 39.1249L116.567 37.2468ZM115.284 36.4175L113.85 37.8234L115.284 36.4175ZM114.708 35.8383L113.274 37.2441L114.708 35.8383ZM114.132 35.259L115.566 33.8531L114.132 35.259ZM112.693 34.8184L112.998 36.7856L112.693 34.8184ZM111.83 34.9571L111.525 32.99L111.83 34.9571ZM110.967 35.0958L111.272 37.063V37.063L110.967 35.0958ZM109.458 34.8302L110.539 33.142L109.458 34.8302ZM108.166 34.0216L107.086 35.7098L108.166 34.0216ZM106.883 33.191L105.752 34.8465L106.883 33.191ZM106.246 32.7648L107.377 31.1093L106.246 32.7648ZM105.609 32.3385L104.478 33.9939L105.609 32.3385ZM104.185 31.8616L104.331 29.8729V29.8729L104.185 31.8616ZM103.397 31.811L103.251 33.7996L103.397 31.811ZM102.61 31.7603L102.756 29.7717L102.61 31.7603ZM101.116 31.4573L100.423 33.3331L101.116 31.4573ZM99.7028 30.9526L99.0098 32.8284L99.7028 30.9526ZM98.4446 30.06L96.9148 31.3624L98.4446 30.06ZM97.8931 29.4197L99.4229 28.1173L97.8931 29.4197ZM97.3415 28.7795L98.8713 27.477L97.3415 28.7795ZM95.8936 28.3613L95.4227 26.428V26.428L95.8936 28.3613ZM94.9973 28.5833L95.4682 30.5166L94.9973 28.5833ZM94.101 28.8053L93.6301 26.8721L94.101 28.8053ZM92.1648 27.5886L93.7988 26.4181L92.1648 27.5886ZM91.6449 26.8692L90.0108 28.0397L91.6449 26.8692ZM90.3977 25.949L90.9501 24.0288L90.3977 25.949ZM88.9432 25.5474L88.3907 27.4677L88.9432 25.5474ZM87.3505 25.4914L87.0327 23.5264L87.3505 25.4914ZM85.6196 25.781L85.9374 27.746L85.6196 25.781ZM84.0587 25.6453L83.2903 27.4925L84.0587 25.6453ZM83.3633 25.3648L84.1318 23.5177L83.3633 25.3648ZM82.6679 25.0844L81.8995 26.9315L82.6679 25.0844ZM81.4324 24.1351L79.8624 25.3894L81.4324 24.1351ZM80.3521 22.7974L81.922 21.5431L80.3521 22.7974ZM79.0513 22.0112L79.3753 20.042L79.0513 22.0112ZM77.5301 21.7765L77.206 23.7458L77.5301 21.7765ZM76.0643 21.4029L76.7678 19.5309L76.0643 21.4029ZM74.6542 20.8904L73.9506 22.7625L74.6542 20.8904ZM73.2795 20.2892L72.3434 22.0596L73.2795 20.2892ZM71.9402 19.5991L72.8763 17.8287L71.9402 19.5991ZM70.5942 18.9262L71.4866 17.1341L70.5942 18.9262ZM69.2413 18.2705L68.3488 20.0627L69.2413 18.2705ZM67.9023 17.5798L66.9218 19.3265L67.9023 17.5798ZM67.2398 17.2169L66.2594 18.9637L67.2398 17.2169ZM66.5774 16.8541L67.5579 15.1074L66.5774 16.8541ZM64.2259 16.6762L64.4297 18.657L64.2259 16.6762ZM63.3814 16.7686L63.5852 18.7494L63.3814 16.7686ZM61.891 16.4567L60.8105 18.1448L61.891 16.4567ZM61.2451 16.0523L60.1646 17.7405L61.2451 16.0523ZM60.5992 15.648L61.6797 13.9598L60.5992 15.648ZM59.1659 15.1933L59.0207 17.182L59.1659 15.1933ZM57.5911 15.0927L57.7363 13.104L57.5911 15.0927ZM56.2294 14.4588L54.7881 15.8575L56.2294 14.4588ZM55.0809 13.2918L56.5221 11.8932L55.0809 13.2918ZM53.7764 12.515L54.3082 10.5892L53.7764 12.515ZM53.0461 12.3217L52.5142 14.2475L53.0461 12.3217ZM52.3159 12.1284L51.784 14.0542L52.3159 12.1284ZM49.4817 11.1379L50.2107 9.27532L49.4817 11.1379ZM48.0276 10.7353L47.6503 12.6956L48.0276 10.7353ZM46.5219 10.4615L46.8992 8.50117L46.5219 10.4615ZM45.0911 10.0006L44.2087 11.7976L45.0911 10.0006ZM43.7351 9.35259L42.8527 11.1496L43.7351 9.35259ZM42.3802 8.70166L43.2703 6.90833L42.3802 8.70166ZM41.7034 8.37472L42.5934 6.58138L41.7034 8.37472ZM41.0266 8.04778L40.1365 9.84112L41.0266 8.04778ZM39.6634 7.41775L38.8352 9.23968L39.6634 7.41775ZM38.977 7.11466L38.1488 8.9366L38.977 7.11466ZM38.2906 6.81157L39.1188 4.98965L38.2906 6.81157ZM36.8672 6.33227L36.3822 8.2699L36.8672 6.33227ZM36.1301 6.15604L36.6151 4.21841L36.1301 6.15604ZM35.393 5.97982L34.9081 7.91746L35.393 5.97982ZM33.921 5.62195L34.4208 3.68793L33.921 5.62195ZM32.4512 5.25868L32.951 3.32466L32.4512 5.25868ZM31.0243 4.78799L31.8154 2.95018L31.0243 4.78799ZM30.3323 4.49894L29.5411 6.33675L30.3323 4.49894ZM29.6403 4.20989L28.8491 6.0477L29.6403 4.20989ZM28.2692 3.59966L27.394 5.40008L28.2692 3.59966ZM27.59 3.27847L26.7148 5.07889L27.59 3.27847ZM26.9109 2.95729L27.7861 1.15687L26.9109 2.95729ZM25.4434 2.28565L26.276 0.465691L25.4434 2.28565ZM23.8665 1.58472L23.0339 3.40468L23.8665 1.58472ZM22.8651 1.9562L24.7909 2.50205L22.8651 1.9562ZM22.439 3.40007L20.5131 2.85422L22.439 3.40007ZM22.2289 4.92785L20.2218 4.95145L22.2289 4.92785ZM22.2319 5.73369L24.2391 5.7101L22.2319 5.73369ZM22.2349 6.53954L24.242 6.51594L22.2349 6.53954ZM21.6887 8.74144L23.5576 9.45318L21.6887 8.74144ZM21.4141 9.43947L19.5453 8.72773L21.4141 9.43947ZM20.6666 10.7585L22.2639 11.9522L20.6666 10.7585ZM19.7207 12.0004L18.1233 10.8067L19.7207 12.0004ZM18.8858 13.2855L20.6494 14.2226L18.8858 13.2855ZM18.5239 13.9496L16.7603 13.0124L18.5239 13.9496ZM18.162 14.6137L16.3984 13.6766L18.162 14.6137ZM17.4739 15.9558L19.2838 16.8028L17.4739 15.9558ZM17.1477 16.6337L18.9575 17.4807L17.1477 16.6337ZM16.8215 17.3117L15.0117 16.4647L16.8215 17.3117ZM16.165 18.6661L17.9698 19.5235L16.165 18.6661ZM15.8348 19.3425L17.6395 20.1999L15.8348 19.3425ZM15.5045 20.0189L17.3092 20.8763L15.5045 20.0189ZM14.9902 21.4285L13.0428 20.9617L14.9902 21.4285ZM14.8063 22.1617L16.7537 22.6285L14.8063 22.1617ZM14.6223 22.8949L16.5697 23.3617L14.6223 22.8949ZM13.492 25.6746L11.6691 24.8554L13.492 25.6746ZM12.779 27.007L11.0655 25.9831L12.779 27.007ZM12.3814 27.6573L14.0949 28.6812L12.3814 27.6573ZM11.9838 28.3075L13.6973 29.3314L11.9838 28.3075ZM11.6283 29.7788L13.6329 29.6613L11.6283 29.7788ZM11.7124 31.4208L9.70783 31.5383L11.7124 31.4208ZM11.6373 33.001L9.65336 32.715L11.6373 33.001ZM11.4031 34.5194L13.387 34.8054L11.4031 34.5194ZM10.882 35.9264L9.17777 34.8876L10.882 35.9264ZM10.0743 37.222L11.7785 38.2608L10.0743 37.222ZM9.35993 38.5539L7.53109 37.7476L9.35993 38.5539ZM8.739 39.9221L10.5678 40.7283L8.739 39.9221ZM8.19081 41.3185L10.0956 41.9313L8.19081 41.3185ZM7.95308 42.0308L6.04828 41.418L7.95308 42.0308ZM7.71535 42.7432L5.81056 42.1304L7.71535 42.7432ZM7.21001 44.1562L9.08606 44.8494L7.21001 44.1562ZM6.67477 45.5577L4.79872 44.8645L6.67477 45.5577ZM5.84508 46.8448L7.29363 48.2124L5.84508 46.8448ZM5.28301 47.4311L3.83446 46.0635L5.28301 47.4311ZM4.72094 48.0175L3.27239 46.6498L4.72094 48.0175ZM4.12088 49.3938L2.11599 49.315L4.12088 49.3938ZM4.0829 50.1837L2.07801 50.1049L4.0829 50.1837ZM4.04491 50.9736L6.04981 51.0524L4.04491 50.9736ZM3.67324 52.4386L1.87277 51.5725L3.67324 52.4386ZM3.33954 53.1137L5.13999 53.9799L3.33954 53.1137ZM3.00583 53.7888L4.80629 54.6549L3.00583 53.7888ZM1.37855 57.9726L3.26451 58.6393L1.37855 57.9726ZM0.870892 59.3605L-1.01508 58.6938L0.870892 59.3605ZM0.845567 60.8053L2.76735 60.2147L0.845567 60.8053ZM1.30258 62.307L-0.619196 62.8977L1.30258 62.307ZM4.17142 62.3954L4.64821 64.3272L4.17142 62.3954ZM5.56916 62.941L7.23906 61.8218L5.56916 62.941ZM7.83776 65.4672L7.21292 67.366L7.83776 65.4672ZM11.5672 66.1909L11.4961 68.1829L11.5672 66.1909ZM12.3583 66.2123L12.4295 64.2202L12.3583 66.2123ZM13.925 66.2979L13.7419 68.2838L13.925 66.2979ZM14.7004 66.3621L14.5174 68.348L14.7004 66.3621ZM15.4759 66.4263L15.6589 64.4404L15.4759 66.4263ZM16.9576 66.7432L16.2636 68.6186L16.9576 66.7432ZM21.2311 68.1612L20.6251 70.0658L21.2311 68.1612ZM22.494 69.0741L24.0801 67.84L22.494 69.0741ZM23.0386 69.7669L21.4525 71.001L23.0386 69.7669ZM23.5833 70.4598L25.1694 69.2258L23.5833 70.4598ZM24.8962 71.2363L25.1311 69.2553L24.8962 71.2363ZM25.6646 71.3199L25.8994 69.339L25.6646 71.3199ZM26.4329 71.4036L26.198 73.3845L26.4329 71.4036ZM27.8695 71.8433L28.8297 70.0856L27.8695 71.8433ZM29.2061 72.5553L28.2459 74.313L29.2061 72.5553ZM30.6358 73.0138L30.3503 74.9886L30.6358 73.0138ZM32.1586 73.2187L31.8731 75.1935L32.1586 73.2187ZM33.6025 73.6386L34.4662 71.8328L33.6025 73.6386ZM34.285 73.9561L35.1487 72.1502L34.285 73.9561ZM34.9675 74.2735L34.1038 76.0793L34.9675 74.2735ZM36.4678 74.5396L36.5782 76.5284L36.4678 74.5396ZM38.1036 74.4369L38.214 76.4257L38.1036 74.4369ZM39.4523 75.116L37.8212 76.2906L39.4523 75.116ZM40.5139 76.5771L42.145 75.4025L40.5139 76.5771ZM41.8819 77.2038L42.1145 79.1812L41.8819 77.2038ZM43.5562 76.9962L43.3235 75.0188L43.5562 76.9962ZM45.0537 77.2699L46.0658 75.5408L45.0537 77.2699ZM46.3746 78.0249L47.3867 76.2958L46.3746 78.0249ZM48.4169 78.9912L49.2212 77.1589L48.4169 78.9912ZM50.6137 79.5365L50.705 81.5265L50.6137 79.5365ZM54.2961 80.3883L55.5572 78.8277L54.2961 80.3883ZM54.9149 80.8793L56.176 79.3188L54.9149 80.8793ZM58.9297 83.0019L60.1624 81.4192L58.9297 83.0019ZM60.1775 83.9558L58.9448 85.5385L60.1775 83.9558ZM61.6472 84.3054L61.3622 82.3352L61.6472 84.3054ZM63.3388 84.0508L63.6238 86.021L63.3388 84.0508ZM66.2693 84.774L67.0452 82.9299L66.2693 84.774ZM67.606 85.4861L68.7355 83.8297L67.606 85.4861ZM68.8893 86.3431L70.0189 84.6867L68.8893 86.3431ZM70.2027 87.1185L71.1402 85.3488L70.2027 87.1185ZM74.4104 88.7159L73.8978 90.6468L74.4104 88.7159ZM75.9186 88.9606L75.7493 90.9477L75.9186 88.9606ZM79.7225 89.4813L80.1972 87.5413L79.7225 89.4813ZM80.4585 89.6532L79.9838 91.5933L80.4585 89.6532ZM81.9295 89.9992L82.4105 88.0606L81.9295 89.9992ZM83.3996 90.3475L82.9186 92.2861L83.3996 90.3475ZM84.6823 91.2065L86.2582 89.9595L84.6823 91.2065ZM85.2299 91.8912L83.6541 93.1382L85.2299 91.8912ZM85.7776 92.576L87.3534 91.329L85.7776 92.576ZM87.1929 93.0736L87.6035 95.0209L87.1929 93.0736ZM88.0606 92.8865L88.4713 94.8337L88.0606 92.8865ZM88.9284 92.6994L88.5177 90.7521L88.9284 92.6994ZM90.4595 92.8817L89.4666 94.6217L90.4595 92.8817ZM94.5878 94.6951L93.9412 96.5869L94.5878 94.6951ZM95.9539 95.3269L97.0114 93.6246L95.9539 95.3269ZM97.2606 96.1204L98.3181 94.4181L97.2606 96.1204ZM98.6636 96.6517L98.291 98.6129L98.6636 96.6517ZM102.178 97.9615L103.361 96.3421L102.178 97.9615ZM104.204 98.972L103.914 100.946L104.204 98.972ZM105.725 99.1804L105.435 101.155L105.725 99.1804ZM107.087 99.8242L108.44 98.3413L107.087 99.8242ZM110.639 101.03L111.088 102.969L110.639 101.03ZM111.514 100.824L111.963 102.763L111.514 100.824ZM112.588 100.912L114.258 99.7929L112.588 100.912ZM112.786 101.206L114.456 100.087L112.786 101.206ZM112.985 101.501L114.655 100.382L112.985 101.501ZM113.534 100.319L115.488 100.76L115.663 100.022L113.709 99.5804L111.756 99.1386L111.581 99.8768L113.534 100.319ZM113.709 99.5804L115.663 100.022C115.689 99.9138 115.742 99.7989 115.881 99.6586L114.459 98.2647L113.036 96.8707C112.41 97.5005 111.964 98.2628 111.756 99.1386L113.709 99.5804ZM114.459 98.2647L115.881 99.6586L116.456 99.0811L115.033 97.6871L113.61 96.2932L113.036 96.8707L114.459 98.2647ZM115.033 97.6871L116.456 99.0811L117.03 98.5035L115.607 97.1096L114.184 95.7156L113.61 96.2932L115.033 97.6871ZM115.607 97.1096L117.03 98.5035C117.768 97.7609 118.18 96.8204 118.211 95.775L116.205 95.7328L114.198 95.6907C114.198 95.7086 114.196 95.7158 114.196 95.7145C114.197 95.7131 114.198 95.7076 114.201 95.7005C114.204 95.6933 114.207 95.6896 114.206 95.6903C114.206 95.6913 114.2 95.7 114.184 95.7156L115.607 97.1096ZM116.205 95.7328L118.211 95.775L118.234 94.9757L116.228 94.9336L114.222 94.8915L114.198 95.6907L116.205 95.7328ZM116.228 94.9336L118.234 94.9757L118.258 94.1765L116.252 94.1344L114.245 94.0923L114.222 94.8915L116.228 94.9336ZM116.252 94.1344L118.258 94.1765C118.27 93.7733 118.32 93.3984 118.405 93.0482L116.454 92.5982L114.502 92.1482C114.349 92.7807 114.265 93.4298 114.245 94.0923L116.252 94.1344ZM116.454 92.5982L118.405 93.0482L118.583 92.3112L116.632 91.8612L114.68 91.4112L114.502 92.1482L116.454 92.5982ZM116.632 91.8612L118.583 92.3112L118.761 91.5742L116.81 91.1242L114.858 90.6742L114.68 91.4112L116.632 91.8612ZM116.81 91.1242L118.761 91.5742C118.807 91.386 118.892 91.2102 119.038 91.0316L117.487 89.7796L115.936 88.5275C115.417 89.1591 115.05 89.8798 114.858 90.6742L116.81 91.1242ZM117.487 89.7796L119.038 91.0316L119.538 90.4239L117.986 89.1719L116.435 87.9198L115.936 88.5275L117.487 89.7796ZM117.986 89.1719L119.538 90.4239L120.037 89.8163L118.486 88.5642L116.935 87.3122L116.435 87.9198L117.986 89.1719ZM118.486 88.5642L120.037 89.8163C120.484 89.2719 120.85 88.679 121.126 88.0392L119.282 87.2675L117.438 86.4958C117.318 86.7747 117.153 87.0463 116.935 87.3122L118.486 88.5642ZM119.282 87.2675L121.126 88.0392L121.424 87.3501L119.579 86.5784L117.735 85.8067L117.438 86.4958L119.282 87.2675ZM119.579 86.5784L121.424 87.3501L121.721 86.6611L119.877 85.8894L118.032 85.1176L117.735 85.8067L119.579 86.5784ZM119.877 85.8894L121.721 86.6611C121.998 86.0187 122.176 85.3452 122.259 84.6483L120.266 84.4288L118.273 84.2094C118.233 84.541 118.152 84.8412 118.032 85.1176L119.877 85.8894ZM120.266 84.4288L122.259 84.6483L122.352 83.8768L120.359 83.6573L118.366 83.4379L118.273 84.2094L120.266 84.4288ZM120.359 83.6573L122.352 83.8768L122.444 83.1053L120.451 82.8858L118.458 82.6664L118.366 83.4379L120.359 83.6573ZM120.451 82.8858L122.444 83.1053C122.476 82.8366 122.552 82.6061 122.667 82.3972L120.908 81.4524L119.149 80.5076C118.778 81.1813 118.549 81.9064 118.458 82.6664L120.451 82.8858ZM120.908 81.4524L122.667 82.3972L123.032 81.7352L121.272 80.7904L119.513 79.8456L119.149 80.5076L120.908 81.4524ZM121.272 80.7904L123.032 81.7352L123.396 81.0732L121.637 80.1284L119.877 79.1837L119.513 79.8456L121.272 80.7904ZM121.637 80.1284L123.396 81.0732C123.525 80.8388 123.71 80.599 123.972 80.3569L122.611 78.9032L121.25 77.4495C120.699 77.9584 120.234 78.5355 119.877 79.1837L121.637 80.1284ZM122.611 78.9032L123.972 80.3569L124.581 79.7937L123.221 78.34L121.86 76.8863L121.25 77.4495L122.611 78.9032ZM123.221 78.34L124.581 79.7937L125.191 79.2304L123.83 77.7767L122.469 76.3231L121.86 76.8863L123.221 78.34ZM123.83 77.7767L125.191 79.2304C126.148 78.3463 126.473 77.1586 126.256 75.9701L124.281 76.3407L122.305 76.7113C122.312 76.7444 122.294 76.6779 122.332 76.5578C122.371 76.4307 122.44 76.3504 122.469 76.3231L123.83 77.7767ZM124.281 76.3407L126.256 75.9701L126.097 75.0973L124.121 75.4679L122.146 75.8385L122.305 76.7113L124.281 76.3407ZM124.121 75.4679L126.097 75.0973L125.937 74.2244L123.962 74.595L121.987 74.9657L122.146 75.8385L124.121 75.4679ZM123.962 74.595L125.937 74.2244C125.92 74.1299 125.929 74.1009 125.926 74.1183C125.925 74.1264 125.921 74.1402 125.915 74.1566C125.908 74.1731 125.901 74.1857 125.895 74.1934L124.235 73.0874L122.574 71.9814C121.943 72.9096 121.804 73.9618 121.987 74.9657L123.962 74.595ZM124.235 73.0874L125.895 74.1934L126.327 73.5585L124.667 72.4525L123.006 71.3466L122.574 71.9814L124.235 73.0874ZM124.667 72.4525L126.327 73.5585L126.759 72.9237L125.098 71.8177L123.438 70.7117L123.006 71.3466L124.667 72.4525ZM125.098 71.8177L126.759 72.9237C127.22 72.2453 127.511 71.491 127.627 70.6841L125.64 70.4184L123.653 70.1527C123.623 70.3651 123.552 70.5436 123.438 70.7117L125.098 71.8177ZM125.64 70.4184L127.627 70.6841L127.737 69.9196L125.75 69.6539L123.763 69.3882L123.653 70.1527L125.64 70.4184ZM125.75 69.6539L127.737 69.9196L127.847 69.1551L125.86 68.8894L123.873 68.6238L123.763 69.3882L125.75 69.6539ZM125.86 68.8894L127.847 69.1551C127.849 69.1415 127.851 69.1342 127.852 69.1313C127.853 69.1284 127.854 69.1257 127.856 69.122C127.859 69.1166 127.876 69.0866 127.933 69.0356L126.589 67.5658L125.246 66.096C124.511 66.759 124.018 67.616 123.873 68.6238L125.86 68.8894ZM126.589 67.5658L127.933 69.0356L128.552 68.4764L127.209 67.0066L125.866 65.5368L125.246 66.096L126.589 67.5658ZM127.209 67.0066L128.552 68.4764L129.172 67.9173L127.829 66.4475L126.486 64.9776L125.866 65.5368L127.209 67.0066ZM127.829 66.4475L129.172 67.9173C129.843 67.3123 130.341 66.558 130.585 65.6652L128.647 65.1595L126.71 64.6539C126.689 64.7327 126.642 64.837 126.486 64.9776L127.829 66.4475ZM128.647 65.1595L130.585 65.6652L130.783 64.9364L128.846 64.4307L126.909 63.9251L126.71 64.6539L128.647 65.1595ZM128.846 64.4307L130.783 64.9364L130.982 64.2076L129.044 63.702L127.107 63.1963L126.909 63.9251L128.846 64.4307ZM129.044 63.702L130.982 64.2076C131.114 63.7232 131.246 63.239 131.379 62.7551L129.443 62.2451L127.507 61.7351C127.373 62.2219 127.24 62.709 127.107 63.1963L129.044 63.702ZM129.443 62.2451L131.379 62.7551L131.579 62.0269L129.643 61.5169L127.707 61.007L127.507 61.7351L129.443 62.2451ZM129.643 61.5169L131.579 62.0269L131.779 61.2988L129.843 60.7888L127.907 60.2788L127.707 61.007L129.643 61.5169ZM129.843 60.7888L131.779 61.2988C131.933 60.7393 132.055 60.1694 132.146 59.5894L130.162 59.2998L128.179 59.0102C128.111 59.4448 128.02 59.8675 127.907 60.2788L129.843 60.7888ZM130.162 59.2998L132.146 59.5894L132.265 58.8286L130.281 58.539L128.298 58.2493L128.179 59.0102L130.162 59.2998ZM130.281 58.539L132.265 58.8286L132.383 58.0677L130.4 57.7781L128.417 57.4885L128.298 58.2493L130.281 58.539ZM130.4 57.7781L132.383 58.0677C132.38 58.0872 132.374 58.1138 132.362 58.1437C132.35 58.1736 132.335 58.1982 132.323 58.2159C132.298 58.2519 132.297 58.2347 132.376 58.1833L131.288 56.5181L130.199 54.8529C129.301 55.4358 128.6 56.3155 128.417 57.4885L130.4 57.7781ZM131.288 56.5181L132.376 58.1833L133.145 57.6842L132.056 56.019L130.968 54.3537L130.199 54.8529L131.288 56.5181ZM132.056 56.019L133.145 57.6842L133.914 57.1851L132.825 55.5198L131.737 53.8546L130.968 54.3537L132.056 56.019ZM132.825 55.5198L133.914 57.1851C134.437 56.8456 134.923 56.3542 135.207 55.6758C135.491 54.9969 135.497 54.3101 135.368 53.7055L133.404 54.1356L131.441 54.5656C131.438 54.5512 131.411 54.3901 131.502 54.1727C131.593 53.9556 131.726 53.8613 131.737 53.8546L132.825 55.5198ZM133.404 54.1356L135.368 53.7055L135.178 52.8204L133.215 53.2505L131.251 53.6805L131.441 54.5656L133.404 54.1356ZM133.215 53.2505L135.178 52.8204L134.988 51.9353L133.025 52.3653L131.062 52.7954L131.251 53.6805L133.215 53.2505ZM133.025 52.3653L134.988 51.9353C134.975 51.8729 134.994 51.9073 134.971 52.0017C134.96 52.0475 134.942 52.0949 134.918 52.1394C134.894 52.1834 134.87 52.2136 134.854 52.2305L133.379 50.8906L131.905 49.5508C131.034 50.4941 130.821 51.6746 131.062 52.7954L133.025 52.3653ZM133.379 50.8906L134.854 52.2305L135.398 51.6409L133.924 50.3011L132.449 48.9612L131.905 49.5508L133.379 50.8906ZM133.924 50.3011L135.398 51.6409L135.943 51.0514L134.468 49.7115L132.993 48.3716L132.449 48.9612L133.924 50.3011ZM134.468 49.7115L135.943 51.0514C136.55 50.3929 136.96 49.6059 137.126 48.7187L135.153 48.3699L133.18 48.0211C133.158 48.1365 133.111 48.244 132.993 48.3716L134.468 49.7115ZM135.153 48.3699L137.126 48.7187L137.267 47.9667L135.294 47.6179L133.321 47.2691L133.18 48.0211L135.153 48.3699ZM135.294 47.6179L137.267 47.9667L137.408 47.2147L135.435 46.8659L133.461 46.5171L133.321 47.2691L135.294 47.6179ZM135.435 46.8659L137.408 47.2147C137.509 46.6754 137.589 46.1584 137.647 45.6649L135.654 45.4488L133.661 45.2328C133.614 45.626 133.548 46.0538 133.461 46.5171L135.435 46.8659ZM135.654 45.4488L137.647 45.6649L137.726 44.9998L135.733 44.7838L133.739 44.5677L133.661 45.2328L135.654 45.4488ZM135.733 44.7838L137.726 44.9998L137.805 44.3348L135.811 44.1187L133.818 43.9026L133.739 44.5677L135.733 44.7838ZM135.811 44.1187L137.805 44.3348C137.876 43.727 137.775 42.5329 136.591 41.9137C135.743 41.47 134.866 41.6642 134.494 41.7611L134.988 43.6884L135.483 45.6157C135.535 45.602 135.496 45.6183 135.392 45.6198C135.295 45.6213 135.021 45.6121 134.698 45.4435C134.328 45.25 134.049 44.9266 133.909 44.5563C133.788 44.2359 133.808 43.9832 133.818 43.9026L135.811 44.1187ZM134.988 43.6884L134.494 41.7611L133.592 41.9959L134.087 43.9232L134.581 45.8505L135.483 45.6157L134.988 43.6884ZM134.087 43.9232L133.592 41.9959L132.691 42.2307L133.185 44.158L133.68 46.0853L134.581 45.8505L134.087 43.9232ZM133.185 44.158L132.691 42.2307C132.586 42.2579 132.562 42.2474 132.597 42.2514C132.614 42.2534 132.639 42.2583 132.669 42.2688C132.698 42.2793 132.723 42.2923 132.742 42.3045L131.642 43.9797L130.541 45.655C131.537 46.2959 132.658 46.3516 133.68 46.0853L133.185 44.158ZM131.642 43.9797L132.742 42.3045L132.1 41.8914L130.999 43.5667L129.898 45.2419L130.541 45.655L131.642 43.9797ZM130.999 43.5667L132.1 41.8914L131.458 41.4783L130.357 43.1536L129.256 44.8288L129.898 45.2419L130.999 43.5667ZM130.357 43.1536L131.458 41.4783C130.965 41.1613 130.457 40.8753 129.935 40.6208L129.039 42.4111L128.142 44.2015C128.521 44.3861 128.892 44.595 129.256 44.8288L130.357 43.1536ZM129.039 42.4111L129.935 40.6208L129.259 40.2914L128.363 42.0818L127.466 43.8721L128.142 44.2015L129.039 42.4111ZM128.363 42.0818L129.259 40.2914L128.583 39.9621L127.687 41.7524L126.791 43.5428L127.466 43.8721L128.363 42.0818ZM127.687 41.7524L128.583 39.9621C128.043 39.6992 127.487 39.4774 126.913 39.2973L126.293 41.1976L125.674 43.098C126.057 43.2185 126.429 43.3666 126.791 43.5428L127.687 41.7524ZM126.293 41.1976L126.913 39.2973L126.196 39.0718L125.576 40.9722L124.956 42.8725L125.674 43.098L126.293 41.1976ZM125.576 40.9722L126.196 39.0718L125.479 38.8463L124.859 40.7467L124.239 42.647L124.956 42.8725L125.576 40.9722ZM124.859 40.7467L125.479 38.8463C125.367 38.8112 125.228 38.7382 125.06 38.557L123.577 39.9119L122.094 41.2667C122.679 41.898 123.394 42.3816 124.239 42.647L124.859 40.7467ZM123.577 39.9119L125.06 38.557L124.496 37.9477L123.013 39.3025L121.53 40.6574L122.094 41.2667L123.577 39.9119ZM123.013 39.3025L124.496 37.9477L123.933 37.3384L122.45 38.6932L120.966 40.048L121.53 40.6574L123.013 39.3025ZM122.45 38.6932L123.933 37.3384C123.212 36.56 122.258 36.1 121.158 36.07L121.087 38.0621L121.015 40.0541C121.023 40.0543 121.019 40.0549 121.007 40.0522C120.995 40.0494 120.981 40.0447 120.966 40.038C120.952 40.0314 120.944 40.0256 120.942 40.0245C120.941 40.0236 120.95 40.0298 120.966 40.048L122.45 38.6932ZM121.087 38.0621L121.158 36.07L120.359 36.0482L120.288 38.0403L120.216 40.0323L121.015 40.0541L121.087 38.0621ZM120.288 38.0403L120.359 36.0482L119.561 36.0264L119.489 38.0185L119.418 40.0105L120.216 40.0323L120.288 38.0403ZM119.489 38.0185L119.561 36.0264C119.225 36.0172 118.932 35.9613 118.669 35.8686L117.983 37.7467L117.296 39.6248C117.977 39.8654 118.688 39.9906 119.418 40.0105L119.489 38.0185ZM117.983 37.7467L118.669 35.8686L117.962 35.6186L117.275 37.4967L116.589 39.3748L117.296 39.6248L117.983 37.7467ZM117.275 37.4967L117.962 35.6186L117.254 35.3686L116.567 37.2468L115.881 39.1249L116.589 39.3748L117.275 37.4967ZM116.567 37.2468L117.254 35.3686C117.09 35.3106 116.912 35.2066 116.718 35.0117L115.284 36.4175L113.85 37.8234C114.424 38.4008 115.102 38.8496 115.881 39.1249L116.567 37.2468ZM115.284 36.4175L116.718 35.0117L116.142 34.4324L114.708 35.8383L113.274 37.2441L113.85 37.8234L115.284 36.4175ZM114.708 35.8383L116.142 34.4324L115.566 33.8531L114.132 35.259L112.698 36.6649L113.274 37.2441L114.708 35.8383ZM114.132 35.259L115.566 33.8531C114.698 32.9804 113.557 32.6634 112.388 32.8513L112.693 34.8184L112.998 36.7856C113.029 36.7806 112.976 36.7937 112.879 36.764C112.833 36.75 112.791 36.7305 112.756 36.7091C112.722 36.688 112.703 36.6703 112.698 36.6649L114.132 35.259ZM112.693 34.8184L112.388 32.8513L111.525 32.99L111.83 34.9571L112.135 36.9243L112.998 36.7856L112.693 34.8184ZM111.83 34.9571L111.525 32.99L110.662 33.1287L110.967 35.0958L111.272 37.063L112.135 36.9243L111.83 34.9571ZM110.967 35.0958L110.662 33.1287C110.567 33.144 110.526 33.1368 110.524 33.1365C110.523 33.1362 110.526 33.1367 110.531 33.1387C110.537 33.1408 110.539 33.1426 110.539 33.142L109.458 34.8302L108.378 36.5184C109.277 37.081 110.286 37.2214 111.272 37.063L110.967 35.0958ZM109.458 34.8302L110.539 33.142L109.893 32.7377L108.812 34.4259L107.732 36.1141L108.378 36.5184L109.458 34.8302ZM108.812 34.4259L109.893 32.7377L109.247 32.3334L108.166 34.0216L107.086 35.7098L107.732 36.1141L108.812 34.4259ZM108.166 34.0216L109.247 32.3334C108.833 32.0746 108.422 31.8087 108.014 31.5356L106.883 33.191L105.752 34.8465C106.194 35.1418 106.638 35.4296 107.086 35.7098L108.166 34.0216ZM106.883 33.191L108.014 31.5356L107.377 31.1093L106.246 32.7648L105.115 34.4202L105.752 34.8465L106.883 33.191ZM106.246 32.7648L107.377 31.1093L106.74 30.6831L105.609 32.3385L104.478 33.9939L105.115 34.4202L106.246 32.7648ZM105.609 32.3385L106.74 30.6831C106.016 30.1985 105.2 29.9288 104.331 29.8729L104.185 31.8616L104.039 33.8502C104.219 33.8619 104.353 33.9101 104.478 33.9939L105.609 32.3385ZM104.185 31.8616L104.331 29.8729L103.543 29.8223L103.397 31.811L103.251 33.7996L104.039 33.8502L104.185 31.8616ZM103.397 31.811L103.543 29.8223L102.756 29.7717L102.61 31.7603L102.464 33.749L103.251 33.7996L103.397 31.811ZM102.61 31.7603L102.756 29.7717C102.409 29.7494 102.096 29.684 101.809 29.5815L101.116 31.4573L100.423 33.3331C101.078 33.5672 101.761 33.7038 102.464 33.749L102.61 31.7603ZM101.116 31.4573L101.809 29.5815L101.103 29.3291L100.409 31.205L99.7164 33.0808L100.423 33.3331L101.116 31.4573ZM100.409 31.205L101.103 29.3291L100.396 29.0768L99.7028 30.9526L99.0098 32.8284L99.7164 33.0808L100.409 31.205ZM99.7028 30.9526L100.396 29.0768C100.29 29.039 100.148 28.9592 99.9745 28.7575L98.4446 30.06L96.9148 31.3624C97.4765 32.0144 98.1732 32.5296 99.0098 32.8284L99.7028 30.9526ZM98.4446 30.06L99.9745 28.7575L99.4229 28.1173L97.8931 29.4197L96.3632 30.7222L96.9148 31.3624L98.4446 30.06ZM97.8931 29.4197L99.4229 28.1173L98.8713 27.477L97.3415 28.7795L95.8117 30.0819L96.3632 30.7222L97.8931 29.4197ZM97.3415 28.7795L98.8713 27.477C98.4693 27.0103 97.9381 26.6313 97.2789 26.4409C96.63 26.2535 95.9908 26.2872 95.4227 26.428L95.8936 28.3613L96.3645 30.2946C96.394 30.2873 96.2949 30.3167 96.1286 30.2686C95.952 30.2176 95.846 30.1218 95.8117 30.0819L97.3415 28.7795ZM95.8936 28.3613L95.4227 26.428L94.5264 26.65L94.9973 28.5833L95.4682 30.5166L96.3645 30.2946L95.8936 28.3613ZM94.9973 28.5833L94.5264 26.65L93.6301 26.8721L94.101 28.8053L94.5719 30.7386L95.4682 30.5166L94.9973 28.5833ZM94.101 28.8053L93.6301 26.8721C93.6274 26.8727 93.7721 26.8391 93.9818 26.9127C94.1964 26.988 94.3012 27.1132 94.3187 27.1375L92.6847 28.308L91.0507 29.4785C91.4148 29.9824 91.929 30.4303 92.6157 30.6714C93.2975 30.9108 93.977 30.886 94.5719 30.7386L94.101 28.8053ZM92.6847 28.308L94.3187 27.1375L93.7988 26.4181L92.1648 27.5886L90.5308 28.7591L91.0507 29.4785L92.6847 28.308ZM92.1648 27.5886L93.7988 26.4181L93.2789 25.6987L91.6449 26.8692L90.0108 28.0397L90.5308 28.7591L92.1648 27.5886ZM91.6449 26.8692L93.2789 25.6987C92.7189 24.9239 91.9482 24.3043 90.9501 24.0288L90.3977 25.949L89.8452 27.8693C89.8471 27.8698 89.848 27.8702 89.8493 27.8708C89.8507 27.8715 89.8567 27.8745 89.8674 27.8824C89.8886 27.8981 89.9397 27.9413 90.0108 28.0397L91.6449 26.8692ZM90.3977 25.949L90.9501 24.0288L90.2229 23.828L89.6704 25.7482L89.118 27.6685L89.8452 27.8693L90.3977 25.949ZM89.6704 25.7482L90.2229 23.828L89.4956 23.6271L88.9432 25.5474L88.3907 27.4677L89.118 27.6685L89.6704 25.7482ZM88.9432 25.5474L89.4956 23.6271C88.6865 23.4037 87.8542 23.3889 87.0327 23.5264L87.3505 25.4914L87.6682 27.4564C88.0007 27.4008 88.2301 27.4233 88.3907 27.4677L88.9432 25.5474ZM87.3505 25.4914L87.0327 23.5264L86.1673 23.6712L86.485 25.6362L86.8028 27.6012L87.6682 27.4564L87.3505 25.4914ZM86.485 25.6362L86.1673 23.6712L85.3018 23.8159L85.6196 25.781L85.9374 27.746L86.8028 27.6012L86.485 25.6362ZM85.6196 25.781L85.3018 23.8159C85.0305 23.8613 84.8944 23.8252 84.8272 23.7981L84.0587 25.6453L83.2903 27.4925C84.1503 27.8393 85.0548 27.8937 85.9374 27.746L85.6196 25.781ZM84.0587 25.6453L84.8272 23.7981L84.1318 23.5177L83.3633 25.3648L82.5949 27.212L83.2903 27.4925L84.0587 25.6453ZM83.3633 25.3648L84.1318 23.5177L83.4363 23.2372L82.6679 25.0844L81.8995 26.9315L82.5949 27.212L83.3633 25.3648ZM82.6679 25.0844L83.4363 23.2372C83.3315 23.1949 83.1831 23.1046 83.0023 22.8807L81.4324 24.1351L79.8624 25.3894C80.4018 26.0573 81.0771 26.5998 81.8995 26.9315L82.6679 25.0844ZM81.4324 24.1351L83.0023 22.8807L82.4622 22.2119L80.8922 23.4662L79.3223 24.7206L79.8624 25.3894L81.4324 24.1351ZM80.8922 23.4662L82.4622 22.2119L81.922 21.5431L80.3521 22.7974L78.7821 24.0518L79.3223 24.7206L80.8922 23.4662ZM80.3521 22.7974L81.922 21.5431C81.2933 20.7645 80.4362 20.2057 79.3753 20.042L79.0513 22.0112L78.7273 23.9805C78.7286 23.9807 78.7244 23.9801 78.7171 23.9774C78.7098 23.9748 78.7046 23.972 78.7029 23.971C78.698 23.968 78.7272 23.9838 78.7821 24.0518L80.3521 22.7974ZM79.0513 22.0112L79.3753 20.042L78.6147 19.9247L78.2907 21.8939L77.9666 23.8631L78.7273 23.9805L79.0513 22.0112ZM78.2907 21.8939L78.6147 19.9247L77.8541 19.8073L77.5301 21.7765L77.206 23.7458L77.9666 23.8631L78.2907 21.8939ZM77.5301 21.7765L77.8541 19.8073C77.4734 19.7486 77.1121 19.656 76.7678 19.5309L76.0643 21.4029L75.3608 23.275C75.9567 23.4915 76.5725 23.648 77.206 23.7458L77.5301 21.7765ZM76.0643 21.4029L76.7678 19.5309L76.0628 19.2746L75.3592 21.1467L74.6557 23.0187L75.3608 23.275L76.0643 21.4029ZM75.3592 21.1467L76.0628 19.2746L75.3577 19.0184L74.6542 20.8904L73.9506 22.7625L74.6557 23.0187L75.3592 21.1467ZM74.6542 20.8904L75.3577 19.0184C74.9677 18.8766 74.5871 18.7102 74.2155 18.5188L73.2795 20.2892L72.3434 22.0596C72.8646 22.3281 73.4005 22.5625 73.9506 22.7625L74.6542 20.8904ZM73.2795 20.2892L74.2155 18.5188L73.5459 18.1737L72.6099 19.9441L71.6738 21.7145L72.3434 22.0596L73.2795 20.2892ZM72.6099 19.9441L73.5459 18.1737L72.8763 17.8287L71.9402 19.5991L71.0042 21.3695L71.6738 21.7145L72.6099 19.9441ZM71.9402 19.5991L72.8763 17.8287C72.4154 17.5913 71.9522 17.3597 71.4866 17.1341L70.5942 18.9262L69.7018 20.7184C70.1381 20.9299 70.5722 21.1469 71.0042 21.3695L71.9402 19.5991ZM70.5942 18.9262L71.4866 17.1341L70.8101 16.8062L69.9177 18.5984L69.0253 20.3905L69.7018 20.7184L70.5942 18.9262ZM69.9177 18.5984L70.8101 16.8062L70.1337 16.4783L69.2413 18.2705L68.3488 20.0627L69.0253 20.3905L69.9177 18.5984ZM69.2413 18.2705L70.1337 16.4783C69.7126 16.2742 69.2957 16.0591 68.8828 15.833L67.9023 17.5798L66.9218 19.3265C67.3923 19.5842 67.868 19.8296 68.3488 20.0627L69.2413 18.2705ZM67.9023 17.5798L68.8828 15.833L68.2203 15.4702L67.2398 17.2169L66.2594 18.9637L66.9218 19.3265L67.9023 17.5798ZM67.2398 17.2169L68.2203 15.4702L67.5579 15.1074L66.5774 16.8541L65.5969 18.6009L66.2594 18.9637L67.2398 17.2169ZM66.5774 16.8541L67.5579 15.1074C66.7141 14.6452 65.7896 14.5019 64.8665 14.6029L65.0704 16.5837L65.2742 18.5645C65.4772 18.5423 65.5573 18.5792 65.5969 18.6009L66.5774 16.8541ZM65.0704 16.5837L64.8665 14.6029L64.022 14.6954L64.2259 16.6762L64.4297 18.657L65.2742 18.5645L65.0704 16.5837ZM64.2259 16.6762L64.022 14.6954L63.1775 14.7878L63.3814 16.7686L63.5852 18.7494L64.4297 18.657L64.2259 16.6762ZM63.3814 16.7686L63.1775 14.7878C63.0134 14.8058 62.9793 14.7734 62.9715 14.7686L61.891 16.4567L60.8105 18.1448C61.6639 18.6791 62.6233 18.8547 63.5852 18.7494L63.3814 16.7686ZM61.891 16.4567L62.9715 14.7686L62.3256 14.3642L61.2451 16.0523L60.1646 17.7405L60.8105 18.1448L61.891 16.4567ZM61.2451 16.0523L62.3256 14.3642L61.6797 13.9598L60.5992 15.648L59.5187 17.3361L60.1646 17.7405L61.2451 16.0523ZM60.5992 15.648L61.6797 13.9598C60.9593 13.5088 60.1584 13.2587 59.3111 13.2046L59.1659 15.1933L59.0207 17.182C59.2234 17.1949 59.3779 17.248 59.5187 17.3361L60.5992 15.648ZM59.1659 15.1933L59.3111 13.2046L58.5237 13.1543L58.3785 15.143L58.2333 17.1317L59.0207 17.182L59.1659 15.1933ZM58.3785 15.143L58.5237 13.1543L57.7363 13.104L57.5911 15.0927L57.4459 17.0814L58.2333 17.1317L58.3785 15.143ZM57.5911 15.0927L57.7363 13.104C57.7287 13.1035 57.7236 13.1029 57.7205 13.1024C57.7174 13.1019 57.716 13.1015 57.7159 13.1015C57.7158 13.1015 57.7166 13.1017 57.7178 13.1021C57.719 13.1026 57.7202 13.1031 57.7211 13.1035C57.7234 13.1045 57.7212 13.1039 57.7141 13.0988C57.7068 13.0935 57.692 13.0819 57.6706 13.0602L56.2294 14.4588L54.7881 15.8575C55.4971 16.5779 56.4055 17.0149 57.4459 17.0814L57.5911 15.0927ZM56.2294 14.4588L57.6706 13.0602L57.0964 12.4767L55.6551 13.8753L54.2139 15.274L54.7881 15.8575L56.2294 14.4588ZM55.6551 13.8753L57.0964 12.4767L56.5221 11.8932L55.0809 13.2918L53.6396 14.6904L54.2139 15.274L55.6551 13.8753ZM55.0809 13.2918L56.5221 11.8932C55.9127 11.274 55.1714 10.8177 54.3082 10.5892L53.7764 12.515L53.2445 14.4408C53.355 14.47 53.4833 14.5316 53.6396 14.6904L55.0809 13.2918ZM53.7764 12.515L54.3082 10.5892L53.578 10.3958L53.0461 12.3217L52.5142 14.2475L53.2445 14.4408L53.7764 12.515ZM53.0461 12.3217L53.578 10.3958L52.8477 10.2025L52.3159 12.1284L51.784 14.0542L52.5142 14.2475L53.0461 12.3217ZM52.3159 12.1284L52.8477 10.2025C52.4273 10.0913 52.0159 9.95931 51.6133 9.80677L50.8843 11.6693L50.1553 13.5319C50.6878 13.7337 51.2308 13.9077 51.784 14.0542L52.3159 12.1284ZM50.8843 11.6693L51.6133 9.80677L50.912 9.54104L50.183 11.4036L49.454 13.2662L50.1553 13.5319L50.8843 11.6693ZM50.183 11.4036L50.912 9.54104L50.2107 9.27532L49.4817 11.1379L48.7527 13.0005L49.454 13.2662L50.183 11.4036ZM49.4817 11.1379L50.2107 9.27532C49.6271 9.05423 49.0246 8.8877 48.4048 8.77498L48.0276 10.7353L47.6503 12.6956C48.0343 12.7654 48.4011 12.8673 48.7527 13.0005L49.4817 11.1379ZM48.0276 10.7353L48.4048 8.77498L47.652 8.63807L47.2747 10.5984L46.8975 12.5587L47.6503 12.6956L48.0276 10.7353ZM47.2747 10.5984L47.652 8.63807L46.8992 8.50117L46.5219 10.4615L46.1447 12.4217L46.8975 12.5587L47.2747 10.5984ZM46.5219 10.4615L46.8992 8.50117C46.5697 8.44125 46.2629 8.34186 45.9736 8.20357L45.0911 10.0006L44.2087 11.7976C44.8233 12.0913 45.4704 12.2991 46.1447 12.4217L46.5219 10.4615ZM45.0911 10.0006L45.9736 8.20357L45.2955 7.87959L44.4131 9.67658L43.5307 11.4736L44.2087 11.7976L45.0911 10.0006ZM44.4131 9.67658L45.2955 7.87959L44.6175 7.5556L43.7351 9.35259L42.8527 11.1496L43.5307 11.4736L44.4131 9.67658ZM43.7351 9.35259L44.6175 7.5556C44.1681 7.34082 43.719 7.12506 43.2703 6.90833L42.3802 8.70166L41.4902 10.495C41.944 10.7142 42.3981 10.9324 42.8527 11.1496L43.7351 9.35259ZM42.3802 8.70166L43.2703 6.90833L42.5934 6.58138L41.7034 8.37472L40.8134 10.1681L41.4902 10.495L42.3802 8.70166ZM41.7034 8.37472L42.5934 6.58138L41.9166 6.25444L41.0266 8.04778L40.1365 9.84112L40.8134 10.1681L41.7034 8.37472ZM41.0266 8.04778L41.9166 6.25444C41.445 6.02662 40.97 5.80708 40.4916 5.59582L39.6634 7.41775L38.8352 9.23968C39.272 9.43254 39.7057 9.63302 40.1365 9.84112L41.0266 8.04778ZM39.6634 7.41775L40.4916 5.59582L39.8052 5.29273L38.977 7.11466L38.1488 8.9366L38.8352 9.23968L39.6634 7.41775ZM38.977 7.11466L39.8052 5.29273L39.1188 4.98965L38.2906 6.81157L37.4625 8.63351L38.1488 8.9366L38.977 7.11466ZM38.2906 6.81157L39.1188 4.98965C38.5498 4.73837 37.9604 4.54004 37.3522 4.39464L36.8672 6.33227L36.3822 8.2699C36.7568 8.35946 37.1164 8.48067 37.4625 8.63351L38.2906 6.81157ZM36.8672 6.33227L37.3522 4.39464L36.6151 4.21841L36.1301 6.15604L35.6451 8.09368L36.3822 8.2699L36.8672 6.33227ZM36.1301 6.15604L36.6151 4.21841L35.878 4.04218L35.393 5.97982L34.9081 7.91746L35.6451 8.09368L36.1301 6.15604ZM35.393 5.97982L35.878 4.04218C35.3915 3.92588 34.9058 3.80781 34.4208 3.68793L33.921 5.62195L33.4212 7.55597C33.9161 7.67829 34.4117 7.79879 34.9081 7.91746L35.393 5.97982ZM33.921 5.62195L34.4208 3.68793L33.6859 3.50629L33.1861 5.44031L32.6862 7.37434L33.4212 7.55597L33.921 5.62195ZM33.1861 5.44031L33.6859 3.50629L32.951 3.32466L32.4512 5.25868L31.9513 7.1927L32.6862 7.37434L33.1861 5.44031ZM32.4512 5.25868L32.951 3.32466C32.5598 3.22796 32.1816 3.10312 31.8154 2.95018L31.0243 4.78799L30.233 6.6258C30.7895 6.85825 31.3626 7.0472 31.9513 7.1927L32.4512 5.25868ZM31.0243 4.78799L31.8154 2.95018L31.1235 2.66113L30.3323 4.49894L29.5411 6.33675L30.233 6.6258L31.0243 4.78799ZM30.3323 4.49894L31.1235 2.66113L30.4315 2.37208L29.6403 4.20989L28.8491 6.0477L29.5411 6.33675L30.3323 4.49894ZM29.6403 4.20989L30.4315 2.37208C29.9985 2.19123 29.5695 2.00029 29.1444 1.79924L28.2692 3.59966L27.394 5.40008C27.8744 5.62728 28.3594 5.84316 28.8491 6.0477L29.6403 4.20989ZM28.2692 3.59966L29.1444 1.79924L28.4653 1.47805L27.59 3.27847L26.7148 5.07889L27.394 5.40008L28.2692 3.59966ZM27.59 3.27847L28.4653 1.47805L27.7861 1.15687L26.9109 2.95729L26.0357 4.75771L26.7148 5.07889L27.59 3.27847ZM26.9109 2.95729L27.7861 1.15687C27.3174 0.935183 26.8138 0.704776 26.276 0.465691L25.4434 2.28565L24.6107 4.1056C25.1241 4.3338 25.5989 4.55115 26.0357 4.75771L26.9109 2.95729ZM25.4434 2.28565L26.276 0.465691L25.4876 0.115235L24.6549 1.93519L23.8223 3.75514L24.6107 4.1056L25.4434 2.28565ZM24.6549 1.93519L25.4876 0.115235L24.6991 -0.235227L23.8665 1.58472L23.0339 3.40468L23.8223 3.75514L24.6549 1.93519ZM23.8665 1.58472L24.6991 -0.235227C24.2427 -0.438108 23.4278 -0.695631 22.533 -0.363718C21.544 0.00312644 21.1099 0.831746 20.9392 1.41035L22.8651 1.9562L24.7909 2.50205C24.7622 2.59936 24.566 3.12543 23.9109 3.36844C23.6266 3.4739 23.3821 3.47171 23.2361 3.45306C23.1638 3.44383 23.1109 3.43017 23.0799 3.42081C23.0639 3.41599 23.0522 3.41182 23.0448 3.40905C23.0411 3.40766 23.0383 3.40654 23.0366 3.40581C23.0357 3.40544 23.035 3.40516 23.0345 3.40497C23.0341 3.40478 23.0339 3.40468 23.0339 3.40468L23.8665 1.58472ZM22.8651 1.9562L20.9392 1.41035L20.7262 2.13229L22.652 2.67814L24.5779 3.22398L24.7909 2.50205L22.8651 1.9562ZM22.652 2.67814L20.7262 2.13229L20.5131 2.85422L22.439 3.40007L24.3648 3.94592L24.5779 3.22398L22.652 2.67814ZM22.439 3.40007L20.5131 2.85422C20.3126 3.53377 20.2191 4.23586 20.2218 4.95145L22.2289 4.92785L24.2361 4.90425C24.2348 4.54539 24.2813 4.22895 24.3648 3.94592L22.439 3.40007ZM22.2289 4.92785L20.2218 4.95145L20.2247 5.7573L22.2319 5.73369L24.2391 5.7101L24.2361 4.90425L22.2289 4.92785ZM22.2319 5.73369L20.2247 5.7573L20.2277 6.56314L22.2349 6.53954L24.242 6.51594L24.2391 5.7101L22.2319 5.73369ZM22.2349 6.53954L20.2277 6.56314C20.2288 6.869 20.1781 7.11881 20.0944 7.33168L21.9633 8.04341L23.8321 8.75515C24.1145 8.03732 24.2449 7.28454 24.242 6.51594L22.2349 6.53954ZM21.9633 8.04341L20.0944 7.33168L19.8198 8.02971L21.6887 8.74144L23.5576 9.45318L23.8321 8.75515L21.9633 8.04341ZM21.6887 8.74144L19.8198 8.02971L19.5453 8.72773L21.4141 9.43947L23.283 10.1512L23.5576 9.45318L21.6887 8.74144ZM21.4141 9.43947L19.5453 8.72773C19.4325 9.01452 19.2764 9.2928 19.0692 9.56476L20.6666 10.7585L22.2639 11.9522C22.6874 11.3962 23.0297 10.7951 23.283 10.1512L21.4141 9.43947ZM20.6666 10.7585L19.0692 9.56476L18.5963 10.1857L20.1936 11.3794L21.791 12.5731L22.2639 11.9522L20.6666 10.7585ZM20.1936 11.3794L18.5963 10.1857L18.1233 10.8067L19.7207 12.0004L21.318 13.1941L21.791 12.5731L20.1936 11.3794ZM19.7207 12.0004L18.1233 10.8067C17.748 11.2994 17.4137 11.8134 17.1222 12.3483L18.8858 13.2855L20.6494 14.2226C20.8404 13.8721 21.0627 13.5293 21.318 13.1941L19.7207 12.0004ZM18.8858 13.2855L17.1222 12.3483L16.7603 13.0124L18.5239 13.9496L20.2875 14.8867L20.6494 14.2226L18.8858 13.2855ZM18.5239 13.9496L16.7603 13.0124L16.3984 13.6766L18.162 14.6137L19.9256 15.5508L20.2875 14.8867L18.5239 13.9496ZM18.162 14.6137L16.3984 13.6766C16.1411 14.1488 15.8963 14.6262 15.6641 15.1088L17.4739 15.9558L19.2838 16.8028C19.4865 16.3814 19.7005 15.964 19.9256 15.5508L18.162 14.6137ZM17.4739 15.9558L15.6641 15.1088L15.3379 15.7868L17.1477 16.6337L18.9575 17.4807L19.2838 16.8028L17.4739 15.9558ZM17.1477 16.6337L15.3379 15.7868L15.0117 16.4647L16.8215 17.3117L18.6313 18.1587L18.9575 17.4807L17.1477 16.6337ZM16.8215 17.3117L15.0117 16.4647C14.7959 16.9132 14.5788 17.3612 14.3603 17.8086L16.165 18.6661L17.9698 19.5235C18.1917 19.0691 18.4122 18.6142 18.6313 18.1587L16.8215 17.3117ZM16.165 18.6661L14.3603 17.8086L14.03 18.485L15.8348 19.3425L17.6395 20.1999L17.9698 19.5235L16.165 18.6661ZM15.8348 19.3425L14.03 18.485L13.6997 19.1614L15.5045 20.0189L17.3092 20.8763L17.6395 20.1999L15.8348 19.3425ZM15.5045 20.0189L13.6997 19.1614C13.4181 19.7382 13.199 20.3391 13.0428 20.9617L14.9902 21.4285L16.9376 21.8953C17.0267 21.5402 17.1505 21.2013 17.3092 20.8763L15.5045 20.0189ZM14.9902 21.4285L13.0428 20.9617L12.8588 21.6949L14.8063 22.1617L16.7537 22.6285L16.9376 21.8953L14.9902 21.4285ZM14.8063 22.1617L12.8588 21.6949L12.6749 22.4281L14.6223 22.8949L16.5697 23.3617L16.7537 22.6285L14.8063 22.1617ZM14.6223 22.8949L12.6749 22.4281C12.5823 22.7969 12.4574 23.1507 12.3 23.4911L14.1229 24.3103L15.9458 25.1295C16.209 24.5604 16.417 23.9705 16.5697 23.3617L14.6223 22.8949ZM14.1229 24.3103L12.3 23.4911L11.9845 24.1733L13.8075 24.9925L15.6304 25.8116L15.9458 25.1295L14.1229 24.3103ZM13.8075 24.9925L11.9845 24.1733L11.6691 24.8554L13.492 25.6746L15.315 26.4938L15.6304 25.8116L13.8075 24.9925ZM13.492 25.6746L11.6691 24.8554C11.4917 25.239 11.2907 25.6149 11.0655 25.9831L12.779 27.007L14.4924 28.0309C14.7974 27.5322 15.0718 27.0197 15.315 26.4938L13.492 25.6746ZM12.779 27.007L11.0655 25.9831L10.6679 26.6333L12.3814 27.6573L14.0949 28.6812L14.4924 28.0309L12.779 27.007ZM12.3814 27.6573L10.6679 26.6333L10.2703 27.2836L11.9838 28.3075L13.6973 29.3314L14.0949 28.6812L12.3814 27.6573ZM11.9838 28.3075L10.2703 27.2836C9.77713 28.0902 9.57699 28.9846 9.62369 29.8962L11.6283 29.7788L13.6329 29.6613C13.6235 29.4782 13.6604 29.3918 13.6973 29.3314L11.9838 28.3075ZM11.6283 29.7788L9.62369 29.8962L9.66576 30.7173L11.6703 30.5998L13.6749 30.4823L13.6329 29.6613L11.6283 29.7788ZM11.6703 30.5998L9.66576 30.7173L9.70783 31.5383L11.7124 31.4208L13.717 31.3034L13.6749 30.4823L11.6703 30.5998ZM11.7124 31.4208L9.70783 31.5383C9.72946 31.9605 9.70943 32.3517 9.65336 32.715L11.6373 33.001L13.6213 33.287C13.7214 32.6381 13.7514 31.9758 13.717 31.3034L11.7124 31.4208ZM11.6373 33.001L9.65336 32.715L9.53623 33.4742L11.5202 33.7602L13.5042 34.0462L13.6213 33.287L11.6373 33.001ZM11.5202 33.7602L9.53623 33.4742L9.41909 34.2334L11.4031 34.5194L13.387 34.8054L13.5042 34.0462L11.5202 33.7602ZM11.4031 34.5194L9.41909 34.2334C9.3817 34.4757 9.30208 34.6882 9.17777 34.8876L10.882 35.9264L12.5863 36.9652C13.0005 36.3009 13.2682 35.5754 13.387 34.8054L11.4031 34.5194ZM10.882 35.9264L9.17777 34.8876L8.77389 35.5354L10.4782 36.5742L12.1824 37.613L12.5863 36.9652L10.882 35.9264ZM10.4782 36.5742L8.77389 35.5354L8.37001 36.1832L10.0743 37.222L11.7785 38.2608L12.1824 37.613L10.4782 36.5742ZM10.0743 37.222L8.37001 36.1832C8.05484 36.6887 7.77495 37.2103 7.53109 37.7476L9.35993 38.5539L11.1888 39.3602C11.3589 38.9854 11.5552 38.619 11.7785 38.2608L10.0743 37.222ZM9.35993 38.5539L7.53109 37.7476L7.22062 38.4317L9.04946 39.238L10.8783 40.0443L11.1888 39.3602L9.35993 38.5539ZM9.04946 39.238L7.22062 38.4317L6.91015 39.1158L8.739 39.9221L10.5678 40.7283L10.8783 40.0443L9.04946 39.238ZM8.739 39.9221L6.91015 39.1158C6.67449 39.6351 6.46641 40.1651 6.28601 40.7057L8.19081 41.3185L10.0956 41.9313C10.2322 41.5221 10.3896 41.1212 10.5678 40.7283L8.739 39.9221ZM8.19081 41.3185L6.28601 40.7057L6.04828 41.418L7.95308 42.0308L9.85788 42.6436L10.0956 41.9313L8.19081 41.3185ZM7.95308 42.0308L6.04828 41.418L5.81056 42.1304L7.71535 42.7432L9.62016 43.356L9.85788 42.6436L7.95308 42.0308ZM7.71535 42.7432L5.81056 42.1304C5.66106 42.5783 5.5022 43.0225 5.33396 43.4631L7.21001 44.1562L9.08606 44.8494C9.27465 44.3556 9.45268 43.8578 9.62016 43.356L7.71535 42.7432ZM7.21001 44.1562L5.33396 43.4631L5.06634 44.1638L6.94239 44.857L8.81844 45.5502L9.08606 44.8494L7.21001 44.1562ZM6.94239 44.857L5.06634 44.1638L4.79872 44.8645L6.67477 45.5577L8.55082 46.2509L8.81844 45.5502L6.94239 44.857ZM6.67477 45.5577L4.79872 44.8645C4.72335 45.0618 4.59966 45.2652 4.39653 45.4771L5.84508 46.8448L7.29363 48.2124C7.83992 47.6425 8.26936 46.9879 8.55082 46.2509L6.67477 45.5577ZM5.84508 46.8448L4.39653 45.4771L3.83446 46.0635L5.28301 47.4311L6.73155 48.7988L7.29363 48.2124L5.84508 46.8448ZM5.28301 47.4311L3.83446 46.0635L3.27239 46.6498L4.72094 48.0175L6.16948 49.3851L6.73155 48.7988L5.28301 47.4311ZM4.72094 48.0175L3.27239 46.6498C2.56937 47.3832 2.16494 48.2971 2.11599 49.315L4.12088 49.3938L6.12577 49.4725C6.12673 49.4525 6.1289 49.4415 6.12981 49.4376C6.1303 49.4355 6.13065 49.4344 6.13075 49.4341C6.1308 49.4339 6.13083 49.4338 6.13083 49.4338C6.13084 49.4338 6.13084 49.4338 6.13086 49.4337C6.13086 49.4337 6.13108 49.4332 6.13173 49.4321C6.13238 49.4309 6.13372 49.4286 6.13608 49.4251C6.14065 49.4183 6.15062 49.4048 6.16948 49.3851L4.72094 48.0175ZM4.12088 49.3938L2.11599 49.315L2.07801 50.1049L4.0829 50.1837L6.08779 50.2625L6.12577 49.4725L4.12088 49.3938ZM4.0829 50.1837L2.07801 50.1049L2.04003 50.8949L4.04491 50.9736L6.04981 51.0524L6.08779 50.2625L4.0829 50.1837ZM4.04491 50.9736L2.04003 50.8949C2.02711 51.1635 1.96694 51.382 1.87277 51.5725L3.67324 52.4386L5.4737 53.3048C5.82447 52.5952 6.01208 51.837 6.04981 51.0524L4.04491 50.9736ZM3.67324 52.4386L1.87277 51.5725L1.53908 52.2475L3.33954 53.1137L5.13999 53.9799L5.4737 53.3048L3.67324 52.4386ZM3.33954 53.1137L1.53908 52.2475L1.20538 52.9226L3.00583 53.7888L4.80629 54.6549L5.13999 53.9799L3.33954 53.1137ZM3.00583 53.7888L1.20538 52.9226C0.951828 53.4355 0.726123 53.9597 0.528424 54.4949L2.41219 55.1675L4.29597 55.8402C4.44486 55.4371 4.61491 55.0421 4.80629 54.6549L3.00583 53.7888ZM2.41219 55.1675L0.528424 54.4949L0.268485 55.1986L2.15226 55.8712L4.03603 56.5439L4.29597 55.8402L2.41219 55.1675ZM2.15226 55.8712L0.268485 55.1986L0.008538 55.9023L1.89232 56.575L3.77609 57.2476L4.03603 56.5439L2.15226 55.8712ZM1.89232 56.575L0.008538 55.9023C-0.165475 56.3734 -0.337461 56.8413 -0.507419 57.306L1.37855 57.9726L3.26451 58.6393C3.433 58.1787 3.60352 57.7148 3.77609 57.2476L1.89232 56.575ZM1.37855 57.9726L-0.507419 57.306L-0.76125 57.9999L1.12472 58.6666L3.01069 59.3332L3.26451 58.6393L1.37855 57.9726ZM1.12472 58.6666L-0.76125 57.9999L-1.01508 58.6938L0.870892 59.3605L2.75686 60.0272L3.01069 59.3332L1.12472 58.6666ZM0.870892 59.3605L-1.01508 58.6938C-1.34291 59.5901 -1.34459 60.5141 -1.07621 61.396L0.845567 60.8053L2.76735 60.2147C2.73104 60.0954 2.74625 60.0562 2.75686 60.0272L0.870892 59.3605ZM0.845567 60.8053L-1.07621 61.396L-0.847701 62.1468L1.07408 61.5562L2.99586 60.9655L2.76735 60.2147L0.845567 60.8053ZM1.07408 61.5562L-0.847701 62.1468L-0.619196 62.8977L1.30258 62.307L3.22436 61.7164L2.99586 60.9655L1.07408 61.5562ZM1.30258 62.307L-0.619196 62.8977C-0.430218 63.5187 -0.00777693 64.2202 0.811181 64.6118C1.57659 64.9777 2.34564 64.905 2.888 64.7689L2.4112 62.8371L1.9344 60.9053C1.89002 60.9164 2.18094 60.8289 2.57681 61.0182C3.02622 61.233 3.18773 61.596 3.22436 61.7164L1.30258 62.307ZM2.4112 62.8371L2.888 64.7689L3.76811 64.5481L3.29131 62.6162L2.81451 60.6844L1.9344 60.9053L2.4112 62.8371ZM3.29131 62.6162L3.76811 64.5481L4.64821 64.3272L4.17142 62.3954L3.69462 60.4636L2.81451 60.6844L3.29131 62.6162ZM4.17142 62.3954L4.64821 64.3272C4.61894 64.3346 4.44305 64.3665 4.21331 64.2768C3.98893 64.1892 3.89739 64.0574 3.89926 64.0602L5.56916 62.941L7.23906 61.8218C6.89584 61.3137 6.3988 60.8354 5.7085 60.566C5.01285 60.2944 4.31064 60.309 3.69462 60.4636L4.17142 62.3954ZM5.56916 62.941L3.89926 64.0602L4.41689 64.8266L6.08679 63.7074L7.75669 62.5882L7.23906 61.8218L5.56916 62.941ZM6.08679 63.7074L4.41689 64.8266L4.93452 65.593L6.60442 64.4738L8.27432 63.3546L7.75669 62.5882L6.08679 63.7074ZM6.60442 64.4738L4.93452 65.593C5.46816 66.3831 6.21439 67.0493 7.21292 67.366L7.83776 65.4672L8.46259 63.5684C8.47348 63.5718 8.46871 63.5738 8.44375 63.5537C8.41527 63.5308 8.35498 63.4741 8.27432 63.3546L6.60442 64.4738ZM7.83776 65.4672L7.21292 67.366L7.92862 67.5929L8.55345 65.6941L9.17829 63.7953L8.46259 63.5684L7.83776 65.4672ZM8.55345 65.6941L7.92862 67.5929L8.64432 67.8199L9.26916 65.9211L9.894 64.0223L9.17829 63.7953L8.55345 65.6941ZM9.26916 65.9211L8.64432 67.8199C9.30944 68.0308 9.99884 68.1424 10.7049 68.1615L10.776 66.1695L10.8471 64.1774C10.4983 64.1679 10.1831 64.114 9.894 64.0223L9.26916 65.9211ZM10.776 66.1695L10.7049 68.1615L11.4961 68.1829L11.5672 66.1909L11.6383 64.1988L10.8471 64.1774L10.776 66.1695ZM11.5672 66.1909L11.4961 68.1829L12.2872 68.2044L12.3583 66.2123L12.4295 64.2202L11.6383 64.1988L11.5672 66.1909ZM12.3583 66.2123L12.2872 68.2044C12.7779 68.2176 13.2628 68.2442 13.7419 68.2838L13.925 66.2979L14.108 64.312C13.5532 64.2661 12.9936 64.2355 12.4295 64.2202L12.3583 66.2123ZM13.925 66.2979L13.7419 68.2838L14.5174 68.348L14.7004 66.3621L14.8834 64.3762L14.108 64.312L13.925 66.2979ZM14.7004 66.3621L14.5174 68.348L15.2929 68.4122L15.4759 66.4263L15.6589 64.4404L14.8834 64.3762L14.7004 66.3621ZM15.4759 66.4263L15.2929 68.4122C15.6412 68.4411 15.9629 68.5111 16.2636 68.6186L16.9576 66.7432L17.6516 64.8677C17.0106 64.6384 16.3445 64.4971 15.6589 64.4404L15.4759 66.4263ZM16.9576 66.7432L16.2636 68.6186L16.9698 68.8713L17.6639 66.9958L18.3579 65.1204L17.6516 64.8677L16.9576 66.7432ZM17.6639 66.9958L16.9698 68.8713L17.6761 69.1239L18.3701 67.2485L19.0642 65.373L18.3579 65.1204L17.6639 66.9958ZM18.3701 67.2485L17.6761 69.1239C18.1761 69.3028 18.6802 69.4701 19.1886 69.6258L19.7946 67.7211L20.4007 65.8165C19.9514 65.6789 19.5059 65.531 19.0642 65.373L18.3701 67.2485ZM19.7946 67.7211L19.1886 69.6258L19.9068 69.8458L20.5129 67.9412L21.1189 66.0365L20.4007 65.8165L19.7946 67.7211ZM20.5129 67.9412L19.9068 69.8458L20.6251 70.0658L21.2311 68.1612L21.8372 66.2565L21.1189 66.0365L20.5129 67.9412ZM21.2311 68.1612L20.6251 70.0658C20.6496 70.0733 20.7486 70.1055 20.9079 70.3081L22.494 69.0741L24.0801 67.84C23.5133 67.1189 22.7703 66.5424 21.8372 66.2565L21.2311 68.1612ZM22.494 69.0741L20.9079 70.3081L21.4525 71.001L23.0386 69.7669L24.6248 68.5329L24.0801 67.84L22.494 69.0741ZM23.0386 69.7669L21.4525 71.001L21.9971 71.6938L23.5833 70.4598L25.1694 69.2258L24.6248 68.5329L23.0386 69.7669ZM23.5833 70.4598L21.9971 71.6938C22.6367 72.5074 23.5338 73.0945 24.6614 73.2173L24.8962 71.2363L25.1311 69.2553C25.1402 69.2563 25.1559 69.2591 25.1752 69.2655C25.1945 69.2719 25.2105 69.2796 25.2214 69.2861C25.232 69.2924 25.2327 69.2944 25.2244 69.2868C25.2156 69.279 25.1966 69.2604 25.1694 69.2258L23.5833 70.4598ZM24.8962 71.2363L24.6614 73.2173L25.4297 73.3009L25.6646 71.3199L25.8994 69.339L25.1311 69.2553L24.8962 71.2363ZM25.6646 71.3199L25.4297 73.3009L26.198 73.3845L26.4329 71.4036L26.6678 69.4226L25.8994 69.339L25.6646 71.3199ZM26.4329 71.4036L26.198 73.3845C26.4602 73.4131 26.6924 73.4854 26.9093 73.601L27.8695 71.8433L28.8297 70.0856C28.1556 69.7264 27.4299 69.5056 26.6678 69.4226L26.4329 71.4036ZM27.8695 71.8433L26.9093 73.601L27.5776 73.957L28.5378 72.1993L29.498 70.4416L28.8297 70.0856L27.8695 71.8433ZM28.5378 72.1993L27.5776 73.957L28.2459 74.313L29.2061 72.5553L30.1663 70.7976L29.498 70.4416L28.5378 72.1993ZM29.2061 72.5553L28.2459 74.313C28.9035 74.6634 29.6088 74.8888 30.3503 74.9886L30.6358 73.0138L30.9213 71.039C30.6476 71.0022 30.3998 70.922 30.1663 70.7976L29.2061 72.5553ZM30.6358 73.0138L30.3503 74.9886L31.1117 75.0911L31.3972 73.1163L31.6827 71.1415L30.9213 71.039L30.6358 73.0138ZM31.3972 73.1163L31.1117 75.0911L31.8731 75.1935L32.1586 73.2187L32.4442 71.2439L31.6827 71.1415L31.3972 73.1163ZM32.1586 73.2187L31.8731 75.1935C32.1838 75.2353 32.4699 75.3193 32.7388 75.4444L33.6025 73.6386L34.4662 71.8328C33.8253 71.5346 33.1487 71.3387 32.4442 71.2439L32.1586 73.2187ZM33.6025 73.6386L32.7388 75.4444L33.4213 75.7619L34.285 73.9561L35.1487 72.1502L34.4662 71.8328L33.6025 73.6386ZM34.285 73.9561L33.4213 75.7619L34.1038 76.0793L34.9675 74.2735L35.8312 72.4677L35.1487 72.1502L34.285 73.9561ZM34.9675 74.2735L34.1038 76.0793C34.8872 76.4438 35.726 76.582 36.5782 76.5284L36.4678 74.5396L36.3574 72.5508C36.1191 72.5657 35.9577 72.5266 35.8312 72.4677L34.9675 74.2735ZM36.4678 74.5396L36.5782 76.5284L37.3961 76.4771L37.2857 74.4882L37.1753 72.4994L36.3574 72.5508L36.4678 74.5396ZM37.2857 74.4882L37.3961 76.4771L38.214 76.4257L38.1036 74.4369L37.9932 72.448L37.1753 72.4994L37.2857 74.4882ZM38.1036 74.4369L38.214 76.4257C38.1926 76.427 38.1511 76.427 38.0958 76.4163C38.0397 76.4054 37.9827 76.3862 37.9302 76.3598C37.8212 76.3049 37.7927 76.2513 37.8212 76.2906L39.4523 75.116L41.0834 73.9414C40.3828 72.9773 39.3097 72.3654 37.9932 72.448L38.1036 74.4369ZM39.4523 75.116L37.8212 76.2906L38.352 77.0211L39.9831 75.8465L41.6142 74.672L41.0834 73.9414L39.4523 75.116ZM39.9831 75.8465L38.352 77.0211L38.8829 77.7516L40.5139 76.5771L42.145 75.4025L41.6142 74.672L39.9831 75.8465ZM40.5139 76.5771L38.8829 77.7516C39.6199 78.7659 40.7625 79.3488 42.1145 79.1812L41.8819 77.2038L41.6492 75.2264C41.6974 75.2204 41.8261 75.2203 41.9746 75.2884C42.1147 75.3526 42.1631 75.4273 42.145 75.4025L40.5139 76.5771ZM41.8819 77.2038L42.1145 79.1812L42.9517 79.0774L42.719 77.1L42.4864 75.1226L41.6492 75.2264L41.8819 77.2038ZM42.719 77.1L42.9517 79.0774L43.7888 78.9736L43.5562 76.9962L43.3235 75.0188L42.4864 75.1226L42.719 77.1ZM43.5562 76.9962L43.7888 78.9736C43.9613 78.9522 44.0156 78.9841 44.0416 78.999L45.0537 77.2699L46.0658 75.5408C45.2112 75.0524 44.2672 74.9018 43.3235 75.0188L43.5562 76.9962ZM45.0537 77.2699L44.0416 78.999L44.702 79.3765L45.7141 77.6474L46.7262 75.9183L46.0658 75.5408L45.0537 77.2699ZM45.7141 77.6474L44.702 79.3765L45.3625 79.754L46.3746 78.0249L47.3867 76.2958L46.7262 75.9183L45.7141 77.6474ZM46.3746 78.0249L45.3625 79.754C45.869 80.0435 46.3888 80.302 46.9216 80.5291L47.7259 78.6968L48.5302 76.8645C48.1419 76.699 47.7607 76.5096 47.3867 76.2958L46.3746 78.0249ZM47.7259 78.6968L46.9216 80.5291L47.6126 80.8235L48.4169 78.9912L49.2212 77.1589L48.5302 76.8645L47.7259 78.6968ZM48.4169 78.9912L47.6126 80.8235L48.3035 81.1179L49.1078 79.2856L49.9121 77.4533L49.2212 77.1589L48.4169 78.9912ZM49.1078 79.2856L48.3035 81.1179C49.0686 81.4439 49.88 81.5705 50.705 81.5265L50.6137 79.5365L50.5224 77.5466C50.2608 77.5606 50.0683 77.5199 49.9121 77.4533L49.1078 79.2856ZM50.6137 79.5365L50.705 81.5265L51.52 81.483L51.4287 79.4931L51.3374 77.5031L50.5224 77.5466L50.6137 79.5365ZM51.4287 79.4931L51.52 81.483L52.335 81.4395L52.2437 79.4496L52.1524 77.4597L51.3374 77.5031L51.4287 79.4931ZM52.2437 79.4496L52.335 81.4395C52.3625 81.4381 52.3791 81.4394 52.3865 81.4402C52.3937 81.4411 52.3953 81.4419 52.3933 81.4412C52.3913 81.4406 52.3905 81.4401 52.3921 81.441C52.394 81.4419 52.4021 81.4464 52.4163 81.4577L53.6774 79.8972L54.9385 78.3367C54.1338 77.698 53.1717 77.4053 52.1524 77.4597L52.2437 79.4496ZM53.6774 79.8972L52.4163 81.4577L53.035 81.9488L54.2961 80.3883L55.5572 78.8277L54.9385 78.3367L53.6774 79.8972ZM54.2961 80.3883L53.035 81.9488L53.6538 82.4399L54.9149 80.8793L56.176 79.3188L55.5572 78.8277L54.2961 80.3883ZM54.9149 80.8793L53.6538 82.4399C54.2018 82.8749 54.7967 83.2308 55.4374 83.4977L56.2266 81.659L57.0159 79.8204C56.7325 79.7024 56.4529 79.5386 56.176 79.3188L54.9149 80.8793ZM56.2266 81.659L55.4374 83.4977L56.1305 83.7863L56.9197 81.9477L57.7089 80.109L57.0159 79.8204L56.2266 81.659ZM56.9197 81.9477L56.1305 83.7863L56.8235 84.0749L57.6128 82.2363L58.402 80.3977L57.7089 80.109L56.9197 81.9477ZM57.6128 82.2363L56.8235 84.0749C57.1196 84.1982 57.4104 84.3655 57.697 84.5846L58.9297 83.0019L60.1624 81.4192C59.6171 81.0024 59.03 80.6592 58.402 80.3977L57.6128 82.2363ZM58.9297 83.0019L57.697 84.5846L58.3209 85.0615L59.5536 83.4789L60.7863 81.8962L60.1624 81.4192L58.9297 83.0019ZM59.5536 83.4789L58.3209 85.0615L58.9448 85.5385L60.1775 83.9558L61.4102 82.3731L60.7863 81.8962L59.5536 83.4789ZM60.1775 83.9558L58.9448 85.5385C59.8281 86.2137 60.8772 86.4345 61.9323 86.2757L61.6472 84.3054L61.3622 82.3352C61.3316 82.3398 61.3167 82.3395 61.3153 82.3394C61.3143 82.3394 61.3234 82.3397 61.3397 82.3435C61.3561 82.3475 61.3732 82.3535 61.3885 82.3608C61.4035 82.368 61.4109 82.3736 61.4102 82.3731L60.1775 83.9558ZM61.6472 84.3054L61.9323 86.2757L62.778 86.1483L62.493 84.1781L62.208 82.2079L61.3622 82.3352L61.6472 84.3054ZM62.493 84.1781L62.778 86.1483L63.6238 86.021L63.3388 84.0508L63.0537 82.0805L62.208 82.2079L62.493 84.1781ZM63.3388 84.0508L63.6238 86.021C63.8775 85.9828 64.0182 86.0162 64.1036 86.0511L64.8795 84.207L65.6554 82.3628C64.8142 82.0196 63.9278 81.9489 63.0537 82.0805L63.3388 84.0508ZM64.8795 84.207L64.1036 86.0511L64.7985 86.3346L65.5744 84.4905L66.3503 82.6464L65.6554 82.3628L64.8795 84.207ZM65.5744 84.4905L64.7985 86.3346L65.4934 86.6182L66.2693 84.774L67.0452 82.9299L66.3503 82.6464L65.5744 84.4905ZM66.2693 84.774L65.4934 86.6182C65.829 86.7551 66.1564 86.9288 66.4764 87.1425L67.606 85.4861L68.7355 83.8297C68.1999 83.472 67.6362 83.1711 67.0452 82.9299L66.2693 84.774ZM67.606 85.4861L66.4764 87.1425L67.1181 87.571L68.2476 85.9146L69.3772 84.2582L68.7355 83.8297L67.606 85.4861ZM68.2476 85.9146L67.1181 87.571L67.7598 87.9995L68.8893 86.3431L70.0189 84.6867L69.3772 84.2582L68.2476 85.9146ZM68.8893 86.3431L67.7598 87.9995C68.248 88.3256 68.7499 88.622 69.2652 88.8881L70.2027 87.1185L71.1402 85.3488C70.76 85.1525 70.3862 84.932 70.0189 84.6867L68.8893 86.3431ZM70.2027 87.1185L69.2652 88.8881L69.9369 89.2349L70.8744 87.4653L71.8119 85.6956L71.1402 85.3488L70.2027 87.1185ZM70.8744 87.4653L69.9369 89.2349L70.6086 89.5817L71.5461 87.8121L72.4836 86.0424L71.8119 85.6956L70.8744 87.4653ZM71.5461 87.8121L70.6086 89.5817C71.1906 89.8822 71.8007 90.1139 72.4361 90.2754L72.9487 88.3446L73.4612 86.4137C73.1222 86.3276 72.7972 86.2043 72.4836 86.0424L71.5461 87.8121ZM72.9487 88.3446L72.4361 90.2754L73.167 90.4611L73.6795 88.5303L74.192 86.5994L73.4612 86.4137L72.9487 88.3446ZM73.6795 88.5303L73.167 90.4611L73.8978 90.6468L74.4104 88.7159L74.9229 86.7851L74.192 86.5994L73.6795 88.5303ZM74.4104 88.7159L73.8978 90.6468C74.5011 90.8001 75.1189 90.8998 75.7493 90.9477L75.9186 88.9606L76.0878 86.9736C75.6818 86.9428 75.2941 86.8794 74.9229 86.7851L74.4104 88.7159ZM75.9186 88.9606L75.7493 90.9477L76.5267 91.0067L76.6959 89.0196L76.8652 87.0326L76.0878 86.9736L75.9186 88.9606ZM76.6959 89.0196L76.5267 91.0067L77.3041 91.0656L77.4733 89.0786L77.6426 87.0916L76.8652 87.0326L76.6959 89.0196ZM77.4733 89.0786L77.3041 91.0656C77.7224 91.0974 78.1247 91.1591 78.5119 91.2496L78.9866 89.3095L79.4613 87.3694C78.8673 87.2307 78.2607 87.1385 77.6426 87.0916L77.4733 89.0786ZM78.9866 89.3095L78.5119 91.2496L79.2479 91.4214L79.7225 89.4813L80.1972 87.5413L79.4613 87.3694L78.9866 89.3095ZM79.7225 89.4813L79.2479 91.4214L79.9838 91.5933L80.4585 89.6532L80.9331 87.7131L80.1972 87.5413L79.7225 89.4813ZM80.4585 89.6532L79.9838 91.5933C80.4723 91.7073 80.9605 91.8222 81.4485 91.9378L81.9295 89.9992L82.4105 88.0606C81.9183 87.944 81.4259 87.8282 80.9331 87.7131L80.4585 89.6532ZM81.9295 89.9992L81.4485 91.9378L82.1835 92.112L82.6646 90.1734L83.1456 88.2348L82.4105 88.0606L81.9295 89.9992ZM82.6646 90.1734L82.1835 92.112L82.9186 92.2861L83.3996 90.3475L83.8806 88.409L83.1456 88.2348L82.6646 90.1734ZM83.3996 90.3475L82.9186 92.2861C82.9252 92.2877 82.935 92.2902 82.9562 92.3044C82.9802 92.3205 83.0329 92.3615 83.1065 92.4535L84.6823 91.2065L86.2582 89.9595C85.665 89.2178 84.874 88.6443 83.8806 88.409L83.3996 90.3475ZM84.6823 91.2065L83.1065 92.4535L83.6541 93.1382L85.2299 91.8912L86.8058 90.6442L86.2582 89.9595L84.6823 91.2065ZM85.2299 91.8912L83.6541 93.1382L84.2017 93.823L85.7776 92.576L87.3534 91.329L86.8058 90.6442L85.2299 91.8912ZM85.7776 92.576L84.2017 93.823C84.5748 94.2895 85.0765 94.6951 85.7214 94.9218C86.366 95.1485 87.0151 95.1477 87.6035 95.0209L87.1929 93.0736L86.7823 91.1263C86.7922 91.1242 86.9162 91.1029 87.089 91.1636C87.2621 91.2245 87.3454 91.3189 87.3534 91.329L85.7776 92.576ZM87.1929 93.0736L87.6035 95.0209L88.4713 94.8337L88.0606 92.8865L87.65 90.9392L86.7823 91.1263L87.1929 93.0736ZM88.0606 92.8865L88.4713 94.8337L89.339 94.6466L88.9284 92.6994L88.5177 90.7521L87.65 90.9392L88.0606 92.8865ZM88.9284 92.6994L89.339 94.6466C89.4413 94.6246 89.4868 94.6297 89.4899 94.6301C89.4919 94.6303 89.4882 94.63 89.4811 94.6277C89.4739 94.6254 89.4686 94.6228 89.4666 94.6217L90.4595 92.8817L91.4523 91.1418C90.5171 90.621 89.4932 90.5418 88.5177 90.7521L88.9284 92.6994ZM90.4595 92.8817L89.4666 94.6217L90.13 94.9911L91.1228 93.2512L92.1157 91.5112L91.4523 91.1418L90.4595 92.8817ZM91.1228 93.2512L90.13 94.9911L90.7934 95.3606L91.7862 93.6206L92.779 91.8807L92.1157 91.5112L91.1228 93.2512ZM91.7862 93.6206L90.7934 95.3606C91.3444 95.6674 91.9189 95.9201 92.5158 96.1169L93.1623 94.2251L93.8089 92.3333C93.4555 92.2168 93.1126 92.0665 92.779 91.8807L91.7862 93.6206ZM93.1623 94.2251L92.5158 96.1169L93.2285 96.3519L93.8751 94.4601L94.5217 92.5683L93.8089 92.3333L93.1623 94.2251ZM93.8751 94.4601L93.2285 96.3519L93.9412 96.5869L94.5878 94.6951L95.2344 92.8033L94.5217 92.5683L93.8751 94.4601ZM94.5878 94.6951L93.9412 96.5869C94.2695 96.6951 94.5873 96.8415 94.8964 97.0292L95.9539 95.3269L97.0114 93.6246C96.4494 93.2832 95.8565 93.0084 95.2344 92.8033L94.5878 94.6951ZM95.9539 95.3269L94.8964 97.0292L95.5498 97.426L96.6073 95.7237L97.6648 94.0213L97.0114 93.6246L95.9539 95.3269ZM96.6073 95.7237L95.5498 97.426L96.2031 97.8227L97.2606 96.1204L98.3181 94.4181L97.6648 94.0213L96.6073 95.7237ZM97.2606 96.1204L96.2031 97.8227C96.847 98.2138 97.5466 98.4793 98.291 98.6129L98.6636 96.6517L99.0362 94.6906C98.7811 94.6448 98.5454 94.5561 98.3181 94.4181L97.2606 96.1204ZM98.6636 96.6517L98.291 98.6129L99.0406 98.7474L99.4132 96.7863L99.7859 94.8251L99.0362 94.6906L98.6636 96.6517ZM99.4132 96.7863L99.0406 98.7474L99.7902 98.8819L100.163 96.9208L100.535 94.9597L99.7859 94.8251L99.4132 96.7863ZM100.163 96.9208L99.7902 98.8819C99.9893 98.9176 100.175 98.9935 100.362 99.1279L101.545 97.5084L102.728 95.889C102.072 95.4192 101.336 95.1033 100.535 94.9597L100.163 96.9208ZM101.545 97.5084L100.362 99.1279L100.995 99.581L102.178 97.9615L103.361 96.3421L102.728 95.889L101.545 97.5084ZM102.178 97.9615L100.995 99.581L101.628 100.034L102.811 98.4146L103.993 96.7952L103.361 96.3421L102.178 97.9615ZM102.811 98.4146L101.628 100.034C102.308 100.521 103.078 100.832 103.914 100.946L104.204 98.972L104.494 96.9978C104.316 96.9734 104.157 96.9122 103.993 96.7952L102.811 98.4146ZM104.204 98.972L103.914 100.946L104.674 101.05L104.965 99.0762L105.255 97.102L104.494 96.9978L104.204 98.972ZM104.965 99.0762L104.674 101.05L105.435 101.155L105.725 99.1804L106.016 97.2062L105.255 97.102L104.965 99.0762ZM105.725 99.1804L105.435 101.155C105.522 101.166 105.611 101.197 105.734 101.307L107.087 99.8242L108.44 98.3413C107.762 97.7321 106.943 97.3333 106.016 97.2062L105.725 99.1804ZM107.087 99.8242L105.734 101.307L106.335 101.847L107.688 100.364L109.041 98.881L108.44 98.3413L107.087 99.8242ZM107.688 100.364L106.335 101.847L106.936 102.386L108.289 100.903L109.642 99.4206L109.041 98.881L107.688 100.364ZM108.289 100.903L106.936 102.386C107.879 103.233 109.066 103.446 110.213 103.175L109.765 101.237L109.316 99.2981C109.269 99.3092 109.316 99.2899 109.419 99.3132C109.468 99.3244 109.516 99.3423 109.56 99.3651C109.602 99.3876 109.629 99.4092 109.642 99.4206L108.289 100.903ZM109.765 101.237L110.213 103.175L111.088 102.969L110.639 101.03L110.191 99.0918L109.316 99.2981L109.765 101.237ZM110.639 101.03L111.088 102.969L111.963 102.763L111.514 100.824L111.065 98.8855L110.191 99.0918L110.639 101.03ZM111.514 100.824L111.963 102.763C112.166 102.715 112.164 102.739 112.039 102.729C111.925 102.72 111.33 102.642 110.918 102.031L112.588 100.912L114.258 99.7929C113.713 98.986 112.873 98.7956 112.401 98.7569C111.918 98.7173 111.445 98.7959 111.065 98.8855L111.514 100.824ZM112.588 100.912L110.918 102.031L111.117 102.326L112.786 101.206L114.456 100.087L114.258 99.7929L112.588 100.912ZM112.786 101.206L111.117 102.326L111.315 102.62L112.985 101.501L114.655 100.382L114.456 100.087L112.786 101.206ZM112.985 101.501L111.315 102.62C111.423 102.78 111.846 103.382 112.695 103.542C113.754 103.74 114.459 103.11 114.714 102.808C114.964 102.511 115.091 102.201 115.149 102.047C115.22 101.859 115.272 101.669 115.313 101.499L113.359 101.057L111.406 100.615C111.388 100.691 111.381 100.704 111.391 100.676C111.397 100.661 111.414 100.617 111.446 100.557C111.475 100.501 111.537 100.392 111.643 100.266C111.835 100.038 112.476 99.4384 113.471 99.6251C114.256 99.7721 114.613 100.32 114.655 100.382L112.985 101.501ZM113.359 101.057L115.313 101.499L115.488 100.76L113.534 100.319L111.581 99.8768L111.406 100.615L113.359 101.057Z" fill="#915000"/>
<path d="M47.8831 20.0879C48.7008 20.4057 49.4879 20.957 50.2443 21.7416C51.0095 22.5297 51.5799 23.4323 51.9556 24.4495C52.3346 25.458 52.367 26.3668 52.0525 27.1758C51.8462 27.7065 51.2331 28.1891 50.213 28.6238C49.205 29.0531 48.1184 29.3367 46.9533 29.4747C45.7916 29.6039 44.8932 29.5451 44.2581 29.2983C44.0928 29.2341 43.9556 29.0205 43.8463 28.6576C43.7491 28.2894 43.7563 27.9617 43.8678 27.6746C43.9828 27.3789 44.6442 26.4243 45.8521 24.8109C47.0599 23.1976 47.7972 22.1123 48.0638 21.555C47.8294 21.3337 47.665 21.0996 47.5708 20.8527C47.4765 20.6058 47.4615 20.3997 47.5257 20.2344C47.5899 20.0691 47.7091 20.0203 47.8831 20.0879ZM50.9078 26.5657C51.1174 26.0263 51.0221 25.3184 50.6218 24.4418C50.2249 23.5565 49.6542 22.809 48.9099 22.1993C48.8925 22.3728 48.8416 22.5683 48.757 22.7858C48.6759 22.9946 48.4438 23.3599 48.0606 23.8819C47.6862 24.4073 47.0335 25.2751 46.1025 26.4854C45.714 26.9953 45.334 27.5736 44.9625 28.2203C45.5932 28.3753 46.3645 28.3747 47.2764 28.2184C48.2003 28.0568 49.0057 27.8141 49.6923 27.4902C50.3877 27.1696 50.7928 26.8615 50.9078 26.5657ZM53.8268 27.3848L54.168 26.3909C54.3269 25.982 54.5021 25.8148 54.6935 25.8892C54.8587 25.9534 54.9731 26.123 55.0364 26.398C55.1119 26.6676 55.0921 26.9503 54.9771 27.2461C54.8656 27.5332 54.7723 27.7473 54.6974 27.8884C55.9006 27.0343 56.8415 26.7391 57.52 27.0028C57.9463 27.1685 58.1188 27.3557 58.0377 27.5645C57.9971 27.6689 57.9121 27.746 57.7826 27.7958C57.6531 27.8456 57.4619 27.8865 57.2092 27.9184C56.6704 27.9393 56.1589 28.096 55.6747 28.3884C55.2026 28.6756 54.7651 29.0412 54.3621 29.4854C53.9592 29.9296 53.6275 30.3064 53.3671 30.6157C53.1153 30.9284 52.9201 31.173 52.7815 31.3494C52.6428 31.5258 52.4971 31.6945 52.3445 31.8555C52.07 32.1494 51.8415 32.2608 51.6588 32.1898C51.5109 32.1323 51.4212 32.0023 51.3898 31.7998C51.3704 31.592 51.3911 31.4098 51.452 31.2533C51.5162 31.088 51.7153 30.7948 52.0492 30.3739C52.8319 29.4164 53.4244 28.42 53.8268 27.3848ZM61.4536 28.5167C61.845 28.6688 62.1283 29.0092 62.3033 29.5379C62.4817 30.0578 62.5084 30.4787 62.3833 30.8006C62.2616 31.1138 62.0277 31.3934 61.6818 31.6395C61.7354 31.8105 61.7437 31.9439 61.7065 32.0396C61.6118 32.2832 61.393 32.6788 61.0499 33.2264C60.7156 33.7773 60.4999 34.1391 60.4028 34.3116C60.3144 34.4876 60.2395 34.6287 60.1782 34.735C60.1202 34.8327 60.0579 34.9286 59.9912 35.0228C59.8719 35.2268 59.7513 35.3051 59.6295 35.2578C59.4729 35.1969 59.3949 35.0114 59.3953 34.7011C59.4078 34.3855 59.4899 34.0069 59.6415 33.5651C58.4852 34.2472 57.5765 34.4598 56.9153 34.2028C56.5152 34.0473 56.1853 33.7238 55.9257 33.2324C55.6782 32.7356 55.6254 32.3046 55.7674 31.9392C55.9703 31.4172 56.4119 30.8479 57.0922 30.2311C57.7759 29.6056 58.5389 29.1111 59.3811 28.7476C60.2234 28.384 60.9142 28.307 61.4536 28.5167ZM61.1612 31.0466C61.4756 30.2375 61.4719 29.7705 61.15 29.6454C60.8108 29.5135 60.3203 29.6032 59.6786 29.9146C59.0402 30.2172 58.4461 30.6122 57.8963 31.0994C57.3464 31.5866 57.0022 32.0086 56.8635 32.3652C56.806 32.5131 56.8196 32.6586 56.9042 32.8016C56.9922 32.936 57.1188 33.0352 57.2841 33.0995C57.693 33.2584 58.2605 33.1636 58.9868 32.815C59.7165 32.4577 60.3352 31.9222 60.843 31.2083C60.9198 31.088 61.0242 31.0384 61.1561 31.0596L61.1612 31.0466ZM68.1204 34.5025C67.9852 34.8505 67.6791 35.1871 67.2022 35.5124C66.761 35.9518 66.2112 36.6193 65.5527 37.5149C64.8975 38.4018 64.3958 39.0229 64.0474 39.3781C63.3372 40.1235 62.6036 40.349 61.8468 40.0549C61.2291 39.8148 60.7731 39.4423 60.4787 38.9374C60.1896 38.4445 60.1093 38.0328 60.2378 37.7022C60.2919 37.563 60.3895 37.4407 60.5306 37.3353C60.663 37.2266 60.7727 37.1891 60.8597 37.2229C60.9554 37.2601 61.0344 37.3659 61.0968 37.5404C61.1591 37.7148 61.2094 37.8946 61.2477 38.0797C61.2912 38.2768 61.3876 38.4795 61.537 38.6878C61.6951 38.8994 61.8698 39.0424 62.0612 39.1168C62.2526 39.1912 62.4079 39.2166 62.5273 39.1929C62.6433 39.1779 62.7701 39.122 62.9078 39.0253C63.0422 38.9374 63.1651 38.84 63.2767 38.7331C63.385 38.635 63.5195 38.482 63.6804 38.2742C63.8466 38.0785 63.9836 37.9064 64.0913 37.758C64.1991 37.6096 64.3496 37.4028 64.5428 37.1374C64.7395 36.8634 64.8994 36.6451 65.0226 36.4827C64.1479 36.7236 63.4975 36.7611 63.0712 36.5955C62.6449 36.4298 62.3411 36.1164 62.1598 35.6555C61.9819 35.1858 61.9809 34.7247 62.1567 34.2724C62.3359 33.8113 62.7422 33.2683 63.3756 32.6433C64.0178 32.0217 64.7469 31.524 65.5631 31.1503C66.3793 30.7766 67.0657 30.698 67.6225 30.9144C67.9791 31.053 68.2269 31.3045 68.3656 31.6688C68.5934 32.268 68.5483 32.9765 68.2305 33.7942C68.1899 33.8986 68.1568 33.9709 68.1312 34.011C68.1781 34.1995 68.1745 34.3633 68.1204 34.5025ZM63.1629 34.8137C63.1055 34.9616 63.106 35.1019 63.1645 35.2348C63.2263 35.359 63.3312 35.4498 63.4791 35.5073C63.9141 35.6764 64.5271 35.6192 65.3181 35.3359C66.1126 35.0439 66.7651 34.6016 67.2758 34.009C67.285 33.8824 67.3222 33.6966 67.3874 33.4515C67.4525 33.2065 67.4991 33.0093 67.5271 32.86C67.5552 32.7107 67.5527 32.5495 67.5198 32.3765C67.4903 32.1948 67.4059 32.0769 67.2668 32.0228C66.9275 31.8909 66.45 31.9857 65.8344 32.3072C65.2188 32.6287 64.6552 33.0355 64.1435 33.5275C63.6318 34.0196 63.3049 34.4483 63.1629 34.8137ZM83.9726 37.2692C84.2336 37.3707 84.3931 37.643 84.4512 38.0861C84.5213 38.5239 84.4668 38.9734 84.2876 39.4344C84.1118 39.8868 83.7992 40.4462 83.3499 41.1127C82.9093 41.7826 82.4358 42.3696 81.9294 42.8738C81.4231 43.3779 81.0394 43.5792 80.7784 43.4778C80.5957 43.4068 80.55 43.2539 80.6413 43.019C80.736 42.7754 81.1121 42.2457 81.7697 41.4298C82.4393 40.6086 82.8807 39.924 83.0937 39.3759C83.3101 38.8192 83.3313 38.507 83.1573 38.4394C82.9398 38.3548 82.6131 38.4482 82.1773 38.7194C81.7501 38.9939 81.2708 39.3383 80.7393 39.7526C80.2078 40.1668 79.9205 40.3907 79.8775 40.424C79.8379 40.4487 79.7828 40.4873 79.7123 40.54C79.6504 40.5961 79.5782 40.6531 79.4956 40.7111C79.4216 40.7725 79.2085 40.9601 78.8563 41.2738C78.5128 41.5909 78.2231 41.8337 77.9873 42.0024C77.7549 42.1624 77.5821 42.2205 77.469 42.1765C77.3646 42.1359 77.2742 42.0207 77.1979 41.8308C77.1215 41.6409 77.1069 41.485 77.1543 41.3632C77.2016 41.2415 77.378 41.0196 77.6833 40.6977C78.5752 39.7426 79.2106 38.7779 79.5893 37.8036C79.6603 37.6209 79.6803 37.4534 79.6493 37.3012C79.6217 37.1403 79.5601 37.0412 79.4644 37.004C79.3687 36.9668 79.2518 36.9715 79.1136 37.0179C78.9788 37.0556 78.7908 37.1528 78.5497 37.3094C78.3119 37.4573 78.095 37.6033 77.8988 37.7473C77.7026 37.8914 77.3989 38.1188 76.9877 38.4296C76.5886 38.7351 76.2849 38.9626 76.0767 39.1119C75.8805 39.256 75.649 39.4264 75.3823 39.6231C75.119 39.8111 74.9124 39.9562 74.7626 40.0582C74.6215 40.1635 74.4623 40.2769 74.285 40.3982C73.925 40.6288 73.6884 40.7221 73.5754 40.6782C73.471 40.6376 73.369 40.4878 73.2694 40.2288C73.1731 39.9611 73.1436 39.7794 73.1808 39.6837C73.2214 39.5793 73.2878 39.4599 73.3801 39.3255C73.4724 39.1912 73.563 39.0612 73.6519 38.9355C73.7495 38.8132 73.8898 38.6325 74.0729 38.3932C74.2681 38.1486 74.4889 37.864 74.7353 37.5392C74.9938 37.209 75.2742 36.7323 75.5767 36.1088C75.8911 35.48 76.1189 35.0228 76.26 34.7372C76.4044 34.4428 76.5375 34.3193 76.6593 34.3667C76.8507 34.4411 76.9989 34.6138 77.1038 34.8849C77.2174 35.1594 77.2353 35.3966 77.1575 35.5967C76.86 36.3623 76.0826 37.5121 74.8255 39.0462C76.5099 37.598 77.5441 36.7533 77.9283 36.5121C78.3124 36.2709 78.6364 36.0814 78.9003 35.9436C79.3849 35.7014 79.8012 35.6479 80.1492 35.7832C80.358 35.8643 80.5349 36.1434 80.68 36.6203C80.8371 37.092 80.8447 37.5105 80.7027 37.8759C80.5607 38.2412 80.3327 38.6733 80.0186 39.1721C81.8195 37.5789 83.1374 36.9446 83.9726 37.2692ZM90.2802 42.2142C90.101 42.6753 89.7016 42.9556 89.0821 43.0553C88.4747 43.1497 87.8534 43.0734 87.2184 42.8266C86.592 42.5831 86.0492 42.2921 85.5901 41.9534C85.3195 42.2888 85.1251 42.6088 85.0067 42.9133C84.8918 43.209 84.8935 43.4751 85.0119 43.7114C85.1391 43.951 85.4158 44.1537 85.8421 44.3194C86.277 44.4885 86.7494 44.587 87.2593 44.6149C87.7812 44.6375 88.0639 44.6573 88.1074 44.6742C88.3336 44.7621 88.4129 44.893 88.3453 45.067C88.254 45.3019 87.8889 45.4554 87.25 45.5275C86.6145 45.591 86.0445 45.5246 85.54 45.3285C84.8614 45.0648 84.3868 44.65 84.116 44.0841C83.8487 43.5096 83.8351 42.9135 84.0751 42.2958C84.3152 41.6782 84.7307 41.0987 85.3216 40.5573C85.9159 40.0072 86.5637 39.6031 87.2648 39.3449C87.966 39.0867 88.5732 39.0574 89.0865 39.2569C89.5997 39.4564 89.9705 39.8808 90.1987 40.5303C90.4356 41.1831 90.4628 41.7444 90.2802 42.2142ZM88.751 40.3131C88.4292 40.188 88.0283 40.2275 87.5485 40.4315C87.072 40.6268 86.6156 40.9251 86.1793 41.3263C86.4968 41.5398 86.8775 41.7328 87.3211 41.9052C87.7648 42.0777 88.179 42.1585 88.5636 42.1478C88.9517 42.1284 89.1914 42.0013 89.2827 41.7664C89.3739 41.5315 89.3582 41.25 89.2354 40.9219C89.1213 40.5972 88.9598 40.3943 88.751 40.3131ZM96.4806 48.0788C96.4164 48.2441 96.48 48.364 96.6714 48.4384C97.0019 48.5668 97.4376 48.631 97.9784 48.6309C98.5312 48.6255 98.8338 48.6329 98.8859 48.6532C99.0425 48.7141 99.0887 48.8272 99.0245 48.9925C98.9264 49.2447 98.5522 49.4347 97.9017 49.5624C97.26 49.6935 96.726 49.6762 96.2997 49.5105C95.8821 49.3482 95.5781 49.0999 95.3876 48.7655C95.2006 48.4224 95.1543 48.1291 95.249 47.8855C95.3437 47.6419 95.5159 47.3534 95.7657 47.0199C96.0189 46.6777 96.3612 46.235 96.7926 45.6917C97.2362 45.1431 97.5939 44.6864 97.8659 44.3215C97.4199 44.2582 97.1273 44.1996 96.9881 44.1455C96.8489 44.0914 96.7367 43.9677 96.6516 43.7744C96.5786 43.5758 96.5675 43.4112 96.6182 43.2808C96.6994 43.072 97.3426 43.0917 98.5479 43.3398C98.9851 42.6787 99.3119 42.0697 99.5283 41.5129C99.6298 41.2519 99.7675 41.1553 99.9415 41.2229C100.089 41.2804 100.235 41.4471 100.378 41.723C100.524 41.9902 100.552 42.2413 100.461 42.4761C100.369 42.711 100.135 43.0955 99.7571 43.6296C100.27 43.7788 100.674 43.9109 100.97 44.0259C101.492 44.2287 101.709 44.4433 101.621 44.6694C101.57 44.7999 101.384 44.8529 101.064 44.8283C100.751 44.8071 100.107 44.712 99.1316 44.543C98.6818 45.1593 98.1453 45.857 97.5221 46.6361C96.9022 47.4065 96.555 47.8875 96.4806 48.0788ZM105.152 48.0548C105.267 47.759 105.328 47.462 105.334 47.1639C105.343 46.857 105.28 46.6071 105.144 46.4144C104.48 46.3463 103.781 46.6106 103.049 47.207C102.328 47.7982 101.838 48.4287 101.578 49.0986C101.317 49.7684 101.32 50.2502 101.586 50.544C102.26 50.6657 102.957 50.4456 103.675 49.884C104.407 49.317 104.899 48.7072 105.152 48.0548ZM101.675 46.8383C102.243 46.2781 102.855 45.8752 103.512 45.6296C104.18 45.3787 104.771 45.3529 105.284 45.5524C105.806 45.7553 106.155 46.1462 106.33 46.7251C106.509 47.2953 106.475 47.898 106.228 48.533C105.985 49.1594 105.582 49.7439 105.021 50.2868C104.463 50.8209 103.83 51.2006 103.121 51.4259C102.425 51.6459 101.777 51.6393 101.176 51.406C100.733 51.2335 100.442 50.8854 100.306 50.3616C100.169 49.8377 100.222 49.2626 100.465 48.6363C100.712 48.0012 101.115 47.4019 101.675 46.8383ZM40.1114 40.2929L40.4527 39.299C40.6116 38.8902 40.7867 38.7229 40.9781 38.7973C41.1434 38.8615 41.2577 39.0312 41.3211 39.3061C41.3965 39.5758 41.3768 39.8585 41.2618 40.1543C41.1502 40.4413 41.057 40.6554 40.9821 40.7966C42.1853 39.9424 43.1261 39.6472 43.8047 39.9109C44.2309 40.0766 44.4035 40.2638 44.3224 40.4726C44.2818 40.577 44.1967 40.6541 44.0672 40.7039C43.9377 40.7537 43.7466 40.7946 43.4939 40.8265C42.955 40.8474 42.4435 41.0041 41.9594 41.2966C41.4873 41.5837 41.0497 41.9494 40.6468 42.3936C40.2438 42.8378 39.9121 43.2145 39.6517 43.5239C39.4 43.8366 39.2048 44.0811 39.0661 44.2576C38.9275 44.434 38.7818 44.6027 38.6291 44.7636C38.3547 45.0575 38.1261 45.1689 37.9434 45.0979C37.7955 45.0404 37.7059 44.9104 37.6744 44.708C37.6551 44.5002 37.6758 44.318 37.7367 44.1614C37.8009 43.9961 38 43.703 38.3338 43.282C39.1165 42.3245 39.7091 41.3281 40.1114 40.2929ZM48.6318 44.2655C48.4526 44.7265 48.0532 45.0069 47.4337 45.1066C46.8263 45.2009 46.205 45.1247 45.57 44.8779C44.9436 44.6344 44.4009 44.3433 43.9417 44.0047C43.6711 44.3401 43.4767 44.66 43.3583 44.9645C43.2434 45.2603 43.2451 45.5263 43.3636 45.7626C43.4907 46.0023 43.7674 46.205 44.1937 46.3707C44.6287 46.5397 45.1011 46.6382 45.6109 46.6662C46.1328 46.6888 46.4155 46.7085 46.459 46.7254C46.6852 46.8133 46.7645 46.9443 46.6969 47.1183C46.6056 47.3532 46.2405 47.5067 45.6016 47.5788C44.9662 47.6422 44.3962 47.5759 43.8916 47.3798C43.213 47.116 42.7384 46.7012 42.4677 46.1354C42.2003 45.5608 42.1867 44.9647 42.4267 44.3471C42.6668 43.7294 43.0823 43.1499 43.6732 42.6086C44.2675 42.0585 44.9153 41.6544 45.6164 41.3962C46.3176 41.138 46.9248 41.1086 47.4381 41.3081C47.9513 41.5076 48.3221 41.9321 48.5503 42.5816C48.7872 43.2344 48.8144 43.7957 48.6318 44.2655ZM47.1027 42.3644C46.7808 42.2393 46.3799 42.2787 45.9001 42.4827C45.4236 42.6781 44.9672 42.9763 44.5309 43.3775C44.8485 43.5911 45.2291 43.7841 45.6727 43.9565C46.1164 44.1289 46.5306 44.2098 46.9153 44.1991C47.3033 44.1797 47.543 44.0526 47.6343 43.8177C47.7256 43.5828 47.7098 43.3013 47.587 42.9732C47.4729 42.6485 47.3114 42.4455 47.1027 42.3644ZM58.5845 45.6405C58.8455 45.7419 59.005 46.0142 59.0631 46.4573C59.1332 46.8951 59.0787 47.3446 58.8995 47.8057C58.7237 48.258 58.4111 48.8175 57.9618 49.484C57.5212 50.1538 57.0477 50.7408 56.5413 51.245C56.035 51.7491 55.6513 51.9505 55.3903 51.849C55.2076 51.778 55.1619 51.6251 55.2532 51.3902C55.3479 51.1466 55.724 50.6169 56.3816 49.801C57.0512 48.9798 57.4926 48.2952 57.7056 47.7472C57.922 47.1904 57.9432 46.8782 57.7692 46.8106C57.5517 46.7261 57.2251 46.8194 56.7892 47.0906C56.362 47.3651 55.8827 47.7096 55.3512 48.1238C54.8197 48.5381 54.5324 48.7619 54.4894 48.7952C54.4498 48.8199 54.3947 48.8586 54.3242 48.9112C54.2623 48.9673 54.1901 49.0243 54.1075 49.0824C54.0335 49.1437 53.8205 49.3313 53.4682 49.645C53.1247 49.9621 52.835 50.205 52.5992 50.3737C52.3668 50.5337 52.194 50.5917 52.0809 50.5477C51.9765 50.5072 51.8862 50.3919 51.8098 50.202C51.7334 50.0121 51.7188 49.8563 51.7662 49.7345C51.8135 49.6127 51.9899 49.3908 52.2952 49.0689C53.1872 48.1138 53.8225 47.1491 54.2012 46.1748C54.2722 45.9921 54.2922 45.8247 54.2612 45.6724C54.2337 45.5115 54.172 45.4125 54.0763 45.3753C53.9806 45.3381 53.8637 45.3427 53.7255 45.3891C53.5907 45.4268 53.4027 45.524 53.1616 45.6806C52.9238 45.8285 52.7069 45.9745 52.5107 46.1186C52.3145 46.2626 52.0108 46.49 51.5996 46.8009C51.2005 47.1064 50.8968 47.3338 50.6886 47.4832C50.4924 47.6272 50.2609 47.7976 49.9942 47.9943C49.7309 48.1824 49.5243 48.3274 49.3745 48.4294C49.2334 48.5348 49.0742 48.6481 48.8969 48.7694C48.5369 49 48.3004 49.0933 48.1873 49.0494C48.0829 49.0088 47.9809 48.859 47.8813 48.6C47.7851 48.3323 47.7555 48.1506 47.7927 48.0549C47.8333 47.9505 47.8997 47.8311 47.992 47.6968C48.0843 47.5624 48.1749 47.4324 48.2638 47.3067C48.3614 47.1844 48.5017 47.0037 48.6848 46.7644C48.88 46.5199 49.1008 46.2352 49.3472 45.9104C49.6057 45.5803 49.8862 45.1035 50.1886 44.48C50.5031 43.8512 50.7308 43.394 50.8719 43.1084C51.0163 42.8141 51.1494 42.6906 51.2712 42.7379C51.4626 42.8123 51.6108 42.985 51.7157 43.2561C51.8293 43.5306 51.8472 43.7679 51.7695 43.9679C51.4719 44.7335 50.6946 45.8833 49.4374 47.4174C51.1218 45.9693 52.156 45.1246 52.5402 44.8833C52.9243 44.6421 53.2483 44.4526 53.5122 44.3148C53.9968 44.0726 54.4132 44.0192 54.7611 44.1544C54.9699 44.2356 55.1468 44.5146 55.2919 44.9916C55.4491 45.4632 55.4566 45.8817 55.3146 46.2471C55.1726 46.6124 54.9446 47.0445 54.6306 47.5433C56.4314 45.9501 57.7494 45.3159 58.5845 45.6405ZM63.6061 50.1457C63.721 49.8499 63.7814 49.5529 63.7871 49.2547C63.7962 48.9479 63.7331 48.698 63.5978 48.5052C62.9333 48.4372 62.2348 48.7015 61.5023 49.2979C60.7818 49.8891 60.2914 50.5196 60.0311 51.1895C59.7707 51.8593 59.7737 52.3411 60.04 52.6349C60.7137 52.7565 61.4101 52.5365 62.1291 51.9748C62.8601 51.4078 63.3525 50.7981 63.6061 50.1457ZM60.1285 48.9292C60.6967 48.369 61.309 47.9661 61.9652 47.7205C62.6335 47.4695 63.2243 47.4438 63.7375 47.6433C64.2595 47.8462 64.6082 48.2371 64.7838 48.816C64.9627 49.3862 64.9287 49.9888 64.6819 50.6239C64.4384 51.2502 64.036 51.8348 63.4745 52.3776C62.9165 52.9117 62.2832 53.2915 61.5748 53.5168C60.8785 53.7368 60.2302 53.7302 59.6299 53.4969C59.1863 53.3244 58.896 52.9763 58.7591 52.4525C58.6223 51.9286 58.6756 51.3535 58.919 50.7272C59.1658 50.0921 59.569 49.4928 60.1285 48.9292ZM70.9422 50.4436C71.0901 50.5011 71.2117 50.6134 71.3069 50.7806C71.4055 50.9391 71.4295 51.0836 71.3787 51.2141C71.2874 51.449 70.6538 52.1389 69.4777 53.284C68.3104 54.4324 67.4972 55.1978 67.0382 55.5802C66.5912 55.9572 66.2677 56.1068 66.0676 56.0291C65.9545 55.9851 65.8475 55.8484 65.7464 55.6188C65.6454 55.3893 65.5929 55.1636 65.589 54.9418C65.5671 54.3025 65.658 53.3214 65.8617 51.9987C66.0654 50.676 66.2771 49.7319 66.4969 49.1664C66.5984 48.9055 66.7274 48.8054 66.884 48.8663C67.0753 48.9406 67.239 49.0994 67.3748 49.3424C67.514 49.5768 67.5754 49.831 67.5591 50.105C67.5311 50.2543 67.4306 50.6158 67.2577 51.1895C66.8453 52.6113 66.6432 53.7494 66.6516 54.6038C67.0826 54.1906 67.66 53.5939 68.3838 52.8137C69.1109 52.0249 69.6857 51.4222 70.108 51.0055C70.5423 50.5836 70.8204 50.3963 70.9422 50.4436ZM76.31 55.0233C76.1308 55.4843 75.7314 55.7647 75.1119 55.8644C74.5044 55.9587 73.8832 55.8825 73.2481 55.6357C72.6218 55.3922 72.079 55.1011 71.6199 54.7625C71.3493 55.0979 71.1549 55.4179 71.0365 55.7223C70.9216 56.0181 70.9233 56.2841 71.0417 56.5204C71.1689 56.7601 71.4456 56.9628 71.8719 57.1285C72.3068 57.2975 72.7792 57.396 73.2891 57.424C73.811 57.4466 74.0937 57.4663 74.1372 57.4832C74.3634 57.5712 74.4427 57.7021 74.375 57.8761C74.2838 58.111 73.9187 58.2645 73.2798 58.3366C72.6443 58.4 72.0743 58.3337 71.5698 58.1376C70.8912 57.8738 70.4166 57.459 70.1458 56.8932C69.8785 56.3187 69.8648 55.7226 70.1049 55.1049C70.345 54.4872 70.7605 53.9077 71.3514 53.3664C71.9457 52.8163 72.5935 52.4122 73.2946 52.154C73.9958 51.8958 74.603 51.8664 75.1163 52.0659C75.6295 52.2654 76.0003 52.6899 76.2285 53.3394C76.4654 53.9922 76.4926 54.5535 76.31 55.0233ZM74.7808 53.1222C74.459 52.9971 74.0581 53.0365 73.5783 53.2406C73.1018 53.4359 72.6454 53.7341 72.2091 54.1353C72.5266 54.3489 72.9072 54.5419 73.3509 54.7143C73.7946 54.8867 74.2087 54.9676 74.5934 54.9569C74.9815 54.9375 75.2212 54.8104 75.3124 54.5755C75.4037 54.3406 75.388 54.0591 75.2652 53.731C75.1511 53.4063 74.9896 53.2033 74.7808 53.1222ZM82.5104 60.8879C82.4462 61.0532 82.5098 61.173 82.7012 61.2474C83.0317 61.3759 83.4674 61.4401 84.0082 61.44C84.561 61.4346 84.8635 61.442 84.9157 61.4623C85.0723 61.5232 85.1185 61.6362 85.0543 61.8015C84.9562 62.0538 84.582 62.2438 83.9315 62.3715C83.2898 62.5026 82.7558 62.4853 82.3295 62.3196C81.9119 62.1573 81.6079 61.909 81.4174 61.5746C81.2303 61.2315 81.1841 60.9382 81.2788 60.6946C81.3735 60.451 81.5457 60.1625 81.7955 59.829C82.0487 59.4868 82.391 59.044 82.8224 58.5008C83.266 57.9522 83.6237 57.4954 83.8957 57.1305C83.4497 57.0673 83.1571 57.0086 83.0179 56.9545C82.8787 56.9005 82.7665 56.7768 82.6814 56.5835C82.6084 56.3849 82.5973 56.2203 82.648 56.0898C82.7292 55.881 83.3724 55.9007 84.5777 56.1489C85.0149 55.4877 85.3417 54.8787 85.5581 54.322C85.6596 54.061 85.7973 53.9643 85.9713 54.032C86.1191 54.0894 86.2646 54.2561 86.4077 54.5321C86.5542 54.7993 86.5818 55.0503 86.4905 55.2852C86.3992 55.5201 86.1647 55.9046 85.7869 56.4386C86.2996 56.5879 86.7039 56.72 86.9997 56.8349C87.5216 57.0378 87.7387 57.2523 87.6507 57.4785C87.6 57.609 87.4142 57.662 87.0933 57.6374C86.7811 57.6162 86.1372 57.5211 85.1614 57.3521C84.7116 57.9684 84.1751 58.666 83.5518 59.4452C82.932 60.2156 82.5848 60.6965 82.5104 60.8879ZM90.8658 54.5675C90.9977 54.2282 91.168 54.0992 91.3768 54.1803C91.542 54.2445 91.6653 54.4427 91.7466 54.7746C91.8365 55.11 91.8342 55.3995 91.7395 55.6431C91.5197 56.2085 91.0008 57.1184 90.1829 58.3726C89.3771 59.6215 88.4842 60.8366 87.5044 62.0178C88.9863 60.7814 90.154 59.9284 91.0073 59.459C91.8728 58.9843 92.5143 58.8281 92.9318 58.9904C93.158 59.0783 93.3429 59.3755 93.4865 59.8819C93.6389 60.3917 93.6389 60.8424 93.4868 61.2338C93.3346 61.6253 92.9977 62.1703 92.4759 62.8687C91.1724 64.6251 90.2814 65.4103 89.8029 65.2243C89.6115 65.1499 89.5665 64.9823 89.668 64.7213C89.7694 64.4603 90.0446 64.0616 90.4934 63.5251C91.4786 62.3559 92.0624 61.5364 92.245 61.0666C92.3059 60.91 92.3174 60.7643 92.2797 60.6295C92.242 60.4947 92.1666 60.4053 92.0535 60.3613C91.9404 60.3174 91.7776 60.3242 91.5649 60.3817C91.3523 60.4393 91.0694 60.5746 90.7162 60.7878C90.2682 61.0643 89.7887 61.3836 89.2774 61.7457C88.7749 62.1111 88.4686 62.3325 88.3584 62.4098C88.2603 62.4819 88.0779 62.6163 87.8112 62.813C87.5531 63.0131 87.3596 63.1632 87.2306 63.2633C87.105 63.3546 86.9569 63.4523 86.7863 63.5562C86.4746 63.7655 86.2666 63.8499 86.1622 63.8093C86.0578 63.7687 85.9558 63.6189 85.8562 63.3599C85.76 63.0922 85.7373 62.8931 85.788 62.7626C85.8421 62.6234 85.9897 62.3854 86.2308 62.0485C87.3149 60.5473 88.0336 59.5099 88.3867 58.9362C89.7182 56.8501 90.5446 55.3939 90.8658 54.5675ZM99.4643 64.0228C99.2851 64.4839 98.8858 64.7642 98.2662 64.8639C97.6588 64.9582 97.0375 64.882 96.4025 64.6352C95.7761 64.3917 95.2334 64.1007 94.7742 63.762C94.5037 64.0974 94.3092 64.4174 94.1909 64.7218C94.0759 65.0176 94.0776 65.2837 94.1961 65.5199C94.3232 65.7596 94.5999 65.9623 95.0262 66.128C95.4612 66.297 95.9336 66.3955 96.4434 66.4235C96.9653 66.4461 97.2481 66.4658 97.2916 66.4828C97.5177 66.5707 97.597 66.7016 97.5294 66.8756C97.4381 67.1105 97.073 67.264 96.4342 67.3361C95.7987 67.3995 95.2287 67.3332 94.7241 67.1371C94.0456 66.8733 93.5709 66.4586 93.3002 65.8927C93.0328 65.3182 93.0192 64.7221 93.2593 64.1044C93.4993 63.4868 93.9148 62.9072 94.5058 62.3659C95.1001 61.8158 95.7478 61.4117 96.449 61.1535C97.1501 60.8953 97.7573 60.866 98.2706 61.0654C98.7839 61.2649 99.1546 61.6894 99.3828 62.3389C99.6197 62.9917 99.6469 63.553 99.4643 64.0228ZM97.9352 62.1217C97.6133 61.9966 97.2124 62.036 96.7326 62.2401C96.2561 62.4354 95.7998 62.7336 95.3634 63.1348C95.681 63.3484 96.0616 63.5414 96.5053 63.7138C96.9489 63.8863 97.3631 63.9671 97.7478 63.9564C98.1358 63.937 98.3755 63.8099 98.4668 63.575C98.5581 63.3401 98.5423 63.0586 98.4195 62.7305C98.3054 62.4058 98.144 62.2028 97.9352 62.1217ZM50.2425 65.4736C51.6288 64.3802 52.7165 63.5913 53.5056 63.107C54.3067 62.6173 54.8726 62.4367 55.2031 62.5651C55.5424 62.697 55.7906 62.9988 55.9478 63.4704C56.1136 63.9454 56.1188 64.383 55.9632 64.7832C55.7198 65.4095 55.2787 66.1193 54.64 66.9124C53.4688 68.3798 52.6745 69.0324 52.2569 68.8701C52.0655 68.7957 52.0205 68.628 52.122 68.367C52.193 68.1844 52.428 67.8501 52.8271 67.3644C53.2383 66.8733 53.627 66.3885 53.9932 65.91C54.3715 65.4262 54.6131 65.0495 54.7179 64.7798C54.8261 64.5014 54.862 64.2801 54.8258 64.1158C54.7982 63.9548 54.7409 63.8575 54.6539 63.8237C54.5756 63.7932 54.4828 63.7872 54.3756 63.8056C54.2683 63.824 54.1344 63.8721 53.974 63.9499C53.8223 64.0311 53.6749 64.114 53.5318 64.1986C53.3922 64.2745 53.2062 64.3925 52.9737 64.5525C52.75 64.7159 52.5599 64.8573 52.4033 64.9767C52.2502 65.0874 52.0264 65.2507 51.7322 65.4668C51.4379 65.6829 51.2142 65.8463 51.061 65.957C50.9078 66.0677 50.7039 66.2187 50.4493 66.4101C50.1946 66.6016 49.9924 66.7483 49.8426 66.8503C49.7015 66.9556 49.5423 67.069 49.365 67.1903C49.0224 67.4277 48.7859 67.521 48.6554 67.4703C48.5336 67.4229 48.4272 67.2714 48.3363 67.0158C48.2488 66.7515 48.2338 66.5454 48.2913 66.3975C48.3082 66.354 48.3843 66.2484 48.5196 66.0807C48.881 65.6404 49.3054 65.0894 49.7929 64.4277C50.2838 63.7573 50.7222 62.9514 51.1081 62.0099C51.3811 61.385 51.5958 61.103 51.7524 61.1638C51.9438 61.2382 52.0963 61.4127 52.2099 61.6871C52.3235 61.9616 52.333 62.2206 52.2383 62.4642C52.147 62.6991 51.8939 63.1314 51.4789 63.7612C51.0759 64.3856 50.6638 64.9564 50.2425 65.4736ZM60.6332 67.2291C60.7482 66.9334 60.8085 66.6364 60.8143 66.3382C60.8234 66.0313 60.7603 65.7815 60.6249 65.5887C59.9604 65.5207 59.2619 65.7849 58.5294 66.3814C57.809 66.9726 57.3186 67.6031 57.0582 68.2729C56.7979 68.9428 56.8009 69.4246 57.0672 69.7183C57.7409 69.84 58.4372 69.62 59.1562 69.0583C59.8873 68.4913 60.3796 67.8816 60.6332 67.2291ZM57.1557 66.0127C57.7239 65.4525 58.3361 65.0496 58.9923 64.8039C59.6606 64.553 60.2514 64.5273 60.7647 64.7268C61.2866 64.9296 61.6354 65.3205 61.8109 65.8995C61.9898 66.4697 61.9559 67.0723 61.709 67.7074C61.4656 68.3337 61.0631 68.9183 60.5017 69.4611C59.9436 69.9952 59.3104 70.3749 58.602 70.6003C57.9056 70.8203 57.2573 70.8136 56.6571 70.5803C56.2134 70.4079 55.9231 70.0597 55.7863 69.5359C55.6494 69.0121 55.7027 68.437 55.9462 67.8106C56.193 67.1756 56.5962 66.5763 57.1557 66.0127ZM65.8579 64.5735C65.9255 64.3995 66.0594 64.2613 66.2594 64.1588C66.4595 64.0563 66.6291 64.0321 66.7683 64.0862C66.9162 64.1437 67.0209 64.3897 67.0823 64.8241C67.1472 65.2498 67.1339 65.5801 67.0426 65.815C67.0088 65.902 66.9392 65.9651 66.8339 66.0043C66.7286 66.0434 66.6324 66.0461 66.5454 66.0123C66.3366 65.9311 66.1508 65.7137 65.9878 65.36C65.8336 65.0097 65.7903 64.7475 65.8579 64.5735ZM65.0725 66.4011C65.2378 66.4654 65.3555 66.6263 65.4256 66.8838C65.4957 67.1414 65.4936 67.3659 65.4192 67.5572C65.3448 67.7486 64.9955 68.2738 64.3713 69.1326C63.7505 69.9828 63.0187 70.9251 62.1761 71.9594C61.8592 72.3369 61.5876 72.4817 61.3614 72.3938C61.2396 72.3464 61.1538 72.258 61.104 72.1285C61.0576 71.9903 61.0581 71.8603 61.1054 71.7385C61.1561 71.608 61.2643 71.4198 61.4301 71.1738C61.6079 70.9224 61.8456 70.5942 62.1432 70.1892C62.4529 69.7789 62.6983 69.4437 62.8795 69.1837C63.0693 68.927 63.2727 68.6356 63.4897 68.3093C63.71 67.9744 63.8841 67.7066 64.0122 67.506C64.1523 67.3001 64.2967 67.0959 64.4455 66.8934C64.733 66.5145 64.942 66.3504 65.0725 66.4011ZM70.3088 68.4363C70.6046 68.5513 70.8187 68.8248 70.9512 69.2568C71.0871 69.6801 71.1077 70.0136 71.013 70.2571C70.9555 70.405 70.8572 70.4519 70.718 70.3978C70.6223 70.3606 70.5032 70.2292 70.3606 70.0035C70.2213 69.7692 70.0473 69.6114 69.8386 69.5303C69.6298 69.4491 69.2519 69.4424 68.7048 69.5102C68.1665 69.5813 67.8449 69.7518 67.7401 70.0214C67.6623 70.2215 67.9289 70.7207 68.5399 71.5189C68.77 71.8286 68.9477 72.1831 69.0729 72.5822C69.2102 72.9761 69.2113 73.347 69.076 73.6949C68.9441 74.0342 68.5747 74.2762 67.9678 74.4208C67.3729 74.5601 66.758 74.5063 66.1229 74.2595C65.4966 74.016 64.999 73.6474 64.6301 73.1535C64.27 72.6631 64.1424 72.283 64.2472 72.0134C64.2911 71.9003 64.3511 71.8234 64.4269 71.7828C64.5149 71.7369 64.6023 71.7308 64.6893 71.7646C64.7763 71.7985 64.8761 71.9023 64.9888 72.0763C65.3267 72.5981 65.7479 72.9571 66.2525 73.1532C66.7657 73.3527 67.1574 73.4399 67.4276 73.4147C67.7011 73.3808 67.875 73.2682 67.9494 73.0768C68.0272 72.8767 67.9822 72.6189 67.8144 72.3034C67.6501 71.9791 67.4495 71.6709 67.2126 71.3785C66.9845 71.0896 66.7933 70.7699 66.639 70.4196C66.4848 70.0693 66.4584 69.7636 66.5599 69.5026C66.7391 69.0416 67.2861 68.7034 68.2008 68.4882C69.1277 68.2677 69.8303 68.2504 70.3088 68.4363ZM76.4974 73.3351C76.3182 73.7961 75.9189 74.0765 75.2994 74.1762C74.6919 74.2705 74.0707 74.1943 73.4356 73.9475C72.8093 73.704 72.2665 73.4129 71.8073 73.0743C71.5368 73.4097 71.3423 73.7296 71.224 74.0341C71.109 74.3299 71.1108 74.5959 71.2292 74.8322C71.3563 75.0719 71.633 75.2746 72.0593 75.4403C72.4943 75.6093 72.9667 75.7078 73.4765 75.7358C73.9985 75.7584 74.2812 75.7781 74.3247 75.795C74.5509 75.883 74.6301 76.0139 74.5625 76.1879C74.4712 76.4228 74.1061 76.5763 73.4673 76.6484C72.8318 76.7118 72.2618 76.6455 71.7572 76.4494C71.0787 76.1856 70.604 75.7708 70.3333 75.205C70.066 74.6304 70.0523 74.0343 70.2924 73.4167C70.5324 72.799 70.9479 72.2195 71.5389 71.6782C72.1332 71.1281 72.7809 70.724 73.4821 70.4658C74.1832 70.2076 74.7905 70.1782 75.3037 70.3777C75.817 70.5772 76.1877 71.0017 76.4159 71.6512C76.6529 72.304 76.68 72.8653 76.4974 73.3351ZM74.9683 71.434C74.6464 71.3089 74.2456 71.3483 73.7657 71.5523C73.2893 71.7477 72.8329 72.0459 72.3966 72.4471C72.7141 72.6607 73.0947 72.8537 73.5384 73.0261C73.982 73.1985 74.3962 73.2794 74.7809 73.2687C75.1689 73.2493 75.4086 73.1222 75.4999 72.8873C75.5912 72.6524 75.5754 72.3709 75.4526 72.0428C75.3385 71.7181 75.1771 71.5151 74.9683 71.434Z" fill="white"/>
</g>
</g>
<defs>
<filter id="filter0_i_1163_127449" x="0.000862747" y="0" width="137.258" height="108.782" filterUnits="userSpaceOnUse" color-interpolation-filters="sRGB">
<feFlood flood-opacity="0" result="BackgroundImageFix"/>
<feBlend mode="normal" in="SourceGraphic" in2="BackgroundImageFix" result="shape"/>
<feColorMatrix in="SourceAlpha" type="matrix" values="0 0 0 0 0 0 0 0 0 0 0 0 0 0 0 0 0 0 127 0" result="hardAlpha"/>
<feOffset dy="4"/>
<feGaussianBlur stdDeviation="8.7"/>
<feComposite in2="hardAlpha" operator="arithmetic" k2="-1" k3="1"/>
<feColorMatrix type="matrix" values="0 0 0 0 0.494118 0 0 0 0 0.337255 0 0 0 0 0.0117647 0 0 0 0.56 0"/>
<feBlend mode="normal" in2="shape" result="effect1_innerShadow_1163_127449"/>
</filter>
<clipPath id="clip0_1163_127449">
<rect x="23.5477" width="122" height="65" rx="19" transform="rotate(21.2398 23.5477 0)" fill="white"/>
</clipPath>
</defs>
</svg>
