<svg width="39" height="40" viewBox="0 0 39 40" fill="none" xmlns="http://www.w3.org/2000/svg">
<path d="M38.0587 29.5568C37.5914 31.7562 38.0821 34.1524 36.0211 36.6797C35.4396 37.3614 34.6299 37.9767 33.6942 38.3606C29.5624 39.6525 29.0888 38.6468 25.0225 38.9801C23.6469 39.0474 22.2845 39.027 21.0059 38.993C19.5015 38.9523 18.1198 38.8887 17.0059 38.8842C16.2934 38.8814 15.7038 38.9021 15.2418 38.9665C13.4543 39.21 13.2795 38.4626 10.7169 38.5395C8.16539 38.551 6.41714 38.3659 4.31185 37.0076C3.92667 36.74 3.40128 36.3392 2.89616 35.7726C0.407225 33.2319 0.772737 28.0229 0.410894 26.0936C0.201596 24.6327 0.31616 23.0621 0.464185 21.6633C0.567572 20.6939 0.688775 19.8118 0.74102 19.1183C0.780675 18.5919 0.834946 18.1777 0.89141 17.8601C0.915352 17.7255 0.965436 17.6634 1.01487 17.6633C1.01491 17.6633 1.01494 17.6633 1.01497 17.6633C1.07653 17.6634 1.13705 17.7597 1.14483 17.9327C1.18258 18.772 1.28219 20.0264 1.50542 21.5083C1.51334 21.5609 1.52094 21.6125 1.52823 21.6633C1.91874 24.2852 1.41886 24.6541 1.77596 28.2673C2.12994 31.0237 2.63 32.9698 4.1456 34.5243C4.63936 35.016 5.23916 35.4499 6.08076 35.8241C9.85167 37.1125 11.0843 35.7058 17.0059 36.3792C17.0844 36.3871 17.1639 36.3953 17.2442 36.4038C18.7837 36.5667 19.981 36.6144 21.0059 36.5917C24.0629 36.4768 25.7731 35.9696 29.9379 35.3505C31.3131 35.0878 32.4652 34.7023 33.2746 33.9308C35.6696 31.699 35.3838 25.6024 35.4818 23.0668C35.4757 22.6215 35.4677 22.1543 35.4592 21.6633C35.4376 20.4294 35.4123 19.0864 35.3945 17.6633C35.3453 15.0243 35.4169 12.067 35.1886 9.26898C35.0428 7.65251 34.6232 6.07833 33.5716 5.09671C31.5375 3.05621 26.9178 3.46014 23.1514 3.18427C22.4702 3.14834 21.7513 3.11373 21.0059 3.07838C19.72 3.01715 18.3672 2.95374 17.0059 2.88982C12.4934 2.6824 7.86784 2.41069 5.63575 3.24505C4.78194 3.53156 4.17119 3.92357 3.69173 4.34949C2.35682 5.61935 1.92846 6.84086 1.7159 9.47046C1.57266 11.5287 1.49887 14.4169 1.18375 16.8661C1.02684 18.0982 0.808344 17.8178 0.704434 16.5771C0.551762 14.7601 0.669544 13.2734 0.426888 12.3206C-0.0275323 10.4237 -0.293877 9.55114 0.54933 7.10418C1.23795 5.29905 1.65736 4.06122 2.41463 3.0713C2.66615 2.74796 2.95941 2.45936 3.31719 2.23091C4.76126 1.57748 5.04924 1.03314 12.1438 0.494522C13.9792 0.369383 15.5785 0.309265 17.0059 0.25125C18.5292 0.190923 19.8484 0.144637 21.0059 0.107273C22.9355 0.0444119 24.4313 0.00985656 25.6807 1.76893e-06C27.676 0.174022 32.1131 -0.392174 35.7298 2.94028C36.6252 3.83549 37.2504 4.96751 37.6298 5.99903C38.7961 9.13158 38.5676 13.7908 38.6393 17.6633C38.6517 19.1511 38.6718 20.5326 38.7084 21.6633C38.7253 22.1876 38.7455 22.6543 38.7696 23.0511C38.9633 26.6173 38.5315 26.6205 38.0587 29.5568Z" fill="#FFDBDB"/>
<path d="M24.064 9.09813C24.5079 8.71331 23.7624 7.6418 24.5148 7.10645C25.2644 6.65624 25.68 7.12071 26.3648 6.65072C26.9184 6.30719 27.6002 6.42837 28.0059 6.44245C28.1504 6.44533 28.2717 6.43163 28.3717 6.37434C28.7819 6.16267 28.6953 6.9226 29.187 6.88489C29.7044 6.87136 29.9707 7.12695 30.1599 7.56042C30.4017 7.98614 30.916 8.93419 31.328 9.22448C31.8016 9.52685 31.3818 10.1863 31.2627 10.433C31.2289 10.5195 31.1761 10.5847 31.1202 10.6335C31.0964 10.6541 31.0463 10.6634 30.9968 10.6633C30.9968 10.6633 30.9968 10.6633 30.9967 10.6633C30.9352 10.6632 30.8747 10.6496 30.8666 10.6257C30.8279 10.5112 30.7166 10.3352 30.4633 10.1986C29.9877 9.98392 30.4275 9.81399 30.0329 9.51281C29.6125 9.24453 29.2102 9.4362 29.0346 8.9883C28.9226 8.76078 28.692 8.89858 28.5233 9.02494C28.3391 9.15135 28.2445 9.2519 28.0059 8.94749C27.9992 8.93959 27.9923 8.93144 27.9853 8.92302C27.7014 8.60003 27.5064 8.79374 27.4612 9.06369C27.4035 9.33951 27.4616 9.69048 27.3917 9.84236C27.3211 9.99643 27.1271 10.0235 26.9156 10.1342C26.7071 10.2352 26.5124 10.4219 26.5328 10.5611C26.5373 10.5943 26.544 10.628 26.5525 10.6633C26.6176 10.9279 26.7599 11.1497 26.8258 11.4888C26.8677 11.6896 27.0793 11.811 27.2779 11.8757C27.483 11.9446 27.6596 11.9731 27.8497 12.1367C27.8954 12.1752 27.9474 12.2129 28.0059 12.2483C28.4288 12.5444 29.2176 12.5191 29.6417 12.3747C30.1189 12.2314 30.2705 12.1085 30.3232 11.6441C30.3469 11.3733 30.5031 11.0971 30.826 10.7726C30.9858 10.6084 31.2063 10.6306 31.3031 10.8367C31.4398 11.1436 31.2885 11.3666 31.5116 11.5893C31.9491 12.0477 32.0669 12.3543 31.5669 12.6191C31.0766 12.8435 31.5188 13.4292 31.2507 13.6098C30.9528 13.7458 30.8226 13.5435 29.7538 14.4857C29.1241 14.9658 28.4929 15.1467 28.0059 15.2194C27.5804 15.2809 27.2399 15.2641 26.9596 15.2382C26.3139 15.1988 25.3427 14.3365 24.6556 13.72C23.9355 13.2071 23.3592 11.5895 23.3033 10.6633C23.2865 10.5448 23.2705 10.439 23.2521 10.3447C23.1206 9.50001 23.6231 9.55167 24.064 9.09813Z" fill="#FFDBDB"/>
<path d="M11.5314 16.6957C12.1768 15.8257 11.649 14.3864 12.8533 13.3944C14.0784 12.5162 14.5747 12.9086 15.9266 12.1324C16.987 11.5771 18.2213 11.6248 19.0061 11.6425C19.2815 11.6453 19.5126 11.6382 19.6961 11.588C20.4311 11.413 20.383 12.1675 21.3216 12.2571C22.2811 12.3881 22.8008 12.7775 23.3268 13.4382C23.9392 14.0557 25.2713 15.9764 25.8162 16.7142C26.4765 17.4323 26.156 18.607 26.0535 19.1646C26.0265 19.3486 25.9756 19.4892 25.9202 19.597C25.8967 19.6426 25.8465 19.6634 25.797 19.6633C25.797 19.6633 25.797 19.6633 25.7969 19.6633C25.7354 19.6632 25.675 19.6317 25.6665 19.5758C25.6259 19.3069 25.5021 18.8985 25.1981 18.4932C24.6083 17.7839 25.0499 17.547 24.3379 16.6359C23.5619 15.7824 22.8777 15.6415 22.0253 14.7508C21.0256 13.9149 20.4813 14.8214 19.0061 14.1475C18.9848 14.1396 18.9632 14.1315 18.9414 14.1233C17.1618 13.6045 17.1468 14.9228 16.111 15.8028C15.0358 16.6946 13.7 18.2616 13.7417 19.3019C13.7405 19.4186 13.7442 19.5376 13.7527 19.6633C13.8117 20.5772 14.1492 21.6296 14.7139 22.6701C15.3821 23.9234 17.0484 24.527 18.4541 24.9164C18.6255 24.9679 18.8101 25.013 19.0061 25.0483C20.475 25.387 22.4249 24.7193 23.2677 24.1215C24.232 23.4755 24.4843 23.1996 24.8236 22.1259C25.0036 21.4996 25.2888 20.6968 25.6234 19.9196C25.7876 19.5278 26.01 19.6022 26.0981 20.0365C26.2177 20.6783 26.0074 21.1713 26.1865 21.5605C26.5295 22.3497 26.6012 22.7983 25.8988 23.448C25.1941 24.0511 25.4996 24.7936 25.0644 25.1642C24.5728 25.4548 24.5411 25.3904 22.334 26.9427C21.0713 27.7091 19.9039 27.9446 19.0061 28.0194C18.2237 28.0801 17.612 28.0186 17.1113 27.9431C15.9849 27.8207 14.0574 26.5123 12.8483 25.2809C11.6028 24.2783 10.4998 21.3546 10.5035 19.6633C10.4867 19.4483 10.4743 19.2576 10.4607 19.0891C10.3977 17.5968 10.917 17.6452 11.5314 16.6957Z" fill="#FFDBDB"/>
</svg>
