<svg width="14" height="427" viewBox="0 0 14 427" fill="none" xmlns="http://www.w3.org/2000/svg">
<path d="M6.12695 4H7.12695V423H6.12695V4Z" fill="#FFD11D"/>
<path d="M6.2461 13.5L2.54732 11.9772L6.2461 13.5ZM6.19827 16.5L2.45891 17.9203L6.19827 16.5ZM7.33772 19.5L3.59836 20.9203L7.33772 19.5ZM8.14391 22.5L4.1927 23.1229L8.14391 22.5ZM8.61682 25.5L4.66561 26.1229L8.61682 25.5ZM8.39712 28.5L4.57016 27.3362L8.39712 28.5ZM7.48481 31.5L3.65786 30.3362L7.48481 31.5ZM8.21131 43.5L4.36029 44.5815L8.21131 43.5ZM8.46719 46.5L4.49128 46.0617L8.46719 46.5ZM8.30182 48L4.32591 47.5617L8.30182 48ZM7.27693 52.5L10.9071 54.1799L7.27693 52.5ZM5.88863 55.5L2.25849 53.8201L5.88863 55.5ZM6.15846 58.5L9.52349 56.3375L6.15846 58.5ZM8.08643 61.5L4.7214 63.6625L8.08643 61.5ZM8.73976 64.5L4.82288 63.6888L8.73976 64.5ZM8.11847 67.5L4.20158 66.6888L8.11847 67.5ZM8.19149 70.5L4.31625 71.4912L8.19149 70.5ZM8.95884 73.5L12.8341 72.5088L8.95884 73.5ZM8.62655 76.5L12.2364 78.223L8.62655 76.5ZM7.19463 79.5L3.58475 77.777L7.19463 79.5ZM6.6711 82.5L2.70362 83.009L6.6711 82.5ZM7.4374 88.5L3.46878 89L7.4374 88.5ZM7.81539 91.5L11.784 91L7.81539 91.5ZM8.36874 94.5L4.48177 95.4442L8.36874 94.5ZM8.42426 100.5L11.714 102.775L8.42426 100.5ZM6.34917 103.5L3.05946 101.225L6.34917 103.5ZM6.34147 106.5L3.04386 108.764L6.34147 106.5ZM8.40117 109.5L11.6988 107.236L8.40117 109.5ZM8.87793 112.5L12.6309 113.884L8.87793 112.5ZM7.77175 115.5L4.01875 114.116L7.77175 115.5ZM7.53555 118.5L3.62193 119.327L7.53555 118.5ZM8.16932 121.5L12.0829 120.673L8.16932 121.5ZM7.64633 124.5L11.1365 126.454L7.64633 124.5ZM5.96656 127.5L2.47642 125.546L5.96656 127.5ZM6.21552 130.5L2.97846 132.85L6.21552 130.5ZM8.3932 133.5L5.15613 135.85L8.3932 133.5ZM9.17559 136.5L5.25654 135.699L9.17559 136.5ZM8.5627 139.5L12.4817 140.301L8.5627 139.5ZM8.13015 142.5L4.14421 142.165L8.13015 142.5ZM7.87797 145.5L11.8639 145.835L7.87797 145.5ZM8.04467 151.5L4.05311 151.76L8.04467 151.5ZM7.41319 154.5L3.81563 152.751L7.41319 154.5ZM5.95504 157.5L9.5526 159.249L5.95504 157.5ZM5.76218 160.5L9.52875 159.154L5.76218 160.5ZM6.8346 163.5L3.06802 164.846L6.8346 163.5ZM7.50536 169.5L3.50715 169.62L7.50536 169.5ZM6.8859 172.5L10.5433 174.12L6.8859 172.5ZM5.55727 175.5L1.8999 173.88L5.55727 175.5ZM5.77482 178.5L9.22305 176.473L5.77482 178.5ZM7.53853 181.5L4.0903 183.527L7.53853 181.5ZM8.13288 184.5L4.20439 183.747L8.13288 184.5ZM7.55784 187.5L11.4863 188.253L7.55784 187.5ZM6.93547 190.5L3.03156 189.629L6.93547 190.5ZM6.26578 193.5L10.1697 194.371L6.26578 193.5ZM6.40509 196.5L10.2191 195.294L6.40509 196.5ZM6.87923 198L3.06524 199.206L6.87923 198ZM7.35338 199.5L3.53939 200.706L7.35338 199.5ZM7.94651 205.5L3.9479 205.606L7.94651 205.5ZM7.19051 208.5L3.65686 206.626L7.19051 208.5ZM5.5992 211.5L9.13286 213.374L5.5992 211.5ZM5.86492 214.5L9.13018 212.19L5.86492 214.5ZM6.92629 216L3.66103 218.31L6.92629 216ZM7.98765 217.5L4.72239 219.81L7.98765 217.5ZM8.08293 220.5L11.4458 222.666L8.08293 220.5ZM6.15074 223.5L2.78787 221.334L6.15074 223.5ZM6.6825 232.5L3.24748 234.55V234.55L6.6825 232.5ZM8.47249 235.5L11.9075 233.45L8.47249 235.5ZM9.30497 241.5L5.30536 241.444L9.30497 241.5ZM8.42694 244.5L11.8999 246.485V246.485L8.42694 244.5ZM6.71257 247.5L3.23964 245.515L6.71257 247.5ZM7.20844 256.5L3.20931 256.583L7.20844 256.5ZM7.27107 259.5L3.27194 259.583L7.27107 259.5ZM6.54008 268.5L2.55344 268.173L6.54008 268.5ZM6.29421 271.5L10.2808 271.827L6.29421 271.5ZM6.16067 280.5L9.70734 278.65L6.16067 280.5ZM7.72521 283.5L4.17854 285.35L7.72521 283.5ZM8.21982 286.5L4.2914 285.747L8.21982 286.5ZM7.83166 292.5L11.6452 291.293L7.83166 292.5ZM8.78132 295.5L4.96782 296.707L8.78132 295.5ZM6.72907 304.5L10.7045 304.058L6.72907 304.5ZM7.06282 307.5L3.08734 307.942L7.06282 307.5ZM7.5617 316.5L11.4898 315.745L7.5617 316.5ZM8.13837 319.5L4.21028 320.255L8.13837 319.5ZM8.31214 322.5L4.32376 322.195L8.31214 322.5ZM8.19759 324L4.2092 323.695L8.19759 324ZM8.08303 325.5L12.0714 325.805L8.08303 325.5ZM7.84755 328.5L3.86049 328.179L7.84755 328.5ZM7.41524 334.5L3.41953 334.315L7.41524 334.5ZM8.21323 346.5L12.1809 345.992L8.21323 346.5ZM8.59722 349.5L4.62959 350.008L8.59722 349.5ZM8.52343 358.5L4.53386 358.211L8.52343 358.5ZM8.30639 361.5L12.296 361.789L8.30639 361.5ZM5.63491 370.5L9.61711 370.123L5.63491 370.5ZM5.91895 373.5L1.93676 373.877L5.91895 373.5ZM8.49314 382.5L4.49323 382.527L8.49314 382.5ZM8.10721 388.5L4.25256 387.432L8.10721 388.5ZM6.68242 394.5L2.71011 394.03L6.68242 394.5ZM6.32759 397.5L10.2999 397.97L6.32759 397.5ZM5.63716 406.5L1.64779 406.209L5.63716 406.5ZM5.41797 409.5L9.40734 409.791L5.41797 409.5ZM6.04819 418.5L2.05355 418.293L6.04819 418.5ZM5.89272 421.5L9.88736 421.707L5.89272 421.5ZM6.47502 421.75L10.0122 423.618L6.47502 421.75ZM7.13505 420.5L3.59787 418.632L7.13505 420.5ZM7.79508 419.25L4.2579 417.382L7.79508 419.25ZM7.76566 416.5L4.13119 418.171L7.76566 416.5ZM7.07621 415L3.44174 416.671L7.07621 415ZM6.38676 413.5L10.0212 411.829L6.38676 413.5ZM5.34951 410.5L1.45289 411.404L5.34951 410.5ZM5.00171 409L1.10509 409.904L5.00171 409ZM4.65391 407.5L8.55053 406.596L4.65391 407.5ZM4.57364 404.5L0.63579 403.798L4.57364 404.5ZM5.10872 401.5L9.04658 402.202L5.10872 401.5ZM5.44333 398.5L1.44732 398.321L5.44333 398.5ZM5.57748 395.5L9.57348 395.679L5.57748 395.5ZM5.55552 392.5L1.56255 392.737L5.55552 392.5ZM5.37747 389.5L9.37044 389.263L5.37747 389.5ZM5.21382 383.5L1.21437 383.566L5.21382 383.5ZM5.79596 380.5L2.08806 379L5.79596 380.5ZM7.00998 377.5L10.7179 379L7.00998 377.5ZM7.09932 374.5L3.31816 375.805L7.09932 374.5ZM6.06398 371.5L9.84514 370.195L6.06398 371.5ZM5.66325 368.5L1.67535 368.189L5.66325 368.5ZM5.89711 365.5L9.88501 365.811L5.89711 365.5ZM5.88998 359.5L1.8915 359.61L5.88998 359.5ZM5.92942 356.5L1.93521 356.285L5.92942 356.5ZM6.091 353.5L10.0852 353.715L6.091 353.5ZM6.57731 350.5L2.71594 349.456L6.57731 350.5ZM7.38835 347.5L11.2497 348.544L7.38835 347.5ZM6.78877 344.5L10.1117 342.273L6.78877 344.5ZM4.77856 341.5L1.45559 343.727L4.77856 341.5ZM4.87203 338.5L1.64494 336.137L4.87203 338.5ZM7.06917 335.5L10.2963 337.863L7.06917 335.5ZM7.47505 326.5L11.2781 325.26L7.47505 326.5ZM6.49725 323.5L2.69416 324.74L6.49725 323.5ZM5.61059 320.5L9.47697 319.475L5.61059 320.5ZM4.81509 317.5L0.948708 318.525L4.81509 317.5ZM4.36692 308.5L8.36308 308.325L4.36692 308.5ZM4.23551 305.5L0.239338 305.675L4.23551 305.5ZM5.11165 302.5L1.72407 300.373L5.11165 302.5ZM6.99534 299.5L10.3829 301.627L6.99534 299.5ZM7.58086 296.5L11.4726 295.576L7.58086 296.5ZM6.86822 293.5L2.97652 294.424L6.86822 293.5ZM6.73602 290.5L2.77993 289.909L6.73602 290.5ZM7.18426 287.5L11.1403 288.091L7.18426 287.5ZM7.09213 284.5L11.0061 283.675L7.09213 284.5ZM6.45965 281.5L2.54569 282.325L6.45965 281.5ZM6.28531 278.5L2.30309 278.123L6.28531 278.5ZM6.56911 275.5L10.5513 275.877L6.56911 275.5ZM6.067 272.5L9.74255 270.922L6.067 272.5ZM5.42298 271L1.74743 272.578L5.42298 271ZM4.77897 269.5L1.10342 271.078L4.77897 269.5ZM5.15705 266.5L1.85149 264.248L5.15705 266.5ZM7.20124 263.5L10.5068 265.752L7.20124 263.5ZM7.46762 260.5L11.0399 258.7L7.46762 260.5ZM5.9562 257.5L9.52845 255.7L5.9562 257.5ZM5.47032 254.5L1.53351 253.792V253.792L5.47032 254.5ZM6.00999 251.5L9.9468 252.208L6.00999 251.5ZM6.55821 245.5L2.56584 245.253L6.55821 245.5ZM6.02383 242.5L2.33343 244.043L6.02383 242.5ZM4.76948 239.5L8.45989 237.957L4.76948 239.5ZM4.65416 236.5L8.43982 237.792L4.65416 236.5ZM5.16601 235L1.38035 233.708L5.16601 235ZM5.67786 233.5L1.8922 232.208L5.67786 233.5ZM6.43119 227.5L2.43694 227.286L6.43119 227.5ZM6.99347 224.5L10.8018 225.723L6.99347 224.5ZM7.95704 221.5L4.14866 220.277L7.95704 221.5ZM7.63294 218.5L4.10928 220.393L7.63294 218.5ZM6.02116 215.5L9.54482 213.607L6.02116 215.5ZM5.4242 209.5L1.42851 209.314L5.4242 209.5ZM5.87241 206.5L1.99402 205.521L5.87241 206.5ZM6.62954 203.5L10.5079 204.479L6.62954 203.5ZM7.68701 194.5L11.67 194.131L7.68701 194.5ZM7.4093 191.5L3.42633 191.869L7.4093 191.5ZM5.46675 182.5L9.44179 182.054L5.46675 182.5ZM5.13003 179.5L1.15499 179.946L5.13003 179.5ZM5.2326 170.5L1.82746 168.401L5.2326 170.5ZM7.08171 167.5L10.4868 169.599L7.08171 167.5ZM7.07301 164.5L3.6767 166.613L7.07301 164.5ZM5.20652 161.5L8.60283 159.387L5.20652 161.5ZM4.52598 158.5L0.581563 157.835L4.52598 158.5ZM5.03139 155.5L8.97581 156.165L5.03139 155.5ZM5.45986 146.5L1.54313 145.688L5.45986 146.5ZM6.08174 143.5L9.99848 144.312L6.08174 143.5ZM5.83207 134.5L1.9876 133.395L5.83207 134.5ZM6.694 131.5L2.84952 130.395L6.694 131.5ZM6.49032 122.5L10.1911 124.018L6.49032 122.5ZM7.7209 119.5L4.02014 117.982L7.7209 119.5ZM5.43238 110.5L8.76802 112.708L5.43238 110.5ZM7.41783 107.5L4.08219 105.292L7.41783 107.5ZM8.20006 103L4.20987 103.28L8.20006 103ZM4.36566 89.5L0.391237 89.0483L4.36566 89.5ZM5.36142 85L1.5047 83.939L5.36142 85ZM6.70543 80.5L10.4858 81.8073L6.70543 80.5ZM7.74284 77.5L3.96249 76.1927L7.74284 77.5ZM5.92846 53.5L1.95076 53.9218L5.92846 53.5ZM7.75525 32.5L4.0741 34.065L7.75525 32.5ZM6.99143 25L3.25614 23.569L6.99143 25ZM7.11287 6.5L3.39178 7.96747L3.88474 9.21747L7.60583 7.75L11.3269 6.28253L10.834 5.03253L7.11287 6.5ZM7.60583 7.75L3.88474 9.21747C3.86367 9.16405 3.84628 9.1029 3.83567 9.03821C3.8251 8.9738 3.82352 8.91978 3.82526 8.88145C3.82874 8.80462 3.84325 8.82948 3.78244 8.97718L7.48123 10.5L11.18 12.0228C11.8988 10.2769 12.111 8.27079 11.3269 6.28253L7.60583 7.75ZM7.48123 10.5L3.78244 8.97718L3.16488 10.4772L6.86367 12L10.5625 13.5228L11.18 12.0228L7.48123 10.5ZM6.86367 12L3.16488 10.4772L2.54732 11.9772L6.2461 13.5L9.94489 15.0228L10.5625 13.5228L6.86367 12ZM6.2461 13.5L2.54732 11.9772C1.75324 13.9059 1.71368 15.9582 2.45891 17.9203L6.19827 16.5L9.93763 15.0797C9.92487 15.0461 9.92256 15.0316 9.92301 15.034C9.92356 15.037 9.92511 15.0481 9.92486 15.0638C9.92461 15.0793 9.92276 15.088 9.92311 15.0864C9.92359 15.0841 9.92813 15.0635 9.94489 15.0228L6.2461 13.5ZM6.19827 16.5L2.45891 17.9203L3.02864 19.4203L6.768 18L10.5074 16.5797L9.93763 15.0797L6.19827 16.5ZM6.768 18L3.02864 19.4203L3.59836 20.9203L7.33772 19.5L11.0771 18.0797L10.5074 16.5797L6.768 18ZM7.33772 19.5L3.59836 20.9203C3.88578 21.677 4.08035 22.4102 4.1927 23.1229L8.14391 22.5L12.0951 21.8771C11.8922 20.5898 11.5493 19.323 11.0771 18.0797L7.33772 19.5ZM8.14391 22.5L4.1927 23.1229L4.42915 24.6229L8.38036 24L12.3316 23.3771L12.0951 21.8771L8.14391 22.5ZM8.38036 24L4.42915 24.6229L4.66561 26.1229L8.61682 25.5L12.568 24.8771L12.3316 23.3771L8.38036 24ZM8.61682 25.5L4.66561 26.1229C4.72599 26.5059 4.70423 26.8954 4.57016 27.3362L8.39712 28.5L12.2241 29.6638C12.6982 28.1046 12.8229 26.4941 12.568 24.8771L8.61682 25.5ZM8.39712 28.5L4.57016 27.3362L4.11401 28.8362L7.94097 30L11.7679 31.1638L12.2241 29.6638L8.39712 28.5ZM7.94097 30L4.11401 28.8362L3.65786 30.3362L7.48481 31.5L11.3118 32.6638L11.7679 31.1638L7.94097 30ZM7.48481 31.5L3.65786 30.3362C3.24925 31.6799 3.02758 33.0531 3.00875 34.4459L7.00839 34.5L11.008 34.5541C11.0162 33.9469 11.1122 33.3201 11.3118 32.6638L7.48481 31.5ZM7.00839 34.5L3.00875 34.4459L2.98848 35.9459L6.98811 36L10.9877 36.0541L11.008 34.5541L7.00839 34.5ZM6.98811 36L2.98848 35.9459L2.9682 37.4459L6.96784 37.5L10.9675 37.5541L10.9877 36.0541L6.98811 36ZM6.96784 37.5L2.9682 37.4459C2.9493 38.8442 3.13723 40.2264 3.51779 41.5815L7.36881 40.5L11.2198 39.4185C11.0387 38.7736 10.9593 38.1558 10.9675 37.5541L6.96784 37.5ZM7.36881 40.5L3.51779 41.5815L3.93904 43.0815L7.79006 42L11.6411 40.9185L11.2198 39.4185L7.36881 40.5ZM7.79006 42L3.93904 43.0815L4.36029 44.5815L8.21131 43.5L12.0623 42.4185L11.6411 40.9185L7.79006 42ZM8.21131 43.5L4.36029 44.5815C4.507 45.1039 4.54348 45.5882 4.49128 46.0617L8.46719 46.5L12.4431 46.9383C12.6114 45.4118 12.4773 43.8961 12.0623 42.4185L8.21131 43.5ZM8.46719 46.5L4.49128 46.0617L4.32591 47.5617L8.30182 48L12.2777 48.4383L12.4431 46.9383L8.46719 46.5ZM8.30182 48L4.32591 47.5617L4.16054 49.0617L8.13645 49.5L12.1124 49.9383L12.2777 48.4383L8.30182 48ZM8.13645 49.5L4.16054 49.0617C4.10197 49.5929 3.94517 50.1753 3.64679 50.8201L7.27693 52.5L10.9071 54.1799C11.5342 52.8247 11.9504 51.4071 12.1124 49.9383L8.13645 49.5ZM7.27693 52.5L3.64679 50.8201L2.95264 52.3201L6.58278 54L10.2129 55.6799L10.9071 54.1799L7.27693 52.5ZM6.58278 54L2.95264 52.3201L2.25849 53.8201L5.88863 55.5L9.51877 57.1799L10.2129 55.6799L6.58278 54ZM5.88863 55.5L2.25849 53.8201C1.16885 56.1747 1.48076 58.62 2.79344 60.6625L6.15846 58.5L9.52349 56.3375C9.48697 56.2806 9.57037 56.3909 9.59293 56.6417C9.61681 56.9072 9.55249 57.107 9.51877 57.1799L5.88863 55.5ZM6.15846 58.5L2.79344 60.6625L3.75742 62.1625L7.12244 60L10.4875 57.8375L9.52349 56.3375L6.15846 58.5ZM7.12244 60L3.75742 62.1625L4.7214 63.6625L8.08643 61.5L11.4514 59.3375L10.4875 57.8375L7.12244 60ZM8.08643 61.5L4.7214 63.6625C4.82581 63.825 4.83091 63.8858 4.82336 63.8512C4.81982 63.8349 4.81567 63.8069 4.81548 63.7714C4.81529 63.7358 4.81914 63.7068 4.82288 63.6888L8.73976 64.5L12.6566 65.3112C13.1108 63.118 12.5602 61.0627 11.4514 59.3375L8.08643 61.5ZM8.73976 64.5L4.82288 63.6888L4.51223 65.1888L8.42912 66L12.346 66.8112L12.6566 65.3112L8.73976 64.5ZM8.42912 66L4.51223 65.1888L4.20158 66.6888L8.11847 67.5L12.0354 68.3112L12.346 66.8112L8.42912 66ZM8.11847 67.5L4.20158 66.6888C3.86966 68.2916 3.91129 69.908 4.31625 71.4912L8.19149 70.5L12.0667 69.5088C11.9601 69.092 11.9531 68.7084 12.0354 68.3112L8.11847 67.5ZM8.19149 70.5L4.31625 71.4912L4.69993 72.9912L8.57517 72L12.4504 71.0088L12.0667 69.5088L8.19149 70.5ZM8.57517 72L4.69993 72.9912L5.0836 74.4912L8.95884 73.5L12.8341 72.5088L12.4504 71.0088L8.57517 72ZM8.95884 73.5L5.0836 74.4912C5.09042 74.5179 5.09197 74.5331 5.09242 74.5393C5.09286 74.5453 5.09287 74.5511 5.09192 74.5596C5.09056 74.5718 5.08192 74.6403 5.01667 74.777L8.62655 76.5L12.2364 78.223C13.0854 76.4443 13.3398 74.4861 12.8341 72.5088L8.95884 73.5ZM8.62655 76.5L5.01667 74.777L4.30071 76.277L7.91059 78L11.5205 79.723L12.2364 78.223L8.62655 76.5ZM7.91059 78L4.30071 76.277L3.58475 77.777L7.19463 79.5L10.8045 81.223L11.5205 79.723L7.91059 78ZM7.19463 79.5L3.58475 77.777C2.8102 79.3997 2.46786 81.1712 2.70362 83.009L6.6711 82.5L10.6386 81.991C10.6178 81.8288 10.6244 81.6003 10.8045 81.223L7.19463 79.5ZM6.6711 82.5L2.70362 83.009L2.89605 84.509L6.86354 84L10.831 83.491L10.6386 81.991L6.6711 82.5ZM6.86354 84L2.89605 84.509L3.08849 86.009L7.05597 85.5L11.0235 84.991L10.831 83.491L6.86354 84ZM7.05597 85.5L3.08849 86.009C3.21639 87.006 3.34316 88.003 3.46878 89L7.4374 88.5L11.406 88C11.2797 86.997 11.1521 85.994 11.0235 84.991L7.05597 85.5ZM7.4374 88.5L3.46878 89L3.65777 90.5L7.62639 90L11.595 89.5L11.406 88L7.4374 88.5ZM7.62639 90L3.65777 90.5L3.84677 92L7.81539 91.5L11.784 91L11.595 89.5L7.62639 90ZM7.81539 91.5L3.84677 92C3.99199 93.1526 4.20405 94.3008 4.48177 95.4442L8.36874 94.5L12.2557 93.5558C12.0476 92.6992 11.8908 91.8474 11.784 91L7.81539 91.5ZM8.36874 94.5L4.48177 95.4442L4.84612 96.9442L8.7331 96L12.6201 95.0558L12.2557 93.5558L8.36874 94.5ZM8.7331 96L4.84612 96.9442L5.21048 98.4442L9.09745 97.5L12.9844 96.5558L12.6201 95.0558L8.7331 96ZM9.09745 97.5L5.21048 98.4442C5.20115 98.4057 5.19278 98.3515 5.19218 98.287C5.19159 98.2225 5.19895 98.1663 5.20839 98.1242C5.22765 98.0384 5.2414 98.07 5.13456 98.2245L8.42426 100.5L11.714 102.775C12.9258 101.023 13.5461 98.8682 12.9844 96.5558L9.09745 97.5ZM8.42426 100.5L5.13456 98.2245L4.09701 99.7245L7.38672 102L10.6764 104.275L11.714 102.775L8.42426 100.5ZM7.38672 102L4.09701 99.7245L3.05946 101.225L6.34917 103.5L9.63888 105.775L10.6764 104.275L7.38672 102ZM6.34917 103.5L3.05946 101.225C2.35392 102.245 1.83226 103.519 1.82849 104.99C1.82471 106.461 2.34046 107.739 3.04386 108.764L6.34147 106.5L9.63908 104.236C9.65592 104.261 9.82967 104.539 9.82846 105.01C9.82725 105.481 9.65273 105.755 9.63888 105.775L6.34917 103.5ZM6.34147 106.5L3.04386 108.764L4.07371 110.264L7.37132 108L10.6689 105.736L9.63908 104.236L6.34147 106.5ZM7.37132 108L4.07371 110.264L5.10356 111.764L8.40117 109.5L11.6988 107.236L10.6689 105.736L7.37132 108ZM8.40117 109.5L5.10356 111.764C5.17609 111.87 5.11536 111.82 5.08485 111.628C5.07004 111.535 5.06682 111.433 5.07736 111.333C5.0878 111.233 5.10909 111.159 5.12492 111.116L8.87793 112.5L12.6309 113.884C13.5158 111.484 13.0028 109.135 11.6988 107.236L8.40117 109.5ZM8.87793 112.5L5.12492 111.116L4.57184 112.616L8.32484 114L12.0778 115.384L12.6309 113.884L8.87793 112.5ZM8.32484 114L4.57184 112.616L4.01875 114.116L7.77175 115.5L11.5248 116.884L12.0778 115.384L8.32484 114ZM7.77175 115.5L4.01875 114.116C3.40105 115.791 3.24806 117.557 3.62193 119.327L7.53555 118.5L11.4492 117.673C11.4005 117.443 11.405 117.209 11.5248 116.884L7.77175 115.5ZM7.53555 118.5L3.62193 119.327L3.93881 120.827L7.85244 120L11.7661 119.173L11.4492 117.673L7.53555 118.5ZM7.85244 120L3.93881 120.827L4.2557 122.327L8.16932 121.5L12.0829 120.673L11.7661 119.173L7.85244 120ZM8.16932 121.5L4.2557 122.327C4.25733 122.335 4.25631 122.332 4.25615 122.324C4.25599 122.315 4.2569 122.31 4.25645 122.313C4.25614 122.315 4.24371 122.389 4.15618 122.546L7.64633 124.5L11.1365 126.454C12.1081 124.719 12.519 122.737 12.0829 120.673L8.16932 121.5ZM7.64633 124.5L4.15618 122.546L3.3163 124.046L6.80644 126L10.2966 127.954L11.1365 126.454L7.64633 124.5ZM6.80644 126L3.3163 124.046L2.47642 125.546L5.96656 127.5L9.45671 129.454L10.2966 127.954L6.80644 126ZM5.96656 127.5L2.47642 125.546C1.86426 126.639 1.50613 127.928 1.62257 129.331C1.73712 130.711 2.28505 131.895 2.97846 132.85L6.21552 130.5L9.45259 128.15C9.4201 128.105 9.56359 128.289 9.59516 128.669C9.62861 129.072 9.50895 129.361 9.45671 129.454L5.96656 127.5ZM6.21552 130.5L2.97846 132.85L4.06729 134.35L7.30436 132L10.5414 129.65L9.45259 128.15L6.21552 130.5ZM7.30436 132L4.06729 134.35L5.15613 135.85L8.3932 133.5L11.6303 131.15L10.5414 129.65L7.30436 132ZM8.3932 133.5L5.15613 135.85C5.28222 136.023 5.28007 136.076 5.26268 136.009C5.25399 135.976 5.24497 135.926 5.24321 135.863C5.24143 135.8 5.24748 135.744 5.25654 135.699L9.17559 136.5L13.0946 137.301C13.5701 134.973 12.865 132.851 11.6303 131.15L8.3932 133.5ZM9.17559 136.5L5.25654 135.699L4.9501 137.199L8.86914 138L12.7882 138.801L13.0946 137.301L9.17559 136.5ZM8.86914 138L4.9501 137.199L4.64365 138.699L8.5627 139.5L12.4817 140.301L12.7882 138.801L8.86914 138ZM8.5627 139.5L4.64365 138.699C4.40847 139.85 4.24164 141.006 4.14421 142.165L8.13015 142.5L12.1161 142.835C12.1868 141.994 12.3083 141.15 12.4817 140.301L8.5627 139.5ZM8.13015 142.5L4.14421 142.165L4.01812 143.665L8.00406 144L11.99 144.335L12.1161 142.835L8.13015 142.5ZM8.00406 144L4.01812 143.665L3.89203 145.165L7.87797 145.5L11.8639 145.835L11.99 144.335L8.00406 144ZM7.87797 145.5L3.89203 145.165C3.79136 146.362 3.77994 147.561 3.85791 148.76L7.84947 148.5L11.841 148.24C11.7889 147.439 11.7965 146.637 11.8639 145.835L7.87797 145.5ZM7.84947 148.5L3.85791 148.76L3.95551 150.26L7.94707 150L11.9386 149.74L11.841 148.24L7.84947 148.5ZM7.94707 150L3.95551 150.26L4.05311 151.76L8.04467 151.5L12.0362 151.24L11.9386 149.74L7.94707 150ZM8.04467 151.5L4.05311 151.76C4.06834 151.994 4.03241 152.305 3.81563 152.751L7.41319 154.5L11.0108 156.249C11.7661 154.695 12.1511 153.006 12.0362 151.24L8.04467 151.5ZM7.41319 154.5L3.81563 152.751L3.08656 154.251L6.68412 156L10.2817 157.749L11.0108 156.249L7.41319 154.5ZM6.68412 156L3.08656 154.251L2.35748 155.751L5.95504 157.5L9.5526 159.249L10.2817 157.749L6.68412 156ZM5.95504 157.5L2.35748 155.751C1.42608 157.668 1.25763 159.782 1.9956 161.846L5.76218 160.5L9.52875 159.154C9.52373 159.139 9.52734 159.146 9.53086 159.17C9.53446 159.194 9.53609 159.225 9.53405 159.257C9.53203 159.288 9.52726 159.308 9.52624 159.311C9.52546 159.314 9.53072 159.294 9.5526 159.249L5.95504 157.5ZM5.76218 160.5L1.9956 161.846L2.53181 163.346L6.29839 162L10.065 160.654L9.52875 159.154L5.76218 160.5ZM6.29839 162L2.53181 163.346L3.06802 164.846L6.8346 163.5L10.6012 162.154L10.065 160.654L6.29839 162ZM6.8346 163.5L3.06802 164.846C3.29323 165.476 3.40081 166.063 3.41744 166.62L7.41566 166.5L11.4139 166.38C11.3707 164.937 11.0909 163.524 10.6012 162.154L6.8346 163.5ZM7.41566 166.5L3.41744 166.62L3.4623 168.12L7.46051 168L11.4587 167.88L11.4139 166.38L7.41566 166.5ZM7.46051 168L3.4623 168.12L3.50715 169.62L7.50536 169.5L11.5036 169.38L11.4587 167.88L7.46051 168ZM7.50536 169.5L3.50715 169.62C3.51756 169.968 3.45206 170.376 3.22853 170.88L6.8859 172.5L10.5433 174.12C11.2055 172.624 11.553 171.032 11.5036 169.38L7.50536 169.5ZM6.8859 172.5L3.22853 170.88L2.56421 172.38L6.22159 174L9.87896 175.62L10.5433 174.12L6.8859 172.5ZM6.22159 174L2.56421 172.38L1.8999 173.88L5.55727 175.5L9.21464 177.12L9.87896 175.62L6.22159 174ZM5.55727 175.5L1.8999 173.88C0.899021 176.14 1.13208 178.495 2.32658 180.527L5.77482 178.5L9.22305 176.473C9.19178 176.42 9.25432 176.508 9.26902 176.711C9.27592 176.806 9.2698 176.898 9.25488 176.978C9.24025 177.057 9.22086 177.106 9.21464 177.12L5.55727 175.5ZM5.77482 178.5L2.32658 180.527L3.20844 182.027L6.65667 180L10.1049 177.973L9.22305 176.473L5.77482 178.5ZM6.65667 180L3.20844 182.027L4.0903 183.527L7.53853 181.5L10.9868 179.473L10.1049 177.973L6.65667 180ZM7.53853 181.5L4.0903 183.527C4.18769 183.693 4.20362 183.774 4.20431 183.777C4.20493 183.78 4.20361 183.775 4.20357 183.763C4.20353 183.751 4.20481 183.745 4.20439 183.747L8.13288 184.5L12.0614 185.253C12.4614 183.166 11.994 181.186 10.9868 179.473L7.53853 181.5ZM8.13288 184.5L4.20439 183.747L3.91687 185.247L7.84536 186L11.7738 186.753L12.0614 185.253L8.13288 184.5ZM7.84536 186L3.91687 185.247L3.62935 186.747L7.55784 187.5L11.4863 188.253L11.7738 186.753L7.84536 186ZM7.55784 187.5L3.62935 186.747C3.44532 187.707 3.24606 188.668 3.03156 189.629L6.93547 190.5L10.8394 191.371C11.0713 190.332 11.287 189.293 11.4863 188.253L7.55784 187.5ZM6.93547 190.5L3.03156 189.629L2.69672 191.129L6.60063 192L10.5045 192.871L10.8394 191.371L6.93547 190.5ZM6.60063 192L2.69672 191.129L2.36187 192.629L6.26578 193.5L10.1697 194.371L10.5045 192.871L6.60063 192ZM6.26578 193.5L2.36187 192.629C1.98127 194.334 2.06772 196.05 2.59109 197.706L6.40509 196.5L10.2191 195.294C10.1103 194.95 10.1038 194.666 10.1697 194.371L6.26578 193.5ZM6.40509 196.5L2.59109 197.706L3.06524 199.206L6.87923 198L10.6932 196.794L10.2191 195.294L6.40509 196.5ZM6.87923 198L3.06524 199.206L3.53939 200.706L7.35338 199.5L11.1674 198.294L10.6932 196.794L6.87923 198ZM7.35338 199.5L3.53939 200.706C3.74836 201.367 3.85249 201.997 3.86859 202.606L7.86719 202.5L11.8658 202.394C11.829 201.003 11.5906 199.633 11.1674 198.294L7.35338 199.5ZM7.86719 202.5L3.86859 202.606L3.90825 204.106L7.90685 204L11.9055 203.894L11.8658 202.394L7.86719 202.5ZM7.90685 204L3.90825 204.106L3.9479 205.606L7.94651 205.5L11.9451 205.394L11.9055 203.894L7.90685 204ZM7.94651 205.5L3.9479 205.606C3.95383 205.83 3.90751 206.153 3.65686 206.626L7.19051 208.5L10.7242 210.374C11.5344 208.847 11.9921 207.17 11.9451 205.394L7.94651 205.5ZM7.19051 208.5L3.65686 206.626L2.8612 208.126L6.39486 210L9.92851 211.874L10.7242 210.374L7.19051 208.5ZM6.39486 210L2.8612 208.126L2.06555 209.626L5.5992 211.5L9.13286 213.374L9.92851 211.874L6.39486 210ZM5.5992 211.5L2.06555 209.626C1.4856 210.719 1.16243 211.987 1.2834 213.353C1.4025 214.698 1.92696 215.86 2.59966 216.81L5.86492 214.5L9.13018 212.19C9.0953 212.14 9.22168 212.302 9.25221 212.647C9.28461 213.013 9.18238 213.281 9.13286 213.374L5.5992 211.5ZM5.86492 214.5L2.59966 216.81L3.66103 218.31L6.92629 216L10.1915 213.69L9.13018 212.19L5.86492 214.5ZM6.92629 216L3.66103 218.31L4.72239 219.81L7.98765 217.5L11.2529 215.19L10.1915 213.69L6.92629 216ZM7.98765 217.5L4.72239 219.81C4.72559 219.815 4.55828 219.571 4.54417 219.127C4.52974 218.672 4.68749 218.385 4.72006 218.334L8.08293 220.5L11.4458 222.666C12.1224 221.615 12.5863 220.328 12.5401 218.873C12.4943 217.429 11.9573 216.185 11.2529 215.19L7.98765 217.5ZM8.08293 220.5L4.72006 218.334L3.75396 219.834L7.11683 222L10.4797 224.166L11.4458 222.666L8.08293 220.5ZM7.11683 222L3.75396 219.834L2.78787 221.334L6.15074 223.5L9.51361 225.666L10.4797 224.166L7.11683 222ZM6.15074 223.5L2.78787 221.334C1.74735 222.95 1.14856 224.841 1.3554 226.9L5.33536 226.5L9.31532 226.1C9.31492 226.096 9.31496 226.094 9.31521 226.091C9.31548 226.088 9.31679 226.075 9.32382 226.049C9.33767 225.998 9.38135 225.871 9.51361 225.666L6.15074 223.5ZM5.33536 226.5L1.3554 226.9L1.50612 228.4L5.48608 228L9.46604 227.6L9.31532 226.1L5.33536 226.5ZM5.48608 228L1.50612 228.4L1.65683 229.9L5.63679 229.5L9.61675 229.1L9.46604 227.6L5.48608 228ZM5.63679 229.5L1.65683 229.9C1.82451 231.569 2.39796 233.126 3.24748 234.55L6.6825 232.5L10.1175 230.45C9.77372 229.874 9.65003 229.431 9.61675 229.1L5.63679 229.5ZM6.6825 232.5L3.24748 234.55L4.14248 236.05L7.5775 234L11.0125 231.95L10.1175 230.45L6.6825 232.5ZM7.5775 234L4.14248 236.05L5.03747 237.55L8.47249 235.5L11.9075 233.45L11.0125 231.95L7.5775 234ZM8.47249 235.5L5.03747 237.55C5.31808 238.02 5.34905 238.3 5.34703 238.444L9.34665 238.5L13.3463 238.556C13.372 236.701 12.8202 234.98 11.9075 233.45L8.47249 235.5ZM9.34665 238.5L5.34703 238.444L5.32619 239.944L9.32581 240L13.3254 240.056L13.3463 238.556L9.34665 238.5ZM9.32581 240L5.32619 239.944L5.30536 241.444L9.30497 241.5L13.3046 241.556L13.3254 240.056L9.32581 240ZM9.30497 241.5L5.30536 241.444C5.30221 241.671 5.24089 242.013 4.95401 242.515L8.42694 244.5L11.8999 246.485C12.7559 244.987 13.2799 243.329 13.3046 241.556L9.30497 241.5ZM8.42694 244.5L4.95401 242.515L4.09682 244.015L7.56975 246L11.0427 247.985L11.8999 246.485L8.42694 244.5ZM7.56975 246L4.09682 244.015L3.23964 245.515L6.71257 247.5L10.1855 249.485L11.0427 247.985L7.56975 246ZM6.71257 247.5L3.23964 245.515C2.24181 247.261 1.81863 249.269 2.27947 251.361L6.18581 250.5L10.0922 249.639C10.0916 249.637 10.0935 249.645 10.0938 249.661C10.0942 249.676 10.0927 249.688 10.092 249.692C10.09 249.703 10.0984 249.637 10.1855 249.485L6.71257 247.5ZM6.18581 250.5L2.27947 251.361L2.60991 252.861L6.51625 252L10.4226 251.139L10.0922 249.639L6.18581 250.5ZM6.51625 252L2.60991 252.861L2.94034 254.361L6.84668 253.5L10.753 252.639L10.4226 251.139L6.51625 252ZM6.84668 253.5L2.94034 254.361C3.10572 255.111 3.19402 255.851 3.20931 256.583L7.20844 256.5L11.2076 256.417C11.1811 255.149 11.0282 253.889 10.753 252.639L6.84668 253.5ZM7.20844 256.5L3.20931 256.583L3.24062 258.083L7.23975 258L11.2389 257.917L11.2076 256.417L7.20844 256.5ZM7.23975 258L3.24062 258.083L3.27194 259.583L7.27107 259.5L11.2702 259.417L11.2389 257.917L7.23975 258ZM7.27107 259.5L3.27194 259.583C3.28926 260.413 3.25377 261.244 3.16506 262.076L7.14254 262.5L11.12 262.924C11.2444 261.756 11.2946 260.587 11.2702 259.417L7.27107 259.5ZM7.14254 262.5L3.16506 262.076L3.00522 263.576L6.9827 264L10.9602 264.424L11.12 262.924L7.14254 262.5ZM6.9827 264L3.00522 263.576L2.84537 265.076L6.82285 265.5L10.8003 265.924L10.9602 264.424L6.9827 264ZM6.82285 265.5L2.84537 265.076C2.73537 266.108 2.63806 267.141 2.55344 268.173L6.54008 268.5L10.5267 268.827C10.606 267.859 10.6972 266.892 10.8003 265.924L6.82285 265.5ZM6.54008 268.5L2.55344 268.173L2.43051 269.673L6.41714 270L10.4038 270.327L10.5267 268.827L6.54008 268.5ZM6.41714 270L2.43051 269.673L2.30758 271.173L6.29421 271.5L10.2808 271.827L10.4038 270.327L6.41714 270ZM6.29421 271.5L2.30758 271.173C2.23106 272.107 2.13106 273.041 2.00754 273.976L5.97306 274.5L9.93859 275.024C10.0794 273.959 10.1935 272.893 10.2808 271.827L6.29421 271.5ZM5.97306 274.5L2.00754 273.976L1.80932 275.476L5.77484 276L9.74037 276.524L9.93859 275.024L5.97306 274.5ZM5.77484 276L1.80932 275.476L1.6111 276.976L5.57662 277.5L9.54215 278.024L9.74037 276.524L5.77484 276ZM5.57662 277.5L1.6111 276.976C1.35864 278.886 1.75896 280.71 2.614 282.35L6.16067 280.5L9.70734 278.65C9.51935 278.29 9.53031 278.114 9.54215 278.024L5.57662 277.5ZM6.16067 280.5L2.614 282.35L3.39627 283.85L6.94294 282L10.4896 280.15L9.70734 278.65L6.16067 280.5ZM6.94294 282L3.39627 283.85L4.17854 285.35L7.72521 283.5L11.2719 281.65L10.4896 280.15L6.94294 282ZM7.72521 283.5L4.17854 285.35C4.33056 285.641 4.29486 285.729 4.2914 285.747L8.21982 286.5L12.1482 287.253C12.5283 285.271 12.1629 283.359 11.2719 281.65L7.72521 283.5ZM8.21982 286.5L4.2914 285.747L4.00374 287.247L7.93215 288L11.8606 288.753L12.1482 287.253L8.21982 286.5ZM7.93215 288L4.00374 287.247L3.71608 288.747L7.64449 289.5L11.5729 290.253L11.8606 288.753L7.93215 288ZM7.64449 289.5L3.71608 288.747C3.39523 290.42 3.50727 292.093 4.01816 293.707L7.83166 292.5L11.6452 291.293C11.5229 290.907 11.5102 290.58 11.5729 290.253L7.64449 289.5ZM7.83166 292.5L4.01816 293.707L4.49299 295.207L8.30649 294L12.12 292.793L11.6452 291.293L7.83166 292.5ZM8.30649 294L4.49299 295.207L4.96782 296.707L8.78132 295.5L12.5948 294.293L12.12 292.793L8.30649 294ZM8.78132 295.5L4.96782 296.707C4.97236 296.721 4.97487 296.732 4.97621 296.738C4.97754 296.744 4.97791 296.747 4.97793 296.747C4.97795 296.747 4.97777 296.745 4.97769 296.743C4.97761 296.74 4.97768 296.738 4.97781 296.736C4.97814 296.731 4.97846 296.735 4.97409 296.752C4.96958 296.77 4.95866 296.806 4.9336 296.862L8.58266 298.5L12.2317 300.138C13.0632 298.286 13.2221 296.275 12.5948 294.293L8.78132 295.5ZM8.58266 298.5L4.9336 296.862L4.26011 298.362L7.90917 300L11.5582 301.638L12.2317 300.138L8.58266 298.5ZM7.90917 300L4.26011 298.362L3.58662 299.862L7.23568 301.5L10.8847 303.138L11.5582 301.638L7.90917 300ZM7.23568 301.5L3.58662 299.862C2.87193 301.453 2.55634 303.169 2.75359 304.942L6.72907 304.5L10.7045 304.058C10.6793 303.831 10.7015 303.547 10.8847 303.138L7.23568 301.5ZM6.72907 304.5L2.75359 304.942L2.92047 306.442L6.89594 306L10.8714 305.558L10.7045 304.058L6.72907 304.5ZM6.89594 306L2.92047 306.442L3.08734 307.942L7.06282 307.5L11.0383 307.058L10.8714 305.558L6.89594 306ZM7.06282 307.5L3.08734 307.942C3.18342 308.806 3.23445 309.668 3.24072 310.529L7.24061 310.5L11.2405 310.471C11.2322 309.332 11.1647 308.194 11.0383 307.058L7.06282 307.5ZM7.24061 310.5L3.24072 310.529L3.25163 312.029L7.25153 312L11.2514 311.971L11.2405 310.471L7.24061 310.5ZM7.25153 312L3.25163 312.029L3.26255 313.529L7.26245 313.5L11.2623 313.471L11.2514 311.971L7.25153 312ZM7.26245 313.5L3.26255 313.529C3.27164 314.777 3.39623 316.02 3.63361 317.255L7.5617 316.5L11.4898 315.745C11.3427 314.98 11.2678 314.223 11.2623 313.471L7.26245 313.5ZM7.5617 316.5L3.63361 317.255L3.92195 318.755L7.85003 318L11.7781 317.245L11.4898 315.745L7.5617 316.5ZM7.85003 318L3.92195 318.755L4.21028 320.255L8.13837 319.5L12.0665 318.745L11.7781 317.245L7.85003 318ZM8.13837 319.5L4.21028 320.255C4.33646 320.911 4.37265 321.555 4.32376 322.195L8.31214 322.5L12.3005 322.805C12.4044 321.445 12.3247 320.089 12.0665 318.745L8.13837 319.5ZM8.31214 322.5L4.32376 322.195L4.2092 323.695L8.19759 324L12.186 324.305L12.3005 322.805L8.31214 322.5ZM8.19759 324L4.2092 323.695L4.09465 325.195L8.08303 325.5L12.0714 325.805L12.186 324.305L8.19759 324ZM8.08303 325.5L4.09465 325.195C4.0187 326.19 3.94065 327.184 3.86049 328.179L7.84755 328.5L11.8346 328.821C11.9157 327.816 11.9946 326.81 12.0714 325.805L8.08303 325.5ZM7.84755 328.5L3.86049 328.179L3.73956 329.679L7.72663 330L11.7137 330.321L11.8346 328.821L7.84755 328.5ZM7.72663 330L3.73956 329.679L3.61864 331.179L7.60571 331.5L11.5928 331.821L11.7137 330.321L7.72663 330ZM7.60571 331.5L3.61864 331.179C3.53438 332.224 3.46801 333.269 3.41953 334.315L7.41524 334.5L11.4109 334.685C11.4552 333.731 11.5158 332.776 11.5928 331.821L7.60571 331.5ZM7.41524 334.5L3.41953 334.315L3.34998 335.815L7.34569 336L11.3414 336.185L11.4109 334.685L7.41524 334.5ZM7.34569 336L3.34998 335.815L3.28043 337.315L7.27614 337.5L11.2718 337.685L11.3414 336.185L7.34569 336ZM7.27614 337.5L3.28043 337.315C3.22277 338.558 3.27857 339.8 3.44662 341.038L7.41025 340.5L11.3739 339.962C11.2704 339.2 11.2368 338.442 11.2718 337.685L7.27614 337.5ZM7.41025 340.5L3.44662 341.038L3.65028 342.538L7.61391 342L11.5775 341.462L11.3739 339.962L7.41025 340.5ZM7.61391 342L3.65028 342.538L3.85394 344.038L7.81757 343.5L11.7812 342.962L11.5775 341.462L7.61391 342ZM7.81757 343.5L3.85394 344.038C3.98834 345.028 4.11889 346.018 4.2456 347.008L8.21323 346.5L12.1809 345.992C12.0516 344.982 11.9183 343.972 11.7812 342.962L7.81757 343.5ZM8.21323 346.5L4.2456 347.008L4.4376 348.508L8.40523 348L12.3729 347.492L12.1809 345.992L8.21323 346.5ZM8.40523 348L4.4376 348.508L4.62959 350.008L8.59722 349.5L12.5649 348.992L12.3729 347.492L8.40523 348ZM8.59722 349.5L4.62959 350.008C4.7318 350.806 4.77208 351.602 4.75128 352.395L8.7499 352.5L12.7485 352.605C12.7801 351.398 12.7186 350.194 12.5649 348.992L8.59722 349.5ZM8.7499 352.5L4.75128 352.395L4.71196 353.895L8.71059 354L12.7092 354.105L12.7485 352.605L8.7499 352.5ZM8.71059 354L4.71196 353.895L4.67264 355.395L8.67127 355.5L12.6699 355.605L12.7092 354.105L8.71059 354ZM8.67127 355.5L4.67264 355.395C4.64804 356.334 4.60179 357.272 4.53386 358.211L8.52343 358.5L12.513 358.789C12.5898 357.728 12.6421 356.666 12.6699 355.605L8.67127 355.5ZM8.52343 358.5L4.53386 358.211L4.42534 359.711L8.41491 360L12.4045 360.289L12.513 358.789L8.52343 358.5ZM8.41491 360L4.42534 359.711L4.31681 361.211L8.30639 361.5L12.296 361.789L12.4045 360.289L8.41491 360ZM8.30639 361.5L4.31681 361.211C4.2814 361.701 4.15102 362.244 3.87507 362.856L7.52162 364.5L11.1682 366.144C11.7939 364.756 12.1867 363.299 12.296 361.789L8.30639 361.5ZM7.52162 364.5L3.87507 362.856L3.19883 364.356L6.84538 366L10.4919 367.644L11.1682 366.144L7.52162 364.5ZM6.84538 366L3.19883 364.356L2.52258 365.856L6.16914 367.5L9.81569 369.144L10.4919 367.644L6.84538 366ZM6.16914 367.5L2.52258 365.856C1.81334 367.429 1.48666 369.123 1.65272 370.877L5.63491 370.5L9.61711 370.123C9.59381 369.877 9.62328 369.571 9.81569 369.144L6.16914 367.5ZM5.63491 370.5L1.65272 370.877L1.79474 372.377L5.77693 372L9.75912 371.623L9.61711 370.123L5.63491 370.5ZM5.77693 372L1.79474 372.377L1.93676 373.877L5.91895 373.5L9.90114 373.123L9.75912 371.623L5.77693 372ZM5.91895 373.5L1.93676 373.877C2.07044 375.289 2.41964 376.665 2.95737 377.997L6.66652 376.5L10.3757 375.003C10.106 374.335 9.95682 373.711 9.90114 373.123L5.91895 373.5ZM6.66652 376.5L2.95737 377.997L3.56293 379.497L7.27208 378L10.9812 376.503L10.3757 375.003L6.66652 376.5ZM7.27208 378L3.56293 379.497L4.16849 380.997L7.87763 379.5L11.5868 378.003L10.9812 376.503L7.27208 378ZM7.87763 379.5L4.16849 380.997C4.39833 381.567 4.4902 382.069 4.49323 382.527L8.49314 382.5L12.4931 382.473C12.4828 380.931 12.1644 379.433 11.5868 378.003L7.87763 379.5ZM8.49314 382.5L4.49323 382.527L4.50318 384.027L8.5031 384L12.503 383.973L12.4931 382.473L8.49314 382.5ZM8.5031 384L4.50318 384.027L4.51314 385.527L8.51305 385.5L12.513 385.473L12.503 383.973L8.5031 384ZM8.51305 385.5L4.51314 385.527C4.51722 386.143 4.43466 386.775 4.25256 387.432L8.10721 388.5L11.9619 389.568C12.3341 388.225 12.5221 386.857 12.513 385.473L8.51305 385.5ZM8.10721 388.5L4.25256 387.432L3.83677 388.932L7.69142 390L11.5461 391.068L11.9619 389.568L8.10721 388.5ZM7.69142 390L3.83677 388.932L3.42098 390.432L7.27563 391.5L11.1303 392.568L11.5461 391.068L7.69142 390ZM7.27563 391.5L3.42098 390.432C3.09103 391.622 2.85303 392.822 2.71011 394.03L6.68242 394.5L10.6547 394.97C10.7484 394.178 10.9058 393.378 11.1303 392.568L7.27563 391.5ZM6.68242 394.5L2.71011 394.03L2.5327 395.53L6.50501 396L10.4773 396.47L10.6547 394.97L6.68242 394.5ZM6.50501 396L2.5327 395.53L2.35528 397.03L6.32759 397.5L10.2999 397.97L10.4773 396.47L6.50501 396ZM6.32759 397.5L2.35528 397.03C2.22912 398.097 2.13012 399.164 2.05833 400.232L6.04932 400.5L10.0403 400.768C10.103 399.836 10.1895 398.903 10.2999 397.97L6.32759 397.5ZM6.04932 400.5L2.05833 400.232L1.95748 401.732L5.94846 402L9.93945 402.268L10.0403 400.768L6.04932 400.5ZM5.94846 402L1.95748 401.732L1.85662 403.232L5.84761 403.5L9.8386 403.768L9.93945 402.268L5.94846 402ZM5.84761 403.5L1.85662 403.232C1.7899 404.224 1.72029 405.216 1.64779 406.209L5.63716 406.5L9.62652 406.791C9.70015 405.784 9.77084 404.776 9.8386 403.768L5.84761 403.5ZM5.63716 406.5L1.64779 406.209L1.5382 407.709L5.52756 408L9.51693 408.291L9.62652 406.791L5.63716 406.5ZM5.52756 408L1.5382 407.709L1.42861 409.209L5.41797 409.5L9.40734 409.791L9.51693 408.291L5.52756 408ZM5.41797 409.5L1.42861 409.209C1.33515 410.488 1.37584 411.766 1.54939 413.04L5.51276 412.5L9.47614 411.96C9.37718 411.234 9.35467 410.512 9.40734 409.791L5.41797 409.5ZM5.51276 412.5L1.54939 413.04L1.75377 414.54L5.71715 414L9.68053 413.46L9.47614 411.96L5.51276 412.5ZM5.71715 414L1.75377 414.54L1.95816 416.04L5.92154 415.5L9.88491 414.96L9.68053 413.46L5.71715 414ZM5.92154 415.5L1.95816 416.04C2.06096 416.794 2.09234 417.544 2.05355 418.293L6.04819 418.5L10.0428 418.707C10.1077 417.456 10.0546 416.205 9.88491 414.96L5.92154 415.5ZM6.04819 418.5L2.05355 418.293L1.97582 419.793L5.97046 420L9.96509 420.207L10.0428 418.707L6.04819 418.5ZM5.97046 420L1.97582 419.793L1.89808 421.293L5.89272 421.5L9.88736 421.707L9.96509 420.207L5.97046 420ZM5.89272 421.5L1.89808 421.293C1.88108 421.621 1.86857 422.101 1.93402 422.599C1.96511 422.836 2.03915 423.29 2.25602 423.801C2.442 424.239 3.0149 425.384 4.42137 425.988C6.00807 426.669 7.40104 426.154 8.06612 425.775C8.68728 425.421 9.07799 424.984 9.24565 424.786C9.61069 424.354 9.86648 423.894 10.0122 423.618L6.47502 421.75L2.93784 419.882C2.86355 420.023 2.93007 419.865 3.13657 419.621C3.22497 419.516 3.5441 419.145 4.10137 418.827C4.70256 418.484 6.03932 417.977 7.57749 418.637C8.93544 419.22 9.46749 420.316 9.62032 420.676C9.80403 421.109 9.8526 421.456 9.86591 421.557C9.89579 421.785 9.87846 421.879 9.88736 421.707L5.89272 421.5ZM6.47502 421.75L10.0122 423.618L10.6722 422.368L7.13505 420.5L3.59787 418.632L2.93784 419.882L6.47502 421.75ZM7.13505 420.5L10.6722 422.368L11.3323 421.118L7.79508 419.25L4.2579 417.382L3.59787 418.632L7.13505 420.5ZM7.79508 419.25L11.3323 421.118C12.4551 418.991 12.2808 416.746 11.4001 414.829L7.76566 416.5L4.13119 418.171C4.17246 418.26 4.12016 418.185 4.11797 417.98C4.11555 417.754 4.17624 417.537 4.2579 417.382L7.79508 419.25ZM7.76566 416.5L11.4001 414.829L10.7107 413.329L7.07621 415L3.44174 416.671L4.13119 418.171L7.76566 416.5ZM7.07621 415L10.7107 413.329L10.0212 411.829L6.38676 413.5L2.75229 415.171L3.44174 416.671L7.07621 415ZM6.38676 413.5L10.0212 411.829C9.66666 411.058 9.4126 410.314 9.24614 409.596L5.34951 410.5L1.45289 411.404C1.75016 412.686 2.18761 413.942 2.75229 415.171L6.38676 413.5ZM5.34951 410.5L9.24614 409.596L8.89834 408.096L5.00171 409L1.10509 409.904L1.45289 411.404L5.34951 410.5ZM5.00171 409L8.89834 408.096L8.55053 406.596L4.65391 407.5L0.757284 408.404L1.10509 409.904L5.00171 409ZM4.65391 407.5L8.55053 406.596C8.43953 406.118 8.42916 405.664 8.5115 405.202L4.57364 404.5L0.63579 403.798C0.361415 405.336 0.404554 406.882 0.757284 408.404L4.65391 407.5ZM4.57364 404.5L8.5115 405.202L8.77904 403.702L4.84118 403L0.903328 402.298L0.63579 403.798L4.57364 404.5ZM4.84118 403L8.77904 403.702L9.04658 402.202L5.10872 401.5L1.17087 400.798L0.903328 402.298L4.84118 403ZM5.10872 401.5L9.04658 402.202C9.25535 401.032 9.38666 399.857 9.43934 398.679L5.44333 398.5L1.44732 398.321C1.41058 399.143 1.31881 399.968 1.17087 400.798L5.10872 401.5ZM5.44333 398.5L9.43934 398.679L9.50641 397.179L5.5104 397L1.5144 396.821L1.44732 398.321L5.44333 398.5ZM5.5104 397L9.50641 397.179L9.57348 395.679L5.57748 395.5L1.58147 395.321L1.5144 396.821L5.5104 397ZM5.57748 395.5L9.57348 395.679C9.6244 394.54 9.61605 393.401 9.5485 392.263L5.55552 392.5L1.56255 392.737C1.61369 393.599 1.61999 394.46 1.58147 395.321L5.57748 395.5ZM5.55552 392.5L9.5485 392.263L9.45947 390.763L5.4665 391L1.47352 391.237L1.56255 392.737L5.55552 392.5ZM5.4665 391L9.45947 390.763L9.37044 389.263L5.37747 389.5L1.3845 389.737L1.47352 391.237L5.4665 391ZM5.37747 389.5L9.37044 389.263C9.31446 388.32 9.27866 387.377 9.26302 386.434L5.26357 386.5L1.26412 386.566C1.28165 387.623 1.32178 388.68 1.3845 389.737L5.37747 389.5ZM5.26357 386.5L9.26302 386.434L9.23814 384.934L5.23869 385L1.23924 385.066L1.26412 386.566L5.26357 386.5ZM5.23869 385L9.23814 384.934L9.21327 383.434L5.21382 383.5L1.21437 383.566L1.23924 385.066L5.23869 385ZM5.21382 383.5L9.21327 383.434C9.20627 383.011 9.28448 382.543 9.50386 382L5.79596 380.5L2.08806 379C1.49808 380.457 1.18821 381.989 1.21437 383.566L5.21382 383.5ZM5.79596 380.5L9.50386 382L10.1109 380.5L6.40297 379L2.69507 377.5L2.08806 379L5.79596 380.5ZM6.40297 379L10.1109 380.5L10.7179 379L7.00998 377.5L3.30208 376L2.69507 377.5L6.40297 379ZM7.00998 377.5L10.7179 379C11.4771 377.124 11.5476 375.128 10.8805 373.195L7.09932 374.5L3.31816 375.805C3.33129 375.843 3.33541 375.865 3.33667 375.873C3.33736 375.877 3.33753 375.88 3.33757 375.88C3.33759 375.881 3.33759 375.881 3.33759 375.881C3.33759 375.881 3.33759 375.881 3.33759 375.881C3.33759 375.881 3.33757 375.882 3.33724 375.885C3.33691 375.887 3.33614 375.893 3.33435 375.901C3.3309 375.917 3.32244 375.949 3.30208 376L7.00998 377.5ZM7.09932 374.5L10.8805 373.195L10.3628 371.695L6.58165 373L2.80049 374.305L3.31816 375.805L7.09932 374.5ZM6.58165 373L10.3628 371.695L9.84514 370.195L6.06398 371.5L2.28282 372.805L2.80049 374.305L6.58165 373ZM6.06398 371.5L9.84514 370.195C9.66908 369.685 9.61815 369.234 9.65115 368.811L5.66325 368.5L1.67535 368.189C1.55243 369.766 1.76866 371.315 2.28282 372.805L6.06398 371.5ZM5.66325 368.5L9.65115 368.811L9.76808 367.311L5.78018 367L1.79228 366.689L1.67535 368.189L5.66325 368.5ZM5.78018 367L9.76808 367.311L9.88501 365.811L5.89711 365.5L1.90921 365.189L1.79228 366.689L5.78018 367ZM5.89711 365.5L9.88501 365.811C9.97386 364.671 10.0026 363.531 9.97117 362.39L5.97269 362.5L1.97421 362.61C1.9979 363.469 1.97627 364.329 1.90921 365.189L5.89711 365.5ZM5.97269 362.5L9.97117 362.39L9.92982 360.89L5.93134 361L1.93285 361.11L1.97421 362.61L5.97269 362.5ZM5.93134 361L9.92982 360.89L9.88846 359.39L5.88998 359.5L1.8915 359.61L1.93285 361.11L5.93134 361ZM5.88998 359.5L9.88846 359.39C9.86389 358.498 9.8756 357.607 9.92363 356.715L5.92942 356.5L1.93521 356.285C1.87552 357.393 1.86094 358.502 1.8915 359.61L5.88998 359.5ZM5.92942 356.5L9.92363 356.715L10.0044 355.215L6.01021 355L2.016 354.785L1.93521 356.285L5.92942 356.5ZM6.01021 355L10.0044 355.215L10.0852 353.715L6.091 353.5L2.09679 353.285L2.016 354.785L6.01021 355ZM6.091 353.5L10.0852 353.715C10.1235 353.005 10.239 352.282 10.4387 351.544L6.57731 350.5L2.71594 349.456C2.37489 350.718 2.16625 351.995 2.09679 353.285L6.091 353.5ZM6.57731 350.5L10.4387 351.544L10.8442 350.044L6.98283 349L3.12146 347.956L2.71594 349.456L6.57731 350.5ZM6.98283 349L10.8442 350.044L11.2497 348.544L7.38835 347.5L3.52698 346.456L3.12146 347.956L6.98283 349ZM7.38835 347.5L11.2497 348.544C11.8722 346.242 11.3104 344.062 10.1117 342.273L6.78877 344.5L3.4658 346.727C3.56006 346.867 3.53874 346.884 3.51879 346.784C3.50911 346.735 3.5031 346.675 3.50543 346.609C3.50775 346.543 3.51767 346.491 3.52698 346.456L7.38835 347.5ZM6.78877 344.5L10.1117 342.273L9.10664 340.773L5.78367 343L2.46069 345.227L3.4658 346.727L6.78877 344.5ZM5.78367 343L9.10664 340.773L8.10153 339.273L4.77856 341.5L1.45559 343.727L2.46069 345.227L5.78367 343ZM4.77856 341.5L8.10153 339.273C8.13497 339.323 8.3128 339.631 8.29744 340.125C8.28243 340.606 8.09514 340.869 8.09911 340.863L4.87203 338.5L1.64494 336.137C0.916533 337.131 0.347475 338.394 0.301315 339.875C0.254797 341.369 0.75208 342.677 1.45559 343.727L4.77856 341.5ZM4.87203 338.5L8.09911 340.863L9.19768 339.363L5.9706 337L2.74351 334.637L1.64494 336.137L4.87203 338.5ZM5.9706 337L9.19768 339.363L10.2963 337.863L7.06917 335.5L3.84208 333.137L2.74351 334.637L5.9706 337ZM7.06917 335.5L10.2963 337.863C11.4288 336.317 12.1856 334.457 12.1145 332.364L8.11679 332.5L4.1191 332.636C4.11832 332.613 4.12519 332.621 4.10399 332.681C4.0798 332.751 4.01326 332.903 3.84208 333.137L7.06917 335.5ZM8.11679 332.5L12.1145 332.364L12.0635 330.864L8.06585 331L4.06815 331.136L4.1191 332.636L8.11679 332.5ZM8.06585 331L12.0635 330.864L12.0126 329.364L8.0149 329.5L4.01721 329.636L4.06815 331.136L8.06585 331ZM8.0149 329.5L12.0126 329.364C11.9653 327.97 11.7145 326.599 11.2781 325.26L7.47505 326.5L3.67197 327.74C3.88752 328.401 3.99663 329.03 4.01721 329.636L8.0149 329.5ZM7.47505 326.5L11.2781 325.26L10.7892 323.76L6.98615 325L3.18306 326.24L3.67197 327.74L7.47505 326.5ZM6.98615 325L10.7892 323.76L10.3003 322.26L6.49725 323.5L2.69416 324.74L3.18306 326.24L6.98615 325ZM6.49725 323.5L10.3003 322.26C9.9971 321.33 9.72273 320.402 9.47697 319.475L5.61059 320.5L1.74421 321.525C2.02879 322.598 2.34552 323.67 2.69416 324.74L6.49725 323.5ZM5.61059 320.5L9.47697 319.475L9.07922 317.975L5.21284 319L1.34646 320.025L1.74421 321.525L5.61059 320.5ZM5.21284 319L9.07922 317.975L8.68146 316.475L4.81509 317.5L0.948708 318.525L1.34646 320.025L5.21284 319ZM4.81509 317.5L8.68146 316.475C8.50277 315.801 8.41952 315.149 8.42114 314.51L4.42116 314.5L0.421168 314.49C0.4177 315.851 0.597068 317.199 0.948708 318.525L4.81509 317.5ZM4.42116 314.5L8.42114 314.51L8.42496 313.01L4.42498 313L0.42499 312.99L0.421168 314.49L4.42116 314.5ZM4.42498 313L8.42496 313.01L8.42879 311.51L4.4288 311.5L0.428811 311.49L0.42499 312.99L4.42498 313ZM4.4288 311.5L8.42879 311.51C8.43149 310.448 8.40959 309.387 8.36308 308.325L4.36692 308.5L0.370747 308.675C0.41185 309.613 0.431201 310.552 0.428811 311.49L4.4288 311.5ZM4.36692 308.5L8.36308 308.325L8.29738 306.825L4.30121 307L0.305043 307.175L0.370747 308.675L4.36692 308.5ZM4.30121 307L8.29738 306.825L8.23167 305.325L4.23551 305.5L0.239338 305.675L0.305043 307.175L4.30121 307ZM4.23551 305.5L8.23167 305.325C8.22943 305.274 8.22373 305.066 8.49922 304.627L5.11165 302.5L1.72407 300.373C0.743774 301.934 0.153974 303.726 0.239338 305.675L4.23551 305.5ZM5.11165 302.5L8.49922 304.627L9.44107 303.127L6.05349 301L2.66592 298.873L1.72407 300.373L5.11165 302.5ZM6.05349 301L9.44107 303.127L10.3829 301.627L6.99534 299.5L3.60776 297.373L2.66592 298.873L6.05349 301ZM6.99534 299.5L10.3829 301.627C11.4889 299.866 11.9955 297.777 11.4726 295.576L7.58086 296.5L3.68916 297.424C3.68495 297.407 3.67964 297.375 3.67878 297.335C3.67792 297.294 3.68184 297.259 3.68672 297.234C3.69143 297.21 3.69473 297.207 3.68611 297.228C3.67715 297.25 3.65485 297.298 3.60776 297.373L6.99534 299.5ZM7.58086 296.5L11.4726 295.576L11.1162 294.076L7.22454 295L3.33284 295.924L3.68916 297.424L7.58086 296.5ZM7.22454 295L11.1162 294.076L10.7599 292.576L6.86822 293.5L2.97652 294.424L3.33284 295.924L7.22454 295ZM6.86822 293.5L10.7599 292.576C10.6383 292.064 10.6194 291.578 10.6921 291.091L6.73602 290.5L2.77993 289.909C2.55385 291.422 2.62303 292.936 2.97652 294.424L6.86822 293.5ZM6.73602 290.5L10.6921 291.091L10.9162 289.591L6.96014 289L3.00405 288.409L2.77993 289.909L6.73602 290.5ZM6.96014 289L10.9162 289.591L11.1403 288.091L7.18426 287.5L3.22817 286.909L3.00405 288.409L6.96014 289ZM7.18426 287.5L11.1403 288.091C11.3609 286.615 11.3141 285.136 11.0061 283.675L7.09213 284.5L3.17817 285.325C3.29187 285.864 3.30647 286.385 3.22817 286.909L7.18426 287.5ZM7.09213 284.5L11.0061 283.675L10.6899 282.175L6.77589 283L2.86193 283.825L3.17817 285.325L7.09213 284.5ZM6.77589 283L10.6899 282.175L10.3736 280.675L6.45965 281.5L2.54569 282.325L2.86193 283.825L6.77589 283ZM6.45965 281.5L10.3736 280.675C10.2446 280.063 10.2116 279.468 10.2675 278.877L6.28531 278.5L2.30309 278.123C2.16981 279.532 2.25307 280.937 2.54569 282.325L6.45965 281.5ZM6.28531 278.5L10.2675 278.877L10.4094 277.377L6.42721 277L2.44499 276.623L2.30309 278.123L6.28531 278.5ZM6.42721 277L10.4094 277.377L10.5513 275.877L6.56911 275.5L2.58689 275.123L2.44499 276.623L6.42721 277ZM6.56911 275.5L10.5513 275.877C10.7142 274.155 10.4136 272.485 9.74255 270.922L6.067 272.5L2.39144 274.078C2.57911 274.515 2.6132 274.845 2.58689 275.123L6.56911 275.5ZM6.067 272.5L9.74255 270.922L9.09854 269.422L5.42298 271L1.74743 272.578L2.39144 274.078L6.067 272.5ZM5.42298 271L9.09854 269.422L8.45452 267.922L4.77897 269.5L1.10342 271.078L1.74743 272.578L5.42298 271ZM4.77897 269.5L8.45452 267.922C8.47139 267.961 8.49902 268.039 8.51588 268.15C8.53301 268.263 8.53482 268.383 8.52009 268.5C8.48955 268.743 8.40762 268.833 8.46261 268.752L5.15705 266.5L1.85149 264.248C0.502531 266.227 0.0668383 268.664 1.10342 271.078L4.77897 269.5ZM5.15705 266.5L8.46261 268.752L9.48471 267.252L6.17915 265L2.87359 262.748L1.85149 264.248L5.15705 266.5ZM6.17915 265L9.48471 267.252L10.5068 265.752L7.20124 263.5L3.89568 261.248L2.87359 262.748L6.17915 265ZM7.20124 263.5L10.5068 265.752C11.9259 263.67 12.2604 261.123 11.0399 258.7L7.46762 260.5L3.89537 262.3C3.85185 262.213 3.76564 261.972 3.79456 261.646C3.82185 261.339 3.93045 261.197 3.89568 261.248L7.20124 263.5ZM7.46762 260.5L11.0399 258.7L10.2842 257.2L6.71191 259L3.13966 260.8L3.89537 262.3L7.46762 260.5ZM6.71191 259L10.2842 257.2L9.52845 255.7L5.9562 257.5L2.38395 259.3L3.13966 260.8L6.71191 259ZM5.9562 257.5L9.52845 255.7C9.37276 255.391 9.3965 255.267 9.40713 255.208L5.47032 254.5L1.53351 253.792C1.18436 255.733 1.53202 257.609 2.38395 259.3L5.9562 257.5ZM5.47032 254.5L9.40713 255.208L9.67697 253.708L5.74016 253L1.80335 252.292L1.53351 253.792L5.47032 254.5ZM5.74016 253L9.67697 253.708L9.9468 252.208L6.00999 251.5L2.07318 250.792L1.80335 252.292L5.74016 253ZM6.00999 251.5L9.9468 252.208C10.1537 251.058 10.2934 249.904 10.365 248.747L6.37262 248.5L2.38026 248.253C2.3281 249.096 2.22602 249.942 2.07318 250.792L6.00999 251.5ZM6.37262 248.5L10.365 248.747L10.4578 247.247L6.46542 247L2.47305 246.753L2.38026 248.253L6.37262 248.5ZM6.46542 247L10.4578 247.247L10.5506 245.747L6.55821 245.5L2.56584 245.253L2.47305 246.753L6.46542 247ZM6.55821 245.5L10.5506 245.747C10.6533 244.086 10.3491 242.475 9.71424 240.957L6.02383 242.5L2.33343 244.043C2.53476 244.525 2.58682 244.914 2.56584 245.253L6.55821 245.5ZM6.02383 242.5L9.71424 240.957L9.08706 239.457L5.39666 241L1.70625 242.543L2.33343 244.043L6.02383 242.5ZM5.39666 241L9.08706 239.457L8.45989 237.957L4.76948 239.5L1.07908 241.043L1.70625 242.543L5.39666 241ZM4.76948 239.5L8.45989 237.957C8.43871 237.906 8.4301 237.874 8.42677 237.86C8.42355 237.846 8.42395 237.842 8.42411 237.846C8.42428 237.851 8.42379 237.852 8.42436 237.849C8.42498 237.845 8.42805 237.826 8.43982 237.792L4.65416 236.5L0.868495 235.208C0.202827 237.159 0.294695 239.167 1.07908 241.043L4.76948 239.5ZM4.65416 236.5L8.43982 237.792L8.95168 236.292L5.16601 235L1.38035 233.708L0.868495 235.208L4.65416 236.5ZM5.16601 235L8.95168 236.292L9.46353 234.792L5.67786 233.5L1.8922 232.208L1.38035 233.708L5.16601 235ZM5.67786 233.5L9.46353 234.792C9.91692 233.463 10.19 232.101 10.2645 230.714L6.2702 230.5L2.27595 230.286C2.24304 230.899 2.12127 231.537 1.8922 232.208L5.67786 233.5ZM6.2702 230.5L10.2645 230.714L10.345 229.214L6.3507 229L2.35644 228.786L2.27595 230.286L6.2702 230.5ZM6.3507 229L10.345 229.214L10.4254 227.714L6.43119 227.5L2.43694 227.286L2.35644 228.786L6.3507 229ZM6.43119 227.5L10.4254 227.714C10.4598 227.074 10.5805 226.412 10.8018 225.723L6.99347 224.5L3.18509 223.277C2.76402 224.588 2.50987 225.926 2.43694 227.286L6.43119 227.5ZM6.99347 224.5L10.8018 225.723L11.2836 224.223L7.47525 223L3.66687 221.777L3.18509 223.277L6.99347 224.5ZM7.47525 223L11.2836 224.223L11.7654 222.723L7.95704 221.5L4.14866 220.277L3.66687 221.777L7.47525 223ZM7.95704 221.5L11.7654 222.723C12.4475 220.6 12.1619 218.478 11.1566 216.607L7.63294 218.5L4.10928 220.393C4.13841 220.447 4.14774 220.475 4.14864 220.478C4.14924 220.48 4.14362 220.463 4.14005 220.43C4.13641 220.396 4.13638 220.36 4.13998 220.326C4.14352 220.293 4.14915 220.275 4.14866 220.277L7.95704 221.5ZM7.63294 218.5L11.1566 216.607L10.3507 215.107L6.82705 217L3.3034 218.893L4.10928 220.393L7.63294 218.5ZM6.82705 217L10.3507 215.107L9.54482 213.607L6.02116 215.5L2.49751 217.393L3.3034 218.893L6.82705 217ZM6.02116 215.5L9.54482 213.607C9.30316 213.157 9.27206 212.87 9.28062 212.686L5.28492 212.5L1.28922 212.314C1.20492 214.13 1.66466 215.843 2.49751 217.393L6.02116 215.5ZM5.28492 212.5L9.28062 212.686L9.35026 211.186L5.35456 211L1.35887 210.814L1.28922 212.314L5.28492 212.5ZM5.35456 211L9.35026 211.186L9.4199 209.686L5.4242 209.5L1.42851 209.314L1.35887 210.814L5.35456 211ZM5.4242 209.5L9.4199 209.686C9.45353 208.961 9.56202 208.227 9.7508 207.479L5.87241 206.5L1.99402 205.521C1.67805 206.773 1.48773 208.039 1.42851 209.314L5.4242 209.5ZM5.87241 206.5L9.7508 207.479L10.1294 205.979L6.25097 205L2.37258 204.021L1.99402 205.521L5.87241 206.5ZM6.25097 205L10.1294 205.979L10.5079 204.479L6.62954 203.5L2.75115 202.521L2.37258 204.021L6.25097 205ZM6.62954 203.5L10.5079 204.479C10.796 203.337 11.019 202.191 11.1759 201.04L7.21254 200.5L3.24919 199.96C3.13346 200.809 2.96785 201.663 2.75115 202.521L6.62954 203.5ZM7.21254 200.5L11.1759 201.04L11.3803 199.54L7.41698 199L3.45363 198.46L3.24919 199.96L7.21254 200.5ZM7.41698 199L11.3803 199.54L11.5848 198.04L7.62143 197.5L3.65807 196.96L3.45363 198.46L7.41698 199ZM7.62143 197.5L11.5848 198.04C11.7619 196.74 11.7907 195.436 11.67 194.131L7.68701 194.5L3.70404 194.869C3.76845 195.564 3.75351 196.26 3.65807 196.96L7.62143 197.5ZM7.68701 194.5L11.67 194.131L11.5311 192.631L7.54815 193L3.56518 193.369L3.70404 194.869L7.68701 194.5ZM7.54815 193L11.5311 192.631L11.3923 191.131L7.4093 191.5L3.42633 191.869L3.56518 193.369L7.54815 193ZM7.4093 191.5L11.3923 191.131C11.2777 189.893 11.0524 188.665 10.7208 187.448L6.86161 188.5L3.00239 189.552C3.21592 190.335 3.3558 191.107 3.42633 191.869L7.4093 191.5ZM6.86161 188.5L10.7208 187.448L10.312 185.948L6.45278 187L2.59355 188.052L3.00239 189.552L6.86161 188.5ZM6.45278 187L10.312 185.948L9.90317 184.448L6.04395 185.5L2.18472 186.552L2.59355 188.052L6.45278 187ZM6.04395 185.5L9.90317 184.448C9.68313 183.641 9.5304 182.843 9.44179 182.054L5.46675 182.5L1.49171 182.946C1.62759 184.157 1.85965 185.359 2.18472 186.552L6.04395 185.5ZM5.46675 182.5L9.44179 182.054L9.27343 180.554L5.29839 181L1.32335 181.446L1.49171 182.946L5.46675 182.5ZM5.29839 181L9.27343 180.554L9.10507 179.054L5.13003 179.5L1.15499 179.946L1.32335 181.446L5.29839 181ZM5.13003 179.5L9.10507 179.054C8.99332 178.058 8.88321 177.062 8.77474 176.067L4.79827 176.5L0.821792 176.933C0.931201 177.938 1.04227 178.942 1.15499 179.946L5.13003 179.5ZM4.79827 176.5L8.77474 176.067L8.61133 174.567L4.63486 175L0.658383 175.433L0.821792 176.933L4.79827 176.5ZM4.63486 175L8.61133 174.567L8.44792 173.067L4.47145 173.5L0.494975 173.933L0.658383 175.433L4.63486 175ZM4.47145 173.5L8.44792 173.067C8.44647 173.053 8.44464 173.033 8.45719 172.984C8.47146 172.927 8.51356 172.8 8.63773 172.599L5.2326 170.5L1.82746 168.401C0.826039 170.026 0.274149 171.906 0.494975 173.933L4.47145 173.5ZM5.2326 170.5L8.63773 172.599L9.56229 171.099L6.15715 169L2.75202 166.901L1.82746 168.401L5.2326 170.5ZM6.15715 169L9.56229 171.099L10.4868 169.599L7.08171 167.5L3.67657 165.401L2.75202 166.901L6.15715 169ZM7.08171 167.5L10.4868 169.599C11.1167 168.577 11.5458 167.355 11.5418 165.988C11.5378 164.622 11.1022 163.404 10.4693 162.387L7.07301 164.5L3.6767 166.613C3.66597 166.596 3.54289 166.378 3.54183 166.012C3.54077 165.645 3.66305 165.423 3.67657 165.401L7.08171 167.5ZM7.07301 164.5L10.4693 162.387L9.53608 160.887L6.13977 163L2.74346 165.113L3.6767 166.613L7.07301 164.5ZM6.13977 163L9.53608 160.887L8.60283 159.387L5.20652 161.5L1.81021 163.613L2.74346 165.113L6.13977 163ZM5.20652 161.5L8.60283 159.387C8.49279 159.21 8.47204 159.121 8.47065 159.115C8.46975 159.111 8.47161 159.118 8.47205 159.133C8.47249 159.148 8.47115 159.16 8.47039 159.165L4.52598 158.5L0.581563 157.835C0.225317 159.95 0.761083 161.927 1.81021 163.613L5.20652 161.5ZM4.52598 158.5L8.47039 159.165L8.7231 157.665L4.77868 157L0.834269 156.335L0.581563 157.835L4.52598 158.5ZM4.77868 157L8.7231 157.665L8.97581 156.165L5.03139 155.5L1.08697 154.835L0.834269 156.335L4.77868 157ZM5.03139 155.5L8.97581 156.165C9.18569 154.919 9.27759 153.666 9.24929 152.41L5.2503 152.5L1.25132 152.59C1.26807 153.334 1.21404 154.081 1.08697 154.835L5.03139 155.5ZM5.2503 152.5L9.24929 152.41L9.21549 150.91L5.21651 151L1.21752 151.09L1.25132 152.59L5.2503 152.5ZM5.21651 151L9.21549 150.91L9.1817 149.41L5.18271 149.5L1.18373 149.59L1.21752 151.09L5.21651 151ZM5.18271 149.5L9.1817 149.41C9.16613 148.719 9.22948 148.022 9.37659 147.312L5.45986 146.5L1.54313 145.688C1.27565 146.978 1.15423 148.281 1.18373 149.59L5.18271 149.5ZM5.45986 146.5L9.37659 147.312L9.68753 145.812L5.7708 145L1.85407 144.188L1.54313 145.688L5.45986 146.5ZM5.7708 145L9.68753 145.812L9.99848 144.312L6.08174 143.5L2.16501 142.688L1.85407 144.188L5.7708 145ZM6.08174 143.5L9.99848 144.312C10.3049 142.834 10.3374 141.337 10.0913 139.848L6.14479 140.5L2.19832 141.152C2.28269 141.663 2.27316 142.166 2.16501 142.688L6.08174 143.5ZM6.14479 140.5L10.0913 139.848L9.84337 138.348L5.8969 139L1.95043 139.652L2.19832 141.152L6.14479 140.5ZM5.8969 139L9.84337 138.348L9.59547 136.848L5.649 137.5L1.70253 138.152L1.95043 139.652L5.8969 139ZM5.649 137.5L9.59547 136.848C9.52965 136.45 9.54873 136.049 9.67655 135.605L5.83207 134.5L1.9876 133.395C1.54079 134.951 1.43783 136.55 1.70253 138.152L5.649 137.5ZM5.83207 134.5L9.67655 135.605L10.1075 134.105L6.26303 133L2.41856 131.895L1.9876 133.395L5.83207 134.5ZM6.26303 133L10.1075 134.105L10.5385 132.605L6.694 131.5L2.84952 130.395L2.41856 131.895L6.26303 133ZM6.694 131.5L10.5385 132.605C11.0018 130.992 11.0718 129.333 10.7284 127.684L6.81248 128.5L2.89654 129.316C2.96975 129.667 2.9608 130.008 2.84952 130.395L6.694 131.5ZM6.81248 128.5L10.7284 127.684L10.4159 126.184L6.49999 127L2.58406 127.816L2.89654 129.316L6.81248 128.5ZM6.49999 127L10.4159 126.184L10.1034 124.684L6.18751 125.5L2.27158 126.316L2.58406 127.816L6.49999 127ZM6.18751 125.5L10.1034 124.684C10.0677 124.513 10.0654 124.324 10.1911 124.018L6.49032 122.5L2.78956 120.982C2.09482 122.676 1.89065 124.487 2.27158 126.316L6.18751 125.5ZM6.49032 122.5L10.1911 124.018L10.8064 122.518L7.10561 121L3.40485 119.482L2.78956 120.982L6.49032 122.5ZM7.10561 121L10.8064 122.518L11.4217 121.018L7.7209 119.5L4.02014 117.982L3.40485 119.482L7.10561 121ZM7.7209 119.5L11.4217 121.018C12.3872 118.664 11.9947 116.289 10.7167 114.321L7.36205 116.5L4.00739 118.679C4.05969 118.759 3.9922 118.685 3.96714 118.475C3.95514 118.375 3.9567 118.272 3.97076 118.175C3.98461 118.08 4.00716 118.014 4.02014 117.982L7.7209 119.5ZM7.36205 116.5L10.7167 114.321L9.74257 112.821L6.38792 115L3.03326 117.179L4.00739 118.679L7.36205 116.5ZM6.38792 115L9.74257 112.821L8.76844 111.321L5.41378 113.5L2.05913 115.679L3.03326 117.179L6.38792 115ZM5.41378 113.5L8.76844 111.321C8.78633 111.349 8.9339 111.603 8.93129 112.025C8.92869 112.445 8.77929 112.691 8.76802 112.708L5.43238 110.5L2.09673 108.292C1.42364 109.309 0.94024 110.555 0.93144 111.975C0.922629 113.397 1.39181 114.651 2.05913 115.679L5.41378 113.5ZM5.43238 110.5L8.76802 112.708L9.76075 111.208L6.4251 109L3.08946 106.792L2.09673 108.292L5.43238 110.5ZM6.4251 109L9.76075 111.208L10.7535 109.708L7.41783 107.5L4.08219 105.292L3.08946 106.792L6.4251 109ZM7.41783 107.5L10.7535 109.708C11.8029 108.122 12.4387 106.261 12.2955 104.22L8.30531 104.5L4.31512 104.78C4.3154 104.784 4.31819 104.805 4.30038 104.865C4.28042 104.933 4.22626 105.075 4.08219 105.292L7.41783 107.5ZM8.30531 104.5L12.2955 104.22L12.1903 102.72L8.20006 103L4.20987 103.28L4.31512 104.78L8.30531 104.5ZM8.20006 103L12.1903 102.72L12.085 101.22L8.09481 101.5L4.10462 101.78L4.20987 103.28L8.20006 103ZM8.09481 101.5L12.085 101.22C11.9551 99.3691 11.2586 97.6945 10.2493 96.23L6.95574 98.5L3.66221 100.77C4.0313 101.305 4.09416 101.631 4.10462 101.78L8.09481 101.5ZM6.95574 98.5L10.2493 96.23L9.21544 94.73L5.92191 97L2.62839 99.27L3.66221 100.77L6.95574 98.5ZM5.92191 97L9.21544 94.73L8.18161 93.23L4.88809 95.5L1.59456 97.77L2.62839 99.27L5.92191 97ZM4.88809 95.5L8.18161 93.23C8.04207 93.0276 8.00569 92.9159 7.99932 92.8938C7.99612 92.8826 7.99827 92.8867 7.99968 92.903C8.00113 92.9196 8.00079 92.9372 7.99914 92.9517L4.02473 92.5L0.0503078 92.0483C-0.193883 94.1971 0.475859 96.1468 1.59456 97.77L4.88809 95.5ZM4.02473 92.5L7.99914 92.9517L8.16961 91.4517L4.19519 91L0.220772 90.5483L0.0503078 92.0483L4.02473 92.5ZM4.19519 91L8.16961 91.4517L8.34007 89.9517L4.36566 89.5L0.391237 89.0483L0.220772 90.5483L4.19519 91ZM4.36566 89.5L8.34007 89.9517C8.42962 89.1637 8.58367 88.3673 8.80549 87.561L4.94877 86.5L1.09205 85.439C0.763667 86.6327 0.528975 87.8363 0.391237 89.0483L4.36566 89.5ZM4.94877 86.5L8.80549 87.561L9.21814 86.061L5.36142 85L1.5047 83.939L1.09205 85.439L4.94877 86.5ZM5.36142 85L9.21814 86.061L9.63079 84.561L5.77407 83.5L1.91735 82.439L1.5047 83.939L5.36142 85ZM5.77407 83.5L9.63079 84.561C9.88264 83.6455 10.1675 82.7276 10.4858 81.8073L6.70543 80.5L2.92508 79.1927C2.55174 80.2724 2.21571 81.3545 1.91735 82.439L5.77407 83.5ZM6.70543 80.5L10.4858 81.8073L11.0045 80.3073L7.22414 79L3.44378 77.6927L2.92508 79.1927L6.70543 80.5ZM7.22414 79L11.0045 80.3073L11.5232 78.8073L7.74284 77.5L3.96249 76.1927L3.44378 77.6927L7.22414 79ZM7.74284 77.5L11.5232 78.8073C12.1477 77.0014 12.1785 75.119 11.5989 73.291L7.78593 74.5L3.97302 75.709C4.02755 75.881 4.02963 75.9986 3.96249 76.1927L7.74284 77.5ZM7.78593 74.5L11.5989 73.291L11.1232 71.791L7.31032 73L3.4974 74.209L3.97302 75.709L7.78593 74.5ZM7.31032 73L11.1232 71.791L10.6476 70.291L6.8347 71.5L3.02179 72.709L3.4974 74.209L7.31032 73ZM6.8347 71.5L10.6476 70.291C10.4755 69.748 10.4206 69.2516 10.4535 68.7768L6.46312 68.5L2.47271 68.2232C2.36693 69.7484 2.5598 71.252 3.02179 72.709L6.8347 71.5ZM6.46312 68.5L10.4535 68.7768L10.5576 67.2768L6.56716 67L2.57674 66.7232L2.47271 68.2232L6.46312 68.5ZM6.56716 67L10.5576 67.2768L10.6616 65.7768L6.67119 65.5L2.68078 65.2232L2.57674 66.7232L6.56716 67ZM6.67119 65.5L10.6616 65.7768C10.743 64.6029 10.7476 63.4283 10.6753 62.2541L6.68284 62.5L2.6904 62.7459C2.74127 63.5717 2.73807 64.3971 2.68078 65.2232L6.67119 65.5ZM6.68284 62.5L10.6753 62.2541L10.5829 60.7541L6.59045 61L2.59801 61.2459L2.6904 62.7459L6.68284 62.5ZM6.59045 61L10.5829 60.7541L10.4905 59.2541L6.49806 59.5L2.50562 59.7459L2.59801 61.2459L6.59045 61ZM6.49806 59.5L10.4905 59.2541C10.4253 58.1951 10.3365 57.1365 10.2243 56.0782L6.2466 56.5L2.2689 56.9218C2.36876 57.8635 2.44766 58.8049 2.50562 59.7459L6.49806 59.5ZM6.2466 56.5L10.2243 56.0782L10.0652 54.5782L6.08753 55L2.10983 55.4218L2.2689 56.9218L6.2466 56.5ZM6.08753 55L10.0652 54.5782L9.90616 53.0782L5.92846 53.5L1.95076 53.9218L2.10983 55.4218L6.08753 55ZM5.92846 53.5L9.90616 53.0782C9.84521 52.5035 9.87423 51.9261 10.0006 51.3307L6.08785 50.5L2.17507 49.6693C1.87686 51.0739 1.79961 52.4965 1.95076 53.9218L5.92846 53.5ZM6.08785 50.5L10.0006 51.3307L10.3191 49.8307L6.40632 49L2.49353 48.1693L2.17507 49.6693L6.08785 50.5ZM6.40632 49L10.3191 49.8307L10.6376 48.3307L6.72478 47.5L2.81199 46.6693L2.49353 48.1693L6.40632 49ZM6.72478 47.5L10.6376 48.3307C10.8994 47.0976 11.0485 45.8552 11.0817 44.6064L7.08315 44.5L3.08456 44.3936C3.06458 45.1448 2.97481 45.9024 2.81199 46.6693L6.72478 47.5ZM7.08315 44.5L11.0817 44.6064L11.1216 43.1064L7.12305 43L3.12447 42.8936L3.08456 44.3936L7.08315 44.5ZM7.12305 43L11.1216 43.1064L11.1615 41.6064L7.16296 41.5L3.16437 41.3936L3.12447 42.8936L7.12305 43ZM7.16296 41.5L11.1615 41.6064C11.182 40.8363 11.2687 40.061 11.4239 39.2782L7.50038 38.5L3.57682 37.7218C3.33539 38.939 3.19709 40.1637 3.16437 41.3936L7.16296 41.5ZM7.50038 38.5L11.4239 39.2782L11.7215 37.7782L7.79791 37L3.87434 36.2218L3.57682 37.7218L7.50038 38.5ZM7.79791 37L11.7215 37.7782L12.019 36.2782L8.09543 35.5L4.17186 34.7218L3.87434 36.2218L7.79791 37ZM8.09543 35.5L12.019 36.2782C12.3841 34.4376 12.1539 32.6228 11.4364 30.935L7.75525 32.5L4.0741 34.065C4.20684 34.3772 4.20348 34.5624 4.17186 34.7218L8.09543 35.5ZM7.75525 32.5L11.4364 30.935L10.7987 29.435L7.11755 31L3.4364 32.565L4.0741 34.065L7.75525 32.5ZM7.11755 31L10.7987 29.435L10.161 27.935L6.47985 29.5L2.7987 31.065L3.4364 32.565L7.11755 31ZM6.47985 29.5L10.161 27.935C10.1525 27.9151 10.1474 27.9007 10.1445 27.8917C10.1416 27.8828 10.1407 27.8787 10.1408 27.8791C10.1409 27.8795 10.1417 27.8834 10.1426 27.8904C10.1435 27.8974 10.1441 27.9061 10.1444 27.9159C10.1446 27.9258 10.1442 27.9353 10.1436 27.944C10.1429 27.9527 10.1419 27.959 10.1413 27.9626C10.1406 27.9661 10.1405 27.9656 10.1419 27.9609C10.1432 27.9561 10.1462 27.9462 10.1521 27.931L6.41679 26.5L2.6815 25.069C1.92155 27.0528 1.97469 29.1267 2.7987 31.065L6.47985 29.5ZM6.41679 26.5L10.1521 27.931L10.7267 26.431L6.99143 25L3.25614 23.569L2.6815 25.069L6.41679 26.5ZM6.99143 25L10.7267 26.431L11.3014 24.931L7.56607 23.5L3.83078 22.069L3.25614 23.569L6.99143 25ZM7.56607 23.5L11.3014 24.931C11.888 23.3997 12.1379 21.7884 11.9891 20.1403L8.00527 20.5L4.02147 20.8597C4.05325 21.2116 4.01033 21.6004 3.83078 22.069L7.56607 23.5ZM8.00527 20.5L11.9891 20.1403L11.8536 18.6403L7.86984 19L3.88604 19.3597L4.02147 20.8597L8.00527 20.5ZM7.86984 19L11.8536 18.6403L11.7182 17.1403L7.7344 17.5L3.75061 17.8597L3.88604 19.3597L7.86984 19ZM7.7344 17.5L11.7182 17.1403C11.6464 16.3451 11.6362 15.5514 11.6874 14.7574L7.69568 14.5L3.70397 14.2426C3.62621 15.4486 3.64183 16.6549 3.75061 17.8597L7.7344 17.5ZM7.69568 14.5L11.6874 14.7574L11.7841 13.2574L7.7924 13L3.80068 12.7426L3.70397 14.2426L7.69568 14.5ZM7.7924 13L11.7841 13.2574L11.8808 11.7574L7.88911 11.5L3.8974 11.2426L3.80068 12.7426L7.7924 13ZM7.88911 11.5L11.8808 11.7574C11.9748 10.2994 11.8196 8.85538 11.4324 7.44263L7.57468 8.50001L3.71697 9.55738C3.87793 10.1446 3.93235 10.7006 3.8974 11.2426L7.88911 11.5ZM7.57468 8.50001L11.4324 7.44263L11.0213 5.94263L7.16354 7.00001L3.30583 8.05738L3.71697 9.55738L7.57468 8.50001ZM7.16354 7.00001L11.0213 5.94263L10.6101 4.44263L6.7524 5.5L2.89469 6.55738L3.30583 8.05738L7.16354 7.00001ZM6.7524 5.5L10.6101 4.44263C10.4704 3.93275 10.3491 3.50623 10.2515 3.19126C10.2065 3.04613 10.145 2.85395 10.0744 2.66881C10.0465 2.59563 9.96958 2.39559 9.84954 2.16655C9.79975 2.07156 9.65285 1.7954 9.40424 1.48843C9.2815 1.33687 9.02854 1.04484 8.63698 0.761379C8.27175 0.496978 7.45375 0 6.28768 0V4V8C5.12385 8 4.30831 7.504 3.94578 7.24155C3.55692 6.96004 3.3069 6.67095 3.18731 6.52328C2.94503 6.22413 2.80539 5.95969 2.76379 5.88032C2.66012 5.68254 2.60331 5.52937 2.59924 5.51869C2.57631 5.45855 2.57733 5.45388 2.60982 5.55874C2.66714 5.74377 2.76035 6.06726 2.89469 6.55738L6.7524 5.5ZM6.28768 4V0H6.23411V4V8H6.28768V4ZM6.23411 4V0H6.18053V4V8H6.23411V4ZM6.18053 4V0C5.0742 0 4.01403 0.45796 3.25496 1.27038C2.61246 1.95803 2.38215 2.68568 2.29408 3.04002C2.1244 3.72268 2.18268 4.282 2.19336 4.39521C2.2273 4.75504 2.30479 5.0404 2.32211 5.10558C2.37804 5.316 2.44664 5.51582 2.48993 5.63896C2.58918 5.92132 2.73072 6.29122 2.89882 6.71747L6.61991 5.25L10.341 3.78253C10.1805 3.37544 10.0845 3.12035 10.0372 2.98604C10.0073 2.90085 10.0255 2.94442 10.0537 3.05067C10.0572 3.06377 10.1265 3.31006 10.158 3.64385C10.1674 3.74404 10.2259 4.2936 10.0579 4.96975C9.97059 5.32083 9.74145 6.04604 9.10047 6.73206C8.34292 7.54285 7.28463 8 6.18053 8V4ZM6.61991 5.25L2.89882 6.71747L3.39178 7.96747L7.11287 6.5L10.834 5.03253L10.341 3.78253L6.61991 5.25Z" fill="#FFECA1"/>
</svg>
