<svg width="368" height="11" viewBox="0 0 368 11" fill="none" xmlns="http://www.w3.org/2000/svg">
<path d="M3.24609 5.37085H365.246V5.36085H3.24609V5.37085Z" fill="#FFD11D"/>
<path d="M15.0586 4.55825L13.8159 7.83019L15.0586 4.55825ZM20.3086 6.26068L19.7636 9.71799L20.3086 6.26068ZM30.8086 5.2671L30.7613 1.76742L30.8086 5.2671ZM33.4336 5.23162L33.4809 8.7313L33.4336 5.23162ZM36.0586 5.58247L35.1123 8.95212L36.0586 5.58247ZM37.3711 5.95107L36.4248 9.32071L37.3711 5.95107ZM38.6836 6.31966L37.7373 9.68931L38.6836 6.31966ZM43.9336 6.25416L43.5501 2.77523L43.9336 6.25416ZM46.5586 5.50208L45.0887 2.3257L46.5586 5.50208ZM49.1836 4.28732L50.6535 7.46369L49.1836 4.28732ZM51.8086 4.52342L53.7008 1.57902L51.8086 4.52342ZM54.4336 6.21039L52.5414 9.15478L54.4336 6.21039ZM59.6836 6.23843L58.9738 2.81115V2.81115L59.6836 6.23843ZM64.9336 6.97375L64.0663 10.3646L64.9336 6.97375ZM67.5586 6.683L69.0662 9.84164L67.5586 6.683ZM70.1836 5.43007L71.6912 8.58871L70.1836 5.43007ZM72.8086 4.97198L72.3632 8.44353V8.44353L72.8086 4.97198ZM75.4336 5.30874L75.879 1.83719V1.83719L75.4336 5.30874ZM78.0586 5.64249L77.6211 9.11504L78.0586 5.64249ZM79.3711 5.80786L78.9336 9.28041L79.3711 5.80786ZM83.3086 6.45741L82.4825 9.85852L83.3086 6.45741ZM85.9336 7.09504L86.7597 3.69394L85.9336 7.09504ZM93.8086 4.68355L91.8276 7.56896L93.8086 4.68355ZM96.4336 6.48579L98.4146 3.60038L96.4336 6.48579ZM99.0586 6.90295L97.8477 3.61907L99.0586 6.90295ZM101.684 5.93505L102.894 9.21893L101.684 5.93505ZM104.309 5.72837L103.585 9.15279L104.309 5.72837ZM106.934 6.28292L107.657 2.8585L106.934 6.28292ZM109.559 5.8253L107.849 2.77143L109.559 5.8253ZM112.184 4.35551L113.894 7.40938L112.184 4.35551ZM114.809 4.57335L112.753 7.40578L114.809 4.57335ZM117.434 6.47882L119.49 3.64638L117.434 6.47882ZM120.059 7.16341L119.358 3.73424L120.059 7.16341ZM122.684 6.62713L123.384 10.0563L122.684 6.62713ZM125.309 6.24865L125.015 2.76095L125.309 6.24865ZM130.559 6.00305L130.331 9.49567L130.559 6.00305ZM133.184 6.17385L132.956 9.66647L133.184 6.17385ZM135.809 5.62131L137.339 8.76917L135.809 5.62131ZM138.434 4.34543L136.904 1.19756L138.434 4.34543ZM141.059 4.17667L142.237 0.880919L141.059 4.17667ZM143.684 5.11504L142.505 8.41079L143.684 5.11504ZM148.934 5.70196L148.829 9.20039L148.934 5.70196ZM151.559 5.15993L152.976 8.36013L151.559 5.15993ZM154.184 3.99738L152.766 0.797178L154.184 3.99738ZM156.809 4.18773L158.582 1.17053L156.809 4.18773ZM159.434 5.73098L157.66 8.74819L159.434 5.73098ZM162.059 6.25103L162.717 9.68845L162.059 6.25103ZM164.684 5.74787L164.025 2.31045L164.684 5.74787ZM167.309 5.2033L168.071 8.61923L167.309 5.2033ZM169.934 4.61733L169.171 1.2014L169.934 4.61733ZM172.559 4.73922L173.613 1.40197L172.559 4.73922ZM175.184 5.56897L174.129 8.90622L175.184 5.56897ZM177.809 6.01856L177.716 9.51733L177.809 6.01856ZM183.059 5.42646L184.699 8.51841L183.059 5.42646ZM185.684 4.03407L184.044 0.942122L185.684 4.03407ZM188.309 4.26657L190.33 1.40947L188.309 4.26657ZM190.934 6.12396L188.912 8.98107L190.934 6.12396ZM193.559 6.20733L195.454 9.14984L193.559 6.20733ZM196.184 4.51666L194.288 1.57415L196.184 4.51666ZM198.809 3.80321L199.158 0.32074L198.809 3.80321ZM201.434 4.06696L201.084 7.54942L201.434 4.06696ZM204.059 4.98196L205.852 1.97631V1.97631L204.059 4.98196ZM206.684 6.5482L204.89 9.55384L206.684 6.5482ZM211.934 7.27661L211.885 3.77695L211.934 7.27661ZM214.559 6.50834L216.295 9.54715V9.54715L214.559 6.50834ZM217.184 5.00826L215.447 1.96945L217.184 5.00826ZM219.809 4.54735L220.562 1.1293L219.809 4.54735ZM222.434 5.12561L221.681 8.54366L222.434 5.12561ZM230.309 5.38449L230.679 8.86479L230.309 5.38449ZM232.934 5.10476L232.563 1.62447L232.934 5.10476ZM238.184 4.6422L237.898 1.1539L238.184 4.6422ZM240.809 4.3612L241.267 7.83103L240.809 4.3612ZM243.434 4.01431L242.975 0.544476L243.434 4.01431ZM246.059 4.52535L247.677 1.42202L246.059 4.52535ZM248.684 5.89432L247.065 8.99766L248.684 5.89432ZM251.309 6.32711L251.968 9.76447L251.309 6.32711ZM253.934 5.8237L253.274 2.38633L253.934 5.8237ZM256.559 5.98747L257.615 2.65066L256.559 5.98747ZM259.184 6.81842L260.24 3.48161L259.184 6.81842ZM261.809 6.64459L260.375 3.45166L261.809 6.64459ZM264.434 5.46599L265.867 8.65892L264.434 5.46599ZM267.059 5.0227L266.672 8.50124L267.059 5.0227ZM269.684 5.31473L270.071 1.83619L269.684 5.31473ZM277.559 5.75125L276.898 9.18833L277.559 5.75125ZM280.184 6.25584L280.844 2.81876L280.184 6.25584ZM282.809 6.40789L282.542 2.91805L282.809 6.40789ZM285.434 6.20742L285.7 9.69726L285.434 6.20742ZM288.059 6.00137L287.777 2.51269L288.059 6.00137ZM290.684 5.78976L290.965 9.27844L290.684 5.78976ZM293.309 5.6231L293.146 2.12685L293.309 5.6231ZM295.934 5.50139L296.096 8.99763L295.934 5.50139ZM298.559 5.61874L298.088 9.08691L298.559 5.61874ZM301.184 5.97514L301.654 2.50696L301.184 5.97514ZM303.809 6.32134L303.364 9.79302L303.809 6.32134ZM306.434 6.65734L306.878 3.18566V3.18566L306.434 6.65734ZM309.059 6.79093L308.967 3.29213L309.059 6.79093ZM314.309 6.59277L314.056 3.10189L314.309 6.59277ZM316.934 6.40285L317.186 9.89373L316.934 6.40285ZM319.559 5.71618L318.12 2.52545L319.559 5.71618ZM322.184 4.53276L323.622 7.7235L322.184 4.53276ZM324.809 4.06532L324.479 7.54973L324.809 4.06532ZM327.434 4.31385L327.763 0.829428L327.434 4.31385ZM330.059 4.96797L328.748 8.21348L330.059 4.96797ZM332.684 6.0277L333.994 2.78219L332.684 6.0277ZM335.309 6.56627L335.285 10.0662V10.0662L335.309 6.56627ZM340.559 6.22857L339.624 2.85575L340.559 6.22857ZM343.184 5.50094L344.119 8.87376L343.184 5.50094ZM345.809 4.98188L345.397 1.50611L345.809 4.98188ZM348.434 4.67141L348.845 8.14718L348.434 4.67141ZM351.059 4.42792L350.824 0.935807L351.059 4.42792ZM353.684 4.25142L353.918 7.74354L353.684 4.25142ZM356.309 4.06728L356.054 0.576583L356.309 4.06728ZM361.436 4.39389L359.831 7.50396L361.436 4.39389ZM363.816 5.62246L365.422 2.51239L363.816 5.62246ZM363.694 6.30477L363.512 2.80946L363.694 6.30477ZM361.069 6.4408L361.25 9.93611L361.069 6.4408ZM353.194 6.79472L351.732 9.97488L353.194 6.79472ZM350.569 5.58818L352.03 2.40802L350.569 5.58818ZM347.944 4.68059L348.734 1.27104L347.944 4.68059ZM345.319 4.07194L344.528 7.48148L345.319 4.07194ZM342.694 4.0017L342.079 0.556082L342.694 4.0017ZM341.381 4.2358L341.996 7.68142L341.381 4.2358ZM337.444 4.76268L337.6 8.25919L337.444 4.76268ZM336.131 4.82137L335.975 1.32486L336.131 4.82137ZM334.819 4.88006L334.662 1.38355L334.819 4.88006ZM326.944 4.60539L326.886 8.10491V8.10491L326.944 4.60539ZM311.194 4.95511L311.466 8.44452L311.194 4.95511ZM308.569 5.15974L308.297 1.67032L308.569 5.15974ZM303.319 5.1535L303.222 8.65217V8.65217L303.319 5.1535ZM300.694 5.18801L300.882 8.68294L300.694 5.18801ZM298.069 5.32939L297.88 1.83446L298.069 5.32939ZM294.131 6.10975L293.218 2.73104V2.73104L294.131 6.10975ZM290.194 5.93994L292.142 3.03234L290.194 5.93994ZM287.569 4.18101L285.62 7.08861L287.569 4.18101ZM284.944 4.26279L287.012 7.08649L284.944 4.26279ZM282.319 6.18529L280.251 3.36159L282.319 6.18529ZM277.069 7.01281L276.95 10.5108L277.069 7.01281ZM274.444 6.54044L275.528 3.21274L274.444 6.54044ZM271.819 5.68486L270.734 9.01256L271.819 5.68486ZM269.194 4.90903L270.091 1.52595L269.194 4.90903ZM266.569 4.21297L265.672 7.59605L266.569 4.21297ZM258.694 3.82082L258.847 0.324169L258.694 3.82082ZM253.444 4.47246L251.582 1.50833L253.444 4.47246ZM250.819 6.12069L252.68 9.08481L250.819 6.12069ZM248.194 6.63302L247.385 10.0383L248.194 6.63302ZM245.569 6.00946L246.378 2.60422L245.569 6.00946ZM242.944 5.89378L242.426 2.43221L242.944 5.89378ZM240.319 6.28599L240.836 9.74757L240.319 6.28599ZM237.694 6.20538L236.972 9.6301L237.694 6.20538ZM235.069 5.65196L235.791 2.22724L235.069 5.65196ZM232.444 5.49941L232.114 2.01497L232.444 5.49941ZM229.819 5.74774L230.148 9.23218L229.819 5.74774ZM227.194 5.30839L225.813 8.5245L227.194 5.30839ZM224.569 4.18137L225.949 0.965256L224.569 4.18137ZM221.944 4.51219L219.973 1.61982L221.944 4.51219ZM219.319 6.30085L221.289 9.19322L219.319 6.30085ZM216.694 6.53394L215.119 9.65966L216.694 6.53394ZM214.069 5.21144L215.643 2.08572L214.069 5.21144ZM211.444 4.7863L210.824 1.34159L211.444 4.7863ZM210.131 5.0224L210.751 8.46711L210.131 5.0224ZM208.819 5.25851L209.438 8.70322L208.819 5.25851ZM206.194 5.57581L205.977 2.08249L206.194 5.57581ZM200.944 5.27062L199.593 8.49972L200.944 5.27062ZM198.319 4.17306L199.669 0.943958L198.319 4.17306ZM195.694 4.07216L194.563 0.759698L195.694 4.07216ZM193.069 4.96789L194.199 8.28035L193.069 4.96789ZM190.444 5.48619L190.256 1.99122L190.444 5.48619ZM185.194 6.11905L186.264 9.45138L185.194 6.11905ZM182.569 6.96217L181.498 3.62984L182.569 6.96217ZM179.944 6.67859L178.287 9.76178V9.76178L179.944 6.67859ZM177.319 5.26828L178.975 2.18509V2.18509L177.319 5.26828ZM174.694 4.62407L174.531 1.12784L174.694 4.62407ZM169.444 5.13812L168.587 1.74453L169.444 5.13812ZM166.819 5.80061L167.675 9.1942L166.819 5.80061ZM164.194 6.31074L163.721 2.8428L164.194 6.31074ZM161.569 6.66851L162.041 10.1365L161.569 6.66851ZM158.944 6.7259L158.621 10.211L158.944 6.7259ZM156.319 6.4829L156.641 2.9978L156.319 6.4829ZM153.694 6.00367L152.773 9.3805L153.694 6.00367ZM151.069 5.28822L151.989 1.9114L151.069 5.28822ZM148.444 4.78318L148.053 8.26134L148.444 4.78318ZM145.819 4.48855L146.209 1.01039L145.819 4.48855ZM143.194 4.19825L142.815 7.67766V7.67766L143.194 4.19825ZM140.569 3.91228L140.948 0.432868V0.432868L140.569 3.91228ZM137.944 4.57829L136.107 1.59879L137.944 4.57829ZM135.319 6.19626L137.155 9.17575L135.319 6.19626ZM132.694 6.18865L130.845 9.16043L132.694 6.18865ZM130.069 4.55547L128.22 7.52725L130.069 4.55547ZM124.819 4.40223L124.237 0.950869L124.819 4.40223ZM119.569 4.53464L119.49 8.03375L119.569 4.53464ZM116.944 4.77714L117.654 8.20428L116.944 4.77714ZM114.319 5.32129L113.608 1.89415L114.319 5.32129ZM111.694 5.37646L112.264 1.9233L111.694 5.37646ZM109.069 4.94264L109.639 1.48948L109.069 4.94264ZM106.444 5.10283L107.41 8.46674L106.444 5.10283ZM103.819 5.85701L102.852 2.4931L103.819 5.85701ZM101.194 5.96068L101.907 2.53424L101.194 5.96068ZM98.5686 5.41384L97.8548 8.84028L98.5686 5.41384ZM95.9436 5.67879L97.2719 8.91696L95.9436 5.67879ZM93.3186 6.75555L91.9903 3.51739L93.3186 6.75555ZM90.6936 6.44156L92.5999 3.50623L90.6936 6.44156ZM88.0686 4.73683L86.1623 7.67215L88.0686 4.73683ZM85.4436 4.75309L87.3753 7.67178L85.4436 4.75309ZM82.8186 6.49037L80.887 3.57168L82.8186 6.49037ZM77.5686 7.08273L77.3236 10.5741L77.5686 7.08273ZM74.9436 6.08604L76.9298 3.2042L74.9436 6.08604ZM72.3186 4.27684L70.3324 7.15868L72.3186 4.27684ZM64.4436 4.32994L63.5152 0.955307L64.4436 4.32994ZM59.1936 5.86702L58.0498 2.55921L59.1936 5.86702ZM57.8811 6.32088L56.7373 3.01308L57.8811 6.32088ZM53.9436 6.81246L52.8857 10.1488L53.9436 6.81246ZM43.4436 5.84725L43.2284 9.34063L43.4436 5.84725ZM38.1936 5.46554L37.8245 8.94602L38.1936 5.46554ZM30.3186 5.88395L29.5917 2.46026L30.3186 5.88395ZM25.0686 6.26735L24.9755 2.76859L25.0686 6.26735ZM17.1936 6.78561L15.8243 10.0066L17.1936 6.78561ZM11.9436 5.61446L10.6915 2.34608L11.9436 5.61446ZM5.87109 5.79603L6.4307 2.34105L7.7432 2.55364L7.18359 6.00862L6.62398 9.46359L5.31148 9.251L5.87109 5.79603ZM7.18359 6.00862L7.7432 2.55364C7.93595 2.58486 8.15741 2.57562 8.47613 2.4444L9.80859 5.68084L11.1411 8.91728C9.70978 9.50654 8.18124 9.71582 6.62398 9.46359L7.18359 6.00862ZM9.80859 5.68084L8.47613 2.4444L9.78863 1.90403L11.1211 5.14047L12.4536 8.37691L11.1411 8.91728L9.80859 5.68084ZM11.1211 5.14047L9.78863 1.90403L11.1011 1.36367L12.4336 4.60011L13.7661 7.83655L12.4536 8.37691L11.1211 5.14047ZM12.4336 4.60011L11.1011 1.36367C12.7888 0.668851 14.5845 0.634235 16.3013 1.28631L15.0586 4.55825L13.8159 7.83019C13.7865 7.81903 13.7737 7.81701 13.7759 7.8174C13.7785 7.81788 13.7882 7.81923 13.8019 7.81902C13.8155 7.8188 13.8231 7.81718 13.8217 7.81748C13.8197 7.81791 13.8017 7.82188 13.7661 7.83655L12.4336 4.60011ZM15.0586 4.55825L16.3013 1.28631L17.6138 1.78482L16.3711 5.05676L15.1284 8.3287L13.8159 7.83019L15.0586 4.55825ZM16.3711 5.05676L17.6138 1.78482L18.9263 2.28333L17.6836 5.55527L16.4409 8.82721L15.1284 8.3287L16.3711 5.05676ZM17.6836 5.55527L18.9263 2.28333C19.5885 2.53482 20.23 2.70507 20.8536 2.80338L20.3086 6.26068L19.7636 9.71799C18.6372 9.54043 17.5287 9.24041 16.4409 8.82721L17.6836 5.55527ZM20.3086 6.26068L20.8536 2.80338L22.1661 3.01027L21.6211 6.46758L21.0761 9.92489L19.7636 9.71799L20.3086 6.26068ZM21.6211 6.46758L22.1661 3.01027L23.4786 3.21717L22.9336 6.67448L22.3886 10.1318L21.0761 9.92489L21.6211 6.46758ZM22.9336 6.67448L23.4786 3.21717C23.8138 3.27 24.1545 3.25096 24.5403 3.13366L25.5586 6.48224L26.5769 9.83083C25.2127 10.2457 23.8034 10.3548 22.3886 10.1318L22.9336 6.67448ZM25.5586 6.48224L24.5403 3.13366L25.8528 2.73452L26.8711 6.08311L27.8894 9.4317L26.5769 9.83083L25.5586 6.48224ZM26.8711 6.08311L25.8528 2.73452L27.1653 2.33539L28.1836 5.68398L29.2019 9.03257L27.8894 9.4317L26.8711 6.08311ZM28.1836 5.68398L27.1653 2.33539C28.341 1.97786 29.5425 1.7839 30.7613 1.76742L30.8086 5.2671L30.8559 8.76678C30.3246 8.77396 29.7762 8.85792 29.2019 9.03257L28.1836 5.68398ZM30.8086 5.2671L30.7613 1.76742L32.0738 1.74968L32.1211 5.24936L32.1684 8.74904L30.8559 8.76678L30.8086 5.2671ZM32.1211 5.24936L32.0738 1.74968L33.3863 1.73194L33.4336 5.23162L33.4809 8.7313L32.1684 8.74904L32.1211 5.24936ZM33.4336 5.23162L33.3863 1.73194C34.6098 1.7154 35.8192 1.87985 37.0049 2.21283L36.0586 5.58247L35.1123 8.95212C34.548 8.79365 34.0074 8.72419 33.4809 8.7313L33.4336 5.23162ZM36.0586 5.58247L37.0049 2.21283L38.3174 2.58142L37.3711 5.95107L36.4248 9.32071L35.1123 8.95212L36.0586 5.58247ZM37.3711 5.95107L38.3174 2.58142L39.6299 2.95002L38.6836 6.31966L37.7373 9.68931L36.4248 9.32071L37.3711 5.95107ZM38.6836 6.31966L39.6299 2.95002C40.087 3.07839 40.5108 3.11031 40.9251 3.06463L41.3086 6.54355L41.6921 10.0225C40.3564 10.1697 39.0302 10.0524 37.7373 9.68931L38.6836 6.31966ZM41.3086 6.54355L40.9251 3.06463L42.2376 2.91993L42.6211 6.39886L43.0046 9.87778L41.6921 10.0225L41.3086 6.54355ZM42.6211 6.39886L42.2376 2.91993L43.5501 2.77523L43.9336 6.25416L44.3171 9.73308L43.0046 9.87778L42.6211 6.39886ZM43.9336 6.25416L43.5501 2.77523C44.0149 2.72399 44.5245 2.58679 45.0887 2.3257L46.5586 5.50208L48.0285 8.67845C46.8427 9.22721 45.6023 9.59139 44.3171 9.73308L43.9336 6.25416ZM46.5586 5.50208L45.0887 2.3257L46.4012 1.71832L47.8711 4.8947L49.341 8.07107L48.0285 8.67845L46.5586 5.50208ZM47.8711 4.8947L46.4012 1.71832L47.7137 1.11094L49.1836 4.28732L50.6535 7.46369L49.341 8.07107L47.8711 4.8947ZM49.1836 4.28732L47.7137 1.11094C49.774 0.157512 51.9136 0.430429 53.7008 1.57902L51.8086 4.52342L49.9164 7.46782C49.8666 7.43587 49.9631 7.50884 50.1826 7.52858C50.4148 7.54947 50.5897 7.4932 50.6535 7.46369L49.1836 4.28732ZM51.8086 4.52342L53.7008 1.57902L55.0133 2.42251L53.1211 5.3669L51.2289 8.3113L49.9164 7.46782L51.8086 4.52342ZM53.1211 5.3669L55.0133 2.42251L56.3258 3.26599L54.4336 6.21039L52.5414 9.15478L51.2289 8.3113L53.1211 5.3669ZM54.4336 6.21039L56.3258 3.26599C56.468 3.35735 56.5212 3.36181 56.4909 3.35521C56.4766 3.35211 56.4521 3.34847 56.421 3.34831C56.3899 3.34814 56.3646 3.35152 56.3488 3.35478L57.0586 6.78206L57.7684 10.2093C55.8494 10.6068 54.0509 10.1249 52.5414 9.15478L54.4336 6.21039ZM57.0586 6.78206L56.3488 3.35478L57.6613 3.08297L58.3711 6.51024L59.0809 9.93752L57.7684 10.2093L57.0586 6.78206ZM58.3711 6.51024L57.6613 3.08297L58.9738 2.81115L59.6836 6.23843L60.3934 9.6657L59.0809 9.93752L58.3711 6.51024ZM59.6836 6.23843L58.9738 2.81115C60.3762 2.52072 61.7906 2.55715 63.1759 2.91149L62.3086 6.30232L61.4413 9.69316C61.0766 9.59988 60.741 9.59371 60.3934 9.6657L59.6836 6.23843ZM62.3086 6.30232L63.1759 2.91149L64.4884 3.2472L63.6211 6.63804L62.7538 10.0289L61.4413 9.69316L62.3086 6.30232ZM63.6211 6.63804L64.4884 3.2472L65.8009 3.58291L64.9336 6.97375L64.0663 10.3646L62.7538 10.0289L63.6211 6.63804ZM64.9336 6.97375L65.8009 3.58291C65.8242 3.58888 65.8375 3.59024 65.843 3.59063C65.8482 3.59102 65.8533 3.59102 65.8608 3.59019C65.8715 3.58901 65.9313 3.58145 66.051 3.52436L67.5586 6.683L69.0662 9.84164C67.5098 10.5845 65.7964 10.8071 64.0663 10.3646L64.9336 6.97375ZM67.5586 6.683L66.051 3.52436L67.3635 2.89789L68.8711 6.05653L70.3787 9.21517L69.0662 9.84164L67.5586 6.683ZM68.8711 6.05653L67.3635 2.89789L68.676 2.27143L70.1836 5.43007L71.6912 8.58871L70.3787 9.21517L68.8711 6.05653ZM70.1836 5.43007L68.676 2.27143C70.0959 1.59369 71.6459 1.29414 73.254 1.50043L72.8086 4.97198L72.3632 8.44353C72.2213 8.42532 72.0213 8.43115 71.6912 8.58871L70.1836 5.43007ZM72.8086 4.97198L73.254 1.50043L74.5665 1.66881L74.1211 5.14036L73.6757 8.61191L72.3632 8.44353L72.8086 4.97198ZM74.1211 5.14036L74.5665 1.66881L75.879 1.83719L75.4336 5.30874L74.9882 8.78029L73.6757 8.61191L74.1211 5.14036ZM75.4336 5.30874L75.879 1.83719C76.7514 1.94911 77.6237 2.06003 78.4961 2.16995L78.0586 5.64249L77.6211 9.11504C76.7435 9.00446 75.8658 8.89288 74.9882 8.78029L75.4336 5.30874ZM78.0586 5.64249L78.4961 2.16995L79.8086 2.33532L79.3711 5.80786L78.9336 9.28041L77.6211 9.11504L78.0586 5.64249ZM79.3711 5.80786L79.8086 2.33532L81.1211 2.50069L80.6836 5.97323L80.2461 9.44578L78.9336 9.28041L79.3711 5.80786ZM80.6836 5.97323L81.1211 2.50069C82.1296 2.62775 83.1343 2.81331 84.1347 3.05631L83.3086 6.45741L82.4825 9.85852C81.7329 9.67644 80.9876 9.5392 80.2461 9.44578L80.6836 5.97323ZM83.3086 6.45741L84.1347 3.05631L85.4472 3.37512L84.6211 6.77623L83.795 10.1773L82.4825 9.85852L83.3086 6.45741ZM84.6211 6.77623L85.4472 3.37512L86.7597 3.69394L85.9336 7.09504L85.1075 10.4961L83.795 10.1773L84.6211 6.77623ZM85.9336 7.09504L86.7597 3.69394C86.7261 3.68577 86.6786 3.67845 86.6222 3.67793C86.5658 3.6774 86.5166 3.68384 86.4798 3.69211C86.4047 3.70896 86.4324 3.72099 86.5675 3.6275L88.5586 6.506L90.5496 9.38449C89.0166 10.4449 87.1308 10.9876 85.1075 10.4961L85.9336 7.09504ZM88.5586 6.506L86.5675 3.6275L87.88 2.71965L89.8711 5.59814L91.8621 8.47664L90.5496 9.38449L88.5586 6.506ZM89.8711 5.59814L87.88 2.71965L89.1925 1.8118L91.1836 4.69029L93.1746 7.56878L91.8621 8.47664L89.8711 5.59814ZM91.1836 4.69029L89.1925 1.8118C90.0851 1.19444 91.2006 0.737993 92.4871 0.734691C93.7744 0.731387 94.8931 1.18266 95.7896 1.79815L93.8086 4.68355L91.8276 7.56896C91.849 7.5837 92.0927 7.73573 92.5051 7.73467C92.9166 7.73361 93.1571 7.5809 93.1746 7.56878L91.1836 4.69029ZM93.8086 4.68355L95.7896 1.79815L97.1021 2.69926L95.1211 5.58467L93.1401 8.47008L91.8276 7.56896L93.8086 4.68355ZM95.1211 5.58467L97.1021 2.69926L98.4146 3.60038L96.4336 6.48579L94.4526 9.37119L93.1401 8.47008L95.1211 5.58467ZM96.4336 6.48579L98.4146 3.60038C98.507 3.66384 98.4634 3.61071 98.2954 3.58401C98.2139 3.57105 98.1252 3.56823 98.0372 3.57746C97.9502 3.58659 97.8853 3.60522 97.8477 3.61907L99.0586 6.90295L100.269 10.1868C98.1695 10.9611 96.1145 10.5122 94.4526 9.37119L96.4336 6.48579ZM99.0586 6.90295L97.8477 3.61907L99.1602 3.13512L100.371 6.419L101.582 9.70288L100.269 10.1868L99.0586 6.90295ZM100.371 6.419L99.1602 3.13512L100.473 2.65117L101.684 5.93505L102.894 9.21893L101.582 9.70288L100.371 6.419ZM101.684 5.93505L100.473 2.65117C101.939 2.11068 103.483 1.97681 105.032 2.30395L104.309 5.72837L103.585 9.15279C103.384 9.11023 103.179 9.11415 102.894 9.21893L101.684 5.93505ZM104.309 5.72837L105.032 2.30395L106.345 2.58123L105.621 6.00565L104.898 9.43007L103.585 9.15279L104.309 5.72837ZM105.621 6.00565L106.345 2.58123L107.657 2.8585L106.934 6.28292L106.21 9.70734L104.898 9.43007L105.621 6.00565ZM106.934 6.28292L107.657 2.8585C107.664 2.85993 107.662 2.85903 107.654 2.85889C107.647 2.85875 107.643 2.85955 107.645 2.85916C107.647 2.85889 107.712 2.84801 107.849 2.77143L109.559 5.8253L111.269 8.87918C109.75 9.72936 108.016 10.0889 106.21 9.70734L106.934 6.28292ZM109.559 5.8253L107.849 2.77143L109.161 2.03653L110.871 5.0904L112.581 8.14428L111.269 8.87918L109.559 5.8253ZM110.871 5.0904L109.161 2.03653L110.474 1.30163L112.184 4.35551L113.894 7.40938L112.581 8.14428L110.871 5.0904ZM112.184 4.35551L110.474 1.30163C111.43 0.765992 112.558 0.452631 113.786 0.554511C114.993 0.65475 116.029 1.13419 116.865 1.74091L114.809 4.57335L112.753 7.40578C112.713 7.37735 112.874 7.5029 113.207 7.53053C113.559 7.5598 113.812 7.4551 113.894 7.40938L112.184 4.35551ZM114.809 4.57335L116.865 1.74091L118.177 2.69365L116.121 5.52608L114.065 8.35852L112.753 7.40578L114.809 4.57335ZM116.121 5.52608L118.177 2.69365L119.49 3.64638L117.434 6.47882L115.378 9.31125L114.065 8.35852L116.121 5.52608ZM117.434 6.47882L119.49 3.64638C119.642 3.75671 119.688 3.75483 119.629 3.73961C119.6 3.73201 119.556 3.72412 119.501 3.72257C119.446 3.72102 119.397 3.72631 119.358 3.73424L120.059 7.16341L120.759 10.5926C118.723 11.0086 116.866 10.3916 115.378 9.31125L117.434 6.47882ZM120.059 7.16341L119.358 3.73424L120.671 3.4661L121.371 6.89527L122.072 10.3244L120.759 10.5926L120.059 7.16341ZM121.371 6.89527L120.671 3.4661L121.983 3.19796L122.684 6.62713L123.384 10.0563L122.072 10.3244L121.371 6.89527ZM122.684 6.62713L121.983 3.19796C122.99 2.99218 124.001 2.8462 125.015 2.76095L125.309 6.24865L125.602 9.73635C124.866 9.79821 124.127 9.90455 123.384 10.0563L122.684 6.62713ZM125.309 6.24865L125.015 2.76095L126.328 2.65062L126.621 6.13832L126.914 9.62602L125.602 9.73635L125.309 6.24865ZM126.621 6.13832L126.328 2.65062L127.64 2.54029L127.934 6.02799L128.227 9.51569L126.914 9.62602L126.621 6.13832ZM127.934 6.02799L127.64 2.54029C128.688 2.4522 129.737 2.44221 130.786 2.51044L130.559 6.00305L130.331 9.49567C129.63 9.45003 128.929 9.45666 128.227 9.51569L127.934 6.02799ZM130.559 6.00305L130.786 2.51044L132.098 2.59584L131.871 6.08845L131.644 9.58107L130.331 9.49567L130.559 6.00305ZM131.871 6.08845L132.098 2.59584L133.411 2.68124L133.184 6.17385L132.956 9.66647L131.644 9.58107L131.871 6.08845ZM133.184 6.17385L133.411 2.68124C133.616 2.69456 133.888 2.66312 134.279 2.47344L135.809 5.62131L137.339 8.76917C135.979 9.43008 134.502 9.767 132.956 9.66647L133.184 6.17385ZM135.809 5.62131L134.279 2.47344L135.591 1.8355L137.121 4.98337L138.651 8.13123L137.339 8.76917L135.809 5.62131ZM137.121 4.98337L135.591 1.8355L136.904 1.19756L138.434 4.34543L139.964 7.49329L138.651 8.13123L137.121 4.98337ZM138.434 4.34543L136.904 1.19756C138.58 0.382588 140.43 0.235196 142.237 0.880919L141.059 4.17667L139.88 7.47242C139.868 7.46803 139.874 7.47119 139.895 7.47426C139.916 7.47742 139.943 7.47885 139.971 7.47706C139.998 7.47529 140.015 7.47112 140.018 7.47023C140.021 7.46954 140.003 7.47415 139.964 7.49329L138.434 4.34543ZM141.059 4.17667L142.237 0.880919L143.549 1.3501L142.371 4.64585L141.193 7.94161L139.88 7.47242L141.059 4.17667ZM142.371 4.64585L143.549 1.3501L144.862 1.81928L143.684 5.11504L142.505 8.41079L141.193 7.94161L142.371 4.64585ZM143.684 5.11504L144.862 1.81928C145.413 2.01634 145.926 2.11047 146.413 2.12503L146.309 5.62347L146.204 9.1219C144.941 9.08413 143.704 8.83931 142.505 8.41079L143.684 5.11504ZM146.309 5.62347L146.413 2.12503L147.726 2.16428L147.621 5.66271L147.516 9.16115L146.204 9.1219L146.309 5.62347ZM147.621 5.66271L147.726 2.16428L149.038 2.20352L148.934 5.70196L148.829 9.20039L147.516 9.16115L147.621 5.66271ZM148.934 5.70196L149.038 2.20352C149.343 2.21263 149.7 2.15532 150.141 1.95973L151.559 5.15993L152.976 8.36013C151.668 8.93958 150.275 9.24362 148.829 9.20039L148.934 5.70196ZM151.559 5.15993L150.141 1.95973L151.454 1.37845L152.871 4.57865L154.288 7.77885L152.976 8.36013L151.559 5.15993ZM152.871 4.57865L151.454 1.37845L152.766 0.797178L154.184 3.99738L155.601 7.19758L154.288 7.77885L152.871 4.57865ZM154.184 3.99738L152.766 0.797178C154.744 -0.0785918 156.805 0.12534 158.582 1.17053L156.809 4.18773L155.035 7.20493C154.988 7.17757 155.066 7.2323 155.243 7.24516C155.326 7.2512 155.407 7.24584 155.477 7.23279C155.546 7.21998 155.589 7.20302 155.601 7.19758L154.184 3.99738ZM156.809 4.18773L158.582 1.17053L159.895 1.94215L158.121 4.95936L156.347 7.97656L155.035 7.20493L156.809 4.18773ZM158.121 4.95936L159.895 1.94215L161.207 2.71378L159.434 5.73098L157.66 8.74819L156.347 7.97656L158.121 4.95936ZM159.434 5.73098L161.207 2.71378C161.352 2.79899 161.423 2.81293 161.426 2.81354C161.429 2.81408 161.424 2.81292 161.414 2.81289C161.403 2.81286 161.398 2.81398 161.4 2.81361L162.059 6.25103L162.717 9.68845C160.891 10.0385 159.159 9.62949 157.66 8.74819L159.434 5.73098ZM162.059 6.25103L161.4 2.81361L162.712 2.56203L163.371 5.99945L164.03 9.43688L162.717 9.68845L162.059 6.25103ZM163.371 5.99945L162.712 2.56203L164.025 2.31045L164.684 5.74787L165.342 9.1853L164.03 9.43688L163.371 5.99945ZM164.684 5.74787L164.025 2.31045C164.865 2.14942 165.705 1.97507 166.546 1.78738L167.309 5.2033L168.071 8.61923C167.162 8.8222 166.252 9.01089 165.342 9.1853L164.684 5.74787ZM167.309 5.2033L166.546 1.78738L167.859 1.49439L168.621 4.91032L169.384 8.32624L168.071 8.61923L167.309 5.2033ZM168.621 4.91032L167.859 1.49439L169.171 1.2014L169.934 4.61733L170.696 8.03325L169.384 8.32624L168.621 4.91032ZM169.934 4.61733L169.171 1.2014C170.663 0.868373 172.165 0.944023 173.613 1.40197L172.559 4.73922L171.504 8.07646C171.202 7.98124 170.954 7.97563 170.696 8.03325L169.934 4.61733ZM172.559 4.73922L173.613 1.40197L174.926 1.81685L173.871 5.15409L172.816 8.49134L171.504 8.07646L172.559 4.73922ZM173.871 5.15409L174.926 1.81685L176.238 2.23173L175.184 5.56897L174.129 8.90622L172.816 8.49134L173.871 5.15409ZM175.184 5.56897L176.238 2.23173C176.817 2.41458 177.368 2.50569 177.901 2.51978L177.809 6.01856L177.716 9.51733C176.499 9.48515 175.3 9.27654 174.129 8.90622L175.184 5.56897ZM177.809 6.01856L177.901 2.51978L179.214 2.55448L179.121 6.05326L179.029 9.55203L177.716 9.51733L177.809 6.01856ZM179.121 6.05326L179.214 2.55448L180.526 2.58918L180.434 6.08796L180.341 9.58674L179.029 9.55203L179.121 6.05326ZM180.434 6.08796L180.526 2.58918C180.722 2.59437 181.005 2.55384 181.419 2.33452L183.059 5.42646L184.699 8.51841C183.362 9.22735 181.895 9.62782 180.341 9.58674L180.434 6.08796ZM183.059 5.42646L181.419 2.33452L182.731 1.63832L184.371 4.73027L186.011 7.82221L184.699 8.51841L183.059 5.42646ZM184.371 4.73027L182.731 1.63832L184.044 0.942122L185.684 4.03407L187.324 7.12602L186.011 7.82221L184.371 4.73027ZM185.684 4.03407L184.044 0.942122C185 0.434663 186.11 0.151891 187.305 0.257744C188.481 0.361954 189.498 0.820853 190.33 1.40947L188.309 4.26657L186.287 7.12367C186.244 7.09315 186.386 7.20374 186.687 7.23045C187.007 7.2588 187.242 7.16934 187.324 7.12602L185.684 4.03407ZM188.309 4.26657L190.33 1.40947L191.643 2.33816L189.621 5.19527L187.599 8.05237L186.287 7.12367L188.309 4.26657ZM189.621 5.19527L191.643 2.33816L192.955 3.26686L190.934 6.12396L188.912 8.98107L187.599 8.05237L189.621 5.19527ZM190.934 6.12396L192.955 3.26686C192.959 3.26965 192.746 3.12326 192.357 3.11092C191.959 3.09828 191.708 3.23632 191.663 3.26482L193.559 6.20733L195.454 9.14984C194.535 9.74189 193.408 10.1478 192.135 10.1074C190.871 10.0673 189.783 9.5974 188.912 8.98107L190.934 6.12396ZM193.559 6.20733L191.663 3.26482L192.976 2.41948L194.871 5.36199L196.766 8.3045L195.454 9.14984L193.559 6.20733ZM194.871 5.36199L192.976 2.41948L194.288 1.57415L196.184 4.51666L198.079 7.45917L196.766 8.3045L194.871 5.36199ZM196.184 4.51666L194.288 1.57415C195.702 0.663697 197.357 0.13976 199.158 0.32074L198.809 3.80321L198.459 7.28567C198.455 7.28532 198.454 7.28535 198.451 7.28557C198.448 7.28581 198.437 7.28696 198.414 7.2931C198.369 7.30522 198.258 7.34345 198.079 7.45917L196.184 4.51666ZM198.809 3.80321L199.158 0.32074L200.471 0.452617L200.121 3.93508L199.771 7.41755L198.459 7.28567L198.809 3.80321ZM200.121 3.93508L200.471 0.452617L201.783 0.584494L201.434 4.06696L201.084 7.54942L199.771 7.41755L200.121 3.93508ZM201.434 4.06696L201.783 0.584494C203.244 0.731208 204.606 1.23298 205.852 1.97631L204.059 4.98196L202.265 7.9876C201.761 7.68677 201.374 7.57854 201.084 7.54942L201.434 4.06696ZM204.059 4.98196L205.852 1.97631L207.164 2.75943L205.371 5.76508L203.578 8.77072L202.265 7.9876L204.059 4.98196ZM205.371 5.76508L207.164 2.75943L208.477 3.54255L206.684 6.5482L204.89 9.55384L203.578 8.77072L205.371 5.76508ZM206.684 6.5482L208.477 3.54255C208.888 3.78809 209.133 3.81518 209.26 3.81342L209.309 7.31308L209.357 10.8127C207.734 10.8353 206.229 10.3525 204.89 9.55384L206.684 6.5482ZM209.309 7.31308L209.26 3.81342L210.572 3.79519L210.621 7.29485L210.67 10.7945L209.357 10.8127L209.309 7.31308ZM210.621 7.29485L210.572 3.79519L211.885 3.77695L211.934 7.27661L211.982 10.7763L210.67 10.7945L210.621 7.29485ZM211.934 7.27661L211.885 3.77695C212.083 3.7742 212.383 3.72055 212.822 3.46953L214.559 6.50834L216.295 9.54715C214.984 10.2962 213.534 10.7547 211.982 10.7763L211.934 7.27661ZM214.559 6.50834L212.822 3.46953L214.135 2.71949L215.871 5.7583L217.608 8.79711L216.295 9.54715L214.559 6.50834ZM215.871 5.7583L214.135 2.71949L215.447 1.96945L217.184 5.00826L218.92 8.04707L217.608 8.79711L215.871 5.7583ZM217.184 5.00826L215.447 1.96945C216.975 1.09635 218.731 0.726066 220.562 1.1293L219.809 4.54735L219.056 7.9654C219.053 7.9649 219.061 7.96656 219.074 7.96686C219.088 7.96717 219.098 7.96588 219.101 7.96528C219.111 7.96353 219.054 7.97084 218.92 8.04707L217.184 5.00826ZM219.809 4.54735L220.562 1.1293L221.874 1.41843L221.121 4.83648L220.368 8.25453L219.056 7.9654L219.809 4.54735ZM221.121 4.83648L221.874 1.41843L223.187 1.70757L222.434 5.12561L221.681 8.54366L220.368 8.25453L221.121 4.83648ZM222.434 5.12561L223.187 1.70757C223.843 1.85227 224.491 1.92953 225.132 1.94291L225.059 5.44215L224.986 8.94138C223.876 8.91823 222.774 8.78446 221.681 8.54366L222.434 5.12561ZM225.059 5.44215L225.132 1.94291L226.444 1.97031L226.371 5.46955L226.298 8.96879L224.986 8.94138L225.059 5.44215ZM226.371 5.46955L226.444 1.97031L227.757 1.99772L227.684 5.49695L227.611 8.99619L226.298 8.96879L226.371 5.46955ZM227.684 5.49695L227.757 1.99772C228.483 2.01287 229.209 1.98181 229.938 1.9042L230.309 5.38449L230.679 8.86479C229.658 8.97365 228.635 9.01757 227.611 8.99619L227.684 5.49695ZM230.309 5.38449L229.938 1.9042L231.25 1.76433L231.621 5.24463L231.992 8.72492L230.679 8.86479L230.309 5.38449ZM231.621 5.24463L231.25 1.76433L232.563 1.62447L232.934 5.10476L233.304 8.58506L231.992 8.72492L231.621 5.24463ZM232.934 5.10476L232.563 1.62447C233.466 1.52821 234.369 1.44307 235.273 1.36903L235.559 4.85733L235.844 8.34564C234.998 8.41502 234.151 8.49482 233.304 8.58506L232.934 5.10476ZM235.559 4.85733L235.273 1.36903L236.585 1.26146L236.871 4.74977L237.157 8.23807L235.844 8.34564L235.559 4.85733ZM236.871 4.74977L236.585 1.26146L237.898 1.1539L238.184 4.6422L238.469 8.13051L237.157 8.23807L236.871 4.74977ZM238.184 4.6422L237.898 1.1539C238.715 1.08694 239.532 0.999445 240.35 0.89136L240.809 4.3612L241.267 7.83103C240.335 7.9542 239.402 8.05404 238.469 8.13051L238.184 4.6422ZM240.809 4.3612L240.35 0.89136L241.663 0.717918L242.121 4.18775L242.58 7.65759L241.267 7.83103L240.809 4.3612ZM242.121 4.18775L241.663 0.717918L242.975 0.544476L243.434 4.01431L243.892 7.48414L242.58 7.65759L242.121 4.18775ZM243.434 4.01431L242.975 0.544476C244.647 0.323576 246.242 0.673857 247.677 1.42202L246.059 4.52535L244.44 7.62869C244.125 7.4642 243.971 7.47379 243.892 7.48414L243.434 4.01431ZM246.059 4.52535L247.677 1.42202L248.99 2.1065L247.371 5.20984L245.753 8.31317L244.44 7.62869L246.059 4.52535ZM247.371 5.20984L248.99 2.1065L250.302 2.79099L248.684 5.89432L247.065 8.99766L245.753 8.31317L247.371 5.20984ZM248.684 5.89432L250.302 2.79099C250.557 2.92401 250.634 2.89277 250.649 2.88974L251.309 6.32711L251.968 9.76447C250.234 10.0971 248.56 9.77729 247.065 8.99766L248.684 5.89432ZM251.309 6.32711L250.649 2.88974L251.962 2.63804L252.621 6.0754L253.28 9.51276L251.968 9.76447L251.309 6.32711ZM252.621 6.0754L251.962 2.63804L253.274 2.38633L253.934 5.8237L254.593 9.26106L253.28 9.51276L252.621 6.0754ZM253.934 5.8237L253.274 2.38633C254.738 2.10559 256.203 2.20362 257.615 2.65066L256.559 5.98747L255.502 9.32427C255.165 9.21734 254.879 9.2062 254.593 9.26106L253.934 5.8237ZM256.559 5.98747L257.615 2.65066L258.927 3.06613L257.871 6.40294L256.815 9.73975L255.502 9.32427L256.559 5.98747ZM257.871 6.40294L258.927 3.06613L260.24 3.48161L259.184 6.81842L258.127 10.1552L256.815 9.73975L257.871 6.40294ZM259.184 6.81842L260.24 3.48161C260.252 3.48558 260.261 3.48777 260.267 3.48895C260.272 3.49012 260.274 3.49044 260.275 3.49046C260.275 3.49047 260.273 3.49031 260.271 3.49025C260.269 3.49018 260.267 3.49023 260.265 3.49035C260.26 3.49064 260.264 3.49092 260.279 3.4871C260.295 3.48314 260.326 3.47359 260.375 3.45166L261.809 6.64459L263.242 9.83752C261.622 10.5651 259.861 10.7041 258.127 10.1552L259.184 6.81842ZM261.809 6.64459L260.375 3.45166L261.688 2.86236L263.121 6.05529L264.555 9.24822L263.242 9.83752L261.809 6.64459ZM263.121 6.05529L261.688 2.86236L263 2.27306L264.434 5.46599L265.867 8.65892L264.555 9.24822L263.121 6.05529ZM264.434 5.46599L263 2.27306C264.393 1.6477 265.894 1.37156 267.446 1.54416L267.059 5.0227L266.672 8.50124C266.473 8.47915 266.224 8.49854 265.867 8.65892L264.434 5.46599ZM267.059 5.0227L267.446 1.54416L268.758 1.69018L268.371 5.16872L267.984 8.64726L266.672 8.50124L267.059 5.0227ZM268.371 5.16872L268.758 1.69018L270.071 1.83619L269.684 5.31473L269.297 8.79327L267.984 8.64726L268.371 5.16872ZM269.684 5.31473L270.071 1.83619C270.826 1.92026 271.581 1.96491 272.334 1.97039L272.309 5.4703L272.283 8.97021C271.287 8.96295 270.291 8.90389 269.297 8.79327L269.684 5.31473ZM272.309 5.4703L272.334 1.97039L273.647 1.97995L273.621 5.47985L273.596 8.97976L272.283 8.97021L272.309 5.4703ZM273.621 5.47985L273.647 1.97995L274.959 1.9895L274.934 5.48941L274.908 8.98931L273.596 8.97976L273.621 5.47985ZM274.934 5.48941L274.959 1.9895C276.051 1.99745 277.139 2.10647 278.219 2.31418L277.559 5.75125L276.898 9.18833C276.228 9.05965 275.566 8.9941 274.908 8.98931L274.934 5.48941ZM277.559 5.75125L278.219 2.31418L279.532 2.56647L278.871 6.00354L278.21 9.44062L276.898 9.18833L277.559 5.75125ZM278.871 6.00354L279.532 2.56647L280.844 2.81876L280.184 6.25584L279.523 9.69291L278.21 9.44062L278.871 6.00354ZM280.184 6.25584L280.844 2.81876C281.419 2.92917 281.982 2.96084 282.542 2.91805L282.809 6.40789L283.075 9.89773C281.885 9.9886 280.699 9.91889 279.523 9.69291L280.184 6.25584ZM282.809 6.40789L282.542 2.91805L283.855 2.81782L284.121 6.30765L284.388 9.79749L283.075 9.89773L282.809 6.40789ZM284.121 6.30765L283.855 2.81782L285.167 2.71758L285.434 6.20742L285.7 9.69726L284.388 9.79749L284.121 6.30765ZM285.434 6.20742L285.167 2.71758C286.037 2.65113 286.907 2.58283 287.777 2.51269L288.059 6.00137L288.34 9.49006C287.46 9.56099 286.58 9.63006 285.7 9.69726L285.434 6.20742ZM288.059 6.00137L287.777 2.51269L289.09 2.40688L289.371 5.89557L289.652 9.38425L288.34 9.49006L288.059 6.00137ZM289.371 5.89557L289.09 2.40688L290.402 2.30108L290.684 5.78976L290.965 9.27844L289.652 9.38425L289.371 5.89557ZM290.684 5.78976L290.402 2.30108C291.317 2.22735 292.232 2.16927 293.146 2.12685L293.309 5.6231L293.471 9.11934C292.636 9.15807 291.8 9.2111 290.965 9.27844L290.684 5.78976ZM293.309 5.6231L293.146 2.12685L294.459 2.066L294.621 5.56224L294.783 9.05849L293.471 9.11934L293.309 5.6231ZM294.621 5.56224L294.459 2.066L295.771 2.00514L295.934 5.50139L296.096 8.99763L294.783 9.05849L294.621 5.56224ZM295.934 5.50139L295.771 2.00514C296.86 1.95469 297.946 2.00351 299.029 2.15056L298.559 5.61874L298.088 9.08691C297.421 8.99636 296.758 8.96694 296.096 8.99763L295.934 5.50139ZM298.559 5.61874L299.029 2.15056L300.342 2.32876L299.871 5.79694L299.4 9.26512L298.088 9.08691L298.559 5.61874ZM299.871 5.79694L300.342 2.32876L301.654 2.50696L301.184 5.97514L300.713 9.44332L299.4 9.26512L299.871 5.79694ZM301.184 5.97514L301.654 2.50696C302.521 2.62456 303.387 2.7388 304.253 2.84966L303.809 6.32134L303.364 9.79302C302.48 9.67988 301.597 9.56332 300.713 9.44332L301.184 5.97514ZM303.809 6.32134L304.253 2.84966L305.565 3.01766L305.121 6.48934L304.677 9.96101L303.364 9.79302L303.809 6.32134ZM305.121 6.48934L305.565 3.01766L306.878 3.18566L306.434 6.65734L305.989 10.129L304.677 9.96101L305.121 6.48934ZM306.434 6.65734L306.878 3.18566C307.577 3.27509 308.272 3.31034 308.967 3.29213L309.059 6.79093L309.15 10.2897C308.095 10.3174 307.041 10.2636 305.989 10.129L306.434 6.65734ZM309.059 6.79093L308.967 3.29213L310.279 3.25773L310.371 6.75653L310.463 10.2553L309.15 10.2897L309.059 6.79093ZM310.371 6.75653L310.279 3.25773L311.592 3.22333L311.684 6.72213L311.775 10.2209L310.463 10.2553L310.371 6.75653ZM311.684 6.72213L311.592 3.22333C312.413 3.2018 313.234 3.16133 314.056 3.10189L314.309 6.59277L314.561 10.0836C313.633 10.1508 312.704 10.1966 311.775 10.2209L311.684 6.72213ZM314.309 6.59277L314.056 3.10189L315.369 3.00693L315.621 6.49781L315.874 9.98869L314.561 10.0836L314.309 6.59277ZM315.621 6.49781L315.369 3.00693L316.681 2.91198L316.934 6.40285L317.186 9.89373L315.874 9.98869L315.621 6.49781ZM316.934 6.40285L316.681 2.91198C317.109 2.88099 317.585 2.76691 318.12 2.52545L319.559 5.71618L320.997 8.90692C319.783 9.4544 318.508 9.79811 317.186 9.89373L316.934 6.40285ZM319.559 5.71618L318.12 2.52545L319.433 1.93374L320.871 5.12447L322.31 8.31521L320.997 8.90692L319.559 5.71618ZM320.871 5.12447L319.433 1.93374L320.745 1.34203L322.184 4.53276L323.622 7.7235L322.31 8.31521L320.871 5.12447ZM322.184 4.53276L320.745 1.34203C322.122 0.721439 323.604 0.435591 325.138 0.580897L324.809 4.06532L324.479 7.54973C324.263 7.52935 323.996 7.55513 323.622 7.7235L322.184 4.53276ZM324.809 4.06532L325.138 0.580897L326.451 0.705163L326.121 4.18958L325.791 7.674L324.479 7.54973L324.809 4.06532ZM326.121 4.18958L326.451 0.705163L327.763 0.829428L327.434 4.31385L327.104 7.79826L325.791 7.674L326.121 4.18958ZM327.434 4.31385L327.763 0.829428C328.999 0.946398 330.203 1.25195 331.369 1.72247L330.059 4.96797L328.748 8.21348C328.164 7.97752 327.618 7.84698 327.104 7.79826L327.434 4.31385ZM330.059 4.96797L331.369 1.72247L332.681 2.25233L331.371 5.49783L330.061 8.74334L328.748 8.21348L330.059 4.96797ZM331.371 5.49783L332.681 2.25233L333.994 2.78219L332.684 6.0277L331.373 9.2732L330.061 8.74334L331.371 5.49783ZM332.684 6.0277L333.994 2.78219C334.492 2.9833 334.932 3.06369 335.332 3.06634L335.309 6.56627L335.285 10.0662C333.936 10.0572 332.625 9.77857 331.373 9.2732L332.684 6.0277ZM335.309 6.56627L335.332 3.06634L336.644 3.07505L336.621 6.57497L336.598 10.0749L335.285 10.0662L335.309 6.56627ZM336.621 6.57497L336.644 3.07505L337.957 3.08376L337.934 6.58368L337.91 10.0836L336.598 10.0749L336.621 6.57497ZM337.934 6.58368L337.957 3.08376C338.496 3.08734 339.049 3.0151 339.624 2.85575L340.559 6.22857L341.494 9.60139C340.318 9.92714 339.121 10.0916 337.91 10.0836L337.934 6.58368ZM340.559 6.22857L339.624 2.85575L340.936 2.49194L341.871 5.86476L342.806 9.23758L341.494 9.60139L340.559 6.22857ZM341.871 5.86476L340.936 2.49194L342.249 2.12812L343.184 5.50094L344.119 8.87376L342.806 9.23758L341.871 5.86476ZM343.184 5.50094L342.249 2.12812C343.29 1.83942 344.34 1.63116 345.397 1.50611L345.809 4.98188L346.22 8.45766C345.527 8.53959 344.827 8.67737 344.119 8.87376L343.184 5.50094ZM345.809 4.98188L345.397 1.50611L346.71 1.35087L347.121 4.82665L347.532 8.30242L346.22 8.45766L345.809 4.98188ZM347.121 4.82665L346.71 1.35087L348.022 1.19564L348.434 4.67141L348.845 8.14718L347.532 8.30242L347.121 4.82665ZM348.434 4.67141L348.022 1.19564C348.956 1.08524 349.89 0.998618 350.824 0.935807L351.059 4.42792L351.293 7.92004C350.478 7.97489 349.661 8.05059 348.845 8.14718L348.434 4.67141ZM351.059 4.42792L350.824 0.935807L352.136 0.847557L352.371 4.33967L352.606 7.83179L351.293 7.92004L351.059 4.42792ZM352.371 4.33967L352.136 0.847557L353.449 0.759307L353.684 4.25142L353.918 7.74354L352.606 7.83179L352.371 4.33967ZM353.684 4.25142L353.449 0.759307C354.317 0.700928 355.185 0.64002 356.054 0.576583L356.309 4.06728L356.564 7.55797C355.682 7.6224 354.8 7.68425 353.918 7.74354L353.684 4.25142ZM356.309 4.06728L356.054 0.576583L357.366 0.480689L357.621 3.97138L357.876 7.46208L356.564 7.55797L356.309 4.06728ZM357.621 3.97138L357.366 0.480689L358.679 0.384795L358.934 3.87549L359.189 7.36619L357.876 7.46208L357.621 3.97138ZM358.934 3.87549L358.679 0.384795C360.209 0.272992 361.686 0.583883 363.042 1.28381L361.436 4.39389L359.831 7.50396C359.6 7.38484 359.408 7.35013 359.189 7.36619L358.934 3.87549ZM361.436 4.39389L363.042 1.28381L364.232 1.8981L362.626 5.00817L361.021 8.11825L359.831 7.50396L361.436 4.39389ZM362.626 5.00817L364.232 1.8981L365.422 2.51239L363.816 5.62246L362.211 8.73254L361.021 8.11825L362.626 5.00817ZM363.816 5.62246L365.422 2.51239C365.698 2.65515 366.12 2.88899 366.516 3.22401C366.711 3.38894 367.048 3.70163 367.339 4.17412C367.636 4.65714 368.032 5.56576 367.825 6.71867C367.614 7.8984 366.897 8.63366 366.389 9.00455C365.909 9.35423 365.446 9.51553 365.193 9.59099C364.677 9.74452 364.182 9.78417 363.875 9.80008L363.694 6.30477L363.512 2.80946C363.643 2.8027 363.481 2.79691 363.194 2.88225C363.055 2.92361 362.68 3.04513 362.263 3.34933C361.817 3.67473 361.137 4.35882 360.936 5.4817C360.739 6.57775 361.12 7.42382 361.375 7.8386C361.623 8.24285 361.893 8.48161 361.993 8.56692C362.201 8.7427 362.331 8.79454 362.211 8.73254L363.816 5.62246ZM363.694 6.30477L363.875 9.80008L362.562 9.86809L362.381 6.37279L362.2 2.87748L363.512 2.80946L363.694 6.30477ZM362.381 6.37279L362.562 9.86809L361.25 9.93611L361.069 6.4408L360.887 2.94549L362.2 2.87748L362.381 6.37279ZM361.069 6.4408L361.25 9.93611C360.512 9.97436 359.771 10.0561 359.028 10.182L358.444 6.73111L357.859 3.28025C358.866 3.10975 359.876 2.99793 360.887 2.94549L361.069 6.4408ZM358.444 6.73111L359.028 10.182L357.716 10.4043L357.131 6.9534L356.547 3.50255L357.859 3.28025L358.444 6.73111ZM357.131 6.9534L357.716 10.4043L356.403 10.6266L355.819 7.17569L355.234 3.72484L356.547 3.50255L357.131 6.9534ZM355.819 7.17569L356.403 10.6266C354.775 10.9023 353.189 10.6447 351.732 9.97488L353.194 6.79472L354.655 3.61456C354.948 3.74909 355.112 3.74547 355.234 3.72484L355.819 7.17569ZM353.194 6.79472L351.732 9.97488L350.419 9.37161L351.881 6.19145L353.343 3.01129L354.655 3.61456L353.194 6.79472ZM351.881 6.19145L350.419 9.37161L349.107 8.76834L350.569 5.58818L352.03 2.40802L353.343 3.01129L351.881 6.19145ZM350.569 5.58818L349.107 8.76834C348.432 8.45809 347.781 8.23579 347.153 8.09014L347.944 4.68059L348.734 1.27104C349.856 1.53116 350.955 1.91392 352.03 2.40802L350.569 5.58818ZM347.944 4.68059L347.153 8.09014L345.841 7.78581L346.631 4.37626L347.422 0.966716L348.734 1.27104L347.944 4.68059ZM346.631 4.37626L345.841 7.78581L344.528 7.48148L345.319 4.07194L346.109 0.662389L347.422 0.966716L346.631 4.37626ZM345.319 4.07194L344.528 7.48148C344.109 7.38435 343.712 7.37528 343.308 7.44733L342.694 4.0017L342.079 0.556082C343.425 0.316003 344.778 0.353751 346.109 0.662389L345.319 4.07194ZM342.694 4.0017L343.308 7.44733L341.996 7.68142L341.381 4.2358L340.767 0.790178L342.079 0.556082L342.694 4.0017ZM341.381 4.2358L341.996 7.68142L340.683 7.91552L340.069 4.4699L339.454 1.02427L340.767 0.790178L341.381 4.2358ZM340.069 4.4699L340.683 7.91552C339.659 8.0982 338.631 8.21309 337.6 8.25919L337.444 4.76268L337.287 1.26617C338.006 1.23402 338.728 1.15372 339.454 1.02427L340.069 4.4699ZM337.444 4.76268L337.6 8.25919L336.287 8.31788L336.131 4.82137L335.975 1.32486L337.287 1.26617L337.444 4.76268ZM336.131 4.82137L336.287 8.31788L334.975 8.37656L334.819 4.88006L334.662 1.38355L335.975 1.32486L336.131 4.82137ZM334.819 4.88006L334.975 8.37656C333.979 8.42111 332.982 8.41381 331.986 8.3547L332.194 4.86085L332.401 1.367C333.155 1.41174 333.909 1.41725 334.662 1.38355L334.819 4.88006ZM332.194 4.86085L331.986 8.3547L330.674 8.2768L330.881 4.78295L331.088 1.2891L332.401 1.367L332.194 4.86085ZM330.881 4.78295L330.674 8.2768L329.361 8.1989L329.569 4.70505L329.776 1.2112L331.088 1.2891L330.881 4.78295ZM329.569 4.70505L329.361 8.1989C328.536 8.14992 327.711 8.11859 326.886 8.10491L326.944 4.60539L327.002 1.10587C327.927 1.12121 328.851 1.15632 329.776 1.2112L329.569 4.70505ZM326.944 4.60539L326.886 8.10491L325.573 8.08314L325.631 4.58362L325.689 1.0841L327.002 1.10587L326.944 4.60539ZM325.631 4.58362L325.573 8.08314L324.261 8.06138L324.319 4.56186L324.377 1.06234L325.689 1.0841L325.631 4.58362ZM324.319 4.56186L324.261 8.06138C323.891 8.05525 323.481 8.12369 323.007 8.31564L321.694 5.07123L320.381 1.82681C321.656 1.31059 322.996 1.03945 324.377 1.06234L324.319 4.56186ZM321.694 5.07123L323.007 8.31564L321.694 8.84678L320.381 5.60236L319.068 2.35795L320.381 1.82681L321.694 5.07123ZM320.381 5.60236L321.694 8.84678L320.382 9.37791L319.069 6.1335L317.756 2.88908L319.068 2.35795L320.381 5.60236ZM319.069 6.1335L320.382 9.37791C318.74 10.0422 316.993 10.1039 315.302 9.52019L316.444 6.21167L317.585 2.90316C317.619 2.91464 317.638 2.91825 317.645 2.91935C317.649 2.91996 317.651 2.9201 317.651 2.92014C317.652 2.92016 317.652 2.92016 317.652 2.92016C317.652 2.92016 317.652 2.92016 317.652 2.92016C317.652 2.92016 317.653 2.92014 317.655 2.91985C317.658 2.91956 317.662 2.91889 317.669 2.91732C317.683 2.9143 317.712 2.9069 317.756 2.88908L319.069 6.1335ZM316.444 6.21167L315.302 9.52019L313.989 9.06723L315.131 5.75871L316.273 2.4502L317.585 2.90316L316.444 6.21167ZM315.131 5.75871L313.989 9.06723L312.677 8.61427L313.819 5.30575L314.96 1.99724L316.273 2.4502L315.131 5.75871ZM313.819 5.30575L312.677 8.61427C312.23 8.46021 311.836 8.41565 311.466 8.44452L311.194 4.95511L310.922 1.46569C312.301 1.35814 313.657 1.54734 314.96 1.99724L313.819 5.30575ZM311.194 4.95511L311.466 8.44452L310.153 8.54684L309.881 5.05742L309.609 1.56801L310.922 1.46569L311.194 4.95511ZM309.881 5.05742L310.153 8.54684L308.841 8.64915L308.569 5.15974L308.297 1.67032L309.609 1.56801L309.881 5.05742ZM308.569 5.15974L308.841 8.64915C307.843 8.72689 306.845 8.75206 305.847 8.72454L305.944 5.22587L306.04 1.7272C306.792 1.74792 307.544 1.72901 308.297 1.67032L308.569 5.15974ZM305.944 5.22587L305.847 8.72454L304.535 8.68835L304.631 5.18968L304.728 1.69101L306.04 1.7272L305.944 5.22587ZM304.631 5.18968L304.535 8.68835L303.222 8.65217L303.319 5.1535L303.415 1.65483L304.728 1.69101L304.631 5.18968ZM303.319 5.1535L303.222 8.65217C302.442 8.63067 301.662 8.64091 300.882 8.68294L300.694 5.18801L300.505 1.69307C301.475 1.64084 302.445 1.62809 303.415 1.65483L303.319 5.1535ZM300.694 5.18801L300.882 8.68294L299.569 8.75363L299.381 5.2587L299.193 1.76377L300.505 1.69307L300.694 5.18801ZM299.381 5.2587L299.569 8.75363L298.257 8.82433L298.069 5.32939L297.88 1.83446L299.193 1.76377L299.381 5.2587ZM298.069 5.32939L298.257 8.82433C297.635 8.85781 297.003 8.95893 296.357 9.13362L295.444 5.75492L294.53 2.37621C295.634 2.07779 296.752 1.89524 297.88 1.83446L298.069 5.32939ZM295.444 5.75492L296.357 9.13362L295.045 9.48845L294.131 6.10975L293.218 2.73104L294.53 2.37621L295.444 5.75492ZM294.131 6.10975L295.045 9.48845L293.732 9.84328L292.819 6.46458L291.905 3.08587L293.218 2.73104L294.131 6.10975ZM292.819 6.46458L293.732 9.84328C291.717 10.3879 289.811 9.89635 288.245 8.84754L290.194 5.93994L292.142 3.03234C292.265 3.11482 292.279 3.09617 292.192 3.07871C292.15 3.07023 292.097 3.06498 292.039 3.06702C291.982 3.06905 291.935 3.07773 291.905 3.08587L292.819 6.46458ZM290.194 5.93994L288.245 8.84754L286.933 7.96807L288.881 5.06047L290.829 2.15287L292.142 3.03234L290.194 5.93994ZM288.881 5.06047L286.933 7.96807L285.62 7.08861L287.569 4.18101L289.517 1.27341L290.829 2.15287L288.881 5.06047ZM287.569 4.18101L285.62 7.08861C285.664 7.11787 285.934 7.27346 286.365 7.26002C286.786 7.24689 287.016 7.08301 287.012 7.08649L284.944 4.26279L282.876 1.43909C283.746 0.801732 284.851 0.303806 286.147 0.263416C287.454 0.222713 288.598 0.657835 289.517 1.27341L287.569 4.18101ZM284.944 4.26279L287.012 7.08649L285.699 8.04774L283.631 5.22404L281.563 2.40034L282.876 1.43909L284.944 4.26279ZM283.631 5.22404L285.699 8.04774L284.387 9.00899L282.319 6.18529L280.251 3.36159L281.563 2.40034L283.631 5.22404ZM282.319 6.18529L284.387 9.00899C283.034 9.99995 281.406 10.6621 279.575 10.5999L279.694 7.10196L279.812 3.60398C279.792 3.6033 279.799 3.60931 279.852 3.59076C279.913 3.56959 280.046 3.51137 280.251 3.36159L282.319 6.18529ZM279.694 7.10196L279.575 10.5999L278.262 10.5554L278.381 7.05738L278.5 3.5594L279.812 3.60398L279.694 7.10196ZM278.381 7.05738L278.262 10.5554L276.95 10.5108L277.069 7.01281L277.187 3.51482L278.5 3.5594L278.381 7.05738ZM277.069 7.01281L276.95 10.5108C275.73 10.4694 274.53 10.2499 273.359 9.86814L274.444 6.54044L275.528 3.21274C276.107 3.40134 276.657 3.49681 277.187 3.51482L277.069 7.01281ZM274.444 6.54044L273.359 9.86814L272.046 9.44035L273.131 6.11265L274.216 2.78494L275.528 3.21274L274.444 6.54044ZM273.131 6.11265L272.046 9.44035L270.734 9.01256L271.819 5.68486L272.903 2.35715L274.216 2.78494L273.131 6.11265ZM271.819 5.68486L270.734 9.01256C269.92 8.74723 269.107 8.50715 268.297 8.29211L269.194 4.90903L270.091 1.52595C271.03 1.77496 271.967 2.05209 272.903 2.35715L271.819 5.68486ZM269.194 4.90903L268.297 8.29211L266.984 7.94408L267.881 4.561L268.778 1.17792L270.091 1.52595L269.194 4.90903ZM267.881 4.561L266.984 7.94408L265.672 7.59605L266.569 4.21297L267.466 0.829885L268.778 1.17792L267.881 4.561ZM266.569 4.21297L265.672 7.59605C265.082 7.43969 264.511 7.36684 263.953 7.36827L263.944 3.86828L263.935 0.368288C265.126 0.365253 266.305 0.5222 267.466 0.829885L266.569 4.21297ZM263.944 3.86828L263.953 7.36827L262.64 7.37161L262.631 3.87162L262.622 0.371632L263.935 0.368288L263.944 3.86828ZM262.631 3.87162L262.64 7.37161L261.328 7.37495L261.319 3.87496L261.31 0.374976L262.622 0.371632L262.631 3.87162ZM261.319 3.87496L261.328 7.37495C260.398 7.37732 259.469 7.35815 258.54 7.31746L258.694 3.82082L258.847 0.324169C259.668 0.360134 260.489 0.377067 261.31 0.374976L261.319 3.87496ZM258.694 3.82082L258.54 7.31746L257.228 7.25997L257.381 3.76333L257.534 0.266678L258.847 0.324169L258.694 3.82082ZM257.381 3.76333L257.228 7.25997L255.915 7.20248L256.069 3.70583L256.222 0.209187L257.534 0.266678L257.381 3.76333ZM256.069 3.70583L255.915 7.20248C255.871 7.20052 255.689 7.19553 255.305 7.43659L253.444 4.47246L251.582 1.50833C252.949 0.650568 254.517 0.134493 256.222 0.209187L256.069 3.70583ZM253.444 4.47246L255.305 7.43659L253.992 8.2607L252.131 5.29657L250.27 2.33244L251.582 1.50833L253.444 4.47246ZM252.131 5.29657L253.992 8.2607L252.68 9.08481L250.819 6.12069L248.957 3.15656L250.27 2.33244L252.131 5.29657ZM250.819 6.12069L252.68 9.08481C251.139 10.0525 249.311 10.4958 247.385 10.0383L248.194 6.63302L249.003 3.22778C248.987 3.2241 248.96 3.21945 248.924 3.2187C248.888 3.21795 248.857 3.22138 248.836 3.22564C248.814 3.22977 248.812 3.23265 248.83 3.22511C248.849 3.21727 248.892 3.19776 248.957 3.15656L250.819 6.12069ZM248.194 6.63302L247.385 10.0383L246.072 9.72648L246.881 6.32124L247.69 2.916L249.003 3.22778L248.194 6.63302ZM246.881 6.32124L246.072 9.72648L244.76 9.4147L245.569 6.00946L246.378 2.60422L247.69 2.916L246.881 6.32124ZM245.569 6.00946L244.76 9.4147C244.312 9.30829 243.887 9.29171 243.461 9.35536L242.944 5.89378L242.426 2.43221C243.75 2.23438 245.075 2.29492 246.378 2.60422L245.569 6.00946ZM242.944 5.89378L243.461 9.35536L242.148 9.55146L241.631 6.08989L241.114 2.62831L242.426 2.43221L242.944 5.89378ZM241.631 6.08989L242.148 9.55146L240.836 9.74757L240.319 6.28599L239.801 2.82442L241.114 2.62831L241.631 6.08989ZM240.319 6.28599L240.836 9.74757C239.544 9.94053 238.25 9.89956 236.972 9.6301L237.694 6.20538L238.416 2.78067C238.888 2.88016 239.343 2.89293 239.801 2.82442L240.319 6.28599ZM237.694 6.20538L236.972 9.6301L235.659 9.35339L236.381 5.92867L237.103 2.50396L238.416 2.78067L237.694 6.20538ZM236.381 5.92867L235.659 9.35339L234.347 9.07667L235.069 5.65196L235.791 2.22724L237.103 2.50396L236.381 5.92867ZM235.069 5.65196L234.347 9.07667C233.811 8.96376 233.291 8.93492 232.773 8.98385L232.444 5.49941L232.114 2.01497C233.347 1.89835 234.576 1.97121 235.791 2.22724L235.069 5.65196ZM232.444 5.49941L232.773 8.98385L231.461 9.10802L231.131 5.62357L230.801 2.13913L232.114 2.01497L232.444 5.49941ZM231.131 5.62357L231.461 9.10802L230.148 9.23218L229.819 5.74774L229.489 2.26329L230.801 2.13913L231.131 5.62357ZM229.819 5.74774L230.148 9.23218C228.642 9.37471 227.18 9.11164 225.813 8.5245L227.194 5.30839L228.574 2.09228C228.957 2.25649 229.246 2.28631 229.489 2.26329L229.819 5.74774ZM227.194 5.30839L225.813 8.5245L224.5 7.96099L225.881 4.74488L227.262 1.52877L228.574 2.09228L227.194 5.30839ZM225.881 4.74488L224.5 7.96099L223.188 7.39748L224.569 4.18137L225.949 0.965256L227.262 1.52877L225.881 4.74488ZM224.569 4.18137L223.188 7.39748C223.222 7.41223 223.29 7.43641 223.388 7.45116C223.486 7.46615 223.592 7.46773 223.694 7.45485C223.906 7.42812 223.985 7.35644 223.914 7.40455L221.944 4.51219L219.973 1.61982C221.705 0.43948 223.837 0.058249 225.949 0.965256L224.569 4.18137ZM221.944 4.51219L223.914 7.40455L222.602 8.29888L220.631 5.40652L218.66 2.51416L219.973 1.61982L221.944 4.51219ZM220.631 5.40652L222.602 8.29888L221.289 9.19322L219.319 6.30085L217.348 3.40849L218.66 2.51416L220.631 5.40652ZM219.319 6.30085L221.289 9.19322C219.467 10.435 217.239 10.7276 215.119 9.65966L216.694 6.53394L218.268 3.40822C218.193 3.37013 217.982 3.2947 217.697 3.32001C217.428 3.34388 217.303 3.43891 217.348 3.40849L219.319 6.30085ZM216.694 6.53394L215.119 9.65966L213.806 8.99841L215.381 5.87269L216.956 2.74697L218.268 3.40822L216.694 6.53394ZM215.381 5.87269L213.806 8.99841L212.494 8.33716L214.069 5.21144L215.643 2.08572L216.956 2.74697L215.381 5.87269ZM214.069 5.21144L212.494 8.33716C212.223 8.20093 212.115 8.22171 212.063 8.231L211.444 4.7863L210.824 1.34159C212.522 1.03608 214.164 1.34028 215.643 2.08572L214.069 5.21144ZM211.444 4.7863L212.063 8.231L210.751 8.46711L210.131 5.0224L209.511 1.5777L210.824 1.34159L211.444 4.7863ZM210.131 5.0224L210.751 8.46711L209.438 8.70322L208.819 5.25851L208.199 1.8138L209.511 1.5777L210.131 5.0224ZM208.819 5.25851L209.438 8.70322C208.432 8.88429 207.422 9.00651 206.41 9.06913L206.194 5.57581L205.977 2.08249C206.715 2.03685 207.456 1.94754 208.199 1.8138L208.819 5.25851ZM206.194 5.57581L206.41 9.06913L205.097 9.15033L204.881 5.65701L204.665 2.16368L205.977 2.08249L206.194 5.57581ZM204.881 5.65701L205.097 9.15033L203.785 9.23152L203.569 5.7382L203.352 2.24488L204.665 2.16368L204.881 5.65701ZM203.569 5.7382L203.785 9.23152C202.331 9.32143 200.922 9.05526 199.593 8.49972L200.944 5.27062L202.294 2.04151C202.715 2.21768 203.056 2.26323 203.352 2.24488L203.569 5.7382ZM200.944 5.27062L199.593 8.49972L198.281 7.95095L199.631 4.72184L200.981 1.49274L202.294 2.04151L200.944 5.27062ZM199.631 4.72184L198.281 7.95095L196.968 7.40217L198.319 4.17306L199.669 0.943958L200.981 1.49274L199.631 4.72184ZM198.319 4.17306L196.968 7.40217C196.924 7.38363 196.896 7.3761 196.883 7.37319C196.871 7.37038 196.868 7.37073 196.872 7.37086C196.875 7.37101 196.877 7.37058 196.874 7.37108C196.87 7.37163 196.854 7.37431 196.824 7.38461L195.694 4.07216L194.563 0.759698C196.27 0.177239 198.027 0.257624 199.669 0.943958L198.319 4.17306ZM195.694 4.07216L196.824 7.38461L195.511 7.83248L194.381 4.52003L193.251 1.20757L194.563 0.759698L195.694 4.07216ZM194.381 4.52003L195.511 7.83248L194.199 8.28035L193.069 4.96789L191.938 1.65544L193.251 1.20757L194.381 4.52003ZM193.069 4.96789L194.199 8.28035C193.036 8.67707 191.845 8.91605 190.631 8.98117L190.444 5.48619L190.256 1.99122C190.793 1.96243 191.351 1.85588 191.938 1.65544L193.069 4.96789ZM190.444 5.48619L190.631 8.98117L189.319 9.0516L189.131 5.55663L188.944 2.06165L190.256 1.99122L190.444 5.48619ZM189.131 5.55663L189.319 9.0516L188.006 9.12203L187.819 5.62706L187.631 2.13208L188.944 2.06165L189.131 5.55663ZM187.819 5.62706L188.006 9.12203C187.445 9.15211 186.867 9.25773 186.264 9.45138L185.194 6.11905L184.123 2.78672C185.27 2.41828 186.442 2.1959 187.631 2.13208L187.819 5.62706ZM185.194 6.11905L186.264 9.45138L184.951 9.87294L183.881 6.54061L182.811 3.20828L184.123 2.78672L185.194 6.11905ZM183.881 6.54061L184.951 9.87294L183.639 10.2945L182.569 6.96217L181.498 3.62984L182.811 3.20828L183.881 6.54061ZM182.569 6.96217L183.639 10.2945C181.781 10.8913 179.924 10.6414 178.287 9.76178L179.944 6.67859L181.6 3.59539C181.648 3.62088 181.672 3.62904 181.675 3.62982C181.676 3.63035 181.661 3.62544 181.632 3.62231C181.603 3.61913 181.571 3.6191 181.541 3.62225C181.512 3.62535 181.497 3.63028 181.498 3.62984L182.569 6.96217ZM179.944 6.67859L178.287 9.76178L176.975 9.05663L178.631 5.97344L180.288 2.89024L181.6 3.59539L179.944 6.67859ZM178.631 5.97344L176.975 9.05663L175.662 8.35148L177.319 5.26828L178.975 2.18509L180.288 2.89024L178.631 5.97344ZM177.319 5.26828L175.662 8.35148C175.269 8.14003 175.017 8.11282 174.856 8.1203L174.694 4.62407L174.531 1.12784C176.12 1.05407 177.619 1.45634 178.975 2.18509L177.319 5.26828ZM174.694 4.62407L174.856 8.1203L173.543 8.18124L173.381 4.68501L173.219 1.18877L174.531 1.12784L174.694 4.62407ZM173.381 4.68501L173.543 8.18124L172.231 8.24218L172.069 4.74594L171.906 1.24971L173.219 1.18877L173.381 4.68501ZM172.069 4.74594L172.231 8.24218C171.597 8.2716 170.955 8.36653 170.3 8.53172L169.444 5.13812L168.587 1.74453C169.683 1.46806 170.79 1.30153 171.906 1.24971L172.069 4.74594ZM169.444 5.13812L170.3 8.53172L168.988 8.86296L168.131 5.46937L167.275 2.07578L168.587 1.74453L169.444 5.13812ZM168.131 5.46937L168.988 8.86296L167.675 9.1942L166.819 5.80061L165.962 2.40702L167.275 2.07578L168.131 5.46937ZM166.819 5.80061L167.675 9.1942C166.676 9.44625 165.673 9.64143 164.666 9.77868L164.194 6.31074L163.721 2.8428C164.464 2.74154 165.211 2.59663 165.962 2.40702L166.819 5.80061ZM164.194 6.31074L164.666 9.77868L163.354 9.95757L162.881 6.48963L162.408 3.02169L163.721 2.8428L164.194 6.31074ZM162.881 6.48963L163.354 9.95757L162.041 10.1365L161.569 6.66851L161.096 3.20057L162.408 3.02169L162.881 6.48963ZM161.569 6.66851L162.041 10.1365C160.904 10.2915 159.762 10.3166 158.621 10.211L158.944 6.7259L159.266 3.2408C159.875 3.29716 160.483 3.28409 161.096 3.20057L161.569 6.66851ZM158.944 6.7259L158.621 10.211L157.308 10.0895L157.631 6.6044L157.954 3.1193L159.266 3.2408L158.944 6.7259ZM157.631 6.6044L157.308 10.0895L155.996 9.968L156.319 6.4829L156.641 2.9978L157.954 3.1193L157.631 6.6044ZM156.319 6.4829L155.996 9.968C154.913 9.86771 153.838 9.67062 152.773 9.3805L153.694 6.00367L154.614 2.62685C155.299 2.8137 155.975 2.93609 156.641 2.9978L156.319 6.4829ZM153.694 6.00367L152.773 9.3805L151.461 9.02277L152.381 5.64595L153.301 2.26912L154.614 2.62685L153.694 6.00367ZM152.381 5.64595L151.461 9.02277L150.148 8.66504L151.069 5.28822L151.989 1.9114L153.301 2.26912L152.381 5.64595ZM151.069 5.28822L150.148 8.66504C149.442 8.4725 148.744 8.33886 148.053 8.26134L148.444 4.78318L148.834 1.30502C149.893 1.42391 150.945 1.62696 151.989 1.9114L151.069 5.28822ZM148.444 4.78318L148.053 8.26134L146.741 8.11402L147.131 4.63586L147.521 1.1577L148.834 1.30502L148.444 4.78318ZM147.131 4.63586L146.741 8.11402L145.428 7.96671L145.819 4.48855L146.209 1.01039L147.521 1.1577L147.131 4.63586ZM145.819 4.48855L145.428 7.96671C144.557 7.86892 143.686 7.77257 142.815 7.67766L143.194 4.19825L143.573 0.718833C144.451 0.814567 145.33 0.911751 146.209 1.01039L145.819 4.48855ZM143.194 4.19825L142.815 7.67766L141.502 7.53468L141.881 4.05527L142.26 0.575851L143.573 0.718833L143.194 4.19825ZM141.881 4.05527L141.502 7.53468L140.19 7.3917L140.569 3.91228L140.948 0.432868L142.26 0.575851L141.881 4.05527ZM140.569 3.91228L140.19 7.3917C140.178 7.39043 140.16 7.38882 140.117 7.39981C140.068 7.4123 139.956 7.44913 139.78 7.55778L137.944 4.57829L136.107 1.59879C137.529 0.722548 139.174 0.239646 140.948 0.432868L140.569 3.91228ZM137.944 4.57829L139.78 7.55778L138.468 8.36677L136.631 5.38727L134.795 2.40778L136.107 1.59879L137.944 4.57829ZM136.631 5.38727L138.468 8.36677L137.155 9.17575L135.319 6.19626L133.482 3.21677L134.795 2.40778L136.631 5.38727ZM135.319 6.19626L137.155 9.17575C136.261 9.72691 135.192 10.1023 133.996 10.0988C132.8 10.0954 131.735 9.71421 130.845 9.16043L132.694 6.18865L134.543 3.21688C134.527 3.20749 134.337 3.09979 134.016 3.09887C133.695 3.09793 133.501 3.20493 133.482 3.21677L135.319 6.19626ZM132.694 6.18865L130.845 9.16043L129.532 8.34384L131.381 5.37206L133.23 2.40029L134.543 3.21688L132.694 6.18865ZM131.381 5.37206L129.532 8.34384L128.22 7.52725L130.069 4.55547L131.918 1.5837L133.23 2.40029L131.381 5.37206ZM130.069 4.55547L128.22 7.52725C128.065 7.43096 127.987 7.4128 127.982 7.41159C127.978 7.41079 127.985 7.41242 127.998 7.41281C128.011 7.41319 128.021 7.41202 128.025 7.41136L127.444 3.96L126.862 0.508633C128.712 0.196917 130.442 0.665714 131.918 1.5837L130.069 4.55547ZM127.444 3.96L128.025 7.41136L126.713 7.63248L126.131 4.18111L125.55 0.729751L126.862 0.508633L127.444 3.96ZM126.131 4.18111L126.713 7.63248L125.4 7.8536L124.819 4.40223L124.237 0.950869L125.55 0.729751L126.131 4.18111ZM124.819 4.40223L125.4 7.8536C124.31 8.03724 123.214 8.11766 122.115 8.09289L122.194 4.59378L122.272 1.09467C122.923 1.10933 123.577 1.06205 124.237 0.950869L124.819 4.40223ZM122.194 4.59378L122.115 8.09289L120.802 8.06332L120.881 4.56421L120.96 1.0651L122.272 1.09467L122.194 4.59378ZM120.881 4.56421L120.802 8.06332L119.49 8.03375L119.569 4.53464L119.647 1.03553L120.96 1.0651L120.881 4.56421ZM119.569 4.53464L119.49 8.03375C118.885 8.02013 118.275 8.07556 117.654 8.20428L116.944 4.77714L116.233 1.35C117.362 1.11596 118.502 1.00972 119.647 1.03553L119.569 4.53464ZM116.944 4.77714L117.654 8.20428L116.342 8.47636L115.631 5.04922L114.921 1.62208L116.233 1.35L116.944 4.77714ZM115.631 5.04922L116.342 8.47636L115.029 8.74843L114.319 5.32129L113.608 1.89415L114.921 1.62208L115.631 5.04922ZM114.319 5.32129L115.029 8.74843C113.736 9.01657 112.426 9.04501 111.123 8.82962L111.694 5.37646L112.264 1.9233C112.711 1.99712 113.152 1.98878 113.608 1.89415L114.319 5.32129ZM111.694 5.37646L111.123 8.82962L109.81 8.61271L110.381 5.15955L110.952 1.70639L112.264 1.9233L111.694 5.37646ZM110.381 5.15955L109.81 8.61271L108.498 8.39581L109.069 4.94264L109.639 1.48948L110.952 1.70639L110.381 5.15955ZM109.069 4.94264L108.498 8.39581C108.149 8.33821 107.799 8.35491 107.41 8.46674L106.444 5.10283L105.477 1.73891C106.838 1.34796 108.238 1.25787 109.639 1.48948L109.069 4.94264ZM106.444 5.10283L107.41 8.46674L106.098 8.84383L105.131 5.47992L104.165 2.11601L105.477 1.73891L106.444 5.10283ZM105.131 5.47992L106.098 8.84383L104.785 9.22093L103.819 5.85701L102.852 2.4931L104.165 2.11601L105.131 5.47992ZM103.819 5.85701L104.785 9.22093C103.374 9.62635 101.922 9.68763 100.48 9.38712L101.194 5.96068L101.907 2.53424C102.215 2.59829 102.513 2.59046 102.852 2.4931L103.819 5.85701ZM101.194 5.96068L100.48 9.38712L99.1673 9.1137L99.8811 5.68726L100.595 2.26082L101.907 2.53424L101.194 5.96068ZM99.8811 5.68726L99.1673 9.1137L97.8548 8.84028L98.5686 5.41384L99.2824 1.9874L100.595 2.26082L99.8811 5.68726ZM98.5686 5.41384L97.8548 8.84028C97.7048 8.80903 97.5399 8.80702 97.2719 8.91696L95.9436 5.67879L94.6153 2.44063C96.0973 1.83273 97.6824 1.65409 99.2824 1.9874L98.5686 5.41384ZM95.9436 5.67879L97.2719 8.91696L95.9594 9.45533L94.6311 6.21717L93.3028 2.97901L94.6153 2.44063L95.9436 5.67879ZM94.6311 6.21717L95.9594 9.45533L94.6469 9.99371L93.3186 6.75555L91.9903 3.51739L93.3028 2.97901L94.6311 6.21717ZM93.3186 6.75555L94.6469 9.99371C92.5872 10.8386 90.5092 10.4951 88.7873 9.37689L90.6936 6.44156L92.5999 3.50623C92.6703 3.55199 92.6051 3.49294 92.4218 3.47101C92.334 3.46052 92.2438 3.46188 92.1591 3.47418C92.0757 3.4863 92.018 3.50603 91.9903 3.51739L93.3186 6.75555ZM90.6936 6.44156L88.7873 9.37689L87.4748 8.52452L89.3811 5.58919L91.2874 2.65387L92.5999 3.50623L90.6936 6.44156ZM89.3811 5.58919L87.4748 8.52452L86.1623 7.67215L88.0686 4.73683L89.9749 1.8015L91.2874 2.65387L89.3811 5.58919ZM88.0686 4.73683L86.1623 7.67215C86.1865 7.68781 86.4089 7.81693 86.7778 7.81464C87.1451 7.81237 87.3604 7.68165 87.3753 7.67178L85.4436 4.75309L83.512 1.8344C84.4019 1.24545 85.4921 0.822475 86.7344 0.814776C87.9783 0.807066 89.0758 1.2176 89.9749 1.8015L88.0686 4.73683ZM85.4436 4.75309L87.3753 7.67178L86.0628 8.54042L84.1311 5.62173L82.1995 2.70304L83.512 1.8344L85.4436 4.75309ZM84.1311 5.62173L86.0628 8.54042L84.7503 9.40906L82.8186 6.49037L80.887 3.57168L82.1995 2.70304L84.1311 5.62173ZM82.8186 6.49037L84.7503 9.40906C83.3628 10.3273 81.7349 10.8837 79.9486 10.7583L80.1936 7.26691L80.4386 3.7755C80.442 3.77574 80.4606 3.77818 80.5133 3.7626C80.5723 3.74513 80.6965 3.69774 80.887 3.57168L82.8186 6.49037ZM80.1936 7.26691L79.9486 10.7583L78.6361 10.6662L78.8811 7.17482L79.1261 3.6834L80.4386 3.7755L80.1936 7.26691ZM78.8811 7.17482L78.6361 10.6662L77.3236 10.5741L77.5686 7.08273L77.8136 3.59131L79.1261 3.6834L78.8811 7.17482ZM77.5686 7.08273L77.3236 10.5741C75.7041 10.4605 74.2388 9.85105 72.9574 8.96787L74.9436 6.08604L76.9298 3.2042C77.3984 3.52715 77.6831 3.58216 77.8136 3.59131L77.5686 7.08273ZM74.9436 6.08604L72.9574 8.96787L71.6449 8.06327L73.6311 5.18144L75.6173 2.2996L76.9298 3.2042L74.9436 6.08604ZM73.6311 5.18144L71.6449 8.06327L70.3324 7.15868L72.3186 4.27684L74.3048 1.39501L75.6173 2.2996L73.6311 5.18144ZM72.3186 4.27684L70.3324 7.15868C70.1553 7.03658 70.0575 7.00475 70.0381 6.99917C70.0284 6.99637 70.032 6.99825 70.0463 6.99949C70.0608 7.00075 70.0761 7.00046 70.0888 6.99902L69.6936 3.5214L69.2984 0.0437851C71.1786 -0.169883 72.8846 0.416143 74.3048 1.39501L72.3186 4.27684ZM69.6936 3.5214L70.0888 6.99902L68.7763 7.14817L68.3811 3.67056L67.9859 0.192942L69.2984 0.0437851L69.6936 3.5214ZM68.3811 3.67056L68.7763 7.14817L67.4638 7.29733L67.0686 3.81971L66.6734 0.342098L67.9859 0.192942L68.3811 3.67056ZM67.0686 3.81971L67.4638 7.29733C66.7743 7.37568 66.0775 7.51048 65.372 7.70457L64.4436 4.32994L63.5152 0.955307C64.5597 0.667974 65.6129 0.462618 66.6734 0.342098L67.0686 3.81971ZM64.4436 4.32994L65.372 7.70457L64.0595 8.06564L63.1311 4.69101L62.2027 1.31638L63.5152 0.955307L64.4436 4.32994ZM63.1311 4.69101L64.0595 8.06564L62.747 8.42671L61.8186 5.05208L60.8902 1.67745L62.2027 1.31638L63.1311 4.69101ZM61.8186 5.05208L62.747 8.42671C61.9459 8.64707 61.1428 8.89633 60.3375 9.17482L59.1936 5.86702L58.0498 2.55921C58.9944 2.23254 59.9413 1.93851 60.8902 1.67745L61.8186 5.05208ZM59.1936 5.86702L60.3375 9.17482L59.025 9.62869L57.8811 6.32088L56.7373 3.01308L58.0498 2.55921L59.1936 5.86702ZM57.8811 6.32088L59.025 9.62869L57.7125 10.0826L56.5686 6.77475L55.4248 3.46694L56.7373 3.01308L57.8811 6.32088ZM56.5686 6.77475L57.7125 10.0826C56.1324 10.629 54.4852 10.6559 52.8857 10.1488L53.9436 6.81246L55.0015 3.47615C55.152 3.52387 55.2549 3.52569 55.4248 3.46694L56.5686 6.77475ZM53.9436 6.81246L52.8857 10.1488L51.5732 9.7326L52.6311 6.39629L53.689 3.05999L55.0015 3.47615L53.9436 6.81246ZM52.6311 6.39629L51.5732 9.7326L50.2607 9.31643L51.3186 5.98013L52.3765 2.64383L53.689 3.05999L52.6311 6.39629ZM51.3186 5.98013L50.2607 9.31643C49.7856 9.16579 49.3512 9.1178 48.9358 9.14661L48.6936 5.655L48.4514 2.16339C49.786 2.07083 51.1016 2.23959 52.3765 2.64383L51.3186 5.98013ZM48.6936 5.655L48.9358 9.14661L47.6233 9.23764L47.3811 5.74603L47.1389 2.25442L48.4514 2.16339L48.6936 5.655ZM47.3811 5.74603L47.6233 9.23764L46.3108 9.32867L46.0686 5.83706L45.8264 2.34545L47.1389 2.25442L47.3811 5.74603ZM46.0686 5.83706L46.3108 9.32867C45.2836 9.39991 44.2558 9.40391 43.2284 9.34063L43.4436 5.84725L43.6588 2.35387C44.3814 2.39837 45.1036 2.39558 45.8264 2.34545L46.0686 5.83706ZM43.4436 5.84725L43.2284 9.34063L41.9159 9.25979L42.1311 5.76641L42.3463 2.27303L43.6588 2.35387L43.4436 5.84725ZM42.1311 5.76641L41.9159 9.25979L40.6034 9.17894L40.8186 5.68556L41.0338 2.19218L42.3463 2.27303L42.1311 5.76641ZM40.8186 5.68556L40.6034 9.17894C39.6769 9.12187 38.7505 9.04422 37.8245 8.94602L38.1936 5.46554L38.5627 1.98505C39.3867 2.07243 40.2104 2.14147 41.0338 2.19218L40.8186 5.68556ZM38.1936 5.46554L37.8245 8.94602L36.512 8.80684L36.8811 5.32635L37.2502 1.84587L38.5627 1.98505L38.1936 5.46554ZM36.8811 5.32635L36.512 8.80684L35.1995 8.66765L35.5686 5.18717L35.9377 1.70668L37.2502 1.84587L36.8811 5.32635ZM35.5686 5.18717L35.1995 8.66765C34.6967 8.61433 34.1915 8.63971 33.6705 8.75033L32.9436 5.32664L32.2167 1.90295C33.4457 1.64202 34.6905 1.57443 35.9377 1.70668L35.5686 5.18717ZM32.9436 5.32664L33.6705 8.75033L32.358 9.02898L31.6311 5.60529L30.9042 2.1816L32.2167 1.90295L32.9436 5.32664ZM31.6311 5.60529L32.358 9.02898L31.0455 9.30764L30.3186 5.88395L29.5917 2.46026L30.9042 2.1816L31.6311 5.60529ZM30.3186 5.88395L31.0455 9.30764C29.9665 9.53671 28.8794 9.66721 27.7867 9.69628L27.6936 6.19752L27.6005 2.69876C28.2578 2.68127 28.9207 2.60273 29.5917 2.46026L30.3186 5.88395ZM27.6936 6.19752L27.7867 9.69628L26.4742 9.7312L26.3811 6.23244L26.288 2.73367L27.6005 2.69876L27.6936 6.19752ZM26.3811 6.23244L26.4742 9.7312L25.1617 9.76612L25.0686 6.26735L24.9755 2.76859L26.288 2.73367L26.3811 6.23244ZM25.0686 6.26735L25.1617 9.76612C24.4879 9.78404 23.8095 9.85986 23.1246 9.99572L22.4436 6.5626L21.7627 3.12948C22.8277 2.91823 23.8993 2.79722 24.9755 2.76859L25.0686 6.26735ZM22.4436 6.5626L23.1246 9.99572L21.8121 10.2561L21.1311 6.82293L20.4502 3.38981L21.7627 3.12948L22.4436 6.5626ZM21.1311 6.82293L21.8121 10.2561L20.4996 10.5164L19.8186 7.08326L19.1377 3.65015L20.4502 3.38981L21.1311 6.82293ZM19.8186 7.08326L20.4996 10.5164C18.889 10.8358 17.3011 10.6345 15.8243 10.0066L17.1936 6.78561L18.563 3.56461C18.8362 3.68075 18.9982 3.67781 19.1377 3.65015L19.8186 7.08326ZM17.1936 6.78561L15.8243 10.0066L14.5118 9.44863L15.8811 6.22762L17.2505 3.00662L18.563 3.56461L17.1936 6.78561ZM15.8811 6.22762L14.5118 9.44863L13.1993 8.89064L14.5686 5.66963L15.938 2.44863L17.2505 3.00662L15.8811 6.22762ZM14.5686 5.66963L13.1993 8.89064C13.1648 8.876 13.149 8.87268 13.1503 8.87298C13.1507 8.87306 13.1541 8.87379 13.1602 8.87454C13.1663 8.87528 13.1739 8.87589 13.1826 8.87607C13.1912 8.87625 13.1995 8.87598 13.2071 8.87538C13.2147 8.87477 13.2202 8.87393 13.2233 8.87337C13.2264 8.87281 13.226 8.87272 13.2219 8.87389C13.2177 8.87508 13.209 8.87773 13.1957 8.88283L11.9436 5.61446L10.6915 2.34608C12.4273 1.68113 14.242 1.72762 15.938 2.44863L14.5686 5.66963ZM11.9436 5.61446L13.1957 8.88283L11.8832 9.38564L10.6311 6.11726L9.37902 2.84889L10.6915 2.34608L11.9436 5.61446ZM10.6311 6.11726L11.8832 9.38564L10.5707 9.88845L9.3186 6.62007L8.06652 3.3517L9.37902 2.84889L10.6311 6.11726ZM9.3186 6.62007L10.5707 9.88845C9.19243 10.4164 7.35342 10.7139 5.56133 9.80958L7.1381 6.68487L8.71488 3.56017C8.42299 3.41288 8.16033 3.38485 8.01326 3.38922C7.88894 3.39292 7.89558 3.41718 8.06652 3.3517L9.3186 6.62007ZM7.1381 6.68487L5.56133 9.80958L4.69333 9.37157L6.2701 6.24687L7.84688 3.12216L8.71488 3.56017L7.1381 6.68487ZM6.2701 6.24687L4.69333 9.37157L3.82533 8.93356L5.4021 5.80886L6.97888 2.68416L7.84688 3.12216L6.2701 6.24687ZM5.4021 5.80886L3.82533 8.93356C3.71829 8.87955 3.63334 8.83922 3.56838 8.81005C3.50205 8.78026 3.46806 8.76729 3.46164 8.76492C3.45097 8.76099 3.49971 8.77992 3.5942 8.80249C3.6437 8.81431 3.71877 8.83027 3.81486 8.84375C3.90926 8.85699 4.04504 8.87085 4.2121 8.87085V5.37085V1.87085C4.96231 1.87085 5.59447 2.09085 5.87957 2.19578C6.25089 2.33245 6.62583 2.506 6.97888 2.68416L5.4021 5.80886ZM4.2121 5.37085V8.87085H3.8901V5.37085V1.87085H4.2121V5.37085ZM3.8901 5.37085V8.87085H3.5681V5.37085V1.87085H3.8901V5.37085ZM3.5681 5.37085V8.87085C3.59618 8.87085 3.66031 8.87045 3.74537 8.86531C3.79787 8.86213 4.01249 8.84953 4.284 8.78822C4.40884 8.76004 4.71314 8.6858 5.06928 8.5082C5.31927 8.38354 6.28771 7.87633 6.76593 6.64918C7.36533 5.11106 6.72234 3.82622 6.28618 3.25559C5.90083 2.75143 5.47518 2.48406 5.33961 2.40089C5.01611 2.2024 4.73523 2.10659 4.68832 2.09008C4.5897 2.05537 4.5135 2.03397 4.4814 2.02518C4.41467 2.00689 4.37531 1.99895 4.38919 2.00193C4.45591 2.01625 4.67497 2.05667 5.1182 2.12847L4.55859 5.58344L3.99898 9.03841C3.56722 8.96848 3.18369 8.90261 2.92025 8.84606C2.85159 8.83133 2.74671 8.80788 2.63149 8.77631C2.57515 8.76087 2.47896 8.73338 2.36461 8.69314C2.30196 8.67109 2.00961 8.5703 1.67889 8.36739C1.53971 8.28199 1.11152 8.01256 0.72469 7.50646C0.287051 6.93388 -0.356364 5.64725 0.243685 4.10747C0.722551 2.87866 1.6927 2.36992 1.94547 2.24387C2.30439 2.06489 2.61253 1.98941 2.74227 1.96012C3.02359 1.8966 3.25227 1.88233 3.32309 1.87805C3.42647 1.87181 3.51318 1.87085 3.5681 1.87085V5.37085ZM4.55859 5.58344L5.1182 2.12847L6.4307 2.34105L5.87109 5.79603L5.31148 9.251L3.99898 9.03841L4.55859 5.58344Z" fill="#FFECA1"/>
</svg>
