<svg width="15" height="332" viewBox="0 0 15 332" fill="none" xmlns="http://www.w3.org/2000/svg">
<path d="M9.06175 31.8167L4.75642 30.5074L9.06175 31.8167ZM8.76849 55.4417L4.29559 54.9485L8.76849 55.4417ZM7.80153 58.8167L11.8854 60.7065L7.80153 58.8167ZM6.2397 62.1917L2.15579 60.3018L6.2397 62.1917ZM7.62774 67.2542L3.84209 69.687L7.62774 67.2542ZM8.74827 75.6917L4.34177 74.7791L8.74827 75.6917ZM9.69368 82.4417L5.33404 83.5568L9.69368 82.4417ZM9.31986 85.8167L5.25875 83.8783L9.31986 85.8167ZM9.84963 109.442L5.47678 110.504L9.84963 109.442ZM7.8324 148.254L4.1907 150.898L7.8324 148.254ZM9.93753 153.317L5.5286 152.416L9.93753 153.317ZM8.66524 170.192L4.17474 170.484L8.66524 170.192ZM9.0953 274.817L5.18826 272.584L9.0953 274.817ZM8.13096 276.504L12.038 278.737L8.13096 276.504ZM6.57403 281.567L2.1794 282.535L6.57403 281.567ZM7.72448 288.317L3.22546 288.411L7.72448 288.317ZM5.85587 271.067L1.39678 271.672L5.85587 271.067ZM4.89546 257.567L0.397 257.449L4.89546 257.567ZM7.99182 237.317L3.51185 237.741L7.99182 237.317ZM8.55542 196.817L4.06738 196.489L8.55542 196.817ZM7.70073 171.504L3.61195 173.383L7.70073 171.504ZM6.9251 169.817L11.0139 167.937L6.9251 169.817ZM4.88534 159.692L0.455254 158.902L4.88534 159.692ZM7.72673 125.942L3.47292 127.41L7.72673 125.942ZM5.22102 85.4417L1.59055 82.7828L5.22102 85.4417ZM8.75676 75.3166L4.25935 75.4694L8.75676 75.3166ZM5.15696 61.8167L0.807287 62.9701L5.15696 61.8167ZM4.72239 55.0666L0.222403 55.0552L4.72239 55.0666ZM4.65277 51.6916L0.157081 51.8886L4.65277 51.6916ZM7.15614 5.56665L2.92764 7.10606L7.15614 5.56665ZM7.67947 7.00415L3.45097 8.54356L3.9743 9.98106L8.2028 8.44165L12.4313 6.90225L11.908 5.46475L7.67947 7.00415ZM8.2028 8.44165L3.9743 9.98106C3.95757 9.9351 3.94367 9.88185 3.93546 9.82557C3.92729 9.76956 3.92676 9.72436 3.92836 9.69517C3.93161 9.63596 3.94091 9.68182 3.87023 9.85348L8.03137 11.5667L12.1925 13.2798C12.9958 11.3287 13.2359 9.11229 12.4313 6.90225L8.2028 8.44165ZM8.03137 11.5667L3.87023 9.85348L3.17548 11.541L7.33661 13.2542L11.4977 14.9673L12.1925 13.2798L8.03137 11.5667ZM7.33661 13.2542L3.17548 11.541L2.48072 13.2285L6.64186 14.9417L10.803 16.6548L11.4977 14.9673L7.33661 13.2542ZM6.64186 14.9417L2.48072 13.2285C1.58739 15.3983 1.54288 17.7071 2.38126 19.9145L6.58804 18.3167L10.7948 16.7188C10.7805 16.681 10.7779 16.6647 10.7784 16.6674C10.779 16.6708 10.7807 16.6833 10.7805 16.7009C10.7802 16.7184 10.7781 16.7282 10.7785 16.7263C10.779 16.7238 10.7841 16.7006 10.803 16.6548L6.64186 14.9417ZM6.58804 18.3167L2.38126 19.9145L3.02221 21.602L7.22899 20.0042L11.4358 18.4063L10.7948 16.7188L6.58804 18.3167ZM7.22899 20.0042L3.02221 21.602L3.66315 23.2895L7.86993 21.6917L12.0767 20.0938L11.4358 18.4063L7.22899 20.0042ZM7.86993 21.6917L3.66315 23.2895C3.98649 24.1408 4.20539 24.9656 4.33177 25.7674L8.77688 25.0667L13.222 24.3659C12.9937 22.9177 12.608 21.4925 12.0767 20.0938L7.86993 21.6917ZM8.77688 25.0667L4.33177 25.7674L4.59779 27.4549L9.0429 26.7542L13.488 26.0534L13.222 24.3659L8.77688 25.0667ZM9.0429 26.7542L4.59779 27.4549L4.8638 29.1424L9.30891 28.4417L13.754 27.7409L13.488 26.0534L9.0429 26.7542ZM9.30891 28.4417L4.8638 29.1424C4.93173 29.5733 4.90725 30.0114 4.75642 30.5074L9.06175 31.8167L13.3671 33.1259C13.9005 31.3719 14.0408 29.56 13.754 27.7409L9.30891 28.4417ZM9.06175 31.8167L4.75642 30.5074L4.24325 32.1949L8.54858 33.5042L12.8539 34.8134L13.3671 33.1259L9.06175 31.8167ZM8.54858 33.5042L4.24325 32.1949L3.73008 33.8824L8.03541 35.1917L12.3407 36.5009L12.8539 34.8134L8.54858 33.5042ZM8.03541 35.1917L3.73008 33.8824C3.2704 35.394 3.02102 36.9389 2.99984 38.5058L7.49942 38.5667L11.999 38.6275C12.0082 37.9444 12.1162 37.2393 12.3407 36.5009L8.03541 35.1917ZM7.49942 38.5667L2.99984 38.5058L2.97703 40.1933L7.47662 40.2542L11.9762 40.315L11.999 38.6275L7.49942 38.5667ZM7.47662 40.2542L2.97703 40.1933L2.95422 41.8808L7.45381 41.9417L11.9534 42.0025L11.9762 40.315L7.47662 40.2542ZM7.45381 41.9417L2.95422 41.8808C2.93295 43.4539 3.14438 45.0089 3.5725 46.5333L7.9049 45.3167L12.2373 44.1C12.0336 43.3744 11.9442 42.6794 11.9534 42.0025L7.45381 41.9417ZM7.9049 45.3167L3.5725 46.5333L4.04641 48.2208L8.37881 47.0042L12.7112 45.7875L12.2373 44.1L7.9049 45.3167ZM8.37881 47.0042L4.04641 48.2208L4.52031 49.9083L8.85271 48.6917L13.1851 47.475L12.7112 45.7875L8.37881 47.0042ZM8.85271 48.6917L4.52031 49.9083C4.68537 50.4961 4.7264 51.0409 4.66768 51.5735L9.14058 52.0667L13.6135 52.5598C13.8028 50.8424 13.6519 49.1372 13.1851 47.475L8.85271 48.6917ZM9.14058 52.0667L4.66768 51.5735L4.48164 53.261L8.95453 53.7542L13.4274 54.2473L13.6135 52.5598L9.14058 52.0667ZM8.95453 53.7542L4.48164 53.261L4.29559 54.9485L8.76849 55.4417L13.2414 55.9348L13.4274 54.2473L8.95453 53.7542ZM8.76849 55.4417L4.29559 54.9485C4.22971 55.5462 4.0533 56.2014 3.71763 56.9268L7.80153 58.8167L11.8854 60.7065C12.591 59.1819 13.0592 57.5872 13.2414 55.9348L8.76849 55.4417ZM7.80153 58.8167L3.71763 56.9268L2.93671 58.6143L7.02062 60.5042L11.1045 62.394L11.8854 60.7065L7.80153 58.8167ZM7.02062 60.5042L2.93671 58.6143L2.15579 60.3018L6.2397 62.1917L10.3236 64.0815L11.1045 62.394L7.02062 60.5042ZM6.2397 62.1917L2.15579 60.3018C0.92995 62.9507 1.28084 65.7016 2.75761 67.9995L6.54326 65.5667L10.3289 63.1338C10.2878 63.0699 10.3817 63.1939 10.407 63.476C10.4339 63.7747 10.3615 63.9996 10.3236 64.0815L6.2397 62.1917ZM6.54326 65.5667L2.75761 67.9995L3.84209 69.687L7.62774 67.2542L11.4134 64.8213L10.3289 63.1338L6.54326 65.5667ZM7.62774 67.2542L3.84209 69.687L4.92657 71.3745L8.71222 68.9417L12.4979 66.5088L11.4134 64.8213L7.62774 67.2542ZM8.71222 68.9417L4.92657 71.3745C5.04402 71.5573 5.04977 71.6257 5.04127 71.5867C5.03729 71.5684 5.03262 71.5369 5.0324 71.4969C5.03219 71.4569 5.03653 71.4244 5.04073 71.4041L9.44722 72.3167L13.8537 73.2292C14.3647 70.7619 13.7452 68.4497 12.4979 66.5088L8.71222 68.9417ZM9.44722 72.3167L5.04073 71.4041L4.69125 73.0916L9.09774 74.0042L13.5042 74.9167L13.8537 73.2292L9.44722 72.3167ZM9.09774 74.0042L4.69125 73.0916L4.34177 74.7791L8.74827 75.6917L13.1548 76.6042L13.5042 74.9167L9.09774 74.0042ZM8.74827 75.6917L4.34177 74.7791C3.96836 76.5822 4.0152 78.4006 4.47078 80.1818L8.83042 79.0667L13.1901 77.9515C13.0701 77.4827 13.0622 77.0511 13.1548 76.6042L8.74827 75.6917ZM8.83042 79.0667L4.47078 80.1818L4.90241 81.8693L9.26205 80.7542L13.6217 79.639L13.1901 77.9515L8.83042 79.0667ZM9.26205 80.7542L4.90241 81.8693L5.33404 83.5568L9.69368 82.4417L14.0533 81.3265L13.6217 79.639L9.26205 80.7542ZM9.69368 82.4417L5.33404 83.5568C5.34171 83.5868 5.34346 83.6038 5.34397 83.6108C5.34446 83.6176 5.34446 83.6241 5.3434 83.6338C5.34188 83.6475 5.33215 83.7245 5.25875 83.8783L9.31986 85.8167L13.381 87.755C14.3361 85.754 14.6223 83.551 14.0533 81.3265L9.69368 82.4417ZM9.31986 85.8167L5.25875 83.8783L4.45329 85.5658L8.5144 87.5042L12.5755 89.4426L13.381 87.755L9.31986 85.8167ZM8.5144 87.5042L4.45329 85.5658L3.64784 87.2533L7.70895 89.1917L11.7701 91.1301L12.5755 89.4426L8.5144 87.5042ZM7.70895 89.1917L3.64784 87.2533C2.77647 89.0789 2.39133 91.0718 2.65656 93.1393L7.11998 92.5667L11.5834 91.994C11.56 91.8115 11.5675 91.5545 11.7701 91.1301L7.70895 89.1917ZM7.11998 92.5667L2.65656 93.1393L2.87305 94.8268L7.33647 94.2542L11.7999 93.6815L11.5834 91.994L7.11998 92.5667ZM7.33647 94.2542L2.87305 94.8268L3.08954 96.5143L7.55296 95.9417L12.0164 95.369L11.7999 93.6815L7.33647 94.2542ZM7.55296 95.9417L3.08954 96.5143C3.23343 97.6359 3.37604 98.7575 3.51736 99.8792L7.98207 99.3167L12.4468 98.7541C12.3046 97.6258 12.1611 96.4974 12.0164 95.369L7.55296 95.9417ZM7.98207 99.3167L3.51736 99.8792L3.72998 101.567L8.19468 101.004L12.6594 100.442L12.4468 98.7541L7.98207 99.3167ZM8.19468 101.004L3.72998 101.567L3.9426 103.254L8.4073 102.692L12.872 102.129L12.6594 100.442L8.19468 101.004ZM8.4073 102.692L3.9426 103.254C4.10597 104.551 4.34455 105.843 4.65698 107.129L9.02982 106.067L13.4027 105.004C13.1686 104.041 12.9921 103.082 12.872 102.129L8.4073 102.692ZM9.02982 106.067L4.65698 107.129L5.06688 108.816L9.43972 107.754L13.8126 106.692L13.4027 105.004L9.02982 106.067ZM9.43972 107.754L5.06688 108.816L5.47678 110.504L9.84963 109.442L14.2225 108.379L13.8126 106.692L9.43972 107.754ZM9.84963 109.442L5.47678 110.504C5.46628 110.461 5.45687 110.4 5.4562 110.327C5.45552 110.254 5.46381 110.191 5.47443 110.144C5.4961 110.047 5.51157 110.083 5.39137 110.257L9.09229 112.817L12.7932 115.377C14.1565 113.406 14.8544 110.981 14.2225 108.379L9.84963 109.442ZM9.09229 112.817L5.39137 110.257L4.22413 111.944L7.92505 114.504L11.626 117.064L12.7932 115.377L9.09229 112.817ZM7.92505 114.504L4.22413 111.944L3.05689 113.632L6.75781 116.192L10.4587 118.752L11.626 117.064L7.92505 114.504ZM6.75781 116.192L3.05689 113.632C2.26315 114.779 1.67628 116.213 1.67204 117.868C1.66779 119.523 2.248 120.961 3.03934 122.114L6.74915 119.567L10.459 117.02C10.4779 117.047 10.6734 117.361 10.672 117.891C10.6706 118.42 10.4743 118.729 10.4587 118.752L6.75781 116.192ZM6.74915 119.567L3.03934 122.114L4.19792 123.801L7.90772 121.254L11.6175 118.707L10.459 117.02L6.74915 119.567ZM7.90772 121.254L4.19792 123.801L5.35649 125.489L9.0663 122.942L12.7761 120.395L11.6175 118.707L7.90772 121.254ZM9.0663 122.942L5.35649 125.489C5.43809 125.608 5.36977 125.551 5.33545 125.335C5.31879 125.231 5.31516 125.117 5.32703 125.003C5.33876 124.892 5.36271 124.808 5.38053 124.76L9.60266 126.317L13.8248 127.873C14.8203 125.174 14.2432 122.531 12.7761 120.395L9.0663 122.942ZM9.60266 126.317L5.38053 124.76L4.75831 126.447L8.98043 128.004L13.2026 129.561L13.8248 127.873L9.60266 126.317ZM8.98043 128.004L4.75831 126.447L4.13608 128.135L8.35821 129.692L12.5803 131.248L13.2026 129.561L8.98043 128.004ZM8.35821 129.692L4.13608 128.135C3.44117 130.019 3.26905 132.006 3.68966 133.997L8.09248 133.067L12.4953 132.137C12.4406 131.877 12.4456 131.614 12.5803 131.248L8.35821 129.692ZM8.09248 133.067L3.68966 133.997L4.04616 135.684L8.44898 134.754L12.8518 133.824L12.4953 132.137L8.09248 133.067ZM8.44898 134.754L4.04616 135.684L4.40265 137.372L8.80548 136.442L13.2083 135.512L12.8518 133.824L8.44898 134.754ZM8.80548 136.442L4.40265 137.372C4.40449 137.38 4.40334 137.378 4.40316 137.368C4.40298 137.359 4.404 137.353 4.40349 137.356C4.40315 137.358 4.38916 137.442 4.2907 137.618L8.21711 139.817L12.1435 142.015C13.2366 140.063 13.6988 137.834 13.2083 135.512L8.80548 136.442ZM8.21711 139.817L4.2907 137.618L3.34583 139.306L7.27224 141.504L11.1987 143.703L12.1435 142.015L8.21711 139.817ZM7.27224 141.504L3.34583 139.306L2.40096 140.993L6.32737 143.192L10.2538 145.39L11.1987 143.703L7.27224 141.504ZM6.32737 143.192L2.40096 140.993C1.71228 142.223 1.30939 143.673 1.44038 145.251C1.56926 146.804 2.18568 148.135 2.96575 149.21L6.60745 146.567L10.2492 143.923C10.2126 143.873 10.374 144.079 10.4095 144.507C10.4472 144.96 10.3126 145.285 10.2538 145.39L6.32737 143.192ZM6.60745 146.567L2.96575 149.21L4.1907 150.898L7.8324 148.254L11.4741 145.611L10.2492 143.923L6.60745 146.567ZM7.8324 148.254L4.1907 150.898L5.41564 152.585L9.05734 149.942L12.699 147.298L11.4741 145.611L7.8324 148.254ZM9.05734 149.942L5.41564 152.585C5.55748 152.781 5.55507 152.84 5.53551 152.765C5.52573 152.727 5.51559 152.67 5.5136 152.6C5.5116 152.529 5.5184 152.466 5.5286 152.416L9.93753 153.317L14.3465 154.217C14.8813 151.599 14.0881 149.212 12.699 147.298L9.05734 149.942ZM9.93753 153.317L5.5286 152.416L5.18385 154.103L9.59278 155.004L14.0017 155.905L14.3465 154.217L9.93753 153.317ZM9.59278 155.004L5.18385 154.103L4.83909 155.791L9.24802 156.692L13.657 157.592L14.0017 155.905L9.59278 155.004ZM9.24802 156.692L4.83909 155.791C4.57452 157.086 4.38684 158.386 4.27723 159.69L8.76141 160.067L13.2456 160.444C13.3251 159.497 13.4619 158.547 13.657 157.592L9.24802 156.692ZM8.76141 160.067L4.27723 159.69L4.13538 161.377L8.61956 161.754L13.1037 162.131L13.2456 160.444L8.76141 160.067ZM8.61956 161.754L4.13538 161.377L3.99352 163.065L8.4777 163.442L12.9619 163.819L13.1037 162.131L8.61956 161.754ZM8.4777 163.442L3.99352 163.065C3.88027 164.412 3.86742 165.761 3.95514 167.109L8.44565 166.817L12.9362 166.524C12.8775 165.623 12.886 164.721 12.9619 163.819L8.4777 163.442ZM8.44565 166.817L3.95514 167.109L4.06494 168.796L8.55544 168.504L13.0459 168.212L12.9362 166.524L8.44565 166.817ZM8.55544 168.504L4.06494 168.796L4.17474 170.484L8.66524 170.192L13.1557 169.899L13.0459 168.212L8.55544 168.504ZM8.66524 170.192L4.17474 170.484C4.19187 170.747 4.15145 171.098 3.90758 171.599L7.95483 173.567L12.0021 175.534C12.8518 173.786 13.285 171.886 13.1557 169.899L8.66524 170.192ZM7.95483 173.567L3.90758 171.599L3.08737 173.287L7.13462 175.254L11.1819 177.221L12.0021 175.534L7.95483 173.567ZM7.13462 175.254L3.08737 173.287L2.26716 174.974L6.31441 176.942L10.3617 178.909L11.1819 177.221L7.13462 175.254ZM6.31441 176.942L2.26716 174.974C1.21933 177.13 1.02983 179.509 1.86004 181.831L6.09744 180.317L10.3348 178.802C10.3292 178.786 10.3333 178.793 10.3372 178.82C10.3413 178.848 10.3431 178.882 10.3408 178.918C10.3385 178.953 10.3332 178.975 10.332 178.979C10.3311 178.982 10.337 178.959 10.3617 178.909L6.31441 176.942ZM6.09744 180.317L1.86004 181.831L2.46328 183.519L6.70067 182.004L10.9381 180.489L10.3348 178.802L6.09744 180.317ZM6.70067 182.004L2.46328 183.519L3.06651 185.206L7.30391 183.692L11.5413 182.177L10.9381 180.489L6.70067 182.004ZM7.30391 183.692L3.06651 185.206C3.31987 185.915 3.4409 186.575 3.45961 187.201L7.9576 187.067L12.4556 186.932C12.407 185.308 12.0923 183.718 11.5413 182.177L7.30391 183.692ZM7.9576 187.067L3.45961 187.201L3.51007 188.889L8.00806 188.754L12.5061 188.62L12.4556 186.932L7.9576 187.067ZM8.00806 188.754L3.51007 188.889L3.56053 190.576L8.05852 190.442L12.5565 190.307L12.5061 188.62L8.00806 188.754ZM8.05852 190.442L3.56053 190.576C3.57224 190.968 3.49855 191.427 3.24709 191.994L7.36163 193.817L11.4762 195.639C12.2212 193.957 12.6121 192.166 12.5565 190.307L8.05852 190.442ZM7.36163 193.817L3.24709 191.994L2.49973 193.682L6.61427 195.504L10.7288 197.326L11.4762 195.639L7.36163 193.817ZM6.61427 195.504L2.49973 193.682L1.75238 195.369L5.86692 197.192L9.98146 199.014L10.7288 197.326L6.61427 195.504ZM5.86692 197.192L1.75238 195.369C0.626387 197.912 0.888586 200.562 2.2324 202.847L6.11166 200.567L9.99092 198.286C9.95574 198.226 10.0261 198.326 10.0426 198.554C10.0504 198.661 10.0435 198.764 10.0267 198.855C10.0103 198.944 9.98845 198.998 9.98146 199.014L5.86692 197.192ZM6.11166 200.567L2.2324 202.847L3.22449 204.535L7.10375 202.254L10.983 199.973L9.99092 198.286L6.11166 200.567ZM7.10375 202.254L3.22449 204.535L4.21658 206.222L8.09584 203.942L11.9751 201.661L10.983 199.973L7.10375 202.254ZM8.09584 203.942L4.21658 206.222C4.32614 206.409 4.34406 206.5 4.34484 206.504C4.34553 206.507 4.34405 206.5 4.34401 206.487C4.34396 206.474 4.34541 206.467 4.34493 206.47L8.76448 207.317L13.184 208.164C13.6341 205.816 13.1082 203.588 11.9751 201.661L8.09584 203.942ZM8.76448 207.317L4.34493 206.47L4.02147 208.157L8.44102 209.004L12.8606 209.851L13.184 208.164L8.76448 207.317ZM8.44102 209.004L4.02147 208.157L3.69801 209.845L8.11756 210.692L12.5371 211.539L12.8606 209.851L8.44102 209.004ZM8.11756 210.692L3.69801 209.845C3.49097 210.925 3.26681 212.005 3.0255 213.086L7.4174 214.067L11.8093 215.047C12.0703 213.878 12.3129 212.709 12.5371 211.539L8.11756 210.692ZM7.4174 214.067L3.0255 213.086L2.64879 214.774L7.0407 215.754L11.4326 216.735L11.8093 215.047L7.4174 214.067ZM7.0407 215.754L2.64879 214.774L2.27209 216.461L6.664 217.442L11.0559 218.422L11.4326 216.735L7.0407 215.754ZM6.664 217.442L2.27209 216.461C1.84391 218.379 1.94118 220.31 2.52997 222.173L6.82071 220.817L11.1115 219.46C10.989 219.073 10.9818 218.754 11.0559 218.422L6.664 217.442ZM6.82071 220.817L2.52997 222.173L3.06339 223.86L7.35413 222.504L11.6449 221.148L11.1115 219.46L6.82071 220.817ZM7.35413 222.504L3.06339 223.86L3.5968 225.548L7.88754 224.192L12.1783 222.835L11.6449 221.148L7.35413 222.504ZM7.88754 224.192L3.5968 225.548C3.83189 226.292 3.94904 227.001 3.96715 227.686L8.46558 227.567L12.964 227.448C12.9226 225.883 12.6544 224.342 12.1783 222.835L7.88754 224.192ZM8.46558 227.567L3.96715 227.686L4.01177 229.373L8.51019 229.254L13.0086 229.135L12.964 227.448L8.46558 227.567ZM8.51019 229.254L4.01177 229.373L4.05638 231.061L8.55481 230.942L13.0532 230.823L13.0086 229.135L8.51019 229.254ZM8.55481 230.942L4.05638 231.061C4.06305 231.313 4.01094 231.676 3.72896 232.208L7.70432 234.317L11.6797 236.425C12.5912 234.707 13.1061 232.82 13.0532 230.823L8.55481 230.942ZM7.70432 234.317L3.72896 232.208L2.83385 233.895L6.80921 236.004L10.7846 238.113L11.6797 236.425L7.70432 234.317ZM6.80921 236.004L2.83385 233.895L1.93874 235.583L5.9141 237.692L9.88945 239.8L10.7846 238.113L6.80921 236.004ZM5.9141 237.692L1.93874 235.583C1.28629 236.813 0.922723 238.24 1.05882 239.776C1.1928 241.289 1.78282 242.596 2.53961 243.666L6.21302 241.067L9.88644 238.467C9.8472 238.412 9.98938 238.594 10.0237 238.982C10.0602 239.394 9.94516 239.695 9.88945 239.8L5.9141 237.692ZM6.21302 241.067L2.53961 243.666L3.73365 245.353L7.40706 242.754L11.0805 240.155L9.88644 238.467L6.21302 241.067ZM7.40706 242.754L3.73365 245.353L4.92768 247.041L8.6011 244.442L12.2745 241.842L11.0805 240.155L7.40706 242.754ZM8.6011 244.442L4.92768 247.041C4.93127 247.046 4.74305 246.772 4.72718 246.272C4.71094 245.761 4.88842 245.437 4.92505 245.38L8.70828 247.817L12.4915 250.253C13.2527 249.071 13.7746 247.623 13.7226 245.986C13.6711 244.362 13.067 242.962 12.2745 241.842L8.6011 244.442ZM8.70828 247.817L4.92505 245.38L3.8382 247.068L7.62143 249.504L11.4047 251.941L12.4915 250.253L8.70828 247.817ZM7.62143 249.504L3.8382 247.068L2.75134 248.755L6.53457 251.192L10.3178 253.628L11.4047 251.941L7.62143 249.504ZM6.53457 251.192L2.75134 248.755C1.58076 250.573 0.907126 252.701 1.13981 255.017L5.61727 254.567L10.0947 254.117C10.0943 254.112 10.0943 254.11 10.0946 254.107C10.0949 254.103 10.0964 254.088 10.1043 254.059C10.1199 254.002 10.169 253.859 10.3178 253.628L6.53457 251.192ZM5.61727 254.567L1.13981 255.017L1.30937 256.704L5.78683 256.254L10.2643 255.804L10.0947 254.117L5.61727 254.567ZM5.78683 256.254L1.30937 256.704L1.47893 258.392L5.95638 257.942L10.4338 257.492L10.2643 255.804L5.78683 256.254ZM5.95638 257.942L1.47893 258.392C1.66756 260.269 2.31269 262.021 3.26841 263.622L7.13281 261.317L10.9972 259.011C10.6104 258.363 10.4713 257.864 10.4338 257.492L5.95638 257.942ZM7.13281 261.317L3.26841 263.622L4.27528 265.31L8.13967 263.004L12.0041 260.698L10.9972 259.011L7.13281 261.317ZM8.13967 263.004L4.27528 265.31L5.28215 266.997L9.14654 264.692L13.0109 262.386L12.0041 260.698L8.13967 263.004ZM9.14654 264.692L5.28215 266.997C5.59783 267.526 5.63267 267.841 5.6304 268.004L10.13 268.067L14.6295 268.129C14.6585 266.042 14.0377 264.107 13.0109 262.386L9.14654 264.692ZM10.13 268.067L5.6304 268.004L5.60696 269.692L10.1065 269.754L14.6061 269.817L14.6295 268.129L10.13 268.067ZM10.1065 269.754L5.60696 269.692L5.58351 271.379L10.0831 271.442L14.5826 271.504L14.6061 269.817L10.1065 269.754ZM10.0831 271.442L5.58351 271.379C5.57998 271.633 5.51099 272.019 5.18826 272.584L9.0953 274.817L13.0023 277.049C13.9654 275.364 14.5549 273.5 14.5826 271.504L10.0831 271.442ZM9.0953 274.817L5.18826 272.584L4.22392 274.271L8.13096 276.504L12.038 278.737L13.0023 277.049L9.0953 274.817ZM8.13096 276.504L4.22392 274.271L3.25958 275.959L7.16663 278.192L11.0737 280.424L12.038 278.737L8.13096 276.504ZM7.16663 278.192L3.25958 275.959C2.13702 277.923 1.66095 280.181 2.1794 282.535L6.57403 281.567L10.9687 280.599C10.968 280.596 10.9701 280.605 10.9705 280.622C10.9709 280.64 10.9693 280.653 10.9685 280.657C10.9663 280.67 10.9757 280.596 11.0737 280.424L7.16663 278.192ZM6.57403 281.567L2.1794 282.535L2.55114 284.222L6.94577 283.254L11.3404 282.286L10.9687 280.599L6.57403 281.567ZM6.94577 283.254L2.55114 284.222L2.92288 285.91L7.31751 284.942L11.7121 283.974L11.3404 282.286L6.94577 283.254ZM7.31751 284.942L2.92288 285.91C3.10892 286.754 3.20826 287.587 3.22546 288.411L7.72448 288.317L12.2235 288.223C12.1937 286.797 12.0217 285.379 11.7121 283.974L7.31751 284.942ZM7.72448 288.317L3.22546 288.411L3.26069 290.098L7.75971 290.004L12.2587 289.91L12.2235 288.223L7.72448 288.317ZM7.75971 290.004L3.26069 290.098L3.29593 291.786L7.79495 291.692L12.294 291.598L12.2587 289.91L7.75971 290.004ZM7.79495 291.692L3.29593 291.786C3.31541 292.719 3.27548 293.653 3.17569 294.59L7.65035 295.067L12.125 295.543C12.265 294.23 12.3215 292.914 12.294 291.598L7.79495 291.692ZM7.65035 295.067L3.17569 294.59L2.99586 296.277L7.47053 296.754L11.9452 297.231L12.125 295.543L7.65035 295.067ZM7.47053 296.754L2.99586 296.277L2.81603 297.965L7.2907 298.442L11.7654 298.918L11.9452 297.231L7.47053 296.754ZM7.2907 298.442L2.81603 297.965C2.69228 299.126 2.58281 300.288 2.48761 301.449L6.97258 301.817L11.4575 302.184C11.5467 301.096 11.6493 300.007 11.7654 298.918L7.2907 298.442ZM6.97258 301.817L2.48761 301.449L2.34931 303.137L6.83428 303.504L11.3192 303.872L11.4575 302.184L6.97258 301.817ZM6.83428 303.504L2.34931 303.137L2.21102 304.824L6.69598 305.192L11.1809 305.559L11.3192 303.872L6.83428 303.504ZM6.69598 305.192L2.21102 304.824C2.12493 305.875 2.01244 306.926 1.87347 307.977L6.33469 308.567L10.7959 309.156C10.9543 307.958 11.0826 306.759 11.1809 305.559L6.69598 305.192ZM6.33469 308.567L1.87347 307.977L1.65047 309.665L6.11169 310.254L10.5729 310.844L10.7959 309.156L6.33469 308.567ZM6.11169 310.254L1.65047 309.665L1.42747 311.352L5.88869 311.942L10.3499 312.531L10.5729 310.844L6.11169 310.254ZM5.88869 311.942L1.42747 311.352C1.14346 313.501 1.59382 315.553 2.55574 317.397L6.54575 315.317L10.5357 313.236C10.3243 312.83 10.3366 312.632 10.3499 312.531L5.88869 311.942ZM6.54575 315.317L2.55574 317.397L3.4358 319.085L7.4258 317.004L11.4158 314.923L10.5357 313.236L6.54575 315.317ZM7.4258 317.004L3.4358 319.085L4.31585 320.772L8.30585 318.692L12.2959 316.611L11.4158 314.923L7.4258 317.004ZM8.30585 318.692L4.31585 320.772C4.48687 321.1 4.4467 321.199 4.44282 321.219L8.86228 322.067L13.2817 322.914C13.7094 320.684 13.2982 318.533 12.2959 316.611L8.30585 318.692ZM8.86228 322.067L4.44282 321.219L4.1192 322.907L8.53866 323.754L12.9581 324.602L13.2817 322.914L8.86228 322.067ZM8.53866 323.754L4.1192 322.907L3.79558 324.594L8.21504 325.442L12.6345 326.289L12.9581 324.602L8.53866 323.754ZM8.21504 325.442L3.79558 324.594C3.77838 324.684 3.79713 324.528 3.92322 324.252C4.02317 324.033 4.41811 323.227 5.41106 322.625C6.63794 321.881 7.97837 321.916 8.94878 322.272C9.72098 322.556 10.1358 322.984 10.2009 323.051L6.97794 326.192L3.75495 329.332C4.12455 329.711 4.8193 330.343 5.84685 330.721C7.0726 331.171 8.64379 331.19 10.0769 330.321C11.276 329.594 11.8525 328.554 12.1095 327.991C12.3926 327.371 12.5438 326.762 12.6345 326.289L8.21504 325.442ZM6.97794 326.192L10.2009 323.051L9.28743 322.114L6.06445 325.254L2.84146 328.395L3.75495 329.332L6.97794 326.192ZM6.06445 325.254L9.28743 322.114L8.37394 321.176L5.15096 324.317L1.92798 327.457L2.84146 328.395L6.06445 325.254ZM5.15096 324.317L8.37394 321.176C8.57235 321.38 8.76881 321.651 8.91664 321.987C9.06434 322.322 9.13086 322.647 9.14736 322.925C9.17826 323.446 9.03117 323.689 9.10034 323.535L4.99514 321.692L0.88995 319.848C0.454 320.819 0.0803213 322.063 0.163168 323.458C0.252886 324.97 0.865234 326.366 1.92798 327.457L5.15096 324.317ZM4.99514 321.692L9.10034 323.535L9.85801 321.847L5.75282 320.004L1.64762 318.161L0.88995 319.848L4.99514 321.692ZM5.75282 320.004L9.85801 321.847L10.6157 320.16L6.51049 318.317L2.4053 316.473L1.64762 318.161L5.75282 320.004ZM6.51049 318.317L10.6157 320.16C11.4197 318.369 11.7748 316.439 11.5528 314.444L7.08043 314.942L2.60802 315.439C2.63642 315.694 2.6115 316.014 2.4053 316.473L6.51049 318.317ZM7.08043 314.942L11.5528 314.444L11.3651 312.757L6.8927 313.254L2.42029 313.752L2.60802 315.439L7.08043 314.942ZM6.8927 313.254L11.3651 312.757L11.1774 311.069L6.70497 311.567L2.23256 312.064L2.42029 313.752L6.8927 313.254ZM6.70497 311.567L11.1774 311.069C11.0693 310.098 11.0119 309.128 11.0048 308.159L6.50495 308.192L2.00507 308.224C2.01439 309.506 2.09034 310.786 2.23256 312.064L6.70497 311.567ZM6.50495 308.192L11.0048 308.159L10.9925 306.471L6.49266 306.504L1.99278 306.537L2.00507 308.224L6.50495 308.192ZM6.49266 306.504L10.9925 306.471L10.9803 304.784L6.48038 304.817L1.9805 304.849L1.99278 306.537L6.49266 306.504ZM6.48038 304.817L10.9803 304.784C10.97 303.38 10.8299 301.981 10.5628 300.592L6.14372 301.442L1.72462 302.291C1.89007 303.152 1.97434 304.004 1.9805 304.849L6.48038 304.817ZM6.14372 301.442L10.5628 300.592L10.2384 298.905L5.81935 299.754L1.40025 300.604L1.72462 302.291L6.14372 301.442ZM5.81935 299.754L10.2384 298.905L9.91407 297.217L5.49497 298.067L1.07587 298.916L1.40025 300.604L5.81935 299.754ZM5.49497 298.067L9.91407 297.217C9.77212 296.479 9.7314 295.755 9.78641 295.034L5.29947 294.692L0.812539 294.349C0.69571 295.879 0.785326 297.405 1.07587 298.916L5.49497 298.067ZM5.29947 294.692L9.78641 295.034L9.91528 293.347L5.42835 293.004L0.941415 292.661L0.812539 294.349L5.29947 294.692ZM5.42835 293.004L9.91528 293.347L10.0442 291.659L5.55722 291.317L1.07029 290.974L0.941415 292.661L5.42835 293.004ZM5.55722 291.317L10.0442 291.659C10.1296 290.541 10.2174 289.422 10.3076 288.303L5.82214 287.942L1.33669 287.58C1.24549 288.711 1.15669 289.843 1.07029 290.974L5.55722 291.317ZM5.82214 287.942L10.3076 288.303L10.4436 286.616L5.95818 286.254L1.47273 285.893L1.33669 287.58L5.82214 287.942ZM5.95818 286.254L10.4436 286.616L10.5797 284.928L6.09421 284.567L1.60876 284.205L1.47273 285.893L5.95818 286.254ZM6.09421 284.567L10.5797 284.928C10.6745 283.752 10.7491 282.576 10.8037 281.4L6.30849 281.192L1.81332 280.983C1.76354 282.057 1.69535 283.131 1.60876 284.205L6.09421 284.567ZM6.30849 281.192L10.8037 281.4L10.8819 279.713L6.38673 279.504L1.89156 279.296L1.81332 280.983L6.30849 281.192ZM6.38673 279.504L10.8819 279.713L10.9601 278.025L6.46498 277.817L1.96981 277.608L1.89156 279.296L6.38673 279.504ZM6.46498 277.817L10.9601 278.025C11.025 276.626 10.9622 275.229 10.7732 273.836L6.3141 274.442L1.85501 275.047C1.97145 275.905 2.00926 276.757 1.96981 277.608L6.46498 277.817ZM6.3141 274.442L10.7732 273.836L10.5441 272.149L6.08499 272.754L1.6259 273.36L1.85501 275.047L6.3141 274.442ZM6.08499 272.754L10.5441 272.149L10.315 270.461L5.85587 271.067L1.39678 271.672L1.6259 273.36L6.08499 272.754ZM5.85587 271.067L10.315 270.461C10.1638 269.348 10.0169 268.234 9.87434 267.12L5.41075 267.692L0.94717 268.263C1.09263 269.399 1.2425 270.536 1.39678 271.672L5.85587 271.067ZM5.41075 267.692L9.87434 267.12L9.65834 265.433L5.19476 266.004L0.731173 266.575L0.94717 268.263L5.41075 267.692ZM5.19476 266.004L9.65834 265.433L9.44234 263.745L4.97876 264.317L0.515175 264.888L0.731173 266.575L5.19476 266.004ZM4.97876 264.317L9.44234 263.745C9.32737 262.847 9.28204 261.952 9.30545 261.06L4.80699 260.942L0.308538 260.824C0.272967 262.181 0.342156 263.536 0.515175 264.888L4.97876 264.317ZM4.80699 260.942L9.30545 261.06L9.34968 259.372L4.85122 259.254L0.352769 259.136L0.308538 260.824L4.80699 260.942ZM4.85122 259.254L9.34968 259.372L9.39391 257.685L4.89546 257.567L0.397 257.449L0.352769 259.136L4.85122 259.254ZM4.89546 257.567L9.39391 257.685C9.42159 256.629 9.47362 255.573 9.55004 254.516L5.06177 254.192L0.573506 253.867C0.487144 255.061 0.428301 256.255 0.397 257.449L4.89546 257.567ZM5.06177 254.192L9.55004 254.516L9.67213 252.829L5.18386 252.504L0.695594 252.179L0.573506 253.867L5.06177 254.192ZM5.18386 252.504L9.67213 252.829L9.79422 251.141L5.30595 250.817L0.817682 250.492L0.695594 252.179L5.18386 252.504ZM5.30595 250.817L9.79422 251.141C9.83406 250.591 9.98073 249.98 10.2912 249.291L6.18881 247.442L2.08644 245.592C1.38253 247.154 0.940626 248.793 0.817682 250.492L5.30595 250.817ZM6.18881 247.442L10.2912 249.291L11.052 247.604L6.94958 245.754L2.84721 243.905L2.08644 245.592L6.18881 247.442ZM6.94958 245.754L11.052 247.604L11.8127 245.916L7.71035 244.067L3.60798 242.217L2.84721 243.905L6.94958 245.754ZM7.71035 244.067L11.8127 245.916C12.6106 244.146 12.9781 242.241 12.7913 240.267L8.31136 240.692L3.83139 241.116C3.85759 241.393 3.82445 241.737 3.60798 242.217L7.71035 244.067ZM8.31136 240.692L12.7913 240.267L12.6316 238.58L8.15159 239.004L3.67162 239.428L3.83139 241.116L8.31136 240.692ZM8.15159 239.004L12.6316 238.58L12.4718 236.893L7.99182 237.317L3.51185 237.741L3.67162 239.428L8.15159 239.004ZM7.99182 237.317L12.4718 236.893C12.3214 235.304 11.9285 233.756 11.3236 232.257L7.1508 233.942L2.978 235.626C3.28138 236.378 3.44922 237.079 3.51185 237.741L7.99182 237.317ZM7.1508 233.942L11.3236 232.257L10.6423 230.57L6.46955 232.254L2.29675 233.939L2.978 235.626L7.1508 233.942ZM6.46955 232.254L10.6423 230.57L9.96109 228.882L5.7883 230.567L1.6155 232.251L2.29675 233.939L6.46955 232.254ZM5.7883 230.567L9.96109 228.882C9.70252 228.242 9.59916 227.676 9.59575 227.162L5.09585 227.192L0.595948 227.221C0.607462 228.957 0.965741 230.642 1.6155 232.251L5.7883 230.567ZM5.09585 227.192L9.59575 227.162L9.58455 225.474L5.08465 225.504L0.584752 225.534L0.595948 227.221L5.09585 227.192ZM5.08465 225.504L9.58455 225.474L9.57336 223.787L5.07346 223.817L0.573555 223.846L0.584752 225.534L5.08465 225.504ZM5.07346 223.817L9.57336 223.787C9.56876 223.093 9.66164 222.383 9.86651 221.644L5.53002 220.442L1.19354 219.24C0.774727 220.751 0.563227 222.29 0.573555 223.846L5.07346 223.817ZM5.53002 220.442L9.86651 221.644L10.3343 219.956L5.99779 218.754L1.66131 217.552L1.19354 219.24L5.53002 220.442ZM5.99779 218.754L10.3343 219.956L10.802 218.269L6.46555 217.067L2.12907 215.865L1.66131 217.552L5.99779 218.754ZM6.46555 217.067L10.802 218.269C11.1732 216.93 11.441 215.58 11.6018 214.22L7.13291 213.692L2.66406 213.163C2.55872 214.054 2.38157 214.954 2.12907 215.865L6.46555 217.067ZM7.13291 213.692L11.6018 214.22L11.8014 212.533L7.3325 212.004L2.86365 211.476L2.66406 213.163L7.13291 213.692ZM7.3325 212.004L11.8014 212.533L12.0009 210.845L7.53209 210.317L3.06324 209.788L2.86365 211.476L7.3325 212.004ZM7.53209 210.317L12.0009 210.845C12.1429 209.645 12.2543 208.445 12.335 207.244L7.84515 206.942L3.35529 206.64C3.28476 207.689 3.18743 208.738 3.06324 209.788L7.53209 210.317ZM7.84515 206.942L12.335 207.244L12.4485 205.556L7.95861 205.254L3.46875 204.952L3.35529 206.64L7.84515 206.942ZM7.95861 205.254L12.4485 205.556L12.5619 203.869L8.07208 203.567L3.58221 203.265L3.46875 204.952L7.95861 205.254ZM8.07208 203.567L12.5619 203.869C12.637 202.752 12.7153 201.636 12.7969 200.52L8.30883 200.192L3.8208 199.864C3.73797 200.997 3.65844 202.131 3.58221 203.265L8.07208 203.567ZM8.30883 200.192L12.7969 200.52L12.9202 198.832L8.43212 198.504L3.94409 198.176L3.8208 199.864L8.30883 200.192ZM8.43212 198.504L12.9202 198.832L13.0435 197.145L8.55542 196.817L4.06738 196.489L3.94409 198.176L8.43212 198.504ZM8.55542 196.817L13.0435 197.145C13.1486 195.706 13.1028 194.267 12.9076 192.834L8.44878 193.442L3.98998 194.049C4.10131 194.866 4.12663 195.678 4.06738 196.489L8.55542 196.817ZM8.44878 193.442L12.9076 192.834L12.6776 191.147L8.21884 191.754L3.76004 192.362L3.98998 194.049L8.44878 193.442ZM8.21884 191.754L12.6776 191.147L12.4477 189.459L7.98891 190.067L3.53011 190.674L3.76004 192.362L8.21884 191.754ZM7.98891 190.067L12.4477 189.459C12.3321 188.61 12.2967 187.767 12.3404 186.925L7.84642 186.692L3.35245 186.459C3.2795 187.867 3.33918 189.273 3.53011 190.674L7.98891 190.067ZM7.84642 186.692L12.3404 186.925L12.4278 185.237L7.93387 185.004L3.4399 184.771L3.35245 186.459L7.84642 186.692ZM7.93387 185.004L12.4278 185.237L12.5153 183.55L8.02132 183.317L3.52735 183.084L3.4399 184.771L7.93387 185.004ZM8.02132 183.317L12.5153 183.55C12.5645 182.601 12.6695 181.649 12.8314 180.693L8.39458 179.942L3.95776 179.19C3.73854 180.485 3.59478 181.783 3.52735 183.084L8.02132 183.317ZM8.39458 179.942L12.8314 180.693L13.1172 179.006L8.68038 178.254L4.24356 177.503L3.95776 179.19L8.39458 179.942ZM8.68038 178.254L13.1172 179.006L13.403 177.318L8.96618 176.567L4.52937 175.815L4.24356 177.503L8.68038 178.254ZM8.96618 176.567L13.403 177.318C13.7575 175.225 13.4263 173.186 12.5651 171.312L8.47636 173.192L4.38758 175.071C4.56055 175.447 4.5559 175.659 4.52937 175.815L8.96618 176.567ZM8.47636 173.192L12.5651 171.312L11.7895 169.625L7.70073 171.504L3.61195 173.383L4.38758 175.071L8.47636 173.192ZM7.70073 171.504L11.7895 169.625L11.0139 167.937L6.9251 169.817L2.83632 171.696L3.61195 173.383L7.70073 171.504ZM6.9251 169.817L11.0139 167.937C10.615 167.069 10.3292 166.233 10.1419 165.425L5.75819 166.442L1.37449 167.458C1.70892 168.9 2.20105 170.314 2.83632 171.696L6.9251 169.817ZM5.75819 166.442L10.1419 165.425L9.75062 163.738L5.36692 164.754L0.983213 165.771L1.37449 167.458L5.75819 166.442ZM5.36692 164.754L9.75062 163.738L9.35934 162.05L4.97564 163.067L0.591935 164.083L0.983213 165.771L5.36692 164.754ZM4.97564 163.067L9.35934 162.05C9.23446 161.512 9.22279 161.001 9.31543 160.482L4.88534 159.692L0.455254 158.902C0.146582 160.632 0.195114 162.372 0.591935 164.083L4.97564 163.067ZM4.88534 159.692L9.31543 160.482L9.61641 158.794L5.18632 158.004L0.756234 157.214L0.455254 158.902L4.88534 159.692ZM5.18632 158.004L9.61641 158.794L9.91739 157.107L5.4873 156.317L1.05721 155.527L0.756234 157.214L5.18632 158.004ZM5.4873 156.317L9.91739 157.107C10.1523 155.79 10.3 154.468 10.3592 153.143L5.86374 152.942L1.36823 152.741C1.32689 153.665 1.22365 154.593 1.05721 155.527L5.4873 156.317ZM5.86374 152.942L10.3592 153.143L10.4347 151.455L5.93919 151.254L1.44369 151.053L1.36823 152.741L5.86374 152.942ZM5.93919 151.254L10.4347 151.455L10.5102 149.768L6.01465 149.567L1.51914 149.366L1.44369 151.053L5.93919 151.254ZM6.01465 149.567L10.5102 149.768C10.5674 148.487 10.5581 147.206 10.482 145.925L5.98995 146.192L1.49786 146.458C1.55539 147.428 1.56247 148.397 1.51914 149.366L6.01465 149.567ZM5.98995 146.192L10.482 145.925L10.3819 144.238L5.8898 144.504L1.3977 144.771L1.49786 146.458L5.98995 146.192ZM5.8898 144.504L10.3819 144.238L10.2817 142.55L5.78964 142.817L1.29755 143.083L1.3977 144.771L5.8898 144.504ZM5.78964 142.817L10.2817 142.55C10.2188 141.489 10.1785 140.428 10.1609 139.367L5.6615 139.442L1.16212 139.516C1.18184 140.705 1.22699 141.894 1.29755 143.083L5.78964 142.817ZM5.6615 139.442L10.1609 139.367L10.1329 137.68L5.63352 137.754L1.13414 137.829L1.16212 139.516L5.6615 139.442ZM5.63352 137.754L10.1329 137.68L10.1049 135.992L5.60554 136.067L1.10616 136.141L1.13414 137.829L5.63352 137.754ZM5.60554 136.067L10.1049 135.992C10.097 135.517 10.185 134.99 10.4318 134.38L6.26044 132.692L2.08905 131.004C1.42533 132.644 1.07673 134.366 1.10616 136.141L5.60554 136.067ZM6.26044 132.692L10.4318 134.38L11.1147 132.692L6.94333 131.004L2.77194 129.316L2.08905 131.004L6.26044 132.692ZM6.94333 131.004L11.1147 132.692L11.7976 131.005L7.62622 129.317L3.45483 127.629L2.77194 129.316L6.94333 131.004ZM7.62622 129.317L11.7976 131.005C12.6517 128.894 12.731 126.648 11.9805 124.474L7.72673 125.942L3.47292 127.41C3.48769 127.452 3.49233 127.477 3.49375 127.486C3.49452 127.491 3.49471 127.494 3.49475 127.494C3.49478 127.495 3.49478 127.495 3.49478 127.495C3.49478 127.495 3.49478 127.495 3.49478 127.495C3.49478 127.495 3.49475 127.496 3.49439 127.499C3.49401 127.502 3.49315 127.508 3.49114 127.518C3.48725 127.536 3.47774 127.572 3.45483 127.629L7.62622 129.317ZM7.72673 125.942L11.9805 124.474L11.3982 122.786L7.14435 124.254L2.89054 125.722L3.47292 127.41L7.72673 125.942ZM7.14435 124.254L11.3982 122.786L10.8158 121.099L6.56197 122.567L2.30817 124.035L2.89054 125.722L7.14435 124.254ZM6.56197 122.567L10.8158 121.099C10.6177 120.525 10.5604 120.018 10.5975 119.541L6.11114 119.192L1.62475 118.842C1.48648 120.616 1.72973 122.359 2.30817 124.035L6.56197 122.567ZM6.11114 119.192L10.5975 119.541L10.7291 117.854L6.24269 117.504L1.7563 117.154L1.62475 118.842L6.11114 119.192ZM6.24269 117.504L10.7291 117.854L10.8606 116.166L6.37424 115.817L1.88785 115.467L1.7563 117.154L6.24269 117.504ZM6.37424 115.817L10.8606 116.166C10.9606 114.884 10.9929 113.601 10.9576 112.318L6.45927 112.442L1.96098 112.566C1.98762 113.532 1.9633 114.499 1.88785 115.467L6.37424 115.817ZM6.45927 112.442L10.9576 112.318L10.911 110.63L6.41274 110.754L1.91445 110.878L1.96098 112.566L6.45927 112.442ZM6.41274 110.754L10.911 110.63L10.8645 108.943L6.36622 109.067L1.86793 109.191L1.91445 110.878L6.41274 110.754ZM6.36622 109.067L10.8645 108.943C10.8369 107.94 10.85 106.937 10.9041 105.934L6.41059 105.692L1.9171 105.45C1.84995 106.696 1.83354 107.944 1.86793 109.191L6.36622 109.067ZM6.41059 105.692L10.9041 105.934L10.995 104.246L6.50148 104.004L2.00799 103.762L1.9171 105.45L6.41059 105.692ZM6.50148 104.004L10.995 104.246L11.0859 102.559L6.59237 102.317L2.09888 102.075L2.00799 103.762L6.50148 104.004ZM6.59237 102.317L11.0859 102.559C11.1289 101.76 11.2589 100.947 11.4835 100.116L7.13947 98.9417L2.79542 97.7673C2.41174 99.1865 2.17703 100.624 2.09888 102.075L6.59237 102.317ZM7.13947 98.9417L11.4835 100.116L11.9397 98.4285L7.59568 97.2542L3.25163 96.0798L2.79542 97.7673L7.13947 98.9417ZM7.59568 97.2542L11.9397 98.4285L12.3959 96.741L8.05189 95.5666L3.70784 94.3923L3.25163 96.0798L7.59568 97.2542ZM8.05189 95.5666L12.3959 96.741C13.0962 94.1508 12.4642 91.6991 11.1157 89.6867L7.37736 92.1916L3.63901 94.6966C3.74506 94.8549 3.72108 94.8734 3.69863 94.7611C3.68773 94.7066 3.68098 94.6387 3.6836 94.5644C3.68621 94.4904 3.69737 94.431 3.70784 94.3923L8.05189 95.5666ZM7.37736 92.1916L11.1157 89.6867L9.98496 87.9992L6.24661 90.5041L2.50827 93.0091L3.63901 94.6966L7.37736 92.1916ZM6.24661 90.5041L9.98496 87.9992L8.85421 86.3117L5.11587 88.8167L1.37753 91.3216L2.50827 93.0091L6.24661 90.5041ZM5.11587 88.8167L8.85421 86.3117C8.89183 86.3678 9.09189 86.7146 9.0746 87.2693C9.05772 87.8111 8.84702 88.1066 8.85149 88.1005L5.22102 85.4417L1.59055 82.7828C0.771091 83.9017 0.130899 85.3222 0.0789695 86.989C0.0266371 88.6687 0.586081 90.1405 1.37753 91.3216L5.11587 88.8167ZM5.22102 85.4417L8.85149 88.1005L10.0874 86.413L6.45691 83.7542L2.82644 81.0953L1.59055 82.7828L5.22102 85.4417ZM6.45691 83.7542L10.0874 86.413L11.3233 84.7255L7.6928 82.0667L4.06233 79.4078L2.82644 81.0953L6.45691 83.7542ZM7.6928 82.0667L11.3233 84.7255C12.5974 82.9859 13.4488 80.8933 13.3688 78.5389L8.87138 78.6917L4.37398 78.8444C4.3731 78.8187 4.38083 78.8273 4.35698 78.8956C4.32976 78.9735 4.25491 79.1448 4.06233 79.4078L7.6928 82.0667ZM8.87138 78.6917L13.3688 78.5389L13.3115 76.8514L8.81407 77.0042L4.31666 77.1569L4.37398 78.8444L8.87138 78.6917ZM8.81407 77.0042L13.3115 76.8514L13.2542 75.1639L8.75676 75.3166L4.25935 75.4694L4.31666 77.1569L8.81407 77.0042ZM8.75676 75.3166L13.2542 75.1639C13.2009 73.5956 12.9188 72.0531 12.4279 70.5471L8.14943 71.9416L3.87095 73.3362C4.11345 74.0801 4.23619 74.7876 4.25935 75.4694L8.75676 75.3166ZM8.14943 71.9416L12.4279 70.5471L11.8779 68.8596L7.59941 70.2541L3.32093 71.6487L3.87095 73.3362L8.14943 71.9416ZM7.59941 70.2541L11.8779 68.8596L11.3279 67.1721L7.04939 68.5667L2.77092 69.9612L3.32093 71.6487L7.59941 70.2541ZM7.04939 68.5667L11.3279 67.1721C10.9867 66.1255 10.6781 65.0809 10.4016 64.0383L6.0519 65.1917L1.70223 66.345C2.02238 67.5524 2.3787 68.7578 2.77092 69.9612L7.04939 68.5667ZM6.0519 65.1917L10.4016 64.0383L9.95411 62.3508L5.60443 63.5042L1.25476 64.6575L1.70223 66.345L6.0519 65.1917ZM5.60443 63.5042L9.95411 62.3508L9.50664 60.6633L5.15696 61.8167L0.807287 62.9701L1.25476 64.6575L5.60443 63.5042ZM5.15696 61.8167L9.50664 60.6633C9.3056 59.9051 9.21195 59.1715 9.21378 58.4531L4.71379 58.4417L0.213805 58.4302C0.209903 59.9618 0.411692 61.4782 0.807287 62.9701L5.15696 61.8167ZM4.71379 58.4417L9.21378 58.4531L9.21807 56.7656L4.71809 56.7542L0.218104 56.7427L0.213805 58.4302L4.71379 58.4417ZM4.71809 56.7542L9.21807 56.7656L9.22237 55.0781L4.72239 55.0666L0.222403 55.0552L0.218104 56.7427L4.71809 56.7542ZM4.72239 55.0666L9.22237 55.0781C9.22542 53.8836 9.20078 52.6891 9.14846 51.4947L4.65277 51.6916L0.157081 51.8886C0.203321 52.9442 0.225092 53.9997 0.222403 55.0552L4.72239 55.0666ZM4.65277 51.6916L9.14846 51.4947L9.07454 49.8072L4.57885 50.0041L0.0831633 50.2011L0.157081 51.8886L4.65277 51.6916ZM4.57885 50.0041L9.07454 49.8072L9.00062 48.1197L4.50493 48.3166L0.00924587 48.5136L0.0831633 50.2011L4.57885 50.0041ZM4.50493 48.3166L9.00062 48.1197C8.9981 48.0621 8.99168 47.8282 9.30161 47.3346L5.49059 44.9417L1.67957 42.5487C0.576737 44.3051 -0.0867891 46.3211 0.00924587 48.5136L4.50493 48.3166ZM5.49059 44.9417L9.30161 47.3346L10.3612 45.6471L6.55017 43.2542L2.73915 40.8612L1.67957 42.5487L5.49059 44.9417ZM6.55017 43.2542L10.3612 45.6471L11.4208 43.9596L7.60974 41.5667L3.79872 39.1737L2.73915 40.8612L6.55017 43.2542ZM7.60974 41.5667L11.4208 43.9596C12.665 41.978 13.2349 39.628 12.6466 37.1516L8.26846 38.1917L3.89029 39.2317C3.88556 39.2117 3.87959 39.1764 3.87862 39.1307C3.87765 39.0849 3.88206 39.0452 3.88755 39.0171C3.89285 38.9899 3.89656 38.9868 3.88687 39.0103C3.87679 39.0348 3.8517 39.0894 3.79872 39.1737L7.60974 41.5667ZM8.26846 38.1917L12.6466 37.1516L12.2458 35.4641L7.8676 36.5042L3.48943 37.5442L3.89029 39.2317L8.26846 38.1917ZM7.8676 36.5042L12.2458 35.4641L11.8449 33.7766L7.46674 34.8166L3.08857 35.8567L3.48943 37.5442L7.8676 36.5042ZM7.46674 34.8166L11.8449 33.7766C11.7081 33.2007 11.6868 32.6543 11.7686 32.1066L7.31801 31.4416L2.86742 30.7767C2.61307 32.479 2.6909 34.1826 3.08857 35.8567L7.46674 34.8166ZM7.31801 31.4416L11.7686 32.1066L12.0207 30.4191L7.57015 29.7541L3.11955 29.0892L2.86742 30.7767L7.31801 31.4416ZM7.57015 29.7541L12.0207 30.4191L12.2729 28.7316L7.82228 28.0666L3.37169 27.4017L3.11955 29.0892L7.57015 29.7541ZM7.82228 28.0666L12.2729 28.7316C12.521 27.0711 12.4683 25.4066 12.1218 23.7633L7.71864 24.6917L3.31544 25.62C3.44335 26.2267 3.45977 26.8122 3.37169 27.4017L7.82228 28.0666ZM7.71864 24.6917L12.1218 23.7633L11.7661 22.0758L7.36287 23.0042L2.95966 23.9325L3.31544 25.62L7.71864 24.6917ZM7.36287 23.0042L11.7661 22.0758L11.4103 20.3883L7.00709 21.3167L2.60389 22.245L2.95966 23.9325L7.36287 23.0042ZM7.00709 21.3167L11.4103 20.3883C11.2651 19.6997 11.228 19.0305 11.291 18.3655L6.81096 17.9417L2.33096 17.5178C2.18103 19.1028 2.2747 20.6836 2.60389 22.245L7.00709 21.3167ZM6.81096 17.9417L11.291 18.3655L11.4506 16.678L6.9706 16.2541L2.4906 15.8303L2.33096 17.5178L6.81096 17.9417ZM6.9706 16.2541L11.4506 16.678L11.6102 14.9905L7.13024 14.5666L2.65024 14.1428L2.4906 15.8303L6.9706 16.2541ZM7.13024 14.5666L11.6102 14.9905C11.7935 13.0533 11.4553 11.1746 10.7004 9.41631L6.56536 11.1916L2.43036 12.967C2.64149 13.4587 2.67984 13.83 2.65024 14.1428L7.13024 14.5666ZM6.56536 11.1916L10.7004 9.41631L9.97584 7.72882L5.84085 9.50415L1.70585 11.2795L2.43036 12.967L6.56536 11.1916ZM5.84085 9.50415L9.97584 7.72882L9.25133 6.04132L5.11633 7.81665L0.981335 9.59198L1.70585 11.2795L5.84085 9.50415ZM5.11633 7.81665L9.25133 6.04132C9.09234 5.67102 9.1738 5.73522 9.20037 6.08905C9.22744 6.44946 9.22288 7.84911 7.9484 8.98653L4.95207 5.62915L1.95574 2.27177C0.307756 3.74253 0.143824 5.67342 0.225643 6.76299C0.306969 7.846 0.657312 8.83728 0.981335 9.59198L5.11633 7.81665ZM4.95207 5.62915L7.9484 8.98653L8.50865 8.48653L5.51232 5.12915L2.51599 1.77177L1.95574 2.27177L4.95207 5.62915ZM5.51232 5.12915L8.50865 8.48653L9.06889 7.98653L6.07256 4.62915L3.07623 1.27177L2.51599 1.77177L5.51232 5.12915ZM6.07256 4.62915L9.06889 7.98653C8.65733 8.35384 7.77661 8.96161 6.47793 8.99844C5.14053 9.03636 4.17763 8.44779 3.67927 8.01661C3.22321 7.62204 3.0107 7.2479 2.9638 7.16397C2.89902 7.04802 2.89281 7.01039 2.92764 7.10606L7.15614 5.56665L11.3846 4.02725C11.1824 3.47182 10.6881 2.17967 9.5679 1.21044C8.88894 0.623011 7.74391 -0.04108 6.22283 0.00205183C4.74048 0.044086 3.67455 0.737795 3.07623 1.27177L6.07256 4.62915ZM7.15614 5.56665L2.92764 7.10606L3.45097 8.54356L7.67947 7.00415L11.908 5.46475L11.3846 4.02725L7.15614 5.56665Z" fill="#E6E4C3"/>
</svg>
