<svg width="304" height="15" viewBox="0 0 304 15" fill="none" xmlns="http://www.w3.org/2000/svg">
<path d="M24.627 6.76056L23.0291 2.55378L24.627 6.76056ZM28.002 5.85361L27.3012 1.4085L28.002 5.85361ZM38.127 6.59509L39.4362 2.28976L38.127 6.59509ZM48.252 6.72559L47.0353 2.39319L48.252 6.72559ZM55.002 5.48992L54.5088 9.96282L55.002 5.48992ZM61.752 6.82896L59.8621 10.9129L61.752 6.82896ZM65.127 8.39079L67.0168 4.30689L65.127 8.39079ZM68.502 8.08723L66.0691 4.30158L68.502 8.08723ZM71.877 5.91827L69.4441 2.13262L71.877 5.91827ZM75.252 5.18327L76.1645 0.776775L75.252 5.18327ZM78.627 5.88223L77.7144 10.2887L78.627 5.88223ZM82.002 5.80007L83.1171 10.1597L82.002 5.80007ZM83.6895 5.36844L82.5743 1.00879L83.6895 5.36844ZM85.377 4.93681L84.2618 0.577163L85.377 4.93681ZM88.752 5.31063L90.6904 1.24952L88.752 5.31063ZM92.127 6.92154L90.1886 10.9827L92.127 6.92154ZM98.877 7.07754L98.3044 2.61411L98.877 7.07754ZM105.627 6.22319L105.064 1.75849L105.627 6.22319ZM109.002 5.60067L107.94 1.22783L109.002 5.60067ZM112.377 4.78087L113.439 9.15371L112.377 4.78087ZM115.752 5.53821L118.312 1.83729L115.752 5.53821ZM119.127 7.87269L116.567 11.5736L119.127 7.87269ZM122.502 7.88135L125.049 11.5912L122.502 7.88135ZM124.189 6.72277L121.642 3.01296L124.189 6.72277ZM125.877 5.56419L123.33 1.85438L125.877 5.56419ZM129.252 5.02784L130.809 0.805709L129.252 5.02784ZM132.627 6.27228L131.07 10.4944L132.627 6.27228ZM136.002 6.53801L135.072 2.13519L136.002 6.53801ZM139.377 5.82502L140.307 10.2278L139.377 5.82502ZM142.752 6.41339L140.553 10.3398L142.752 6.41339ZM146.127 8.30312L148.325 4.37671L146.127 8.30312ZM149.502 8.02304L146.858 4.38134L149.502 8.02304ZM152.877 5.57315L155.52 9.21485L152.877 5.57315ZM156.252 4.69296L157.153 0.28403L156.252 4.69296ZM159.627 5.38247L158.726 9.7914L159.627 5.38247ZM173.127 5.96525L172.835 1.47475L173.127 5.96525ZM176.502 6.67566L174.535 10.7229L176.502 6.67566ZM178.189 7.49587L176.222 11.5431L178.189 7.49587ZM183.252 8.53305L184.767 12.7704L183.252 8.53305ZM186.627 7.32658L185.112 3.08919L186.627 7.32658ZM196.752 7.26886L198.574 3.15432L196.752 7.26886ZM200.127 8.76357L198.305 12.8781L200.127 8.76357ZM210.252 5.86602L211.099 1.44648L210.252 5.86602ZM213.627 6.51294L212.78 10.9325L213.627 6.51294ZM217.002 7.2131L217.982 2.82119L217.002 7.2131ZM220.377 7.9665L219.397 12.3584L220.377 7.9665ZM233.877 6.07568L233.758 1.57725L233.877 6.07568ZM244.002 8.41747L246.601 12.0909L244.002 8.41747ZM247.377 6.02939L244.778 2.35598L247.377 6.02939ZM250.752 5.92221L248.315 9.70544L250.752 5.92221ZM260.877 8.67411L260.427 4.19666L260.877 8.67411ZM271.002 4.50053L270.939 9.00009L271.002 4.50053ZM277.752 5.53519L275.519 9.44224L277.752 5.53519ZM281.127 7.46387L283.36 3.55682L281.127 7.46387ZM291.252 6.90601L291.158 2.40699V2.40699L291.252 6.90601ZM298.377 7.33744L298.745 2.85248V2.85248L298.377 7.33744ZM295.002 7.06085L294.634 11.5458V11.5458L295.002 7.06085ZM291.627 6.69955L291.037 11.1608L291.627 6.69955ZM288.252 6.25356L288.841 1.79234L288.252 6.25356ZM278.127 9.22715L277.279 13.6466L278.127 9.22715ZM274.752 8.57991L275.599 4.16045L274.752 8.57991ZM271.377 8.79047L272.735 13.0807L271.377 8.79047ZM269.689 9.32466L268.331 5.03448L269.689 9.32466ZM268.002 9.85884L266.644 5.56866L268.002 9.85884ZM264.627 9.63535L266.47 5.53015L264.627 9.63535ZM261.252 8.12L263.095 4.01481L261.252 8.12ZM257.877 7.55006L258.375 12.0225L257.877 7.55006ZM254.502 7.92553L254.004 3.45312L254.502 7.92553ZM247.752 8.15011L247.719 3.65023L247.752 8.15011ZM244.377 8.48677L245.226 12.9059L244.377 8.48677ZM241.002 9.13552L240.152 4.71642L241.002 9.13552ZM234.252 9.07327L233.909 13.5602L234.252 9.07327ZM227.502 8.53628L227.14 13.0217L227.502 8.53628ZM220.752 8.16552L220.544 12.6607L220.752 8.16552ZM217.377 8.31639L217.982 12.7755L217.377 8.31639ZM214.002 8.77462L213.397 4.31554L214.002 8.77462ZM210.627 9.21974L210.056 4.75616V4.75616L210.627 9.21974ZM208.939 9.43574L208.368 4.97215L208.939 9.43574ZM207.252 9.65173L207.823 14.1153V14.1153L207.252 9.65173ZM200.502 9.73504L200.384 14.2335L200.502 9.73504ZM193.752 9.32454L193.427 13.8128L193.752 9.32454ZM190.377 8.44168L192.226 4.33931L190.377 8.44168ZM187.002 6.92014L185.152 11.0225L187.002 6.92014ZM180.252 6.63868L179.828 2.15871V2.15871L180.252 6.63868ZM176.877 7.4797L178.562 11.6525L176.877 7.4797ZM173.502 8.8422L171.817 4.6694L173.502 8.8422ZM163.377 9.10047L164.579 4.76399L163.377 9.10047ZM160.002 8.16494L158.8 12.5014L160.002 8.16494ZM156.627 7.49758L157.156 3.02873V3.02873L156.627 7.49758ZM153.252 7.0984L152.723 11.5673V11.5673L153.252 7.0984ZM149.877 6.78534L149.575 11.2752L149.877 6.78534ZM136.377 6.18172L135.769 1.72292L136.377 6.18172ZM133.002 6.64159L132.394 2.18279L133.002 6.64159ZM129.627 6.78407L129.86 2.2901L129.627 6.78407ZM126.252 6.60917L126.485 2.1152L126.252 6.60917ZM119.502 5.66431L118.751 10.1011L119.502 5.66431ZM109.377 8.8723L110.393 13.256L109.377 8.8723ZM106.002 9.65486L104.986 5.27115L106.002 9.65486ZM102.627 9.74515L103.417 5.31507L102.627 9.74515ZM99.252 9.14319L98.4618 13.5733L99.252 9.14319ZM85.752 8.84085L85.4853 4.34876L85.752 8.84085ZM75.627 8.37005L77.315 4.19866L75.627 8.37005ZM72.252 7.00428L70.5639 11.1757L72.252 7.00428ZM62.1269 8.51935L61.7772 13.0057L62.1269 8.51935ZM55.377 8.17123L55.2529 3.67294L55.377 8.17123ZM31.752 9.51462L29.247 5.77628L31.752 9.51462ZM25.002 6.93769L22.3431 10.5682L25.002 6.93769ZM18.252 5.87374L18.0992 1.37633L18.252 5.87374ZM14.877 6.48107L13.4824 2.20259L14.877 6.48107ZM9.43945 6.45102L10.159 10.8931L11.8465 10.6198L11.127 6.1777L10.4075 1.73559L8.71995 2.00892L9.43945 6.45102ZM11.127 6.1777L11.8465 10.6198C12.0943 10.5797 12.379 10.5915 12.7888 10.7603L14.502 6.59912L16.2151 2.43799C14.3749 1.68036 12.4096 1.41129 10.4075 1.73559L11.127 6.1777ZM14.502 6.59912L12.7888 10.7603L14.4763 11.455L16.1895 7.29388L17.9026 3.13274L16.2151 2.43799L14.502 6.59912ZM16.1895 7.29388L14.4763 11.455L16.1638 12.1498L17.877 7.98864L19.5901 3.8275L17.9026 3.13274L16.1895 7.29388ZM17.877 7.98864L16.1638 12.1498C18.3336 13.0431 20.6424 13.0876 22.8498 12.2492L21.252 8.04245L19.6541 3.83567C19.6163 3.85003 19.6 3.85262 19.6027 3.85212C19.6061 3.8515 19.6186 3.84976 19.6362 3.85004C19.6537 3.85032 19.6635 3.8524 19.6616 3.85201C19.6591 3.85147 19.6359 3.84635 19.5901 3.8275L17.877 7.98864ZM21.252 8.04245L22.8498 12.2492L24.5373 11.6083L22.9395 7.40151L21.3416 3.19473L19.6541 3.83567L21.252 8.04245ZM22.9395 7.40151L24.5373 11.6083L26.2248 10.9673L24.627 6.76056L23.0291 2.55378L21.3416 3.19473L22.9395 7.40151ZM24.627 6.76056L26.2248 10.9673C27.0761 10.644 27.9009 10.4251 28.7027 10.2987L28.002 5.85361L27.3012 1.4085C25.853 1.63679 24.4278 2.02253 23.0291 2.55378L24.627 6.76056ZM28.002 5.85361L28.7027 10.2987L30.3902 10.0327L29.6895 5.5876L28.9887 1.14249L27.3012 1.4085L28.002 5.85361ZM29.6895 5.5876L30.3902 10.0327L32.0777 9.7667L31.377 5.32159L30.6762 0.876476L28.9887 1.14249L29.6895 5.5876ZM31.377 5.32159L32.0777 9.7667C32.5086 9.69877 32.9467 9.72325 33.4427 9.87407L34.752 5.56875L36.0612 1.26342C34.3072 0.730016 32.4953 0.589723 30.6762 0.876476L31.377 5.32159ZM34.752 5.56875L33.4427 9.87407L35.1302 10.3872L36.4395 6.08192L37.7487 1.77659L36.0612 1.26342L34.752 5.56875ZM36.4395 6.08192L35.1302 10.3872L36.8177 10.9004L38.127 6.59509L39.4362 2.28976L37.7487 1.77659L36.4395 6.08192ZM38.127 6.59509L36.8177 10.9004C38.3293 11.3601 39.8742 11.6095 41.4411 11.6307L41.502 7.13107L41.5628 2.63148C40.8797 2.62225 40.1746 2.51431 39.4362 2.28976L38.127 6.59509ZM41.502 7.13107L41.4411 11.6307L43.1286 11.6535L43.1895 7.15388L43.2503 2.65429L41.5628 2.63148L41.502 7.13107ZM43.1895 7.15388L43.1286 11.6535L44.8161 11.6763L44.877 7.17669L44.9378 2.6771L43.2503 2.65429L43.1895 7.15388ZM44.877 7.17669L44.8161 11.6763C46.3892 11.6975 47.9442 11.4861 49.4686 11.058L48.252 6.72559L47.0353 2.39319C46.3097 2.59694 45.6147 2.68625 44.9378 2.6771L44.877 7.17669ZM48.252 6.72559L49.4686 11.058L51.1561 10.5841L49.9395 6.25169L48.7228 1.91929L47.0353 2.39319L48.252 6.72559ZM49.9395 6.25169L51.1561 10.5841L52.8436 10.1102L51.627 5.77778L50.4103 1.44538L48.7228 1.91929L49.9395 6.25169ZM51.627 5.77778L52.8436 10.1102C53.4314 9.94513 53.9762 9.90409 54.5088 9.96282L55.002 5.48992L55.4951 1.01702C53.7777 0.827685 52.0725 0.978559 50.4103 1.44538L51.627 5.77778ZM55.002 5.48992L54.5088 9.96282L56.1963 10.1489L56.6895 5.67596L57.1826 1.20306L55.4951 1.01702L55.002 5.48992ZM56.6895 5.67596L56.1963 10.1489L57.8838 10.3349L58.377 5.862L58.8701 1.3891L57.1826 1.20306L56.6895 5.67596ZM58.377 5.862L57.8838 10.3349C58.4814 10.4008 59.1367 10.5772 59.8621 10.9129L61.752 6.82896L63.6418 2.74505C62.1172 2.0395 60.5225 1.57127 58.8701 1.3891L58.377 5.862ZM61.752 6.82896L59.8621 10.9129L61.5496 11.6938L63.4395 7.60988L65.3293 3.52597L63.6418 2.74505L61.752 6.82896ZM63.4395 7.60988L61.5496 11.6938L63.2371 12.4747L65.127 8.39079L67.0168 4.30689L65.3293 3.52597L63.4395 7.60988ZM65.127 8.39079L63.2371 12.4747C65.886 13.7005 68.6369 13.3496 70.9348 11.8729L68.502 8.08723L66.0691 4.30158C66.0052 4.34266 66.1292 4.24884 66.4113 4.22346C66.71 4.19659 66.9349 4.26895 67.0168 4.30689L65.127 8.39079ZM68.502 8.08723L70.9348 11.8729L72.6223 10.7884L70.1895 7.00275L67.7566 3.2171L66.0691 4.30158L68.502 8.08723ZM70.1895 7.00275L72.6223 10.7884L74.3098 9.70393L71.877 5.91827L69.4441 2.13262L67.7566 3.2171L70.1895 7.00275ZM71.877 5.91827L74.3098 9.70393C74.4926 9.58647 74.561 9.58073 74.522 9.58922C74.5037 9.5932 74.4722 9.59788 74.4322 9.59809C74.3923 9.5983 74.3597 9.59397 74.3394 9.58977L75.252 5.18327L76.1645 0.776775C73.6972 0.265803 71.385 0.885314 69.4441 2.13262L71.877 5.91827ZM75.252 5.18327L74.3394 9.58977L76.0269 9.93924L76.9395 5.53275L77.852 1.12625L76.1645 0.776775L75.252 5.18327ZM76.9395 5.53275L76.0269 9.93924L77.7144 10.2887L78.627 5.88223L79.5395 1.47573L77.852 1.12625L76.9395 5.53275ZM78.627 5.88223L77.7144 10.2887C79.5175 10.6621 81.3359 10.6153 83.1171 10.1597L82.002 5.80007L80.8868 1.44042C80.418 1.56035 79.9864 1.56828 79.5395 1.47573L78.627 5.88223ZM82.002 5.80007L83.1171 10.1597L84.8046 9.72809L83.6895 5.36844L82.5743 1.00879L80.8868 1.44042L82.002 5.80007ZM83.6895 5.36844L84.8046 9.72809L86.4921 9.29646L85.377 4.93681L84.2618 0.577163L82.5743 1.00879L83.6895 5.36844ZM85.377 4.93681L86.4921 9.29646C86.5221 9.28878 86.5391 9.28704 86.5461 9.28653C86.5529 9.28604 86.5594 9.28603 86.5691 9.2871C86.5828 9.28862 86.6598 9.29834 86.8136 9.37174L88.752 5.31063L90.6904 1.24952C88.6893 0.294389 86.4863 0.00818825 84.2618 0.577163L85.377 4.93681ZM88.752 5.31063L86.8136 9.37174L88.5011 10.1772L90.4395 6.11609L92.3779 2.05498L90.6904 1.24952L88.752 5.31063ZM90.4395 6.11609L88.5011 10.1772L90.1886 10.9827L92.127 6.92154L94.0654 2.86043L92.3779 2.05498L90.4395 6.11609ZM92.127 6.92154L90.1886 10.9827C92.0142 11.854 94.0071 12.2392 96.0746 11.9739L95.502 7.51051L94.9293 3.04709C94.7468 3.07051 94.4898 3.063 94.0654 2.86043L92.127 6.92154ZM95.502 7.51051L96.0746 11.9739L97.7621 11.7574L97.1895 7.29402L96.6168 2.8306L94.9293 3.04709L95.502 7.51051ZM97.1895 7.29402L97.7621 11.7574L99.4496 11.541L98.877 7.07754L98.3044 2.61411L96.6168 2.8306L97.1895 7.29402ZM98.877 7.07754L99.4496 11.541C100.571 11.3971 101.693 11.2545 102.814 11.1131L102.252 6.64843L101.689 2.18373C100.561 2.3259 99.4327 2.46936 98.3044 2.61411L98.877 7.07754ZM102.252 6.64843L102.814 11.1131L104.502 10.9005L103.939 6.43581L103.377 1.97111L101.689 2.18373L102.252 6.64843ZM103.939 6.43581L104.502 10.9005L106.189 10.6879L105.627 6.22319L105.064 1.75849L103.377 1.97111L103.939 6.43581ZM105.627 6.22319L106.189 10.6879C107.486 10.5245 108.778 10.2859 110.064 9.97351L109.002 5.60067L107.94 1.22783C106.976 1.46193 106.018 1.63837 105.064 1.75849L105.627 6.22319ZM109.002 5.60067L110.064 9.97351L111.752 9.56361L110.689 5.19077L109.627 0.817924L107.94 1.22783L109.002 5.60067ZM110.689 5.19077L111.752 9.56361L113.439 9.15371L112.377 4.78087L111.315 0.408024L109.627 0.817924L110.689 5.19077ZM112.377 4.78087L113.439 9.15371C113.396 9.16421 113.335 9.17363 113.262 9.1743C113.19 9.17497 113.127 9.16669 113.079 9.15606C112.983 9.1344 113.018 9.11892 113.192 9.23913L115.752 5.53821L118.312 1.83729C116.341 0.473953 113.916 -0.223877 111.315 0.408024L112.377 4.78087ZM115.752 5.53821L113.192 9.23913L114.88 10.4064L117.439 6.70545L119.999 3.00452L118.312 1.83729L115.752 5.53821ZM117.439 6.70545L114.88 10.4064L116.567 11.5736L119.127 7.87269L121.687 4.17176L119.999 3.00452L117.439 6.70545ZM119.127 7.87269L116.567 11.5736C117.715 12.3673 119.149 12.9542 120.803 12.9585C122.458 12.9627 123.896 12.3825 125.049 11.5912L122.502 7.88135L119.955 4.17154C119.983 4.15259 120.296 3.95713 120.826 3.95849C121.355 3.95984 121.664 4.15618 121.687 4.17176L119.127 7.87269ZM122.502 7.88135L125.049 11.5912L126.736 10.4326L124.189 6.72277L121.642 3.01296L119.955 4.17154L122.502 7.88135ZM124.189 6.72277L126.736 10.4326L128.424 9.274L125.877 5.56419L123.33 1.85438L121.642 3.01296L124.189 6.72277ZM125.877 5.56419L128.424 9.274C128.543 9.19241 128.487 9.26072 128.271 9.29504C128.166 9.31171 128.052 9.31533 127.939 9.30347C127.827 9.29173 127.743 9.26778 127.695 9.24996L129.252 5.02784L130.809 0.805709C128.109 -0.189811 125.467 0.38734 123.33 1.85438L125.877 5.56419ZM129.252 5.02784L127.695 9.24996L129.383 9.87219L130.939 5.65006L132.496 1.42793L130.809 0.805709L129.252 5.02784ZM130.939 5.65006L129.383 9.87219L131.07 10.4944L132.627 6.27228L134.184 2.05015L132.496 1.42793L130.939 5.65006ZM132.627 6.27228L131.07 10.4944C132.955 11.1893 134.941 11.3614 136.932 10.9408L136.002 6.53801L135.072 2.13519C134.813 2.18991 134.549 2.18487 134.184 2.05015L132.627 6.27228ZM136.002 6.53801L136.932 10.9408L138.62 10.5843L137.689 6.18151L136.759 1.77869L135.072 2.13519L136.002 6.53801ZM137.689 6.18151L138.62 10.5843L140.307 10.2278L139.377 5.82502L138.447 1.42219L136.759 1.77869L137.689 6.18151ZM139.377 5.82502L140.307 10.2278C140.316 10.226 140.313 10.2272 140.304 10.2273C140.294 10.2275 140.289 10.2265 140.292 10.227C140.294 10.2273 140.378 10.2413 140.553 10.3398L142.752 6.41339L144.95 2.48698C142.998 1.39388 140.769 0.931653 138.447 1.42219L139.377 5.82502ZM142.752 6.41339L140.553 10.3398L142.241 11.2847L144.439 7.35825L146.638 3.43184L144.95 2.48698L142.752 6.41339ZM144.439 7.35825L142.241 11.2847L143.928 12.2295L146.127 8.30312L148.325 4.37671L146.638 3.43184L144.439 7.35825ZM146.127 8.30312L143.928 12.2295C145.158 12.9182 146.608 13.3211 148.187 13.1901C149.74 13.0612 151.071 12.4448 152.145 11.6647L149.502 8.02304L146.858 4.38134C146.808 4.41789 147.014 4.25647 147.442 4.22095C147.896 4.18332 148.22 4.31794 148.325 4.37671L146.127 8.30312ZM149.502 8.02304L152.145 11.6647L153.833 10.4398L151.189 6.7981L148.546 3.15639L146.858 4.38134L149.502 8.02304ZM151.189 6.7981L153.833 10.4398L155.52 9.21485L152.877 5.57315L150.233 1.93145L148.546 3.15639L151.189 6.7981ZM152.877 5.57315L155.52 9.21485C155.716 9.07301 155.775 9.07543 155.7 9.09499C155.663 9.10476 155.606 9.11491 155.535 9.1169C155.465 9.11889 155.401 9.11209 155.351 9.10189L156.252 4.69296L157.153 0.28403C154.535 -0.250854 152.147 0.542432 150.233 1.93145L152.877 5.57315ZM156.252 4.69296L155.351 9.10189L157.039 9.44665L157.939 5.03772L158.84 0.628785L157.153 0.28403L156.252 4.69296ZM157.939 5.03772L157.039 9.44665L158.726 9.7914L159.627 5.38247L160.528 0.973539L158.84 0.628785L157.939 5.03772ZM159.627 5.38247L158.726 9.7914C160.021 10.056 161.321 10.2437 162.625 10.3533L163.002 5.86908L163.379 1.38489C162.433 1.30536 161.483 1.16864 160.528 0.973539L159.627 5.38247ZM163.002 5.86908L162.625 10.3533L164.312 10.4951L164.689 6.01093L165.066 1.52675L163.379 1.38489L163.002 5.86908ZM164.689 6.01093L164.312 10.4951L166 10.637L166.377 6.15279L166.754 1.6686L165.066 1.52675L164.689 6.01093ZM166.377 6.15279L166 10.637C167.347 10.7502 168.696 10.7631 170.044 10.6754L169.752 6.18485L169.46 1.69434C168.558 1.75302 167.657 1.74449 166.754 1.6686L166.377 6.15279ZM169.752 6.18485L170.044 10.6754L171.732 10.5656L171.439 6.07505L171.147 1.58454L169.46 1.69434L169.752 6.18485ZM171.439 6.07505L171.732 10.5656L173.419 10.4558L173.127 5.96525L172.835 1.47475L171.147 1.58454L171.439 6.07505ZM173.127 5.96525L173.419 10.4558C173.682 10.4386 174.033 10.479 174.535 10.7229L176.502 6.67566L178.469 2.62841C176.721 1.77867 174.821 1.34548 172.835 1.47475L173.127 5.96525ZM176.502 6.67566L174.535 10.7229L176.222 11.5431L178.189 7.49587L180.157 3.44862L178.469 2.62841L176.502 6.67566ZM178.189 7.49587L176.222 11.5431L177.91 12.3633L179.877 8.31608L181.844 4.26883L180.157 3.44862L178.189 7.49587ZM179.877 8.31608L177.91 12.3633C180.066 13.4112 182.444 13.6007 184.767 12.7704L183.252 8.53305L181.737 4.29566C181.721 4.30131 181.729 4.29724 181.756 4.29329C181.783 4.28924 181.817 4.2874 181.853 4.2897C181.889 4.29197 181.91 4.29734 181.915 4.29848C181.918 4.29936 181.895 4.29344 181.844 4.26883L179.877 8.31608ZM183.252 8.53305L184.767 12.7704L186.454 12.1672L184.939 7.92982L183.425 3.69242L181.737 4.29566L183.252 8.53305ZM184.939 7.92982L186.454 12.1672L188.142 11.564L186.627 7.32658L185.112 3.08919L183.425 3.69242L184.939 7.92982ZM186.627 7.32658L188.142 11.564C188.85 11.3106 189.511 11.1896 190.136 11.1709L190.002 6.67289L189.867 2.1749C188.243 2.22346 186.653 2.53823 185.112 3.08919L186.627 7.32658ZM190.002 6.67289L190.136 11.1709L191.824 11.1204L191.689 6.62243L191.555 2.12444L189.867 2.1749L190.002 6.67289ZM191.689 6.62243L191.824 11.1204L193.511 11.07L193.377 6.57197L193.242 2.07398L191.555 2.12444L191.689 6.62243ZM193.377 6.57197L193.511 11.07C193.903 11.0583 194.362 11.1319 194.93 11.3834L196.752 7.26886L198.574 3.15432C196.892 2.40932 195.101 2.01841 193.242 2.07398L193.377 6.57197ZM196.752 7.26886L194.93 11.3834L196.617 12.1308L198.439 8.01622L200.262 3.90168L198.574 3.15432L196.752 7.26886ZM198.439 8.01622L196.617 12.1308L198.305 12.8781L200.127 8.76357L201.949 4.64903L200.262 3.90168L198.439 8.01622ZM200.127 8.76357L198.305 12.8781C200.847 14.0041 203.497 13.7419 205.783 12.3981L203.502 8.51884L201.221 4.63957C201.161 4.67475 201.261 4.60439 201.489 4.58785C201.596 4.58009 201.699 4.58698 201.79 4.60376C201.879 4.62022 201.933 4.64204 201.949 4.64903L200.127 8.76357ZM203.502 8.51884L205.783 12.3981L207.47 11.406L205.189 7.52674L202.909 3.64748L201.221 4.63957L203.502 8.51884ZM205.189 7.52674L207.47 11.406L209.158 10.4139L206.877 6.53465L204.596 2.65539L202.909 3.64748L205.189 7.52674ZM206.877 6.53465L209.158 10.4139C209.344 10.3044 209.435 10.2864 209.439 10.2857C209.442 10.285 209.436 10.2864 209.423 10.2865C209.41 10.2865 209.402 10.2851 209.405 10.2856L210.252 5.86602L211.099 1.44648C208.751 0.996401 206.524 1.52228 204.596 2.65539L206.877 6.53465ZM210.252 5.86602L209.405 10.2856L211.092 10.609L211.939 6.18948L212.787 1.76993L211.099 1.44648L210.252 5.86602ZM211.939 6.18948L211.092 10.609L212.78 10.9325L213.627 6.51294L214.474 2.09339L212.787 1.76993L211.939 6.18948ZM213.627 6.51294L212.78 10.9325C213.86 11.1395 214.941 11.3637 216.022 11.605L217.002 7.2131L217.982 2.82119C216.813 2.56024 215.644 2.31763 214.474 2.09339L213.627 6.51294ZM217.002 7.2131L216.022 11.605L217.709 11.9817L218.689 7.5898L219.67 3.19789L217.982 2.82119L217.002 7.2131ZM218.689 7.5898L217.709 11.9817L219.397 12.3584L220.377 7.9665L221.357 3.57459L219.67 3.19789L218.689 7.5898ZM220.377 7.9665L219.397 12.3584C221.315 12.7866 223.246 12.6893 225.108 12.1005L223.752 7.80978L222.396 3.51904C222.008 3.64147 221.689 3.64868 221.357 3.57459L220.377 7.9665ZM223.752 7.80978L225.108 12.1005L226.796 11.5671L225.439 7.27637L224.083 2.98562L222.396 3.51904L223.752 7.80978ZM225.439 7.27637L226.796 11.5671L228.483 11.0337L227.127 6.74295L225.771 2.45221L224.083 2.98562L225.439 7.27637ZM227.127 6.74295L228.483 11.0337C229.227 10.7986 229.936 10.6815 230.621 10.6633L230.502 6.16492L230.383 1.66649C228.818 1.70787 227.277 1.97607 225.771 2.45221L227.127 6.74295ZM230.502 6.16492L230.621 10.6633L232.308 10.6187L232.189 6.1203L232.071 1.62187L230.383 1.66649L230.502 6.16492ZM232.189 6.1203L232.308 10.6187L233.996 10.5741L233.877 6.07568L233.758 1.57725L232.071 1.62187L232.189 6.1203ZM233.877 6.07568L233.996 10.5741C234.248 10.5674 234.612 10.6196 235.143 10.9015L237.252 6.92618L239.361 2.95081C237.642 2.03932 235.756 1.52444 233.758 1.57725L233.877 6.07568ZM237.252 6.92618L235.143 10.9015L236.831 11.7966L238.939 7.82129L241.048 3.84593L239.361 2.95081L237.252 6.92618ZM238.939 7.82129L236.831 11.7966L238.518 12.6918L240.627 8.7164L242.736 4.74104L241.048 3.84593L238.939 7.82129ZM240.627 8.7164L238.518 12.6918C239.748 13.3442 241.175 13.7078 242.711 13.5717C244.224 13.4377 245.532 12.8477 246.601 12.0909L244.002 8.41747L241.403 4.74405C241.347 4.78329 241.53 4.64111 241.917 4.60677C242.329 4.57032 242.631 4.68533 242.736 4.74104L240.627 8.7164ZM244.002 8.41747L246.601 12.0909L248.289 10.8968L245.689 7.22343L243.09 3.55002L241.403 4.74405L244.002 8.41747ZM245.689 7.22343L248.289 10.8968L249.976 9.70281L247.377 6.02939L244.778 2.35598L243.09 3.55002L245.689 7.22343ZM247.377 6.02939L249.976 9.70281C249.981 9.69922 249.707 9.88744 249.207 9.90331C248.696 9.91955 248.372 9.74207 248.315 9.70544L250.752 5.92221L253.189 2.13898C252.007 1.37778 250.558 0.855877 248.922 0.907845C247.297 0.95944 245.898 1.56354 244.778 2.35598L247.377 6.02939ZM250.752 5.92221L248.315 9.70544L250.003 10.7923L252.439 7.00907L254.876 3.22584L253.189 2.13898L250.752 5.92221ZM252.439 7.00907L250.003 10.7923L251.69 11.8792L254.127 8.09592L256.564 4.31269L254.876 3.22584L252.439 7.00907ZM254.127 8.09592L251.69 11.8792C253.508 13.0497 255.636 13.7234 257.952 13.4907L257.502 9.01322L257.052 4.53577C257.048 4.53621 257.046 4.53618 257.042 4.53589C257.039 4.53559 257.024 4.53411 256.995 4.52621C256.937 4.51063 256.795 4.46148 256.564 4.31269L254.127 8.09592ZM257.502 9.01322L257.952 13.4907L259.639 13.3211L259.189 8.84367L258.74 4.36621L257.052 4.53577L257.502 9.01322ZM259.189 8.84367L259.639 13.3211L261.327 13.1516L260.877 8.67411L260.427 4.19666L258.74 4.36621L259.189 8.84367ZM260.877 8.67411L261.327 13.1516C263.204 12.9629 264.956 12.3178 266.558 11.3621L264.252 7.49769L261.946 3.63329C261.298 4.02007 260.8 4.15922 260.427 4.19666L260.877 8.67411ZM264.252 7.49769L266.558 11.3621L268.245 10.3552L265.939 6.49082L263.634 2.62642L261.946 3.63329L264.252 7.49769ZM265.939 6.49082L268.245 10.3552L269.933 9.34835L267.627 5.48395L265.321 1.61955L263.634 2.62642L265.939 6.49082ZM267.627 5.48395L269.933 9.34835C270.462 9.03266 270.776 8.99783 270.939 9.00009L271.002 4.50053L271.064 0.000959396C268.978 -0.0280337 267.042 0.592751 265.321 1.61955L267.627 5.48395ZM271.002 4.50053L270.939 9.00009L272.627 9.02353L272.689 4.52397L272.752 0.0244031L271.064 0.000959396L271.002 4.50053ZM272.689 4.52397L272.627 9.02353L274.314 9.04698L274.377 4.54741L274.439 0.0478468L272.752 0.0244031L272.689 4.52397ZM274.377 4.54741L274.314 9.04698C274.569 9.05051 274.954 9.1195 275.519 9.44224L277.752 5.53519L279.985 1.62815C278.299 0.665105 276.435 0.0755715 274.439 0.0478468L274.377 4.54741ZM277.752 5.53519L275.519 9.44224L277.207 10.4066L279.439 6.49953L281.672 2.59249L279.985 1.62815L277.752 5.53519ZM279.439 6.49953L277.207 10.4066L278.894 11.3709L281.127 7.46387L283.36 3.55682L281.672 2.59249L279.439 6.49953ZM281.127 7.46387L278.894 11.3709C280.859 12.4935 283.117 12.9695 285.47 12.4511L284.502 8.05646L283.534 3.66183C283.531 3.66247 283.54 3.66034 283.558 3.65995C283.575 3.65956 283.588 3.66121 283.593 3.66199C283.605 3.66424 283.531 3.65484 283.36 3.55682L281.127 7.46387ZM284.502 8.05646L285.47 12.4511L287.158 12.0794L286.189 7.68472L285.221 3.29009L283.534 3.66183L284.502 8.05646ZM286.189 7.68472L287.158 12.0794L288.845 11.7076L287.877 7.31298L286.909 2.91835L285.221 3.29009L286.189 7.68472ZM287.877 7.31298L288.845 11.7076C289.69 11.5216 290.522 11.4222 291.346 11.405L291.252 6.90601L291.158 2.40699C289.732 2.43677 288.314 2.60875 286.909 2.91835L287.877 7.31298ZM291.252 6.90601L291.346 11.405L293.033 11.3698L292.939 6.87078L292.846 2.37176L291.158 2.40699L291.252 6.90601ZM292.939 6.87078L293.033 11.3698L294.721 11.3346L294.627 6.83555L294.533 2.33653L292.846 2.37176L292.939 6.87078ZM294.627 6.83555L294.721 11.3346C295.738 11.3133 296.265 11.3639 296.454 11.3979L297.252 6.96917L298.05 2.54043C296.988 2.34931 295.766 2.31079 294.533 2.33653L294.627 6.83555ZM297.252 6.96917L296.454 11.3979L297.392 11.5668L298.189 7.13803L298.987 2.70929L298.05 2.54043L297.252 6.96917ZM298.189 7.13803L297.392 11.5668L298.329 11.7356L299.127 7.30689L299.925 2.87815L298.987 2.70929L298.189 7.13803ZM299.127 7.30689L298.329 11.7356C298.553 11.776 298.335 11.7481 298.032 11.6488C297.998 11.6379 297.565 11.5056 297.08 11.2039C296.923 11.1062 296.103 10.6085 295.528 9.57236C295.187 8.95884 294.873 8.04519 294.984 6.93998C295.096 5.82784 295.59 4.98115 296.072 4.4303C296.878 3.50666 297.823 3.19575 298 3.13541C298.329 3.02283 298.598 2.97455 298.719 2.95477C298.975 2.91292 299.173 2.90482 299.225 2.90268C299.443 2.89378 299.432 2.90884 298.745 2.85248L298.377 7.33744L298.009 11.8224C298.447 11.8582 299.123 11.9143 299.591 11.8952C299.675 11.8918 299.897 11.8816 300.171 11.8369C300.3 11.8157 300.577 11.7658 300.911 11.6514C301.093 11.5892 302.042 11.2762 302.85 10.3504C303.332 9.7984 303.828 8.95054 303.939 7.83718C304.05 6.73076 303.736 5.81583 303.395 5.20099C302.818 4.16225 301.995 3.66167 301.833 3.56099C301.338 3.25321 300.888 3.11396 300.832 3.09543C300.435 2.96543 300.013 2.89408 299.925 2.87815L299.127 7.30689ZM298.377 7.33744L298.745 2.85248L297.057 2.71418L296.689 7.19915L296.322 11.6841L298.009 11.8224L298.377 7.33744ZM296.689 7.19915L297.057 2.71418L295.37 2.57588L295.002 7.06085L294.634 11.5458L296.322 11.6841L296.689 7.19915ZM295.002 7.06085L295.37 2.57588C294.319 2.4898 293.268 2.3773 292.216 2.23834L291.627 6.69955L291.037 11.1608C292.236 11.3191 293.435 11.4475 294.634 11.5458L295.002 7.06085ZM291.627 6.69955L292.216 2.23834L290.529 2.01534L289.939 6.47656L289.35 10.9378L291.037 11.1608L291.627 6.69955ZM289.939 6.47656L290.529 2.01534L288.841 1.79234L288.252 6.25356L287.662 10.7148L289.35 10.9378L289.939 6.47656ZM288.252 6.25356L288.841 1.79234C286.692 1.50833 284.641 1.95869 282.796 2.92061L284.877 6.91061L286.958 10.9006C287.363 10.6891 287.562 10.7015 287.662 10.7148L288.252 6.25356ZM284.877 6.91061L282.796 2.92061L281.109 3.80066L283.189 7.79067L285.27 11.7807L286.958 10.9006L284.877 6.91061ZM283.189 7.79067L281.109 3.80066L279.421 4.68072L281.502 8.67072L283.583 12.6607L285.27 11.7807L283.189 7.79067ZM281.502 8.67072L279.421 4.68072C279.093 4.85174 278.995 4.81157 278.974 4.80769L278.127 9.22715L277.279 13.6466C279.509 14.0742 281.661 13.6631 283.583 12.6607L281.502 8.67072ZM278.127 9.22715L278.974 4.80769L277.287 4.48407L276.439 8.90353L275.592 13.323L277.279 13.6466L278.127 9.22715ZM276.439 8.90353L277.287 4.48407L275.599 4.16045L274.752 8.57991L273.904 12.9994L275.592 13.323L276.439 8.90353ZM274.752 8.57991L275.599 4.16045C273.717 3.79949 271.835 3.92553 270.019 4.50029L271.377 8.79047L272.735 13.0807C273.169 12.9432 273.537 12.9288 273.904 12.9994L274.752 8.57991ZM271.377 8.79047L270.019 4.50029L268.331 5.03448L269.689 9.32466L271.048 13.6148L272.735 13.0807L271.377 8.79047ZM269.689 9.32466L268.331 5.03448L266.644 5.56866L268.002 9.85884L269.36 14.149L271.048 13.6148L269.689 9.32466ZM268.002 9.85884L266.644 5.56866C266.628 5.57376 266.616 5.57658 266.61 5.57809C266.603 5.57959 266.6 5.58001 266.599 5.58003C266.599 5.58005 266.601 5.57985 266.604 5.57976C266.607 5.57967 266.61 5.57974 266.612 5.57989C266.617 5.58027 266.612 5.58063 266.593 5.57571C266.574 5.57063 266.533 5.55835 266.47 5.53015L264.627 9.63535L262.784 13.7405C264.867 14.676 267.131 14.8548 269.36 14.149L268.002 9.85884ZM264.627 9.63535L266.47 5.53015L264.783 4.77248L262.939 8.87767L261.096 12.9829L262.784 13.7405L264.627 9.63535ZM262.939 8.87767L264.783 4.77248L263.095 4.01481L261.252 8.12L259.409 12.2252L261.096 12.9829L262.939 8.87767ZM261.252 8.12L263.095 4.01481C261.304 3.21078 259.374 2.85574 257.379 3.07765L257.877 7.55006L258.375 12.0225C258.63 11.9941 258.949 12.019 259.409 12.2252L261.252 8.12ZM257.877 7.55006L257.379 3.07765L255.692 3.26539L256.189 7.73779L256.687 12.2102L258.375 12.0225L257.877 7.55006ZM256.189 7.73779L255.692 3.26539L254.004 3.45312L254.502 7.92553L255 12.3979L256.687 12.2102L256.189 7.73779ZM254.502 7.92553L254.004 3.45312C253.033 3.56121 252.063 3.61861 251.094 3.62566L251.127 8.12554L251.16 12.6254C252.441 12.6161 253.721 12.5402 255 12.3979L254.502 7.92553ZM251.127 8.12554L251.094 3.62566L249.407 3.63795L249.439 8.13783L249.472 12.6377L251.16 12.6254L251.127 8.12554ZM249.439 8.13783L249.407 3.63795L247.719 3.65023L247.752 8.15011L247.785 12.65L249.472 12.6377L249.439 8.13783ZM247.752 8.15011L247.719 3.65023C246.315 3.66045 244.917 3.80062 243.528 4.06767L244.377 8.48677L245.226 12.9059C246.087 12.7404 246.939 12.6562 247.785 12.65L247.752 8.15011ZM244.377 8.48677L243.528 4.06767L241.84 4.39205L242.689 8.81115L243.539 13.2302L245.226 12.9059L244.377 8.48677ZM242.689 8.81115L241.84 4.39205L240.152 4.71642L241.002 9.13552L241.851 13.5546L243.539 13.2302L242.689 8.81115ZM241.002 9.13552L240.152 4.71642C239.414 4.85838 238.69 4.89909 237.97 4.84409L237.627 9.33102L237.284 13.818C238.814 13.9348 240.34 13.8452 241.851 13.5546L241.002 9.13552ZM237.627 9.33102L237.97 4.84409L236.282 4.71521L235.939 9.20214L235.597 13.6891L237.284 13.818L237.627 9.33102ZM235.939 9.20214L236.282 4.71521L234.595 4.58633L234.252 9.07327L233.909 13.5602L235.597 13.6891L235.939 9.20214ZM234.252 9.07327L234.595 4.58633C233.476 4.5009 232.357 4.41309 231.239 4.32291L230.877 8.80836L230.515 13.2938C231.647 13.385 232.778 13.4738 233.909 13.5602L234.252 9.07327ZM230.877 8.80836L231.239 4.32291L229.551 4.18687L229.189 8.67232L228.828 13.1578L230.515 13.2938L230.877 8.80836ZM229.189 8.67232L229.551 4.18687L227.864 4.05083L227.502 8.53628L227.14 13.0217L228.828 13.1578L229.189 8.67232ZM227.502 8.53628L227.864 4.05083C226.688 3.95604 225.512 3.88137 224.335 3.82683L224.127 8.322L223.919 12.8172C224.992 12.867 226.066 12.9351 227.14 13.0217L227.502 8.53628ZM224.127 8.322L224.335 3.82683L222.648 3.74859L222.439 8.24376L222.231 12.7389L223.919 12.8172L224.127 8.322ZM222.439 8.24376L222.648 3.74859L220.96 3.67035L220.752 8.16552L220.544 12.6607L222.231 12.7389L222.439 8.24376ZM220.752 8.16552L220.96 3.67035C219.561 3.60548 218.164 3.66825 216.772 3.8573L217.377 8.31639L217.982 12.7755C218.84 12.659 219.693 12.6212 220.544 12.6607L220.752 8.16552ZM217.377 8.31639L216.772 3.8573L215.084 4.08642L215.689 8.54551L216.295 13.0046L217.982 12.7755L217.377 8.31639ZM215.689 8.54551L215.084 4.08642L213.397 4.31554L214.002 8.77462L214.607 13.2337L216.295 13.0046L215.689 8.54551ZM214.002 8.77462L213.397 4.31554C212.283 4.46674 211.169 4.61361 210.056 4.75616L210.627 9.21974L211.198 13.6833C212.335 13.5379 213.471 13.388 214.607 13.2337L214.002 8.77462ZM210.627 9.21974L210.056 4.75616L208.368 4.97215L208.939 9.43574L209.511 13.8993L211.198 13.6833L210.627 9.21974ZM208.939 9.43574L208.368 4.97215L206.681 5.18815L207.252 9.65173L207.823 14.1153L209.511 13.8993L208.939 9.43574ZM207.252 9.65173L206.681 5.18815C205.782 5.30313 204.888 5.34845 203.995 5.32505L203.877 9.8235L203.759 14.322C205.116 14.3575 206.472 14.2883 207.823 14.1153L207.252 9.65173ZM203.877 9.8235L203.995 5.32505L202.307 5.28081L202.189 9.77927L202.072 14.2777L203.759 14.322L203.877 9.8235ZM202.189 9.77927L202.307 5.28081L200.62 5.23658L200.502 9.73504L200.384 14.2335L202.072 14.2777L202.189 9.77927ZM200.502 9.73504L200.62 5.23658C199.564 5.20891 198.508 5.15687 197.452 5.08045L197.127 9.56872L196.802 14.057C197.996 14.1433 199.19 14.2022 200.384 14.2335L200.502 9.73504ZM197.127 9.56872L197.452 5.08045L195.764 4.95836L195.439 9.44663L195.115 13.9349L196.802 14.057L197.127 9.56872ZM195.439 9.44663L195.764 4.95836L194.077 4.83627L193.752 9.32454L193.427 13.8128L195.115 13.9349L195.439 9.44663ZM193.752 9.32454L194.077 4.83627C193.526 4.79643 192.915 4.64976 192.226 4.33931L190.377 8.44168L188.527 12.5441C190.089 13.248 191.728 13.6899 193.427 13.8128L193.752 9.32454ZM190.377 8.44168L192.226 4.33931L190.539 3.57854L188.689 7.68091L186.84 11.7833L188.527 12.5441L190.377 8.44168ZM188.689 7.68091L190.539 3.57854L188.851 2.81776L187.002 6.92014L185.152 11.0225L186.84 11.7833L188.689 7.68091ZM187.002 6.92014L188.851 2.81776C187.082 2.01987 185.176 1.65235 183.203 1.83917L183.627 6.31914L184.051 10.7991C184.328 10.7729 184.672 10.806 185.152 11.0225L187.002 6.92014ZM183.627 6.31914L183.203 1.83917L181.515 1.99894L181.939 6.47891L182.364 10.9589L184.051 10.7991L183.627 6.31914ZM181.939 6.47891L181.515 1.99894L179.828 2.15871L180.252 6.63868L180.676 11.1186L182.364 10.9589L181.939 6.47891ZM180.252 6.63868L179.828 2.15871C178.239 2.3091 176.691 2.70195 175.192 3.3069L176.877 7.4797L178.562 11.6525C179.313 11.3491 180.015 11.1813 180.676 11.1186L180.252 6.63868ZM176.877 7.4797L175.192 3.3069L173.505 3.98815L175.189 8.16095L176.874 12.3337L178.562 11.6525L176.877 7.4797ZM175.189 8.16095L173.505 3.98815L171.817 4.6694L173.502 8.8422L175.187 13.015L176.874 12.3337L175.189 8.16095ZM173.502 8.8422L171.817 4.6694C171.177 4.92798 170.612 5.03133 170.097 5.03474L170.127 9.53464L170.157 14.0345C171.892 14.023 173.577 13.6648 175.187 13.015L173.502 8.8422ZM170.127 9.53464L170.097 5.03474L168.41 5.04594L168.439 9.54584L168.469 14.0457L170.157 14.0345L170.127 9.53464ZM168.439 9.54584L168.41 5.04594L166.722 5.05714L166.752 9.55704L166.782 14.0569L168.469 14.0457L168.439 9.54584ZM166.752 9.55704L166.722 5.05714C166.029 5.06174 165.318 4.96886 164.579 4.76399L163.377 9.10047L162.175 13.437C163.686 13.8558 165.225 14.0673 166.782 14.0569L166.752 9.55704ZM163.377 9.10047L164.579 4.76399L162.891 4.29622L161.689 8.6327L160.487 12.9692L162.175 13.437L163.377 9.10047ZM161.689 8.6327L162.891 4.29622L161.204 3.82846L160.002 8.16494L158.8 12.5014L160.487 12.9692L161.689 8.6327ZM160.002 8.16494L161.204 3.82846C159.865 3.45727 158.515 3.18951 157.156 3.02873L156.627 7.49758L156.098 11.9664C156.989 12.0718 157.889 12.2489 158.8 12.5014L160.002 8.16494ZM156.627 7.49758L157.156 3.02873L155.468 2.82914L154.939 7.29799L154.411 11.7668L156.098 11.9664L156.627 7.49758ZM154.939 7.29799L155.468 2.82914L153.781 2.62955L153.252 7.0984L152.723 11.5673L154.411 11.7668L154.939 7.29799ZM153.252 7.0984L153.781 2.62955C152.58 2.48762 151.38 2.37624 150.179 2.29548L149.877 6.78534L149.575 11.2752C150.624 11.3457 151.673 11.4431 152.723 11.5673L153.252 7.0984ZM149.877 6.78534L150.179 2.29548L148.491 2.18202L148.189 6.67188L147.888 11.1617L149.575 11.2752L149.877 6.78534ZM148.189 6.67188L148.491 2.18202L146.804 2.06855L146.502 6.55842L146.2 11.0483L147.888 11.1617L148.189 6.67188ZM146.502 6.55842L146.804 2.06855C145.688 1.9935 144.571 1.91518 143.455 1.83362L143.127 6.32166L142.799 10.8097C143.933 10.8925 145.066 10.9721 146.2 11.0483L146.502 6.55842ZM143.127 6.32166L143.455 1.83362L141.767 1.71033L141.439 6.19837L141.112 10.6864L142.799 10.8097L143.127 6.32166ZM141.439 6.19837L141.767 1.71033L140.08 1.58704L139.752 6.07508L139.424 10.5631L141.112 10.6864L141.439 6.19837ZM139.752 6.07508L140.08 1.58704C138.641 1.4819 137.202 1.52767 135.769 1.72292L136.377 6.18172L136.984 10.6405C137.802 10.5292 138.613 10.5039 139.424 10.5631L139.752 6.07508ZM136.377 6.18172L135.769 1.72292L134.082 1.95285L134.689 6.41165L135.297 10.8705L136.984 10.6405L136.377 6.18172ZM134.689 6.41165L134.082 1.95285L132.394 2.18279L133.002 6.64159L133.609 11.1004L135.297 10.8705L134.689 6.41165ZM133.002 6.64159L132.394 2.18279C131.546 2.29844 130.702 2.33374 129.86 2.2901L129.627 6.78407L129.394 11.278C130.802 11.351 132.208 11.2913 133.609 11.1004L133.002 6.64159ZM129.627 6.78407L129.86 2.2901L128.172 2.20265L127.939 6.69662L127.707 11.1906L129.394 11.278L129.627 6.78407ZM127.939 6.69662L128.172 2.20265L126.485 2.1152L126.252 6.60917L126.019 11.1031L127.707 11.1906L127.939 6.69662ZM126.252 6.60917L126.485 2.1152C125.536 2.06602 124.584 1.96095 123.628 1.7991L122.877 6.23592L122.126 10.6727C123.42 10.892 124.718 11.0357 126.019 11.1031L126.252 6.60917ZM122.877 6.23592L123.628 1.7991L121.941 1.5133L121.189 5.95011L120.438 10.3869L122.126 10.6727L122.877 6.23592ZM121.189 5.95011L121.941 1.5133L120.253 1.22749L119.502 5.66431L118.751 10.1011L120.438 10.3869L121.189 5.95011ZM119.502 5.66431L120.253 1.22749C118.16 0.872951 116.121 1.20416 114.248 2.06536L116.127 6.15414L118.006 10.2429C118.383 10.0699 118.594 10.0746 118.751 10.1011L119.502 5.66431ZM116.127 6.15414L114.248 2.06536L112.56 2.84099L114.439 6.92976L116.319 11.0185L118.006 10.2429L116.127 6.15414ZM114.439 6.92976L112.56 2.84099L110.873 3.61662L112.752 7.70539L114.631 11.7942L116.319 11.0185L114.439 6.92976ZM112.752 7.70539L110.873 3.61662C110.005 4.01551 109.168 4.30133 108.361 4.4886L109.377 8.8723L110.393 13.256C111.836 12.9216 113.249 12.4294 114.631 11.7942L112.752 7.70539ZM109.377 8.8723L108.361 4.4886L106.673 4.87988L107.689 9.26358L108.706 13.6473L110.393 13.256L109.377 8.8723ZM107.689 9.26358L106.673 4.87988L104.986 5.27115L106.002 9.65486L107.018 14.0386L108.706 13.6473L107.689 9.26358ZM106.002 9.65486L104.986 5.27115C104.447 5.39603 103.936 5.4077 103.417 5.31507L102.627 9.74515L101.837 14.1752C103.567 14.4839 105.307 14.4354 107.018 14.0386L106.002 9.65486ZM102.627 9.74515L103.417 5.31507L101.73 5.01409L100.939 9.44417L100.149 13.8743L101.837 14.1752L102.627 9.74515ZM100.939 9.44417L101.73 5.01409L100.042 4.7131L99.252 9.14319L98.4618 13.5733L100.149 13.8743L100.939 9.44417ZM99.252 9.14319L100.042 4.7131C98.7253 4.47823 97.4035 4.33052 96.078 4.27125L95.877 8.76675L95.6759 13.2623C96.6004 13.3036 97.5287 13.4068 98.4618 13.5733L99.252 9.14319ZM95.877 8.76675L96.078 4.27125L94.3905 4.19579L94.1895 8.6913L93.9884 13.1868L95.6759 13.2623L95.877 8.76675ZM94.1895 8.6913L94.3905 4.19579L92.703 4.12033L92.502 8.61584L92.3009 13.1114L93.9884 13.1868L94.1895 8.6913ZM92.502 8.61584L92.703 4.12033C91.422 4.06306 90.1409 4.07244 88.8603 4.14845L89.127 8.64054L89.3936 13.1326C90.363 13.0751 91.3319 13.068 92.3009 13.1114L92.502 8.61584ZM89.127 8.64054L88.8603 4.14845L87.1728 4.2486L87.4395 8.7407L87.7061 13.2328L89.3936 13.1326L89.127 8.64054ZM87.4395 8.7407L87.1728 4.2486L85.4853 4.34876L85.752 8.84085L86.0186 13.3329L87.7061 13.2328L87.4395 8.7407ZM85.752 8.84085L85.4853 4.34876C84.4242 4.41174 83.3632 4.45202 82.3023 4.46961L82.377 8.96899L82.4516 13.4684C83.6407 13.4487 84.8297 13.4035 86.0186 13.3329L85.752 8.84085ZM82.377 8.96899L82.3023 4.46961L80.6148 4.49759L80.6895 8.99697L80.7641 13.4964L82.4516 13.4684L82.377 8.96899ZM80.6895 8.99697L80.6148 4.49759L78.9273 4.52557L79.002 9.02495L79.0766 13.5243L80.7641 13.4964L80.6895 8.99697ZM79.002 9.02495L78.9273 4.52557C78.4521 4.53345 77.9249 4.44546 77.315 4.19866L75.627 8.37005L73.9389 12.5414C75.579 13.2052 77.3018 13.5538 79.0766 13.5243L79.002 9.02495ZM75.627 8.37005L77.315 4.19866L75.6275 3.51578L73.9395 7.68716L72.2514 11.8586L73.9389 12.5414L75.627 8.37005ZM73.9395 7.68716L75.6275 3.51578L73.94 2.83289L72.252 7.00428L70.5639 11.1757L72.2514 11.8586L73.9395 7.68716ZM72.252 7.00428L73.94 2.83289C71.8293 1.97875 69.5835 1.8995 67.4089 2.64996L68.877 6.90377L70.345 11.1576C70.3878 11.1428 70.4126 11.1382 70.4215 11.1367C70.4265 11.136 70.4291 11.1358 70.4297 11.1357C70.4302 11.1357 70.4304 11.1357 70.4304 11.1357C70.4304 11.1357 70.4304 11.1357 70.4305 11.1357C70.4305 11.1357 70.4318 11.1357 70.4348 11.1361C70.4378 11.1365 70.4437 11.1373 70.453 11.1394C70.4709 11.1432 70.5073 11.1528 70.5639 11.1757L72.252 7.00428ZM68.877 6.90377L67.4089 2.64996L65.7214 3.23234L67.1895 7.48614L68.6575 11.74L70.345 11.1576L68.877 6.90377ZM67.1895 7.48614L65.7214 3.23234L64.0339 3.81472L65.5019 8.06852L66.97 12.3223L68.6575 11.74L67.1895 7.48614ZM65.5019 8.06852L64.0339 3.81472C63.46 4.01279 62.9529 4.07008 62.4767 4.03296L62.1269 8.51935L61.7772 13.0057C63.551 13.144 65.2939 12.9008 66.97 12.3223L65.5019 8.06852ZM62.1269 8.51935L62.4767 4.03296L60.7892 3.90141L60.4395 8.3878L60.0897 12.8742L61.7772 13.0057L62.1269 8.51935ZM60.4395 8.3878L60.7892 3.90141L59.1017 3.76986L58.752 8.25625L58.4022 12.7426L60.0897 12.8742L60.4395 8.3878ZM58.752 8.25625L59.1017 3.76986C57.8195 3.66991 56.5364 3.63755 55.2529 3.67294L55.377 8.17123L55.501 12.6695C56.4675 12.6429 57.4344 12.6672 58.4022 12.7426L58.752 8.25625ZM55.377 8.17123L55.2529 3.67294L53.5654 3.71946L53.6894 8.21775L53.8135 12.716L55.501 12.6695L55.377 8.17123ZM53.6894 8.21775L53.5654 3.71946L51.8779 3.76598L52.0019 8.26427L52.126 12.7626L53.8135 12.716L53.6894 8.21775ZM52.0019 8.26427L51.8779 3.76598C50.8751 3.79363 49.8722 3.78046 48.869 3.72642L48.6269 8.21991L48.3849 12.7134C49.6317 12.7805 50.8788 12.7969 52.126 12.7626L52.0019 8.26427ZM48.6269 8.21991L48.869 3.72642L47.1815 3.63553L46.9394 8.12902L46.6974 12.6225L48.3849 12.7134L48.6269 8.21991ZM46.9394 8.12902L47.1815 3.63553L45.494 3.54464L45.252 8.03812L45.0099 12.5316L46.6974 12.6225L46.9394 8.12902ZM45.252 8.03812L45.494 3.54464C44.6948 3.50159 43.8821 3.37157 43.0513 3.14697L41.877 7.49102L40.7026 11.8351C42.1218 12.2188 43.5591 12.4535 45.0099 12.5316L45.252 8.03812ZM41.877 7.49102L43.0513 3.14697L41.3638 2.69076L40.1894 7.03481L39.0151 11.3789L40.7026 11.8351L41.877 7.49102ZM40.1894 7.03481L41.3638 2.69076L39.6763 2.23455L38.5019 6.5786L37.3275 10.9227L39.0151 11.3789L40.1894 7.03481ZM38.5019 6.5786L39.6763 2.23455C37.0862 1.5343 34.6344 2.16632 32.622 3.51479L35.1269 7.25314L37.6319 10.9915C37.7902 10.8854 37.8087 10.9094 37.6964 10.9319C37.6419 10.9428 37.574 10.9495 37.4997 10.9469C37.4257 10.9443 37.3663 10.9331 37.3275 10.9227L38.5019 6.5786ZM35.1269 7.25314L32.622 3.51479L30.9345 4.64554L33.4394 8.38388L35.9444 12.1222L37.6319 10.9915L35.1269 7.25314ZM33.4394 8.38388L30.9345 4.64554L29.247 5.77628L31.752 9.51462L34.2569 13.253L35.9444 12.1222L33.4394 8.38388ZM31.752 9.51462L29.247 5.77628C29.3031 5.73866 29.6499 5.53861 30.2046 5.55589C30.7464 5.57277 31.0419 5.78347 31.0358 5.779L28.377 9.40947L25.7181 13.0399C26.837 13.8594 28.2575 14.4996 29.9243 14.5515C31.604 14.6039 33.0758 14.0444 34.2569 13.253L31.752 9.51462ZM28.377 9.40947L31.0358 5.779L29.3483 4.54311L26.6895 8.17358L24.0306 11.8041L25.7181 13.0399L28.377 9.40947ZM26.6895 8.17358L29.3483 4.54311L27.6608 3.30722L25.002 6.93769L22.3431 10.5682L24.0306 11.8041L26.6895 8.17358ZM25.002 6.93769L27.6608 3.30722C25.9212 2.03312 23.8286 1.18174 21.4742 1.2617L21.627 5.75911L21.7797 10.2565C21.754 10.2574 21.7626 10.2497 21.8309 10.2735C21.9088 10.3007 22.0801 10.3756 22.3431 10.5682L25.002 6.93769ZM21.627 5.75911L21.4742 1.2617L19.7867 1.31902L19.9395 5.81642L20.0922 10.3138L21.7797 10.2565L21.627 5.75911ZM19.9395 5.81642L19.7867 1.31902L18.0992 1.37633L18.252 5.87374L18.4047 10.3711L20.0922 10.3138L19.9395 5.81642ZM18.252 5.87374L18.0992 1.37633C16.5309 1.42959 14.9884 1.71173 13.4824 2.20259L14.877 6.48107L16.2715 10.7595C17.0155 10.517 17.723 10.3943 18.4047 10.3711L18.252 5.87374ZM14.877 6.48107L13.4824 2.20259L11.7949 2.75261L13.1895 7.03108L14.584 11.3096L16.2715 10.7595L14.877 6.48107ZM13.1895 7.03108L11.7949 2.75261L10.1074 3.30263L11.502 7.5811L12.8965 11.8596L14.584 11.3096L13.1895 7.03108ZM11.502 7.5811L10.1074 3.30263C9.55157 3.48381 9.31153 3.44171 9.27773 3.43496L8.39613 7.84776L7.51452 12.2606C9.37184 12.6316 11.2023 12.4118 12.8965 11.8596L11.502 7.5811ZM8.39613 7.84776L9.27773 3.43496L7.8594 3.1516L6.9778 7.5644L6.09619 11.9772L7.51452 12.2606L8.39613 7.84776ZM6.9778 7.5644L7.8594 3.1516L6.44107 2.86824L5.55946 7.28104L4.67786 11.6938L6.09619 11.9772L6.9778 7.5644ZM5.55946 7.28104L6.44107 2.86824C5.9351 2.76716 5.83268 2.73523 5.91787 2.76098C5.93118 2.765 6.13927 2.82544 6.40659 2.94822C6.51141 2.99636 6.87909 3.16622 7.28774 3.48742C7.49252 3.64837 7.88406 3.98293 8.24206 4.51813C8.61157 5.07052 9.09664 6.07631 8.98398 7.39768C8.74999 10.1421 6.42693 11.0817 6.27182 11.1477C5.74151 11.3736 5.29573 11.4383 5.17936 11.4552C4.8684 11.5005 4.63538 11.4977 4.62196 11.4977V6.99768V2.49768C4.5284 2.49768 4.23503 2.49785 3.8835 2.549C3.74684 2.56888 3.28572 2.63724 2.74501 2.86755C2.57951 2.93804 0.251006 3.88279 0.0165119 6.6331C-0.0964003 7.95742 0.389655 8.96635 0.76138 9.52206C1.1216 10.0606 1.51661 10.3986 1.72607 10.5633C2.14412 10.8919 2.52613 11.0698 2.65022 11.1268C2.95611 11.2673 3.22254 11.3484 3.31397 11.3761C3.71166 11.4963 4.23827 11.606 4.67786 11.6938L5.55946 7.28104ZM4.62196 6.99768V11.4977H5.10279V6.99768V2.49768H4.62196V6.99768ZM5.10279 6.99768V11.4977H5.58362V6.99768V2.49768H5.10279V6.99768ZM5.58362 6.99768V11.4977C6.3405 11.4977 7.45158 11.3317 8.47145 11.1665L7.75195 6.72435L7.03245 2.28224C6.49659 2.36904 6.09184 2.42831 5.80333 2.46468C5.65944 2.48282 5.56398 2.49277 5.50798 2.49766C5.43748 2.50381 5.47769 2.49768 5.58362 2.49768V6.99768ZM7.75195 6.72435L8.47145 11.1665L10.159 10.8931L9.43945 6.45102L8.71995 2.00892L7.03245 2.28224L7.75195 6.72435Z" fill="#E6E4C3"/>
</svg>
