<svg width="37" height="39" viewBox="0 0 37 39" fill="none" xmlns="http://www.w3.org/2000/svg">
<path d="M12.6273 11.6631C12.1545 11.6827 14.2443 11.6982 13.9489 11.7221C13.6535 11.746 12.545 11.7496 12.7944 11.777C13.0438 11.8044 12.2856 11.8318 12.741 11.844C13.1966 11.8562 11.8192 11.8574 12.1251 11.8748C12.431 11.8921 12.2512 11.9026 11.8035 11.9177C11.3558 11.9329 10.9736 11.9794 11.5236 11.9963C12.0735 12.0132 11.1192 12.0325 10.8929 12.0441C10.8224 12.0477 10.7259 12.0506 10.6256 12.0528C10.583 12.0537 10.494 12.0541 10.4061 12.0541C10.406 12.0541 10.406 12.0541 10.4059 12.0541C10.2965 12.0541 10.1889 12.0534 10.175 12.0523C10.1079 12.0465 9.93084 12.0379 9.53398 12.0277C8.79398 12.0087 9.61171 12.0067 9.23146 11.981C8.85121 11.9554 8.09101 11.94 8.58259 11.9099C9.07413 11.8797 7.01706 11.8728 8.18285 11.8302C9.34856 11.7877 7.19723 11.7832 6.91115 11.7408C6.62509 11.6984 7.81209 11.6449 7.71367 11.6193C7.61524 11.5937 7.36464 11.5594 7.64856 11.5232C7.93247 11.4869 7.21578 11.4422 7.72235 11.4022C8.22891 11.3622 8.86871 11.3056 9.29743 11.2795C9.72615 11.2534 9.82285 11.247 9.56089 11.2219C9.41031 11.2074 9.55224 11.1875 10.106 11.1707C10.3847 11.1622 10.7728 11.1641 10.9585 11.1727C11.23 11.1851 11.0486 11.1953 11.5335 11.2018C12.5028 11.2146 12.8746 11.22 12.3105 11.2362C11.7464 11.2524 13.0283 11.2601 12.8808 11.2695C12.7331 11.2789 11.977 11.2788 12.5596 11.3268C13.1422 11.3748 13.2908 11.4011 13.4307 11.4193C13.5705 11.4375 12.9143 11.4754 13.1512 11.505C13.388 11.5347 13.1709 11.5949 13.5587 11.6192C13.9465 11.6434 13.1001 11.6435 12.6273 11.6631ZM35.0881 31.2136C34.9468 31.4885 34.8059 31.7619 34.6624 32.0303C33.7361 33.7142 33.0363 35.6073 31.139 37.089C30.047 37.8889 28.714 38.2921 27.5572 38.3198C24.7094 38.3195 24.0328 37.5279 22.1554 37.3396C21.5792 37.2737 20.9044 37.2556 20.0525 37.3153C17.4009 37.5009 14.7481 37.1282 12.911 37.1134C12.2782 37.1084 11.7407 37.1452 11.3285 37.2597C9.68108 37.6788 9.61844 36.4083 7.087 36.4281C6.20753 36.4009 5.33148 36.2082 4.5739 35.8209C3.21454 35.119 2.27021 34.0673 1.62514 32.6125C1.50738 32.3415 1.36249 32.0058 1.22102 31.6143C0.314453 29.1975 0.869381 25.8924 0.657167 23.5652C0.614866 22.8779 0.542054 22.2816 0.431735 21.8402C-0.118254 19.6396 0.836047 17.1297 1.06238 15.6203C1.13288 15.1502 1.22936 14.7802 1.32974 14.4965C1.3723 14.3763 1.46134 14.3208 1.54923 14.3208C1.54929 14.3208 1.54934 14.3208 1.5494 14.3208C1.65883 14.3208 1.76643 14.4069 1.78026 14.5613C1.84738 15.311 2.02446 16.4314 2.42132 17.7551C3.14158 20.1572 2.3861 20.4768 2.69591 23.5652C2.7044 23.6512 2.71369 23.7383 2.72384 23.8265C3.07153 26.4808 3.48542 28.6881 4.08327 30.1563C4.26136 30.5435 4.47302 30.9527 4.75586 31.3913C5.17043 32.0283 5.73235 32.3589 6.26327 32.5048C7.56407 32.7605 8.95592 31.8634 12.911 32.66C12.9812 32.6741 13.0521 32.6886 13.1238 32.7038C17.642 33.6553 18.8602 32.3967 22.1554 31.7465C22.8983 31.5995 23.744 31.487 24.7045 31.4209C26.197 31.3325 27.7396 31.2247 28.0811 31.0866C28.8144 30.812 29.5045 30.3083 29.983 29.6463C30.6495 28.9912 30.8618 26.1848 30.8237 24.8142C30.8129 24.4172 30.7987 24.0001 30.7836 23.5652C30.6915 20.9245 30.5619 17.7244 30.6686 14.3208C30.6893 13.6566 30.7194 12.9933 30.7549 12.3371C30.8525 10.6819 30.748 8.70775 30.3019 8.07672C29.8579 7.2937 29.151 6.66418 28.3446 6.28112C27.7574 5.94362 25.8204 5.82983 24.0568 5.64686C23.4569 5.58289 22.8216 5.52151 22.1554 5.45863C19.1731 5.17598 15.7882 4.8673 12.911 4.58386C10.9997 4.3952 9.33861 4.21881 8.21876 4.1705C7.11892 4.11883 6.37883 4.20168 5.77934 4.4317C4.64141 4.90925 3.76548 5.58306 3.05969 7.20851C3.03707 7.26562 3.01526 7.32475 2.99476 7.38508C2.47737 8.80723 2.42421 11.4316 1.84945 13.6099C1.57051 14.7074 1.18209 14.4625 0.997309 13.3512C0.726255 11.7233 0.932468 10.3952 0.529667 9.47284C-0.0130647 8.21272 -0.261726 7.16934 0.389488 5.84831C0.663904 5.31937 1.09866 4.76795 1.7734 4.24197C3.03093 3.28928 3.70758 2.51611 4.44476 1.81226C5.02812 1.29434 5.65329 0.907933 6.32169 0.828431C7.75551 0.721915 8.0105 1.26547 12.911 0.918699C13.3268 0.888557 13.7775 0.851137 14.2666 0.805501C17.6182 0.492773 20.1569 0.305082 22.1554 0.176669C23.884 0.06638 25.2322 -0.0026591 26.4646 3.5505e-05C27.4173 0.0390506 28.949 0.0460019 30.978 1.11187C32.6898 2.05913 34.2501 3.68696 35.1618 5.60088C35.9295 7.20583 36.0309 8.65198 36.1821 9.77917C36.3399 11.0958 36.3629 12.6577 36.3821 14.3208C36.4164 17.5145 36.4056 21.1697 36.56 23.5652C36.5899 24.0295 36.6259 24.4497 36.6688 24.812C36.9618 28.0822 36.4154 28.0562 35.0881 31.2136Z" fill="#DBFFF9"/>
<path d="M9.31927 21.1194C9.55569 20.8986 8.51077 20.7249 8.65847 20.4559C8.80616 20.1868 9.36044 20.1465 9.23572 19.8384C9.11104 19.5303 9.49014 19.2221 9.26242 19.0849C9.03463 18.9477 9.72332 18.9333 9.57036 18.7384C9.41742 18.5437 9.50731 18.4256 9.73117 18.2552C9.95502 18.0849 10.1461 17.5614 9.87114 17.3711C9.59615 17.1808 10.0733 16.9637 10.1865 16.8332C10.2217 16.7925 10.27 16.7605 10.3201 16.736C10.3414 16.7256 10.3859 16.7208 10.4299 16.7208C10.4299 16.7208 10.4299 16.7208 10.43 16.7208C10.4847 16.7208 10.5385 16.7282 10.5454 16.7416C10.579 16.8064 10.6675 16.9033 10.8659 17.0178C11.2359 17.2313 10.8271 17.2546 11.0172 17.5428C11.2073 17.8311 11.5874 18.0042 11.3416 18.3434C11.0959 18.6825 12.1244 18.7604 11.5415 19.2392C10.9586 19.7179 12.0343 19.7683 12.1773 20.2454C12.3204 20.7224 11.7269 21.3246 11.7761 21.6122C11.8253 21.8998 11.9506 22.2861 11.8086 22.6937C11.6667 23.1014 12.025 23.6047 11.7717 24.0547C11.5185 24.5048 11.1986 25.141 10.9842 25.4349C10.7698 25.7288 10.7215 25.8005 10.8525 26.0834C10.9278 26.246 10.8568 26.47 10.5799 26.6593C10.4406 26.7545 10.2465 26.7329 10.1537 26.6371C10.0179 26.4969 10.1086 26.3818 9.86615 26.3096C9.38154 26.1653 9.19563 26.104 9.47769 25.9218C9.75972 25.7396 9.11877 25.6537 9.19254 25.5475C9.26635 25.4413 9.64441 25.4431 9.35313 24.9031C9.06184 24.3631 8.98751 24.067 8.91758 23.8625C8.84765 23.658 9.17577 23.231 9.05734 22.8977C8.93891 22.5644 9.04745 21.8869 8.85356 21.6138C8.65969 21.3406 9.08286 21.3401 9.31927 21.1194ZM16.4304 23.8578C16.6668 23.745 15.6219 23.6562 15.7696 23.5187C15.9173 23.3812 16.4715 23.3606 16.3468 23.2031C16.2221 23.0457 16.6013 22.8881 16.3735 22.818C16.1457 22.7479 16.8344 22.7405 16.6815 22.6409C16.5285 22.5414 16.6184 22.481 16.8423 22.3939C17.0661 22.3069 17.2572 22.0393 16.9823 21.9421C16.7073 21.8448 17.1844 21.7338 17.2976 21.6671C17.3328 21.6463 17.3811 21.63 17.4313 21.6174C17.4525 21.6121 17.4971 21.6097 17.541 21.6097C17.541 21.6097 17.5411 21.6097 17.5411 21.6097C17.5958 21.6097 17.6496 21.6135 17.6565 21.6203C17.6901 21.6534 17.7786 21.703 17.977 21.7615C18.347 21.8706 17.9382 21.8825 18.1283 22.0298C18.3184 22.1771 18.6985 22.2657 18.4527 22.439C18.207 22.6123 19.2355 22.6522 18.6526 22.8968C18.0698 23.1415 19.1454 23.1673 19.2885 23.4111C19.4315 23.6549 18.838 23.9627 18.8872 24.1097C18.9364 24.2567 19.0617 24.4541 18.9198 24.6625C18.7778 24.8709 19.1361 25.1281 18.8829 25.3581C18.6296 25.5881 18.3097 25.9133 18.0953 26.0636C17.881 26.2138 17.8326 26.2504 17.9636 26.395C18.0389 26.4781 17.9679 26.5926 17.691 26.6893C17.5517 26.738 17.3576 26.727 17.2648 26.678C17.1291 26.6063 17.2197 26.5475 16.9773 26.5106C16.4926 26.4369 16.3067 26.4055 16.5888 26.3124C16.8708 26.2193 16.2299 26.1754 16.3036 26.1211C16.3775 26.0668 16.7555 26.0677 16.4642 25.7917C16.1729 25.5157 16.0986 25.3644 16.0287 25.2599C15.9588 25.1554 16.2869 24.9371 16.1685 24.7668C16.05 24.5964 16.1586 24.2501 15.9647 24.1105C15.7708 23.9709 16.194 23.9706 16.4304 23.8578ZM16.4304 18.8712C16.6668 18.7633 15.6219 18.6783 15.7696 18.5468C15.9173 18.4153 16.4715 18.3956 16.3468 18.245C16.2221 18.0943 16.6013 17.9436 16.3735 17.8766C16.1457 17.8095 16.8344 17.8024 16.6815 17.7072C16.5285 17.612 16.6184 17.5542 16.8423 17.4709C17.0661 17.3877 17.2572 17.1318 16.9823 17.0387C16.7073 16.9457 17.1844 16.8395 17.2976 16.7757C17.3328 16.7558 17.3811 16.7402 17.4313 16.7282C17.4525 16.7231 17.4971 16.7208 17.541 16.7208C17.541 16.7208 17.5411 16.7208 17.5411 16.7208C17.5958 16.7208 17.6496 16.7244 17.6565 16.7309C17.6901 16.7626 17.7786 16.81 17.977 16.866C18.347 16.9703 17.9382 16.9817 18.1283 17.1227C18.3184 17.2636 18.6985 17.3482 18.4527 17.514C18.207 17.6799 19.2355 17.7179 18.6526 17.952C18.0698 18.186 19.1454 18.2107 19.2885 18.4439C19.4315 18.6771 18.838 18.9715 18.8872 19.1121C18.9364 19.2527 19.0617 19.4416 18.9198 19.6409C18.7778 19.8402 19.1361 20.0863 18.8829 20.3063C18.6296 20.5263 18.3097 20.8373 18.0953 20.981C17.881 21.1247 17.8326 21.1597 17.9636 21.2981C18.0389 21.3776 17.9679 21.4871 17.691 21.5796C17.5517 21.6261 17.3576 21.6156 17.2648 21.5687C17.1291 21.5002 17.2197 21.444 16.9773 21.4086C16.4926 21.3381 16.3067 21.3081 16.5888 21.219C16.8708 21.13 16.2299 21.088 16.3036 21.0361C16.3775 20.9842 16.7555 20.985 16.4642 20.721C16.1729 20.457 16.0986 20.3123 16.0287 20.2123C15.9588 20.1123 16.2869 19.9035 16.1685 19.7406C16.05 19.5777 16.1586 19.2464 15.9647 19.1129C15.7708 18.9794 16.194 18.9791 16.4304 18.8712ZM25.2674 19.0869C25.2185 19.5917 26.3206 19.6934 26.2691 20.3005C26.1986 20.8695 25.6487 20.9811 25.8047 21.5222C25.9552 22.0694 25.5745 22.5915 25.8033 22.8192C25.9608 22.9777 25.6815 23.037 25.5436 23.1652C25.4816 23.2225 25.4482 23.2935 25.4956 23.3931C25.6486 23.7144 25.5587 23.9091 25.3348 24.19C25.1109 24.471 24.9198 25.3343 25.1948 25.6482C25.4698 25.9621 24.9927 26.3201 24.8795 26.5354C24.8443 26.6025 24.796 26.6552 24.7458 26.6957C24.7245 26.7128 24.68 26.7208 24.6361 26.7208C24.6361 26.7208 24.636 26.7208 24.636 26.7208C24.5813 26.7208 24.5275 26.7085 24.5206 26.6865C24.487 26.5795 24.3985 26.4197 24.2 26.2309C23.83 25.8788 24.2389 25.8404 24.0488 25.365C23.8587 24.8896 23.4786 24.604 23.7243 24.0446C23.8902 23.6671 23.4756 23.4859 23.3678 23.1652C23.3157 23.0103 23.3352 22.8257 23.5233 22.5739C24.0964 21.8028 23.0244 21.7181 22.8244 21.0961C22.6329 20.4827 22.9859 19.8195 22.8116 19.7112C22.6501 19.6207 22.5199 19.6497 22.1082 19.4561C22.0205 19.416 21.9169 19.4029 21.7997 19.4077C21.3654 19.4252 20.9522 19.6738 20.4994 19.627C19.9033 19.546 19.0498 19.7697 18.6426 19.9829C18.2336 20.178 18.1176 20.2908 18.1042 20.7108C18.1016 20.9544 17.9764 21.2207 17.6924 21.512C17.551 21.6598 17.3556 21.6361 17.2677 21.4606C17.142 21.2006 17.2652 21.006 17.055 20.8245C16.64 20.4537 16.5111 20.2089 16.9231 19.9526C17.3306 19.7274 16.8729 19.2623 17.0772 19.089C17.3005 18.9436 17.4974 19.1239 18.1615 18.178C18.9043 17.2558 19.5432 17.0094 19.9287 16.8135C20.3106 16.6286 21.1462 16.7537 21.7997 16.7082C21.8521 16.704 21.9036 16.6985 21.954 16.6915C22.3087 16.6418 22.8894 16.6812 23.5024 16.9007C24.1179 17.1077 24.6831 17.5447 25.0048 17.7797C25.6517 18.2745 25.2767 18.5485 25.2674 19.0869Z" fill="#DBFFF9"/>
</svg>
