<svg width="43" height="40" viewBox="0 0 43 40" fill="none" xmlns="http://www.w3.org/2000/svg">
<path d="M23.9745 38.7848C20.9769 38.5032 18.6171 39.7479 14.9633 39.572C12.58 39.4572 11.5185 39.1364 9.90711 38.9684C8.90174 38.8687 7.71611 38.7246 6.12066 38.1327C1.43997 36.4373 0.0753777 31.1389 0.0868892 29.0008C0.0776968 28.9109 0.0672385 28.8252 0.0554044 28.7439C-0.215935 26.8809 0.604423 26.6843 0.422219 24.0386C0.240039 21.3931 0.347119 19.7897 0.613768 17.4759C0.777606 16.0542 0.926719 12.8224 0.941369 9.94202C0.934707 8.01716 1.58175 6.32007 2.02292 5.34206C3.14441 2.61192 6.5706 1.39225 8.33817 1.33132C8.90741 1.27156 9.35943 1.30162 9.69719 1.35277C9.84109 1.37487 9.90718 1.42881 9.90711 1.48098C9.90711 1.48101 9.90711 1.48105 9.90711 1.48108C9.90687 1.5465 9.80621 1.60927 9.62884 1.62314C8.77286 1.68564 7.45909 1.99346 6.266 2.88228C5.17827 3.71782 4.66402 4.21905 4.05747 4.82587C3.49292 5.44388 2.76427 6.22723 2.39051 7.99965C2.25927 8.68797 2.24298 9.33558 2.29686 9.94202C2.52043 12.7189 2.76776 14.966 2.53211 18.6732C2.26938 22.8069 3.2292 24.0829 2.92695 29.0008C2.89266 29.466 2.88562 29.9758 2.93617 30.5394C3.20787 32.9754 4.54528 34.1897 5.70131 34.8121C6.91539 35.4222 8.16039 35.6378 9.90711 35.4916C10.563 35.441 11.2877 35.4018 12.1045 35.3804C18.5838 35.21 26.7625 35.917 30.6683 35.8583C31.1407 35.8512 31.6327 35.8428 32.1424 35.8338C35.1342 35.9139 38.8369 33.117 38.9607 29.0754C38.9619 29.0506 38.963 29.0258 38.9639 29.0008C39.1255 23.4803 38.705 16.6867 39.0051 10.6086C39.0159 10.3895 39.0268 10.1672 39.0378 9.94202C39.4965 6.47948 35.9052 2.37932 32.1424 2.40547C30.253 2.30954 28.5935 2.2195 27.3704 2.14127C23.3786 1.88593 22.4057 1.82834 18.5634 1.98436C16.3548 2.07404 13.3122 1.98951 10.7422 1.65968C9.44884 1.49369 9.74192 1.26257 11.0437 1.15198C12.9474 0.990282 14.5102 1.09831 15.4911 0.809468C17.4511 0.232209 18.2841 0.0107635 20.7585 0.34675C23.2328 0.682696 24.3987 -0.0807961 25.841 0.00707899C27.1007 0.0838582 27.2422 0.437038 32.1424 0.294214C32.9504 0.274214 33.8834 0.338974 34.9232 0.601301C40.5405 2.16417 42.2986 7.03958 42.3102 9.94202C42.3486 11.2247 42.377 12.2913 42.4049 13.2192C42.4882 15.9966 42.0973 21.796 42.2384 26.3223C42.2625 27.0956 42.2787 28.0054 42.2902 29.0008C42.8003 34.3556 36.474 39.7038 32.1424 39.2742C31.5976 39.292 31.1082 39.3135 30.689 39.3396C26.9797 39.5705 26.9721 39.0664 23.9745 38.7848Z" fill="#FFF6D3"/>
<path d="M23.2126 18.343C23.7659 18.3459 24.0278 17.7579 24.2771 17.2697L24.2876 17.2637C24.5098 16.9344 24.7767 16.6313 25.1911 16.4697C26.3067 16.0347 26.7884 16.5198 27.8923 15.7176C28.9962 14.9155 30.3986 14.634 30.7884 14.0988C31.1781 13.5635 31.6405 14.2441 32.2947 13.6603C32.9489 13.0765 33.4533 12.9115 34.2368 12.7707C35.0204 12.63 37.134 11.684 37.699 10.9837C38.2639 10.2835 39.3758 10.3026 39.9417 10.1344C40.1179 10.082 40.2688 10.062 40.3922 10.0603C40.4445 10.0596 40.4892 10.0951 40.5152 10.1405C40.5152 10.1406 40.5152 10.1406 40.5152 10.1406C40.5476 10.1972 40.5509 10.2691 40.5039 10.3055C40.2759 10.4818 39.9579 10.7851 39.6376 11.2405C39.0404 12.0895 38.7095 11.7177 37.7201 12.5441C36.7308 13.3705 36.2935 14.142 34.8519 14.6288C33.4102 15.1157 33.7205 16.3495 31.546 16.7928C29.3715 17.236 29.8148 18.4585 28.0758 19.6488C27.5237 20.0267 26.8796 20.3554 26.2232 20.6498L26.2346 20.6431C24.4857 21.4994 22.6013 21.5213 21.593 21.6064C21.4044 21.625 21.207 21.6401 21.0016 21.6495C19.5827 21.7277 17.6929 21.4533 16.1132 20.3919C16.0656 20.3603 16.0179 20.3284 15.9699 20.2963C14.5099 19.3042 12.4465 18.5787 10.9191 17.3646C9.35018 16.1176 7.10942 14.3939 6.11365 13.5288C5.11793 12.6637 4.87292 12.4569 3.71467 11.9728C3.04889 11.6945 2.2352 11.1307 1.67642 10.4302C1.3952 10.0777 1.59257 9.92442 2.0137 10.0384C2.62954 10.205 3.01534 10.5506 3.43486 10.4582C4.27319 10.2734 4.61762 10.2155 5.14646 10.906C5.67528 11.5963 6.38288 11.1219 6.74485 11.4307C7.1068 11.7395 6.87618 12.1263 9.11143 13.0077C11.3467 13.8891 12.5215 14.4604 13.3441 14.8359C14.1667 15.2114 15.6034 16.4855 16.9466 17.0928C17.1488 17.1842 17.3777 17.298 17.6247 17.4268C18.5792 17.9602 20.0882 18.3567 21.0016 18.2099C21.1461 18.1918 21.2744 18.1649 21.3819 18.1316C22.2811 17.8164 22.3372 18.3042 23.2126 18.343Z" fill="#FFF6D3"/>
</svg>
