<svg width="62" height="37" viewBox="0 0 62 37" fill="none" xmlns="http://www.w3.org/2000/svg">
<path d="M11.7415 35.4323C9.48244 34.3572 7.39448 33.7878 5.17922 31.5578C5.13827 31.5153 5.09743 31.4723 5.05671 31.4286C2.97317 28.9881 2.89488 28.4288 1.33236 25.1899C0.242819 22.7128 -0.0215854 19.9737 0.000887692 18.1257C0.00231695 17.4878 0.0246513 16.9475 0.0270107 16.5354C0.0820384 14.9196 0.439245 14.7979 0.974405 12.611C1.59521 10.4343 2.30199 9.1994 3.50404 7.64191C3.93779 7.09227 4.70256 6.14838 5.69091 5.20532C7.45468 3.44687 10.0661 1.93873 11.3359 1.32347C13.2929 0.27762 15.8578 0.0527513 17.3318 0.0384784C17.7954 0.0257694 18.1604 0.0439319 18.4388 0.0693313C18.5568 0.0802379 18.6113 0.105578 18.6113 0.13024C18.6113 0.130256 18.6113 0.130272 18.6113 0.130288C18.6112 0.161147 18.5272 0.190963 18.3768 0.196749C17.6482 0.224531 16.5528 0.335848 15.3177 0.683688C13.0632 1.41944 12.6873 1.19239 9.88733 2.76506C8.35326 3.71708 7.31773 4.66809 6.26194 5.77635C5.45113 6.64361 4.62579 7.61789 3.7185 8.96885C1.86799 12.1466 1.8211 13.1643 1.25341 18.1257C1.24946 18.192 1.24574 18.259 1.24228 18.3268C1.3402 23.5557 2.21106 24.1731 5.00393 28.3369C5.48034 28.9515 6.01011 29.563 6.58917 30.1479C9.74951 33.5261 14.7968 35.2823 17.4365 35.3239C17.8128 35.3463 18.2048 35.3567 18.6113 35.3524C21.5581 35.3447 25.2794 34.4202 28.4951 32.2268C29.2878 31.6926 30.0689 31.0514 30.8008 30.3152C33.4857 27.6686 35.2905 23.7078 35.7584 19.921C35.8349 19.3513 35.8862 18.749 35.9038 18.1257C36.2296 13.3772 33.434 7.93565 31.394 5.90623C31.3031 5.80383 31.2138 5.70559 31.126 5.6111C29.0568 3.53128 28.2997 2.97824 25.5342 1.77297C23.8543 1.08339 21.4302 0.442098 19.3033 0.227982C18.2343 0.128754 18.4691 0.00993019 19.5654 -5.21541e-05C21.1718 0.00756327 22.4555 0.341192 23.2897 0.420771C24.9546 0.613285 25.7241 0.754189 27.5285 1.88113C29.2859 3.0556 30.2602 3.42747 31.1755 4.28689C31.4218 4.52659 31.5834 4.7154 31.7845 4.95256C32.2367 5.62765 33.3872 6.34694 35.5292 10.3933C37.0093 13.4553 37.3439 16.099 37.3894 18.1257C37.4163 19.8874 37.211 21.2358 36.9821 22.3322C36.6021 24.5549 34.6161 28.7557 31.8745 31.3889C31.6697 31.597 31.4642 31.7978 31.2592 31.9913C28.8727 34.6315 22.3962 37.2014 18.6113 36.977C18.1359 36.9854 17.709 36.9776 17.3426 36.9653C14.1081 36.7303 14.1208 36.4054 11.7415 35.4323ZM41.3351 31.6402C40.324 30.2704 39.1657 29.3334 38.5279 27.3368C37.9715 25.3416 38.2041 24.9804 37.7631 22.7205C37.4631 21.0287 37.4939 19.3064 37.5009 18.1257C37.5023 17.7167 37.4989 17.3779 37.4739 17.1128C37.3864 16.0858 37.7654 15.9966 37.8232 14.5543C37.9026 13.1107 38.1114 12.2355 38.5287 11.0371C38.8689 9.80737 40.3948 6.23704 41.3237 5.10133C42.1011 3.83686 43.7971 3.123 44.7698 3.07139C45.0741 3.03467 45.3158 3.04652 45.4981 3.06991C45.5757 3.08007 45.6114 3.10562 45.6113 3.13024C45.6113 3.13026 45.6113 3.13027 45.6113 3.13029C45.6112 3.1612 45.5568 3.19072 45.4608 3.19777C44.9988 3.22847 44.295 3.39475 43.6406 3.86639C42.5145 4.80801 42.1941 4.75261 41.119 6.49419C40.1675 8.31927 39.9539 9.54719 39.2655 11.8683C38.6792 14.2079 39.1179 14.8342 38.7534 18.1257C38.7495 18.1695 38.7454 18.2138 38.7414 18.2585C38.5189 21.7015 39.1406 22.0684 39.9674 25.2849C40.7368 28.5095 43.0246 32.2749 44.958 32.3055C45.1651 32.3397 45.3822 32.3566 45.6113 32.3524C47.2941 32.401 49.0942 30.8135 50.2332 28.6211C51.6029 26.1293 52.0893 22.4956 52.3308 19.3126C52.3612 18.9333 52.3861 18.5389 52.4038 18.1257C52.5849 15.047 52.0628 11.275 51.5087 9.48786C50.8884 7.48065 50.6923 6.92971 49.4126 5.37975C48.6558 4.51162 47.4086 3.49653 46.0513 3.23677C45.3774 3.12435 45.5117 2.99693 46.2425 3.01832C47.3204 3.09294 48.0712 3.62378 48.5889 3.83518C49.6258 4.30352 50.0906 4.64046 50.7434 5.88649C51.3436 7.14094 51.8983 7.59184 52.1696 8.36186C52.3634 9.1453 52.4146 9.13498 53.3211 13.0624C53.7472 15.1881 53.8488 16.8333 53.8894 18.1257C53.9197 19.2402 53.8898 20.0997 53.8522 20.8097C53.7894 22.3477 53.1453 25.5089 52.2507 27.8911C51.6825 29.9604 48.7874 34.2117 45.6113 33.977C45.2603 33.9855 44.9463 33.961 44.6775 33.9254C42.3377 33.3864 42.4787 32.9122 41.3351 31.6402ZM55.1466 29.1135C54.9147 27.8191 54.153 26.9231 54.0259 25.3272C54.0175 25.2133 54.0116 25.1051 54.0076 25.0018L54.0063 24.9901C53.993 24.4202 54.0313 24.0364 54.0565 23.6408L54.0547 23.6214C54.0744 23.3995 54.09 23.1738 54.091 22.9089L54.09 22.8952C54.0975 22.5777 54.085 22.2034 54.0355 21.7109C54.0255 21.6115 54.0164 21.5121 54.0081 21.4127L54.0073 21.3978C53.9913 21.1368 53.9808 20.8768 53.9738 20.621L53.9735 20.6098C53.9672 20.0344 53.9787 19.4808 53.9858 18.9857L53.9856 18.9717C54.0106 18.2841 54.0244 17.7093 53.9651 17.3448C53.9615 17.3226 53.9583 17.3009 53.9555 17.2797L53.9557 17.2651C53.883 16.6087 54.1713 16.4606 54.1871 15.6464C54.1905 15.5474 54.1905 15.4475 54.1863 15.3375C54.1798 15.1681 54.176 15.0088 54.1749 14.8572L54.1754 14.8458C54.1836 14.2929 54.2243 13.842 54.2949 13.3686L54.2957 13.3571C54.3346 13.1336 54.3802 12.9052 54.4328 12.6586C54.4413 12.6178 54.4493 12.5831 54.4575 12.548C54.521 12.2759 54.5995 11.8418 54.6783 11.3343C54.8905 10.0343 55.2445 8.29657 55.3642 7.50037C55.5077 6.38553 56.2431 5.20653 56.9391 4.75018C57.1514 4.60562 57.3654 4.56051 57.5179 4.57368C57.5832 4.57892 57.6115 4.60589 57.6113 4.63024C57.6113 4.63026 57.6113 4.63027 57.6113 4.63029C57.6108 4.66148 57.5707 4.68945 57.5027 4.70344C57.1548 4.76061 56.7872 5.20442 56.5969 5.80643C56.2843 6.94375 56.034 6.99895 55.7558 8.61178C55.601 9.67173 55.6023 10.4723 55.5182 11.4292C55.4918 11.8237 55.447 12.2557 55.3722 12.7475C55.3556 12.8667 55.3363 12.9987 55.3149 13.1354C55.2983 13.2411 55.2842 13.3425 55.2724 13.4402L55.2732 13.4282C55.2164 14.0138 55.2353 14.4651 55.2647 14.9121L55.2654 14.8991C55.2879 15.1537 55.3138 15.4068 55.3316 15.6828L55.3319 15.6718C55.3679 16.1179 55.3836 16.6244 55.3317 17.2956L55.3319 17.2797C55.3162 17.5643 55.2891 17.8786 55.2471 18.2307C55.215 18.4998 55.1919 18.7452 55.1763 18.9717L55.1762 18.9593C55.1451 19.6262 55.1759 20.1278 55.2363 20.5818C55.2758 20.8384 55.3257 21.0879 55.3794 21.3449L55.3786 21.3295C55.4785 21.76 55.5898 22.2113 55.6857 22.7983L55.6844 22.7801C55.7237 22.9936 55.7614 23.2252 55.7961 23.4806L55.7939 23.4565C55.8163 23.5956 55.8382 23.7418 55.8591 23.8961C55.8982 24.184 55.9336 24.4804 55.9657 24.7822L55.9644 24.7702C56.2149 27.1818 56.7218 30.2875 57.5034 30.8064C57.5812 30.8616 57.6148 30.8572 57.6113 30.8524C57.5835 30.865 57.7707 30.7815 57.9528 30.4964C58.1347 30.2264 58.3062 29.8509 58.4535 29.452C58.7516 28.642 58.9823 27.6986 59.1951 26.7229C59.3256 26.1212 59.4214 25.4766 59.4951 24.7974L59.4937 24.8105C59.5334 24.3748 59.5709 23.9296 59.6086 23.4794L59.6074 23.4922C59.6232 23.258 59.6391 23.0224 59.6554 22.7862L59.654 22.8053C59.676 22.3134 59.6999 21.8183 59.7291 21.3254L59.7282 21.3435C59.7378 21.0827 59.749 20.8225 59.7622 20.5637L59.7618 20.5768C59.7796 20.0647 59.8055 19.5581 59.8438 19.0629C59.8466 19.0272 59.8494 18.9912 59.8521 18.955L59.852 18.9664C59.8689 18.6945 59.8862 18.4114 59.9039 18.1207V18.1308C59.9167 17.8546 59.9298 17.5715 59.943 17.2844C59.9596 16.7604 59.9763 16.2125 59.9931 15.6695C59.9972 15.4176 60.001 15.1574 60.0049 14.9004L60.0055 14.9122C60.0019 14.398 59.9987 13.8968 59.9966 13.4252C59.9912 13.1894 59.9856 12.9525 59.9805 12.726L59.9814 12.7363C59.9574 12.2299 59.9373 11.7752 59.9232 11.3985C59.9202 11.3342 59.9169 11.2689 59.9137 11.2066C59.8085 9.53458 59.7784 9.11192 59.3049 7.57696C58.996 6.73181 58.7127 5.41242 57.9169 4.78264C57.7048 4.64978 57.5823 4.63466 57.617 4.58496C57.6442 4.54404 57.8575 4.48996 58.1438 4.63142C58.9426 5.10772 59.1059 5.8394 59.4117 6.16243C59.9791 6.86352 60.1911 7.21492 60.2819 8.29582C60.3545 9.37272 60.7767 9.80397 60.8275 10.4303C60.8486 10.7235 60.8119 10.8814 60.8231 11.296C60.8271 11.5843 60.8526 11.9859 60.9329 12.6354L60.9341 12.6489C60.9546 12.8567 60.98 13.0897 61.0112 13.3523L61.012 13.3636C61.0362 13.6072 61.0648 13.8763 61.0988 14.1741C61.125 14.4041 61.15 14.6263 61.174 14.8412L61.1747 14.8552C61.1988 15.1251 61.2214 15.3834 61.2428 15.6307L61.2431 15.6418C61.2851 16.2433 61.3204 16.7803 61.3507 17.2632L61.3508 17.2744C61.3652 17.5768 61.3779 17.8579 61.3893 18.1202V18.1313C61.3983 18.4375 61.4058 18.7183 61.4125 18.9775L61.4123 18.9896C61.4173 19.4558 61.4205 19.8523 61.4244 20.2021C61.4258 20.3259 61.4244 20.4637 61.4208 20.6136L61.4204 20.6275C61.411 20.8609 61.3958 21.1234 61.3772 21.407L61.3763 21.4257C61.3367 21.8752 61.2874 22.3777 61.2386 22.9018L61.2372 22.9208C61.2101 23.1519 61.183 23.3872 61.1568 23.624L61.1557 23.6366C61.0994 24.0796 61.0465 24.5279 61.0035 24.9638L61.0021 24.9767C60.9688 25.2641 60.9369 25.5431 60.9081 25.812C60.8142 26.6744 60.6174 27.9295 60.2464 29.2016C60.0579 29.8363 59.8328 30.476 59.4929 31.0832C59.1606 31.6431 58.6552 32.4251 57.6113 32.477C57.1178 32.4845 56.7443 32.2782 56.513 32.1185C55.5664 31.3426 55.5596 30.8933 55.4156 30.51C55.313 30.1201 55.2733 29.7673 55.1466 29.1135ZM22.8099 28.7027C24.3126 28.2201 25.0863 27.1024 26.3924 25.9068C26.4174 25.8834 26.4425 25.8599 26.4679 25.8363C27.7623 24.5223 28.2493 24.4428 29.1013 22.4143C29.6814 20.8896 30.0065 19.2669 30.0009 18.1257C30.0023 17.7353 29.9717 17.4044 29.9178 17.1581C29.6808 16.2097 30.0794 16.0301 29.6074 14.6875C29.0869 13.3757 28.7403 12.6074 28.1509 11.5057C27.9372 11.1175 27.505 10.4726 26.9041 9.83295C25.8358 8.64246 24.1313 7.63887 23.2565 7.39803C21.9298 6.97238 20.4299 6.40736 19.4488 6.28771C19.1477 6.24667 18.9092 6.2136 18.7255 6.1835C18.6476 6.17083 18.6114 6.14598 18.6113 6.12123C18.6113 6.12121 18.6113 6.12119 18.6113 6.12118C18.6113 6.09045 18.6678 6.05989 18.7692 6.05728C19.2611 6.04479 19.9979 6.03451 20.8843 6.08863C22.5338 6.25799 22.6862 6.47178 24.7029 7.39997C25.8233 7.97462 26.6604 8.52112 27.4752 9.26191C28.0997 9.83974 28.7124 10.5463 29.2744 11.5695C30.3687 13.8948 31.3479 14.4024 31.2534 18.1257C31.2495 18.174 31.2451 18.2227 31.2403 18.2719C30.6053 21.9625 31.0428 22.5927 28.9993 25.921C28.6528 26.4033 28.2503 26.8751 27.8024 27.3168C25.3156 29.8898 21.3968 30.7909 19.481 30.8578C19.2029 30.8802 18.9127 30.8948 18.6113 30.8991C16.4354 30.9515 13.6004 30.3266 11.276 28.5911C10.705 28.1699 10.1329 27.691 9.58764 27.1494C7.59686 25.2231 6.076 22.2996 5.92134 19.4543C5.89374 19.0297 5.88608 18.5837 5.9038 18.1257C5.90613 14.6214 8.16953 10.8921 9.70848 9.6151C9.77798 9.54971 9.84607 9.48717 9.91276 9.42716C11.4781 8.1152 11.9818 7.79348 13.8387 6.85214C14.9665 6.30945 16.6983 5.92733 18.1443 6.04585C18.8701 6.11002 18.6974 6.21328 17.9885 6.29295C16.9533 6.42321 16.1054 6.55837 15.6255 6.82612C14.6798 7.38126 14.3279 7.6041 13.0925 8.07196C11.8587 8.58755 11.5943 9.29397 11.0099 9.7531C10.8486 9.88452 10.7236 9.9705 10.5713 10.0857C10.2239 10.4118 9.39166 10.8088 8.24404 13.3873C7.46818 15.3214 7.36039 16.9131 7.38936 18.1257C7.42316 19.1782 7.57518 19.9724 7.73882 20.6152C8.01383 21.899 8.96945 24.5117 10.6613 26.0758C10.7867 26.1979 10.9137 26.3142 11.0416 26.4243C12.5237 27.9285 16.3615 29.511 18.6113 29.2744C18.8926 29.266 19.144 29.2452 19.3584 29.2185C21.2356 28.9076 21.2745 29.0985 22.8099 28.7027ZM45.8125 23.9089C46.1267 23.271 45.6684 22.6191 45.8743 21.8199C46.0701 21.0086 46.3962 20.9085 46.3931 19.9275C46.3857 19.2743 46.477 18.6217 46.4967 18.1257C46.5066 17.8791 46.4991 17.672 46.454 17.5276C46.3161 17.0943 46.705 17.0358 46.5873 16.4157C46.4652 15.7992 46.4823 15.4254 46.5434 14.8696C46.6229 14.3152 46.4098 12.6259 46.0651 12.0928C45.7497 11.5596 45.7558 10.8315 45.6358 10.4183C45.6329 10.4079 45.6301 10.3976 45.6274 10.3876C45.6296 10.3807 45.6308 10.3733 45.6289 10.3655C45.6267 10.3568 45.6207 10.3477 45.6113 10.341C45.6006 10.3332 45.5858 10.3288 45.5701 10.3293C45.5628 10.3295 45.5554 10.3307 45.5481 10.3328C45.5258 10.339 45.4982 10.3425 45.4752 10.3329C45.4752 10.3329 45.4752 10.3329 45.4751 10.3329C45.4472 10.3233 45.4273 10.2749 45.4755 10.2276C45.4812 10.2223 45.4872 10.2172 45.4936 10.2125C45.525 10.1889 45.5657 10.1719 45.6113 10.1684C45.6527 10.1652 45.6981 10.1734 45.7399 10.1959C45.7786 10.2167 45.814 10.2499 45.8381 10.2934C45.9387 10.4445 46.0671 10.6257 46.2225 10.826C46.6667 11.4197 46.484 11.5678 46.8348 12.4611C47.1664 13.3621 47.484 13.9112 47.4761 15.0521C47.4451 16.1797 48.0499 16.4175 47.741 18.0163C47.7333 18.0536 47.7262 18.0901 47.7195 18.1257C47.4243 19.6029 48.0064 19.8111 47.9258 21.3997C47.8457 23.0371 46.9705 24.9796 46.5876 25.8859C46.5441 25.9985 46.4977 26.1156 46.4476 26.2363L46.4422 26.2478C46.3242 26.5273 45.9797 26.783 45.6263 26.7812C45.2749 26.7999 44.901 26.5533 44.7699 26.2528L44.7649 26.2422C44.3712 25.453 44.0075 24.4606 43.8368 23.3982C43.6073 22.0323 43.2426 20.3555 43.3593 18.8484C43.3763 18.6191 43.3964 18.3759 43.4196 18.1257C43.5376 16.7347 43.8143 15.1041 44.0444 14.3067C44.3139 13.3646 44.3845 13.1459 44.5485 12.2222C44.6468 11.6924 44.9239 10.9892 45.3166 10.4823C45.515 10.2282 45.5826 10.3406 45.5085 10.6432C45.4028 11.0859 45.2342 11.4174 45.2913 11.6792C45.4098 12.2008 45.4588 12.3995 45.1688 12.9185C44.8831 13.4454 45.1919 13.784 45.0958 14.1023C45.0133 14.4244 44.7515 14.387 44.7768 16.1141C44.8006 16.9502 44.8435 17.6017 44.8784 18.1257C44.9165 18.6819 44.9494 19.0917 44.9831 19.4233C45.0435 20.0645 44.9615 21.4272 45.2221 22.4408C45.4087 23.2487 45.7767 24.7042 46.2386 25.5708L46.2334 25.5595C46.1431 25.3373 45.8479 25.1425 45.5846 25.1607C45.3179 25.1598 45.0583 25.36 44.974 25.5523L44.9682 25.565C45.0106 25.4511 45.0445 25.3469 45.0691 25.2561C45.2728 24.4517 45.4876 24.5313 45.8125 23.9089Z" fill="#CDFFCB"/>
</svg>
