<svg width="157" height="63" viewBox="0 0 157 63" fill="none" xmlns="http://www.w3.org/2000/svg">
<g clip-path="url(#clip0_692_127054)">
<path d="M4.37109 4.58789H151.371V58.5879H4.37109V4.58789Z" fill="white"/>
<circle cx="-67.6289" cy="82.5879" r="78" fill="#FFD11D"/>
<path d="M40.6591 19.7079C41.1071 19.7079 41.5551 19.8759 42.0031 20.2119C42.4671 20.5319 42.6991 20.8439 42.6991 21.1479C42.6991 21.4519 42.6351 21.7879 42.5071 22.1559C42.3951 22.5239 42.2031 22.9879 41.9311 23.5479C41.6751 24.0919 41.4111 24.6279 41.1391 25.1559C40.8831 25.6679 40.5391 26.3479 40.1071 27.1959C39.6751 28.0279 39.2991 28.7719 38.9791 29.4279C38.6591 30.0839 38.2991 30.8599 37.8991 31.7559C37.5151 32.6519 37.1951 33.3879 36.9391 33.9639C36.6831 34.5239 36.4111 35.0759 36.1231 35.6199C35.5631 36.7079 35.0191 37.2519 34.4911 37.2519C34.2511 37.2519 33.9151 37.0759 33.4831 36.7239C33.0671 36.3719 32.7871 36.0199 32.6431 35.6679C32.1791 34.4359 31.5631 31.8679 30.7951 27.9639C30.0271 24.0599 29.6431 21.7079 29.6431 20.9079C29.6431 20.1079 29.8591 19.7079 30.2911 19.7079C30.8351 19.7079 31.3951 19.9399 31.9711 20.4039C32.5471 20.8679 32.9951 21.4839 33.3151 22.2519C33.4431 22.5719 33.5631 23.2519 33.6751 24.2919C33.8031 25.3159 33.9471 26.5959 34.1071 28.1319C34.2831 29.6519 34.4671 30.9559 34.6591 32.0439C36.2751 27.6599 37.5471 24.5079 38.4751 22.5879C39.4191 20.6679 40.1471 19.7079 40.6591 19.7079ZM44.0965 21.9159C44.0965 21.4999 44.2805 21.0759 44.6485 20.6439C45.0325 20.1959 45.4005 19.9719 45.7525 19.9719C46.1205 19.9719 46.5525 20.4039 47.0485 21.2679C47.5445 22.1319 47.7925 22.7639 47.7925 23.1639C47.7925 23.5479 47.6645 23.8439 47.4085 24.0519C47.1525 24.2599 46.8885 24.3639 46.6165 24.3639C46.1525 24.3639 45.6165 24.0599 45.0085 23.4519C44.4005 22.8439 44.0965 22.3319 44.0965 21.9159ZM44.4565 24.9159C45.0165 24.9159 45.5125 25.2359 45.9445 25.8759C46.3925 26.5159 46.6165 27.1319 46.6165 27.7239C46.6165 28.0279 46.3365 29.1239 45.7765 31.0119C45.2325 32.8839 44.6885 34.6599 44.1445 36.3399C43.9525 36.9639 43.5605 37.2759 42.9685 37.2759C42.6165 37.2759 42.3045 37.1479 42.0325 36.8919C41.7765 36.6199 41.6485 36.2759 41.6485 35.8599C41.6485 35.4279 41.8485 34.3719 42.2485 32.6919C42.6645 30.9959 42.9765 29.5559 43.1845 28.3719C43.4085 27.1719 43.6085 26.2999 43.7845 25.7559C43.9765 25.1959 44.2005 24.9159 44.4565 24.9159ZM55.6349 24.9399C56.2429 24.9399 56.8429 25.2999 57.4349 26.0199C58.0269 26.7399 58.3229 27.3879 58.3229 27.9639C58.3229 28.3479 58.1549 28.5399 57.8189 28.5399C57.6269 28.5399 57.3469 28.4679 56.9789 28.3239C56.6109 28.1639 56.2349 28.0839 55.8509 28.0839C55.4829 28.0839 54.9309 28.2119 54.1949 28.4679C53.4749 28.7239 53.1149 29.0599 53.1149 29.4759C53.1149 29.6359 53.3309 29.8679 53.7629 30.1719C54.1949 30.4759 54.6669 30.7879 55.1789 31.1079C55.6909 31.4279 56.1629 31.8759 56.5949 32.4519C57.0269 33.0119 57.2429 33.6279 57.2429 34.2999C57.2429 34.9559 56.7549 35.6199 55.7789 36.2919C54.8189 36.9639 53.6829 37.2999 52.3709 37.2999C51.0749 37.2999 49.9629 37.0039 49.0349 36.4119C48.1069 35.8199 47.6429 35.2119 47.6429 34.5879C47.6429 33.9639 47.8989 33.6519 48.4109 33.6519C48.6189 33.6519 48.8669 33.7319 49.1549 33.8919C49.9549 34.3559 50.9469 34.5879 52.1309 34.5879C53.3309 34.5879 53.9309 34.4279 53.9309 34.1079C53.9309 33.7879 53.6989 33.4359 53.2349 33.0519C52.7869 32.6519 52.2909 32.2839 51.7469 31.9479C51.2189 31.6119 50.7229 31.2039 50.2589 30.7239C49.8109 30.2279 49.5869 29.7479 49.5869 29.2839C49.5869 28.4199 50.3709 27.4839 51.9389 26.4759C53.5069 25.4519 54.7389 24.9399 55.6349 24.9399ZM61.534 21.9159C61.534 21.4999 61.718 21.0759 62.086 20.6439C62.47 20.1959 62.838 19.9719 63.19 19.9719C63.558 19.9719 63.99 20.4039 64.486 21.2679C64.982 22.1319 65.23 22.7639 65.23 23.1639C65.23 23.5479 65.102 23.8439 64.846 24.0519C64.59 24.2599 64.326 24.3639 64.054 24.3639C63.59 24.3639 63.054 24.0599 62.446 23.4519C61.838 22.8439 61.534 22.3319 61.534 21.9159ZM61.894 24.9159C62.454 24.9159 62.95 25.2359 63.382 25.8759C63.83 26.5159 64.054 27.1319 64.054 27.7239C64.054 28.0279 63.774 29.1239 63.214 31.0119C62.67 32.8839 62.126 34.6599 61.582 36.3399C61.39 36.9639 60.998 37.2759 60.406 37.2759C60.054 37.2759 59.742 37.1479 59.47 36.8919C59.214 36.6199 59.086 36.2759 59.086 35.8599C59.086 35.4279 59.286 34.3719 59.686 32.6919C60.102 30.9959 60.414 29.5559 60.622 28.3719C60.846 27.1719 61.046 26.2999 61.222 25.7559C61.414 25.1959 61.638 24.9159 61.894 24.9159ZM71.6324 27.7719C71.5044 28.2039 71.3124 28.8119 71.0564 29.5959C70.8164 30.3639 70.5124 31.3319 70.1444 32.4999C69.7924 33.6679 69.6164 34.2919 69.6164 34.3719C69.6164 34.4359 69.7444 34.4679 70.0004 34.4679C70.2724 34.4679 70.9044 34.2919 71.8964 33.9399C72.8884 33.5719 73.4724 33.3879 73.6484 33.3879C74.0484 33.3879 74.2484 33.6599 74.2484 34.2039C74.2484 34.7479 73.7124 35.4039 72.6404 36.1719C71.5684 36.9239 70.4484 37.2999 69.2804 37.2999C68.7684 37.2999 68.1604 37.0199 67.4564 36.4599C66.7524 35.8999 66.4004 35.3319 66.4004 34.7559C66.4004 34.2759 66.6404 33.2679 67.1204 31.7319C67.6164 30.1799 67.9524 29.1159 68.1284 28.5399C67.5044 28.7159 67.0324 28.8039 66.7124 28.8039C66.3924 28.8039 66.0564 28.5879 65.7044 28.1559C65.3524 27.7079 65.1764 27.2839 65.1764 26.8839C65.1764 26.3719 66.4164 25.9399 68.8964 25.5879C69.2004 24.0999 69.3524 22.8119 69.3524 21.7239C69.3524 21.2439 69.5924 21.0039 70.0724 21.0039C70.4884 21.0039 71.0164 21.2599 71.6564 21.7719C72.3124 22.2679 72.6404 22.7639 72.6404 23.2599C72.6404 23.7399 72.5364 24.4199 72.3284 25.2999C73.0964 25.2679 73.6804 25.2519 74.0804 25.2519C75.2804 25.2519 75.8804 25.5239 75.8804 26.0679C75.8804 26.4199 75.5284 26.7239 74.8244 26.9799C74.1364 27.2199 73.0724 27.4839 71.6324 27.7719ZM96.8549 32.3079C96.8549 33.6679 96.2069 34.8359 94.9109 35.8119C93.6149 36.7879 92.1349 37.2759 90.4709 37.2759C88.8069 37.2759 87.4629 36.8679 86.4389 36.0519C85.4309 35.2199 84.9269 34.3639 84.9269 33.4839C84.9269 32.6039 85.1749 32.1639 85.6709 32.1639C86.0549 32.1639 86.4549 32.3559 86.8709 32.7399C87.2869 33.1239 87.7509 33.5079 88.2629 33.8919C88.7909 34.2759 89.3829 34.4679 90.0389 34.4679C90.6949 34.4679 91.4389 34.1959 92.2709 33.6519C93.1029 33.1079 93.5189 32.6519 93.5189 32.2839C93.5189 31.9159 93.0629 31.2999 92.1509 30.4359C91.2549 29.5719 90.3509 28.6839 89.4389 27.7719C88.5429 26.8439 88.0949 26.1319 88.0949 25.6359C88.0949 25.1239 88.1829 24.5719 88.3589 23.9799C88.5509 23.3879 88.7829 22.9799 89.0549 22.7559C89.9189 21.9079 91.0309 21.1799 92.3909 20.5719C93.7669 19.9479 94.9749 19.6359 96.0149 19.6359C96.6229 19.6359 97.1269 19.8999 97.5269 20.4279C97.9269 20.9399 98.1269 21.4759 98.1269 22.0359C98.1269 22.2599 97.9429 22.4439 97.5749 22.5879C97.2229 22.7159 96.7029 22.8519 96.0149 22.9959C95.3429 23.1399 94.6549 23.3479 93.9509 23.6199C92.3189 24.2279 91.5029 24.7399 91.5029 25.1559C91.5029 25.3479 91.7829 25.6999 92.3429 26.2119C92.9029 26.7079 93.5109 27.2359 94.1669 27.7959C94.8389 28.3399 95.4549 29.0359 96.0149 29.8839C96.5749 30.7159 96.8549 31.5239 96.8549 32.3079ZM101.073 21.9159C101.073 21.4999 101.257 21.0759 101.625 20.6439C102.009 20.1959 102.377 19.9719 102.729 19.9719C103.097 19.9719 103.529 20.4039 104.025 21.2679C104.521 22.1319 104.769 22.7639 104.769 23.1639C104.769 23.5479 104.641 23.8439 104.385 24.0519C104.129 24.2599 103.865 24.3639 103.593 24.3639C103.129 24.3639 102.593 24.0599 101.985 23.4519C101.377 22.8439 101.073 22.3319 101.073 21.9159ZM101.433 24.9159C101.993 24.9159 102.489 25.2359 102.921 25.8759C103.369 26.5159 103.593 27.1319 103.593 27.7239C103.593 28.0279 103.313 29.1239 102.753 31.0119C102.209 32.8839 101.665 34.6599 101.121 36.3399C100.929 36.9639 100.537 37.2759 99.9451 37.2759C99.5931 37.2759 99.2811 37.1479 99.0091 36.8919C98.7531 36.6199 98.6251 36.2759 98.6251 35.8599C98.6251 35.4279 98.8251 34.3719 99.2251 32.6919C99.6411 30.9959 99.9531 29.5559 100.161 28.3719C100.385 27.1719 100.585 26.2999 100.761 25.7559C100.953 25.1959 101.177 24.9159 101.433 24.9159ZM111.171 27.7719C111.043 28.2039 110.851 28.8119 110.595 29.5959C110.355 30.3639 110.051 31.3319 109.683 32.4999C109.331 33.6679 109.155 34.2919 109.155 34.3719C109.155 34.4359 109.283 34.4679 109.539 34.4679C109.811 34.4679 110.443 34.2919 111.435 33.9399C112.427 33.5719 113.011 33.3879 113.187 33.3879C113.587 33.3879 113.787 33.6599 113.787 34.2039C113.787 34.7479 113.251 35.4039 112.179 36.1719C111.107 36.9239 109.987 37.2999 108.819 37.2999C108.307 37.2999 107.699 37.0199 106.995 36.4599C106.291 35.8999 105.939 35.3319 105.939 34.7559C105.939 34.2759 106.179 33.2679 106.659 31.7319C107.155 30.1799 107.491 29.1159 107.667 28.5399C107.043 28.7159 106.571 28.8039 106.251 28.8039C105.931 28.8039 105.595 28.5879 105.243 28.1559C104.891 27.7079 104.715 27.2839 104.715 26.8839C104.715 26.3719 105.955 25.9399 108.435 25.5879C108.739 24.0999 108.891 22.8119 108.891 21.7239C108.891 21.2439 109.131 21.0039 109.611 21.0039C110.027 21.0039 110.555 21.2599 111.195 21.7719C111.851 22.2679 112.179 22.7639 112.179 23.2599C112.179 23.7399 112.075 24.4199 111.867 25.2999C112.635 25.2679 113.219 25.2519 113.619 25.2519C114.819 25.2519 115.419 25.5239 115.419 26.0679C115.419 26.4199 115.067 26.7239 114.363 26.9799C113.675 27.2199 112.611 27.4839 111.171 27.7719ZM126.536 29.4039C126.536 30.1879 126 30.8919 124.928 31.5159C123.872 32.1399 122.784 32.4519 121.664 32.4519C120.544 32.4519 119.624 32.3719 118.904 32.2119C118.76 32.6439 118.688 33.0759 118.688 33.5079C118.688 33.9399 118.76 34.2519 118.904 34.4439C119.048 34.6199 119.408 34.7079 119.984 34.7079C121.184 34.7079 122.208 34.5959 123.056 34.3719C123.92 34.1479 124.368 34.0359 124.4 34.0359C125.056 34.0359 125.384 34.2519 125.384 34.6839C125.384 35.3079 124.864 35.8999 123.824 36.4599C122.8 37.0199 121.608 37.2999 120.248 37.2999C118.904 37.2999 117.824 36.8759 117.008 36.0279C116.192 35.1799 115.784 34.1799 115.784 33.0279C115.784 31.8599 116.12 30.6439 116.792 29.3799C117.48 28.1159 118.336 27.0599 119.36 26.2119C120.384 25.3479 121.4 24.9159 122.408 24.9159C123.432 24.9159 124.376 25.4199 125.24 26.4279C126.104 27.4199 126.536 28.4119 126.536 29.4039ZM123.752 29.0199C123.752 28.8599 123.584 28.6279 123.248 28.3239C122.912 28.0199 122.592 27.8679 122.288 27.8679C122 27.8679 121.624 28.0839 121.16 28.5159C120.696 28.9319 120.256 29.4759 119.84 30.1479C119.984 30.1639 120.192 30.1719 120.464 30.1719C122.656 30.1719 123.752 29.7879 123.752 29.0199Z" fill="black"/>
</g>
<path d="M18.9961 3.82518L19.4632 6.78858L18.9961 3.82518ZM30.2461 4.70723L30.2055 7.70695L30.2461 4.70723ZM36.9961 3.58271L37.3248 0.600782L36.9961 3.58271ZM79.7461 5.17123L78.0395 7.63851L79.7461 5.17123ZM81.9961 5.177L80.2981 2.7038L81.9961 5.177ZM86.4961 3.27466L85.4582 6.08941L86.4961 3.27466ZM102.246 3.6382L100.484 1.2104L102.246 3.6382ZM104.496 3.05141L103.896 5.9907L104.496 3.05141ZM111.246 4.02463L110.995 7.01409L111.246 4.02463ZM149.252 5.63565L149.758 2.67859L149.252 5.63565ZM151.015 5.93714L150.509 8.8942L151.015 5.93714ZM151.926 7.21289L148.927 7.29218L151.926 7.21289ZM151.986 9.46289L154.985 9.3836L151.986 9.46289ZM151.419 11.7129L148.769 10.3071L151.419 11.7129ZM150.225 13.9629L152.876 15.3687L150.225 13.9629ZM150.425 16.2129L152.874 14.4801L150.425 16.2129ZM152.017 18.4629L149.568 20.1957L152.017 18.4629ZM152.088 20.7129L149.566 19.0885L152.088 20.7129ZM151.364 21.8379L153.886 23.4623L151.364 21.8379ZM150.639 22.9629L153.161 24.5873L150.639 22.9629ZM150.027 25.2129L147.042 25.5128L150.027 25.2129ZM150.253 27.4629L153.238 27.163L150.253 27.4629ZM153.036 34.2129L156.036 34.2546L153.036 34.2129ZM153.005 36.4629L156.004 36.5046L153.005 36.4629ZM152.346 38.7129L154.951 40.2014L152.346 38.7129ZM151.703 39.8379L149.098 38.3494L151.703 39.8379ZM151.06 40.9629L153.665 42.4514L151.06 40.9629ZM150.665 43.2129L153.595 42.5675L150.665 43.2129ZM151.161 45.4629L148.231 46.1083L151.161 45.4629ZM151.432 47.7129L154.432 47.6503L151.432 47.7129ZM151.456 48.8379L154.455 48.7753L151.456 48.8379ZM151.479 49.9629L148.48 50.0255L151.479 49.9629ZM150.735 56.1587L148.057 54.8073L150.735 56.1587ZM150.159 57.3003L152.837 58.6517L150.159 57.3003ZM148.746 57.7225L148.353 60.6966L148.746 57.7225ZM146.496 57.4251L146.889 54.451L146.496 57.4251ZM144.246 57.8632L145.633 60.5232L144.246 57.8632ZM141.996 59.0366L140.609 56.3766L141.996 59.0366ZM139.746 59.4075L139.181 62.3538L139.746 59.4075ZM138.621 59.1918L139.186 56.2455V56.2455L138.621 59.1918ZM137.496 58.976L136.931 61.9224L137.496 58.976ZM135.246 59.1164L136.151 61.9765L135.246 59.1164ZM134.121 59.4725L133.216 56.6124L134.121 59.4725ZM130.746 59.6797L131.975 56.9429L130.746 59.6797ZM128.496 58.6694L127.267 61.4062L128.496 58.6694ZM126.246 58.2895L125.914 55.3079L126.246 58.2895ZM123.996 58.5398L124.328 61.5214L123.996 58.5398ZM121.746 58.6731L121.724 55.6732L121.746 58.6731ZM119.496 58.6895L119.518 61.6894L119.496 58.6895ZM117.246 58.914L116.68 55.9679L117.246 58.914ZM114.996 59.3465L115.562 62.2925L114.996 59.3465ZM112.746 59.4768L112.518 62.4681L112.746 59.4768ZM111.621 59.3909L111.85 56.3996L111.621 59.3909ZM108.246 59.1283L108.487 56.138L108.246 59.1283ZM105.996 58.947L105.755 61.9373L105.996 58.947ZM103.746 58.8041L103.607 61.8009L103.746 58.8041ZM101.496 58.6998L101.357 61.6966L101.496 58.6998ZM99.2461 58.8004L98.8425 55.8276L99.2461 58.8004ZM96.9961 59.1059L97.3997 62.0786L96.9961 59.1059ZM94.7461 59.4026L95.127 62.3783L94.7461 59.4026ZM92.4961 59.6906L92.1152 56.7149L92.4961 59.6906ZM85.7461 59.6353L85.9626 56.6431L85.7461 59.6353ZM81.2461 58.8839L82.4791 56.149L81.2461 58.8839ZM78.9961 57.8695L77.7631 60.6044L78.9961 57.8695ZM76.7461 57.4689L76.4633 54.4822L76.7461 57.4689ZM74.4961 57.6819L74.7789 60.6685L74.4961 57.6819ZM72.2461 58.2426L73.3691 61.0244L72.2461 58.2426ZM69.9961 59.1509L71.1191 61.9328L69.9961 59.1509ZM67.7461 59.6125L67.7262 56.6126L67.7461 59.6125ZM65.4961 59.6275L65.516 62.6274L65.4961 59.6275ZM63.2461 59.3231L62.4447 62.2141L63.2461 59.3231ZM60.9961 58.6994L61.7975 55.8084L60.9961 58.6994ZM58.7461 58.2545L59.0985 55.2753L58.7461 58.2545ZM56.4961 57.9884L56.1437 60.9676L56.4961 57.9884ZM54.2461 57.7797L54.4474 54.7864L54.2461 57.7797ZM51.9961 57.6284L51.7948 60.6216L51.9961 57.6284ZM42.9961 57.6838L43.4011 60.6564L42.9961 57.6838ZM36.2461 57.4134L36.7471 54.4555L36.2461 57.4134ZM33.9961 57.0323L34.4971 54.0744L33.9961 57.0323ZM31.7461 57.3589L30.4932 54.633L31.7461 57.3589ZM30.6211 57.8759L31.874 60.6018L30.6211 57.8759ZM29.4961 58.393L28.2432 55.6672L29.4961 58.393ZM27.2461 59.171L26.5685 56.2485L27.2461 59.171ZM24.9961 59.6927L25.6737 62.6151L24.9961 59.6927ZM22.7461 59.7529L23.2729 56.7995L22.7461 59.7529ZM20.4961 59.3516L19.9693 62.305L20.4961 59.3516ZM18.2461 59.1006L18.3801 56.1036L18.2461 59.1006ZM15.9961 59L15.8621 61.997L15.9961 59ZM13.7461 59.0165L13.5684 56.0217L13.7461 59.0165ZM9.24609 59.2354L9.19635 56.2358L9.24609 59.2354ZM8.12109 59.2541L8.17083 62.2537L8.12109 59.2541ZM6.99609 59.2727L6.94635 56.2732L6.99609 59.2727ZM5.58424 56.5138L2.60011 56.8219L5.58424 56.5138ZM3.4299 27.4629L5.85021 29.2355L3.4299 27.4629ZM3.09748 7.21289L0.0974874 7.20525L3.09748 7.21289ZM3.41803 5.71289L1.12902 3.77371L3.41803 5.71289ZM6.62109 4.22345L7.10076 7.18486L8.22576 7.00264L7.74609 4.04123L7.26643 1.07983L6.14143 1.26205L6.62109 4.22345ZM7.74609 4.04123L8.22576 7.00264C8.39097 6.97588 8.58079 6.9838 8.85398 7.09628L9.99609 4.32219L11.1382 1.5481C9.9114 1.04301 8.60122 0.86363 7.26643 1.07983L7.74609 4.04123ZM9.99609 4.32219L8.85398 7.09628L9.97898 7.55945L11.1211 4.78536L12.2632 2.01127L11.1382 1.5481L9.99609 4.32219ZM11.1211 4.78536L9.97898 7.55945L11.104 8.02262L12.2461 5.24853L13.3882 2.47444L12.2632 2.01127L11.1211 4.78536ZM12.2461 5.24853L11.104 8.02262C12.5505 8.61818 14.0897 8.64785 15.5613 8.08892L14.4961 5.2844L13.4309 2.47988C13.4057 2.48945 13.3948 2.49118 13.3966 2.49085C13.3988 2.49044 13.4072 2.48928 13.4189 2.48946C13.4306 2.48965 13.4371 2.49104 13.4359 2.49078C13.4342 2.49041 13.4187 2.48701 13.3882 2.47444L12.2461 5.24853ZM14.4961 5.2844L15.5613 8.08892L16.6863 7.66163L15.6211 4.85711L14.5559 2.05259L13.4309 2.47988L14.4961 5.2844ZM15.6211 4.85711L16.6863 7.66163L17.8113 7.23433L16.7461 4.42981L15.6809 1.62529L14.5559 2.05259L15.6211 4.85711ZM16.7461 4.42981L17.8113 7.23433C18.3788 7.01877 18.9287 6.87284 19.4632 6.78858L18.9961 3.82518L18.529 0.861769C17.5635 1.01397 16.6133 1.27113 15.6809 1.62529L16.7461 4.42981ZM18.9961 3.82518L19.4632 6.78858L20.5882 6.61124L20.1211 3.64784L19.654 0.684428L18.529 0.861769L18.9961 3.82518ZM20.1211 3.64784L20.5882 6.61124L21.7132 6.4339L21.2461 3.47049L20.779 0.507087L19.654 0.684428L20.1211 3.64784ZM21.2461 3.47049L21.7132 6.4339C22.0005 6.38862 22.2926 6.40494 22.6233 6.50549L23.4961 3.63527L24.3689 0.765049C23.1996 0.409447 21.9917 0.315919 20.779 0.507087L21.2461 3.47049ZM23.4961 3.63527L22.6233 6.50549L23.7483 6.8476L24.6211 3.97738L25.4939 1.10716L24.3689 0.765049L23.4961 3.63527ZM24.6211 3.97738L23.7483 6.8476L24.8733 7.18971L25.7461 4.3195L26.6189 1.44928L25.4939 1.10716L24.6211 3.97738ZM25.7461 4.3195L24.8733 7.18971C25.881 7.49617 26.9109 7.66242 27.9555 7.67654L27.9961 4.67682L28.0366 1.67709C27.5813 1.67093 27.1112 1.59898 26.6189 1.44928L25.7461 4.3195ZM27.9961 4.67682L27.9555 7.67654L29.0805 7.69175L29.1211 4.69202L29.1616 1.6923L28.0366 1.67709L27.9961 4.67682ZM29.1211 4.69202L29.0805 7.69175L30.2055 7.70695L30.2461 4.70723L30.2866 1.7075L29.1616 1.6923L29.1211 4.69202ZM30.2461 4.70723L30.2055 7.70695C31.2543 7.72113 32.2909 7.58018 33.3072 7.29476L32.4961 4.4065L31.685 1.51823C31.2013 1.65406 30.7379 1.7136 30.2866 1.7075L30.2461 4.70723ZM32.4961 4.4065L33.3072 7.29476L34.4322 6.97883L33.6211 4.09056L32.81 1.20229L31.685 1.51823L32.4961 4.4065ZM33.6211 4.09056L34.4322 6.97883L35.5572 6.66289L34.7461 3.77462L33.935 0.886357L32.81 1.20229L33.6211 4.09056ZM34.7461 3.77462L35.5572 6.66289C35.949 6.55286 36.3122 6.5255 36.6673 6.56465L36.9961 3.58271L37.3248 0.600782C36.1799 0.474561 35.0432 0.575143 33.935 0.886357L34.7461 3.77462ZM36.9961 3.58271L36.6673 6.56465L37.7923 6.68868L38.1211 3.70674L38.4498 0.72481L37.3248 0.600782L36.9961 3.58271ZM38.1211 3.70674L37.7923 6.68868L38.9173 6.8127L39.2461 3.83077L39.5748 0.848837L38.4498 0.72481L38.1211 3.70674ZM39.2461 3.83077L38.9173 6.8127C39.3158 6.85663 39.7526 6.97423 40.2362 7.19801L41.4961 4.47541L42.756 1.7528C41.7396 1.28244 40.6764 0.970284 39.5748 0.848837L39.2461 3.83077ZM41.4961 4.47541L40.2362 7.19801L41.3612 7.71863L42.6211 4.99602L43.881 2.27342L42.756 1.7528L41.4961 4.47541ZM42.6211 4.99602L41.3612 7.71863L42.4862 8.23924L43.7461 5.51663L45.006 2.79403L43.881 2.27342L42.6211 4.99602ZM43.7461 5.51663L42.4862 8.23924C44.2521 9.05647 46.0861 8.82254 47.618 7.83803L45.9961 5.31426L44.3742 2.79049C44.3316 2.81788 44.4142 2.75533 44.6023 2.73841C44.8015 2.7205 44.9514 2.76874 45.006 2.79403L43.7461 5.51663ZM45.9961 5.31426L47.618 7.83803L48.743 7.11504L47.1211 4.59127L45.4992 2.0675L44.3742 2.79049L45.9961 5.31426ZM47.1211 4.59127L48.743 7.11504L49.868 6.39205L48.2461 3.86829L46.6242 1.34452L45.4992 2.0675L47.1211 4.59127ZM48.2461 3.86829L49.868 6.39205C49.9898 6.31375 50.0355 6.30992 50.0095 6.31559C49.9973 6.31824 49.9762 6.32136 49.9496 6.3215C49.923 6.32164 49.9012 6.31875 49.8877 6.31595L50.4961 3.37828L51.1045 0.44062C49.4596 0.0999722 47.9181 0.51298 46.6242 1.34452L48.2461 3.86829ZM50.4961 3.37828L49.8877 6.31595L51.0127 6.54893L51.6211 3.61127L52.2295 0.673605L51.1045 0.44062L50.4961 3.37828ZM51.6211 3.61127L51.0127 6.54893L52.1377 6.78192L52.7461 3.84425L53.3545 0.90659L52.2295 0.673605L51.6211 3.61127ZM52.7461 3.84425L52.1377 6.78192C53.3398 7.03086 54.5521 6.99963 55.7395 6.69592L54.9961 3.78948L54.2527 0.883054C53.9401 0.963006 53.6524 0.968292 53.3545 0.90659L52.7461 3.84425ZM54.9961 3.78948L55.7395 6.69592L56.8645 6.40816L56.1211 3.50173L55.3777 0.595299L54.2527 0.883054L54.9961 3.78948ZM56.1211 3.50173L56.8645 6.40816L57.9895 6.12041L57.2461 3.21398L56.5027 0.307545L55.3777 0.595299L56.1211 3.50173ZM57.2461 3.21398L57.9895 6.12041C58.0095 6.11529 58.0209 6.11413 58.0256 6.11379C58.0301 6.11346 58.0344 6.11346 58.0408 6.11417C58.05 6.11518 58.1013 6.12166 58.2038 6.1706L59.4961 3.46319L60.7884 0.755785C59.4543 0.119029 57.9857 -0.0717711 56.5027 0.307545L57.2461 3.21398ZM59.4961 3.46319L58.2038 6.1706L59.3288 6.70757L60.6211 4.00016L61.9134 1.29276L60.7884 0.755785L59.4961 3.46319ZM60.6211 4.00016L59.3288 6.70757L60.4538 7.24454L61.7461 4.53713L63.0384 1.82973L61.9134 1.29276L60.6211 4.00016ZM61.7461 4.53713L60.4538 7.24454C61.6709 7.82545 62.9995 8.08221 64.3778 7.90539L63.9961 4.92978L63.6144 1.95416C63.4927 1.96977 63.3213 1.96477 63.0384 1.82973L61.7461 4.53713ZM63.9961 4.92978L64.3778 7.90539L65.5028 7.76107L65.1211 4.78545L64.7394 1.80984L63.6144 1.95416L63.9961 4.92978ZM65.1211 4.78545L65.5028 7.76107L66.6278 7.61674L66.2461 4.64113L65.8644 1.66551L64.7394 1.80984L65.1211 4.78545ZM66.2461 4.64113L66.6278 7.61674C67.3756 7.52081 68.1234 7.42574 68.8711 7.33152L68.4961 4.35506L68.1211 1.37859C67.3688 1.47337 66.6166 1.56901 65.8644 1.66551L66.2461 4.64113ZM68.4961 4.35506L68.8711 7.33152L69.9961 7.18978L69.6211 4.21331L69.2461 1.23684L68.1211 1.37859L68.4961 4.35506ZM69.6211 4.21331L69.9961 7.18978L71.1211 7.04803L70.7461 4.07156L70.3711 1.0951L69.2461 1.23684L69.6211 4.21331ZM70.7461 4.07156L71.1211 7.04803C71.9855 6.93912 72.8467 6.78007 73.7042 6.57178L72.9961 3.65655L72.288 0.74132C71.6455 0.897388 71.0066 1.01502 70.3711 1.0951L70.7461 4.07156ZM72.9961 3.65655L73.7042 6.57178L74.8292 6.29851L74.1211 3.38328L73.413 0.468053L72.288 0.74132L72.9961 3.65655ZM74.1211 3.38328L74.8292 6.29851L75.9542 6.02525L75.2461 3.11002L74.538 0.194786L73.413 0.468053L74.1211 3.38328ZM75.2461 3.11002L75.9542 6.02525C75.9254 6.03225 75.8847 6.03852 75.8364 6.03897C75.7879 6.03942 75.7458 6.03389 75.7142 6.02681C75.6499 6.01237 75.6736 6.00205 75.7895 6.08219L77.4961 3.61491L79.2027 1.14763C77.8887 0.238738 76.2723 -0.22648 74.538 0.194786L75.2461 3.11002ZM77.4961 3.61491L75.7895 6.08219L76.9145 6.86035L78.6211 4.39307L80.3277 1.92579L79.2027 1.14763L77.4961 3.61491ZM78.6211 4.39307L76.9145 6.86035L78.0395 7.63851L79.7461 5.17123L81.4527 2.70395L80.3277 1.92579L78.6211 4.39307ZM79.7461 5.17123L78.0395 7.63851C78.8045 8.16767 79.7606 8.55891 80.8634 8.56174C81.9668 8.56457 82.9257 8.17776 83.6941 7.65021L81.9961 5.177L80.2981 2.7038C80.3165 2.69116 80.5254 2.56085 80.8788 2.56176C81.2315 2.56267 81.4377 2.69356 81.4527 2.70395L79.7461 5.17123ZM81.9961 5.177L83.6941 7.65021L84.8191 6.87782L83.1211 4.40462L81.4231 1.93141L80.2981 2.7038L81.9961 5.177ZM83.1211 4.40462L84.8191 6.87782L85.9441 6.10544L84.2461 3.63223L82.5481 1.15903L81.4231 1.93141L83.1211 4.40462ZM84.2461 3.63223L85.9441 6.10544C86.0233 6.05104 85.9859 6.09659 85.8419 6.11947C85.772 6.13057 85.696 6.13299 85.6206 6.12508C85.546 6.11726 85.4904 6.10129 85.4582 6.08941L86.4961 3.27466L87.534 0.459909C85.734 -0.20377 83.9726 0.180996 82.5481 1.15903L84.2461 3.63223ZM86.4961 3.27466L85.4582 6.08941L86.5832 6.50423L87.6211 3.68948L88.659 0.874724L87.534 0.459909L86.4961 3.27466ZM87.6211 3.68948L86.5832 6.50423L87.7082 6.91904L88.7461 4.10429L89.784 1.28954L88.659 0.874724L87.6211 3.68948ZM88.7461 4.10429L87.7082 6.91904C88.9647 7.38232 90.2889 7.49706 91.6162 7.21666L90.9961 4.28144L90.376 1.34623C90.2033 1.38271 90.0275 1.37935 89.784 1.28954L88.7461 4.10429ZM90.9961 4.28144L91.6162 7.21666L92.7412 6.97899L92.1211 4.04378L91.501 1.10856L90.376 1.34623L90.9961 4.28144ZM92.1211 4.04378L92.7412 6.97899L93.8662 6.74133L93.2461 3.80611L92.626 0.870898L91.501 1.10856L92.1211 4.04378ZM93.2461 3.80611L93.8662 6.74133C93.872 6.74011 93.8704 6.74088 93.864 6.74099C93.8575 6.74111 93.8539 6.74043 93.8559 6.74077C93.8572 6.741 93.9132 6.75032 94.0304 6.81597L95.4961 4.19836L96.9617 1.58075C95.6603 0.852024 94.174 0.543872 92.626 0.870898L93.2461 3.80611ZM95.4961 4.19836L94.0304 6.81597L95.1554 7.44588L96.6211 4.82827L98.0867 2.21067L96.9617 1.58075L95.4961 4.19836ZM96.6211 4.82827L95.1554 7.44588L96.2804 8.07579L97.7461 5.45818L99.2117 2.84058L98.0867 2.21067L96.6211 4.82827ZM97.7461 5.45818L96.2804 8.07579C97.1004 8.53491 98.0669 8.80351 99.1192 8.71618C100.155 8.63026 101.042 8.21931 101.758 7.69926L99.9961 5.27146L98.2338 2.84366C98.2002 2.86803 98.3376 2.76041 98.623 2.73674C98.9253 2.71165 99.1418 2.80139 99.2117 2.84058L97.7461 5.45818ZM99.9961 5.27146L101.758 7.69926L102.883 6.88263L101.121 4.45483L99.3588 2.02703L98.2338 2.84366L99.9961 5.27146ZM101.121 4.45483L102.883 6.88263L104.008 6.066L102.246 3.6382L100.484 1.2104L99.3588 2.02703L101.121 4.45483ZM102.246 3.6382L104.008 6.066C104.139 5.97144 104.178 5.97305 104.128 5.98609C104.103 5.99261 104.065 5.99938 104.018 6.0007C103.971 6.00203 103.929 5.9975 103.896 5.9907L104.496 3.05141L105.097 0.112123C103.351 -0.244465 101.759 0.28439 100.484 1.2104L102.246 3.6382ZM104.496 3.05141L103.896 5.9907L105.021 6.22053L105.621 3.28125L106.222 0.341959L105.097 0.112123L104.496 3.05141ZM105.621 3.28125L105.021 6.22053L106.146 6.45037L106.746 3.51108L107.347 0.571796L106.222 0.341959L105.621 3.28125ZM106.746 3.51108L106.146 6.45037C107.009 6.62675 107.876 6.75187 108.745 6.82495L108.996 3.83549L109.247 0.846033C108.617 0.793012 107.983 0.701863 107.347 0.571796L106.746 3.51108ZM108.996 3.83549L108.745 6.82495L109.87 6.91952L110.121 3.93006L110.372 0.940603L109.247 0.846033L108.996 3.83549ZM110.121 3.93006L109.87 6.91952L110.995 7.01409L111.246 4.02463L111.497 1.03517L110.372 0.940603L110.121 3.93006ZM111.246 4.02463L110.995 7.01409C111.893 7.08959 112.792 7.09815 113.691 7.03967L113.496 4.046L113.301 1.05233C112.7 1.09145 112.099 1.08576 111.497 1.03517L111.246 4.02463ZM113.496 4.046L113.691 7.03967L114.816 6.96647L114.621 3.9728L114.426 0.979133L113.301 1.05233L113.496 4.046ZM114.621 3.9728L114.816 6.96647L115.941 6.89327L115.746 3.8996L115.551 0.905934L114.426 0.979133L114.621 3.9728ZM115.746 3.8996L115.941 6.89327C116.116 6.88185 116.35 6.9088 116.685 7.07138L117.996 4.37321L119.308 1.67504C118.142 1.10855 116.876 0.819758 115.551 0.905934L115.746 3.8996ZM117.996 4.37321L116.685 7.07138L117.81 7.61819L119.121 4.92002L120.433 2.22185L119.308 1.67504L117.996 4.37321ZM119.121 4.92002L117.81 7.61819L118.935 8.16499L120.246 5.46682L121.558 2.76865L120.433 2.22185L119.121 4.92002ZM120.246 5.46682L118.935 8.16499C120.372 8.86354 121.958 8.98988 123.506 8.4364L122.496 5.61147L121.486 2.78654C121.476 2.79031 121.48 2.7876 121.498 2.78496C121.517 2.78226 121.54 2.78104 121.564 2.78257C121.587 2.78409 121.602 2.78766 121.605 2.78842C121.607 2.78901 121.591 2.78507 121.558 2.76865L120.246 5.46682ZM122.496 5.61147L123.506 8.4364L124.631 8.03425L123.621 5.20932L122.611 2.38438L121.486 2.78654L122.496 5.61147ZM123.621 5.20932L124.631 8.03425L125.756 7.63209L124.746 4.80716L123.736 1.98223L122.611 2.38438L123.621 5.20932ZM124.746 4.80716L125.756 7.63209C126.228 7.46318 126.668 7.3825 127.086 7.37002L126.996 4.37136L126.906 1.3727C125.824 1.40508 124.764 1.61493 123.736 1.98223L124.746 4.80716ZM126.996 4.37136L127.086 7.37002L128.211 7.33638L128.121 4.33772L128.031 1.33906L126.906 1.3727L126.996 4.37136ZM128.121 4.33772L128.211 7.33638L129.336 7.30274L129.246 4.30408L129.156 1.30542L128.031 1.33906L128.121 4.33772ZM129.246 4.30408L129.336 7.30274C129.597 7.29494 129.903 7.34406 130.281 7.51171L131.496 4.76868L132.711 2.02565C131.589 1.52898 130.395 1.26837 129.156 1.30542L129.246 4.30408ZM131.496 4.76868L130.281 7.51171L131.406 8.00994L132.621 5.26692L133.836 2.52389L132.711 2.02565L131.496 4.76868ZM132.621 5.26692L131.406 8.00994L132.531 8.50818L133.746 5.76515L134.961 3.02212L133.836 2.52389L132.621 5.26692ZM133.746 5.76515L132.531 8.50818C134.226 9.25884 135.993 9.08404 137.517 8.18817L135.996 5.60199L134.476 3.01582C134.436 3.03927 134.502 2.99236 134.654 2.98134C134.725 2.97616 134.794 2.98076 134.855 2.99195C134.914 3.00292 134.95 3.01746 134.961 3.02212L133.746 5.76515ZM135.996 5.60199L137.517 8.18817L138.642 7.52677L137.121 4.9406L135.601 2.35443L134.476 3.01582L135.996 5.60199ZM137.121 4.9406L138.642 7.52677L139.767 6.86538L138.246 4.2792L136.726 1.69303L135.601 2.35443L137.121 4.9406ZM138.246 4.2792L139.767 6.86538C139.891 6.79234 139.951 6.78039 139.954 6.77987C139.956 6.77941 139.952 6.7804 139.943 6.78043C139.935 6.78046 139.93 6.77949 139.931 6.77981L140.496 3.83345L141.061 0.887086C139.495 0.587038 138.011 0.937625 136.726 1.69303L138.246 4.2792ZM140.496 3.83345L139.931 6.77981L141.056 6.99545L141.621 4.04909L142.186 1.10273L141.061 0.887086L140.496 3.83345ZM141.621 4.04909L141.056 6.99545L142.181 7.21109L142.746 4.26473L143.311 1.31836L142.186 1.10273L141.621 4.04909ZM142.746 4.26473L142.181 7.21109C142.901 7.34912 143.622 7.49856 144.342 7.65944L144.996 4.7315L145.65 1.80357C144.87 1.62959 144.091 1.46785 143.311 1.31836L142.746 4.26473ZM144.996 4.7315L144.342 7.65944L145.467 7.91057L146.121 4.98263L146.775 2.0547L145.65 1.80357L144.996 4.7315ZM146.121 4.98263L145.467 7.91057L146.592 8.1617L147.246 5.23377L147.9 2.30583L146.775 2.0547L146.121 4.98263ZM147.246 5.23377L146.592 8.1617C147.378 8.33713 148.098 8.48174 148.747 8.59271L149.252 5.63565L149.758 2.67859C149.232 2.58857 148.614 2.46525 147.9 2.30583L147.246 5.23377ZM149.252 5.63565L148.747 8.59271L149.628 8.74345L150.134 5.7864L150.64 2.82934L149.758 2.67859L149.252 5.63565ZM150.134 5.7864L149.628 8.74345L150.509 8.8942L151.015 5.93714L151.521 2.98009L150.64 2.82934L150.134 5.7864ZM151.015 5.93714L150.509 8.8942C150.142 8.83143 149.616 8.59844 149.242 8.07498C149.082 7.85113 149.004 7.64496 148.966 7.50752C148.929 7.37422 148.927 7.29372 148.927 7.29218L151.926 7.21289L154.925 7.1336C154.906 6.40958 154.745 5.45668 154.125 4.58792C153.447 3.63922 152.476 3.14336 151.521 2.98009L151.015 5.93714ZM151.926 7.21289L148.927 7.29218L148.957 8.41718L151.956 8.33789L154.955 8.2586L154.925 7.1336L151.926 7.21289ZM151.956 8.33789L148.957 8.41718L148.987 9.54218L151.986 9.46289L154.985 9.3836L154.955 8.2586L151.956 8.33789ZM151.986 9.46289L148.987 9.54218C148.991 9.71037 148.957 9.95271 148.769 10.3071L151.419 11.7129L154.069 13.1187C154.677 11.9731 155.02 10.7154 154.985 9.3836L151.986 9.46289ZM151.419 11.7129L148.769 10.3071L148.172 11.4321L150.822 12.8379L153.472 14.2437L154.069 13.1187L151.419 11.7129ZM150.822 12.8379L148.172 11.4321L147.575 12.5571L150.225 13.9629L152.876 15.3687L153.472 14.2437L150.822 12.8379ZM150.225 13.9629L147.575 12.5571C147.14 13.3771 146.898 14.3282 146.988 15.3526C147.078 16.3611 147.471 17.2327 147.976 17.9457L150.425 16.2129L152.874 14.4801C152.847 14.4431 152.942 14.5647 152.965 14.8232C152.989 15.0976 152.913 15.2987 152.876 15.3687L150.225 13.9629ZM150.425 16.2129L147.976 17.9457L148.772 19.0707L151.221 17.3379L153.67 15.6051L152.874 14.4801L150.425 16.2129ZM151.221 17.3379L148.772 19.0707L149.568 20.1957L152.017 18.4629L154.466 16.7301L153.67 15.6051L151.221 17.3379ZM152.017 18.4629L149.568 20.1957C149.57 20.1991 149.445 20.0162 149.434 19.6831C149.423 19.3422 149.542 19.1264 149.566 19.0885L152.088 20.7129L154.61 22.3373C155.118 21.5494 155.466 20.5836 155.431 19.4927C155.397 18.4096 154.994 17.4767 154.466 16.7301L152.017 18.4629ZM152.088 20.7129L149.566 19.0885L148.841 20.2135L151.364 21.8379L153.886 23.4623L154.61 22.3373L152.088 20.7129ZM151.364 21.8379L148.841 20.2135L148.117 21.3385L150.639 22.9629L153.161 24.5873L153.886 23.4623L151.364 21.8379ZM150.639 22.9629L148.117 21.3385C147.336 22.5501 146.887 23.9689 147.042 25.5128L150.027 25.2129L153.012 24.913C153.012 24.91 153.012 24.9086 153.012 24.9064C153.012 24.904 153.013 24.8941 153.019 24.8747C153.029 24.8365 153.062 24.7413 153.161 24.5873L150.639 22.9629ZM150.027 25.2129L147.042 25.5128L147.155 26.6378L150.14 26.3379L153.125 26.038L153.012 24.913L150.027 25.2129ZM150.14 26.3379L147.155 26.6378L147.269 27.7628L150.253 27.4629L153.238 27.163L153.125 26.038L150.14 26.3379ZM150.253 27.4629L147.269 27.7628C147.394 29.0144 147.824 30.1822 148.461 31.2501L151.038 29.7129L153.614 28.1757C153.356 27.7436 153.263 27.4114 153.238 27.163L150.253 27.4629ZM151.038 29.7129L148.461 31.2501L149.133 32.3751L151.709 30.8379L154.285 29.3007L153.614 28.1757L151.038 29.7129ZM151.709 30.8379L149.133 32.3751L149.804 33.5001L152.38 31.9629L154.957 30.4257L154.285 29.3007L151.709 30.8379ZM152.38 31.9629L149.804 33.5001C150.014 33.8528 150.038 34.0625 150.036 34.1712L153.036 34.2129L156.036 34.2546C156.055 32.8633 155.641 31.573 154.957 30.4257L152.38 31.9629ZM153.036 34.2129L150.036 34.1712L150.021 35.2962L153.02 35.3379L156.02 35.3796L156.036 34.2546L153.036 34.2129ZM153.02 35.3379L150.021 35.2962L150.005 36.4212L153.005 36.4629L156.004 36.5046L156.02 35.3796L153.02 35.3379ZM153.005 36.4629L150.005 36.4212C150.003 36.5908 149.957 36.8479 149.741 37.2244L152.346 38.7129L154.951 40.2014C155.593 39.0779 155.986 37.835 156.004 36.5046L153.005 36.4629ZM152.346 38.7129L149.741 37.2244L149.098 38.3494L151.703 39.8379L154.308 41.3264L154.951 40.2014L152.346 38.7129ZM151.703 39.8379L149.098 38.3494L148.456 39.4744L151.06 40.9629L153.665 42.4514L154.308 41.3264L151.703 39.8379ZM151.06 40.9629L148.456 39.4744C147.707 40.784 147.39 42.2893 147.735 43.8583L150.665 43.2129L153.595 42.5675C153.595 42.5656 153.596 42.5717 153.596 42.5833C153.597 42.5951 153.595 42.6038 153.595 42.6067C153.593 42.6152 153.6 42.5657 153.665 42.4514L151.06 40.9629ZM150.665 43.2129L147.735 43.8583L147.983 44.9833L150.913 44.3379L153.843 43.6925L153.595 42.5675L150.665 43.2129ZM150.913 44.3379L147.983 44.9833L148.231 46.1083L151.161 45.4629L154.091 44.8175L153.843 43.6925L150.913 44.3379ZM151.161 45.4629L148.231 46.1083C148.355 46.6713 148.421 47.2262 148.433 47.7755L151.432 47.7129L154.432 47.6503C154.412 46.6996 154.297 45.7545 154.091 44.8175L151.161 45.4629ZM151.432 47.7129L148.433 47.7755L148.456 48.9005L151.456 48.8379L154.455 48.7753L154.432 47.6503L151.432 47.7129ZM151.456 48.8379L148.456 48.9005L148.48 50.0255L151.479 49.9629L154.479 49.9003L154.455 48.7753L151.456 48.8379ZM151.479 49.9629L148.48 50.0255C148.493 50.6478 148.466 51.2707 148.4 51.895L151.383 52.2129L154.366 52.5308C154.459 51.6551 154.497 50.778 154.479 49.9003L151.479 49.9629ZM151.383 52.2129L148.4 51.895L148.28 53.02L151.263 53.3379L154.246 53.6558L154.366 52.5308L151.383 52.2129ZM151.263 53.3379L148.28 53.02L148.16 54.145L151.143 54.4629L154.126 54.7808L154.246 53.6558L151.263 53.3379ZM151.143 54.4629L148.16 54.145C148.13 54.4265 148.095 54.6221 148.064 54.7478C148.032 54.8807 148.019 54.883 148.057 54.8073L150.735 56.1587L153.413 57.5101C153.849 56.6479 154.033 55.6576 154.126 54.7808L151.143 54.4629ZM150.735 56.1587L148.057 54.8073L147.769 55.3781L150.447 56.7295L153.125 58.0809L153.413 57.5101L150.735 56.1587ZM150.447 56.7295L147.769 55.3781L147.481 55.9489L150.159 57.3003L152.837 58.6517L153.125 58.0809L150.447 56.7295ZM150.159 57.3003L147.481 55.9489C147.628 55.6565 147.843 55.3915 148.109 55.1824C148.367 54.9792 148.618 54.872 148.803 54.8168C149.132 54.7185 149.298 54.7693 149.139 54.7483L148.746 57.7225L148.353 60.6966C149.291 60.8206 151.7 60.9053 152.837 58.6517L150.159 57.3003ZM148.746 57.7225L149.139 54.7483L148.014 54.5997L147.621 57.5738L147.228 60.548L148.353 60.6966L148.746 57.7225ZM147.621 57.5738L148.014 54.5997L146.889 54.451L146.496 57.4251L146.103 60.3993L147.228 60.548L147.621 57.5738ZM146.496 57.4251L146.889 54.451C145.456 54.2617 144.089 54.5619 142.859 55.2032L144.246 57.8632L145.633 60.5232C145.904 60.3822 146.036 60.3904 146.103 60.3993L146.496 57.4251ZM144.246 57.8632L142.859 55.2032L141.734 55.7899L143.121 58.4499L144.508 61.1099L145.633 60.5232L144.246 57.8632ZM143.121 58.4499L141.734 55.7899L140.609 56.3766L141.996 59.0366L143.383 61.6966L144.508 61.1099L143.121 58.4499ZM141.996 59.0366L140.609 56.3766C140.39 56.4906 140.325 56.4638 140.311 56.4612L139.746 59.4075L139.181 62.3538C140.668 62.6389 142.102 62.3648 143.383 61.6966L141.996 59.0366ZM139.746 59.4075L140.311 56.4612L139.186 56.2455L138.621 59.1918L138.056 62.1381L139.181 62.3538L139.746 59.4075ZM138.621 59.1918L139.186 56.2455L138.061 56.0297L137.496 58.976L136.931 61.9224L138.056 62.1381L138.621 59.1918ZM137.496 58.976L138.061 56.0297C136.806 55.7891 135.551 55.8731 134.341 56.2563L135.246 59.1164L136.151 61.9765C136.441 61.8849 136.686 61.8753 136.931 61.9224L137.496 58.976ZM135.246 59.1164L134.341 56.2563L133.216 56.6124L134.121 59.4725L135.026 62.3327L136.151 61.9765L135.246 59.1164ZM134.121 59.4725L133.216 56.6124L132.091 56.9685L132.996 59.8287L133.901 62.6888L135.026 62.3327L134.121 59.4725ZM132.996 59.8287L132.091 56.9685C132.08 56.9719 132.072 56.9738 132.068 56.9748C132.063 56.9758 132.061 56.9761 132.061 56.9761C132.061 56.9761 132.062 56.976 132.064 56.9759C132.066 56.9759 132.068 56.9759 132.069 56.976C132.073 56.9763 132.07 56.9765 132.057 56.9732C132.044 56.9699 132.017 56.9617 131.975 56.9429L130.746 59.6797L129.517 62.4165C130.906 63.0401 132.415 63.1593 133.901 62.6888L132.996 59.8287ZM130.746 59.6797L131.975 56.9429L130.85 56.4378L129.621 59.1746L128.392 61.9114L129.517 62.4165L130.746 59.6797ZM129.621 59.1746L130.85 56.4378L129.725 55.9326L128.496 58.6694L127.267 61.4062L128.392 61.9114L129.621 59.1746ZM128.496 58.6694L129.725 55.9326C128.531 55.3966 127.244 55.1599 125.914 55.3079L126.246 58.2895L126.578 61.2711C126.748 61.2521 126.961 61.2688 127.267 61.4062L128.496 58.6694ZM126.246 58.2895L125.914 55.3079L124.789 55.433L125.121 58.4146L125.453 61.3962L126.578 61.2711L126.246 58.2895ZM125.121 58.4146L124.789 55.433L123.664 55.5582L123.996 58.5398L124.328 61.5214L125.453 61.3962L125.121 58.4146ZM123.996 58.5398L123.664 55.5582C123.017 55.6302 122.37 55.6685 121.724 55.6732L121.746 58.6731L121.768 61.6731C122.622 61.6668 123.476 61.6162 124.328 61.5214L123.996 58.5398ZM121.746 58.6731L121.724 55.6732L120.599 55.6814L120.621 58.6813L120.643 61.6812L121.768 61.6731L121.746 58.6731ZM120.621 58.6813L120.599 55.6814L119.474 55.6896L119.496 58.6895L119.518 61.6894L120.643 61.6812L120.621 58.6813ZM119.496 58.6895L119.474 55.6896C118.538 55.6964 117.606 55.7899 116.68 55.9679L117.246 58.914L117.812 61.86C118.386 61.7497 118.954 61.6935 119.518 61.6894L119.496 58.6895ZM117.246 58.914L116.68 55.9679L115.555 56.1841L116.121 59.1302L116.687 62.0763L117.812 61.86L117.246 58.914ZM116.121 59.1302L115.555 56.1841L114.43 56.4004L114.996 59.3465L115.562 62.2925L116.687 62.0763L116.121 59.1302ZM114.996 59.3465L114.43 56.4004C113.937 56.495 113.455 56.5222 112.975 56.4855L112.746 59.4768L112.518 62.4681C113.537 62.546 114.555 62.4862 115.562 62.2925L114.996 59.3465ZM112.746 59.4768L112.975 56.4855L111.85 56.3996L111.621 59.3909L111.393 62.3822L112.518 62.4681L112.746 59.4768ZM111.621 59.3909L111.85 56.3996L110.725 56.3137L110.496 59.305L110.268 62.2962L111.393 62.3822L111.621 59.3909ZM110.496 59.305L110.725 56.3137C109.979 56.2567 109.233 56.1982 108.487 56.138L108.246 59.1283L108.005 62.1186C108.759 62.1794 109.513 62.2386 110.268 62.2962L110.496 59.305ZM108.246 59.1283L108.487 56.138L107.362 56.0473L107.121 59.0376L106.88 62.0279L108.005 62.1186L108.246 59.1283ZM107.121 59.0376L107.362 56.0473L106.237 55.9567L105.996 58.947L105.755 61.9373L106.88 62.0279L107.121 59.0376ZM105.996 58.947L106.237 55.9567C105.453 55.8935 104.669 55.8437 103.885 55.8073L103.746 58.8041L103.607 61.8009C104.323 61.8341 105.039 61.8795 105.755 61.9373L105.996 58.947ZM103.746 58.8041L103.885 55.8073L102.76 55.7552L102.621 58.7519L102.482 61.7487L103.607 61.8009L103.746 58.8041ZM102.621 58.7519L102.76 55.7552L101.635 55.703L101.496 58.6998L101.357 61.6966L102.482 61.7487L102.621 58.7519ZM101.496 58.6998L101.635 55.703C100.702 55.6598 99.7708 55.7016 98.8425 55.8276L99.2461 58.8004L99.6497 61.7731C100.221 61.6955 100.79 61.6703 101.357 61.6966L101.496 58.6998ZM99.2461 58.8004L98.8425 55.8276L97.7175 55.9804L98.1211 58.9531L98.5247 61.9258L99.6497 61.7731L99.2461 58.8004ZM98.1211 58.9531L97.7175 55.9804L96.5925 56.1331L96.9961 59.1059L97.3997 62.0786L98.5247 61.9258L98.1211 58.9531ZM96.9961 59.1059L96.5925 56.1331C95.85 56.2339 95.1076 56.3318 94.3652 56.4269L94.7461 59.4026L95.127 62.3783C95.8846 62.2813 96.6421 62.1814 97.3997 62.0786L96.9961 59.1059ZM94.7461 59.4026L94.3652 56.4269L93.2402 56.5709L93.6211 59.5466L94.002 62.5223L95.127 62.3783L94.7461 59.4026ZM93.6211 59.5466L93.2402 56.5709L92.1152 56.7149L92.4961 59.6906L92.877 62.6663L94.002 62.5223L93.6211 59.5466ZM92.4961 59.6906L92.1152 56.7149C91.5164 56.7915 90.92 56.8217 90.3247 56.8061L90.2461 59.8051L90.1675 62.8041C91.0722 62.8278 91.9758 62.7817 92.877 62.6663L92.4961 59.6906ZM90.2461 59.8051L90.3247 56.8061L89.1997 56.7766L89.1211 59.7756L89.0425 62.7746L90.1675 62.8041L90.2461 59.8051ZM89.1211 59.7756L89.1997 56.7766L88.0747 56.7472L87.9961 59.7461L87.9175 62.7451L89.0425 62.7746L89.1211 59.7756ZM87.9961 59.7461L88.0747 56.7472C87.3708 56.7287 86.6668 56.694 85.9626 56.6431L85.7461 59.6353L85.5296 62.6274C86.3254 62.685 87.1214 62.7242 87.9175 62.7451L87.9961 59.7461ZM85.7461 59.6353L85.9626 56.6431L84.8376 56.5617L84.6211 59.5539L84.4046 62.546L85.5296 62.6274L85.7461 59.6353ZM84.6211 59.5539L84.8376 56.5617L83.7126 56.4803L83.4961 59.4725L83.2796 62.4646L84.4046 62.546L84.6211 59.5539ZM83.4961 59.4725L83.7126 56.4803C83.3455 56.4537 82.9382 56.3559 82.4791 56.149L81.2461 58.8839L80.0131 61.6188C81.054 62.0881 82.1467 62.3827 83.2796 62.4646L83.4961 59.4725ZM81.2461 58.8839L82.4791 56.149L81.3541 55.6418L80.1211 58.3767L78.8881 61.1116L80.0131 61.6188L81.2461 58.8839ZM80.1211 58.3767L81.3541 55.6418L80.2291 55.1346L78.9961 57.8695L77.7631 60.6044L78.8881 61.1116L80.1211 58.3767ZM78.9961 57.8695L80.2291 55.1346C79.0492 54.6027 77.7788 54.3577 76.4633 54.4822L76.7461 57.4689L77.0289 60.4555C77.2134 60.438 77.443 60.4601 77.7631 60.6044L78.9961 57.8695ZM76.7461 57.4689L76.4633 54.4822L75.3383 54.5887L75.6211 57.5754L75.9039 60.562L77.0289 60.4555L76.7461 57.4689ZM75.6211 57.5754L75.3383 54.5887L74.2133 54.6952L74.4961 57.6819L74.7789 60.6685L75.9039 60.562L75.6211 57.5754ZM74.4961 57.6819L74.2133 54.6952C73.1544 54.7955 72.122 55.0574 71.123 55.4607L72.2461 58.2426L73.3691 61.0244C73.8701 60.8222 74.3378 60.7103 74.7789 60.6685L74.4961 57.6819ZM72.2461 58.2426L71.123 55.4607L69.998 55.9149L71.1211 58.6967L72.2441 61.4786L73.3691 61.0244L72.2461 58.2426ZM71.1211 58.6967L69.998 55.9149L68.873 56.369L69.9961 59.1509L71.1191 61.9328L72.2441 61.4786L71.1211 58.6967ZM69.9961 59.1509L68.873 56.369C68.446 56.5414 68.0693 56.6103 67.7262 56.6126L67.7461 59.6125L67.766 62.6125C68.9229 62.6048 70.0462 62.3659 71.1191 61.9328L69.9961 59.1509ZM67.7461 59.6125L67.7262 56.6126L66.6012 56.6201L66.6211 59.62L66.641 62.6199L67.766 62.6125L67.7461 59.6125ZM66.6211 59.62L66.6012 56.6201L65.4762 56.6275L65.4961 59.6275L65.516 62.6274L66.641 62.6199L66.6211 59.62ZM65.4961 59.6275L65.4762 56.6275C65.014 56.6306 64.5402 56.5687 64.0475 56.4321L63.2461 59.3231L62.4447 62.2141C63.452 62.4933 64.4782 62.6343 65.516 62.6274L65.4961 59.6275ZM63.2461 59.3231L64.0475 56.4321L62.9225 56.1203L62.1211 59.0112L61.3197 61.9022L62.4447 62.2141L63.2461 59.3231ZM62.1211 59.0112L62.9225 56.1203L61.7975 55.8084L60.9961 58.6994L60.1947 61.5904L61.3197 61.9022L62.1211 59.0112ZM60.9961 58.6994L61.7975 55.8084C60.9047 55.561 60.0047 55.3824 59.0985 55.2753L58.7461 58.2545L58.3937 61.2337C58.9875 61.304 59.5874 61.4221 60.1947 61.5904L60.9961 58.6994ZM58.7461 58.2545L59.0985 55.2753L57.9735 55.1422L57.6211 58.1214L57.2687 61.1007L58.3937 61.2337L58.7461 58.2545ZM57.6211 58.1214L57.9735 55.1422L56.8485 55.0091L56.4961 57.9884L56.1437 60.9676L57.2687 61.1007L57.6211 58.1214ZM56.4961 57.9884L56.8485 55.0091C56.0485 54.9145 55.2481 54.8403 54.4474 54.7864L54.2461 57.7797L54.0448 60.7729C54.7441 60.8199 55.4437 60.8848 56.1437 60.9676L56.4961 57.9884ZM54.2461 57.7797L54.4474 54.7864L53.3224 54.7108L53.1211 57.704L52.9198 60.6973L54.0448 60.7729L54.2461 57.7797ZM53.1211 57.704L53.3224 54.7108L52.1974 54.6351L51.9961 57.6284L51.7948 60.6216L52.9198 60.6973L53.1211 57.704ZM51.9961 57.6284L52.1974 54.6351C51.4531 54.5851 50.7089 54.5329 49.9647 54.4785L49.7461 57.4705L49.5275 60.4626C50.2833 60.5178 51.0391 60.5708 51.7948 60.6216L51.9961 57.6284ZM49.7461 57.4705L49.9647 54.4785L48.8397 54.3963L48.6211 57.3883L48.4025 60.3804L49.5275 60.4626L49.7461 57.4705ZM48.6211 57.3883L48.8397 54.3963L47.7147 54.3141L47.4961 57.3062L47.2775 60.2982L48.4025 60.3804L48.6211 57.3883ZM47.4961 57.3062L47.7147 54.3141C46.7553 54.244 45.7963 54.2746 44.8411 54.4047L45.2461 57.3773L45.6511 60.3498C46.1959 60.2756 46.7368 60.2587 47.2775 60.2982L47.4961 57.3062ZM45.2461 57.3773L44.8411 54.4047L43.7161 54.558L44.1211 57.5305L44.5261 60.5031L45.6511 60.3498L45.2461 57.3773ZM44.1211 57.5305L43.7161 54.558L42.5911 54.7113L42.9961 57.6838L43.4011 60.6564L44.5261 60.5031L44.1211 57.5305ZM42.9961 57.6838L42.5911 54.7113C42.0252 54.7884 41.4628 54.8119 40.9014 54.7828L40.7461 57.7788L40.5908 60.7748C41.5294 60.8234 42.467 60.7836 43.4011 60.6564L42.9961 57.6838ZM40.7461 57.7788L40.9014 54.7828L39.7764 54.7245L39.6211 57.7205L39.4658 60.7165L40.5908 60.7748L40.7461 57.7788ZM39.6211 57.7205L39.7764 54.7245L38.6514 54.6662L38.4961 57.6622L38.3408 60.6582L39.4658 60.7165L39.6211 57.7205ZM38.4961 57.6622L38.6514 54.6662C38.0187 54.6335 37.3841 54.5634 36.7471 54.4555L36.2461 57.4134L35.7451 60.3713C36.6081 60.5174 37.4735 60.6132 38.3408 60.6582L38.4961 57.6622ZM36.2461 57.4134L36.7471 54.4555L35.6221 54.265L35.1211 57.2228L34.6201 60.1807L35.7451 60.3713L36.2461 57.4134ZM35.1211 57.2228L35.6221 54.265L34.4971 54.0744L33.9961 57.0323L33.4951 59.9902L34.6201 60.1807L35.1211 57.2228ZM33.9961 57.0323L34.4971 54.0744C33.1015 53.8381 31.7423 54.0589 30.4932 54.633L31.7461 57.3589L32.999 60.0847C33.2499 59.9694 33.3907 59.9725 33.4951 59.9902L33.9961 57.0323ZM31.7461 57.3589L30.4932 54.633L29.3682 55.1501L30.6211 57.8759L31.874 60.6018L32.999 60.0847L31.7461 57.3589ZM30.6211 57.8759L29.3682 55.1501L28.2432 55.6672L29.4961 58.393L30.749 61.1189L31.874 60.6018L30.6211 57.8759ZM29.4961 58.393L28.2432 55.6672C27.6646 55.9331 27.1069 56.1237 26.5685 56.2485L27.2461 59.171L27.9237 62.0934C28.8853 61.8705 29.8276 61.5424 30.749 61.1189L29.4961 58.393ZM27.2461 59.171L26.5685 56.2485L25.4435 56.5094L26.1211 59.4318L26.7987 62.3543L27.9237 62.0934L27.2461 59.171ZM26.1211 59.4318L25.4435 56.5094L24.3185 56.7702L24.9961 59.6927L25.6737 62.6151L26.7987 62.3543L26.1211 59.4318ZM24.9961 59.6927L24.3185 56.7702C23.9594 56.8535 23.6191 56.8612 23.2729 56.7995L22.7461 59.7529L22.2193 62.7063C23.3731 62.912 24.5328 62.8797 25.6737 62.6151L24.9961 59.6927ZM22.7461 59.7529L23.2729 56.7995L22.1479 56.5988L21.6211 59.5522L21.0943 62.5056L22.2193 62.7063L22.7461 59.7529ZM21.6211 59.5522L22.1479 56.5988L21.0229 56.3982L20.4961 59.3516L19.9693 62.305L21.0943 62.5056L21.6211 59.5522ZM20.4961 59.3516L21.0229 56.3982C20.145 56.2416 19.2638 56.1431 18.3801 56.1036L18.2461 59.1006L18.1121 62.0976C18.7284 62.1252 19.3472 62.194 19.9693 62.305L20.4961 59.3516ZM18.2461 59.1006L18.3801 56.1036L17.2551 56.0533L17.1211 59.0503L16.9871 62.0473L18.1121 62.0976L18.2461 59.1006ZM17.1211 59.0503L17.2551 56.0533L16.1301 56.003L15.9961 59L15.8621 61.997L16.9871 62.0473L17.1211 59.0503ZM15.9961 59L16.1301 56.003C15.2761 55.9648 14.4221 55.9711 13.5684 56.0217L13.7461 59.0165L13.9238 62.0112C14.5701 61.9728 15.2161 61.9681 15.8621 61.997L15.9961 59ZM13.7461 59.0165L13.5684 56.0217L12.4434 56.0885L12.6211 59.0832L12.7988 62.078L13.9238 62.0112L13.7461 59.0165ZM12.6211 59.0832L12.4434 56.0885L11.3184 56.1553L11.4961 59.15L11.6738 62.1447L12.7988 62.078L12.6211 59.0832ZM11.4961 59.15L11.3184 56.1553C10.6109 56.1973 9.90358 56.2241 9.19635 56.2358L9.24609 59.2354L9.29583 62.235C10.0886 62.2219 10.8813 62.1918 11.6738 62.1447L11.4961 59.15ZM9.24609 59.2354L9.19635 56.2358L8.07135 56.2545L8.12109 59.2541L8.17083 62.2537L9.29583 62.235L9.24609 59.2354ZM8.12109 59.2541L8.07135 56.2545L6.94635 56.2732L6.99609 59.2727L7.04583 62.2723L8.17083 62.2537L8.12109 59.2541ZM6.99609 59.2727L6.94635 56.2732C6.95716 56.273 7.0617 56.2715 7.22732 56.3131C7.39923 56.3561 7.6521 56.4498 7.91802 56.6475C8.53682 57.1074 8.72598 57.7317 8.7596 58.0573L5.77547 58.3655L2.79135 58.6737C2.88872 59.6166 3.31318 60.7007 4.33886 61.463C5.27449 62.1584 6.31339 62.2845 7.04583 62.2723L6.99609 59.2727ZM5.77547 58.3655L8.7596 58.0573L8.66399 57.1315L5.67986 57.4396L2.69573 57.7478L2.79135 58.6737L5.77547 58.3655ZM5.67986 57.4396L8.66399 57.1315L8.56837 56.2056L5.58424 56.5138L2.60011 56.8219L2.69573 57.7478L5.67986 57.4396ZM5.58424 56.5138L8.56837 56.2056C8.47556 55.3069 8.25036 54.3944 7.93624 53.4842L5.10037 54.4629L2.2645 55.4416C2.46804 56.0314 2.56543 56.4861 2.60011 56.8219L5.58424 56.5138ZM5.10037 54.4629L7.93624 53.4842L7.54799 52.3592L4.71212 53.3379L1.87625 54.3166L2.2645 55.4416L5.10037 54.4629ZM4.71212 53.3379L7.54799 52.3592L7.15974 51.2342L4.32387 52.2129L1.488 53.1916L1.87625 54.3166L4.71212 53.3379ZM4.32387 52.2129L7.15974 51.2342C7.02769 50.8516 6.98949 50.5135 7.01424 50.196L4.02331 49.9629L1.03239 49.7297C0.940203 50.9123 1.10238 52.0742 1.488 53.1916L4.32387 52.2129ZM4.02331 49.9629L7.01424 50.196L7.10194 49.071L4.11101 48.8379L1.12009 48.6047L1.03239 49.7297L4.02331 49.9629ZM4.11101 48.8379L7.10194 49.071L7.18964 47.946L4.19871 47.7129L1.20779 47.4797L1.12009 48.6047L4.11101 48.8379ZM4.19871 47.7129L7.18964 47.946C7.25627 47.0913 7.27785 46.2358 7.25426 45.3802L4.2554 45.4629L1.25654 45.5456C1.2743 46.1899 1.25808 46.8345 1.20779 47.4797L4.19871 47.7129ZM4.2554 45.4629L7.25426 45.3802L7.22324 44.2552L4.22438 44.3379L1.22552 44.4206L1.25654 45.5456L4.2554 45.4629ZM4.22438 44.3379L7.22324 44.2552L7.19223 43.1302L4.19336 43.2129L1.1945 43.2956L1.22552 44.4206L4.22438 44.3379ZM4.19336 43.2129L7.19223 43.1302C7.17379 42.4617 7.18258 41.7931 7.2186 41.1242L4.22294 40.9629L1.22729 40.8015C1.18252 41.6327 1.17158 42.4641 1.1945 43.2956L4.19336 43.2129ZM4.22294 40.9629L7.2186 41.1242L7.27919 39.9992L4.28354 39.8379L1.28788 39.6765L1.22729 40.8015L4.22294 40.9629ZM4.28354 39.8379L7.27919 39.9992L7.33979 38.8742L4.34413 38.7129L1.34847 38.5515L1.28788 39.6765L4.28354 39.8379ZM4.34413 38.7129L7.33979 38.8742C7.36849 38.3415 7.45517 37.7997 7.6049 37.2458L4.70887 36.4629L1.81283 35.68C1.55704 36.6261 1.40057 37.5843 1.34847 38.5515L4.34413 38.7129ZM4.70887 36.4629L7.6049 37.2458L7.90904 36.1208L5.01301 35.3379L2.11697 34.555L1.81283 35.68L4.70887 36.4629ZM5.01301 35.3379L7.90904 36.1208L8.21318 34.9958L5.31714 34.2129L2.42111 33.43L2.11697 34.555L5.01301 35.3379ZM5.31714 34.2129L8.21318 34.9958C8.68001 33.269 8.25867 31.6345 7.35969 30.2929L4.86746 31.9629L2.37523 33.6329C2.44592 33.7384 2.42994 33.7507 2.41497 33.6758C2.40771 33.6395 2.40321 33.5943 2.40495 33.5447C2.40669 33.4954 2.41413 33.4558 2.42111 33.43L5.31714 34.2129ZM4.86746 31.9629L7.35969 30.2929L6.60586 29.1679L4.11363 30.8379L1.6214 32.5079L2.37523 33.6329L4.86746 31.9629ZM4.11363 30.8379L6.60586 29.1679L5.85203 28.0429L3.3598 29.7129L0.86757 31.3829L1.6214 32.5079L4.11363 30.8379ZM3.3598 29.7129L5.85203 28.0429C5.87711 28.0803 6.01048 28.3115 5.99896 28.6813C5.9877 29.0425 5.84723 29.2395 5.85021 29.2355L3.4299 27.4629L1.00958 25.6903C0.463279 26.4362 0.0364847 27.3833 0.00186491 28.4945C-0.0330234 29.6143 0.339939 30.5954 0.86757 31.3829L3.3598 29.7129ZM3.4299 27.4629L5.85021 29.2355L6.67414 28.1105L4.25383 26.3379L1.83351 24.5653L1.00958 25.6903L3.4299 27.4629ZM4.25383 26.3379L6.67414 28.1105L7.49807 26.9855L5.07775 25.2129L2.65744 23.4403L1.83351 24.5653L4.25383 26.3379ZM5.07775 25.2129L7.49807 26.9855C8.34747 25.8257 8.91505 24.4306 8.86174 22.8611L5.86347 22.9629L2.8652 23.0647C2.86462 23.0476 2.86977 23.0533 2.85387 23.0988C2.83573 23.1508 2.78582 23.265 2.65744 23.4403L5.07775 25.2129ZM5.86347 22.9629L8.86174 22.8611L8.82354 21.7361L5.82526 21.8379L2.82699 21.9397L2.8652 23.0647L5.86347 22.9629ZM5.82526 21.8379L8.82354 21.7361L8.78533 20.6111L5.78706 20.7129L2.78878 20.8147L2.82699 21.9397L5.82526 21.8379ZM5.78706 20.7129L8.78533 20.6111C8.74982 19.5656 8.56173 18.5372 8.23449 17.5332L5.38217 18.4629L2.52985 19.3926C2.69152 19.8886 2.77335 20.3602 2.78878 20.8147L5.78706 20.7129ZM5.38217 18.4629L8.23449 17.5332L7.86781 16.4082L5.01549 17.3379L2.16317 18.2676L2.52985 19.3926L5.38217 18.4629ZM5.01549 17.3379L7.86781 16.4082L7.50113 15.2832L4.64881 16.2129L1.7965 17.1426L2.16317 18.2676L5.01549 17.3379ZM4.64881 16.2129L7.50113 15.2832C7.27371 14.5855 7.06792 13.8891 6.88361 13.194L3.98382 13.9629L1.08404 14.7318C1.29747 15.5367 1.53502 16.3403 1.7965 17.1426L4.64881 16.2129ZM3.98382 13.9629L6.88361 13.194L6.58529 12.069L3.68551 12.8379L0.785724 13.6068L1.08404 14.7318L3.98382 13.9629ZM3.68551 12.8379L6.58529 12.069L6.28698 10.944L3.38719 11.7129L0.48741 12.4818L0.785724 13.6068L3.68551 12.8379ZM3.38719 11.7129L6.28698 10.944C6.15295 10.4385 6.09052 9.94947 6.09174 9.47053L3.09175 9.46289L0.0917554 9.45525C0.0891538 10.4763 0.22368 11.4872 0.48741 12.4818L3.38719 11.7129ZM3.09175 9.46289L6.09174 9.47053L6.0946 8.34553L3.09461 8.33789L0.0946212 8.33025L0.0917554 9.45525L3.09175 9.46289ZM3.09461 8.33789L6.0946 8.34553L6.09747 7.22053L3.09748 7.21289L0.0974874 7.20525L0.0946212 8.33025L3.09461 8.33789ZM3.09748 7.21289L6.09747 7.22053C6.09811 6.96677 6.11791 6.87844 6.11281 6.90234C6.10915 6.91948 6.09106 7.00016 6.04 7.12035C5.98933 7.23962 5.88981 7.43633 5.70705 7.65207L3.41803 5.71289L1.12902 3.77371C0.572891 4.43017 0.349617 5.16026 0.245292 5.64844C0.133333 6.17234 0.0987515 6.70901 0.0974874 7.20525L3.09748 7.21289ZM3.41803 5.71289L5.70705 7.65207L6.02473 7.27707L3.73572 5.33789L1.4467 3.39871L1.12902 3.77371L3.41803 5.71289ZM3.73572 5.33789L6.02473 7.27707L6.34242 6.90207L4.05341 4.96289L1.76439 3.02371L1.4467 3.39871L3.73572 5.33789ZM4.05341 4.96289L6.34242 6.90207C6.15468 7.12368 5.97165 7.25663 5.86011 7.32679C5.74759 7.39757 5.66958 7.42851 5.65381 7.4346C5.63224 7.44293 5.71933 7.40861 5.97576 7.36708L5.49609 4.40567L5.01643 1.44427C4.52286 1.52421 3.9945 1.6435 3.49203 1.83757C3.02608 2.01754 2.32927 2.35692 1.76439 3.02371L4.05341 4.96289ZM5.49609 4.40567L5.97576 7.36708L7.10076 7.18486L6.62109 4.22345L6.14143 1.26205L5.01643 1.44427L5.49609 4.40567Z" fill="#FFD11D"/>
<defs>
<clipPath id="clip0_692_127054">
<path d="M4.37109 4.58789H151.371V58.5879H4.37109V4.58789Z" fill="white"/>
</clipPath>
</defs>
</svg>
