<svg width="142" height="63" viewBox="0 0 142 63" fill="none" xmlns="http://www.w3.org/2000/svg">
<path d="M4.25195 4.58783H137.252V58.5878H4.25195V4.58783Z" fill="white"/>
<path d="M12.127 5.24847L10.9848 8.02256L12.127 5.24847ZM14.377 5.28434L13.3117 2.47982L14.377 5.28434ZM23.377 3.63521L22.5041 6.50542L23.377 3.63521ZM41.377 4.47535L42.6369 1.75274L41.377 4.47535ZM43.627 5.51657L42.367 8.23918L43.627 5.51657ZM45.877 5.3142L47.4989 7.83797L45.877 5.3142ZM48.127 3.86823L46.505 1.34446L48.127 3.86823ZM50.377 3.37822L49.7686 6.31589L50.377 3.37822ZM54.877 3.78942L55.6204 6.69585L54.877 3.78942ZM56.002 3.50167L55.2585 0.595238L56.002 3.50167ZM57.127 3.21392L56.3835 0.307484L57.127 3.21392ZM59.377 3.46313L60.6692 0.755724L59.377 3.46313ZM61.627 4.53707L60.3347 7.24448L61.627 4.53707ZM63.877 4.92972L63.4952 1.9541L63.877 4.92972ZM77.377 3.61485L75.6703 6.08213L77.377 3.61485ZM79.627 5.17117L81.3336 2.70389L79.627 5.17117ZM81.877 5.17694L80.1789 2.70374L81.877 5.17694ZM84.127 3.63217L85.825 6.10538L84.127 3.63217ZM86.377 3.2746L85.3391 6.08935L86.377 3.2746ZM88.627 4.10423L89.6648 1.28948L88.627 4.10423ZM90.877 4.28138L90.2569 1.34617L90.877 4.28138ZM93.127 3.80605L93.747 6.74127L93.127 3.80605ZM95.377 4.1983L93.9113 6.81591L95.377 4.1983ZM97.627 5.45812L99.0926 2.84052L97.627 5.45812ZM104.377 3.05135L103.776 5.99064L104.377 3.05135ZM106.627 3.51102L107.227 0.571735L106.627 3.51102ZM108.877 3.83543L108.626 6.82488L108.877 3.83543ZM113.377 4.04594L113.182 1.05227L113.377 4.04594ZM117.877 4.37315L116.566 7.07132L117.877 4.37315ZM120.127 5.46676L121.438 2.76859L120.127 5.46676ZM122.377 5.61141L121.367 2.78648L122.377 5.61141ZM124.627 4.8071L125.637 7.63203L124.627 4.8071ZM131.377 4.76862L130.162 7.51165L131.377 4.76862ZM133.627 5.76509L132.412 8.50812L133.627 5.76509ZM135.619 6.34445L135.899 3.35749L135.619 6.34445ZM136.487 6.42558L136.208 9.41255L136.487 6.42558ZM137.355 6.5067L137.634 3.51974L137.355 6.5067ZM138.006 7.71283L140.953 8.27759L138.006 7.71283ZM137.791 8.83783L134.844 8.27307L137.791 8.83783ZM136.606 14.4628L139.534 15.1164L136.606 14.4628ZM136.711 16.7128L139.571 15.8086L136.711 16.7128ZM137.422 18.9628L140.282 18.0586L137.422 18.9628ZM137.807 21.2128L134.808 21.2921L137.807 21.2128ZM137.867 23.4628L140.866 23.3835L137.867 23.4628ZM137.3 25.7128L134.649 24.307L137.3 25.7128ZM136.106 27.9628L138.756 29.3686L136.106 27.9628ZM136.305 30.2128L138.754 28.48L136.305 30.2128ZM137.897 32.4628L135.449 34.1957L137.897 32.4628ZM137.969 34.7128L135.447 33.0884L137.969 34.7128ZM137.244 35.8378L139.767 37.4623L137.244 35.8378ZM136.52 36.9628L139.042 38.5873L136.52 36.9628ZM135.908 39.2128L132.923 39.5128L135.908 39.2128ZM136.134 41.4628L139.119 41.1629L136.134 41.4628ZM138.917 48.2128L141.916 48.2545L138.917 48.2128ZM138.885 50.4628L141.885 50.5045L138.885 50.4628ZM138.227 52.7128L140.832 54.2013L138.227 52.7128ZM137.584 53.8378L134.979 52.3494L137.584 53.8378ZM136.941 54.9628L139.546 56.4513L136.941 54.9628ZM136.037 56.7222L138.81 57.8658L136.037 56.7222ZM135.514 57.991L132.74 56.8475L135.514 57.991ZM134.127 58.6489L134.19 61.6483L134.127 58.6489ZM131.877 58.6959L131.94 61.6953L131.877 58.6959ZM129.627 58.5995L129.945 55.6164L129.627 58.5995ZM127.377 58.3598L127.059 61.3429L127.377 58.3598ZM120.627 57.7224L120.234 60.6966L120.627 57.7224ZM118.377 57.4251L118.77 54.4509L118.377 57.4251ZM116.127 57.8631L117.514 60.5231L116.127 57.8631ZM113.877 59.0365L112.49 56.3765L113.877 59.0365ZM111.627 59.4075L111.062 62.3538L111.627 59.4075ZM110.502 59.1917L111.067 56.2454L110.502 59.1917ZM109.377 58.976L108.812 61.9223L109.377 58.976ZM107.127 59.1164L108.032 61.9765L107.127 59.1164ZM106.002 59.4725L105.097 56.6124L106.002 59.4725ZM104.877 59.8286L103.972 56.9685L104.877 59.8286ZM102.627 59.6796L103.856 56.9428L102.627 59.6796ZM100.377 58.6694L99.1482 61.4062L100.377 58.6694ZM98.127 58.2894L97.7952 55.3078L98.127 58.2894ZM95.877 58.5397L96.2087 61.5213L95.877 58.5397ZM93.627 58.6731L93.6051 55.6732L93.627 58.6731ZM91.377 58.6894L91.3988 61.6894L91.377 58.6894ZM89.127 58.9139L88.5607 55.9678L89.127 58.9139ZM86.877 59.3464L87.4433 62.2925L86.877 59.3464ZM84.627 59.4767L84.3985 62.468L84.627 59.4767ZM83.502 59.3908L83.7304 56.3995L83.502 59.3908ZM82.377 59.3049L82.1485 62.2962L82.377 59.3049ZM80.127 59.1283L80.368 56.138L80.127 59.1283ZM77.877 58.9469L77.6359 61.9372L77.877 58.9469ZM75.627 58.804L75.488 61.8008L75.627 58.804ZM73.377 58.6997L73.238 61.6965L73.377 58.6997ZM71.127 58.8003L70.7233 55.8276L71.127 58.8003ZM68.877 59.1058L69.2806 62.0785L68.877 59.1058ZM66.627 59.4025L67.0078 62.3783L66.627 59.4025ZM64.377 59.6905L63.9961 56.7148L64.377 59.6905ZM57.627 59.6352L57.8434 56.643L57.627 59.6352ZM53.127 58.8838L54.3599 56.1489L53.127 58.8838ZM50.877 57.8695L49.644 60.6044L50.877 57.8695ZM48.627 57.4688L48.3442 54.4822L48.627 57.4688ZM46.377 57.6818L46.6597 60.6685L46.377 57.6818ZM44.127 58.2425L45.25 61.0244L44.127 58.2425ZM41.877 59.1508L43 61.9327L41.877 59.1508ZM39.627 59.6125L39.6071 56.6125L39.627 59.6125ZM37.377 59.6274L37.3969 62.6273L37.377 59.6274ZM35.127 59.323L34.3256 62.214L35.127 59.323ZM32.877 58.6993L33.6783 55.8083L32.877 58.6993ZM30.627 58.2544L30.9793 55.2752L30.627 58.2544ZM28.377 57.9883L28.0246 60.9675L28.377 57.9883ZM26.127 57.7796L26.3282 54.7864L26.127 57.7796ZM23.877 57.6283L23.6757 60.6216L23.877 57.6283ZM17.127 57.3772L16.7219 54.4047L17.127 57.3772ZM14.877 57.6838L15.282 60.6563L14.877 57.6838ZM8.12695 57.4133L8.62791 54.4554L8.12695 57.4133ZM5.87695 57.0322L6.37791 54.0744L5.87695 57.0322ZM4.54639 56.2782L7.36472 55.2501L4.54639 56.2782ZM4.13528 55.1513L1.31696 56.1794L4.13528 55.1513ZM3.14717 51.2128L0.224701 51.8905L3.14717 51.2128ZM3.08697 48.9628L0.133581 48.4361L3.08697 48.9628ZM3.73924 44.4628L0.742232 44.3288L3.73924 44.4628ZM4.07957 19.7128L1.08865 19.4797L4.07957 19.7128ZM5.1896 4.96283L4.07557 7.74832L5.1896 4.96283ZM6.50195 4.22339L6.98162 7.1848L8.10662 7.00258L7.62695 4.04117L7.14729 1.07977L6.02229 1.26199L6.50195 4.22339ZM7.62695 4.04117L8.10662 7.00258C8.27183 6.97582 8.46165 6.98374 8.73484 7.09622L9.87695 4.32212L11.0191 1.54803C9.79226 1.04295 8.48208 0.863569 7.14729 1.07977L7.62695 4.04117ZM9.87695 4.32212L8.73484 7.09622L9.85984 7.55939L11.002 4.7853L12.1441 2.01121L11.0191 1.54803L9.87695 4.32212ZM11.002 4.7853L9.85984 7.55939L10.9848 8.02256L12.127 5.24847L13.2691 2.47438L12.1441 2.01121L11.002 4.7853ZM12.127 5.24847L10.9848 8.02256C12.4314 8.61811 13.9706 8.64778 15.4422 8.08886L14.377 5.28434L13.3117 2.47982C13.2865 2.48939 13.2756 2.49112 13.2775 2.49079C13.2797 2.49038 13.2881 2.48921 13.2998 2.4894C13.3115 2.48959 13.318 2.49098 13.3168 2.49071C13.3151 2.49035 13.2996 2.48694 13.2691 2.47438L12.127 5.24847ZM14.377 5.28434L15.4422 8.08886L16.5672 7.66157L15.502 4.85705L14.4367 2.05253L13.3117 2.47982L14.377 5.28434ZM15.502 4.85705L16.5672 7.66157L17.6922 7.23427L16.627 4.42975L15.5617 1.62523L14.4367 2.05253L15.502 4.85705ZM16.627 4.42975L17.6922 7.23427C18.2597 7.01871 18.8096 6.87278 19.3441 6.78852L18.877 3.82511L18.4098 0.861708C17.4443 1.0139 16.4942 1.27107 15.5617 1.62523L16.627 4.42975ZM18.877 3.82511L19.3441 6.78852L20.4691 6.61118L20.002 3.64777L19.5348 0.684367L18.4098 0.861708L18.877 3.82511ZM20.002 3.64777L20.4691 6.61118L21.5941 6.43384L21.127 3.47043L20.6598 0.507026L19.5348 0.684367L20.002 3.64777ZM21.127 3.47043L21.5941 6.43384C21.8814 6.38855 22.1735 6.40487 22.5041 6.50542L23.377 3.63521L24.2498 0.764988C23.0804 0.409386 21.8725 0.315858 20.6598 0.507026L21.127 3.47043ZM23.377 3.63521L22.5041 6.50542L23.6291 6.84754L24.502 3.97732L25.3748 1.1071L24.2498 0.764988L23.377 3.63521ZM24.502 3.97732L23.6291 6.84754L24.7541 7.18965L25.627 4.31943L26.4998 1.44922L25.3748 1.1071L24.502 3.97732ZM25.627 4.31943L24.7541 7.18965C25.7619 7.49611 26.7918 7.66236 27.8364 7.67648L27.877 4.67675L27.9175 1.67703C27.4621 1.67087 26.9921 1.59891 26.4998 1.44922L25.627 4.31943ZM27.877 4.67675L27.8364 7.67648L28.9614 7.69169L29.002 4.69196L29.0425 1.69223L27.9175 1.67703L27.877 4.67675ZM29.002 4.69196L28.9614 7.69169L30.0864 7.70689L30.127 4.70717L30.1675 1.70744L29.0425 1.69223L29.002 4.69196ZM30.127 4.70717L30.0864 7.70689C31.1351 7.72107 32.1718 7.58012 33.1881 7.2947L32.377 4.40644L31.5658 1.51817C31.0822 1.654 30.6188 1.71354 30.1675 1.70744L30.127 4.70717ZM32.377 4.40644L33.1881 7.2947L34.3131 6.97877L33.502 4.0905L32.6908 1.20223L31.5658 1.51817L32.377 4.40644ZM33.502 4.0905L34.3131 6.97877L35.4381 6.66283L34.627 3.77456L33.8158 0.886296L32.6908 1.20223L33.502 4.0905ZM34.627 3.77456L35.4381 6.66283C35.8299 6.55279 36.1931 6.52544 36.5482 6.56459L36.877 3.58265L37.2057 0.600721C36.0608 0.4745 34.924 0.575082 33.8158 0.886296L34.627 3.77456ZM36.877 3.58265L36.5482 6.56459L37.6732 6.68861L38.002 3.70668L38.3307 0.724749L37.2057 0.600721L36.877 3.58265ZM38.002 3.70668L37.6732 6.68861L38.7982 6.81264L39.127 3.83071L39.4557 0.848776L38.3307 0.724749L38.002 3.70668ZM39.127 3.83071L38.7982 6.81264C39.1966 6.85657 39.6334 6.97417 40.117 7.19795L41.377 4.47535L42.6369 1.75274C41.6205 1.28238 40.5573 0.970223 39.4557 0.848776L39.127 3.83071ZM41.377 4.47535L40.117 7.19795L41.242 7.71857L42.502 4.99596L43.7619 2.27336L42.6369 1.75274L41.377 4.47535ZM42.502 4.99596L41.242 7.71857L42.367 8.23918L43.627 5.51657L44.8869 2.79397L43.7619 2.27336L42.502 4.99596ZM43.627 5.51657L42.367 8.23918C44.133 9.0564 45.9669 8.82248 47.4989 7.83797L45.877 5.3142L44.255 2.79043C44.2124 2.81782 44.2951 2.75527 44.4832 2.73835C44.6823 2.72044 44.8322 2.76868 44.8869 2.79397L43.627 5.51657ZM45.877 5.3142L47.4989 7.83797L48.6239 7.11498L47.002 4.59121L45.38 2.06744L44.255 2.79043L45.877 5.3142ZM47.002 4.59121L48.6239 7.11498L49.7489 6.39199L48.127 3.86823L46.505 1.34446L45.38 2.06744L47.002 4.59121ZM48.127 3.86823L49.7489 6.39199C49.8707 6.31369 49.9163 6.30986 49.8903 6.31552C49.8781 6.31818 49.8571 6.32129 49.8305 6.32144C49.8038 6.32158 49.7821 6.31869 49.7686 6.31589L50.377 3.37822L50.9853 0.440559C49.3405 0.0999112 47.799 0.512918 46.505 1.34446L48.127 3.86823ZM50.377 3.37822L49.7686 6.31589L50.8936 6.54887L51.502 3.61121L52.1103 0.673544L50.9853 0.440559L50.377 3.37822ZM51.502 3.61121L50.8936 6.54887L52.0186 6.78186L52.627 3.84419L53.2353 0.906528L52.1103 0.673544L51.502 3.61121ZM52.627 3.84419L52.0186 6.78186C53.2206 7.0308 54.4329 6.99957 55.6204 6.69585L54.877 3.78942L54.1335 0.882993C53.821 0.962945 53.5333 0.968231 53.2353 0.906528L52.627 3.84419ZM54.877 3.78942L55.6204 6.69585L56.7454 6.4081L56.002 3.50167L55.2585 0.595238L54.1335 0.882993L54.877 3.78942ZM56.002 3.50167L56.7454 6.4081L57.8704 6.12035L57.127 3.21392L56.3835 0.307484L55.2585 0.595238L56.002 3.50167ZM57.127 3.21392L57.8704 6.12035C57.8904 6.11523 57.9017 6.11407 57.9064 6.11373C57.9109 6.1134 57.9153 6.1134 57.9217 6.11411C57.9308 6.11512 57.9822 6.1216 58.0847 6.17054L59.377 3.46313L60.6692 0.755724C59.3352 0.118968 57.8665 -0.0718322 56.3835 0.307484L57.127 3.21392ZM59.377 3.46313L58.0847 6.17054L59.2097 6.70751L60.502 4.0001L61.7942 1.29269L60.6692 0.755724L59.377 3.46313ZM60.502 4.0001L59.2097 6.70751L60.3347 7.24448L61.627 4.53707L62.9192 1.82966L61.7942 1.29269L60.502 4.0001ZM61.627 4.53707L60.3347 7.24448C61.5518 7.82539 62.8804 8.08215 64.2587 7.90533L63.877 4.92972L63.4952 1.9541C63.3735 1.96971 63.2022 1.96471 62.9192 1.82966L61.627 4.53707ZM63.877 4.92972L64.2587 7.90533L65.3837 7.761L65.002 4.78539L64.6202 1.80978L63.4952 1.9541L63.877 4.92972ZM65.002 4.78539L65.3837 7.761L66.5087 7.61668L66.127 4.64107L65.7452 1.66545L64.6202 1.80978L65.002 4.78539ZM66.127 4.64107L66.5087 7.61668C67.2565 7.52075 68.0042 7.42568 68.752 7.33146L68.377 4.35499L68.0019 1.37853C67.2497 1.47331 66.4975 1.56895 65.7452 1.66545L66.127 4.64107ZM68.377 4.35499L68.752 7.33146L69.877 7.18972L69.502 4.21325L69.1269 1.23678L68.0019 1.37853L68.377 4.35499ZM69.502 4.21325L69.877 7.18972L71.002 7.04797L70.627 4.0715L70.2519 1.09504L69.1269 1.23678L69.502 4.21325ZM70.627 4.0715L71.002 7.04797C71.8664 6.93905 72.7276 6.78001 73.5851 6.57172L72.877 3.65649L72.1688 0.741259C71.5263 0.897327 70.8875 1.01495 70.2519 1.09504L70.627 4.0715ZM72.877 3.65649L73.5851 6.57172L74.7101 6.29845L74.002 3.38322L73.2938 0.467992L72.1688 0.741259L72.877 3.65649ZM74.002 3.38322L74.7101 6.29845L75.8351 6.02518L75.127 3.10995L74.4188 0.194725L73.2938 0.467992L74.002 3.38322ZM75.127 3.10995L75.8351 6.02518C75.8063 6.03219 75.7656 6.03846 75.7172 6.03891C75.6688 6.03935 75.6267 6.03383 75.5951 6.02675C75.5307 6.01231 75.5545 6.00199 75.6703 6.08213L77.377 3.61485L79.0836 1.14757C77.7696 0.238677 76.1531 -0.226541 74.4188 0.194725L75.127 3.10995ZM77.377 3.61485L75.6703 6.08213L76.7953 6.86029L78.502 4.39301L80.2086 1.92573L79.0836 1.14757L77.377 3.61485ZM78.502 4.39301L76.7953 6.86029L77.9203 7.63845L79.627 5.17117L81.3336 2.70389L80.2086 1.92573L78.502 4.39301ZM79.627 5.17117L77.9203 7.63845C78.6854 8.16761 79.6415 8.55885 80.7443 8.56168C81.8477 8.56451 82.8066 8.1777 83.575 7.65015L81.877 5.17694L80.1789 2.70374C80.1973 2.6911 80.4062 2.56079 80.7597 2.5617C81.1124 2.56261 81.3186 2.6935 81.3336 2.70389L79.627 5.17117ZM81.877 5.17694L83.575 7.65015L84.7 6.87776L83.002 4.40456L81.3039 1.93135L80.1789 2.70374L81.877 5.17694ZM83.002 4.40456L84.7 6.87776L85.825 6.10538L84.127 3.63217L82.4289 1.15897L81.3039 1.93135L83.002 4.40456ZM84.127 3.63217L85.825 6.10538C85.9042 6.05098 85.8668 6.09652 85.7228 6.1194C85.6529 6.13051 85.5769 6.13293 85.5015 6.12502C85.4269 6.1172 85.3713 6.10123 85.3391 6.08935L86.377 3.2746L87.4148 0.459848C85.6149 -0.203832 83.8535 0.180936 82.4289 1.15897L84.127 3.63217ZM86.377 3.2746L85.3391 6.08935L86.4641 6.50417L87.502 3.68942L88.5398 0.874664L87.4148 0.459848L86.377 3.2746ZM87.502 3.68942L86.4641 6.50417L87.5891 6.91898L88.627 4.10423L89.6648 1.28948L88.5398 0.874664L87.502 3.68942ZM88.627 4.10423L87.5891 6.91898C88.8455 7.38226 90.1697 7.497 91.497 7.2166L90.877 4.28138L90.2569 1.34617C90.0842 1.38265 89.9084 1.37929 89.6648 1.28948L88.627 4.10423ZM90.877 4.28138L91.497 7.2166L92.622 6.97893L92.002 4.04372L91.3819 1.1085L90.2569 1.34617L90.877 4.28138ZM92.002 4.04372L92.622 6.97893L93.747 6.74127L93.127 3.80605L92.5069 0.870837L91.3819 1.1085L92.002 4.04372ZM93.127 3.80605L93.747 6.74127C93.7528 6.74005 93.7513 6.74081 93.7448 6.74093C93.7383 6.74105 93.7348 6.74037 93.7367 6.74071C93.7381 6.74094 93.7941 6.75026 93.9113 6.81591L95.377 4.1983L96.8426 1.58069C95.5411 0.851963 94.0549 0.543811 92.5069 0.870837L93.127 3.80605ZM95.377 4.1983L93.9113 6.81591L95.0363 7.44582L96.502 4.82821L97.9676 2.2106L96.8426 1.58069L95.377 4.1983ZM96.502 4.82821L95.0363 7.44582L96.1613 8.07573L97.627 5.45812L99.0926 2.84052L97.9676 2.2106L96.502 4.82821ZM97.627 5.45812L96.1613 8.07573C96.9813 8.53485 97.9478 8.80345 99.0001 8.71612C100.035 8.6302 100.923 8.21925 101.639 7.6992L99.877 5.2714L98.1146 2.8436C98.0811 2.86797 98.2185 2.76035 98.5038 2.73667C98.8061 2.71159 99.0226 2.80133 99.0926 2.84052L97.627 5.45812ZM99.877 5.2714L101.639 7.6992L102.764 6.88257L101.002 4.45477L99.2396 2.02697L98.1146 2.8436L99.877 5.2714ZM101.002 4.45477L102.764 6.88257L103.889 6.06595L102.127 3.63814L100.365 1.21034L99.2396 2.02697L101.002 4.45477ZM102.127 3.63814L103.889 6.06595C104.02 5.97138 104.059 5.97299 104.009 5.98603C103.984 5.99255 103.946 5.99931 103.899 6.00064C103.852 6.00197 103.81 5.99744 103.776 5.99064L104.377 3.05135L104.977 0.112063C103.232 -0.244526 101.64 0.28433 100.365 1.21034L102.127 3.63814ZM104.377 3.05135L103.776 5.99064L104.901 6.22047L105.502 3.28119L106.102 0.341899L104.977 0.112063L104.377 3.05135ZM105.502 3.28119L104.901 6.22047L106.026 6.45031L106.627 3.51102L107.227 0.571735L106.102 0.341899L105.502 3.28119ZM106.627 3.51102L106.026 6.45031C106.89 6.62669 107.756 6.75181 108.626 6.82488L108.877 3.83543L109.128 0.845972C108.498 0.792951 107.864 0.701802 107.227 0.571735L106.627 3.51102ZM108.877 3.83543L108.626 6.82488L109.751 6.91945L110.002 3.93L110.253 0.940542L109.128 0.845972L108.877 3.83543ZM110.002 3.93L109.751 6.91945L110.876 7.01402L111.127 4.02457L111.378 1.03511L110.253 0.940542L110.002 3.93ZM111.127 4.02457L110.876 7.01402C111.774 7.08953 112.673 7.09809 113.572 7.03961L113.377 4.04594L113.182 1.05227C112.581 1.09139 111.98 1.0857 111.378 1.03511L111.127 4.02457ZM113.377 4.04594L113.572 7.03961L114.697 6.96641L114.502 3.97274L114.307 0.979072L113.182 1.05227L113.377 4.04594ZM114.502 3.97274L114.697 6.96641L115.822 6.89321L115.627 3.89954L115.432 0.905873L114.307 0.979072L114.502 3.97274ZM115.627 3.89954L115.822 6.89321C115.997 6.88179 116.231 6.90874 116.566 7.07132L117.877 4.37315L119.188 1.67498C118.023 1.10849 116.757 0.819697 115.432 0.905873L115.627 3.89954ZM117.877 4.37315L116.566 7.07132L117.691 7.61812L119.002 4.91996L120.313 2.22179L119.188 1.67498L117.877 4.37315ZM119.002 4.91996L117.691 7.61812L118.816 8.16493L120.127 5.46676L121.438 2.76859L120.313 2.22179L119.002 4.91996ZM120.127 5.46676L118.816 8.16493C120.253 8.86348 121.838 8.98982 123.387 8.43634L122.377 5.61141L121.367 2.78648C121.357 2.79025 121.361 2.78754 121.379 2.7849C121.398 2.7822 121.421 2.78098 121.444 2.78251C121.468 2.78402 121.483 2.7876 121.485 2.78836C121.488 2.78895 121.472 2.785 121.438 2.76859L120.127 5.46676ZM122.377 5.61141L123.387 8.43634L124.512 8.03419L123.502 5.20925L122.492 2.38432L121.367 2.78648L122.377 5.61141ZM123.502 5.20925L124.512 8.03419L125.637 7.63203L124.627 4.8071L123.617 1.98217L122.492 2.38432L123.502 5.20925ZM124.627 4.8071L125.637 7.63203C126.109 7.46312 126.549 7.38244 126.967 7.36996L126.877 4.3713L126.787 1.37264C125.705 1.40502 124.645 1.61487 123.617 1.98217L124.627 4.8071ZM126.877 4.3713L126.967 7.36996L128.092 7.33632L128.002 4.33766L127.912 1.339L126.787 1.37264L126.877 4.3713ZM128.002 4.33766L128.092 7.33632L129.217 7.30268L129.127 4.30402L129.037 1.30536L127.912 1.339L128.002 4.33766ZM129.127 4.30402L129.217 7.30268C129.478 7.29488 129.784 7.344 130.162 7.51165L131.377 4.76862L132.592 2.02559C131.47 1.52892 130.276 1.26831 129.037 1.30536L129.127 4.30402ZM131.377 4.76862L130.162 7.51165L131.287 8.00988L132.502 5.26686L133.717 2.52383L132.592 2.02559L131.377 4.76862ZM132.502 5.26686L131.287 8.00988L132.412 8.50812L133.627 5.76509L134.842 3.02206L133.717 2.52383L132.502 5.26686ZM133.627 5.76509L132.412 8.50812C133.347 8.92196 134.336 9.23751 135.34 9.33142L135.619 6.34445L135.899 3.35749C135.746 3.34323 135.407 3.27254 134.842 3.02206L133.627 5.76509ZM135.619 6.34445L135.34 9.33142L136.208 9.41255L136.487 6.42558L136.766 3.43861L135.899 3.35749L135.619 6.34445ZM136.487 6.42558L136.208 9.41255L137.075 9.49367L137.355 6.5067L137.634 3.51974L136.766 3.43861L136.487 6.42558ZM137.355 6.5067L137.075 9.49367C136.903 9.47755 136.586 9.42037 136.229 9.21516C135.845 8.99548 135.524 8.66765 135.312 8.27522C134.934 7.57631 135.082 7.03372 135.06 7.14807L138.006 7.71283L140.953 8.27759C141.075 7.64194 141.185 6.52333 140.59 5.42238C139.876 4.10065 138.616 3.6116 137.634 3.51974L137.355 6.5067ZM138.006 7.71283L135.06 7.14807L134.844 8.27307L137.791 8.83783L140.737 9.40259L140.953 8.27759L138.006 7.71283ZM137.791 8.83783L134.844 8.27307L134.629 9.39807L137.575 9.96283L140.521 10.5276L140.737 9.40259L137.791 8.83783ZM137.575 9.96283L134.629 9.39807C134.491 10.1182 134.341 10.8386 134.18 11.5592L137.108 12.2128L140.036 12.8664C140.21 12.0871 140.372 11.3075 140.521 10.5276L137.575 9.96283ZM137.108 12.2128L134.18 11.5592L133.929 12.6842L136.857 13.3378L139.785 13.9914L140.036 12.8664L137.108 12.2128ZM136.857 13.3378L133.929 12.6842L133.678 13.8092L136.606 14.4628L139.534 15.1164L139.785 13.9914L136.857 13.3378ZM136.606 14.4628L133.678 13.8092C133.393 15.088 133.458 16.3752 133.85 17.617L136.711 16.7128L139.571 15.8086C139.489 15.5504 139.485 15.3377 139.534 15.1164L136.606 14.4628ZM136.711 16.7128L133.85 17.617L134.206 18.742L137.066 17.8378L139.927 16.9336L139.571 15.8086L136.711 16.7128ZM137.066 17.8378L134.206 18.742L134.561 19.867L137.422 18.9628L140.282 18.0586L139.927 16.9336L137.066 17.8378ZM137.422 18.9628L134.561 19.867C134.718 20.3628 134.796 20.8355 134.808 21.2921L137.807 21.2128L140.806 21.1335C140.778 20.0902 140.6 19.0628 140.282 18.0586L137.422 18.9628ZM137.807 21.2128L134.808 21.2921L134.838 22.4171L137.837 22.3378L140.836 22.2585L140.806 21.1335L137.807 21.2128ZM137.837 22.3378L134.838 22.4171L134.868 23.5421L137.867 23.4628L140.866 23.3835L140.836 22.2585L137.837 22.3378ZM137.867 23.4628L134.868 23.5421C134.872 23.7103 134.837 23.9526 134.649 24.307L137.3 25.7128L139.95 27.1186C140.558 25.973 140.901 24.7154 140.866 23.3835L137.867 23.4628ZM137.3 25.7128L134.649 24.307L134.053 25.432L136.703 26.8378L139.353 28.2436L139.95 27.1186L137.3 25.7128ZM136.703 26.8378L134.053 25.432L133.456 26.557L136.106 27.9628L138.756 29.3686L139.353 28.2436L136.703 26.8378ZM136.106 27.9628L133.456 26.557C133.021 27.3771 132.779 28.3281 132.869 29.3525C132.959 30.361 133.352 31.2326 133.856 31.9457L136.305 30.2128L138.754 28.48C138.728 28.443 138.823 28.5647 138.846 28.8232C138.87 29.0975 138.794 29.2986 138.756 29.3686L136.106 27.9628ZM136.305 30.2128L133.856 31.9457L134.653 33.0707L137.101 31.3378L139.55 29.605L138.754 28.48L136.305 30.2128ZM137.101 31.3378L134.653 33.0707L135.449 34.1957L137.897 32.4628L140.346 30.73L139.55 29.605L137.101 31.3378ZM137.897 32.4628L135.449 34.1957C135.451 34.199 135.325 34.0162 135.315 33.6831C135.304 33.3421 135.422 33.1263 135.447 33.0884L137.969 34.7128L140.491 36.3373C140.999 35.5493 141.346 34.5835 141.312 33.4926C141.277 32.4095 140.875 31.4766 140.346 30.73L137.897 32.4628ZM137.969 34.7128L135.447 33.0884L134.722 34.2134L137.244 35.8378L139.767 37.4623L140.491 36.3373L137.969 34.7128ZM137.244 35.8378L134.722 34.2134L133.998 35.3384L136.52 36.9628L139.042 38.5873L139.767 37.4623L137.244 35.8378ZM136.52 36.9628L133.998 35.3384C133.217 36.5501 132.768 37.9689 132.923 39.5128L135.908 39.2128L138.893 38.9129C138.893 38.9099 138.893 38.9086 138.893 38.9064C138.893 38.904 138.894 38.894 138.9 38.8747C138.91 38.8364 138.943 38.7413 139.042 38.5873L136.52 36.9628ZM135.908 39.2128L132.923 39.5128L133.036 40.6378L136.021 40.3378L139.006 40.0379L138.893 38.9129L135.908 39.2128ZM136.021 40.3378L133.036 40.6378L133.149 41.7628L136.134 41.4628L139.119 41.1629L139.006 40.0379L136.021 40.3378ZM136.134 41.4628L133.149 41.7628C133.275 43.0143 133.705 44.1821 134.342 45.25L136.919 43.7128L139.495 42.1757C139.237 41.7435 139.144 41.4113 139.119 41.1629L136.134 41.4628ZM136.919 43.7128L134.342 45.25L135.014 46.375L137.59 44.8378L140.166 43.3007L139.495 42.1757L136.919 43.7128ZM137.59 44.8378L135.014 46.375L135.685 47.5L138.261 45.9628L140.837 44.4257L140.166 43.3007L137.59 44.8378ZM138.261 45.9628L135.685 47.5C135.895 47.8527 135.919 48.0625 135.917 48.1712L138.917 48.2128L141.916 48.2545C141.936 46.8632 141.522 45.5729 140.837 44.4257L138.261 45.9628ZM138.917 48.2128L135.917 48.1712L135.901 49.2962L138.901 49.3378L141.901 49.3795L141.916 48.2545L138.917 48.2128ZM138.901 49.3378L135.901 49.2962L135.886 50.4212L138.885 50.4628L141.885 50.5045L141.901 49.3795L138.901 49.3378ZM138.885 50.4628L135.886 50.4212C135.883 50.5907 135.837 50.8478 135.622 51.2244L138.227 52.7128L140.832 54.2013C141.474 53.0778 141.867 51.8349 141.885 50.5045L138.885 50.4628ZM138.227 52.7128L135.622 51.2244L134.979 52.3494L137.584 53.8378L140.189 55.3263L140.832 54.2013L138.227 52.7128ZM137.584 53.8378L134.979 52.3494L134.336 53.4744L136.941 54.9628L139.546 56.4513L140.189 55.3263L137.584 53.8378ZM136.941 54.9628L134.336 53.4744C133.89 54.2564 133.512 54.9754 133.263 55.5787L136.037 56.7222L138.81 57.8658C138.91 57.6232 139.136 57.1692 139.546 56.4513L136.941 54.9628ZM136.037 56.7222L133.263 55.5787L133.002 56.2131L135.775 57.3566L138.549 58.5002L138.81 57.8658L136.037 56.7222ZM135.775 57.3566L133.002 56.2131L132.74 56.8475L135.514 57.991L138.287 59.1346L138.549 58.5002L135.775 57.3566ZM135.514 57.991L132.74 56.8475C132.971 56.2871 133.394 55.9314 133.75 55.7623C134.037 55.6261 134.197 55.6468 134.064 55.6496L134.127 58.6489L134.19 61.6483C135.293 61.6253 137.407 61.2687 138.287 59.1346L135.514 57.991ZM134.127 58.6489L134.064 55.6496L132.939 55.6731L133.002 58.6724L133.065 61.6718L134.19 61.6483L134.127 58.6489ZM133.002 58.6724L132.939 55.6731L131.814 55.6966L131.877 58.6959L131.94 61.6953L133.065 61.6718L133.002 58.6724ZM131.877 58.6959L131.814 55.6966C131.192 55.7096 130.569 55.6829 129.945 55.6164L129.627 58.5995L129.309 61.5826C130.185 61.6759 131.062 61.7136 131.94 61.6953L131.877 58.6959ZM129.627 58.5995L129.945 55.6164L128.82 55.4965L128.502 58.4796L128.184 61.4627L129.309 61.5826L129.627 58.5995ZM128.502 58.4796L128.82 55.4965L127.695 55.3766L127.377 58.3598L127.059 61.3429L128.184 61.4627L128.502 58.4796ZM127.377 58.3598L127.695 55.3766C126.921 55.2941 126.146 55.2212 125.372 55.1577L125.127 58.1477L124.882 61.1376C125.608 61.1971 126.333 61.2655 127.059 61.3429L127.377 58.3598ZM125.127 58.1477L125.372 55.1577L124.247 55.0655L124.002 58.0555L123.757 61.0454L124.882 61.1376L125.127 58.1477ZM124.002 58.0555L124.247 55.0655L123.122 54.9733L122.877 57.9633L122.632 60.9533L123.757 61.0454L124.002 58.0555ZM122.877 57.9633L123.122 54.9733C122.422 54.9159 121.721 54.8409 121.02 54.7483L120.627 57.7224L120.234 60.6966C121.033 60.8021 121.832 60.8877 122.632 60.9533L122.877 57.9633ZM120.627 57.7224L121.02 54.7483L119.895 54.5996L119.502 57.5737L119.109 60.5479L120.234 60.6966L120.627 57.7224ZM119.502 57.5737L119.895 54.5996L118.77 54.4509L118.377 57.4251L117.984 60.3992L119.109 60.5479L119.502 57.5737ZM118.377 57.4251L118.77 54.4509C117.337 54.2616 115.969 54.5618 114.74 55.2031L116.127 57.8631L117.514 60.5231C117.785 60.3821 117.917 60.3903 117.984 60.3992L118.377 57.4251ZM116.127 57.8631L114.74 55.2031L113.615 55.7898L115.002 58.4498L116.389 61.1098L117.514 60.5231L116.127 57.8631ZM115.002 58.4498L113.615 55.7898L112.49 56.3765L113.877 59.0365L115.264 61.6965L116.389 61.1098L115.002 58.4498ZM113.877 59.0365L112.49 56.3765C112.271 56.4905 112.205 56.4638 112.192 56.4612L111.627 59.4075L111.062 62.3538C112.548 62.6389 113.983 62.3648 115.264 61.6965L113.877 59.0365ZM111.627 59.4075L112.192 56.4612L111.067 56.2454L110.502 59.1917L109.937 62.138L111.062 62.3538L111.627 59.4075ZM110.502 59.1917L111.067 56.2454L109.942 56.0297L109.377 58.976L108.812 61.9223L109.937 62.138L110.502 59.1917ZM109.377 58.976L109.942 56.0297C108.687 55.789 107.432 55.8731 106.222 56.2562L107.127 59.1164L108.032 61.9765C108.322 61.8848 108.567 61.8753 108.812 61.9223L109.377 58.976ZM107.127 59.1164L106.222 56.2562L105.097 56.6124L106.002 59.4725L106.907 62.3326L108.032 61.9765L107.127 59.1164ZM106.002 59.4725L105.097 56.6124L103.972 56.9685L104.877 59.8286L105.782 62.6887L106.907 62.3326L106.002 59.4725ZM104.877 59.8286L103.972 56.9685C103.961 56.9719 103.953 56.9738 103.949 56.9748C103.944 56.9758 103.942 56.976 103.942 56.9761C103.942 56.9761 103.943 56.9759 103.945 56.9759C103.947 56.9758 103.949 56.9759 103.95 56.976C103.954 56.9762 103.951 56.9765 103.938 56.9732C103.925 56.9698 103.898 56.9616 103.856 56.9428L102.627 59.6796L101.398 62.4164C102.787 63.04 104.296 63.1592 105.782 62.6887L104.877 59.8286ZM102.627 59.6796L103.856 56.9428L102.731 56.4377L101.502 59.1745L100.273 61.9113L101.398 62.4164L102.627 59.6796ZM101.502 59.1745L102.731 56.4377L101.606 55.9326L100.377 58.6694L99.1482 61.4062L100.273 61.9113L101.502 59.1745ZM100.377 58.6694L101.606 55.9326C100.412 55.3966 99.1251 55.1599 97.7952 55.3078L98.127 58.2894L98.4587 61.271C98.6288 61.2521 98.842 61.2687 99.1482 61.4062L100.377 58.6694ZM98.127 58.2894L97.7952 55.3078L96.6702 55.433L97.002 58.4146L97.3337 61.3962L98.4587 61.271L98.127 58.2894ZM97.002 58.4146L96.6702 55.433L95.5452 55.5581L95.877 58.5397L96.2087 61.5213L97.3337 61.3962L97.002 58.4146ZM95.877 58.5397L95.5452 55.5581C94.8975 55.6302 94.2509 55.6684 93.6051 55.6732L93.627 58.6731L93.6488 61.673C94.503 61.6668 95.3564 61.6161 96.2087 61.5213L95.877 58.5397ZM93.627 58.6731L93.6051 55.6732L92.4801 55.6813L92.502 58.6813L92.5238 61.6812L93.6488 61.673L93.627 58.6731ZM92.502 58.6813L92.4801 55.6813L91.3551 55.6895L91.377 58.6894L91.3988 61.6894L92.5238 61.6812L92.502 58.6813ZM91.377 58.6894L91.3551 55.6895C90.4191 55.6963 89.4868 55.7898 88.5607 55.9678L89.127 58.9139L89.6933 61.86C90.2671 61.7497 90.8349 61.6935 91.3988 61.6894L91.377 58.6894ZM89.127 58.9139L88.5607 55.9678L87.4357 56.1841L88.002 59.1301L88.5683 62.0762L89.6933 61.86L89.127 58.9139ZM88.002 59.1301L87.4357 56.1841L86.3107 56.4003L86.877 59.3464L87.4433 62.2925L88.5683 62.0762L88.002 59.1301ZM86.877 59.3464L86.3107 56.4003C85.8183 56.495 85.3356 56.5221 84.8554 56.4854L84.627 59.4767L84.3985 62.468C85.4183 62.5459 86.4356 62.4862 87.4433 62.2925L86.877 59.3464ZM84.627 59.4767L84.8554 56.4854L83.7304 56.3995L83.502 59.3908L83.2735 62.3821L84.3985 62.468L84.627 59.4767ZM83.502 59.3908L83.7304 56.3995L82.6054 56.3136L82.377 59.3049L82.1485 62.2962L83.2735 62.3821L83.502 59.3908ZM82.377 59.3049L82.6054 56.3136C81.8596 56.2566 81.1138 56.1981 80.368 56.138L80.127 59.1283L79.8859 62.1186C80.6401 62.1794 81.3943 62.2386 82.1485 62.2962L82.377 59.3049ZM80.127 59.1283L80.368 56.138L79.243 56.0473L79.002 59.0376L78.7609 62.0279L79.8859 62.1186L80.127 59.1283ZM79.002 59.0376L79.243 56.0473L78.118 55.9566L77.877 58.9469L77.6359 61.9372L78.7609 62.0279L79.002 59.0376ZM77.877 58.9469L78.118 55.9566C77.3341 55.8934 76.55 55.8436 75.7659 55.8073L75.627 58.804L75.488 61.8008C76.2039 61.834 76.9198 61.8795 77.6359 61.9372L77.877 58.9469ZM75.627 58.804L75.7659 55.8073L74.6409 55.7551L74.502 58.7519L74.363 61.7487L75.488 61.8008L75.627 58.804ZM74.502 58.7519L74.6409 55.7551L73.5159 55.7029L73.377 58.6997L73.238 61.6965L74.363 61.7487L74.502 58.7519ZM73.377 58.6997L73.5159 55.7029C72.5832 55.6597 71.6516 55.7015 70.7233 55.8276L71.127 58.8003L71.5306 61.773C72.1023 61.6954 72.6707 61.6702 73.238 61.6965L73.377 58.6997ZM71.127 58.8003L70.7233 55.8276L69.5983 55.9803L70.002 58.953L70.4056 61.9258L71.5306 61.773L71.127 58.8003ZM70.002 58.953L69.5983 55.9803L68.4733 56.1331L68.877 59.1058L69.2806 62.0785L70.4056 61.9258L70.002 58.953ZM68.877 59.1058L68.4733 56.1331C67.7309 56.2339 66.9885 56.3318 66.2461 56.4268L66.627 59.4025L67.0078 62.3783C67.7654 62.2813 68.523 62.1814 69.2806 62.0785L68.877 59.1058ZM66.627 59.4025L66.2461 56.4268L65.1211 56.5708L65.502 59.5465L65.8828 62.5223L67.0078 62.3783L66.627 59.4025ZM65.502 59.5465L65.1211 56.5708L63.9961 56.7148L64.377 59.6905L64.7578 62.6663L65.8828 62.5223L65.502 59.5465ZM64.377 59.6905L63.9961 56.7148C63.3972 56.7915 62.8008 56.8217 62.2056 56.8061L62.1269 59.805L62.0483 62.804C62.9531 62.8277 63.8567 62.7816 64.7578 62.6663L64.377 59.6905ZM62.1269 59.805L62.2056 56.8061L61.0806 56.7766L61.0019 59.7756L60.9233 62.7745L62.0483 62.804L62.1269 59.805ZM61.0019 59.7756L61.0806 56.7766L59.9556 56.7471L59.8769 59.7461L59.7983 62.745L60.9233 62.7745L61.0019 59.7756ZM59.8769 59.7461L59.9556 56.7471C59.2517 56.7286 58.5476 56.694 57.8434 56.643L57.627 59.6352L57.4105 62.6274C58.2063 62.6849 59.0022 62.7242 59.7983 62.745L59.8769 59.7461ZM57.627 59.6352L57.8434 56.643L56.7184 56.5616L56.502 59.5538L56.2855 62.546L57.4105 62.6274L57.627 59.6352ZM56.502 59.5538L56.7184 56.5616L55.5934 56.4802L55.377 59.4724L55.1605 62.4646L56.2855 62.546L56.502 59.5538ZM55.377 59.4724L55.5934 56.4802C55.2263 56.4537 54.819 56.3559 54.3599 56.1489L53.127 58.8838L51.894 61.6187C52.9349 62.088 54.0276 62.3826 55.1605 62.4646L55.377 59.4724ZM53.127 58.8838L54.3599 56.1489L53.2349 55.6417L52.002 58.3766L50.769 61.1116L51.894 61.6187L53.127 58.8838ZM52.002 58.3766L53.2349 55.6417L52.1099 55.1346L50.877 57.8695L49.644 60.6044L50.769 61.1116L52.002 58.3766ZM50.877 57.8695L52.1099 55.1346C50.93 54.6026 49.6597 54.3576 48.3442 54.4822L48.627 57.4688L48.9097 60.4554C49.0942 60.438 49.3239 60.4601 49.644 60.6044L50.877 57.8695ZM48.627 57.4688L48.3442 54.4822L47.2192 54.5887L47.502 57.5753L47.7847 60.562L48.9097 60.4554L48.627 57.4688ZM47.502 57.5753L47.2192 54.5887L46.0942 54.6952L46.377 57.6818L46.6597 60.6685L47.7847 60.562L47.502 57.5753ZM46.377 57.6818L46.0942 54.6952C45.0352 54.7954 44.0029 55.0573 43.0039 55.4606L44.127 58.2425L45.25 61.0244C45.751 60.8221 46.2187 60.7102 46.6597 60.6685L46.377 57.6818ZM44.127 58.2425L43.0039 55.4606L41.8789 55.9148L43.002 58.6967L44.125 61.4785L45.25 61.0244L44.127 58.2425ZM43.002 58.6967L41.8789 55.9148L40.7539 56.369L41.877 59.1508L43 61.9327L44.125 61.4785L43.002 58.6967ZM41.877 59.1508L40.7539 56.369C40.3269 56.5414 39.9501 56.6103 39.6071 56.6125L39.627 59.6125L39.6469 62.6124C40.8038 62.6047 41.927 62.3659 43 61.9327L41.877 59.1508ZM39.627 59.6125L39.6071 56.6125L38.482 56.62L38.502 59.6199L38.5219 62.6199L39.6469 62.6124L39.627 59.6125ZM38.502 59.6199L38.482 56.62L37.357 56.6275L37.377 59.6274L37.3969 62.6273L38.5219 62.6199L38.502 59.6199ZM37.377 59.6274L37.357 56.6275C36.8948 56.6305 36.421 56.5686 35.9283 56.432L35.127 59.323L34.3256 62.214C35.3329 62.4932 36.3591 62.6342 37.3969 62.6273L37.377 59.6274ZM35.127 59.323L35.9283 56.432L34.8033 56.1202L34.002 59.0112L33.2006 61.9022L34.3256 62.214L35.127 59.323ZM34.002 59.0112L34.8033 56.1202L33.6783 55.8083L32.877 58.6993L32.0756 61.5903L33.2006 61.9022L34.002 59.0112ZM32.877 58.6993L33.6783 55.8083C32.7856 55.5609 31.8856 55.3824 30.9793 55.2752L30.627 58.2544L30.2746 61.2337C30.8683 61.3039 31.4683 61.422 32.0756 61.5903L32.877 58.6993ZM30.627 58.2544L30.9793 55.2752L29.8543 55.1421L29.502 58.1214L29.1496 61.1006L30.2746 61.2337L30.627 58.2544ZM29.502 58.1214L29.8543 55.1421L28.7293 55.0091L28.377 57.9883L28.0246 60.9675L29.1496 61.1006L29.502 58.1214ZM28.377 57.9883L28.7293 55.0091C27.9293 54.9145 27.1289 54.8402 26.3282 54.7864L26.127 57.7796L25.9257 60.7728C26.625 60.8199 27.3246 60.8848 28.0246 60.9675L28.377 57.9883ZM26.127 57.7796L26.3282 54.7864L25.2032 54.7107L25.002 57.704L24.8007 60.6972L25.9257 60.7728L26.127 57.7796ZM25.002 57.704L25.2032 54.7107L24.0782 54.6351L23.877 57.6283L23.6757 60.6216L24.8007 60.6972L25.002 57.704ZM23.877 57.6283L24.0782 54.6351C23.334 54.585 22.5898 54.5328 21.8456 54.4785L21.627 57.4705L21.4083 60.4625C22.1641 60.5177 22.9199 60.5707 23.6757 60.6216L23.877 57.6283ZM21.627 57.4705L21.8456 54.4785L20.7206 54.3963L20.502 57.3883L20.2834 60.3803L21.4083 60.4625L21.627 57.4705ZM20.502 57.3883L20.7206 54.3963L19.5956 54.3141L19.377 57.3061L19.1584 60.2981L20.2834 60.3803L20.502 57.3883ZM19.377 57.3061L19.5956 54.3141C18.6362 54.244 17.6772 54.2745 16.7219 54.4047L17.127 57.3772L17.532 60.3497C18.0767 60.2755 18.6177 60.2586 19.1584 60.2981L19.377 57.3061ZM17.127 57.3772L16.7219 54.4047L15.5969 54.5579L16.002 57.5305L16.407 60.503L17.532 60.3497L17.127 57.3772ZM16.002 57.5305L15.5969 54.5579L14.4719 54.7112L14.877 57.6838L15.282 60.6563L16.407 60.503L16.002 57.5305ZM14.877 57.6838L14.4719 54.7112C13.9061 54.7883 13.3437 54.8119 12.7822 54.7828L12.627 57.7788L12.4717 60.7747C13.4103 60.8234 14.3478 60.7836 15.282 60.6563L14.877 57.6838ZM12.627 57.7788L12.7822 54.7828L11.6572 54.7245L11.502 57.7205L11.3467 60.7164L12.4717 60.7747L12.627 57.7788ZM11.502 57.7205L11.6572 54.7245L10.5322 54.6662L10.377 57.6622L10.2217 60.6581L11.3467 60.7164L11.502 57.7205ZM10.377 57.6622L10.5322 54.6662C9.89956 54.6334 9.26498 54.5633 8.62791 54.4554L8.12695 57.4133L7.62599 60.3712C8.48892 60.5173 9.35434 60.6132 10.2217 60.6581L10.377 57.6622ZM8.12695 57.4133L8.62791 54.4554L7.50291 54.2649L7.00195 57.2228L6.50099 60.1807L7.62599 60.3712L8.12695 57.4133ZM7.00195 57.2228L7.50291 54.2649L6.37791 54.0744L5.87695 57.0322L5.37599 59.9901L6.50099 60.1807L7.00195 57.2228ZM5.87695 57.0322L6.37791 54.0744C6.19415 54.0432 6.26889 54.0296 6.46089 54.1384C6.68456 54.2652 7.12794 54.6011 7.36472 55.2501L4.54639 56.2782L1.72807 57.3064C2.47319 59.3489 4.49942 59.8417 5.37599 59.9901L5.87695 57.0322ZM4.54639 56.2782L7.36472 55.2501L7.15916 54.6866L4.34084 55.7148L1.52252 56.7429L1.72807 57.3064L4.54639 56.2782ZM4.34084 55.7148L7.15916 54.6866L6.9536 54.1232L4.13528 55.1513L1.31696 56.1794L1.52252 56.7429L4.34084 55.7148ZM4.13528 55.1513L6.9536 54.1232C6.8807 53.9233 6.75793 53.5037 6.59134 52.7852L3.66887 53.4628L0.746405 54.1405C0.927619 54.922 1.11579 55.628 1.31696 56.1794L4.13528 55.1513ZM3.66887 53.4628L6.59134 52.7852L6.33049 51.6602L3.40802 52.3378L0.485553 53.0155L0.746405 54.1405L3.66887 53.4628ZM3.40802 52.3378L6.33049 51.6602L6.06964 50.5352L3.14717 51.2128L0.224701 51.8905L0.485553 53.0155L3.40802 52.3378ZM3.14717 51.2128L6.06964 50.5352C5.98638 50.1761 5.97861 49.8358 6.04036 49.4896L3.08697 48.9628L0.133581 48.4361C-0.0722008 49.5898 -0.0398459 50.7495 0.224701 51.8905L3.14717 51.2128ZM3.08697 48.9628L6.04036 49.4896L6.24102 48.3646L3.28763 47.8378L0.334234 47.3111L0.133581 48.4361L3.08697 48.9628ZM3.28763 47.8378L6.24102 48.3646L6.44167 47.2396L3.48828 46.7128L0.534888 46.1861L0.334234 47.3111L3.28763 47.8378ZM3.48828 46.7128L6.44167 47.2396C6.59825 46.3617 6.69673 45.4805 6.73624 44.5968L3.73924 44.4628L0.742232 44.3288C0.714672 44.9452 0.645845 45.564 0.534888 46.1861L3.48828 46.7128ZM3.73924 44.4628L6.73624 44.5968L6.78655 43.4718L3.78954 43.3378L0.792536 43.2038L0.742232 44.3288L3.73924 44.4628ZM3.78954 43.3378L6.78655 43.4718L6.83685 42.3468L3.83985 42.2128L0.84284 42.0788L0.792536 43.2038L3.78954 43.3378ZM3.83985 42.2128L6.83685 42.3468C6.87504 41.4929 6.86878 40.6388 6.81811 39.7851L3.82338 39.9628L0.828649 40.1406C0.867006 40.7868 0.871727 41.4328 0.84284 42.0788L3.83985 42.2128ZM3.82338 39.9628L6.81811 39.7851L6.75134 38.6601L3.75661 38.8378L0.76188 39.0156L0.828649 40.1406L3.82338 39.9628ZM3.75661 38.8378L6.75134 38.6601L6.68457 37.5351L3.68984 37.7128L0.69511 37.8906L0.76188 39.0156L3.75661 38.8378ZM3.68984 37.7128L6.68457 37.5351C6.64258 36.8276 6.61573 36.1203 6.604 35.4131L3.60441 35.4628L0.604827 35.5126C0.617973 36.3053 0.648071 37.098 0.69511 37.8906L3.68984 37.7128ZM3.60441 35.4628L6.604 35.4131L6.58535 34.2881L3.58576 34.3378L0.586172 34.3876L0.604827 35.5126L3.60441 35.4628ZM3.58576 34.3378L6.58535 34.2881L6.56669 33.1631L3.5671 33.2128L0.567516 33.2626L0.586172 34.3876L3.58576 34.3378ZM3.5671 33.2128L6.56669 33.1631C6.56144 32.8463 6.6201 32.4948 6.78463 32.0882L4.00371 30.9628L1.22278 29.8375C0.7803 30.9309 0.547896 32.0794 0.567516 33.2626L3.5671 33.2128ZM4.00371 30.9628L6.78463 32.0882L7.23989 30.9632L4.45896 29.8378L1.67804 28.7125L1.22278 29.8375L4.00371 30.9628ZM4.45896 29.8378L7.23989 30.9632L7.69515 29.8382L4.91422 28.7128L2.1333 27.5875L1.67804 28.7125L4.45896 29.8378ZM4.91422 28.7128L7.69515 29.8382C8.26457 28.4311 8.31741 26.9338 7.8171 25.4841L4.98123 26.4628L2.14536 27.4415C2.1552 27.47 2.1583 27.4866 2.15924 27.4926C2.15976 27.4958 2.15988 27.4976 2.15991 27.498C2.15993 27.4983 2.15993 27.4984 2.15993 27.4984C2.15993 27.4985 2.15993 27.4985 2.15993 27.4985C2.15993 27.4985 2.15991 27.4994 2.15967 27.5014C2.15942 27.5034 2.15884 27.5073 2.1575 27.5135C2.15491 27.5254 2.14857 27.5497 2.1333 27.5875L4.91422 28.7128ZM4.98123 26.4628L7.8171 25.4841L7.42885 24.3591L4.59298 25.3378L1.75711 26.3165L2.14536 27.4415L4.98123 26.4628ZM4.59298 25.3378L7.42885 24.3591L7.0406 23.2341L4.20473 24.2128L1.36886 25.1915L1.75711 26.3165L4.59298 25.3378ZM4.20473 24.2128L7.0406 23.2341C6.90855 22.8515 6.87035 22.5134 6.8951 22.196L3.90417 21.9628L0.913248 21.7297C0.821062 22.9122 0.983235 24.0741 1.36886 25.1915L4.20473 24.2128ZM3.90417 21.9628L6.8951 22.196L6.9828 21.071L3.99187 20.8378L1.00095 20.6047L0.913248 21.7297L3.90417 21.9628ZM3.99187 20.8378L6.9828 21.071L7.0705 19.946L4.07957 19.7128L1.08865 19.4797L1.00095 20.6047L3.99187 20.8378ZM4.07957 19.7128L7.0705 19.946C7.13713 19.0912 7.1587 18.2358 7.13512 17.3802L4.13626 17.4628L1.13739 17.5455C1.15516 18.1899 1.13894 18.8345 1.08865 19.4797L4.07957 19.7128ZM4.13626 17.4628L7.13512 17.3802L7.1041 16.2552L4.10524 16.3378L1.10638 16.4205L1.13739 17.5455L4.13626 17.4628ZM4.10524 16.3378L7.1041 16.2552L7.07308 15.1302L4.07422 15.2128L1.07536 15.2955L1.10638 16.4205L4.10524 16.3378ZM4.07422 15.2128L7.07308 15.1302C7.05465 14.4616 7.06344 13.793 7.09946 13.1242L4.1038 12.9628L1.10814 12.8015C1.06338 13.6327 1.05244 14.4641 1.07536 15.2955L4.07422 15.2128ZM4.1038 12.9628L7.09946 13.1242L7.16005 11.9992L4.1644 11.8378L1.16874 11.6765L1.10814 12.8015L4.1038 12.9628ZM4.1644 11.8378L7.16005 11.9992L7.22065 10.8742L4.22499 10.7128L1.22933 10.5515L1.16874 11.6765L4.1644 11.8378ZM4.22499 10.7128L7.22065 10.8742C7.24934 10.3414 7.33603 9.79962 7.48576 9.24576L4.58972 8.46283L1.69369 7.6799C1.4379 8.62604 1.28143 9.58426 1.22933 10.5515L4.22499 10.7128ZM4.58972 8.46283L7.48576 9.24576L7.7899 8.12076L4.89386 7.33783L1.99783 6.5549L1.69369 7.6799L4.58972 8.46283ZM4.89386 7.33783L7.7899 8.12076L8.09404 6.99576L5.198 6.21283L2.30197 5.4299L1.99783 6.5549L4.89386 7.33783ZM5.198 6.21283L8.09404 6.99576C8.21638 6.54321 8.35208 5.93796 8.3479 5.31765C8.34566 4.98373 8.29307 2.973 6.30362 2.17734L5.1896 4.96283L4.07557 7.74832C3.23229 7.41106 2.75923 6.76537 2.54369 6.25501C2.35715 5.81331 2.34872 5.45868 2.34804 5.35801C2.34667 5.15437 2.38238 5.13245 2.30197 5.4299L5.198 6.21283ZM5.1896 4.96283L6.30362 2.17734L5.99108 2.05234L4.87705 4.83783L3.76302 7.62332L4.07557 7.74832L5.1896 4.96283ZM4.87705 4.83783L5.99108 2.05234L5.67853 1.92734L4.5645 4.71283L3.45047 7.49832L3.76302 7.62332L4.87705 4.83783ZM4.5645 4.71283L5.67853 1.92734C5.77628 1.96644 6.2055 2.13694 6.62452 2.55376C6.8574 2.7854 7.17464 3.18003 7.3577 3.75776C7.5547 4.37948 7.53554 5.02616 7.34164 5.60286C7.01115 6.58577 6.2942 7.04427 6.16104 7.13037C5.92707 7.28163 5.73277 7.35679 5.67243 7.37961C5.48802 7.44934 5.46092 7.43111 5.85662 7.36702L5.37695 4.40561L4.89729 1.44421C4.54298 1.50159 4.00548 1.59531 3.55025 1.76744C3.4222 1.81586 3.17518 1.91603 2.90345 2.0917C2.73254 2.2022 1.9928 2.68452 1.65451 3.69065C1.18094 5.09908 1.83776 6.25518 2.39313 6.80762C2.8343 7.24645 3.30063 7.43839 3.45047 7.49832L4.5645 4.71283ZM5.37695 4.40561L5.85662 7.36702L6.98162 7.1848L6.50195 4.22339L6.02229 1.26199L4.89729 1.44421L5.37695 4.40561Z" fill="#134C39"/>
<path d="M40.54 19.7078C40.988 19.7078 41.436 19.8758 41.884 20.2118C42.348 20.5318 42.58 20.8438 42.58 21.1478C42.58 21.4518 42.516 21.7878 42.388 22.1558C42.276 22.5238 42.084 22.9878 41.812 23.5478C41.556 24.0918 41.292 24.6278 41.02 25.1558C40.764 25.6678 40.42 26.3478 39.988 27.1958C39.556 28.0278 39.18 28.7718 38.86 29.4278C38.54 30.0838 38.18 30.8598 37.78 31.7558C37.396 32.6518 37.076 33.3878 36.82 33.9638C36.564 34.5238 36.292 35.0758 36.004 35.6198C35.444 36.7078 34.9 37.2518 34.372 37.2518C34.132 37.2518 33.796 37.0758 33.364 36.7238C32.948 36.3718 32.668 36.0198 32.524 35.6678C32.06 34.4358 31.444 31.8678 30.676 27.9638C29.908 24.0598 29.524 21.7078 29.524 20.9078C29.524 20.1078 29.74 19.7078 30.172 19.7078C30.716 19.7078 31.276 19.9398 31.852 20.4038C32.428 20.8678 32.876 21.4838 33.196 22.2518C33.324 22.5718 33.444 23.2518 33.556 24.2918C33.684 25.3158 33.828 26.5958 33.988 28.1318C34.164 29.6518 34.348 30.9558 34.54 32.0438C36.156 27.6598 37.428 24.5078 38.356 22.5878C39.3 20.6678 40.028 19.7078 40.54 19.7078ZM43.9774 21.9158C43.9774 21.4998 44.1614 21.0758 44.5294 20.6438C44.9134 20.1958 45.2814 19.9718 45.6334 19.9718C46.0014 19.9718 46.4334 20.4038 46.9294 21.2678C47.4254 22.1318 47.6734 22.7638 47.6734 23.1638C47.6734 23.5478 47.5454 23.8438 47.2894 24.0518C47.0334 24.2598 46.7694 24.3638 46.4974 24.3638C46.0334 24.3638 45.4974 24.0598 44.8894 23.4518C44.2814 22.8438 43.9774 22.3318 43.9774 21.9158ZM44.3374 24.9158C44.8974 24.9158 45.3934 25.2358 45.8254 25.8758C46.2734 26.5158 46.4974 27.1318 46.4974 27.7238C46.4974 28.0278 46.2174 29.1238 45.6574 31.0118C45.1134 32.8838 44.5694 34.6598 44.0254 36.3398C43.8334 36.9638 43.4414 37.2758 42.8494 37.2758C42.4974 37.2758 42.1854 37.1478 41.9134 36.8918C41.6574 36.6198 41.5294 36.2758 41.5294 35.8598C41.5294 35.4278 41.7294 34.3718 42.1294 32.6918C42.5454 30.9958 42.8574 29.5558 43.0654 28.3718C43.2894 27.1718 43.4894 26.2998 43.6654 25.7558C43.8574 25.1958 44.0814 24.9158 44.3374 24.9158ZM58.6118 29.4038C58.6118 30.1878 58.0758 30.8918 57.0038 31.5158C55.9478 32.1398 54.8598 32.4518 53.7398 32.4518C52.6198 32.4518 51.6998 32.3718 50.9798 32.2118C50.8358 32.6438 50.7638 33.0758 50.7638 33.5078C50.7638 33.9398 50.8358 34.2518 50.9798 34.4438C51.1238 34.6198 51.4838 34.7078 52.0598 34.7078C53.2598 34.7078 54.2838 34.5958 55.1318 34.3718C55.9958 34.1478 56.4438 34.0358 56.4758 34.0358C57.1318 34.0358 57.4598 34.2518 57.4598 34.6838C57.4598 35.3078 56.9398 35.8998 55.8998 36.4598C54.8758 37.0198 53.6838 37.2998 52.3238 37.2998C50.9798 37.2998 49.8998 36.8758 49.0838 36.0278C48.2678 35.1798 47.8598 34.1798 47.8598 33.0278C47.8598 31.8598 48.1958 30.6438 48.8678 29.3798C49.5558 28.1158 50.4118 27.0598 51.4358 26.2118C52.4598 25.3478 53.4758 24.9158 54.4838 24.9158C55.5078 24.9158 56.4518 25.4198 57.3158 26.4278C58.1798 27.4198 58.6118 28.4118 58.6118 29.4038ZM55.8278 29.0198C55.8278 28.8598 55.6598 28.6278 55.3238 28.3238C54.9878 28.0198 54.6678 27.8678 54.3638 27.8678C54.0758 27.8678 53.6998 28.0838 53.2358 28.5158C52.7718 28.9318 52.3318 29.4758 51.9158 30.1478C52.0598 30.1638 52.2678 30.1718 52.5398 30.1718C54.7318 30.1718 55.8278 29.7878 55.8278 29.0198ZM73.9785 24.9158C74.4265 24.9158 74.9145 25.0678 75.4425 25.3718C75.9865 25.6758 76.2585 25.9958 76.2585 26.3318C76.2585 26.6678 75.9865 27.8038 75.4425 29.7398C74.8985 31.6758 74.0425 33.4198 72.8745 34.9718C71.7225 36.5078 70.8665 37.2758 70.3065 37.2758C70.0825 37.2758 69.7465 37.1158 69.2985 36.7958C68.8505 36.4758 68.5305 36.1158 68.3385 35.7158C68.0025 35.0598 67.8345 33.1398 67.8345 29.9558C67.1465 32.1958 66.3625 33.9798 65.4825 35.3078C64.6025 36.6198 63.8905 37.2758 63.3465 37.2758C63.1065 37.2758 62.7545 37.1158 62.2905 36.7958C61.8425 36.4758 61.5545 36.1558 61.4265 35.8358C61.0745 34.9718 60.7385 33.3238 60.4185 30.8918C60.0985 28.4598 59.9385 26.7958 59.9385 25.8998C59.9385 25.2438 60.1625 24.9158 60.6105 24.9158C61.2185 24.9158 61.8425 25.2838 62.4825 26.0198C63.1225 26.7558 63.4425 27.3318 63.4425 27.7478C63.4425 30.0678 63.4665 31.9158 63.5145 33.2918C64.1545 32.3158 64.7305 31.0998 65.2425 29.6438C65.7705 28.1878 66.1945 27.0358 66.5145 26.1878C66.8345 25.3398 67.1705 24.9158 67.5225 24.9158C68.2265 24.9158 68.9225 25.2598 69.6105 25.9478C70.2985 26.6198 70.6425 27.3078 70.6425 28.0118C70.6425 28.3318 70.5865 28.9958 70.4745 30.0038C70.3785 31.0118 70.3305 31.7718 70.3305 32.2838C70.3305 32.7958 70.3625 33.2198 70.4265 33.5558C70.9545 33.0278 71.4105 32.2518 71.7945 31.2278C72.1945 30.2038 72.4825 29.2358 72.6585 28.3238C73.1065 26.0518 73.5465 24.9158 73.9785 24.9158ZM97.468 28.2758C98.108 28.2758 98.564 28.3398 98.836 28.4678C99.124 28.5798 99.268 28.7958 99.268 29.1158C99.268 29.5478 98.572 29.9878 97.18 30.4358C97.212 31.6518 97.228 32.8198 97.228 33.9398C97.228 35.0438 97.14 35.8758 96.964 36.4358C96.788 36.9798 96.508 37.2518 96.124 37.2518C95.74 37.2518 95.436 37.0598 95.212 36.6758C95.004 36.2758 94.828 35.6278 94.684 34.7318C94.556 33.8358 94.42 32.6518 94.276 31.1798C92.644 31.5478 91.468 31.8438 90.748 32.0678C89.5 35.5238 88.668 37.2518 88.252 37.2518C87.916 37.2518 87.468 37.0278 86.908 36.5798C86.364 36.1318 86.092 35.6678 86.092 35.1878C86.092 34.9158 86.404 34.0678 87.028 32.6438C86.756 32.4678 86.516 32.2198 86.308 31.8998C86.116 31.5638 86.02 31.2438 86.02 30.9398C86.02 30.4118 86.812 29.9078 88.396 29.4278C88.524 29.1078 88.652 28.7478 88.78 28.3478C88.924 27.9318 89.268 26.9718 89.812 25.4678C90.372 23.9638 90.812 22.7078 91.132 21.6998C91.276 21.2198 91.772 20.7718 92.62 20.3558C93.484 19.9398 94.156 19.7318 94.636 19.7318C95.196 19.7318 95.692 20.5078 96.124 22.0598C96.572 23.6118 96.884 25.6838 97.06 28.2758H97.468ZM91.924 28.6838C92.404 28.6198 93.1 28.5398 94.012 28.4438C93.964 27.9798 93.884 27.1878 93.772 26.0678C93.676 24.9478 93.604 24.1398 93.556 23.6438C93.284 24.5398 92.74 26.2198 91.924 28.6838ZM104.353 18.1958C104.737 18.1958 105.233 18.5478 105.841 19.2518C106.449 19.9558 106.753 20.6278 106.753 21.2678C106.753 21.9078 106.657 23.0518 106.465 24.6998C106.273 26.3318 106.073 27.6358 105.865 28.6118C104.537 34.4038 103.609 37.2998 103.081 37.2998C102.729 37.2998 102.289 37.0198 101.761 36.4598C101.249 35.8838 100.993 35.4118 100.993 35.0438C100.993 35.0118 101.209 34.1798 101.641 32.5478C102.073 30.9158 102.505 28.8198 102.937 26.2598C103.385 23.6838 103.609 21.2278 103.609 18.8918C103.609 18.4278 103.857 18.1958 104.353 18.1958ZM110.728 18.1958C111.112 18.1958 111.608 18.5478 112.216 19.2518C112.824 19.9558 113.128 20.6278 113.128 21.2678C113.128 21.9078 113.032 23.0518 112.84 24.6998C112.648 26.3318 112.448 27.6358 112.24 28.6118C110.912 34.4038 109.984 37.2998 109.456 37.2998C109.104 37.2998 108.664 37.0198 108.136 36.4598C107.624 35.8838 107.368 35.4118 107.368 35.0438C107.368 35.0118 107.584 34.1798 108.016 32.5478C108.448 30.9158 108.88 28.8198 109.312 26.2598C109.76 23.6838 109.984 21.2278 109.984 18.8918C109.984 18.4278 110.232 18.1958 110.728 18.1958Z" fill="black"/>
</svg>
